<?xml version="1.0" encoding="UTF-8" standalone="no"?>
<!DOCTYPE svg PUBLIC "-//W3C//DTD SVG 20010904//EN"
"http://www.w3.org/TR/2001/REC-SVG-20010904/DTD/svg10.dtd">
<!-- Created with Inkscape (http://www.inkscape.org/) -->
<svg
   id="svg1"
   sodipodi:version="0.32"
   inkscape:version="0.39"
   width="140.00000pt"
   height="360.00000pt"
   sodipodi:docbase="/home/nicu/Desktop"
   sodipodi:docname="silhouette_male_1.svg"
   xmlns="http://www.w3.org/2000/svg"
   xmlns:cc="http://web.resource.org/cc/"
   xmlns:inkscape="http://www.inkscape.org/namespaces/inkscape"
   xmlns:sodipodi="http://sodipodi.sourceforge.net/DTD/sodipodi-0.dtd"
   xmlns:rdf="http://www.w3.org/1999/02/22-rdf-syntax-ns#"
   xmlns:dc="http://purl.org/dc/elements/1.1/"
   xmlns:xlink="http://www.w3.org/1999/xlink">
  <defs
     id="defs3" />
  <sodipodi:namedview
     id="base"
     pagecolor="#ffffff"
     bordercolor="#666666"
     borderopacity="1.0"
     inkscape:pageopacity="0.0"
     inkscape:pageshadow="2"
     inkscape:zoom="1.00000000"
     inkscape:cx="124.84854"
     inkscape:cy="280.59039"
     inkscape:window-width="1005"
     inkscape:window-height="776"
     inkscape:window-x="35"
     inkscape:window-y="32" />
  <metadata
     id="metadata4">
    <rdf:RDF
       id="RDF5">
      <cc:Work
         rdf:about=""
         id="Work6">
        <dc:format
           id="format7">image/svg+xml</dc:format>
        <dc:type
           id="type9"
           rdf:resource="http://purl.org/dc/dcmitype/StillImage" />
        <dc:title
           id="title914">male silhouette</dc:title>
        <dc:creator
           id="creator916">
          <cc:Agent
             id="Agent917">
            <dc:title
               id="title918">Nicu Buculei</dc:title>
          </cc:Agent>
        </dc:creator>
        <dc:rights
           id="rights920">
          <cc:Agent
             id="Agent921">
            <dc:title
               id="title922">Nicu Buculei</dc:title>
          </cc:Agent>
        </dc:rights>
        <cc:license
           id="license924"
           rdf:resource="http://web.resource.org/cc/PublicDomain" />
        <dc:subject
           id="subject929">shape</dc:subject>
      </cc:Work>
      <cc:License
         rdf:about="http://web.resource.org/cc/PublicDomain"
         id="License925">
        <cc:permits
           rdf:resource="http://web.resource.org/cc/Reproduction"
           id="permits926" />
        <cc:permits
           rdf:resource="http://web.resource.org/cc/Distribution"
           id="permits927" />
        <cc:permits
           rdf:resource="http://web.resource.org/cc/DerivativeWorks"
           id="permits928" />
      </cc:License>
    </rdf:RDF>
  </metadata>
  <g
     id="g1535">
    <g
       id="g1534"
       transform="translate(0.000000,-26.25000)">
      <path
         style="fill:#f0f0f0;fill-opacity:1.0000000;fill-rule:evenodd;stroke:#000000;stroke-width:1.0000000pt;stroke-linecap:butt;stroke-linejoin:miter;stroke-opacity:1.0000000;"
         d="M 82.500000,40.437500 C 73.890350,39.922393 65.049403,47.015411 65.343750,57.906250 C 65.343753,57.906250 64.763340,88.489888 73.593750,87.312500 C 76.112120,86.976716 79.060677,86.183993 82.031250,85.000000 C 79.939053,86.211206 77.858968,87.265761 75.937500,87.906250 C 75.937499,87.906250 79.474721,95.561586 76.531250,99.093750 C 74.882229,101.07257 81.539260,102.08366 88.031250,101.59375 C 83.067902,102.62777 78.051635,102.39539 75.343750,99.687500 C 71.222892,99.098806 48.487145,107.48945 57.906250,128.09375 C 57.906251,133.39199 59.646140,148.69993 58.468750,161.06250 C 57.880057,169.30421 59.163796,185.80476 59.781250,193.68750 C 57.684959,199.04327 57.858917,227.85709 59.625000,236.68750 C 56.092835,238.15924 58.868180,302.33127 67.625000,325.43750 C 66.374025,334.41509 67.980936,343.70565 71.218750,344.00000 C 73.573526,347.53217 79.463697,416.99310 78.875000,423.46875 C 78.286306,429.94438 59.208387,442.64468 52.968750,451.12500 C 45.492076,455.06951 56.499999,452.90027 56.500000,455.84375 C 56.500000,458.78722 66.535393,459.39015 70.656250,461.15625 C 79.486660,459.97886 85.356176,454.65626 97.718750,454.65625 C 105.96046,454.65625 106.54733,443.65485 104.78125,428.93750 C 103.01517,414.22015 117.52894,363.81383 106.34375,338.50000 C 108.69853,319.07309 111.84881,265.58638 112.43750,253.81250 C 120.97487,246.68851 116.23788,210.44920 111.59375,201.15625 C 109.07571,201.39021 152.82150,191.22711 160.12500,172.68750 C 161.30238,165.03448 130.59466,105.46461 127.06250,101.34375 C 121.17556,100.75506 100.06250,96.156251 100.06250,96.156250 C 99.798713,96.390728 99.305385,96.582031 99.000000,96.812500 C 100.40749,90.872903 96.519854,81.286772 95.375000,75.562500 C 95.313941,75.611347 95.097803,75.759187 95.031250,75.812500 C 96.682567,73.649664 97.880764,71.234327 98.312500,68.500000 C 99.489886,49.073097 91.109650,40.952607 82.500000,40.437500 z M 120.87500,128.84375 C 124.40716,133.55330 130.85295,162.13925 135.56250,167.43750 C 127.84756,172.48189 112.32785,185.24620 108.71875,186.18750 C 109.95991,167.65405 122.75071,136.81552 120.87500,128.84375 z "
         id="path920"
         sodipodi:nodetypes="ccccccccccccccccccccccccccccccccccc" />
      <path
         style="fill:none;fill-opacity:0.75000000;fill-rule:evenodd;stroke:#000000;stroke-width:1.0000000pt;stroke-linecap:butt;stroke-linejoin:miter;stroke-opacity:1.0000000;"
         d="M 68.288505,242.53868 C 68.288505,242.53868 67.699811,302.19881 74.175445,313.38400 C 74.764139,322.80310 71.820669,338.69784 80.651080,346.93956 C 83.005856,352.23780 85.360632,420.52631 83.594550,431.12280 C 75.941527,439.36451 63.931649,447.66328 56.514625,454.08187"
         id="path923"
         sodipodi:nodetypes="ccccc" />
      <path
         style="fill:none;fill-opacity:0.75000000;fill-rule:evenodd;stroke:#000000;stroke-width:1.0000000pt;stroke-linecap:butt;stroke-linejoin:miter;stroke-opacity:1.0000000;"
         d="M 112.27840,200.99144 C 109.76036,201.22540 106.60578,202.00477 106.28313,202.24676 C 103.33966,206.95631 105.46947,208.42906 103.11469,211.37253 C 100.75992,214.31600 97.808160,217.84128 94.864690,217.84128 C 91.921220,217.84129 81.927190,211.96214 81.927190,207.84128 C 82.803080,203.16983 97.337180,193.67789 109.35308,185.86919"
         id="path912"
         sodipodi:nodetypes="cccccc" />
    </g>
    <path
       style="fill:#808080;fill-opacity:1.0000000;fill-rule:evenodd;stroke:#000000;stroke-width:1.0000000pt;stroke-linecap:butt;stroke-linejoin:miter;stroke-opacity:1.0000000;"
       d="M 61.027241,26.932776 C 61.439587,25.283391 62.264280,11.675966 83.706283,12.088312 C 96.901362,13.325351 103.08656,26.520430 101.84952,33.942662 C 100.61248,36.416739 100.61248,39.303163 100.61248,39.303163 L 95.251977,38.890817 C 95.251977,38.890817 98.550747,33.530316 96.489016,31.056238 C 94.427285,28.582161 91.953208,32.293277 91.953208,32.293277 C 91.953208,32.293277 92.777900,29.819200 90.716169,25.695737 C 88.654438,21.572275 63.913664,24.871045 61.027241,26.932776 z "
       id="path913"
       sodipodi:nodetypes="ccccccccc" />
  </g>
</svg>
