<?xml version="1.0" encoding="UTF-8" standalone="no"?>
<!-- Created with Inkscape (http://www.inkscape.org/) -->

<svg
   xmlns:dc="http://purl.org/dc/elements/1.1/"
   xmlns:cc="http://creativecommons.org/ns#"
   xmlns:rdf="http://www.w3.org/1999/02/22-rdf-syntax-ns#"
   xmlns:svg="http://www.w3.org/2000/svg"
   xmlns="http://www.w3.org/2000/svg"
   xmlns:xlink="http://www.w3.org/1999/xlink"
   xmlns:sodipodi="http://sodipodi.sourceforge.net/DTD/sodipodi-0.dtd"
   xmlns:inkscape="http://www.inkscape.org/namespaces/inkscape"
   width="400"
   height="400"
   id="svg1"
   sodipodi:version="0.32"
   inkscape:version="0.48.0 r9654"
   sodipodi:docname="nude03.svg"
   version="1.1">
  <defs
     id="defs3">
    <linearGradient
       inkscape:collect="always"
       id="linearGradient1315">
      <stop
         style="stop-color:#ffffff;stop-opacity:1;"
         offset="0"
         id="stop1317" />
      <stop
         style="stop-color:#ffffff;stop-opacity:0;"
         offset="1"
         id="stop1319" />
    </linearGradient>
    <linearGradient
       inkscape:collect="always"
       xlink:href="#linearGradient1315"
       id="linearGradient1321"
       x1="-27.336449"
       y1="-119.85982"
       x2="102.33645"
       y2="129.6729"
       gradientUnits="userSpaceOnUse" />
    <linearGradient
       inkscape:collect="always"
       xlink:href="#linearGradient1315"
       id="linearGradient1325"
       x1="250.93457"
       y1="134.57944"
       x2="294.99527"
       y2="175.98982"
       gradientUnits="userSpaceOnUse" />
    <linearGradient
       inkscape:collect="always"
       xlink:href="#linearGradient1315"
       id="linearGradient1335"
       x1="360.05823"
       y1="257.67029"
       x2="390.57455"
       y2="282.203"
       gradientUnits="userSpaceOnUse" />
    <linearGradient
       inkscape:collect="always"
       xlink:href="#linearGradient1315"
       id="linearGradient1339"
       x1="350.09665"
       y1="114.87452"
       x2="391.51324"
       y2="143.61284"
       gradientUnits="userSpaceOnUse" />
    <linearGradient
       inkscape:collect="always"
       xlink:href="#linearGradient1315"
       id="linearGradient1343"
       x1="204.35817"
       y1="107.9574"
       x2="224.91238"
       y2="137.39665"
       gradientUnits="userSpaceOnUse" />
    <linearGradient
       inkscape:collect="always"
       xlink:href="#linearGradient1315"
       id="linearGradient1347"
       x1="240.52477"
       y1="80.359718"
       x2="257.19888"
       y2="97.88308"
       gradientUnits="userSpaceOnUse" />
    <filter
       inkscape:collect="always"
       id="filter3796"
       color-interpolation-filters="sRGB">
      <feGaussianBlur
         inkscape:collect="always"
         stdDeviation="4.6991854"
         id="feGaussianBlur3798" />
    </filter>
    <linearGradient
       inkscape:collect="always"
       xlink:href="#linearGradient1315"
       id="linearGradient3015"
       x1="-51.371548"
       y1="49.604321"
       x2="202.68199"
       y2="178.0206"
       gradientUnits="userSpaceOnUse" />
  </defs>
  <sodipodi:namedview
     id="base"
     pagecolor="#ffffff"
     bordercolor="#666666"
     borderopacity="1.0"
     inkscape:pageopacity="0.0"
     inkscape:pageshadow="2"
     inkscape:zoom="1.425"
     inkscape:cx="200"
     inkscape:cy="200"
     inkscape:current-layer="g1353"
     inkscape:window-width="1151"
     inkscape:window-height="793"
     inkscape:window-x="1"
     inkscape:window-y="25"
     fill="#ffcc99"
     showgrid="false"
     inkscape:window-maximized="0" />
  <metadata
     id="metadata4">
    <rdf:RDF>
      <cc:Work
         rdf:about="">
        <dc:format>image/svg+xml</dc:format>
        <dc:type
           rdf:resource="http://purl.org/dc/dcmitype/StillImage" />
      </cc:Work>
    </rdf:RDF>
  </metadata>
  <path
     inkscape:connector-curvature="0"
     id="path2970"
     d="m 442.39391,139.26248 c -16.36807,6.4524 -31.96691,16.94917 -50.23398,16.17504 -32.97,1.24 -65.55197,7.76231 -97.36554,16.29591 -14.08893,3.3456 -27.25293,9.47728 -39.87375,16.41227 -22.53342,9.61729 -48.92901,-0.68016 -70.44202,12.51682 -10.85925,5.69708 -19.93098,15.33024 -22.34166,27.77991 -5.54304,16.95343 -12.6971,34.07035 -10.79208,52.36082 0.90994,20.16588 2.37133,40.31249 3.19541,60.4754 1.20175,12.76412 5.9387,25.35755 12.78119,36.10625 7.73938,11.26819 22.18627,19.08715 33.58292,17.44789 16.55373,-8.51022 36.71467,-19.14493 53.7007,-26.10366 7.06102,-4.55426 12.44794,-11.24482 19.57258,-15.85101 11.18822,-8.54583 20.26643,-19.96529 24.41613,-33.64979 8.35219,-18.08752 23.09882,-34.76853 42.35113,-40.52454 16.50325,-2.13448 33.39426,0.50384 49.76884,-1.55852 10.03777,-3.96199 15.89861,-14.92299 19.08917,-24.69097 2.44564,-19.97276 3.59008,-43.56486 20.61192,-57.00146 13.53402,-10.93281 28.85982,-19.35914 45.43418,-24.50019 13.02305,-5.17081 27.53434,-8.33844 38.8931,-16.57637 -2.48258,-4.02287 -1.24382,-13.07628 -8.57075,-11.37795 -5.80584,0.82786 -10.52541,5.65761 -16.60073,2.739 -15.61997,-2.61522 -31.09818,-9.94116 -47.17676,-6.47485 z"
     style="fill:#000000;fill-opacity:0.23553718;fill-rule:evenodd;stroke:none;filter:url(#filter3796)"
     sodipodi:nodetypes="cccccccccccccccccccccc"
     transform="matrix(0.74866174,0,0,0.74866174,1.2723999,102.12577)" />
  <g
     inkscape:label="Layer 1"
     inkscape:groupmode="layer"
     id="layer1"
     transform="translate(0,-50)" />
  <g
     id="g1353"
     transform="matrix(0.74866174,0,0,0.74866174,1.2723999,64.692683)">
    <path
       sodipodi:nodetypes="cccccscccccccccsssssssssccssscsssscccssccccscc"
       id="path2241"
       d="m 521.49533,206.07477 c 1.55069,-48.01615 9.85981,-96.48287 -0.70094,-143.691592 0,0 -29.19392,-16.371496 -42.30607,-15.82243 -12.36215,-0.700935 -29.64019,3.004673 -29.64019,3.004673 0,0 -18.17523,6.911215 -29.18925,14.969626 -11.26402,5.308411 -22.26053,11.475986 -26.63552,19.175233 -2.14731,3.778903 -6.10747,8.813084 -6.10747,8.813084 L 360.28037,79.906542 339.75234,66.28972 316.1215,56.074766 l -25.23365,0.700935 -18.92523,0.700935 -2.10281,0.700934 -25.23364,-3.504673 -6.80301,-0.04118 c 0,0 -13.52409,-19.584988 -19.13157,-23.089661 -5.60748,-3.504673 -33.64486,-21.028037 -45.56075,-4.906542 -11.91589,16.121495 -3.50467,53.971963 -7.71028,60.280374 -4.20561,6.308411 -18.2243,23.130842 -23.13084,25.934582 -4.90654,2.80374 -35.04673,14.01869 -36.4486,14.71962 -1.40187,0.70094 -9.112148,27.33645 -9.112148,29.43926 0,2.1028 8.411218,28.03738 14.719628,32.94392 6.30841,4.90654 23.83177,21.72897 23.13084,37.85047 -0.70094,16.12149 -4.75467,38.3014 -3.50467,46.96262 1.20147,8.32496 3.50467,30.84112 3.50467,30.84112 l 0.70093,25.23364 c 0,0 -2.15654,36.24767 -1.55373,40.45327 0.66714,4.65444 3.65654,21.92991 7.16121,24.73365 3.50467,2.80374 11.91589,14.71962 12.61682,17.52336 0.70094,2.80374 9.25935,18.67056 9.25935,18.67056 0,0 11.76869,7.96496 16.67523,7.96496 4.90654,0 32.24299,2.80373 36.4486,-1.40187 4.20561,-4.20561 21.72897,-20.87617 25.23365,-25.78271 3.50467,-4.90655 18.5771,-24.03271 21.02803,-28.18926 2.51747,-4.2694 -0.70093,-36.44859 -0.70093,-36.44859 l -2.70561,-30.39019 c 0,0 37.20794,-21.72897 47.56542,-19.37617 14.34001,5.57661 27.82597,5.28376 32.24299,4.90654 4.70561,-0.40187 39.95327,-6.30841 44.85981,-11.91588 4.90655,-5.60748 9.81309,-21.72898 9.81309,-21.72898 l 1.8528,-20.0771 c 11.78193,-8.35903 23.06387,-13.71807 34.5958,-20.5771 l 13.62149,-12.26869 c 0,0 36.8458,-7.35748 40.35047,-10.16122 3.50467,-2.80374 32.24299,-5.60748 32.24299,-5.60748 z"
       style="fill:#f3ddb9;fill-opacity:1;fill-rule:evenodd;stroke:none"
       inkscape:connector-curvature="0" />
    <path
       inkscape:connector-curvature="0"
       style="fill:url(#linearGradient3015);fill-opacity:1;fill-rule:evenodd;stroke:none"
       d="m 521.49533,206.07477 c 1.55069,-48.01615 9.85981,-96.48287 -0.70094,-143.691592 0,0 -29.19392,-16.371496 -42.30607,-15.82243 -12.36215,-0.700935 -29.64019,3.004673 -29.64019,3.004673 0,0 -18.17523,6.911215 -29.18925,14.969626 -11.26402,5.308411 -22.26053,11.475986 -26.63552,19.175233 -2.14731,3.778903 -6.10747,8.813084 -6.10747,8.813084 L 360.28037,79.906542 339.75234,66.28972 316.1215,56.074766 l -25.23365,0.700935 -18.92523,0.700935 -2.10281,0.700934 -25.23364,-3.504673 -6.80301,-0.04118 c 0,0 -13.52409,-19.584988 -19.13157,-23.089661 -5.60748,-3.504673 -33.64486,-21.028037 -45.56075,-4.906542 -11.91589,16.121495 -3.50467,53.971963 -7.71028,60.280374 -4.20561,6.308411 -18.2243,23.130842 -23.13084,25.934582 -4.90654,2.80374 -35.04673,14.01869 -36.4486,14.71962 -1.40187,0.70094 -9.112148,27.33645 -9.112148,29.43926 0,2.1028 8.411218,28.03738 14.719628,32.94392 6.30841,4.90654 23.83177,21.72897 23.13084,37.85047 -0.70094,16.12149 -4.75467,38.3014 -3.50467,46.96262 1.20147,8.32496 3.50467,30.84112 3.50467,30.84112 l 0.70093,25.23364 c 0,0 -2.15654,36.24767 -1.55373,40.45327 0.66714,4.65444 3.65654,21.92991 7.16121,24.73365 3.50467,2.80374 11.91589,14.71962 12.61682,17.52336 0.70094,2.80374 9.25935,18.67056 9.25935,18.67056 0,0 11.76869,7.96496 16.67523,7.96496 4.90654,0 32.24299,2.80373 36.4486,-1.40187 4.20561,-4.20561 21.72897,-20.87617 25.23365,-25.78271 3.50467,-4.90655 18.5771,-24.03271 21.02803,-28.18926 2.51747,-4.2694 -0.70093,-36.44859 -0.70093,-36.44859 l -2.70561,-30.39019 c 0,0 37.20794,-21.72897 47.56542,-19.37617 14.34001,5.57661 27.82597,5.28376 32.24299,4.90654 4.70561,-0.40187 39.95327,-6.30841 44.85981,-11.91588 4.90655,-5.60748 9.81309,-21.72898 9.81309,-21.72898 l 1.8528,-20.0771 c 11.78193,-8.35903 23.06387,-13.71807 34.5958,-20.5771 l 13.62149,-12.26869 c 0,0 36.8458,-7.35748 40.35047,-10.16122 3.50467,-2.80374 32.24299,-5.60748 32.24299,-5.60748 z"
       id="path3013"
       sodipodi:nodetypes="cccccscccccccccsssssssssccssscsssscccssccccscc" />
    <path
       sodipodi:nodetypes="ccsssssscsscsscccssscscssssccsssssscscscsssccsscc"
       id="path4484"
       d="m 237.86682,54.521028 c 0,0 1.09813,-4.352804 -0.95093,-10.362149 1.72657,-11.667364 -4.78993,-18.626359 -6.30841,-23.831776 -2.23059,-7.646601 -14.59333,-10.4684461 -20.92056,-9.964954 -8.80842,0.700935 -10.19507,5.973683 -13.42524,1.553739 -4.20561,-5.754673 -25.03271,-7.3084114 -32.04205,-8.0093459 -7.00935,-0.7009346 -25.42974,-0.05511 -32.69393,2 -7.25934,2.0537383 -37.195259,11.4874369 -44.109812,17.5233649 -9.246963,8.071961 -22.679907,28.488317 -22.679907,28.488317 0,0 -15.67056,21.679907 -17.07243,23.081776 -1.401869,1.401869 -10.464953,20.577103 -10.464953,26.18458 0,5.60748 -7.759346,39.64953 -7.759346,42.45327 -2.5,3.30374 -6.21028,14.57243 -6.21028,22.98365 0,8.41121 -5.906542,42.10514 -7.308411,47.01168 -1.401869,4.90654 -8.9112152,18.37617 -10.3130844,17.67523 5.3481314,-0.70093 25.1355144,-13.31776 28.7383174,-17.52336 -0.647196,5.79439 -7.041301,23.10715 -9.112149,25.93458 -2.602804,3.55373 -18.9252338,13.31775 -17.5233646,37.14953 1.4018691,23.83177 10.4602806,48.16355 15.3668226,48.86448 4.906542,0.70094 0.05374,-6.10747 0.05374,-11.01401 0,-4.90655 -1.901869,-32.24299 -1.901869,-32.24299 0,0 8.911215,-24.53271 15.920561,-30.84113 7.009346,-6.30841 18.224299,-16.82243 18.224299,-16.82243 0,0 -10.514019,35.0958 -11.214953,44.90888 -0.700935,9.81309 2.102803,44.10982 5.607476,51.11916 3.504673,7.00935 11.813084,39.10981 11.764019,51.41823 -0.0248,6.34718 3.504673,3.55841 4.357476,2.55373 2.644896,-3.11593 3.705608,-10.66121 3.705608,-10.66121 l 18.023364,28.18458 c 0,0 0.700935,4.20561 2.803739,2.80374 2.102803,-1.40187 -3.504673,-25.93458 -2.803739,-28.73832 0.700935,-2.80374 0,-9.81308 2.803739,-7.00935 2.803738,2.80374 20.425227,23.63084 25.331777,25.03271 4.90654,1.40187 -4.61315,-13.38999 -9.21028,-32.04205 -5.55578,-22.5416 0.8528,-101.64954 3.65654,-105.15421 2.80374,-3.50467 -1.95561,13.38084 3.65187,19.68925 5.35747,9.55842 24.90618,33.46368 27.73832,38.50234 3.15186,5.60748 7.46028,26.63551 8.41121,32.24299 3.20093,-5.39252 -0.70093,-32.24299 -6.30841,-42.05607 -5.60748,-9.81309 -9.96495,-17.52337 -9.96495,-17.52337 0,0 -2.65187,-14.01869 -2.65187,-20.3271 0,-6.30841 4.90654,-27.33645 2.1028,-44.15888 -2.80374,-16.82243 -19.0771,-34.29673 -27.48832,-41.30607 -8.411211,-7.00935 -11.112145,-47.56075 5.10748,-56.32477 11.96963,-2.76402 15.76869,-4.70093 22.88084,-9.61215 14.36215,-5.41121 17.48254,-9.86753 26.68458,-20.679906 10.27939,-12.078259 9.96495,-18.57243 11.36682,-30.488318 1.40187,-11.915888 14.00087,-40.01117 43.42143,-35.34061 5.28825,2.419231 22.71642,23.272853 22.71642,24.674722 z"
       style="fill:#977328;fill-opacity:1;fill-rule:evenodd;stroke:none"
       inkscape:connector-curvature="0" />
    <path
       style="fill:url(#linearGradient1321);fill-opacity:1;fill-rule:evenodd;stroke:none"
       d="m 237.86682,54.521028 c 0,0 1.09813,-4.352804 -0.95093,-10.362149 1.72657,-11.667364 -4.78993,-18.626359 -6.30841,-23.831776 -2.23059,-7.646601 -14.59333,-10.4684461 -20.92056,-9.964954 -8.80842,0.700935 -10.19507,5.973683 -13.42524,1.553739 -4.20561,-5.754673 -25.03271,-7.3084114 -32.04205,-8.0093459 -7.00935,-0.7009346 -25.42974,-0.05511 -32.69393,2 -7.25934,2.0537383 -37.195259,11.4874369 -44.109812,17.5233649 -9.246963,8.071961 -22.679907,28.488317 -22.679907,28.488317 0,0 -15.67056,21.679907 -17.07243,23.081776 -1.401869,1.401869 -10.464953,20.577103 -10.464953,26.18458 0,5.60748 -7.759346,39.64953 -7.759346,42.45327 -2.5,3.30374 -6.21028,14.57243 -6.21028,22.98365 0,8.41121 -5.906542,42.10514 -7.308411,47.01168 -1.401869,4.90654 -8.9112152,18.37617 -10.3130844,17.67523 5.3481314,-0.70093 25.1355144,-13.31776 28.7383174,-17.52336 -0.647196,5.79439 -7.041301,23.10715 -9.112149,25.93458 -2.602804,3.55373 -18.9252338,13.31775 -17.5233646,37.14953 1.4018691,23.83177 10.4602806,48.16355 15.3668226,48.86448 4.906542,0.70094 0.05374,-6.10747 0.05374,-11.01401 0,-4.90655 -1.901869,-32.24299 -1.901869,-32.24299 0,0 8.911215,-24.53271 15.920561,-30.84113 7.009346,-6.30841 18.224299,-16.82243 18.224299,-16.82243 0,0 -10.514019,35.0958 -11.214953,44.90888 -0.700935,9.81309 2.102803,44.10982 5.607476,51.11916 3.504673,7.00935 11.813084,39.10981 11.764019,51.41823 -0.0248,6.34718 3.504673,3.55841 4.357476,2.55373 2.644896,-3.11593 3.705608,-10.66121 3.705608,-10.66121 l 18.023364,28.18458 c 0,0 0.700935,4.20561 2.803739,2.80374 2.102803,-1.40187 -3.504673,-25.93458 -2.803739,-28.73832 0.700935,-2.80374 0,-9.81308 2.803739,-7.00935 2.803738,2.80374 20.425227,23.63084 25.331777,25.03271 4.90654,1.40187 -4.61315,-13.38999 -9.21028,-32.04205 -5.55578,-22.5416 0.8528,-101.64954 3.65654,-105.15421 2.80374,-3.50467 -1.95561,13.38084 3.65187,19.68925 5.35747,9.55842 24.90618,33.46368 27.73832,38.50234 3.15186,5.60748 7.46028,26.63551 8.41121,32.24299 3.20093,-5.39252 -0.70093,-32.24299 -6.30841,-42.05607 -5.60748,-9.81309 -9.96495,-17.52337 -9.96495,-17.52337 0,0 -2.65187,-14.01869 -2.65187,-20.3271 0,-6.30841 4.90654,-27.33645 2.1028,-44.15888 -2.80374,-16.82243 -19.0771,-34.29673 -27.48832,-41.30607 -8.411211,-7.00935 -11.112145,-47.56075 5.10748,-56.32477 11.96963,-2.76402 15.76869,-4.70093 22.88084,-9.61215 14.36215,-5.41121 17.48254,-9.86753 26.68458,-20.679906 10.27939,-12.078259 9.96495,-18.57243 11.36682,-30.488318 1.40187,-11.915888 14.00087,-40.01117 43.42143,-35.34061 5.28825,2.419231 22.71642,23.272853 22.71642,24.674722 z"
       id="path1313"
       sodipodi:nodetypes="ccsssssscsscsscccssscscssssccsssssscscscsssccsscc"
       inkscape:connector-curvature="0" />
    <path
       sodipodi:nodetypes="csscccssc"
       id="path5212"
       d="m 390.22226,275.78819 c 0,0 -2.6653,-6.04689 -5.4112,-6.35199 -2.74589,-0.3051 -7.70808,1.1653 -10.75908,3.91119 -3.05099,2.7459 -4.88159,11.28868 -4.88159,11.28868 l 1.8306,7.93259 7.01729,2.4408 c 0,0 3.96629,-0.6102 6.40709,-3.051 2.44079,-2.4408 5.49179,-8.54279 5.79689,-10.98358 0.3051,-2.4408 0.61019,-1.8306 0,-5.18669 z"
       style="fill:#c79e5c;fill-opacity:1;fill-rule:evenodd;stroke:none"
       inkscape:connector-curvature="0" />
    <path
       sodipodi:nodetypes="csscssc"
       id="path5940"
       d="m 390.22226,158.62998 c 0,0 2.44079,-6.71219 0.61019,-11.28868 -1.83059,-4.57649 -5.79689,-9.76318 -10.98358,-14.64478 -5.18669,-4.88159 -6.14303,-4.39527 -6.14303,-4.39527 0,0 -3.92525,6.22587 -2.09465,11.71766 1.83059,5.49179 5.79689,13.11928 8.23768,14.33968 2.4408,1.2204 8.84789,5.79689 10.37339,4.27139 z"
       style="fill:#c79e5c;fill-opacity:1;fill-rule:evenodd;stroke:none"
       inkscape:connector-curvature="0" />
    <path
       sodipodi:nodetypes="csssscsssc"
       id="path6668"
       d="m 261.77537,182.12264 c 0,0 2.13569,1.5255 4.88159,2.1357 2.7459,0.6102 6.10199,-0.9153 9.45808,-1.2204 3.3561,-0.3051 11.59379,-3.66119 14.33968,-7.01729 2.7459,-3.35609 6.14304,-11.10746 3.70224,-14.15846 -2.44079,-3.05099 -3.70224,-9.40853 -3.70224,-9.40853 0,0 -2.1357,3.73552 -3.66119,5.87122 -1.5255,2.1357 -6.40709,5.18669 -7.32239,8.23769 -0.9153,3.05099 -5.18669,7.32239 -6.71219,8.84788 -1.5255,1.5255 -10.06828,7.01729 -10.98358,6.71219 z"
       style="fill:#a60040;fill-opacity:1;fill-rule:evenodd;stroke:none"
       inkscape:connector-curvature="0" />
    <path
       id="path7396"
       d="m 261.47027,89.677495 c 0,0 1.8306,3.661194 -0.3051,6.10199 -2.1357,2.440796 -7.62749,9.458085 -8.23769,9.763185 -0.6102,0.3051 -3.35609,-7.932588 -1.83059,-10.068285 1.52549,-2.135696 2.13569,-4.881592 3.96629,-7.322388 1.8306,-2.440796 3.66119,-3.966293 3.66119,-3.966293 0,0 1.8306,3.050995 2.7459,5.491791 z"
       style="fill:#ffffff;fill-opacity:1;fill-rule:evenodd;stroke:none"
       inkscape:connector-curvature="0" />
    <path
       id="path8124"
       d="m 236.14701,127.20473 c 0,0 -0.3051,3.9663 -1.8306,6.71219 -1.52549,2.7459 -8.23768,8.54279 -10.67848,9.45809 -2.4408,0.91529 -12.81418,5.49179 -12.81418,3.66119 0,-1.8306 0.6102,-11.89888 3.9663,-14.64478 3.35609,-2.74589 13.11927,-8.84788 18.00087,-6.10199 4.88159,2.7459 2.74589,1.8306 3.35609,0.9153 z"
       style="fill:#ffffff;fill-opacity:1;fill-rule:evenodd;stroke:none"
       inkscape:connector-curvature="0" />
    <path
       id="path8854"
       d="m 254.75808,93.643788 c 0,0 2.4408,1.525498 2.4408,4.271393 0,2.745899 -1.5255,3.966289 -3.3561,3.966289 -1.8306,0 -3.66119,2.4408 -3.05099,-0.61019 0.6102,-3.050999 -1.5255,-6.407094 0.3051,-7.322392 1.83059,-0.915299 2.74589,-1.525498 3.66119,-0.3051 z"
       style="fill:#5a52a1;fill-opacity:1;fill-rule:evenodd;stroke:none"
       inkscape:connector-curvature="0" />
    <path
       sodipodi:nodetypes="ccsssc"
       id="path8126"
       d="m 224.85833,133.00162 -0.3051,7.93259 c 0,0 -2.52923,1.37035 -5.79689,2.1357 -3.52104,0.82469 -7.23178,1.24518 -6.62158,-2.41602 0.6102,-3.66119 4.18078,-9.78796 8.14708,-9.48286 3.96629,0.3051 4.88159,2.44079 4.57649,1.83059 z"
       style="fill:#5a52a1;fill-opacity:1;fill-rule:evenodd;stroke:none"
       inkscape:connector-curvature="0" />
    <path
       style="fill:url(#linearGradient1335);fill-opacity:1;fill-rule:evenodd;stroke:none"
       d="m 390.22226,275.78819 c 0,0 -2.6653,-6.04689 -5.4112,-6.35199 -2.74589,-0.3051 -7.70808,1.1653 -10.75908,3.91119 -3.05099,2.7459 -4.88159,11.28868 -4.88159,11.28868 l 1.8306,7.93259 7.01729,2.4408 c 0,0 3.96629,-0.6102 6.40709,-3.051 2.44079,-2.4408 5.49179,-8.54279 5.79689,-10.98358 0.3051,-2.4408 0.61019,-1.8306 0,-5.18669 z"
       id="path1333"
       sodipodi:nodetypes="csscccssc"
       inkscape:connector-curvature="0" />
    <path
       style="fill:url(#linearGradient1325);fill-opacity:1;fill-rule:evenodd;stroke:none"
       d="m 261.77537,182.12264 c 0,0 2.13569,1.5255 4.88159,2.1357 2.7459,0.6102 6.10199,-0.9153 9.45808,-1.2204 3.3561,-0.3051 11.59379,-3.66119 14.33968,-7.01729 2.7459,-3.35609 6.14304,-11.10746 3.70224,-14.15846 -2.44079,-3.05099 -3.70224,-9.40853 -3.70224,-9.40853 0,0 -2.1357,3.73552 -3.66119,5.87122 -1.5255,2.1357 -6.40709,5.18669 -7.32239,8.23769 -0.9153,3.05099 -5.18669,7.32239 -6.71219,8.84788 -1.5255,1.5255 -10.06828,7.01729 -10.98358,6.71219 z"
       id="path1323"
       sodipodi:nodetypes="csssscsssc"
       inkscape:connector-curvature="0" />
    <path
       style="fill:url(#linearGradient1339);fill-opacity:1;fill-rule:evenodd;stroke:none"
       d="m 390.22226,158.62998 c 0,0 2.44079,-6.71219 0.61019,-11.28868 -1.83059,-4.57649 -5.79689,-9.76318 -10.98358,-14.64478 -5.18669,-4.88159 -6.14303,-4.39527 -6.14303,-4.39527 0,0 -3.92525,6.22587 -2.09465,11.71766 1.83059,5.49179 5.79689,13.11928 8.23768,14.33968 2.4408,1.2204 8.84789,5.79689 10.37339,4.27139 z"
       id="path1337"
       sodipodi:nodetypes="csscssc"
       inkscape:connector-curvature="0" />
    <path
       style="fill:url(#linearGradient1343);fill-opacity:1;fill-rule:evenodd;stroke:none"
       d="m 224.85833,133.00162 -0.3051,7.93259 c 0,0 -2.52923,1.37035 -5.79689,2.1357 -3.52104,0.82469 -7.23178,1.24518 -6.62158,-2.41602 0.6102,-3.66119 4.18078,-9.78796 8.14708,-9.48286 3.96629,0.3051 4.88159,2.44079 4.57649,1.83059 z"
       id="path1341"
       sodipodi:nodetypes="ccsssc"
       inkscape:connector-curvature="0" />
    <path
       style="fill:url(#linearGradient1347);fill-opacity:1;fill-rule:evenodd;stroke:none"
       d="m 254.75808,93.643788 c 0,0 2.4408,1.525498 2.4408,4.271393 0,2.745899 -1.5255,3.966289 -3.3561,3.966289 -1.8306,0 -3.66119,2.4408 -3.05099,-0.61019 0.6102,-3.050999 -1.5255,-6.407094 0.3051,-7.322392 1.83059,-0.915299 2.74589,-1.525498 3.66119,-0.3051 z"
       id="path1345"
       inkscape:connector-curvature="0" />
    <path
       sodipodi:nodetypes="cccccccccccccccccccccccccccccccccccccccccccccccccccccsccccscccccccccccccccccccccccccccccccccccccccccccccccccccccccccccccccccccccccccccccccccccccccccccccccccccccccccccccccccccccsccccccccccccccccccccccccccccccccccccccccccccccccccccccccccccccccccccccccccccccccccccccccccccccccccccccccccccccccccccccccccccccccccccccccccccccccccccccccccccccccccccccccccccccccccccccccccccccccccccccccccccsccccccccccscccccccccccccccccccccccccccccccccccccccccccccccccccccccccccccccccccccccccsccccccccscccccccccccccccccccccccccccccccccccscccccccccccccccccccccccccccccccccccccccccccccccccccccccccccccccccccccccccccccccccccccccccccccccccccccccccccccccccccccc"
       id="path1415"
       d="M 159.75,2.8125 C 140.33771,2.1172138 120.82199,7.9314336 102.84375,15.03125 89.995145,19.304465 79.430621,28.469061 72.15625,39.75 c -7.383076,12.190701 -15.929237,23.599018 -24.5,34.96875 -7.703063,9.339256 -10.844211,21.205473 -11.875,33.0625 -0.154252,11.26075 -8.990504,27.18932 -6,35.1875 2.374059,-13.25855 6.856428,-26.15474 8.4375,-39.625 C 38.59952,89.337853 46.293963,77.166226 54.84375,66.625 68.14458,51.449327 75.233783,30.390153 93.3125,19.8125 115.64485,9.9832205 140.15307,1.6489341 164.90625,4.65625 c 8.22163,1.615866 16.44786,3.0449973 24.78125,3.9375 7.86297,3.009585 12.67892,11.877168 16.5625,19.125 4.70876,-2.743141 -4.69836,-10.412163 -6.625,-13.875 C 195.66873,5.9102775 186.47508,6.7308566 179.0625,5.875 172.67707,4.0100174 166.22076,3.0442621 159.75,2.8125 z m 49.59375,6.875 c -2.47354,0.221731 -4.88022,0.973385 -7.0625,2.34375 4.34148,-1.067428 8.72913,-1.86719 13.21875,-0.28125 5.8124,0.138357 12.44832,2.42576 14.4375,8.46875 1.65808,5.732123 6.50102,10.218849 6.8125,16.375 -1.29643,5.538243 0.55014,10.885966 1.03125,16.375 -0.16523,-0.37209 -0.35446,-0.70173 -0.5,-1.09375 -4.61458,-8.149562 -12.45697,-13.552068 -18,-20.9375 -1.32609,-0.03886 -1.98279,1.571976 -1.21875,2.59375 7.89473,7.017506 14.82728,15.103489 20.40625,24.09375 2.38899,8.164574 12.79909,7.528317 15.71875,14.3125 -0.50488,0.963414 -0.41503,2.845141 -0.375,3.8125 0.11211,4.015631 -0.44259,8.706184 -1.96875,12.28125 -0.34621,1.610475 -4.68657,3.567412 -1.9375,4.0625 2.79571,-1.594188 4.27048,-4.773424 5.25,-7.71875 0.53241,-1.461974 0.83301,-2.950225 1.0625,-4.46875 0.45717,1.502161 1.04249,2.950026 1.6875,4.375 -0.97772,0.78835 -1.89908,1.641262 -2.65625,2.65625 -1.18057,1.800738 -2.06591,3.761255 -2.8125,5.78125 -0.13719,-0.04971 -0.20279,-0.147253 -0.59375,0 -2.75542,2.364754 -2.25902,6.461902 -1.625,9.65625 -0.0171,0.87411 0.402,1.95302 0.96875,2.75 1.05029,3.42205 3.1069,6.58609 5.9375,8.75 4.61432,3.11145 9.39244,6.10242 14.03125,9.15625 5.5587,3.35545 11.39067,6.60413 16.5625,10.375 1.96458,4.01855 0.89358,9.33779 -1.5,12.9375 -3.44614,3.13092 -9.37853,1.21079 -11.78125,6.125 -2.7926,3.41612 -7.57673,4.50987 -11.78125,4.8125 -5.28498,-0.35603 -3.89965,-6.7111 -4,-10.3125 -3.4581,1.32331 -2.40252,8.51786 -0.21875,10.75 5.542,2.23518 12.17837,-1.22488 16.65625,-4.65625 2.38084,-5.61758 10.64502,-2.38153 13.28125,-7.78125 1.91262,-4.06176 4.07558,-10.43848 0.15625,-13.9375 -0.99929,-0.55589 -1.92991,-1.21851 -2.90625,-1.8125 0.95929,-0.35826 0.0918,-8.31889 -2.34375,-10.625 -2.84329,-11.04405 -12.14162,-18.49987 -18.6875,-27.34375 -2.02097,-2.447507 -3.50417,-5.143628 -4.75,-7.9375 0.37217,-0.29551 0.69934,-0.635862 1.0625,-0.9375 0.64795,-0.481523 -0.1554,-0.121133 -0.4375,0.09375 0.53974,-0.441968 1.09248,-0.862719 1.625,-1.3125 -0.85413,0.485287 -1.67527,1.043904 -2.5,1.59375 -1.49162,-3.486995 -2.5236,-7.14821 -3.28125,-10.90625 -0.0696,-0.896246 -0.0125,-1.800066 -0.125,-2.6875 -0.11929,0.05364 -0.23543,0.132999 -0.375,0.125 -0.0466,0.01045 -0.0499,0.05018 -0.0937,0.0625 -6.1603,-4.970144 -14.23249,-8.51663 -17.875,-16.5625 2.582,-0.174051 2.15248,-3.455273 1.40625,-5.09375 -2.16287,-5.302642 0.40641,-11.089967 -1.3125,-16.40625 -2.11825,-4.619868 -5.05064,-8.812188 -6.65625,-13.6875 -2.53451,-5.521748 -8.94188,-7.186826 -14.5,-7.46875 -2.42409,-0.6683065 -4.96396,-0.971731 -7.4375,-0.75 z M 148,25.375 c -1.24609,0.06566 -2.4948,0.242105 -3.75,0.53125 -16.37802,5.784908 -26.09079,21.264646 -34.09375,35.71875 -8.8087,11.705636 -8.15801,27.168966 -14.09375,40.0625 -4.224082,7.92975 -3.141015,17.13734 -6.34375,25.21875 5.623086,-2.65851 3.331041,-14.5515 6.125,-20.71875 5.86945,-10.797195 6.51827,-23.341581 10.65625,-34.75 4.53018,-9.868034 10.37256,-19.163556 16.5,-28.125 6.63318,-8.548494 15.93061,-18.296227 27.8125,-16.6875 12.36369,3.336402 27.09724,4.493137 23.21875,2.96875 C 165.26609,29.288025 156.72262,24.915407 148,25.375 z m 319.21875,20.65625 c -6.91729,0.52434 -13.7957,2.055691 -20.46875,4.21875 -12.83462,2.841984 -22.21758,12.593575 -34.125,17.5625 -11.32071,4.151747 -19.31056,13.670451 -24.65625,24.15625 -0.41463,-0.217038 -0.76001,-0.51954 -1.1875,-0.71875 -4.83218,-1.978855 -9.76906,-5.475134 -14.96875,-6.4375 -1.4816,-0.934261 -4.80854,-2.186847 -5.75,-2.84375 C 359.16853,77.205777 351.83574,73.224357 344.75,68.78125 339.13166,64.279923 332.64278,61.298197 325.78125,59.25 318.20801,55.402314 309.4442,55.347219 301.125,55.5625 c -9.7347,1.106032 -19.54725,0.832409 -29.3125,1.40625 -1.14939,0.67428 -1.25177,0.899107 -1.0625,1 -9.40812,-2.561921 -19.24654,-3.349281 -28.96875,-3.46875 -0.59608,0.433071 -1.1852,0.879397 -1.78125,1.3125 6.22927,-0.08733 12.45931,0.413069 18.625,1.28125 6.36327,0.660504 13.773,1.676425 19.125,5.34375 1.249,0.97377 3.32601,3.972611 4,1.3125 -3.24867,-2.195204 -6.60977,-4.282561 -10.3125,-5.625 -0.0608,-0.01715 -0.1267,-0.01425 -0.1875,-0.03125 0.7298,-0.04742 1.84345,-0.243533 2.59375,-0.125 11.79717,0.438375 23.52325,-1.792592 35.3125,-1.0625 5.8591,0.06731 11.45304,1.599098 16.65625,4.28125 8.20801,1.70148 14.65162,7.24518 21.59375,11.53125 8.10629,3.697204 14.61471,10.486983 23.125,13.21875 0.22496,0.0033 0.12542,-0.05844 0.3125,-0.0625 4.04059,1.821886 10.1402,4.013463 14.0625,6.53125 9.07569,3.961347 14.8465,12.31347 17.09375,21.78125 4.85176,10.51595 7.79713,21.79758 12.34375,32.4375 3.96888,6.81498 -0.19261,14.15466 -1.125,21.15625 -0.40566,3.67758 -0.89601,7.40106 -1.65625,11.03125 0.0831,-2.01567 -0.0359,-4.09302 0.34375,-6.03125 1.36716,-5.08673 0.65362,-10.41522 1.40625,-15.59375 -0.2848,-1.83085 2.66589,-8.76359 -0.9375,-7.1875 -0.52169,5.49355 -1.66215,10.95889 -1.46875,16.5 -0.0824,4.87558 -1.7711,9.51396 -1.3125,14.4375 -0.89534,5.37285 -5.54189,9.28129 -9.46875,12.6875 -6.21006,3.28747 -9.5758,10.00275 -15.40625,13.75 -4.0608,2.76737 -6.05435,-1.88526 -4.0625,-5.15625 -0.0919,-4.51973 4.21784,-6.72774 6.34375,-10.125 l -0.5,0.1875 c -2.83901,2.0936 -5.57812,4.73513 -7.1875,7.9375 -0.50273,2.77235 -3.34093,8.8856 1.125,9.34375 0.3958,-0.0924 0.74572,-0.25591 1.125,-0.375 -1.09472,1.20847 -1.51131,3.54775 0.15625,4.125 2.83569,-0.34035 5.22671,-2.28929 7.3125,-4.125 2.97265,-3.22459 5.96538,-6.50558 9.75,-8.8125 3.867,-1.78116 4.84106,-6.29341 7.65625,-9.125 -2.81918,0.67742 -3.97901,3.57488 -5.375,5.78125 -1.44106,2.81303 -4.42385,4.04517 -6.78125,5.90625 -3.29874,2.26973 -5.47815,5.72947 -8.5625,8.21875 -2.33595,2.22143 -3.54095,-0.39848 -2.65625,-2.4375 6.32457,-2.66829 10.43486,-8.93047 15.40625,-13.46875 4.41473,-2.43005 7.95475,-6.0756 10.96875,-10.0625 0.33614,-0.37607 0.44973,-0.81436 0.6875,-1.21875 -1.0151,3.0656 -2.30263,6.0451 -4.28125,8.75 -4.25331,3.90659 -5.01564,15.52156 -12.6875,12.90625 -4.36591,2.02974 0.26292,2.49732 2.21875,1.8125 6.87267,-2.22704 8.482,-10.63684 12.5,-15.9375 7.78433,-9.51539 5.4114,-22.4851 9.3125,-33.4375 2.49484,-6.73632 -1.54361,-13.0371 -3.625,-19.25 -3.29913,-9.00435 -6.32735,-18.05928 -10.125,-26.875 -1.99052,-8.57344 -7.49322,-15.671528 -15.21875,-19.8125 3.04796,-2.048463 3.8232,-6.096297 6.4375,-8.59375 5.48072,-11.282557 18.19502,-14.718516 28.15625,-20.59375 9.00838,-7.074732 19.64075,-11.222694 30.75,-13.625 14.66134,-4.670257 30.36147,-1.405136 44.6875,2.9375 8.47837,1.005159 16.52161,11.126426 22.71875,10.875 -9.07442,-8.433822 -21.00611,-12.940054 -33,-15.28125 -6.86857,-1.871184 -13.83271,-2.33684 -20.75,-1.8125 z M 168.25,56.5625 c -5.79877,0.246546 -11.42211,1.171469 -17.3125,2.3125 C 140.24037,57.930773 131.87796,62.174771 125.84375,69 137.76848,56.415132 170.18292,56.480318 168.25,56.5625 z M 125.84375,69 c -4.84969,5.485435 -8.21879,12.623763 -9.8125,20.375 -5.68931,15.89421 -14.30445,30.3578 -25.90625,42.625 -9.374356,14.78484 -16.805798,32.25804 -15.4375,50.15625 4.621289,29.51704 24.415764,55.54431 22.34375,86.3125 -1.565151,9.39604 3.27093,5.11041 1.84375,-1.40625 1.44467,-25.83096 -12.356591,-48.66097 -19.5625,-72.625 -6.062129,-16.95038 -2.08961,-35.12496 5.78125,-50.71875 5.406568,-15.23083 20.26472,-24.13438 25.8125,-39.3125 C 116.80743,92.974139 120.5657,80.647761 125.84375,69 z M 306.625,59.625 c -1.04326,-0.06583 0.0743,0.536147 0.0625,1.5 1.94746,6.395576 1.56559,14.580692 0.78125,21.28125 0.22039,4.535214 -2.9035,8.058324 -2.59375,12.21875 3.07598,-1.695847 2.8337,-8.304028 3.8125,-12.0625 1.39682,-7.703881 -0.0707,-15.484629 -2.0625,-22.9375 z m -133.6875,4.9375 -1.0625,0.40625 c -2.3809,6.793833 0.0476,15.602873 -5.84375,21.625 -3.3389,6.601244 -8.81373,11.484154 -13.65625,16.90625 -4.5672,9.17322 -15.71597,10.22249 -23.59375,15.21875 -7.37813,6.21522 -19.29951,3.53664 -24.4375,12.75 -4.547888,8.27969 -8.196787,17.83247 -7.5625,27.4375 2.883229,12.44813 6.31566,26.60391 18.15625,33.625 17.12039,14.46878 21.45227,38.7695 18.03125,59.96875 -0.0278,2.39046 -1.6229,6.70927 -2.75,10.40625 -0.0891,-0.13845 -0.12437,-0.30066 -0.21875,-0.4375 0.12345,0.25464 0.11491,0.52271 0.15625,0.78125 -0.83509,2.79558 -1.29406,5.0993 -0.5,5.8125 1.74413,5.00376 2.45241,10.33071 2.84375,15.71875 -9.00423,-17.35101 -15.74083,-35.84858 -21.25,-54.625 -7.89996,-22.24126 -11.275355,-45.60646 -17.03125,-68.40625 -1.501147,5.49979 0.495357,11.08299 1.78125,16.40625 5.34028,27.1347 12.97622,53.87556 22.46875,79.90625 2.95491,11.17865 16.50051,36.09388 16.4375,34.8125 3.31409,5.85966 6.53426,11.76301 9.0625,18 4.73295,10.9841 6.46692,22.73129 6.6875,34.5 -0.87893,-14.87621 -6.65645,-29.4109 -15.1875,-41.75 -0.089,-1.6882 -4.59927,-6.28598 -5.9375,-7.84375 -11.38552,-9.13055 -17.35001,-22.85024 -17.96875,-37.3125 -0.2219,-0.069 -0.367,0.16168 -0.53125,0.28125 0.8074,-5.3872 1.32231,-10.79146 0.40625,-16.25 -1.09979,0.46525 -1.67386,1.67823 -1.6875,2.8125 1.44257,8.84504 -1.7106,17.59258 -2.40625,26.40625 -2.98399,27.77382 -6.69438,56.08924 -1.875,83.875 1.45328,12.99611 7.05862,25.07724 10.3125,37.53125 0.022,0.43978 -9.78149,-9.75257 -13.53125,-13.28125 -9.393644,-7.22282 -14.484809,-18.28833 -16.59375,-29.71875 -4.051251,-12.37658 2.109595,-24.53289 7.375,-35.4375 -4.390252,3.52632 -9.124914,16.1356 -10.40625,23.96875 -0.158335,10.3331 2.546763,20.84712 7.5625,29.96875 -2.720822,-1.52608 -3.441212,8.18633 -3.03125,11.21875 1.944013,8.39854 0.598655,17.61418 4.4375,25.53125 C 91.338728,404.73774 86.325812,398.88039 85,395.875 79.518917,385.64601 69.342504,377.62611 67.84375,365.59375 66.279626,343.95337 71.713247,321.80837 83.5,303.53125 88.840863,294.23112 97.196774,285.69658 97.90625,274.5 c -0.534929,0.26573 -1.062961,0.53856 -1.59375,0.8125 -1.262794,10.78076 -8.910053,19.22173 -14.1875,28.28125 -11.162683,16.74587 -16.34652,36.8707 -16.40625,56.875 -0.834299,8.40976 2.854704,16.30178 8.09375,22.65625 5.969073,7.04866 9.740443,15.59538 15.46875,22.78125 8.138678,0.8528 -0.252874,-10.75203 1.28125,-15.25 -0.437961,-7.33983 -2.796442,-14.76999 -0.3125,-21.96875 0.640407,1.16054 1.155637,2.39083 1.875,3.5 7.117353,8.19063 15.43181,15.71288 23.09375,23.1875 6.76163,-3.50693 -2.73205,-14.81685 -3.28125,-21.15625 -9.83658,-30.078 -7.42806,-62.14727 -3.96875,-93.0625 0.14892,-6.01962 1.34783,-11.98124 2.40625,-17.9375 0.17516,5.39212 1.89958,13.879 4.3125,17.6875 5.78077,8.16461 12.78219,15.73362 18.8125,23.875 0.63985,12.48673 2.85814,24.93664 0.15625,37.34375 -1.71302,13.02262 -1.57099,26.49827 0.65625,39.4375 2.4003,9.23083 2.88937,1.6211 1.71875,-3.4375 -3.26896,-15.76752 -1.3729,-31.83234 0.875,-47.59375 -0.42495,-7.56355 -0.81078,-15.16286 -1.21875,-22.75 4.08113,5.89613 7.53151,12.1643 9.5,19.25 1.9634,5.25505 3.31155,30.04753 7.15625,21.46875 1.26758,-16.24004 -3.34251,-32.83889 -10.4375,-47.34375 -2.62651,-4.09476 -4.9335,-8.33902 -7.25,-12.59375 -0.0133,-0.281 -0.018,-0.56278 -0.0313,-0.84375 -2.01584,-7.35669 -0.12516,-15.82848 -3.28125,-22.78125 2.49084,-7.9818 4.48584,-16.24799 4.53125,-24.6875 0.66206,-18.96032 -5.72082,-39.30944 -21.6875,-50.75 -7.80903,-5.44053 -10.94734,-14.54769 -13.53125,-23.25 -3.869888,-9.56688 -1.664113,-20.00403 2.5625,-29.03125 2.00079,-11.2693 13.30998,-12.60194 22.21875,-15.65625 6.6175,-5.19242 15.25786,-7.0821 22.375,-11.5 6.7075,-7.67962 14.38183,-14.653044 19.6875,-23.5 5.43711,-6.134964 5.1427,-14.359537 5.4375,-22 z m 109.09375,19.65625 c -0.53443,0.183219 -2.44312,0.959777 -1.53125,1.96875 6.52642,6.815844 16.05166,9.052874 24.8125,11.5 12.80742,4.76986 26.16286,7.89989 39.15625,12.09375 6.48539,1.40066 11.1937,6.02258 16.28125,9.875 4.07634,3.01392 8.34085,5.80548 12.4375,8.8125 -0.59928,0.22612 -1.21152,0.46052 -1.625,0.96875 -1.73983,3.72207 -1.65041,8.11046 -0.625,12.03125 1.63784,5.09768 4.20381,10.16167 8.375,13.65625 2.523,1.94941 5.56233,3.65026 8.78125,3.90625 3.49894,-1.3159 -1.1811,-1.64929 -2.5,-2.40625 -5.87154,-2.27708 -9.51459,-7.87532 -11.8125,-13.46875 -1.76042,-4.48868 -2.42361,-9.94232 -0.15625,-14.375 2.69255,1.99737 5.31528,4.09877 7.65625,6.5 0.8141,1.77358 1.76348,2.02829 2.40625,1.71875 0.77305,1.73658 1.76068,3.37856 2.84375,4.90625 -0.0702,-0.003 -0.0774,-0.031 -0.15625,-0.0313 -2.39287,-0.18289 -4.96883,2.00341 -4.375,4.5625 0.52388,2.5936 3.37746,5.96123 6.21875,4.15625 0.80761,-0.75908 1.28588,-1.81165 1.46875,-2.9375 1.2907,4.33985 0.58916,9.29268 -0.65625,13.59375 -2.61862,6.47503 -5.24264,13.01741 -6.34375,19.96875 0.066,3.66737 -3.62375,11.65295 1.96875,12.03125 4.5913,-3.00568 8.29697,-7.27406 11.1875,-11.90625 3.12979,-4.19937 6.33956,-8.78724 5.96875,-14.28125 1.82058,-9.28707 4.46324,-18.4834 4.96875,-27.96875 -1.63314,-3.88533 -2.81586,2.95382 -2.09375,4.6875 -0.91822,5.82025 -2.10769,11.62666 -3.34375,17.40625 -1.45301,4.09807 -1.24447,8.48284 -2.25,12.65625 -2.31766,4.35522 -5.11136,8.51381 -8.125,12.4375 -1.85117,1.4921 -5.60074,8.47079 -7.21875,4.375 -0.2359,-7.40712 1.55152,-14.73019 3.84375,-21.71875 2.3801,-5.6312 4.87593,-11.40132 4.75,-17.65625 0.64268,-6.28121 -4.83607,-10.37158 -7,-15.71875 -2.40107,-4.17711 0.12872,-8.77915 -0.8125,-13.1875 -3.14742,0.31409 -1.25695,3.67027 -1.78125,5.5625 -0.56749,1.78518 -0.48606,3.55096 -0.1875,5.28125 -3.57032,-3.16004 -7.45156,-5.93061 -11.375,-8.65625 1.73417,0.2 3.59062,-0.002 5.28125,-0.15625 2.74973,-0.22256 5.45687,-1.79695 6.40625,-4.5 1.03492,-2.63202 -2.5245,-0.83563 -2.03125,0.90625 -0.42104,3.36219 -4.96899,2.09359 -7.34375,2.59375 -3.13661,0.18233 -5.82253,-2.38419 -5.71875,-5.53125 0.14094,-3.18382 -0.21763,-6.8607 2.03125,-9.4375 2.33215,-1.8824 5.54287,-3.96384 5.28125,-7.40625 -0.64925,0.42576 -1.55385,0.55173 -1.96875,1.28125 0.119,2.54979 -1.98577,4.39267 -3.875,5.75 -2.22996,1.32484 -3.02594,3.83362 -3.21875,6.28125 -3.82229,-1.08805 -7.55986,-2.48289 -11.46875,-3.25 -0.3083,0.224 -0.62919,0.4635 -0.9375,0.6875 -6.01984,-3.38493 -13.03594,-4.96543 -19.625,-6.96875 -9.67472,-2.22139 -18.86521,-5.960361 -28.375,-8.71875 -8.3362,-2.595448 -18.01956,-4.556699 -23.59375,-11.875 z m -23.75,0.84375 c 0.46053,0.961011 0.81115,1.979997 1.34375,2.90625 -0.91893,-0.09944 -1.85941,-0.09684 -2.625,0.15625 -0.34889,0.408377 -1.14638,0.617746 -1.34375,1.09375 1.86717,-0.01748 4.52914,-0.35121 5.4375,1.78125 0.3806,2.062478 -0.82456,4.062278 -1.9375,5.71875 C 258.84485,97.203215 258.37724,97.566713 258,98 c 0.0453,-2.195181 -1.38974,-4.253658 -3.03125,-5.625 -0.18731,0.209862 -0.61002,0.335744 -0.96875,0.5 0.83577,-2.39387 1.84928,-4.737738 3.21875,-6.875 0.29066,-0.376984 0.72138,-0.609719 1.0625,-0.9375 z m 4.46875,7.5 c 1.78098,2.438881 3.6561,4.815685 5.71875,7 7.08948,7.58844 12.73502,16.48271 15.34375,26.625 0.68465,2.08311 1.16716,2.90949 1.53125,3.1875 -4.22077,-2.5832 -8.3221,-5.37474 -12.71875,-7.6875 -5.98849,-4.69516 -13.98017,-7.23255 -18.15625,-13.96875 -0.58639,-0.5379 -0.92984,-1.27857 -1.1875,-2.0625 0.24822,-0.1566 0.49903,-0.14774 0.75,-0.5 0.56802,-1.35814 1.31293,-2.59669 2.1875,-3.75 0.3742,-0.29885 0.68783,-0.64324 0.96875,-1.03125 0.40665,-0.428133 0.73629,-0.907907 1.21875,-1.28125 1.72025,-1.910991 3.63041,-4.007151 4.34375,-6.53125 z m -9.28125,1.125 c 0.0366,0.109972 -0.004,0.203434 0.125,0.34375 1.69338,1.350791 3.0577,3.590639 2.4375,5.8125 -0.005,0.18842 -0.13362,0.33051 -0.1875,0.5 -0.43541,0.42547 -0.81462,0.8966 -1.21875,1.34375 -0.66754,0.22699 -1.4297,0.0718 -1.9375,-0.625 -0.0249,-0.80478 -0.10844,-1.495284 -0.1875,-2.1875 0.0476,-0.561182 0.1297,-1.115979 0.28125,-1.65625 -0.13272,-0.987768 1.77557,-2.577049 0.8125,-3 -0.85191,0.153437 -1.38781,0.70655 -1.78125,1.40625 0.0197,-0.377238 0.11886,-0.806232 0.34375,-1.28125 0.43625,-0.222281 0.87625,-0.433966 1.3125,-0.65625 z m 205.6875,3.65625 c -3.18054,6.38659 5.49974,14.82929 6.03125,22.125 4.00859,9.59009 7.88846,19.28733 12.5625,28.5625 6.46442,11.63507 16.42972,22.08719 24.46875,34.78125 3.42531,5.25514 7.9566,12.39811 12.625,17.65625 -3.86582,0.64774 -7.78741,0.92427 -11.6875,1.28125 -10.08314,0.37254 -19.25962,4.92248 -28.84375,7.53125 -9.07832,1.67833 -17.90401,4.53303 -27.03125,5.96875 -0.59501,0.4323 -1.18625,0.8802 -1.78125,1.3125 4.89442,-0.70006 9.67544,-2.00663 14.46875,-3.1875 7.67237,-1.66062 15.39731,-3.22521 22.78125,-5.96875 7.21647,-3.03036 14.98129,-4.27223 22.75,-4.78125 3.13285,-0.62774 6.88389,0.0568 9.5625,-1.9375 2.4624,2.73887 4.93945,5.11327 7.3125,6.03125 -5.86361,-9.472 -15.18558,-16.62378 -19.53125,-27.15625 -7.41737,-11.19569 -16.5702,-18.52046 -23.125,-32.59375 -8.6255,-15.68868 -13.65561,-33.11594 -20.5625,-49.625 z m -205.3125,5.25 c -0.30698,0.40435 -0.50909,0.89102 -0.75,1.34375 -0.10889,-0.23748 -0.12174,-0.50751 -0.21875,-0.75 -0.0125,-0.14812 -0.0529,-0.28855 -0.0625,-0.4375 0.35314,-0.0287 0.68561,-0.0711 1.03125,-0.15625 z m -24,6.625 c -3.52718,1.26513 -6.57017,3.54502 -9.28125,6.09375 -4.3245,4.51902 -10.02442,7.27909 -14.75,11.3125 -4.56098,4.16216 -9.06475,8.40739 -13.9375,12.21875 4.91249,-2.5316 8.82611,-6.51197 12.8125,-10.25 1.982,-2.0368 4.19869,-3.77254 6.5,-5.40625 -2.69251,2.41004 2.64035,-0.92474 3.53125,-2.15625 0.36239,-0.42461 0.78634,-0.7519 1.1875,-1.125 0.29991,-0.21172 0.6088,-0.41023 0.90625,-0.625 1.35046,-0.91461 1.26248,-0.99758 0.71875,-0.75 2.32965,-1.66287 5.02648,-2.81266 7.6875,-3.875 1.97555,-0.90142 8.4248,-3.64767 4.625,-5.4375 z m 125.65625,3.875 c 3.15184,0.8036 6.25185,1.79205 9.375,2.6875 0.33032,0.0314 0.71044,-0.1322 1.0625,-0.34375 -0.12583,1.83589 -0.26458,3.80982 0.3125,5.53125 -2.19414,-1.5512 -4.44504,-3.03316 -6.53125,-4.71875 -1.28445,-1.25716 -2.76215,-2.19595 -4.21875,-3.15625 z m -213.1875,0.84375 -1.03125,0.5625 -0.4375,0.78125 c 4.54461,13.74058 24.05298,20.36358 28.34375,34.34375 -0.89902,20.40231 8.96993,39.00351 14.1875,58.25 13.24964,44.67441 29.20649,88.55903 40,133.9375 1.52244,5.93354 3.42347,32.5327 5.875,22.84375 -4.79539,-32.47364 -14.58405,-63.81659 -24.5625,-95.0625 0.12506,-0.0262 0.1626,0.044 0.375,-0.0625 1.55358,-0.65691 1.66134,-2.61352 2.75,-3.75 2.16805,-2.73797 5.94486,-3.2524 9.21875,-3.3125 0.55029,-0.43525 1.17067,-0.77207 1.6875,-1.25 -2.0818,0.005 -4.17943,0.31054 -6.15625,0.96875 -2.89359,1.01314 -5.77958,2.6337 -7.34375,5.375 -0.1553,0.27656 -0.51196,0.85923 -0.75,1.34375 -4.50403,-14.09851 -9.0026,-28.18303 -13.15625,-42.34375 -5.82371,-24.41854 -18.13892,-47.29995 -20.21875,-72.53125 1.18737,-17.71101 -23.72687,-24.80986 -28.78125,-40.09375 z m -102.25,11.375 c -4.476468,1.0691 -2.410944,7.05803 -3.25,10.34375 -2.413495,6.04646 -11.21737,7.66226 -12.3125,15.15625 -4.584501,18.8611 -4.248437,38.49046 -7.65625,57.5625 -1.050731,8.95787 -5.574185,17.06691 -11.78125,23.40625 5.978296,-1.83633 12.225431,-5.31128 17.59375,-9.0625 4.272734,-3.52068 9.004431,-6.50136 13.3125,-9.96875 1.928752,-1.55238 3.802433,-3.17279 5.46875,-5.03125 7.950317,-11.31845 15.267827,-23.63963 18.28125,-37.28125 2.554577,-12.51785 5.783267,-26.56535 16.71875,-34.53125 0.785499,-1.51334 -6.358234,4.06871 -7.875,6.5625 -4.907596,6.82768 -7.706137,15.13081 -9.53125,23.28125 -1.806078,13.3155 -8.252541,25.24133 -15.0625,36.59375 -3.743337,6.5134 -9.521792,11.31243 -15.71875,15.34375 -6.486353,5.9353 -14.222427,10.10875 -22.25,13.53125 5.304316,-4.13022 9.217968,-10.35639 11.15625,-16.8125 3.732359,-15.25459 4.211134,-31.08216 6.09375,-46.625 1.559868,-9.36853 1.464702,-20.88187 9.84375,-27.125 7.643873,-1.68122 4.771571,-10.08046 6.96875,-15.34375 z M 35.96875,212.75 c -3.911683,3.12345 -5.111282,12.54828 -6.53125,17.03125 -2.503785,10.41535 -11.530706,16.63504 -18.1875,24.28125 -7.6372989,12.23987 -4.4373243,27.55777 -1.90625,40.875 1.524425,10.85373 4.900579,21.39333 10.78125,30.6875 2.408431,1.22366 3.752884,0.93276 4.5625,-0.125 -1.671564,-0.0762 -7.773823,-9.70798 -9.1875,-13.34375 -3.656135,-13.17307 -6.9500999,-26.74059 -7.03125,-40.5 C 7.9327014,262.45514 11.174671,253.20071 18.5625,247.375 28.787259,240.39318 31.796547,223.55645 35.96875,212.75 z M 24.6875,325.5 c 0.117116,0.005 0.274191,0.0951 0.34375,0 -0.03205,-0.15486 -0.06229,-0.31358 -0.09375,-0.46875 -0.08207,0.15709 -0.148798,0.33653 -0.25,0.46875 z m 0.25,-0.46875 c 1.628577,-3.11746 -0.269065,-10.78734 -0.84375,-13.875 -0.275351,-11.07977 -3.326821,-22.23164 -0.875,-33.25 2.435131,-9.98569 11.165431,-25.2261 20.28125,-31.1875 2.24104,-1.23049 10.282915,-9.11403 12.15625,-11.90625 -6.081086,14.06575 -9.533449,29.00012 -11.75,44.125 -2.697138,10.52538 -1.088706,21.25408 0.375,31.8125 4.573259,22.94504 15.320187,44.54325 16.25,68.21875 -1.987913,7.54157 4.12816,11.00826 7.40625,2.8125 2.970752,-6.00552 -0.593999,-5.02998 -1.65625,0.0625 -3.137558,5.71234 -3.936139,5.5887 -3.59375,-0.78125 -0.429018,-15.95946 -5.064993,-31.25238 -9.75,-46.375 -4.375352,-12.434 -7.322438,-25.28044 -8.53125,-38.40625 -0.45011,-14.83811 3.540781,-29.4115 6.5,-43.84375 5.597321,-15.42224 11.107323,-30.93646 14.8125,-46.96875 4.202041,-13.61985 6.418284,-27.82382 5.125,-42.09375 -4.205174,4.20301 -0.194351,14.91819 -2.125,21.3125 -2.888758,16.63397 -7.685704,32.94512 -12.65625,49.0625 -0.178623,-0.0541 -0.598626,0.11963 -1.34375,0.5625 -4.850233,6.92242 -18.984835,15.92953 -23.40625,23.125 -4.89879,9.33537 -11.471561,21.73842 -10.78125,32.4375 1.38152,11.52897 2.091651,23.74041 4.40625,35.15625 z M 230,125.53125 c -5.25915,0.13464 -10.46914,2.25061 -14.34375,5.8125 -4.86972,3.96084 -5.51451,10.68558 -5.3125,16.53125 2.16397,-0.63519 2.11328,-1.52375 1.96875,-3.53125 -0.006,-0.86818 0.0521,-1.74514 0.125,-2.625 0.58955,1.94677 3.44943,-0.10344 1.625,-1.59375 0.24395,-2.00141 0.56266,-4.07577 1.65625,-5.8125 1.37734,-2.53004 5.25719,-3.25503 7.375,-1.28125 2.06579,2.37794 0.89822,5.64546 0.5625,8.40625 -2.82193,0.98105 -5.92514,1.61267 -8.875,0.84375 -0.28908,0.54788 -1.72234,0.58001 -1.4375,1.34375 2.48903,0.52831 5.09947,0.13191 7.53125,-0.5 2.50602,-0.63171 5.14709,-2.40721 5.25,-5.25 0.51282,-2.61801 -0.0137,-6.26512 -3,-7.09375 -3.09431,-0.70603 -5.96348,1.27312 -8.25,3.15625 0.54315,-0.92991 1.08555,-1.86013 1.90625,-2.625 2.76959,-3.2105 7.12927,-4.21505 11.1875,-4.5 2.4967,0.3779 6.31331,-0.5714 7.78125,2.03125 -2.05007,6.96967 -7.73494,12.43908 -14.3125,15.25 -2.79982,1.64081 -6.33389,1.16608 -9,3.03125 0.087,0.7519 4.15555,-0.64713 5.71875,-1.15625 6.90853,-2.74737 13.88013,-6.82795 17.625,-13.5 1.50761,-1.72257 3.25042,-6.52047 -0.5625,-6.40625 -1.71601,-0.41595 -3.4657,-0.57613 -5.21875,-0.53125 z m 157.125,17.28125 c 0.0387,0.0521 0.0863,0.10451 0.125,0.15625 0.18741,0.22067 0.2378,0.49046 0.40625,0.71875 -0.8547,0.48388 -0.45219,2.89407 0.125,3.84375 1.0576,2.33639 -1.65253,2.35585 -2.4375,0.65625 -2.14373,-1.00763 -2.19918,-6.09795 0.90625,-4.75 0.40833,-0.15666 0.62611,-0.39393 0.875,-0.625 z m -96.65625,2.59375 c -3.09516,0.81364 -2.40891,5.25074 -1.25,7.875 -0.73483,0.23688 -1.43093,0.7168 -1.75,1.625 -1.13822,2.24955 -2.14323,4.62673 -4.09375,6.34375 -3.49973,3.07854 -5.06909,7.60244 -7.9375,11.1875 -3.30193,4.86881 -9.16834,6.61821 -13.65625,10.0625 2.31678,-0.66842 3.87445,-2.55956 6.0625,-3.53125 3.36238,-1.56335 6.62117,-3.5347 8.90625,-6.53125 2.88803,-3.1622 4.18963,-7.39455 7.09375,-10.53125 2.37562,-1.96586 3.96184,-4.60758 5.375,-7.3125 0.23656,0.70035 0.7313,1.55861 0.875,1.90625 0.30348,2.87412 1.57634,5.50159 2.375,8.25 1.21543,3.29362 0.62451,7.10115 -1.625,9.8125 -2.76589,3.28171 -6.40419,6.10374 -10.65625,7.09375 -3.0371,0.34204 -6.03297,0.90642 -9,1.65625 -2.46832,0.91839 -4.9269,-1.61857 -7.25,-0.28125 0.0777,1.88792 3.96817,1.62167 5.6875,1.65625 3.13105,-1.21152 6.55475,-1.15083 9.78125,-1.96875 3.67875,-1.18422 7.05181,-3.25586 10.09375,-5.625 2.9814,-2.39424 5.5179,-5.9036 5.40625,-9.84375 1.31215,3.62993 2.21351,7.33221 1.59375,11.3125 1.1783,7.79162 -2.70491,15.23884 -7.15625,21.34375 -4.58523,5.17011 -12.07847,5.16114 -18.34375,6.65625 -5.15972,1.64146 -10.50792,2.54308 -15.875,3.25 -13.30872,1.6169 -26.91341,2.21915 -40.1875,0 -11.93106,-1.90189 -24.69004,-5.944 -32.15625,-16.09375 -0.85066,0.66575 -1.13318,1.83857 -0.625,2.8125 2.98796,4.62826 8.54264,6.59885 13,9.5 17.20583,7.08041 36.30762,7.48855 54.5625,5.46875 5.71109,-0.81235 11.59126,-1.04547 17.0625,-2.96875 7.98212,-2.26832 17.31897,-2.19606 23.59375,-8.375 5.24487,-6.25368 9.21553,-14.49049 8.09375,-22.84375 1.40628,-8.18526 -3.78897,-15.27839 -6.46875,-22.59375 -1.42358,-2.96083 -1.22884,-6.23047 -1.53125,-9.3125 z M 289.9375,157.5 c -0.67884,-0.0259 -1.23724,0.48163 -1.75,0.875 -0.20917,1.61637 -0.86169,3.13454 -1.625,4.5625 -1.32843,2.67282 -3.20919,5.0218 -5.3125,7.125 -1.92106,2.42523 -4.90778,3.50027 -7.34375,5.28125 0.21205,-0.0948 0.41815,-0.20702 0.625,-0.3125 0.20034,-0.098 1.26251,-0.66507 0.875,-0.40625 2.23484,-0.90962 4.26037,-2.25052 6.1875,-3.6875 1.3318,-1.28152 2.60468,-2.63032 3.8125,-4.03125 1.64961,-2.11072 3.12723,-4.41244 4.0625,-6.9375 0.1471,-0.78906 0.83307,-1.74363 0.46875,-2.46875 z m -32.125,6.28125 c -1.34857,0.33188 -0.71366,-0.54375 -0.625,0.875 0.16736,2.21809 -0.148,7.25882 -0.53125,9.46875 -0.88895,6.04567 -5.29261,10.39836 -9.09375,15.03125 -0.79406,0.27523 -1.59858,2.34205 -0.15625,1.65625 3.2096,-3.57917 6.06663,-7.51771 8.1875,-11.84375 2.53156,-4.63861 2.25051,-10.07728 2.21875,-15.1875 z m 59.875,12.1875 c -0.17248,-0.027 -0.23701,0.12148 -0.1875,0.5 0.82058,5.08254 4.18077,9.31915 7.84375,12.75 6.26437,3.96535 12.33646,8.31408 19.125,11.375 2.70762,1.06396 5.37112,2.33336 8.1875,3.09375 8.11341,2.08114 16.49422,0.34134 24.5625,-1.0625 0.18826,-0.54286 1.13637,-0.34436 1.21875,-0.9375 -6.40349,0.48767 -12.75934,2.21519 -19.21875,1.625 -6.70013,-0.81541 -12.96201,-3.59206 -18.78125,-6.90625 -4.26432,-2.3601 -8.27437,-5.19318 -12.5625,-7.5 -4.07847,-2.44042 -5.21509,-7.40259 -8.03125,-10.9375 -0.38137,-0.42235 -1.63882,-1.9189 -2.15625,-2 z m 135.9375,7.8125 c -0.97332,-0.20266 -2.0133,0.0109 -2.71875,0.78125 -1.67028,0.87399 -2.61138,2.87227 -2.3125,4.71875 0.49077,-0.29579 1.0991,-0.41208 1.5,-0.84375 0.71718,-1.04513 0.59115,-2.47972 1.21875,-3.53125 1.50361,0.0912 2.77596,1.30638 3.1875,2.75 0.56605,0.97619 0.19492,2.16747 -0.0313,3.0625 0.0549,0.67314 1.01255,0.055 1.5,-0.40625 1.09118,-1.35925 0.78634,-3.37344 -0.0625,-4.78125 -0.40589,-0.92803 -1.30793,-1.54734 -2.28125,-1.75 z m 17.0625,14.6875 c -11.16074,9.89362 -26.19745,14.08623 -36.78125,24.8125 -10.17498,11.82053 -26.66877,15.32157 -37.96875,26.0625 0.14916,-1.74213 0.27974,-3.49862 0.59375,-5.21875 2.63046,-5.68795 -2.52107,-2.16813 -2.1875,1.3125 -0.93006,9.76652 -0.65508,19.75351 -3.59375,29.21875 0.31513,-1.37318 -0.60711,-3.19785 -1.625,-4.21875 -2.09945,-1.83318 -5.26604,-2.03168 -7.875,-1.3125 -3.05052,1.1808 -6.05244,2.71888 -8.5625,4.84375 -4.18465,3.72155 -4.46316,9.90734 -3.8125,15.09375 -0.22156,3.61355 3.0039,6.25433 6.40625,6.4375 -13.01093,4.21617 -26.48516,6.82036 -40.125,7.84375 -12.94736,1.37269 -26.19929,-2.4925 -36.03125,-11.125 -6.59988,-7.02432 -16.76844,-4.20215 -24.71875,-1.625 -0.45772,0.35561 -0.91728,0.70689 -1.375,1.0625 7.30847,-1.78978 16.10249,-5.06032 22.6875,0.375 7.47742,6.5819 16.63007,11.72787 26.75,12.4375 14.86931,0.79795 29.83735,-1.55788 44.125,-5.625 6.19263,-2.45472 13.82925,-2.41994 18.625,-7.53125 4.9729,-4.9262 6.35436,-11.76294 7.65625,-18.34375 2.80557,-7.53558 2.41051,-15.53872 3.0625,-23.40625 10.87715,-8.91143 24.6759,-13.18589 36.25,-21.09375 5.68892,-8.50493 14.71886,-13.77625 23.34375,-18.84375 4.60901,-2.35108 17.41591,-11.05504 15.15625,-11.15625 z M 272.71875,231.4375 c -0.85831,-0.29392 -6.25401,2.01116 -8.78125,2.96875 -7.14505,3.13647 -14.26251,6.35909 -21.625,8.96875 -5.31572,2.47225 -11.1263,3.76644 -17,3.5625 -7.06769,-0.67861 -13.99217,1.00019 -20.78125,2.75 -2.34492,1.17406 -0.61868,1.31423 0.875,0.71875 5.72038,-1.79424 11.72686,-2.57315 17.71875,-2.3125 6.72052,0.63427 13.24253,-1.50327 19.34375,-4.09375 6.23359,-2.20243 12.25521,-4.87269 18.25,-7.65625 3.86901,-1.95756 8.29919,-2.63874 12,-4.90625 z m 110.46875,38.59375 c 3.36086,-0.10051 6.0478,2.90775 5.9375,6.1875 0.74143,-0.17004 1.19236,-0.51988 1.46875,-0.9375 -0.16918,0.51746 -0.2468,1.04856 -0.4375,1.5625 -0.27971,2.40497 -1.02343,4.98681 -2,7.5 -0.10661,0.0205 -0.13498,0.002 -0.25,0.0313 -2.53595,1.57773 -5.90649,-0.31091 -5.5,-3.40625 -0.57688,-3.54533 4.86681,-3.63833 4.625,-0.1875 2.4989,0.77916 2.16572,-3.44568 0.25,-3.8125 -3.95214,-1.30865 -7.94451,3.34641 -6.4375,7.09375 1.17895,2.87851 4.57468,2.14894 6.9375,1.1875 -1.88736,4.37693 -4.83607,8.17931 -9.28125,9.3125 -0.1214,-0.0969 -0.11821,-0.21224 -0.53125,-0.25 -2.96629,-0.02 -6.67059,-1.54185 -6.9375,-4.90625 -0.88787,-5.23936 -0.87931,-11.30418 2.8125,-15.53125 2.41262,-2.42918 5.87298,-4.06383 9.34375,-3.84375 z M 301.96875,298.375 c -0.47521,-0.11943 -1.69283,0.36641 -2.125,0.40625 -6.34743,1.9264 -12.83126,3.71224 -18.59375,7.09375 -4.65242,3.17406 -10.38118,4.19855 -15.0625,7.3125 -1.81123,1.94197 -4.41722,2.77008 -6.5,4.34375 0.0792,-5.69391 1.36036,-11.29392 5.5,-15.46875 l -0.71875,0.28125 c -5.21152,3.16194 -6.71361,10.02595 -6.8125,15.75 0.23426,12.36706 4.42174,24.34979 4,36.78125 -0.37761,9.61648 0.77831,19.33692 -0.84375,28.875 -0.94898,2.27345 -1.06778,6.03887 1.28125,2.21875 2.09082,-8.4801 1.3298,-17.27782 1.40625,-25.9375 0.6844,-11.03152 -1.21319,-21.94282 -3,-32.78125 -0.58608,-3.09781 -0.85531,-6.40687 -0.8125,-9.6875 1.97569,-0.79746 3.89883,-1.73116 5.65625,-2.9375 1.71777,-1.41333 3.55459,-2.74496 5.65625,-3.53125 4.55935,-1.42928 8.67353,-3.90914 12.875,-6.125 5.61576,-2.17056 11.25437,-4.44298 17.21875,-5.46875 0.33132,-0.28104 0.73337,-0.49835 1.0625,-0.78125 0.0654,-0.20916 -0.0291,-0.30394 -0.1875,-0.34375 z M 138.15625,387.5 c -1.4029,1.86077 -0.35041,4.32412 0.59375,6.125 5.3021,8.9119 13.27662,15.99609 17.4375,25.65625 3.31294,4.84888 2.93521,12.1552 8.84375,14.9375 6.30193,2.73273 12.11262,6.95224 19.25,7.28125 7.52377,0.42795 15.16041,1.36223 22.65625,0.40625 13.77739,-2.97154 22.84875,-14.72172 32.09375,-24.375 6.86544,-8.97293 13.07863,-18.42572 19.84375,-27.5 0.54783,-2.31009 -5.6197,5.74612 -6.84375,8.5 -6.92961,8.0613 -11.61692,16.50169 -19.5625,23.71875 -8.05995,8.74449 -16.98234,19.4357 -29.96875,18.21875 -10.0137,-0.0794 -21.77723,1.16226 -30.5,-4.4375 -8.5071,-1.4754 -11.30219,-9.43226 -14.0625,-16.46875 -4.5997,-11.94512 -16.25055,-19.62069 -19.78125,-32.0625 z"
       style="fill:#000000;fill-opacity:1;fill-rule:nonzero;stroke:none"
       inkscape:connector-curvature="0" />
  </g>
</svg>
