<?xml version="1.0" encoding="UTF-8" standalone="no"?>
<!-- Created with Inkscape (http://www.inkscape.org/) -->

<svg
   xmlns:dc="http://purl.org/dc/elements/1.1/"
   xmlns:cc="http://creativecommons.org/ns#"
   xmlns:rdf="http://www.w3.org/1999/02/22-rdf-syntax-ns#"
   xmlns:svg="http://www.w3.org/2000/svg"
   xmlns="http://www.w3.org/2000/svg"
   xmlns:xlink="http://www.w3.org/1999/xlink"
   xmlns:sodipodi="http://sodipodi.sourceforge.net/DTD/sodipodi-0.dtd"
   xmlns:inkscape="http://www.inkscape.org/namespaces/inkscape"
   width="400"
   height="400"
   id="svg1"
   sodipodi:version="0.32"
   inkscape:version="0.48.0 r9654"
   sodipodi:docname="nude04.svg"
   version="1.1">
  <defs
     id="defs3">
    <linearGradient
       inkscape:collect="always"
       id="linearGradient1327">
      <stop
         style="stop-color:#ffffff;stop-opacity:1;"
         offset="0"
         id="stop1329" />
      <stop
         style="stop-color:#ffffff;stop-opacity:0;"
         offset="1"
         id="stop1331" />
    </linearGradient>
    <linearGradient
       inkscape:collect="always"
       xlink:href="#linearGradient1327"
       id="linearGradient1333"
       x1="8.5741844"
       y1="246.31477"
       x2="158.62247"
       y2="325.62601"
       gradientUnits="userSpaceOnUse"
       gradientTransform="matrix(0.67085119,0,0,0.67085119,70.895362,-0.7646963)" />
    <linearGradient
       inkscape:collect="always"
       xlink:href="#linearGradient1327"
       id="linearGradient1337"
       x1="-41.011089"
       y1="-121.24705"
       x2="134.19241"
       y2="106.42505"
       gradientUnits="userSpaceOnUse"
       gradientTransform="matrix(0.67085119,0,0,0.67085119,70.895362,-4.7646963)" />
    <linearGradient
       inkscape:collect="always"
       xlink:href="#linearGradient1327"
       id="linearGradient1343"
       x1="63.25"
       y1="407.5"
       x2="75.34375"
       y2="428.875"
       gradientUnits="userSpaceOnUse"
       gradientTransform="matrix(0.67085119,0,0,0.67085119,70.895362,-4.7646963)" />
    <linearGradient
       inkscape:collect="always"
       xlink:href="#linearGradient1327"
       id="linearGradient1345"
       x1="228.5"
       y1="461.43924"
       x2="244.125"
       y2="480.2196"
       gradientUnits="userSpaceOnUse"
       gradientTransform="matrix(0.67085119,0,0,0.67085119,70.895362,-4.7646963)" />
    <linearGradient
       inkscape:collect="always"
       xlink:href="#linearGradient1327"
       id="linearGradient1349"
       x1="167.29523"
       y1="238.85089"
       x2="187.40421"
       y2="262.4299"
       gradientUnits="userSpaceOnUse"
       gradientTransform="matrix(0.67085119,0,0,0.67085119,70.895362,-4.7646963)" />
    <linearGradient
       inkscape:collect="always"
       xlink:href="#linearGradient1327"
       id="linearGradient3011"
       x1="146.33109"
       y1="-68.541885"
       x2="220.25076"
       y2="142.45811"
       gradientUnits="userSpaceOnUse" />
  </defs>
  <sodipodi:namedview
     id="base"
     pagecolor="#ffffff"
     bordercolor="#666666"
     borderopacity="1.0"
     inkscape:pageopacity="0.0"
     inkscape:pageshadow="2"
     inkscape:zoom="1"
     inkscape:cx="200"
     inkscape:cy="200"
     inkscape:current-layer="svg1"
     inkscape:window-width="1152"
     inkscape:window-height="793"
     inkscape:window-x="0"
     inkscape:window-y="25"
     fill="#ffcc99"
     showgrid="false"
     inkscape:window-maximized="0" />
  <metadata
     id="metadata4">
    <rdf:RDF>
      <cc:Work
         rdf:about="">
        <dc:format>image/svg+xml</dc:format>
        <dc:type
           rdf:resource="http://purl.org/dc/dcmitype/StillImage" />
      </cc:Work>
    </rdf:RDF>
  </metadata>
  <g
     inkscape:label="Layer 1"
     inkscape:groupmode="layer"
     id="layer1"
     transform="translate(0,-200)" />
  <path
     style="fill:#ffe2c5;fill-opacity:1;fill-rule:evenodd;stroke:none"
     d="m 187.35094,78.588564 c 0,0 -18.99583,2.065135 -21.88652,4.129928 -2.8907,2.064786 -7.84058,8.259855 -7.84058,8.259855 l -2.49472,8.259853 0.41928,13.20739 2.47376,13.20738 7.84455,16.94133 3.72763,14.86121 11.9705,11.1529 8.25986,9.49674 4.54921,5.3668 -7.44226,1.65617 -16.91802,0.41928 -11.57219,-0.41928 -14.04594,2.89304 -10.31434,7.84058 -9.91602,18.99347 -6.60369,25.19885 -3.71065,24.36028 -5.78609,18.5742 -3.71065,38.82551 0.39832,21.88652 -6.603688,23.1234 -0.8176,22.72508 c 12.338658,2.35816 24.677318,4.90892 37.015978,-0.0755 42.97289,7.81682 83.64528,10.47023 126.57447,-0.25808 14.01547,5.51155 28.03094,3.7628 42.04641,-0.0857 l 12.80906,-63.18579 2.47376,-26.43573 -0.8176,-30.5447 -2.89304,-17.35827 2.05448,-38.40623 -4.94753,-13.20738 -17.75659,-9.91602 -21.46724,-4.52825 -9.09842,-6.20537 -11.55122,-31.80254 -7.67286,-14.10884 c 0.71171,-3.45838 1.46748,-7.00841 1.46749,-5.28295 0,2.89069 7.85323,-2.06515 7.85323,-2.06515 0,0 5.37511,-19.42341 5.37512,-23.55298 0,-4.12958 -3.72563,-8.259866 -7.44226,-8.259859 -3.71661,0 -5.36681,3.312329 -5.36681,3.312329 l -3.31232,5.78609 0,18.99347 0.2306,8.90975 -3.94125,-7.25358 -15.68115,-20.64964 -6.60369,-13.228347 -23.54268,-10.314337 z"
     id="path1381"
     sodipodi:nodetypes="csccccccccccccccccccccccccccccccccccccscssccccccccc"
     inkscape:connector-curvature="0" />
  <path
     inkscape:connector-curvature="0"
     sodipodi:nodetypes="csccccccccccccccccccccccccccccccccccccscssccccccccc"
     id="path3009"
     d="m 187.35094,78.588564 c 0,0 -18.99583,2.065135 -21.88652,4.129928 -2.8907,2.064786 -7.84058,8.259855 -7.84058,8.259855 l -2.49472,8.259853 0.41928,13.20739 2.47376,13.20738 7.84455,16.94133 3.72763,14.86121 11.9705,11.1529 8.25986,9.49674 4.54921,5.3668 -7.44226,1.65617 -16.91802,0.41928 -11.57219,-0.41928 -14.04594,2.89304 -10.31434,7.84058 -9.91602,18.99347 -6.60369,25.19885 -3.71065,24.36028 -5.78609,18.5742 -3.71065,38.82551 0.39832,21.88652 -6.603688,23.1234 -0.8176,22.72508 c 12.338658,2.35816 24.677318,4.90892 37.015978,-0.0755 42.97289,7.81682 83.64528,10.47023 126.57447,-0.25808 14.01547,5.51155 28.03094,3.7628 42.04641,-0.0857 l 12.80906,-63.18579 2.47376,-26.43573 -0.8176,-30.5447 -2.89304,-17.35827 2.05448,-38.40623 -4.94753,-13.20738 -17.75659,-9.91602 -21.46724,-4.52825 -9.09842,-6.20537 -11.55122,-31.80254 -7.67286,-14.10884 c 0.71171,-3.45838 1.46748,-7.00841 1.46749,-5.28295 0,2.89069 7.85323,-2.06515 7.85323,-2.06515 0,0 5.37511,-19.42341 5.37512,-23.55298 0,-4.12958 -3.72563,-8.259866 -7.44226,-8.259859 -3.71661,0 -5.36681,3.312329 -5.36681,3.312329 l -3.31232,5.78609 0,18.99347 0.2306,8.90975 -3.94125,-7.25358 -15.68115,-20.64964 -6.60369,-13.228347 -23.54268,-10.314337 z"
     style="fill:url(#linearGradient3011);fill-opacity:1;fill-rule:evenodd;stroke:none" />
  <path
     style="fill:#1c1c1c;fill-opacity:1;fill-rule:evenodd;stroke:none"
     d="m 207.58129,7.142912 c 1e-5,0 -11.51637,2.163039 -16.91803,14.863547 -0.84806,7.066867 -14.04232,2.476105 -20.64963,5.36681 -6.60733,2.890704 -9.99355,3.484374 -9.5806,5.136204 0.41296,1.65183 -4.88463,10.964224 -4.88463,10.964224 l -3.71065,5.786092 0,6.603691 5.78609,3.312328 c 0,0 -6.20338,4.532579 -7.44225,6.184409 -1.23887,1.65183 -1.55135,17.777557 -1.55135,17.777557 0,0 3.96257,-4.809098 13.79438,-4.486318 4.12958,0.825905 -4.15058,2.650996 -7.69382,4.067036 -7.61163,3.041948 -8.26619,15.685838 -8.67914,21.467238 -0.41296,5.7814 7.02297,35.93247 7.02297,35.93247 l 11.9705,24.77956 c 0,0 3.31631,11.97953 0.83857,19.41276 -2.47774,7.43323 -8.25986,30.96397 -8.25986,30.96397 l 10.31434,-23.1234 c 0,1e-5 6.61598,-18.16628 3.31233,-28.49021 -3.30366,-10.32394 -11.57219,-23.96197 -11.57219,-23.96197 l -5.78609,-32.20085 5.36681,-19.832041 c 0,0 6.81038,-5.120278 12.38979,-5.786091 5.69122,-3.018831 6.70476,0.417162 11.32061,-1.551344 10.59173,-3.934294 27.5049,5.681271 27.5049,5.681271 l 9.49674,9.09842 13.20738,20.230355 11.57218,15.28283 7.44226,33.85702 0.39831,-6.60369 -9.99987,-33.96184 0.92242,-23.85715 c 1e-5,0 7.43827,-8.674801 9.91602,-7.022971 2.47774,1.65183 7.02297,18.595161 7.02297,18.595161 l 2.05448,4.94752 2.07545,-0.41928 3.71064,-17.33731 c 1e-5,0 5.3585,-7.010683 6.18441,-10.314337 0.82591,-3.30366 0.004,-11.982797 1.65617,-8.679137 1.65183,3.303654 11.1529,9.496737 11.1529,9.496737 l 2.47376,0.419282 -11.1529,-21.88652 c 10e-6,0 -7.01103,-21.069276 -14.44426,-25.198848 -6.05789,-3.365493 -21.17104,-9.187656 -27.54683,-11.614111 -2.41248,-0.521386 -4.97635,-1.263964 -7.3584,-2.410871 -6.86354,-3.304667 -22.11712,-4.821743 -22.11712,-4.821743 0,0 -8.63458,0.24115 -8.88878,-0.775672 -0.25421,-1.016823 2.03339,-2.782832 4.06703,-5.324881 2.03364,-2.54205 4.57017,-1.781949 4.57018,-1.781949 l 9.16131,2.033518 28.21768,11.949537 c 0.0734,0.220079 -0.0141,0.36666 -0.0419,0.545066 7.14966,0.816567 15.05966,1.845425 18.28069,2.704369 2.4271,0.647224 -5.78609,-8.259855 -5.78609,-8.259855 1e-5,0 -33.02477,-5.369151 -33.43774,-8.259856 -0.41295,-2.890704 -15.70211,-9.496737 -15.70211,-9.496737 z M 252.1929,164.47848 c -1e-5,-1e-5 -4.56187,28.48623 -5.38778,30.96398 -0.82591,2.47774 -6.18441,18.17587 -6.18441,18.17587 l 1.23689,1.23688 3.31232,-4.12993 6.18441,-31.80253 0.83857,-14.44427 z"
     id="path2848"
     sodipodi:nodetypes="ccssccccsccssccsccscccccccccccccsccccsscccscscssccccscsccsccccc"
     inkscape:connector-curvature="0" />
  <path
     style="fill:#ff0000;fill-opacity:1;fill-rule:evenodd;stroke:none"
     d="m 187.04039,172.6535 c 0,0 3.76179,4.85897 5.95616,4.85897 2.19437,0 7.6803,-0.94045 9.87468,-1.56741 2.19437,-0.62697 6.73986,-6.42638 7.21008,-7.83705 0.47022,-1.41066 -5.95616,-3.4483 -7.6803,-2.97807 -1.72416,0.47022 -6.1129,2.97807 -7.68031,2.03763 -1.56741,-0.94045 -10.3449,-1.25393 -11.44209,0.7837 -1.09719,2.03764 4.07526,4.85897 3.76178,4.70223 z"
     id="path1318"
     inkscape:connector-curvature="0" />
  <path
     style="fill:#ffffff;fill-opacity:1;fill-rule:evenodd;stroke:none"
     d="m 164.62644,135.97612 c 0,0 8.62075,0.78371 10.03142,0.15674 1.41067,-0.62696 3.4483,0 4.54549,-2.35111 1.09718,-2.35112 -7.05335,-4.23201 -8.62076,-3.60504 -1.56741,0.62696 -7.99378,3.4483 -7.99378,3.60504 0,0.15674 1.09719,2.6646 2.03763,2.19437 z"
     id="path2047"
     inkscape:connector-curvature="0" />
  <path
     style="fill:#ffffff;fill-opacity:1;fill-rule:evenodd;stroke:none"
     d="m 196.75833,130.49019 c 0,0 8.46401,0.15674 9.40445,-0.31348 0.94045,-0.47022 7.05335,-2.35112 7.05335,-2.35112 l 2.97808,-5.48593 -7.52357,-2.50786 -7.05334,2.19438 -5.48593,4.70223 c 0,0 -2.50785,2.97808 0.62696,3.76178 z"
     id="path2049"
     inkscape:connector-curvature="0" />
  <path
     style="fill:#009eff;fill-opacity:1;fill-rule:evenodd;stroke:none"
     d="m 203.65493,123.59359 7.05334,-0.78371 2.03764,4.07527 -2.03764,2.19437 -4.85897,0 -2.82133,-2.82134 0.62696,-2.66459 z"
     id="path2051"
     inkscape:connector-curvature="0" />
  <path
     style="fill:#009eff;fill-opacity:1;fill-rule:evenodd;stroke:none"
     d="m 173.71742,130.64693 c 0,0 -2.50786,1.56741 -2.6646,2.50786 -0.15674,0.94044 1.72415,2.19437 3.60504,2.50785 1.88089,0.31348 5.48593,-1.09719 5.01571,-2.50785 -0.47022,-1.41067 -4.70223,-3.29157 -5.95615,-2.50786 z"
     id="path2053"
     inkscape:connector-curvature="0" />
  <path
     style="fill:#e39d90;fill-opacity:1;fill-rule:evenodd;stroke:none"
     d="m 126.74372,268.60716 2.68341,7.04394 c 0,0 0.50314,12.07532 -0.50314,12.74617 -1.00628,0.67086 -4.19282,6.37309 -4.19282,6.37309 l -4.19282,2.51569 -6.03766,-1.84484 -1.17399,-10.90133 12.24303,-15.42958 1.17399,-0.50314 z"
     id="path2055"
     inkscape:connector-curvature="0" />
  <path
     style="fill:#e39d90;fill-opacity:1;fill-rule:evenodd;stroke:none"
     d="m 243.97497,309.19366 1.17399,8.21793 -2.85112,8.38564 -3.68968,2.51569 -3.68968,1.17399 -6.70851,0.50314 -4.02511,-6.87623 0.83856,-10.06276 4.19282,-4.69596 2.34798,-2.01256 c 0,0 2.51569,-1.84484 4.52825,-1.50941 2.01255,0.33542 7.37936,3.18654 7.8825,4.36053 z"
     id="path2057"
     inkscape:connector-curvature="0" />
  <path
     sodipodi:nodetypes="ccssccccsccssccsccscccccccccccccsccccsscccscscssccccscsccsccccc"
     id="path1335"
     d="m 207.58129,7.142912 c 1e-5,0 -11.51637,2.163039 -16.91803,14.863547 -0.84806,7.066867 -14.04232,2.476105 -20.64963,5.36681 -6.60733,2.890704 -9.99355,3.484374 -9.5806,5.136204 0.41296,1.65183 -4.88463,10.964224 -4.88463,10.964224 l -3.71065,5.786092 0,6.603691 5.78609,3.312328 c 0,0 -6.20338,4.532579 -7.44225,6.184409 -1.23887,1.65183 -1.55135,17.777557 -1.55135,17.777557 0,0 3.96257,-4.809098 13.79438,-4.486318 4.12958,0.825905 -4.15058,2.650996 -7.69382,4.067036 -7.61163,3.041948 -8.26619,15.685838 -8.67914,21.467238 -0.41296,5.7814 7.02297,35.93247 7.02297,35.93247 l 11.9705,24.77956 c 0,0 3.31631,11.97953 0.83857,19.41276 -2.47774,7.43323 -8.25986,30.96397 -8.25986,30.96397 l 10.31434,-23.1234 c 0,1e-5 6.61598,-18.16628 3.31233,-28.49021 -3.30366,-10.32394 -11.57219,-23.96197 -11.57219,-23.96197 l -5.78609,-32.20085 5.36681,-19.832041 c 0,0 6.81038,-5.120278 12.38979,-5.786091 5.69122,-3.018831 6.70476,0.417162 11.32061,-1.551344 10.59173,-3.934294 27.5049,5.681271 27.5049,5.681271 l 9.49674,9.09842 13.20738,20.230355 11.57218,15.28283 7.44226,33.85702 0.39831,-6.60369 -9.99987,-33.96184 0.92242,-23.85715 c 1e-5,0 7.43827,-8.674801 9.91602,-7.022971 2.47774,1.65183 7.02297,18.595161 7.02297,18.595161 l 2.05448,4.94752 2.07545,-0.41928 3.71064,-17.33731 c 1e-5,0 5.3585,-7.010683 6.18441,-10.314337 0.82591,-3.30366 0.004,-11.982797 1.65617,-8.679137 1.65183,3.303654 11.1529,9.496737 11.1529,9.496737 l 2.47376,0.419282 -11.1529,-21.88652 c 10e-6,0 -7.01103,-21.069276 -14.44426,-25.198848 -6.05789,-3.365493 -21.17104,-9.187656 -27.54683,-11.614111 -2.41248,-0.521386 -4.97635,-1.263964 -7.3584,-2.410871 -6.86354,-3.304667 -22.11712,-4.821743 -22.11712,-4.821743 0,0 -8.63458,0.24115 -8.88878,-0.775672 -0.25421,-1.016823 2.03339,-2.782832 4.06703,-5.324881 2.03364,-2.54205 4.57017,-1.781949 4.57018,-1.781949 l 9.16131,2.033518 28.21768,11.949537 c 0.0734,0.220079 -0.0141,0.36666 -0.0419,0.545066 7.14966,0.816567 15.05966,1.845425 18.28069,2.704369 2.4271,0.647224 -5.78609,-8.259855 -5.78609,-8.259855 1e-5,0 -33.02477,-5.369151 -33.43774,-8.259856 -0.41295,-2.890704 -15.70211,-9.496737 -15.70211,-9.496737 z M 252.1929,164.47848 c -1e-5,-1e-5 -4.56187,28.48623 -5.38778,30.96398 -0.82591,2.47774 -6.18441,18.17587 -6.18441,18.17587 l 1.23689,1.23688 3.31232,-4.12993 6.18441,-31.80253 0.83857,-14.44427 z"
     style="fill:url(#linearGradient1337);fill-opacity:1;fill-rule:evenodd;stroke:none"
     inkscape:connector-curvature="0" />
  <path
     id="path1339"
     d="m 126.74372,268.60716 2.68341,7.04394 c 0,0 0.50314,12.07532 -0.50314,12.74617 -1.00628,0.67086 -4.19282,6.37309 -4.19282,6.37309 l -4.19282,2.51569 -6.03766,-1.84484 -1.17399,-10.90133 12.24303,-15.42958 1.17399,-0.50314 z"
     style="fill:url(#linearGradient1343);fill-opacity:1;fill-rule:evenodd;stroke:none"
     inkscape:connector-curvature="0" />
  <path
     id="path1341"
     d="m 243.97497,309.19366 1.17399,8.21793 -2.85112,8.38564 -3.68968,2.51569 -3.68968,1.17399 -6.70851,0.50314 -4.02511,-6.87623 0.83856,-10.06276 4.19282,-4.69596 2.34798,-2.01256 c 0,0 2.51569,-1.84484 4.52825,-1.50941 2.01255,0.33542 7.37936,3.18654 7.8825,4.36053 z"
     style="fill:url(#linearGradient1345);fill-opacity:1;fill-rule:evenodd;stroke:none"
     inkscape:connector-curvature="0" />
  <path
     id="path1347"
     d="m 187.04039,172.6535 c 0,0 3.76179,4.85897 5.95616,4.85897 2.19437,0 7.6803,-0.94045 9.87468,-1.56741 2.19437,-0.62697 6.73986,-6.42638 7.21008,-7.83705 0.47022,-1.41066 -5.95616,-3.4483 -7.6803,-2.97807 -1.72416,0.47022 -6.1129,2.97807 -7.68031,2.03763 -1.56741,-0.94045 -10.3449,-1.25393 -11.44209,0.7837 -1.09719,2.03764 4.07526,4.85897 3.76178,4.70223 z"
     style="fill:url(#linearGradient1349);fill-opacity:1;fill-rule:evenodd;stroke:none"
     inkscape:connector-curvature="0" />
  <path
     style="fill:#000000;fill-opacity:1;fill-rule:nonzero;stroke:none"
     d="m 207.07815,6.681702 c -8.40643,2.662018 -15.64874,9.833672 -17.6308,18.553228 3.17747,-0.108637 3.85273,-3.341348 4.59113,-5.786091 2.50955,-4.599175 5.97895,-10.287906 11.71894,-10.880368 6.56485,1.006425 11.47753,6.081481 16.98092,9.412881 9.10791,6.325798 20.56417,5.626201 30.98494,7.589004 4.40964,-0.130494 5.63049,3.53024 7.37936,6.666584 -2.70121,-1.103577 -6.99655,-1.215932 -9.26613,-2.012554 -11.41505,-2.227152 -21.26756,-8.814549 -32.4105,-11.907609 -5.4406,-1.162793 -11.56851,-5.60309 -16.83417,-1.677128 -1.69629,0.730155 -5.73316,5.730653 -5.40874,6.918153 -1.56085,0.323183 -3.11604,0.687972 -4.65403,1.194954 -0.23012,0.164761 -0.46169,0.338377 -0.69182,0.503138 1.03998,0.914478 8.99083,-0.857783 12.64136,-0.524102 12.30907,-1.003634 23.19372,5.458065 34.54883,8.972635 7.96598,1.059455 15.25324,4.717633 21.7817,9.287096 6.20298,3.302936 11.85775,8.037716 13.50088,15.2409 0.28079,1.082251 0.62165,2.165011 0.92242,3.249436 -2.39351,-6.219294 -7.39954,-11.529624 -13.12352,-14.926439 -5.56816,-4.563056 -11.49417,-8.995665 -18.72095,-10.461086 -0.9933,-0.224997 -2.00171,-0.396876 -2.99786,-0.607959 -5.20043,-1.860284 -10.71202,-2.83715 -16.24718,-3.354256 -2.28052,-0.473178 -4.57028,-0.894956 -6.8343,-1.446523 -2.77507,-0.442285 -3.53478,0.04776 -3.29136,0.733744 -6.38961,-0.500549 -12.62052,-1.827238 -18.63708,-4.108964 -10.16799,-0.322216 -14.27271,12.749319 -21.13182,18.699977 -0.92939,0.627286 -1.66451,1.451843 -2.24315,2.368943 0.11873,-1.050351 0.34249,-2.081664 0.81759,-3.060758 2.96113,-6.526134 9.42114,-10.422405 13.56378,-16.100429 2.92195,-1.820743 2.23996,-5.002436 -1.4046,-4.737886 -3.7536,0.07903 -7.44371,1.045937 -11.1529,1.6352 -5.58068,1.359848 -12.32974,2.364334 -15.55536,7.735752 -1.56066,4.039155 -2.555,8.371371 -4.96849,12.054358 -2.72385,3.179036 -4.3887,7.970316 -1.9287,11.802788 1.09353,1.290764 2.66293,2.162529 4.3815,2.641476 -3.06792,1.315385 -5.86931,3.248772 -7.27455,6.352123 -1.44686,4.329915 -1.90454,8.992619 -1.65616,13.542808 0.16509,1.73949 0.12057,4.122609 1.94966,4.989456 2.59463,-0.09619 3.60554,-3.323867 4.69596,-5.282953 2.61005,0.01134 5.20215,0.225815 7.79865,0.482174 -10.4922,0.489701 -15.40618,11.21631 -16.77128,20.293245 -1.83518,10.79452 1.90458,21.52425 4.10896,31.94929 5.95325,14.89449 16.48399,28.58869 17.21153,45.15667 -0.29322,2.03671 -0.77929,4.04069 -1.17399,6.05863 -5.48865,-0.2057 -10.97222,0.95081 -16.0585,3.12365 -12.547,3.29031 -20.90687,14.81452 -24.71668,26.66633 -4.87785,10.16426 -6.30191,21.4389 -8.05021,32.45243 -0.58289,11.89701 -5.44737,22.8739 -8.11311,34.33919 -1.90355,14.7606 -4.98128,29.5279 -3.98318,44.48582 1.02778,10.18239 -0.15933,20.4701 -3.29136,30.20927 -3.363973,10.46993 -5.429825,21.37513 -4.884637,32.4105 -2.185983,6.59525 5.197947,2.7119 3.039795,-1.53038 -0.510325,-10.68848 1.304989,-21.28755 4.633062,-31.42519 3.14903,-9.77582 4.761,-20.0826 3.5639,-30.33505 -1.01593,-11.92481 1.0539,-23.73079 2.53666,-35.51318 0.93314,-14.01779 7.85995,-26.72159 9.18227,-40.64939 1.65833,-11.09421 2.7199,-22.5891 7.3584,-32.9346 3.00316,-9.17388 7.60301,-18.02626 15.11512,-24.31836 6.46986,-2.101 12.83896,-5.35624 19.83204,-5.01042 1.11876,0.12703 2.26706,0.24573 3.39618,0.37736 -2.79409,13.07467 -7.32994,25.80005 -11.677,38.40623 0.40044,5.61002 1.75912,11.47482 3.48004,17.04381 0.55659,4.21639 1.41279,8.00108 3.37522,9.53867 0.0793,0.19435 0.15103,0.41583 0.2306,0.60795 0.0588,-0.11569 0.052,-0.25905 0.10482,-0.37735 0.25947,0.15774 0.47835,0.40454 0.77567,0.48217 1.43045,-4.28673 0.31659,-8.52485 -1.21591,-12.7881 -1.43633,-5.94468 -3.29574,-12.36988 -1.34171,-17.81948 3.98605,-11.50255 10.20044,-22.57719 13.24932,-34.42305 6.40146,0.50147 12.8109,0.47553 18.95154,-1.67713 0.81383,-0.59128 1.63898,-1.19067 2.4528,-1.78195 2.23742,2.12137 4.75671,3.89991 7.81961,4.54921 7.17216,1.80926 14.19619,-1.62758 20.1465,-5.32488 6.45675,-4.42408 14.79495,-6.64226 19.28697,-13.50088 3.33847,-4.02238 5.21736,-8.94175 7.50515,-13.58474 0.25744,-0.38334 0.45769,-0.77766 0.67085,-1.17399 0.11707,0.49291 0.23851,0.99803 0.35639,1.48845 1.7649,5.09909 2.20215,10.42667 1.86581,15.74404 -1.24562,4.82611 -2.04454,9.7371 -2.7463,14.67487 -1.45928,4.79608 -3.00926,9.56219 -4.52825,14.33945 -3.50691,1.24569 -7.1024,2.238 -10.83844,2.28508 -7.68063,-0.3558 -14.72531,3.50663 -20.92217,7.63094 3.20792,-0.807 5.75226,-3.20638 8.97264,-3.98318 4.98404,-2.18742 10.59533,-1.1251 15.78596,-2.34798 2.24727,-0.66299 4.42486,-1.5042 6.62466,-2.30605 -0.96783,3.07623 -1.95067,6.14905 -2.78823,9.26613 -3.85716,4.20646 3.43896,6.85211 5.32488,2.57858 1.70303,-4.50198 2.55818,-9.19379 3.22848,-13.92016 2.76706,-1.07539 5.532,-2.18129 8.32274,-3.18654 5.45464,-1.44938 10.66726,-3.73337 16.20525,-4.88464 0.4632,-0.56233 2.18765,-1.18407 2.05448,-1.71905 -1.79519,-0.38239 -3.48809,0.77069 -5.17813,1.25784 -7.20913,2.01511 -14.22704,4.64208 -21.21567,7.31647 0.6137,-4.59499 1.16757,-9.20311 1.90774,-13.77341 0.45494,-1.58436 0.94342,-3.15914 1.3417,-4.75885 0.90552,-2.81809 1.32881,-5.73653 1.55134,-8.65817 0.59468,-3.88142 0.80819,-7.82776 0.71278,-11.76086 0.27631,0.90697 0.47299,1.77971 0.50314,2.57858 3.29137,7.40813 4.30839,16.67753 11.09001,21.92845 11.76875,6.51065 26.59095,4.43587 37.92405,11.99146 7.98831,4.54478 12.18892,14.0156 11.25773,23.01858 0.8762,12.18587 -1.51368,24.24175 -1.23689,36.41465 1.49755,12.9253 3.78117,25.85195 3.3333,38.93033 -0.0331,27.7336 -7.60393,54.60698 -12.264,81.73902 -0.55728,2.26081 -1.19616,11.22693 -1.48845,8.97264 -0.96736,3.44533 0.0212,4.15141 2.74629,2.1593 1.41303,-14.01604 4.37387,-27.7897 7.19069,-41.57181 5.84071,-26.9991 9.09368,-55.00071 4.65403,-82.47277 -2.99603,-14.80465 1.11173,-29.73391 0.14675,-44.63257 0.7413,-7.94155 -1.56883,-16.49395 -7.81961,-21.76073 -9.99311,-9.21656 -24.33058,-8.29075 -36.45657,-12.47364 -8.33467,-1.50856 -11.12031,-10.08218 -13.56377,-17.00188 -2.65402,-8.42973 -6.63667,-16.63796 -7.73575,-25.42946 -0.22294,0.11359 -0.44793,0.2428 -0.67086,0.35639 -0.11803,-0.48415 -0.16769,-0.98597 -0.29349,-1.46749 -2.71527,-8.3956 -6.99047,-16.45282 -7.79865,-25.38752 -0.78428,-4.91337 0.19166,-9.68142 1.15303,-14.46523 1.33804,-0.93146 1.95213,-2.57527 2.59955,-4.12993 0.77488,-1.831615 2.68957,-2.686816 4.48631,-2.431832 3.14733,2.686892 4.74242,6.650212 5.84899,10.859402 -0.0244,1.56084 -0.18786,3.10667 -0.56603,4.57018 -1.007,3.25478 -2.32081,6.43294 -2.99787,9.79023 -0.21748,2.19224 -1.34755,4.10912 -1.82388,6.22634 -1.09935,0.0412 -3.05878,1.08187 -4.23475,2.20123 2.81511,-0.10472 5.71018,-1.39133 7.31648,-3.77354 1.68174,-3.18272 1.81281,-6.91591 2.9769,-10.29337 0.30721,-0.74868 0.58499,-1.53011 0.85953,-2.30605 0.24587,1.25927 0.48817,2.55774 0.7547,3.73161 6.93718,8.16036 8.42485,-8.73342 9.72735,-13.6057 0.17207,-1.35826 0.16581,-2.70928 0.0838,-4.04608 4.46364,-3.813946 6.21096,-9.52568 7.25358,-15.219932 0.43656,0.629915 0.81274,1.287182 1.38363,1.865805 3.15202,3.079777 12.95927,12.425777 14.10884,3.165579 -6.7204,-6.9106 -10.66341,-15.941384 -13.47992,-25.031135 -1.1353,-9.348587 -6.93615,-18.30655 -15.78596,-22.012305 -7.97653,-5.84569 -17.7045,-8.410931 -27.16948,-10.817476 -11.40015,-5.269287 -24.42525,-8.659005 -36.9597,-6.645619 0.11998,-0.06568 0.16028,-0.06801 0.29349,-0.146749 1.78226,-5.117702 5.906,-8.030303 11.00616,-4.758851 8.97201,2.346349 17.50321,6.029108 25.97452,9.769271 6.1327,2.909669 12.81463,4.043978 19.34986,5.492594 1.93492,1.456961 5.49379,2.314242 7.6519,1.6352 0.0375,0.03193 0.0665,0.07379 0.10482,0.10482 0.005,-0.05615 -0.0233,-0.09224 -0.021,-0.146748 1.60708,-0.548347 2.41426,-1.942296 0.94338,-4.779815 -2.48819,-6.64079 -10.05529,-7.888626 -16.28907,-7.903466 -8.47206,-0.292544 -16.9472,-2.460695 -23.98293,-7.337435 -5.4194,-3.175863 -10.28352,-8.932699 -17.06478,-8.469496 z M 179.95061,26.76531 c 2.08262,-0.227385 4.02149,-0.124329 5.17813,1.048205 -3.43858,5.906757 -9.35588,9.798043 -13.37509,15.261864 -2.89647,3.624891 -3.89053,8.684504 -1.90774,12.976778 0.0797,1.392774 0.76171,1.959804 1.50942,2.033518 1.26457,2.995766 3.95408,4.786878 7.73575,3.249435 -4.55352,0.588612 -7.25111,-12.306101 -2.70437,-15.785967 6.1533,-4.795493 8.77837,-13.696782 16.39393,-16.498746 8.92137,4.350624 18.75983,4.169782 28.40635,4.989455 4.94232,1.171105 10.01058,1.956397 15.0103,2.976902 8.08939,2.526654 16.4004,6.866216 18.99347,15.13608 -0.81487,0.334534 -1.86372,0.539834 -1.48845,1.446523 0.67796,0.225178 1.31181,0.576154 1.97063,0.859528 0.0688,0.400888 0.20836,0.756814 0.25157,1.17399 -0.39472,3.589154 8.31101,18.195671 2.47376,15.031259 -1.63574,-0.64191 -3.32884,-1.138327 -4.98946,-1.719056 -3.69539,-2.045519 -7.54143,-3.892661 -11.11097,-5.744163 -14.94065,-3.259679 -30.65524,0.340651 -45.63884,-3.207507 -9.14811,-4.629585 -18.63379,1.753323 -22.95569,9.874091 4.8428,1.004203 7.62381,-13.736993 16.37296,-8.993599 0.083,0.02576 0.16854,0.03757 0.25157,0.06286 -2.20816,-0.02086 -4.41318,0.132157 -6.60369,0.691815 -0.57061,1.399858 12.04571,1.8469 16.77128,2.788225 14.71235,-1.644779 29.62072,0.396896 43.87786,4.088 2.31007,1.122542 5.97456,2.851359 9.47577,3.878358 8.1784,3.881431 10.40433,12.726805 11.90761,21.173741 3.53143,6.275471 -1.8933,20.477451 -2.32702,21.802661 -0.69882,-3.68243 -1.49448,-7.6191 -2.66244,-11.40447 0.0319,-1.54608 -0.0743,-3.08912 -0.5241,-4.6121 -0.8377,-3.00333 -2.78409,-6.314648 -6.05862,-6.981045 -0.41673,-0.391723 -0.7974,-0.817533 -1.25785,-1.17399 -8.57112,-4.70586 -14.89661,-13.116308 -25.59717,-12.32689 -15.99807,-0.31742 -32.90316,-4.824004 -48.09164,2.327015 -4.10745,3.063314 6.4386,-1.043764 10.67073,-1.844841 0.83196,3.88559 8.23879,3.553828 11.76086,5.178133 8.00196,1.663489 14.8811,7.322434 18.40648,14.653908 2.57544,7.34401 7.97034,13.10785 12.91388,18.93058 7.81489,8.58053 11.03121,19.75783 13.71052,30.83819 -0.18069,2.47158 -0.65715,4.89811 -2.03352,7.12779 -3.45458,7.26957 -6.85316,15.16469 -13.6057,20.02072 -3.97758,2.20638 -8.05089,4.30626 -11.92857,6.70851 -5.47062,3.40072 -12.39148,4.87339 -18.53226,2.41087 -3.2264,-1.63528 -5.97621,-4.15085 -8.28082,-6.98101 3.22014,0.49804 6.65689,-0.31565 9.70638,-1.3417 3.05317,-0.95016 5.57171,-3.07868 7.31647,-5.7232 0.49637,-0.91737 2.91495,-3.44998 1.65616,-3.89932 0.47636,-0.31422 0.87298,-0.70273 0.83856,-1.02725 0.0765,-0.0746 0.17787,-0.0857 0.25157,-0.16771 -0.0907,0.0305 -0.16325,0.0912 -0.25157,0.12579 -0.05,-0.20454 -0.25262,-0.38952 -0.83856,-0.48218 -3.40315,-0.73734 -7.09577,-2.44877 -10.50301,-0.79663 -2.12655,2.00818 -5.12763,1.59965 -7.77768,1.25784 -2.62321,-1.03183 -5.71987,-0.95526 -8.19697,0.44025 -1.35889,0.62679 -0.79504,0.97526 -0.0629,0.71278 -0.27873,0.20325 -0.55867,0.40634 -0.83856,0.60796 -2.69178,-2.07495 -5.62022,-3.93383 -8.05021,-6.2473 -5.33609,-4.68757 -6.50006,-11.9274 -8.2389,-18.42745 -0.47111,-2.08726 -1.2265,-4.06066 -2.09641,-5.99573 1.49671,0.43192 3.03296,0.72418 4.59114,0.60796 1.17211,-0.15649 2.33803,-0.44598 3.50101,-0.73375 1.31701,-0.10313 2.62441,-0.43125 3.7945,-1.0482 0.55501,-0.30702 1.1439,-0.68723 1.59327,-1.17399 0.19112,-0.12865 0.40215,-0.2166 0.587,-0.35639 0.69661,-0.64435 1.55479,-1.2213 1.97062,-2.09641 0.86627,1.39241 1.63073,2.8504 2.26412,4.36053 1.91383,3.57628 0.9698,7.73773 -0.12578,11.40447 -1.27955,2.78213 -2.38448,6.45603 -0.35639,9.16131 1.84804,1.58821 3.78045,3.74052 6.41501,3.71065 2.19429,-0.15684 5.10271,-1.07158 5.70224,-3.45908 -0.30898,-0.44392 2.28433,1.06959 3.39618,0.54507 2.80456,0.48316 5.60223,-1.95727 5.22006,-4.84271 -1.06788,-0.80594 -3.81353,1.13151 -2.95593,2.66244 -0.33151,-0.0353 -0.6427,-0.004 -0.83857,0.10482 -3.11554,-0.27677 -6.32231,0.98395 -8.32275,3.39619 -0.38814,-0.77358 -2.0477,-1.7951 -3.01883,-2.01255 -3.07546,-1.03171 -4.29257,-4.51041 -3.2704,-7.44226 1.28347,-3.65737 2.71411,-7.47211 2.30606,-11.42543 -0.91432,-4.03159 -3.02106,-7.78488 -5.61838,-10.98519 -1.05123,0.53563 -2.09339,1.0786 -3.14462,1.61423 0.37161,0.4157 0.64772,0.89959 0.98531,1.34171 -0.17344,-0.13194 -0.345,-0.28075 -0.50313,-0.39832 -0.91146,-0.6031 -1.94412,-0.83688 -2.99787,-0.90146 0.90866,-0.66018 1.81668,-1.31043 2.72533,-1.97062 -2.71786,-0.0417 -5.426,-0.74153 -7.77768,-2.11738 -2.1996,-1.70965 -5.08101,-1.88854 -7.75672,-1.8658 -1.76967,-0.39521 -2.94444,1.08026 -4.27667,1.92869 -1.03684,-2.41927 -1.89231,-4.9057 -2.20123,-7.589 0.004,-6.90449 -0.0876,-13.80936 -0.41928,-20.71253 2.56059,-7.112532 6.86199,-15.760387 15.55536,-14.192695 3.99934,-2.514136 1.12798,-1.615852 -2.01256,-1.572307 -6.58887,0.636262 -10.78818,5.242668 -13.75245,10.733619 -0.01,-0.132769 -0.0109,-0.265564 -0.021,-0.398318 -1.05123,0.535627 -2.11434,1.057644 -3.16557,1.593271 0.17085,1.804583 0.21551,3.62099 0.31446,5.4297 -0.4778,1.27004 -1.01675,2.5677 -1.42556,3.77354 -0.004,16.58852 3.4982,33.51029 10.94326,48.42707 6.8552,9.7626 7.90632,22.11539 5.78609,33.64738 -0.13953,-0.0245 -1.35568,6.14932 -1.94966,8.00829 -1.27221,5.20908 -3.66443,10.12266 -6.0167,15.03125 2.16744,-6.8065 4.30073,-13.62009 6.10056,-20.52385 0.0433,-0.11868 0.0633,-0.23761 0.10482,-0.35639 0.0631,0.007 0.49233,-1.44745 0.67085,-2.32701 -0.0137,-0.002 -0.0282,0.002 -0.0419,0 2.71245,-10.61932 -1.02489,-21.49406 -5.4297,-31.19458 -5.34218,-10.62362 -11.83291,-20.93125 -13.22835,-33.01846 -2.67795,-9.57273 -2.67669,-19.55368 0.83856,-28.909493 0.10346,-7.952726 8.47512,-7.696663 11.69797,-10.649763 1.12313,0.114132 2.25484,0.202691 3.37522,0.335426 0.64976,-0.710606 2.42475,-1.313768 2.55762,-2.117374 -4.56322,-1.229027 -9.53794,-1.112406 -13.92016,0.754707 -1.21784,0.486998 -2.48429,1.113372 -3.41715,2.033518 -0.73272,-4.980567 -0.4547,-10.138923 1.04821,-14.947403 0.62475,-2.0008 1.20422,-4.629061 3.68968,-4.968492 3.72235,-1.341729 7.7812,-0.876272 11.48833,0.272533 1.945,1.25582 3.62195,-0.107986 5.1362,-1.257846 -2.34483,-0.781984 -4.80044,-1.47129 -7.27454,-1.74002 0.19116,-0.156536 0.41216,-0.284421 0.58699,-0.46121 -0.21812,0.149835 -0.43741,0.302379 -0.64988,0.46121 -0.55778,-0.0589 -1.11709,-0.117473 -1.67713,-0.125784 -1.25131,-0.55735 -3.64339,-1.009021 -5.11524,-0.775672 -4.693,-0.843294 -5.08822,-7.179497 -3.0398,-10.607835 3.96805,-4.580961 5.38235,-10.595356 7.46322,-16.121392 3.23519,-2.248693 8.06818,-2.494285 12.01243,-3.584861 1.72002,-0.08799 3.93408,-0.632143 6.0167,-0.859528 z m 76.2045,19.517576 c 4.59624,3.267213 9.28693,6.43245 12.93485,10.73362 5.07972,5.991794 3.58064,14.413922 5.76513,21.404345 -0.64566,1.534338 -1.09704,3.450222 -0.77567,4.486318 -0.89808,4.598034 -1.72701,9.476249 -4.17186,13.521841 -0.0721,-5.981937 0.631,-11.962958 1.82388,-17.819482 3.33271,-10.48048 -3.2782,-21.999874 -13.14449,-26.058376 -0.60317,-2.206402 -1.33856,-4.324266 -2.43184,-6.268266 z m 3.50101,10.335302 c 3.30478,2.206738 6.12869,5.126282 7.81961,8.742029 3.71277,6.727953 1.06971,14.325216 0.021,21.362418 -0.6631,-2.488979 -1.28701,-4.975415 -1.59327,-7.505148 -1.62876,-2.391672 -3.76882,-4.324012 -6.07959,-6.100553 2.78684,-0.386699 4.41896,-2.375611 3.16558,-7.484184 -1.68465,-2.751536 -2.5466,-5.870732 -3.33329,-9.014562 z m 16.68742,8.762993 c 2.59878,8.403116 6.13593,16.562397 12.24303,23.039546 -1.60856,-2.169553 -12.29507,-8.918598 -12.09628,-15.995608 0.39237,-2.414803 0.28234,-4.764915 -0.14675,-7.043938 z m -82.38891,13.75245 c 11.03692,0.521278 22.14224,0.930074 33.14424,2.117374 5.35749,-0.299502 9.53968,2.259017 13.50088,5.282953 1.3388,4.129579 4.57143,8.283194 1.74002,12.473642 -2.48033,8.36001 -2.60102,17.40246 -0.44025,25.84873 -3.93102,-6.72456 -9.46437,-12.44941 -14.04594,-18.7419 -3.55374,-4.26836 -5.13288,-9.70556 -8.25986,-14.234627 -6.20062,-8.031175 -16.71691,-9.23905 -25.63909,-12.746172 z m 52.32639,11.76086 c 0.52365,0.407602 1.04134,0.853396 1.57231,1.236881 0.87396,0.324048 1.59432,0.787345 2.32701,1.236882 -1.84171,0.817929 -3.4138,2.129939 -4.73788,3.647756 0.25389,-1.501092 0.50862,-3.0136 0.60796,-4.528248 0.18026,-0.478015 0.23646,-1.014179 0.2306,-1.593271 z M 212.7175,112.19402 c -3.87275,0.18619 -7.88704,0.22573 -11.50929,1.78194 -4.57962,2.37995 -9.18987,5.0873 -12.43172,9.20324 1.02733,-0.5453 2.07296,-1.01297 3.08173,-1.59327 1.94234,-2.1587 4.41379,-3.74082 6.75044,-5.4297 2.75125,-1.17919 5.74762,-1.66254 8.72106,-1.78195 1.32077,-0.16836 2.77768,0.14103 3.98318,-0.5241 0.41689,-0.50166 3.29528,-2.03819 1.4046,-1.65616 z m 2.41087,7.27454 c -4.29124,0.0234 -8.92827,-0.51925 -12.80907,1.71905 -3.28858,1.70458 -6.67225,4.12622 -7.65189,7.90347 0.85651,-0.4801 1.77129,-0.84786 2.62051,-1.3417 1.71917,-1.32672 2.17882,-3.81971 3.92029,-5.22006 2.28044,-0.86509 4.73087,-1.05853 7.14875,-1.06917 1.63414,0.22738 3.59391,-0.50431 4.9685,0.64989 0.69455,1.01213 0.5478,2.10475 0.12578,3.16557 -0.36939,-1.25 -1.47861,-2.36301 -2.70437,-2.74629 -2.44627,-1.2324 -5.31281,-0.39282 -7.50515,0.98531 -0.84131,0.47889 -0.80429,0.52257 -0.5241,0.44025 -1.80808,0.58085 -1.84791,2.878 -0.71278,4.19282 0.36367,0.45991 0.82702,0.81707 1.32074,1.13206 -1.50149,-0.0195 -2.99718,-0.24517 -4.46535,-0.23061 -0.78749,0.34977 -3.78993,1.82099 -1.74002,2.05448 5.3111,0.72721 10.9851,0.0384 15.68114,-2.66244 1.67531,-0.80963 2.829,-2.30684 3.52197,-4.00414 1.09334,-1.5475 0.91457,-4.49967 -1.19495,-4.96849 z m -10.6288,3.81546 c -0.0679,0.0203 -0.0549,0.0587 -0.10482,0.0839 0.002,-0.0139 -0.002,-0.028 0,-0.0419 0.0284,-0.0105 0.0794,-0.0329 0.10482,-0.0419 z m -0.12579,0.75471 c 0.34783,0.23483 0.96114,0.37194 1.57231,0.16772 2.07451,-0.21816 4.28429,1.15209 4.59114,3.31232 0.13601,0.41319 0.0625,0.58723 0.021,0.79664 -0.5095,0.10609 -1.02101,0.18222 -1.53038,0.2935 -0.53816,-0.17021 -1.10438,-0.34333 -1.50942,-0.44025 -1.99214,-0.28073 -3.13225,-2.22662 -3.14461,-4.12993 z m -45.00992,1.29978 c 2.55939,0.10413 5.22455,-0.12934 7.63094,0.92242 2.54276,1.7069 5.50617,2.82345 8.57431,3.06076 -0.82459,0.008 -1.65475,0.0338 -2.4528,0.0839 -3.59638,0.16716 -7.14368,1.56631 -9.79023,4.02511 -1.3952,-2.67179 -2.78087,-5.34907 -3.96222,-8.09214 z m 12.64136,6.03766 c 0.24085,-0.0442 0.48974,0.0174 0.73374,0 -0.83131,0.34435 -1.6634,0.68291 -2.49473,1.02724 -0.5082,0.78429 -0.96232,1.78791 -0.60796,2.72533 0.10331,0.20953 0.25285,0.35842 0.39832,0.5241 -1.03995,-0.12816 -2.07117,-0.28047 -3.06076,-0.62892 -0.88168,-0.37501 -1.66696,0.18846 -2.43183,0.79664 -0.38201,-0.78748 -0.78905,-1.57008 -1.19496,-2.34798 0.78438,-0.35488 1.5636,-0.71429 2.34798,-1.06917 0.12487,-0.0484 -0.005,-0.0113 0.0629,-0.0419 2.07738,-0.39468 4.13609,-0.82529 6.2473,-0.98531 z m 1.3417,0 c 0.48786,0.0106 0.95548,0.0438 1.42556,0.16771 -0.69752,0.55047 -1.40036,1.08288 -2.09641,1.6352 -0.0846,-0.62748 0.28833,-1.26356 0.67085,-1.80291 z m 1.37069,1.0292 c 1.24096,0.2628 2.98929,0.56385 3.85544,1.47944 -0.27691,0.23833 -2.09459,1.42291 -2.56369,1.43261 -1.00919,-0.41865 -2.16146,-0.53924 -2.95594,-1.36267 -0.18003,-0.18411 -0.25719,-0.39722 -0.31446,-0.60796 0.3582,-0.11421 1.59181,-0.98129 1.97865,-0.94142 z m -13.99108,3.56193 c 1.4092,2.70164 2.49392,5.51686 3.35426,8.42757 -1.2386,-2.61748 -2.39394,-5.25621 -3.22848,-7.98732 -0.0389,-0.14561 -0.0868,-0.29443 -0.12578,-0.44025 z m 11.36254,26.89694 c 1.88089,1.98665 4.01757,3.76608 6.3102,5.24103 3.93375,2.64142 7.47231,5.96444 9.55962,10.27241 1.37085,1.67035 2.85601,3.35497 4.46536,4.9056 -6.68583,2.03494 -13.79603,2.222 -20.71253,1.48845 0.85837,-3.87733 1.37431,-7.82885 1.29977,-11.92857 0.34697,-3.49348 -0.086,-6.79428 -0.92242,-9.97892 z m 30.23023,3.45908 c 0.5881,0.0294 1.14311,0.10099 1.57231,0.27253 1.85399,0.72196 4.08444,1.32528 6.0167,0.77568 -0.96054,0.81612 -1.75962,1.83581 -2.4528,2.87208 -1.53107,2.04975 -2.49988,5.44604 -5.55549,5.51356 -3.29705,0.63892 -6.85651,1.14459 -9.97891,-0.46121 -2.36478,-0.23797 -2.28861,-4.08916 -4.36053,-3.79451 -1.16132,-1.2898 -2.48701,-2.42481 -3.87836,-3.501 0.82776,-0.55701 2.09002,-1.44615 3.10269,-0.77567 2.38731,0.64769 4.78343,1.83955 7.31647,1.11109 1.11366,-0.0729 4.04069,-1.5122 3.96221,-1.44652 0.369,-0.23593 2.49141,-0.65433 4.25571,-0.56603 z m 5.26199,1.67713 c -1.45984,0.10855 -4.82667,1.5323 -6.28923,1.40459 -3.78618,0.14291 -5.51505,0.63309 -9.30806,0.10482 -0.98345,0.64709 -1.97249,1.28161 -2.95594,1.9287 1.70352,0.30173 3.43179,0.36166 5.15717,0.2935 2.97122,-0.19143 5.94648,-0.54682 8.93071,-0.48218 1.91316,0.38748 3.05856,-2.26709 4.46535,-3.24943 z m -27.48393,20.06264 c -1.05123,0.53563 -2.09339,1.05763 -3.14462,1.59327 2.44179,4.23382 3.85198,9.02525 6.68755,13.03967 1.39898,2.28865 4.03838,3.40207 6.58273,3.83643 2.79439,0.37634 5.6348,0.52275 8.44853,0.27254 1.77769,-0.005 3.34297,-0.99737 4.6121,-2.1593 0.79746,-0.478 -0.0137,-0.44051 -0.44024,-0.23061 -1.52922,0.60063 -3.17672,0.44088 -4.77982,0.46121 -3.48924,-10e-4 -7.23624,-0.26852 -10.16759,-2.36894 -3.45803,-4.30287 -5.42056,-9.52406 -7.79864,-14.44427 z m 47.27404,1.97063 c -0.40101,0.23358 -0.81783,0.43058 -1.23688,0.62892 -2.88995,0.85328 -3.2043,4.21985 -4.25571,6.60369 -0.58215,2.65796 -1.93217,5.11073 -3.94125,6.96008 -0.54534,0.8444 -4.71887,3.39471 -2.01256,2.43184 2.98838,-1.36856 5.53453,-3.7112 7.3584,-6.43598 1.64904,-3.27123 2.43704,-6.90622 4.088,-10.18855 z m 17.56792,12.99774 c -0.7487,4.07226 -1.64832,8.10424 -2.9769,12.05436 0.73338,-4.09136 1.80912,-8.07839 2.9769,-12.05436 z m -93.75146,17.33731 c -1.06748,0.44217 -2.14001,0.87859 -3.2075,1.32074 -2.31531,3.45253 -3.62601,7.43926 -5.03139,11.32061 -3.06285,9.26774 -5.45095,18.7692 -7.12779,28.38539 0.3875,0.11785 3.04423,-0.77558 3.20751,-1.88677 1.37606,-7.8449 3.22778,-15.61138 5.55548,-23.22822 1.78318,-5.4527 3.30798,-11.13159 6.60369,-15.91175 z m 120.18719,18.90962 c -1.24383,0.91548 -4.32762,1.11178 -2.53666,3.18654 2.86395,7.53277 3.94171,15.71456 2.80919,23.7104 -1.03767,10.96085 -5.11719,21.50646 -4.69596,32.62014 0.0857,9.62722 -0.19371,19.26971 0.16772,28.88853 0.51162,8.28895 0.98165,16.69075 -1.00628,24.84245 -1.37066,7.3792 -5.04653,20.59805 -4.42343,28.23865 0.70969,2.18022 -1.5308,7.99978 0.27254,7.92443 3.09092,-0.53273 2.55799,-3.77373 2.76726,-6.2473 -0.0433,-5.80717 0.7108,-17.75697 2.64147,-23.31208 2.07478,-8.42697 3.87891,-17.05907 3.14462,-25.78585 -0.73959,-12.53202 -0.49294,-25.0831 -0.48217,-37.63056 -0.0257,-11.81507 4.57531,-23.04196 5.03138,-34.82136 0.42351,-3.15733 -0.3073,-6.67328 -0.27253,-9.5806 2.943,-1.34467 1.7402,-5.99937 2.89304,-8.7001 0.85144,-2.87029 0.11154,-3.84792 -2.22219,-2.07545 -1.66981,1.03356 -0.48851,6.71528 -1.6981,6.58273 -0.68141,-2.64368 -1.41365,-5.288 -2.3899,-7.84057 z m -123.49951,12.62039 c -2.6709,0.75299 -4.24617,2.52196 -5.7861,4.71692 -2.2692,2.63426 -4.46269,5.83894 -7.8825,6.98104 -2.84237,0.75593 -5.34183,2.20879 -7.60996,3.98318 -0.12235,-0.0466 -0.20897,-0.14893 -0.33543,-0.18867 -0.51289,0.47144 -1.30194,0.52146 -1.74002,1.09013 -0.0904,0.31228 -0.004,0.57258 0.0629,0.83856 -1.32127,1.2161 -2.57495,2.50375 -3.75257,3.83643 -0.81183,0.88343 -1.57235,1.80263 -2.30605,2.7463 -0.78751,0.80805 -1.53783,1.64597 -2.32702,2.4528 -2.73873,2.91446 -4.59101,6.8801 -4.82174,10.90133 -1.4915,4.13496 -2.58933,8.41427 -3.06076,12.76714 -1.36425,10.30495 3.02852,21.01992 10.8594,27.75647 3.9866,2.96719 8.29559,6.44604 13.50088,6.5408 5.78653,-0.24676 11.53631,-2.41615 15.95368,-6.18441 2.32533,-2.04177 4.97943,-3.56206 7.69383,-4.98946 2.87083,-1.93064 4.69091,-4.98807 7.67286,-6.75044 4.42981,-3.53131 5.90798,-9.19475 8.02925,-14.17173 3.46532,-5.98474 4.81987,-12.84819 5.89091,-19.60143 1.53485,-2.52021 -1.55588,-3.53078 -2.7463,-1.29978 -0.74287,6.29297 -1.94121,12.60177 -4.40246,18.46937 -2.20971,3.93104 -3.47545,8.28468 -5.45066,12.32689 -1.58422,3.55448 -5.03975,5.51977 -7.60997,8.25986 -2.86742,3.14166 -6.73844,4.95259 -10.1047,7.46322 -2.59798,2.52327 -6.13347,3.4323 -9.58059,4.12993 -4.91055,1.52259 -9.45947,-1.61236 -13.43799,-4.088 -8.6769,-6.09359 -14.16071,-16.81344 -13.35413,-27.46297 0.19331,-2.47287 0.57195,-4.95722 1.09013,-7.40033 0.92876,1.98658 3.09595,3.2224 5.28295,3.18654 4.44282,0.0421 8.12591,-3.18809 10.44013,-6.70851 3.04084,-4.47829 3.57622,-10.05501 3.52196,-15.32476 0.23575,-3.202 -1.33633,-6.59574 -4.19282,-8.15503 0.98184,-0.94541 2.07885,-1.72252 3.58487,-1.86581 6.79754,-3.05217 13.09906,-7.74684 16.91802,-14.25558 z m -22.64123,18.57419 c 0.61428,0.6012 1.45611,1.1052 1.99159,1.61423 1.32912,2.59849 1.32283,5.60404 1.17399,8.44854 -0.0252,4.09331 -0.89395,8.2595 -3.20751,11.69796 -1.1062,1.47822 -1.924,3.49924 -3.85739,4.04608 -3.0125,0.81014 -6.00579,-1.69782 -6.58273,-4.59114 -0.32366,-1.27377 -0.43217,-2.55943 -0.35639,-3.83643 1.69855,-4.68801 4.06814,-9.10225 7.14876,-13.01871 1.23398,-1.18857 2.45828,-2.36851 3.501,-3.71064 -0.0708,-0.0695 -0.17106,-0.0446 -0.25157,-0.0839 0.14427,-0.19196 0.29666,-0.37304 0.44025,-0.56603 z m 132.34636,4.92656 c -0.79369,0.3497 -1.57525,0.69851 -2.36894,1.04821 -1.82235,1.65671 2.14896,5.05013 3.06076,6.98104 2.69822,3.23589 3.90615,7.37544 4.06703,11.53026 0.5997,4.58774 0.74394,9.25337 -0.021,13.8363 -1.59927,5.98741 -2.96368,12.06894 -4.9056,17.96624 -2.68535,5.9335 -7.65047,10.4047 -11.46736,15.57632 0.81814,0.94836 -2.38311,1.41259 -4.04607,1.94966 -6.72526,1.03811 -13.66724,0.98831 -20.35614,-0.31446 -4.98852,-0.64195 -10.02735,-1.79089 -14.33945,-4.50728 -4.98737,-2.88216 -6.92562,-8.67337 -9.4548,-13.50088 -2.30465,-5.74813 -5.2314,-11.36865 -6.03766,-17.58888 -1.51978,-8.36956 0.74333,-17.02267 5.09427,-24.21353 0.11317,-0.91575 3.41093,-4.29314 1.67713,-3.58487 -1.57763,0.48264 -3.04231,1.11044 -3.58486,2.85112 -4.67489,7.21206 -7.67075,15.88202 -6.49887,24.54896 0.44419,5.30085 2.36745,10.29267 4.48631,15.11512 2.10092,5.11256 4.36777,10.28239 7.6519,14.75873 3.15326,3.68226 7.90463,5.57412 12.47364,6.83429 4.27528,0.74888 8.53064,1.64428 12.87196,1.94966 4.93752,0.12041 9.98709,0.28994 14.82162,-0.88049 8.17519,-2.61749 14.01144,-9.67972 17.9243,-17.02285 3.06321,-5.00421 4.0297,-10.84984 5.51356,-16.43585 1.41491,-4.08832 1.86769,-8.41254 1.78195,-12.72521 -0.25963,-3.39851 -0.46021,-6.80599 -1.04821,-10.16759 -0.82883,-5.43046 -5.81061,-8.86858 -7.2955,-14.00402 z m -134.61048,1.94966 c -0.59275,0.35549 -1.20036,0.66403 -1.84485,0.92242 -2.08713,0.70818 0.10723,2.28976 0.0839,3.60583 -0.11696,0.30268 0.13009,0.66731 0.39832,0.96435 -1.14194,-0.32541 -0.75317,-2.3568 -2.26412,-1.82388 -2.13748,0.27692 -2.61065,2.97692 -0.62892,3.89932 1.94294,0.77812 3.7701,-1.14608 5.28295,-2.1593 1.63309,-1.66689 -0.0694,-3.88019 -1.02724,-5.40874 z m 115.11387,26.89694 c -0.71004,-0.0513 -1.41405,-0.0186 -2.11738,0.10482 -4.19195,0.69319 -7.46835,3.69619 -10.39819,6.56177 -2.90012,3.64086 -3.91526,8.64159 -2.91401,13.16545 0.49415,2.53686 1.45713,5.38483 3.83643,6.72948 3.77078,1.09259 7.86827,0.23949 11.29965,-1.53038 3.82898,-2.03742 7.43059,-5.30476 8.4066,-9.68542 0.36243,-3.97103 0.14419,-8.00624 -0.44024,-11.94953 -0.27875,0.22442 -0.72252,0.37717 -1.13206,0.54506 0.0454,-0.41518 -0.36547,-0.88942 -0.92242,-1.21591 -1.42273,-1.63161 -3.48828,-2.57136 -5.61838,-2.72534 z m -4.33957,1.44653 c 0.81477,-0.0942 1.67456,0.093 2.43183,0.46121 1.74489,0.44725 3.34176,1.36494 4.61211,2.64147 0.55866,0.99471 1.34899,0.91691 2.13833,0.54507 -0.0866,0.13634 -0.21135,0.24545 -0.2306,0.41928 0.54529,3.08968 0.66278,6.25569 0.56603,9.39192 0.0935,3.92436 -2.67199,7.20389 -5.63934,9.45481 -2.78646,0.0621 -5.60172,0.89121 -8.36468,0.20964 -1.66657,-1.00848 -2.61398,-2.85278 -3.12365,-4.675 -1.40936,-4.59571 -0.84535,-9.83537 1.97063,-13.79437 1.00602,-1.31412 2.50831,-2.13717 3.52196,-3.45908 0.5393,-0.73839 1.30261,-1.10079 2.11738,-1.19495 z m 0.27253,7.10683 c -1.51594,0.17087 -2.91907,1.45024 -4.10896,2.32701 -1.84461,1.49798 -0.93238,5.28169 1.65616,5.09428 2.04813,-0.67336 4.06083,-1.66418 5.7232,-3.06076 1.28628,-1.23862 -0.80744,-0.81878 -1.36266,-0.2935 -0.71442,0.10712 -2.50684,2.43353 -2.09641,1.57231 -1.63552,-0.34712 -1.39991,-2.29723 -1.82388,-3.52197 -0.40046,-0.29869 1.90761,0.76191 2.05448,1.44652 l 0.27253,-0.20964 0.27254,-0.16771 c 1.50945,-0.24261 2.8996,-2.09519 0.96435,-2.93497 -0.52926,-0.24236 -1.04604,-0.30853 -1.55135,-0.25157 z m -99.87297,23.6475 c -1.05123,0.53563 -2.11435,1.07858 -3.16558,1.61424 -0.35159,6.21726 -1.05381,12.40714 -1.71905,18.59515 -0.99718,5.46761 1.68892,10.60544 2.59954,15.86983 0.8581,5.27762 1.52956,10.60827 1.76099,15.95368 -0.59911,2.69117 1.824,0.37789 3.12365,-0.0629 0.015,-4.83738 -0.75942,-9.6305 -1.32074,-14.4233 -0.42879,-5.53791 -3.10246,-10.63776 -3.2704,-16.20525 0.5054,-7.12179 1.48451,-14.21648 1.99159,-21.34146 z"
     id="path1511"
     sodipodi:nodetypes="ccccccccccccccccccccccccccccccccccccccccccccccccccccccccccccccccccccccccccccccccccccccccccccccccccccccccccccccccccccccccccccccccccccccccccccccsccccccccccccccccccccccccccccccccccccccccccccccccccccccccccccccccccccccccccccccccccccccccccccccccccccccccccccccccccccsccccccccccccccccccccccccccccccccccccccccccccccccccccccccccccccccccccccccssccccccccccccccccccccccccccccccccscccccccccccccccccccccccccccccccccccccccccccccccccccccccccccccccccccccccccccccccccccccccccccccccccccccccccccccccccccccccccccccccccccccccccccccccccccccccccccccccccccccccccccccccccccccccccccccccccccccccc"
     inkscape:connector-curvature="0" />
</svg>
