<?xml version="1.0" encoding="UTF-8" standalone="no"?>
<!-- Created with Inkscape (http://www.inkscape.org/) -->

<svg
   xmlns:dc="http://purl.org/dc/elements/1.1/"
   xmlns:cc="http://creativecommons.org/ns#"
   xmlns:rdf="http://www.w3.org/1999/02/22-rdf-syntax-ns#"
   xmlns:svg="http://www.w3.org/2000/svg"
   xmlns="http://www.w3.org/2000/svg"
   xmlns:xlink="http://www.w3.org/1999/xlink"
   xmlns:sodipodi="http://sodipodi.sourceforge.net/DTD/sodipodi-0.dtd"
   xmlns:inkscape="http://www.inkscape.org/namespaces/inkscape"
   width="400"
   height="400"
   id="svg2"
   sodipodi:version="0.32"
   inkscape:version="0.48.0 r9654"
   sodipodi:docname="nude06.svg"
   version="1.1">
  <defs
     id="defs4">
    <linearGradient
       inkscape:collect="always"
       id="linearGradient10346">
      <stop
         style="stop-color:#ffffff;stop-opacity:1;"
         offset="0"
         id="stop10348" />
      <stop
         style="stop-color:#ffffff;stop-opacity:0;"
         offset="1"
         id="stop10350" />
    </linearGradient>
    <linearGradient
       inkscape:collect="always"
       xlink:href="#linearGradient10346"
       id="linearGradient10352"
       x1="78.111488"
       y1="-47.865879"
       x2="268.79541"
       y2="297.89233"
       gradientUnits="userSpaceOnUse"
       gradientTransform="matrix(0.52916733,0,0,0.52916733,1.6419869,226.92156)" />
    <linearGradient
       inkscape:collect="always"
       xlink:href="#linearGradient10346"
       id="linearGradient10356"
       x1="21.468357"
       y1="155.07111"
       x2="110.99636"
       y2="298.65839"
       gradientUnits="userSpaceOnUse"
       gradientTransform="matrix(0.52916733,0,0,0.52916733,1.6419869,226.92156)" />
    <linearGradient
       inkscape:collect="always"
       xlink:href="#linearGradient10346"
       id="linearGradient10360"
       x1="220.60666"
       y1="189.67264"
       x2="228.64755"
       y2="208.05182"
       gradientUnits="userSpaceOnUse"
       gradientTransform="matrix(0.52916733,0,0,0.52916733,1.6419869,226.92156)" />
    <filter
       inkscape:collect="always"
       id="filter3770">
      <feGaussianBlur
         inkscape:collect="always"
         stdDeviation="9.5143357"
         id="feGaussianBlur3772" />
    </filter>
  </defs>
  <sodipodi:namedview
     id="base"
     pagecolor="#ffffff"
     bordercolor="#666666"
     borderopacity="1.0"
     inkscape:pageopacity="0.0"
     inkscape:pageshadow="2"
     inkscape:zoom="1"
     inkscape:cx="200"
     inkscape:cy="200"
     inkscape:document-units="px"
     inkscape:current-layer="layer1"
     inkscape:window-width="1152"
     inkscape:window-height="791"
     inkscape:window-x="0"
     inkscape:window-y="24"
     fill="#ffcc99"
     showgrid="false"
     inkscape:window-maximized="0" />
  <metadata
     id="metadata7">
    <rdf:RDF>
      <cc:Work
         rdf:about="">
        <dc:format>image/svg+xml</dc:format>
        <dc:type
           rdf:resource="http://purl.org/dc/dcmitype/StillImage" />
      </cc:Work>
    </rdf:RDF>
  </metadata>
  <g
     inkscape:label="Layer 1"
     inkscape:groupmode="layer"
     id="layer1"
     transform="translate(0,-200)">
    <path
       style="fill:#000000;fill-opacity:0.35537187;fill-rule:nonzero;stroke:none;filter:url(#filter3770)"
       d="m 335.90907,251.56756 c -10.50666,3.66222 -21.18401,6.83522 -31.98633,9.50211 -10.28762,8.31362 -21.64524,15.60794 -34.45602,19.27255 -14.90796,6.92663 -25.94898,20.28608 -41.69452,25.70784 -18.71446,9.49787 -29.49516,28.83177 -47.10973,39.8451 -7.79651,4.77573 -4.53617,14.51218 -9.03925,20.92613 1.43849,1.85192 5.73137,-0.66067 1.99295,3.2895 -3.87686,4.97112 -12.6676,7.71639 -11.48356,15.26604 7.60695,7.4827 16.58437,-3.65109 24.99012,-2.5625 7.81108,0.32355 0.86258,11.22512 6.93513,10.62911 2.21399,2.98313 6.01169,2.65295 1.59213,6.44987 -3.25341,5.29315 -17.44905,12.18828 -15.86007,15.50446 4.76537,-5.16292 11.69755,-8.25226 18.79342,-7.10952 9.3577,-1.05675 -3.24681,6.12774 -5.26539,8.62717 -16.87831,13.81359 -34.81333,26.296 -51.29641,40.6008 -11.2927,9.22935 -22.32685,18.78601 -33.98584,27.55826 -24.158361,7.30706 -50.212862,2.21479 -74.275885,9.99609 -8.064047,2.79371 7.688224,6.9274 11.707131,4.65186 9.807148,0.17358 19.659613,0.46833 29.476975,-0.40842 8.98285,-1.082 18.319936,-0.26764 27.024339,-2.87642 14.57693,-5.20311 23.2338,-19.16815 36.48466,-26.54386 23.01169,-15.38773 47.05459,-29.27695 69.19067,-45.93762 9.42738,-6.03013 18.0857,-15.97368 30.35923,-14.81404 7.33581,2.15628 16.66896,0.60768 20.62686,-6.64123 0.63457,-7.21953 4.80548,-12.48898 10.70685,-16.48228 5.78447,-7.40264 16.23916,-9.65157 24.8759,-6.53879 8.32684,1.82062 12.04943,-8.32689 5.34464,-13.14803 -5.31377,-10.7487 9.91495,-8.09175 10.35583,0.50247 4.02956,7.82654 8.80564,15.28494 14.55935,21.95121 2.93011,7.42891 -5.665,13.23555 -9.06135,18.975 -10.52861,9.84132 -27.28598,12.66764 -33.90106,26.59526 -7.89304,12.01149 -15.13599,24.49069 -24.07642,35.77927 10.76224,5.58698 22.55386,-0.80219 33.76876,-0.70432 2.03183,-0.83737 -8.49032,-3.27824 -3.54328,-7.43555 8.33643,-8.4841 20.9116,-11.53367 28.88771,-20.56693 7.9682,-10.44804 15.44733,-21.90111 26.76069,-29.09577 10.83527,8.70188 23.54413,14.93751 36.9611,18.44585 12.08498,4.80745 25.97375,7.8878 38.62172,3.3836 31.22496,3.64683 61.65387,-7.87488 88.85983,-22.09069 23.9089,-11.53231 49.63197,-18.54915 74.67008,-27.12644 10.90325,-3.54645 21.80629,-7.09357 32.71216,-10.63195 -3.31559,13.41984 -11.15105,26.08084 -23.38706,33.02545 -29.4547,17.86624 -55.06077,41.85966 -86.55188,56.38435 1.94263,5.85959 10.76634,5.6971 12.32799,12.18298 7.95374,6.67873 19.04295,6.34093 28.26605,10.29779 7.57351,0.70814 9.93415,6.72467 8.8313,13.51934 0.5151,10.62422 11.63955,10.69441 19.23016,12.6711 6.80981,3.58115 14.33912,2.39555 21.5638,1.30029 6.60743,-0.74057 13.23581,-1.27173 19.84988,-1.94671 -9.50877,-3.96519 -18.93424,-13.71708 -16.88931,-24.76793 4.75344,-10.58571 2.43969,-23.17656 7.99868,-33.61213 6.17076,-9.25659 13.11644,-18.05204 19.55595,-27.15963 9.28246,-12.63737 18.87694,-25.08439 29.54756,-36.59155 34.13579,-15.09532 61.60085,-41.09841 90.118,-64.47614 7.9583,-7.18343 15.89339,-14.91185 20.49446,-24.76202 -0.92452,-9.12639 -12.60078,-7.92701 -19.26108,-8.60684 -6.36268,-1.53641 -4.61369,-10.1773 -12.13673,-7.51066 -17.25209,0.19198 -34.16399,4.31054 -50.41707,9.80559 -21.87664,5.78966 -43.94619,10.90089 -66.19337,15.0084 -29.14869,8.33876 -56.5227,22.61727 -86.66325,27.47347 -23.16483,5.96061 -44.06716,18.05654 -66.62138,25.73591 -6.90697,1.4493 -22.22128,-2.7074 -17.51166,-11.89643 6.68096,-3.35448 10.9246,-9.7738 8.11905,-17.43146 -2.71819,-7.34913 -0.46647,-14.49832 7.39087,-16.49276 7.03713,-4.77305 11.40029,-13.36861 10.57682,-21.89613 -9.02857,-6.47337 -20.18309,-0.6105 -30.1242,-1.08957 -9.4281,1.12975 -18.34093,-5.98507 -16.86766,-15.87445 -4.67608,-4.96582 -15.44368,0.2441 -22.43724,0.17827 -8.50259,2.66451 -19.4489,0.33188 -23.13082,-8.50883 -8.2346,-6.63308 -20.99024,-2.00025 -28.75995,-9.75175 -3.91611,-6.09819 -6.43758,-13.89544 -14.83472,-8.09731 l -1.30631,0.14417 0,0 z"
       id="path9587"
       inkscape:connector-curvature="0"
       transform="matrix(0.52916733,0,0.09016932,0.48172793,-40.374274,250.40069)" />
    <path
       style="fill:#ffcc99;fill-opacity:1;fill-rule:nonzero;stroke:none"
       d="m 67.304556,296.51539 c -4.023836,-0.0497 -5.066582,4.73574 -9.346498,5.13701 -2.286897,3.83091 -11.040374,1.84955 -9.103921,8.93268 -0.883916,6.73283 -9.551297,8.67356 -11.51546,15.1399 -0.678385,6.38648 -4.101782,11.18394 -7.976629,16.09596 -5.154841,7.80699 -1.948941,17.44523 -4.937236,25.78493 -4.635862,6.48317 1.471506,13.31376 3.567367,19.42074 -0.182924,2.95128 0.1647,8.97649 2.468618,4.28084 0.523704,0.034 -3.834043,8.93478 1.04167,11.0731 2.976716,5.44279 12.439269,6.72276 13.770035,-0.64213 6.900727,3.33374 5.634517,12.02793 -1.883567,13.28487 -3.29746,0.1699 -9.506608,4.2083 -2.425809,1.75516 3.76196,-0.89998 10.94663,-6.89126 10.916137,-6.77801 -2.572214,4.50597 -6.721655,7.27972 -10.859061,9.71752 5.933834,0.10008 10.224482,-8.9403 13.941272,-8.87562 1.823569,6.18198 -5.774055,13.47776 1.284247,18.3648 3.108037,3.64138 1.481848,-6.5955 5.650708,-7.32022 2.18963,0.40441 -1.923339,8.8175 -2.725472,12.12904 -4.649675,13.91568 -7.451723,28.38778 -11.358488,42.46593 -4.400225,3.53888 -12.958549,2.75161 -19.149625,3.86702 -6.882708,-0.43229 -12.427553,2.18607 -16.80943,4.46635 -3.580807,0.37217 -4.684884,4.17263 -4.994313,6.29283 4.346803,2.89751 14.472923,0.96271 20.548029,0.55651 7.04903,2.23406 14.349433,-1.25642 21.703857,-0.72775 6.64338,0.0801 9.315279,-6.72632 9.332227,-12.41443 1.07512,-8.63938 6.130049,-16.1891 9.960089,-23.84428 6.070612,-10.3299 7.956115,-22.63153 14.540587,-32.71989 3.288335,2.0418 12.762368,1.74366 12.671284,-0.59931 0.02809,-4.82427 -6.162198,-9.70155 -2.696923,-15.61079 1.863488,-3.38326 -1.902332,-8.72043 4.081063,-5.80767 3.354686,1.13051 14.783376,-0.24647 8.190666,-4.76601 -2.00697,-4.87223 -7.30134,-6.90418 -9.218071,-11.71523 6.012981,4.74944 10.425951,11.19615 16.495501,15.89618 2.33327,4.98459 10.71834,5.80738 8.24776,9.70324 2.71966,9.02381 4.84474,18.32929 4.08106,27.82546 0.18933,10.742 2.64997,21.37512 2.28312,32.16337 -0.57391,5.11732 7.12994,4.45439 10.58794,6.03599 6.45196,0.98174 14.08892,-0.17407 19.2067,-4.35219 4.12575,-2.36259 -2.53536,-4.70755 -4.68039,-5.66498 -4.92244,-0.50339 -9.5404,-1.26446 -8.24774,-7.91954 -1.32869,-8.50746 -1.94213,-17.07258 -1.51257,-25.68505 -0.28203,-4.52868 -0.1849,-7.49049 4.05253,-3.38186 6.79672,4.64859 14.29325,8.18876 22.1462,10.58794 7.68902,2.74157 16.42012,7.82512 24.54349,3.43895 7.96551,0.77935 17.31838,0.80042 24.3437,-4.5377 6.65765,-3.81192 11.2839,-9.9849 15.89619,-15.89618 9.43791,-8.05351 20.16215,-14.44675 30.5652,-21.16162 2.98306,-2.78532 4.99896,-3.97391 4.86588,1.04167 1.65916,7.20625 2.73842,13.74658 -2.6113,19.49209 -5.47628,13.28289 -8.48331,28.00378 -17.92246,39.28383 -2.17542,6.03954 8.3988,5.33371 10.71638,10.41672 6.69037,7.44103 15.84015,11.78227 24.65762,16.1245 4.85723,2.21957 5.42383,10.47914 10.67357,13.29914 5.75262,1.26357 12.24743,2.03955 17.26605,4.73746 3.25034,-0.42317 5.7252,-0.43698 5.82194,-0.12842 5.35322,-2.73442 2.65024,-2.24142 7.83394,-2.73974 6.69857,-0.87421 7.51545,-7.03657 -0.0856,-6.79227 -2.93234,1.4508 -10.51172,-1.77474 -13.0851,-6.06452 -2.57425,-5.62356 -3.50849,-11.96422 -6.26429,-17.59425 -3.4376,-7.37584 -4.45053,-15.44388 -4.90871,-23.47328 -1.66105,-13.34078 -2.37863,-26.78309 -2.24029,-40.22561 4.24571,-5.21974 8.62036,-11.10505 10.67356,-17.70841 3.37778,-12.68376 7.17991,-25.34854 9.13245,-38.34206 0.5061,-7.59045 -1.04821,-17.03111 -8.51887,-20.76207 -5.41038,-1.91977 -14.0002,0.0614 -14.15531,-6.76372 -5.58688,-1.59657 -11.83463,-0.29464 -17.50863,0.39954 -6.02185,2.18031 -10.70208,6.92047 -16.99493,8.53314 -6.38551,3.94861 -13.53297,6.21408 -20.76208,8.10506 -12.00337,4.9178 -19.64432,17.10467 -32.42022,20.63364 -8.90006,3.08911 -15.25653,10.20482 -21.64678,16.75236 -4.49556,5.93751 -11.35878,5.12616 -15.96753,-0.19978 4.32067,-4.51682 -1.60569,-13.54741 -4.78028,-17.93672 -1.58152,-2.99624 -7.88289,-4.38287 -2.38299,-6.76372 2.90219,-7.11343 -0.59827,-15.06159 -4.7232,-20.97611 -3.19739,-4.38336 -11.03535,-4.33351 -16.29572,-2.78256 -7.99709,2.05415 -13.44234,-3.50822 -15.939,-10.44523 -3.74541,-5.53406 -10.94619,-0.50005 -16.33854,-1.4983 -4.34451,1.79655 -6.76358,2.22237 -9.90301,-2.59704 -4.78088,-6.58008 -13.308664,-6.01457 -20.219827,-8.41899 -5.372272,-2.00323 -6.814279,-9.2887 -12.642749,-10.60221 z"
       id="path2997"
       inkscape:connector-curvature="0" />
    <path
       id="path10336"
       d="m 67.304556,296.51539 c -4.023836,-0.0497 -5.066582,4.73574 -9.346498,5.13701 -2.286897,3.83091 -11.040374,1.84955 -9.103921,8.93268 -0.883916,6.73283 -9.551297,8.67356 -11.51546,15.1399 -0.678385,6.38648 -4.101782,11.18394 -7.976629,16.09596 -5.154841,7.80699 -1.948941,17.44523 -4.937236,25.78493 -4.635862,6.48317 1.471506,13.31376 3.567367,19.42074 -0.182924,2.95128 0.1647,8.97649 2.468618,4.28084 0.523704,0.034 -3.834043,8.93478 1.04167,11.0731 2.976716,5.44279 12.439269,6.72276 13.770035,-0.64213 6.900727,3.33374 5.634517,12.02793 -1.883567,13.28487 -3.29746,0.1699 -9.506608,4.2083 -2.425809,1.75516 3.76196,-0.89998 10.94663,-6.89126 10.916137,-6.77801 -2.572214,4.50597 -6.721655,7.27972 -10.859061,9.71752 5.933834,0.10008 10.224482,-8.9403 13.941272,-8.87562 1.823569,6.18198 -5.774055,13.47776 1.284247,18.3648 3.108037,3.64138 1.481848,-6.5955 5.650708,-7.32022 2.18963,0.40441 -1.923339,8.8175 -2.725472,12.12904 -4.649675,13.91568 -7.451723,28.38778 -11.358488,42.46593 -4.400225,3.53888 -12.958549,2.75161 -19.149625,3.86702 -6.882708,-0.43229 -12.427553,2.18607 -16.80943,4.46635 -3.580807,0.37217 -4.684884,4.17263 -4.994313,6.29283 4.346803,2.89751 14.472923,0.96271 20.548029,0.55651 7.04903,2.23406 14.349433,-1.25642 21.703857,-0.72775 6.64338,0.0801 9.315279,-6.72632 9.332227,-12.41443 1.07512,-8.63938 6.130049,-16.1891 9.960089,-23.84428 6.070612,-10.3299 7.956115,-22.63153 14.540587,-32.71989 3.288335,2.0418 12.762368,1.74366 12.671284,-0.59931 0.02809,-4.82427 -6.162198,-9.70155 -2.696923,-15.61079 1.863488,-3.38326 -1.902332,-8.72043 4.081063,-5.80767 3.354686,1.13051 14.783376,-0.24647 8.190666,-4.76601 -2.00697,-4.87223 -7.30134,-6.90418 -9.218071,-11.71523 6.012981,4.74944 10.425951,11.19615 16.495501,15.89618 2.33327,4.98459 10.71834,5.80738 8.24776,9.70324 2.71966,9.02381 4.84474,18.32929 4.08106,27.82546 0.18933,10.742 2.64997,21.37512 2.28312,32.16337 -0.57391,5.11732 7.12994,4.45439 10.58794,6.03599 6.45196,0.98174 14.08892,-0.17407 19.2067,-4.35219 4.12575,-2.36259 -2.53536,-4.70755 -4.68039,-5.66498 -4.92244,-0.50339 -9.5404,-1.26446 -8.24774,-7.91954 -1.32869,-8.50746 -1.94213,-17.07258 -1.51257,-25.68505 -0.28203,-4.52868 -0.1849,-7.49049 4.05253,-3.38186 6.79672,4.64859 14.29325,8.18876 22.1462,10.58794 7.68902,2.74157 16.42012,7.82512 24.54349,3.43895 7.96551,0.77935 17.31838,0.80042 24.3437,-4.5377 6.65765,-3.81192 11.2839,-9.9849 15.89619,-15.89618 9.43791,-8.05351 20.16215,-14.44675 30.5652,-21.16162 2.98306,-2.78532 4.99896,-3.97391 4.86588,1.04167 1.65916,7.20625 2.73842,13.74658 -2.6113,19.49209 -5.47628,13.28289 -8.48331,28.00378 -17.92246,39.28383 -2.17542,6.03954 8.3988,5.33371 10.71638,10.41672 6.69037,7.44103 15.84015,11.78227 24.65762,16.1245 4.85723,2.21957 5.42383,10.47914 10.67357,13.29914 5.75262,1.26357 12.24743,2.03955 17.26605,4.73746 3.25034,-0.42317 5.7252,-0.43698 5.82194,-0.12842 5.35322,-2.73442 2.65024,-2.24142 7.83394,-2.73974 6.69857,-0.87421 7.51545,-7.03657 -0.0856,-6.79227 -2.93234,1.4508 -10.51172,-1.77474 -13.0851,-6.06452 -2.57425,-5.62356 -3.50849,-11.96422 -6.26429,-17.59425 -3.4376,-7.37584 -4.45053,-15.44388 -4.90871,-23.47328 -1.66105,-13.34078 -2.37863,-26.78309 -2.24029,-40.22561 4.24571,-5.21974 8.62036,-11.10505 10.67356,-17.70841 3.37778,-12.68376 7.17991,-25.34854 9.13245,-38.34206 0.5061,-7.59045 -1.04821,-17.03111 -8.51887,-20.76207 -5.41038,-1.91977 -14.0002,0.0614 -14.15531,-6.76372 -5.58688,-1.59657 -11.83463,-0.29464 -17.50863,0.39954 -6.02185,2.18031 -10.70208,6.92047 -16.99493,8.53314 -6.38551,3.94861 -13.53297,6.21408 -20.76208,8.10506 -12.00337,4.9178 -19.64432,17.10467 -32.42022,20.63364 -8.90006,3.08911 -15.25653,10.20482 -21.64678,16.75236 -4.49556,5.93751 -11.35878,5.12616 -15.96753,-0.19978 4.32067,-4.51682 -1.60569,-13.54741 -4.78028,-17.93672 -1.58152,-2.99624 -7.88289,-4.38287 -2.38299,-6.76372 2.90219,-7.11343 -0.59827,-15.06159 -4.7232,-20.97611 -3.19739,-4.38336 -11.03535,-4.33351 -16.29572,-2.78256 -7.99709,2.05415 -13.44234,-3.50822 -15.939,-10.44523 -3.74541,-5.53406 -10.94619,-0.50005 -16.33854,-1.4983 -4.34451,1.79655 -6.76358,2.22237 -9.90301,-2.59704 -4.78088,-6.58008 -13.308664,-6.01457 -20.219827,-8.41899 -5.372272,-2.00323 -6.814279,-9.2887 -12.642749,-10.60221 z"
       style="fill:url(#linearGradient10352);fill-opacity:1;fill-rule:nonzero;stroke:none"
       inkscape:connector-curvature="0" />
    <path
       style="fill:#6a0000;fill-opacity:1;fill-rule:nonzero;stroke:none"
       d="m 44.680556,328.74321 c -1.68683,-0.009 -4.611957,1.45319 -7.4398,2.70776 -1.399481,4.43239 -4.890869,6.58238 -7.878708,10.36997 -5.154841,7.80699 -1.948941,17.44523 -4.937236,25.78493 -4.635862,6.48317 1.471506,13.31376 3.567367,19.42074 -0.182924,2.95128 0.1647,8.97649 2.468618,4.28084 0.523704,0.034 -3.834043,8.93478 1.04167,11.0731 2.976716,5.44279 12.439269,6.72276 13.770035,-0.64213 6.900727,3.33374 5.634517,12.02793 -1.883567,13.28487 -3.29746,0.1699 -9.506608,4.2083 -2.425809,1.75516 3.76196,-0.89998 10.94663,-6.89126 10.916137,-6.77801 -2.572214,4.50597 -6.721655,7.27972 -10.859061,9.71752 5.933834,0.10008 10.224482,-8.9403 13.941272,-8.87562 1.823569,6.18198 -5.774055,13.47776 1.284247,18.3648 0.38218,0.44777 0.697463,0.67046 0.956051,0.74201 l 1.21291,-1.75513 c 0.579829,-2.25213 1.044465,-5.88341 3.481747,-6.3071 0.273706,0.0505 0.446718,0.22421 0.542237,0.49943 l 1.284252,-1.86931 0.913248,-12.78544 0.913242,-23.74439 -2.283109,-23.74439 0.371,-15.79629 c -5.512008,-2.03783 -9.506062,-3.38317 -10.416704,-3.83849 -3.652983,-1.8265 -4.566231,-11.41557 -8.675835,-12.78544 -0.25685,-0.0856 0.481948,0.92228 0.135796,0.92061 z m 42.786756,43.82843 -3.652985,17.35167 c 0,0 -0.913248,15.52517 0.913242,18.26491 1.826496,2.73974 -4.109597,15.9818 -4.109597,15.9818 0,0 0.252867,1.14858 0.285385,1.3128 0.639599,-1.19302 1.294533,-2.38158 2.040533,-3.52457 3.288335,2.0418 12.762368,1.74366 12.671284,-0.59931 0.02809,-4.82427 -6.162198,-9.70155 -2.696923,-15.61079 1.863488,-3.38326 -1.902332,-8.72043 4.081063,-5.80767 2.073156,0.69863 7.208116,0.439 9.289426,-0.92753 l -8.31911,-12.34308 c -0.009,-0.0102 -0.0199,-0.0183 -0.0286,-0.0286 -0.54761,-0.64785 -1.014012,-1.3688 -1.426947,-2.12615 l -2.19749,-3.2677 -6.849348,-8.67583 z m 28.182198,29.19532 -1.14157,0.0713 c 0.38923,0.33654 0.76259,0.68425 1.18438,0.98459 -0.007,-0.35845 -0.0348,-0.69883 -0.0428,-1.05594 z"
       id="path3770"
       sodipodi:nodetypes="cccccccccccccccccccccccsscccsccccccccsccccccc"
       inkscape:connector-curvature="0" />
    <path
       style="fill:#6a2600;fill-opacity:1;fill-rule:evenodd;stroke:none"
       d="m 124.04631,332.60535 c 0,0 4.98295,2.36035 5.24521,3.93391 0.26226,1.57356 -2.36034,5.76975 -3.67165,4.7207 -1.3113,-1.04905 -4.98296,-5.50748 -1.57356,-8.65461 z"
       id="path4509"
       inkscape:connector-curvature="0" />
    <path
       sodipodi:nodetypes="cccccccccccccccccccccccsscccsccccccccsccccccc"
       id="path10354"
       d="m 44.680556,328.74321 c -1.68683,-0.009 -4.611957,1.45319 -7.4398,2.70776 -1.399481,4.43239 -4.890869,6.58238 -7.878708,10.36997 -5.154841,7.80699 -1.948941,17.44523 -4.937236,25.78493 -4.635862,6.48317 1.471506,13.31376 3.567367,19.42074 -0.182924,2.95128 0.1647,8.97649 2.468618,4.28084 0.523704,0.034 -3.834043,8.93478 1.04167,11.0731 2.976716,5.44279 12.439269,6.72276 13.770035,-0.64213 6.900727,3.33374 5.634517,12.02793 -1.883567,13.28487 -3.29746,0.1699 -9.506608,4.2083 -2.425809,1.75516 3.76196,-0.89998 10.94663,-6.89126 10.916137,-6.77801 -2.572214,4.50597 -6.721655,7.27972 -10.859061,9.71752 5.933834,0.10008 10.224482,-8.9403 13.941272,-8.87562 1.823569,6.18198 -5.774055,13.47776 1.284247,18.3648 0.38218,0.44777 0.697463,0.67046 0.956051,0.74201 l 1.21291,-1.75513 c 0.579829,-2.25213 1.044465,-5.88341 3.481747,-6.3071 0.273706,0.0505 0.446718,0.22421 0.542237,0.49943 l 1.284252,-1.86931 0.913248,-12.78544 0.913242,-23.74439 -2.283109,-23.74439 0.371,-15.79629 c -5.512008,-2.03783 -9.506062,-3.38317 -10.416704,-3.83849 -3.652983,-1.8265 -4.566231,-11.41557 -8.675835,-12.78544 -0.25685,-0.0856 0.481948,0.92228 0.135796,0.92061 z m 42.786756,43.82843 -3.652985,17.35167 c 0,0 -0.913248,15.52517 0.913242,18.26491 1.826496,2.73974 -4.109597,15.9818 -4.109597,15.9818 0,0 0.252867,1.14858 0.285385,1.3128 0.639599,-1.19302 1.294533,-2.38158 2.040533,-3.52457 3.288335,2.0418 12.762368,1.74366 12.671284,-0.59931 0.02809,-4.82427 -6.162198,-9.70155 -2.696923,-15.61079 1.863488,-3.38326 -1.902332,-8.72043 4.081063,-5.80767 2.073156,0.69863 7.208116,0.439 9.289426,-0.92753 l -8.31911,-12.34308 c -0.009,-0.0102 -0.0199,-0.0183 -0.0286,-0.0286 -0.54761,-0.64785 -1.014012,-1.3688 -1.426947,-2.12615 l -2.19749,-3.2677 -6.849348,-8.67583 z m 28.182198,29.19532 -1.14157,0.0713 c 0.38923,0.33654 0.76259,0.68425 1.18438,0.98459 -0.007,-0.35845 -0.0348,-0.69883 -0.0428,-1.05594 z"
       style="fill:url(#linearGradient10356);fill-opacity:1;fill-rule:nonzero;stroke:none"
       inkscape:connector-curvature="0" />
    <path
       style="fill:#000000;fill-opacity:1;fill-rule:nonzero;stroke:none"
       d="m 67.304556,296.51539 c -4.023836,-0.0497 -5.069661,4.73226 -9.349583,5.13353 -2.286891,3.83091 -11.033795,1.85669 -9.097343,8.93983 -0.883921,6.73282 -9.558228,8.66801 -11.522386,15.13436 -0.678386,6.38647 -4.097057,11.18219 -7.971904,16.09421 -5.154839,7.80699 -1.944178,17.45512 -4.932473,25.79482 -4.635862,6.48319 1.467568,13.30203 3.563428,19.40899 -0.182921,2.95129 0.169291,8.98902 2.473207,4.29336 0.523706,0.0341 -3.847221,8.92758 1.028493,11.06589 2.976713,5.44279 12.445741,6.72293 13.776507,-0.64196 6.900727,3.33374 5.632372,12.026 -1.885718,13.28295 -3.297453,0.16989 -9.500936,4.21598 -2.420138,1.76283 3.76196,-0.89998 10.942352,-6.89575 10.911859,-6.78249 -2.572215,4.50596 -6.720897,7.27845 -10.858303,9.71625 5.933834,0.10008 10.226941,-8.94336 13.943721,-8.87867 1.82358,6.18198 -5.776504,13.48081 1.281798,18.36785 3.108037,3.64138 1.477313,-6.59234 5.646172,-7.31707 2.189631,0.40443 -1.924539,8.81283 -2.726666,12.12437 -4.649682,13.91568 -7.441735,28.38649 -11.348501,42.46463 -4.400224,3.53889 -12.962806,2.75443 -19.153882,3.86984 -6.882708,-0.43229 -12.427553,2.18607 -16.80943,4.46635 -3.580807,0.37217 -4.684884,4.17263 -4.994313,6.29283 4.346803,2.89751 14.472923,0.96271 20.548029,0.55651 7.04903,2.23406 14.351473,-1.25113 21.705904,-0.72245 6.643386,0.0801 9.314375,-6.73168 9.331329,-12.4198 1.075119,-8.63938 6.127779,-16.19446 9.957818,-23.84964 6.070608,-10.32989 7.957237,-22.6261 14.541709,-32.71446 3.288335,2.0418 12.768099,1.74837 12.677014,-0.59461 0.02809,-4.82427 -6.167928,-9.70625 -2.702653,-15.61549 1.863488,-3.38326 -1.897538,-8.72049 4.085859,-5.80775 3.35469,1.13051 14.77941,-0.25093 8.1867,-4.77047 -2.00696,-4.87223 -7.30217,-6.89964 -9.218901,-11.71069 6.012981,4.74944 10.424271,11.19246 16.493831,15.8925 2.33327,4.98459 10.72001,5.81106 8.24943,9.70692 2.71966,9.02381 4.84547,18.33637 4.0818,27.83254 0.18932,10.742 2.6527,21.36228 2.28585,32.15053 -0.57391,5.11732 7.12298,4.46494 10.58097,6.04654 6.45196,0.98175 14.09062,-0.17252 19.2084,-4.35062 4.12576,-2.36259 -2.53159,-4.71889 -4.67661,-5.67631 -4.92244,-0.50339 -9.54238,-1.25949 -8.24972,-7.91457 -1.32869,-8.50746 -1.94284,-17.07697 -1.51327,-25.68943 -0.28204,-4.52869 -0.17861,-7.48365 4.05882,-3.37501 6.79672,4.64858 14.28736,8.18602 22.14032,10.58521 7.68901,2.74157 16.41771,7.82962 24.54107,3.44343 7.96552,0.77935 17.32068,0.79266 24.346,-4.54545 6.65766,-3.81194 11.28447,-9.98667 15.89675,-15.89796 9.43793,-8.05351 20.1596,-14.43518 30.56266,-21.15006 2.98305,-2.78533 4.99756,-3.98078 4.86449,1.03481 1.65915,7.20624 2.74584,13.74456 -2.60389,19.49006 -5.47629,13.28289 -8.48763,28.00678 -17.92678,39.28684 -2.17543,6.03953 8.39641,5.32625 10.71398,10.40926 6.69039,7.44102 15.84824,11.79082 24.66572,16.13304 4.85724,2.21958 5.42062,10.48014 10.67036,13.30014 5.75264,1.26357 12.24713,2.03619 17.26575,4.73409 3.25035,-0.42317 5.72828,-0.44162 5.82502,-0.13306 5.35321,-2.7344 2.64186,-2.24027 7.82557,-2.73859 6.69858,-0.8742 7.52396,-7.03918 -0.0771,-6.79488 -2.93235,1.4508 -10.51936,-1.77476 -13.09274,-6.06455 -2.57427,-5.62355 -3.50241,-11.9585 -6.25822,-17.58853 -3.43759,-7.37585 -4.44758,-15.43991 -4.90575,-23.46931 -1.66105,-13.34078 -2.38474,-26.78573 -2.2464,-40.22825 4.24571,-5.21974 8.6173,-11.10079 10.67049,-17.70415 3.37778,-12.68376 7.17695,-25.35032 9.1295,-38.34383 0.5061,-7.59045 -1.04735,-17.03646 -8.51801,-20.76741 -5.41037,-1.91977 -13.99849,0.0641 -14.15361,-6.76092 -5.58687,-1.59656 -11.83531,-0.29367 -17.50932,0.40052 -6.02184,2.1803 -10.70331,6.91387 -16.99617,8.52654 -6.3855,3.9486 -13.52774,6.22684 -20.75683,8.11782 -12.00337,4.91779 -19.64535,17.09794 -32.42125,20.62691 -8.90005,3.08911 -15.25476,10.20175 -21.64502,16.74929 -4.49556,5.93752 -11.35937,5.12887 -15.96812,-0.19707 4.32067,-4.51682 -1.60354,-13.55275 -4.77813,-17.94207 -1.58152,-2.99624 -7.87993,-4.37665 -2.38004,-6.7575 2.90219,-7.11343 -0.6087,-15.05553 -4.73362,-20.97007 -3.19739,-4.38336 -11.03049,-4.33545 -16.29088,-2.78449 -7.99707,2.05415 -13.44186,-3.5132 -15.93852,-10.45021 -3.74541,-5.53406 -10.94161,-0.50321 -16.33396,-1.50147 -4.34452,1.79656 -6.76872,2.22284 -9.90814,-2.59657 -4.780888,-6.58007 -13.306616,-6.01681 -20.217785,-8.42122 -5.372271,-2.00323 -6.815771,-9.28377 -12.644241,-10.59728 z m -2.15469,1.58391 c 7.051461,2.23464 9.178322,12.19168 17.729264,11.92336 5.640828,0.008 16.81854,5.10106 15.2332,8.96714 -4.760397,-1.02765 -8.806225,3.36367 -12.843343,0.88707 -6.792942,-3.57703 -13.563738,1.08327 -18.335436,5.56273 -2.366214,5.00614 -2.727598,10.79573 -4.280901,16.0466 -1.489483,13.99619 -1.040877,28.23166 1.452491,42.06512 0.966678,10.70148 -0.02603,21.4496 -0.484754,32.15696 1.744664,6.54486 -6.197958,4.3271 -7.231971,9.96004 -3.855504,-5.56588 4.638098,-11.64646 0.381773,-16.10402 -3.16726,0.0364 1.003814,-6.00222 -3.898424,-3.22979 -2.207845,-3.28619 -6.398511,-8.26604 -11.468753,-7.75688 -5.422956,2.425 7.188725,1.55534 1.109014,5.0376 -2.398511,5.6586 -10.474314,-2.68308 -10.997834,-6.58626 1.498085,-2.70981 5.693651,-11.95166 -0.58883,-8.35971 -0.550228,-5.31409 -6.540235,-11.48801 -5.809237,-17.99434 4.486695,-7.70749 1.593843,-16.93243 4.517042,-25.02976 2.172932,-6.20764 6.504831,-11.8066 11.499944,-15.76135 2.071791,0.35172 10.804845,-4.06945 5.038367,-1.83291 -1.406504,-3.42583 -10.962342,7.52135 -7.213007,-0.68607 0.690416,-7.01579 8.191313,-9.28346 11.358296,-14.51653 1.547926,-3.7637 -0.279517,-8.47026 5.43814,-7.73115 2.525705,-3.50282 7.460645,-3.12828 9.394959,-7.01785 z m 1.783685,27.3403 c 1.161602,-1.18243 -1.746892,1.04069 0,0 z m 0.271119,-0.35674 c 1.759127,-0.91097 1.059827,-1.31632 0,0 z M 55.77483,304.2637 c -1.016477,1.00876 -2.424869,1.39516 0,0 z m 64.48371,14.2552 c 5.9375,1.55818 7.47061,12.96493 12.44298,13.31341 5.16643,0.071 10.93404,-1.07852 16.31,-1.09874 7.41313,0.30636 10.05964,7.17295 12.25154,13.48865 1.79967,3.94486 0.65292,14.9587 -3.77603,9.08164 -4.51119,3.162 6.68062,6.54821 7.46054,10.55312 2.52984,2.98194 6.05101,11.98705 3.75285,12.9936 -1.98409,-1.81865 -5.45499,-8.47529 -6.44575,-3.89012 3.21552,4.87409 7.80483,9.2361 13.24097,11.45483 -3.84721,-0.10568 -8.19002,3.42552 -1.76929,1.74258 6.04407,-1.33815 11.38925,-5.26546 16.07377,-9.24651 5.61856,-5.62558 10.92957,-12.47884 19.11717,-14.30592 10.88294,-3.99545 18.94449,-12.79578 28.30377,-19.17833 7.63607,-2.19016 15.28736,-4.37796 22.15007,-8.55186 7.27363,-1.64826 12.46559,-7.8624 19.74937,-9.20734 5.19415,0.78835 13.60254,-3.13003 15.37457,2.35669 5.76376,7.13704 9.07694,16.51694 6.964,25.67828 -5.33703,27.09191 -5.60767,54.8928 -4.18189,82.37307 1.1273,9.94115 1.61933,20.02277 3.74674,29.80274 2.57161,7.63736 6.00463,14.97282 7.78381,22.86938 -0.23123,4.87859 8.23128,8.2871 8.14829,8.92659 1.20858,1.60349 3.9204,6.88205 -1.09165,5.37696 -4.87406,0.93649 -9.49492,-3.80679 -14.87017,-3.52348 -7.49811,0.45324 -9.204,-7.85065 -12.88625,-12.60985 -2.66407,-5.29995 -8.46352,-7.94231 -10.37159,-10.85022 -4.77877,-6.02415 -3.97634,-14.27762 -1.93114,-21.17559 1.02588,-12.18454 -1.59561,-24.31854 -2.25619,-36.47664 -0.99853,-10.19146 -2.82473,-20.28117 -4.30551,-30.394 -0.90932,-11.15501 -1.15867,-24.22641 7.25139,-32.80187 -7.1853,3.13902 -8.52255,11.82673 -9.79063,18.68358 -2.0817,4.21235 -6.26917,8.69595 -10.01794,12.3233 -9.41105,8.6686 -18.08323,18.15793 -27.58555,26.69463 -5.97245,3.65621 -13.50697,5.01439 -17.85301,11.00097 -5.63962,5.89901 -11.68022,11.40622 -17.5443,17.08554 -7.28015,3.4026 -15.13575,-0.93109 -21.83076,-3.61703 -12.26559,-2.93571 -23.01008,-10.10172 -33.07164,-17.4469 -5.89097,-5.57785 -10.45541,-12.72386 -17.97085,-16.36519 -4.88271,-4.23183 -9.78328,-8.65624 -14.28464,-13.35591 -5.47516,-6.51707 -12.976556,-11.12653 -17.751216,-18.27917 1.96693,-8.05721 4.325696,-16.21029 3.49698,-24.62073 0.381313,-2.87355 -1.311514,-10.11052 -2.634401,-3.94296 0.02079,6.9595 1.230013,14.07886 -1.231303,20.80802 -2.764095,11.78971 -5.348316,23.80903 -5.308385,35.95633 0.48103,6.53458 0.904634,13.31789 -0.882238,19.69863 -6.33899,10.02522 -9.620648,21.53146 -14.270452,32.34671 -4.303151,8.07702 -9.021313,16.10527 -11.597193,24.9424 0.190616,6.86495 -2.308401,14.74143 -10.818102,12.69875 -4.718523,-0.80321 -13.063598,3.10816 -15.216908,-0.0356 2.728714,-4.51216 12.241449,-5.21791 13.583034,-7.2097 -3.637517,2.07431 1.967095,-1.39246 -3.055531,0.61555 -6.531327,0.5626 -10.139694,7.20669 -16.538545,7.38966 -5.628717,0.98394 -11.236537,0.25397 -16.848642,-0.12485 3.824569,-3.09353 9.647672,-2.12927 14.227336,-3.85796 2.88445,0.35556 12.956511,-4.67637 4.671768,-2.18482 -5.365057,1.21153 -14.848119,3.08995 -17.775739,3.82885 4.072113,-5.11492 11.568942,-6.30024 17.897832,-6.31921 7.284035,-0.93948 15.071594,-0.80074 21.775445,-4.09095 5.044516,-4.34664 3.610032,-14.17001 6.529309,-20.81544 2.531954,-11.59515 6.532464,-22.77844 9.856026,-34.14001 2.468111,-10.74692 1.720758,-21.85256 2.238998,-32.77862 0.04026,-9.58089 -2.924036,-18.87066 -2.558599,-28.49446 -0.256101,-11.01486 -0.305324,-22.30566 3.670082,-32.75924 0.141415,-5.47759 7.102829,-10.17423 12.665599,-8.27125 6.441353,1.91258 12.441278,5.88094 19.440225,5.49383 6.81848,0.31839 14.10459,1.68498 20.59194,-0.78891 4.08078,-2.77307 -5.9016,0.85875 -7.61813,-0.13034 -8.25047,-0.60546 -16.961199,-0.007 -24.532993,-3.92733 6.480803,-1.66811 12.929223,0.83085 18.954203,-1.07705 3.95629,-1.12598 8.56165,-0.9041 12.75255,-1.63416 z m 12.44298,13.31341 c -0.8427,0.46778 -1.24844,1.13581 0,0 z m -0.0856,0.18551 c 2.62767,6.17376 11.13495,9.77746 12.78993,17.40019 2.65806,7.72009 5.75838,15.28494 7.87551,23.17985 0.067,3.58141 8.04227,10.50128 6.76463,5.19051 -6.04014,-5.33193 -5.68807,-14.07461 -9.17537,-20.8613 -2.52774,-7.55783 -5.17756,-15.49218 -11.5071,-20.81407 -1.8005,-1.71321 -3.72487,-5.38297 -6.7476,-4.09518 z m -70.862169,-7.49147 c -5.705815,1.67055 3.107714,11.44954 -4.651846,12.87105 -2.962977,-0.0901 -4.090234,-5.72389 -5.89329,-1.52683 4.580007,8.4633 15.942368,-3.36733 10.975196,-10.04863 l -0.43006,-1.29559 z m -3.381861,3.68152 c -4.139788,0.79013 -0.145203,4.63885 -4.694657,5.76486 1.524516,-1.2529 6.907339,-1.52865 4.694657,-5.76486 z m 241.46789,3.36759 c 6.60207,-1.19566 12.73191,2.84511 14.88445,9.03383 3.97132,11.49777 -1.00502,23.27273 -3.344,34.56259 -2.79915,9.3522 -4.0202,19.5809 -10.38189,27.39644 -4.14712,7.98453 -1.51665,-5.94078 -1.94605,-9.46988 0.33901,-13.25232 2.05432,-26.3909 4.4613,-39.41336 1.11826,-6.17354 1.5328,-12.75294 -1.69496,-18.41096 -0.60001,-1.26364 -1.26812,-2.49412 -1.97885,-3.69866 z m -173.78782,0.85617 c -9.74951,-0.16133 -3.624,14.13269 3.05736,7.90364 6.75722,-3.29198 -4.61301,-8.64415 -3.0576,-4.69855 5.56766,1.70404 0.14384,8.09625 -2.23758,2.29222 -2.60728,-2.22932 0.34071,-4.18215 2.23782,-5.49731 z m -21.54689,8.6473 c -6.55066,3.17406 -1.30181,12.9978 0.98459,17.80829 3.08766,6.677 10.85929,8.6204 17.60631,7.51024 8.33946,-1.33882 12.67009,-9.22277 17.54176,-15.17576 2.13039,-6.30039 -3.40312,1.44884 -4.36883,3.31334 -2.42446,3.42058 -6.29412,8.92774 -9.09241,9.94821 1.45018,-0.73457 -6.20089,1.46244 -8.55884,0.3517 -8.39464,-0.0179 -11.93712,-8.87809 -14.3032,-15.46998 -0.68929,-2.74334 -0.31265,-5.55091 0.19062,-8.28604 z m -16.338541,33.88998 c 2.368225,3.92595 7.131626,5.92071 5.252931,9.47581 2.942356,5.33186 8.04469,8.95144 11.54223,14.026 -4.61608,1.92733 -12.337886,-3.68039 -14.32677,0.22716 1.712897,4.88347 -1.786003,10.93739 -0.655601,16.46161 2.567207,2.99981 5.888,8.12693 -0.923688,6.45972 -3.373315,-1.4582 -7.748031,0.80155 -4.131267,-3.98892 1.749093,-7.75281 0.665348,-15.74859 0.590275,-23.58625 0.285587,-6.42552 1.382534,-12.78064 2.65189,-19.07513 z m 178.311241,1.98346 c -0.12301,6.80586 0.19008,13.6639 1.61246,20.33399 -7.71701,4.76186 -15.37704,9.856 -23.03093,14.8117 -6.37506,4.95178 -13.93918,8.74726 -18.25504,15.88708 -5.74788,7.69047 -14.66429,14.02974 -24.71197,13.06039 -3.63075,-0.057 -8.14142,-0.80079 -3.11396,-3.74535 6.50171,-5.90108 12.43497,-12.38142 18.85483,-18.35277 3.64765,-1.5705 9.99627,-3.9256 13.83992,-7.20935 8.48534,-7.27718 15.73486,-15.87665 24.10159,-23.30193 3.78474,-3.63255 7.62465,-7.21582 10.7031,-11.48376 z M 123.5691,408.14542 c 6.33499,5.04921 10.47309,12.54293 17.72267,16.50977 -2.59661,3.50649 -0.57958,10.69199 -1.29777,15.6182 -0.39146,8.09777 1.98029,16.38519 2.01124,24.20788 2.03067,2.45743 10.01301,0.0757 6.49653,2.29146 3.24143,-1.68439 -1.15446,0.31021 3.76265,0.65442 8.04971,4.58032 -2.52342,6.12697 -8.45294,6.52581 -4.57162,-0.54881 -11.65876,-2.37289 -14.31645,-4.49879 0.35465,-10.78263 -1.77876,-21.4207 -2.3332,-32.13792 0.61556,-9.12857 -0.91511,-18.13921 -3.27881,-26.93054 l -0.0682,-1.08879 -0.24574,-1.1515 z m 147.30369,7.70551 c 0.94868,12.845 3.43252,25.69481 2.72109,38.59087 -1.47317,7.06693 -3.60894,15.11787 0.97643,21.55993 0.90181,3.05227 8.24717,6.45934 6.63809,7.17622 -8.26923,-3.75151 -15.67988,-9.14545 -21.96597,-15.66748 -2.57018,-4.05987 -13.45118,-4.00273 -7.05328,-10.10543 9.26642,-11.95387 11.12429,-27.50854 18.09375,-40.61109 l 0.58989,-0.94302 z m 41.73818,80.77943 c -2.38936,1.74607 -0.53716,0.39255 0,0 z m -1.11301,0.81337 c -0.85307,0.57945 -2.03137,1.53645 0,0 z m -0.1427,0.1855 c -1.53667,4.56544 7.37437,7.49678 3.59677,1.46528 -0.71983,-1.17783 -2.20114,-2.19673 -3.59677,-1.46528 z m 9.98862,-0.77055 c 1.98334,5.58638 -2.58428,1.41184 -0.93447,0.13445 l 0.93447,-0.13445 z m 3.05367,0.31393 c 3.48137,-0.004 6.75677,2.91458 1.23855,2.63885 -1.94573,1.11608 -0.20965,-2.16406 -1.23855,-2.63885 z"
       id="path1320"
       inkscape:connector-curvature="0" />
    <path
       id="path10358"
       d="m 124.04631,332.60535 c 0,0 4.98295,2.36035 5.24521,3.93391 0.26226,1.57356 -2.36034,5.76975 -3.67165,4.7207 -1.3113,-1.04905 -4.98296,-5.50748 -1.57356,-8.65461 z"
       style="fill:url(#linearGradient10360);fill-opacity:1;fill-rule:evenodd;stroke:none"
       inkscape:connector-curvature="0" />
  </g>
</svg>
