<?xml version="1.0" encoding="UTF-8" standalone="no"?>
<!-- Created with Inkscape (http://www.inkscape.org/) -->

<svg
   xmlns:dc="http://purl.org/dc/elements/1.1/"
   xmlns:cc="http://creativecommons.org/ns#"
   xmlns:rdf="http://www.w3.org/1999/02/22-rdf-syntax-ns#"
   xmlns:svg="http://www.w3.org/2000/svg"
   xmlns="http://www.w3.org/2000/svg"
   xmlns:xlink="http://www.w3.org/1999/xlink"
   xmlns:sodipodi="http://sodipodi.sourceforge.net/DTD/sodipodi-0.dtd"
   xmlns:inkscape="http://www.inkscape.org/namespaces/inkscape"
   width="400"
   height="400"
   id="svg1"
   sodipodi:version="0.32"
   inkscape:version="0.48.0 r9654"
   sodipodi:docname="bt_001.svg"
   version="1.1">
  <defs
     id="defs3">
    <linearGradient
       id="linearGradient3887">
      <stop
         style="stop-color:#ffffff;stop-opacity:0.44444445;"
         offset="0"
         id="stop3889" />
      <stop
         style="stop-color:#ffffff;stop-opacity:0;"
         offset="1"
         id="stop3891" />
    </linearGradient>
    <linearGradient
       inkscape:collect="always"
       xlink:href="#linearGradient3887"
       id="linearGradient3893"
       x1="132"
       y1="-26"
       x2="222"
       y2="195"
       gradientUnits="userSpaceOnUse" />
    <linearGradient
       inkscape:collect="always"
       xlink:href="#linearGradient3887"
       id="linearGradient3913"
       x1="121"
       y1="212.8125"
       x2="127.75"
       y2="223.1875"
       gradientUnits="userSpaceOnUse"
       gradientTransform="matrix(0.77081807,0,0,0.77081807,67.331461,-0.97184279)" />
    <linearGradient
       inkscape:collect="always"
       xlink:href="#linearGradient3887"
       id="linearGradient3915"
       x1="217.625"
       y1="222.125"
       x2="225.25"
       y2="238.625"
       gradientUnits="userSpaceOnUse"
       gradientTransform="matrix(0.77081807,0,0,0.77081807,67.331461,-0.97184279)" />
    <linearGradient
       inkscape:collect="always"
       xlink:href="#linearGradient3887"
       id="linearGradient3921"
       x1="178.75"
       y1="105.8125"
       x2="187.25"
       y2="112.6875"
       gradientUnits="userSpaceOnUse"
       gradientTransform="matrix(0.77081807,0,0,0.77081807,67.331461,-0.97184279)" />
    <linearGradient
       inkscape:collect="always"
       xlink:href="#linearGradient3887"
       id="linearGradient3935"
       x1="157.07246"
       y1="85.125"
       x2="162.125"
       y2="89.25"
       gradientUnits="userSpaceOnUse"
       gradientTransform="matrix(0.77081807,0,0,0.77081807,67.331461,-0.97184279)" />
    <linearGradient
       inkscape:collect="always"
       xlink:href="#linearGradient3887"
       id="linearGradient3937"
       x1="183.60887"
       y1="74.5625"
       x2="188.75"
       y2="78.9375"
       gradientUnits="userSpaceOnUse"
       gradientTransform="matrix(0.77081807,0,0,0.77081807,67.331461,-0.97184279)" />
    <linearGradient
       inkscape:collect="always"
       xlink:href="#linearGradient3887"
       id="linearGradient3949"
       x1="47.376156"
       y1="-59.777309"
       x2="144.24979"
       y2="36.389214"
       gradientUnits="userSpaceOnUse"
       gradientTransform="matrix(0.77081807,0,0,0.77081807,67.331461,-0.97184279)" />
    <linearGradient
       inkscape:collect="always"
       xlink:href="#linearGradient3887"
       id="linearGradient3951"
       gradientUnits="userSpaceOnUse"
       x1="132"
       y1="-26"
       x2="222"
       y2="195"
       gradientTransform="matrix(0.77081807,0,0,0.77081807,67.331461,-0.97184279)" />
  </defs>
  <sodipodi:namedview
     id="base"
     pagecolor="#ffffff"
     bordercolor="#666666"
     borderopacity="1.0"
     inkscape:pageopacity="0.0"
     inkscape:pageshadow="2"
     inkscape:zoom="1.0857143"
     inkscape:cx="166.25"
     inkscape:cy="262.5"
     inkscape:current-layer="svg1"
     inkscape:window-width="1152"
     inkscape:window-height="793"
     inkscape:window-x="0"
     inkscape:window-y="25"
     showgrid="false"
     inkscape:window-maximized="0"
     showguides="true"
     inkscape:guide-bbox="true" />
  <metadata
     id="metadata4">
    <rdf:RDF>
      <cc:Work
         rdf:about="">
        <dc:format>image/svg+xml</dc:format>
        <dc:type
           rdf:resource="http://purl.org/dc/dcmitype/StillImage" />
      </cc:Work>
    </rdf:RDF>
  </metadata>
  <path
     style="color:#000000;fill:#f5dccc;fill-opacity:1;stroke:none;stroke-width:1px;marker:none;visibility:visible;display:inline;overflow:visible;enable-background:accumulate"
     d="m 189.07254,21.76729 -1.08396,1.49346 0,3.011009 c 0,0 1.09223,9.194083 1.22849,9.466609 0.13628,0.272526 0.0722,4.280118 0.0722,4.552644 0,0.272525 -1.44528,4.022707 -1.44528,4.022707 l -4.69718,1.300755 -4.76943,2.794216 -1.68616,1.421196 c 0,0 -1.50174,4.493487 -1.638,5.106669 -0.13626,0.613182 0.33725,5.588431 0.33725,5.588431 l 1.63798,6.96145 c 0,0 1.35306,5.637316 1.4212,6.046105 0.0682,0.408788 5.17893,7.852709 5.17893,7.852709 0,0 3.75774,4.015153 3.75774,4.287676 0,0.27253 6.81692,5.997928 6.81692,5.997928 0,0 -1.10392,1.967667 -1.03578,2.24019 0.0682,0.27253 -10.62284,20.643476 -10.62284,20.643476 l -2.52925,9.8761 -2.72195,8.71988 -1.63799,4.16725 -5.37164,10.83962 -1.49346,1.08397 -4.09497,3.05918 -3.01101,2.11974 c 0,0 -0.66419,0.88028 -1.68617,1.49347 -1.02196,0.61317 -1.85477,-4.02271 -1.85477,-4.02271 l -2.45695,-13.56158 -3.56503,-8.2622 -3.13145,-5.20303 c 0,0 -5.10667,-8.91258 -5.25119,-9.82793 -0.14453,-0.91535 -0.86718,-2.07157 -0.86718,-2.07157 l 0.33723,-0.48176 1.8307,-0.57812 1.05988,0.96352 6.60012,5.15485 1.44528,-0.1927 -0.43357,-1.78252 -1.34894,-3.27597 -2.26428,-3.8541 4.52855,2.64969 1.49347,-0.72264 0.14453,-2.60151 -1.54164,-1.58982 -6.16655,-3.75774 -7.56365,-4.191321 -2.11975,0.578113 -1.83069,1.830698 c -0.48176,0.48176 -1.25258,-1.637993 -1.25258,-1.637993 l -0.38541,-1.878869 1.0117,-1.397108 1.78252,-0.289057 5.73296,1.734341 4.38403,0.289057 0.67446,-1.49346 -1.05988,-1.975222 -7.56365,-4.624909 c 0,0 -3.99862,-0.192704 -4.48038,-0.24088 -0.48176,-0.04817 1.34894,-1.300755 1.34894,-1.300755 l 1.54163,-1.348932 1.05988,-2.746039 -0.24089,-1.348932 -2.55333,0.674466 -5.10667,2.74604 c 0,0 -2.26428,2.216101 -2.50516,2.697863 -0.24088,0.481761 -1.73434,3.565034 -1.73434,3.85409 0,0.289057 1.10805,3.61321 1.25258,3.998619 0.14453,0.385408 1.25258,2.264278 1.39711,2.842391 0.14453,0.578109 0.0964,7.997239 0.0964,7.997239 0,0 -0.5781,1.73434 -0.72263,2.11975 -0.14453,0.38541 5.29937,10.3097 5.29937,10.3097 l 4.52856,9.10528 c 0,0 1.34892,1.92704 1.49345,2.26429 0.14453,0.33723 -0.24088,4.23949 -0.24088,4.23949 l -0.96352,10.45422 c 0,0 -1.78252,8.09359 -1.83069,8.38265 -0.0482,0.28905 -0.57812,8.38264 -0.57812,8.38264 l -2.79421,9.6834 -0.77082,2.31246 c 0,0 -0.62629,5.2512 -0.57811,5.6366 0.0482,0.38542 -0.86717,10.79146 -0.96353,11.22504 -0.0964,0.43359 1.15623,5.39573 1.15623,5.58843 0,0.19272 2.84239,13.7302 3.03509,14.01926 0.19271,0.28906 4.19133,5.20303 4.19133,5.20303 0,0 4.2395,1.83068 4.48038,1.83068 0.24088,0 2.4088,-0.33723 2.4088,-0.33723 l 2.55334,-1.30075 1.58981,-1.05988 2.64969,-2.50516 3.32415,-3.56503 3.13145,-4.57673 c 0,0 2.79422,-3.56504 2.79422,-3.17963 0,0.38541 1.05987,0.48176 1.2044,0.67447 0.14453,0.1927 2.0234,4.48037 2.0234,4.67309 0,0.1927 -0.86718,20.23397 -0.86718,20.23397 l -2.07157,7.17825 -5.05849,3.99861 c 0,0 -2.89057,3.17963 -3.08327,3.37233 -0.1927,0.1927 -1.0117,2.31246 -1.0117,2.31246 l -10.55057,-2.64969 -9.73158,-2.74604 -16.18718,-4.48039 -11.80315,-0.5781 -13.103909,0.0964 -3.805915,2.07158 -2.023397,1.68616 -4.046795,5.63662 -5.251198,6.60012 -2.649687,5.92567 -3.251888,6.62421 c -3.913393,48.79813 0.471449,51.14853 0.698553,76.72049 l 4.86579,-9.34617 4.817613,-7.22642 3.179624,-5.29938 5.395726,-11.65862 4.432204,-8.96076 2.408807,-5.58843 1.830692,-2.0234 c 0,0 0.86718,-2.2161 1.44528,-4.04679 0.57812,-1.8307 2.11976,-2.60152 2.11976,-2.60152 l 0.48176,-0.48176 3.37233,0.96353 5.68478,2.11975 8.28629,7.80453 c 0,0 7.22643,4.72127 7.61183,4.81761 0.38541,0.0964 5.87749,2.40882 5.87749,2.40882 l 10.40605,4.81761 14.54919,3.66138 9.24981,2.4088 7.51547,0.0964 7.32277,-1.25258 8.2863,-2.31246 4.33585,-0.96352 3.17963,4.14315 2.50516,0.57811 0.77081,-0.77082 0.28906,0.38542 4.0468,1.34893 1.34892,-0.28906 c 0,0 4.43223,-0.38541 4.91397,0.0964 0.48176,0.48176 4.2395,4.14315 4.2395,4.14315 l 10.40605,11.85133 6.16654,6.07019 3.75773,5.39573 5.87749,5.97384 5.78114,2.98692 9.53887,6.45559 7.32277,4.23951 4.52856,5.10666 8.38265,4.91397 5.87749,7.90089 1.83069,14.06743 c 14.57626,-9.6337 27.16451,-21.47629 28.80932,-45.47827 l -1.05987,-3.75774 -3.95045,-8.57535 -4.23949,-5.78113 -3.8541,-4.72126 -2.98691,-6.35925 -5.61252,-5.58843 -6.6724,-9.20164 0.0722,-2.04749 0.12044,-3.61321 5.13076,3.05918 2.79421,0.69856 2.2402,-1.78252 1.01169,-1.83069 0.74674,-5.05849 1.18031,-5.4439 0.1927,-2.79422 -0.96352,-2.64969 -6.4556,-3.05918 c 0,0 -6.95389,-4.64971 -7.22642,-5.0585 -0.27252,-0.40879 -2.60151,-1.97522 -2.60151,-1.97522 l -0.93943,-6.04611 1.97521,-12.21265 2.64969,-10.96006 1.44529,-3.46869 3.58912,-9.94836 3.49277,-10.35787 -0.0722,-7.29869 -1.03579,-7.82862 -2.31245,-8.98485 -1.08396,-11.24912 -1.63799,-23.70265 0.62629,-26.52097 -2.67377,-13.56158 -0.40951,-3.46868 -4.35993,-6.81692 -3.80591,-2.79422 -5.10668,-2.64969 -10.57466,-2.529244 c 0,0 -11.12869,-4.576733 -11.61045,-6.022017 -0.48176,-1.445284 -2.02339,-1.541637 -2.02339,-1.541637 l -23.0041,-1.276667 1.63798,-9.538873 0.0482,-7.154155 -0.33723,-9.611138 -2.04749,-7.370948 -3.39641,1.228491 -0.4095,16.42806 -1.08397,6.672394 -1.97522,-6.527865 -0.0722,-5.805224 -1.97522,-13.007555 -2.19202,-8.792144 -3.20371,-7.226419 -4.6249,-4.624908 -4.69718,-0.192704 -4.28768,1.204402 -2.60151,1.854781 c 0,0 -1.43017,2.518267 -1.97522,3.131449 -0.54509,0.613182 -2.0957,-3.540945 -2.0957,-3.540945 l -1.30075,-3.830003 -0.0722,-3.396417 -0.60221,-5.73296 -0.77082,-3.324153 z m 76.11829,139.66261 3.39641,8.98484 1.90296,12.14039 0.4095,12.93528 0.28906,14.59738 -1.2285,9.80383 0.26497,11.99586 -0.14452,24.25668 0.14452,5.17894 -0.96353,6.52786 -0.52993,7.90089 c -0.40879,-1.49889 -1.78323,-6.94704 -2.19202,-7.90089 -0.40878,-0.95383 -1.49345,-7.63591 -1.49345,-7.63591 0,0 -3.67037,-8.98556 -4.21542,-9.39434 -0.54505,-0.40879 -5.0592,-11.29873 -5.46798,-12.1163 -0.4088,-0.81758 -4.76188,-12.14936 -5.03441,-12.69441 -0.27252,-0.54506 -1.90296,-5.15485 -1.90296,-5.15485 0,0 1.4859,-5.46185 1.75843,-6.55196 0.27252,-1.09009 3.42051,-8.4549 3.42051,-8.4549 0,0 1.36475,-4.90712 1.22848,-5.58843 -0.13625,-0.68131 -0.14452,-5.70887 -0.14452,-5.70887 l 1.90296,-2.72196 2.19201,-4.91397 c 0,0 1.0757,-5.58158 0.93943,-6.26289 -0.13625,-0.68131 1.10805,-6.81692 1.10805,-6.81692 0,0 1.90296,-6.28084 1.90296,-7.37095 0,-1.0901 1.08396,-4.48038 1.08396,-4.48038 l 1.37303,-0.55402 z"
     id="path3115"
     inkscape:connector-curvature="0" />
  <path
     style="color:#000000;fill:url(#linearGradient3951);fill-opacity:1;stroke:none;stroke-width:1px;marker:none;visibility:visible;display:inline;overflow:visible;enable-background:accumulate"
     d="m 189.07254,21.76729 -1.08396,1.49346 0,3.011009 c 0,0 1.09223,9.194083 1.22849,9.466609 0.13628,0.272526 0.0722,4.280118 0.0722,4.552644 0,0.272525 -1.44528,4.022707 -1.44528,4.022707 l -4.69718,1.300755 -4.76943,2.794216 -1.68616,1.421196 c 0,0 -1.50174,4.493487 -1.638,5.106669 -0.13626,0.613182 0.33725,5.588431 0.33725,5.588431 l 1.63798,6.96145 c 0,0 1.35306,5.637316 1.4212,6.046105 0.0682,0.408788 5.17893,7.852709 5.17893,7.852709 0,0 3.75774,4.015153 3.75774,4.287676 0,0.27253 6.81692,5.997928 6.81692,5.997928 0,0 -1.10392,1.967667 -1.03578,2.24019 0.0682,0.27253 -10.62284,20.643476 -10.62284,20.643476 l -2.52925,9.8761 -2.72195,8.71988 -1.63799,4.16725 -5.37164,10.83962 -1.49346,1.08397 -4.09497,3.05918 -3.01101,2.11974 c 0,0 -0.66419,0.88028 -1.68617,1.49347 -1.02196,0.61317 -1.85477,-4.02271 -1.85477,-4.02271 l -2.45695,-13.56158 -3.56503,-8.2622 -3.13145,-5.20303 c 0,0 -5.10667,-8.91258 -5.25119,-9.82793 -0.14453,-0.91535 -0.86718,-2.07157 -0.86718,-2.07157 l 0.33723,-0.48176 1.8307,-0.57812 1.05988,0.96352 6.60012,5.15485 1.44528,-0.1927 -0.43357,-1.78252 -1.34894,-3.27597 -2.26428,-3.8541 4.52855,2.64969 1.49347,-0.72264 0.14453,-2.60151 -1.54164,-1.58982 -6.16655,-3.75774 -7.56365,-4.191321 -2.11975,0.578113 -1.83069,1.830698 c -0.48176,0.48176 -1.25258,-1.637993 -1.25258,-1.637993 l -0.38541,-1.878869 1.0117,-1.397108 1.78252,-0.289057 5.73296,1.734341 4.38403,0.289057 0.67446,-1.49346 -1.05988,-1.975222 -7.56365,-4.624909 c 0,0 -3.99862,-0.192704 -4.48038,-0.24088 -0.48176,-0.04817 1.34894,-1.300755 1.34894,-1.300755 l 1.54163,-1.348932 1.05988,-2.746039 -0.24089,-1.348932 -2.55333,0.674466 -5.10667,2.74604 c 0,0 -2.26428,2.216101 -2.50516,2.697863 -0.24088,0.481761 -1.73434,3.565034 -1.73434,3.85409 0,0.289057 1.10805,3.61321 1.25258,3.998619 0.14453,0.385408 1.25258,2.264278 1.39711,2.842391 0.14453,0.578109 0.0964,7.997239 0.0964,7.997239 0,0 -0.5781,1.73434 -0.72263,2.11975 -0.14453,0.38541 5.29937,10.3097 5.29937,10.3097 l 4.52856,9.10528 c 0,0 1.34892,1.92704 1.49345,2.26429 0.14453,0.33723 -0.24088,4.23949 -0.24088,4.23949 l -0.96352,10.45422 c 0,0 -1.78252,8.09359 -1.83069,8.38265 -0.0482,0.28905 -0.57812,8.38264 -0.57812,8.38264 l -2.79421,9.6834 -0.77082,2.31246 c 0,0 -0.62629,5.2512 -0.57811,5.6366 0.0482,0.38542 -0.86717,10.79146 -0.96353,11.22504 -0.0964,0.43359 1.15623,5.39573 1.15623,5.58843 0,0.19272 2.84239,13.7302 3.03509,14.01926 0.19271,0.28906 4.19133,5.20303 4.19133,5.20303 0,0 4.2395,1.83068 4.48038,1.83068 0.24088,0 2.4088,-0.33723 2.4088,-0.33723 l 2.55334,-1.30075 1.58981,-1.05988 2.64969,-2.50516 3.32415,-3.56503 3.13145,-4.57673 c 0,0 2.79422,-3.56504 2.79422,-3.17963 0,0.38541 1.05987,0.48176 1.2044,0.67447 0.14453,0.1927 2.0234,4.48037 2.0234,4.67309 0,0.1927 -0.86718,20.23397 -0.86718,20.23397 l -2.07157,7.17825 -5.05849,3.99861 c 0,0 -2.89057,3.17963 -3.08327,3.37233 -0.1927,0.1927 -1.0117,2.31246 -1.0117,2.31246 l -10.55057,-2.64969 -9.73158,-2.74604 -16.18718,-4.48039 -11.80315,-0.5781 -13.103909,0.0964 -3.805915,2.07158 -2.023397,1.68616 -4.046795,5.63662 -5.251198,6.60012 -2.649687,5.92567 -3.251888,6.62421 c -3.913393,48.79813 0.471449,51.14853 0.698553,76.72049 l 4.86579,-9.34617 4.817613,-7.22642 3.179624,-5.29938 5.395726,-11.65862 4.432204,-8.96076 2.408807,-5.58843 1.830692,-2.0234 c 0,0 0.86718,-2.2161 1.44528,-4.04679 0.57812,-1.8307 2.11976,-2.60152 2.11976,-2.60152 l 0.48176,-0.48176 3.37233,0.96353 5.68478,2.11975 8.28629,7.80453 c 0,0 7.22643,4.72127 7.61183,4.81761 0.38541,0.0964 5.87749,2.40882 5.87749,2.40882 l 10.40605,4.81761 14.54919,3.66138 9.24981,2.4088 7.51547,0.0964 7.32277,-1.25258 8.2863,-2.31246 4.33585,-0.96352 3.17963,4.14315 2.50516,0.57811 0.77081,-0.77082 0.28906,0.38542 4.0468,1.34893 1.34892,-0.28906 c 0,0 4.43223,-0.38541 4.91397,0.0964 0.48176,0.48176 4.2395,4.14315 4.2395,4.14315 l 10.40605,11.85133 6.16654,6.07019 3.75773,5.39573 5.87749,5.97384 5.78114,2.98692 9.53887,6.45559 7.32277,4.23951 4.52856,5.10666 8.38265,4.91397 5.87749,7.90089 1.83069,14.06743 c 14.57626,-9.6337 27.16451,-21.47629 28.80932,-45.47827 l -1.05987,-3.75774 -3.95045,-8.57535 -4.23949,-5.78113 -3.8541,-4.72126 -2.98691,-6.35925 -5.61252,-5.58843 -6.6724,-9.20164 0.0722,-2.04749 0.12044,-3.61321 5.13076,3.05918 2.79421,0.69856 2.2402,-1.78252 1.01169,-1.83069 0.74674,-5.05849 1.18031,-5.4439 0.1927,-2.79422 -0.96352,-2.64969 -6.4556,-3.05918 c 0,0 -6.95389,-4.64971 -7.22642,-5.0585 -0.27252,-0.40879 -2.60151,-1.97522 -2.60151,-1.97522 l -0.93943,-6.04611 1.97521,-12.21265 2.64969,-10.96006 1.44529,-3.46869 3.58912,-9.94836 3.49277,-10.35787 -0.0722,-7.29869 -1.03579,-7.82862 -2.31245,-8.98485 -1.08396,-11.24912 -1.63799,-23.70265 0.62629,-26.52097 -2.67377,-13.56158 -0.40951,-3.46868 -4.35993,-6.81692 -3.80591,-2.79422 -5.10668,-2.64969 -10.57466,-2.529244 c 0,0 -11.12869,-4.576733 -11.61045,-6.022017 -0.48176,-1.445284 -2.02339,-1.541637 -2.02339,-1.541637 l -23.0041,-1.276667 1.63798,-9.538873 0.0482,-7.154155 -0.33723,-9.611138 -2.04749,-7.370948 -3.39641,1.228491 -0.4095,16.42806 -1.08397,6.672394 -1.97522,-6.527865 -0.0722,-5.805224 -1.97522,-13.007555 -2.19202,-8.792144 -3.20371,-7.226419 -4.6249,-4.624908 -4.69718,-0.192704 -4.28768,1.204402 -2.60151,1.854781 c 0,0 -1.43017,2.518267 -1.97522,3.131449 -0.54509,0.613182 -2.0957,-3.540945 -2.0957,-3.540945 l -1.30075,-3.830003 -0.0722,-3.396417 -0.60221,-5.73296 -0.77082,-3.324153 z m 76.11829,139.66261 3.39641,8.98484 1.90296,12.14039 0.4095,12.93528 0.28906,14.59738 -1.2285,9.80383 0.26497,11.99586 -0.14452,24.25668 0.14452,5.17894 -0.96353,6.52786 -0.52993,7.90089 c -0.40879,-1.49889 -1.78323,-6.94704 -2.19202,-7.90089 -0.40878,-0.95383 -1.49345,-7.63591 -1.49345,-7.63591 0,0 -3.67037,-8.98556 -4.21542,-9.39434 -0.54505,-0.40879 -5.0592,-11.29873 -5.46798,-12.1163 -0.4088,-0.81758 -4.76188,-12.14936 -5.03441,-12.69441 -0.27252,-0.54506 -1.90296,-5.15485 -1.90296,-5.15485 0,0 1.4859,-5.46185 1.75843,-6.55196 0.27252,-1.09009 3.42051,-8.4549 3.42051,-8.4549 0,0 1.36475,-4.90712 1.22848,-5.58843 -0.13625,-0.68131 -0.14452,-5.70887 -0.14452,-5.70887 l 1.90296,-2.72196 2.19201,-4.91397 c 0,0 1.0757,-5.58158 0.93943,-6.26289 -0.13625,-0.68131 1.10805,-6.81692 1.10805,-6.81692 0,0 1.90296,-6.28084 1.90296,-7.37095 0,-1.0901 1.08396,-4.48038 1.08396,-4.48038 l 1.37303,-0.55402 z"
     id="path3885"
     inkscape:connector-curvature="0" />
  <g
     inkscape:label="Layer 1"
     inkscape:groupmode="layer"
     id="layer1"
     transform="translate(0,-125)" />
  <path
     style="color:#000000;fill:#e6b080;fill-opacity:1;stroke:none;stroke-width:1px;marker:none;visibility:visible;display:inline;overflow:visible;enable-background:accumulate"
     d="m 163.29831,163.50147 -2.11975,0.86717 -1.83069,1.54164 -1.92705,5.10666 c 0,0 0.38541,2.69787 0.57812,3.17963 0.1927,0.48176 2.02339,1.83069 2.02339,1.83069 0,0 1.44528,0.48177 1.8307,0.48177 0.3854,0 2.4088,-0.57812 2.4088,-0.57812 l 2.0234,-1.73434 0.77082,-4.33585 c 0,0 -0.0964,-3.85409 -0.28906,-4.2395 -0.1927,-0.38541 -1.05988,-1.44529 -1.05988,-1.44529 z"
     id="path3905"
     inkscape:connector-curvature="0" />
  <path
     inkscape:connector-curvature="0"
     id="path3909"
     d="m 163.29831,163.50147 -2.11975,0.86717 -1.83069,1.54164 -1.92705,5.10666 c 0,0 0.38541,2.69787 0.57812,3.17963 0.1927,0.48176 2.02339,1.83069 2.02339,1.83069 0,0 1.44528,0.48177 1.8307,0.48177 0.3854,0 2.4088,-0.57812 2.4088,-0.57812 l 2.0234,-1.73434 0.77082,-4.33585 c 0,0 -0.0964,-3.85409 -0.28906,-4.2395 -0.1927,-0.38541 -1.05988,-1.44529 -1.05988,-1.44529 z"
     style="color:#000000;fill:url(#linearGradient3913);fill-opacity:1;stroke:none;stroke-width:1px;marker:none;visibility:visible;display:inline;overflow:visible;enable-background:accumulate" />
  <path
     style="color:#000000;fill:#e6b080;fill-opacity:1;stroke:none;stroke-width:1px;marker:none;visibility:visible;display:inline;overflow:visible;enable-background:accumulate"
     d="m 233.1537,176.60537 -0.28906,4.81762 0.67447,2.69786 2.60151,2.21611 3.46868,0.86716 c 0,0 4.14315,0 4.4322,-0.77082 0.28906,-0.77082 1.73434,-2.98691 1.73434,-2.98691 0,0 1.15624,-3.17963 1.15624,-4.14316 0,-0.96352 -0.38542,-5.10666 -0.38542,-5.10666 l -5.39573,-1.25258 -2.50516,0.1927 -2.79421,0.77082 z"
     id="path3907"
     inkscape:connector-curvature="0"
     sodipodi:nodetypes="cccccscsccccc" />
  <path
     sodipodi:nodetypes="cccccscsccccc"
     inkscape:connector-curvature="0"
     id="path3911"
     d="m 233.1537,176.60537 -0.28906,4.81762 0.67447,2.69786 2.60151,2.21611 3.46868,0.86716 c 0,0 4.14315,0 4.4322,-0.77082 0.28906,-0.77082 1.73434,-2.98691 1.73434,-2.98691 0,0 1.15624,-3.17963 1.15624,-4.14316 0,-0.96352 -0.38542,-5.10666 -0.38542,-5.10666 l -5.39573,-1.25258 -2.50516,0.1927 -2.79421,0.77082 z"
     style="color:#000000;fill:url(#linearGradient3915);fill-opacity:1;stroke:none;stroke-width:1px;marker:none;visibility:visible;display:inline;overflow:visible;enable-background:accumulate" />
  <path
     style="color:#000000;fill:#c83737;stroke:none;stroke-width:1px;marker:none;visibility:visible;display:inline;overflow:visible;enable-background:accumulate"
     d="m 201.55015,88.346701 1.638,-1.059875 1.25258,-1.445284 2.60151,-0.674465 1.34893,-0.289058 1.54163,-1.348931 1.638,-0.963522 3.08326,0 3.46869,-0.963523 -0.67447,1.156227 -1.05987,0.963523 -1.34894,2.216101 -1.73433,1.156227 -1.44529,1.25258 -2.40881,0.674466 -3.85409,0.385409 -3.17962,-0.481761 z"
     id="path3917"
     inkscape:connector-curvature="0"
     sodipodi:nodetypes="cccccccccccccccccc" />
  <path
     sodipodi:nodetypes="cccccccccccccccccc"
     inkscape:connector-curvature="0"
     id="path3919"
     d="m 201.55015,88.346701 1.638,-1.059875 1.25258,-1.445284 2.60151,-0.674465 1.34893,-0.289058 1.54163,-1.348931 1.638,-0.963522 3.08326,0 3.46869,-0.963523 -0.67447,1.156227 -1.05987,0.963523 -1.34894,2.216101 -1.73433,1.156227 -1.44529,1.25258 -2.40881,0.674466 -3.85409,0.385409 -3.17962,-0.481761 z"
     style="color:#000000;fill:url(#linearGradient3921);stroke:none;stroke-width:1px;marker:none;visibility:visible;display:inline;overflow:visible;enable-background:accumulate" />
  <path
     style="color:#000000;fill:#ffffff;stroke:none;stroke-width:1px;marker:none;visibility:visible;display:inline;overflow:visible;enable-background:accumulate"
     d="m 183.43593,69.461657 1.25258,-1.156227 1.25258,-1.348932 3.37233,-0.770817 3.08328,-0.481762 2.89056,0.674466 0.28906,1.445284 -0.86717,0.867171 -1.92705,0.770817 -2.4088,0.867171 -2.31246,0.481761 -3.37233,-0.289057 c 0,0 -1.05988,0.481762 -1.25258,-1.059875 z"
     id="path3923"
     inkscape:connector-curvature="0" />
  <path
     style="color:#000000;fill:#0061ff;fill-opacity:1;stroke:none;stroke-width:1px;marker:none;visibility:visible;display:inline;overflow:visible;enable-background:accumulate"
     d="m 188.73531,67.052851 c 0.38541,-0.289057 2.50515,-1.156228 2.50515,-1.156228 l 1.73434,0.481762 0,2.023397 -0.96352,0.963523 -2.6015,0 -0.96353,-0.481761 c 0,0 -1.34893,-0.192704 0.28906,-1.830693 z"
     id="path3927"
     inkscape:connector-curvature="0" />
  <path
     style="color:#000000;fill:#ffffff;stroke:none;stroke-width:1px;marker:none;visibility:visible;display:inline;overflow:visible;enable-background:accumulate"
     d="m 207.04224,61.07901 c 0.3854,-0.578113 1.63798,-2.697863 1.63798,-2.697863 l 3.27598,-1.348931 3.08327,-0.86717 2.0234,0 0.38541,1.830693 -1.34893,2.11975 -1.34893,1.445283 -1.8307,0.674466 -4.04679,0.578114 -2.2161,0.192704 c 0,0 -0.19271,-0.674465 0.38541,-1.927046 z"
     id="path3925"
     inkscape:connector-curvature="0" />
  <path
     inkscape:connector-curvature="0"
     id="path3931"
     d="m 188.73531,67.052851 c 0.38541,-0.289057 2.50515,-1.156228 2.50515,-1.156228 l 1.73434,0.481762 0,2.023397 -0.96352,0.963523 -2.6015,0 -0.96353,-0.481761 c 0,0 -1.34893,-0.192704 0.28906,-1.830693 z"
     style="color:#000000;fill:url(#linearGradient3935);fill-opacity:1;stroke:none;stroke-width:1px;marker:none;visibility:visible;display:inline;overflow:visible;enable-background:accumulate" />
  <path
     style="color:#000000;fill:#0061ff;fill-opacity:1;stroke:none;stroke-width:1px;marker:none;visibility:visible;display:inline;overflow:visible;enable-background:accumulate"
     d="m 210.51092,57.995739 2.4088,-0.674467 1.54164,0.963523 0,1.541636 -0.77082,0.578114 -1.25258,0.674465 -2.4088,-0.481761 -0.57812,-0.385408 c 0,0 -1.15622,0.481761 1.05988,-2.216102 z"
     id="path3929"
     inkscape:connector-curvature="0" />
  <path
     inkscape:connector-curvature="0"
     id="path3933"
     d="m 210.51092,57.995739 2.4088,-0.674467 1.54164,0.963523 0,1.541636 -0.77082,0.578114 -1.25258,0.674465 -2.4088,-0.481761 -0.57812,-0.385408 c 0,0 -1.15622,0.481761 1.05988,-2.216102 z"
     style="color:#000000;fill:url(#linearGradient3937);fill-opacity:1;stroke:none;stroke-width:1px;marker:none;visibility:visible;display:inline;overflow:visible;enable-background:accumulate" />
  <path
     style="color:#000000;fill:#241c1c;stroke:none;stroke-width:1px;marker:none;visibility:visible;display:inline;overflow:visible;enable-background:accumulate"
     d="m 189.07254,7.5794202 c -0.69856,0.012025 -1.87887,0.361321 -3.80591,1.6620765 -3.8541,2.6015113 -3.66139,3.2759763 -3.66139,3.2759763 l -5.10667,3.179625 -5.10667,3.757738 -4.33585,5.973839 -3.17962,9.731579 -3.37234,10.116987 -5.68477,20.330327 -2.31246,12.236737 -1.15623,17.247054 1.54163,10.116991 2.2161,1.73434 1.15624,1.83069 0,2.0234 -1.638,0.77082 3.56504,13.00755 6.26289,17.63246 c 0,0 2.98693,2.98693 3.27598,3.46869 0.28906,0.48176 4.14315,3.46868 4.14315,3.46868 l 5.68478,1.63798 c 0,0 7.99724,0.67448 8.479,0.86718 0.48177,0.1927 3.46868,-0.28906 3.46868,-0.28906 l 1.638,-1.63798 -1.73434,-1.73434 -5.20303,-3.66139 -6.16654,-1.25258 c 0,0 -2.60151,0.0964 -2.98693,-0.86718 -0.3854,-0.96352 -0.0964,-3.95044 -0.0964,-3.95044 l 2.4088,-4.91396 3.17963,0.67447 1.92704,0.3854 3.08327,-0.48176 c 0,0 1.44529,5.49209 1.73434,5.87749 0.28906,0.38542 2.40881,3.17962 2.40881,3.17962 l 3.56503,1.92705 3.08328,1.8307 c 0,0 1.63798,0.1927 2.11975,0 0.48176,-0.19271 1.25258,-0.57812 1.25258,-0.57812 l -0.77082,-2.31245 -7.03371,-5.20302 -3.95045,-5.49209 3.08327,-0.77082 3.95044,-0.96352 3.75774,-1.25258 3.46869,-2.02339 2.69786,-2.40881 c 0,0 1.83069,-3.46867 2.31245,-3.75773 0.48176,-0.28906 2.69786,-5.10667 2.69786,-5.10667 l -1.25258,0 -1.73434,1.92704 -3.75773,3.08327 -2.60152,3.27598 -2.69786,2.79421 -2.40881,1.8307 -3.66138,1.54164 -4.2395,0.5781 -1.44529,-5.58842 0.57812,-8.86441 c 0,0 0.28906,-4.14315 0.77082,-4.72127 0.48176,-0.5781 3.66139,-12.62214 3.66139,-12.62214 l 2.89056,-8.960763 -9.44252,-8.575351 -6.16655,-9.827931 -1.54163,-7.322771 c 0,0 -1.73434,-3.950443 -1.73434,-4.721261 l 0,-7.611829 1.15622,-3.179625 2.60152,-2.119749 1.44528,-0.674466 3.17963,-1.541636 3.95044,-1.156227 c 0,0 0.77081,-1.445284 1.05987,-1.830693 0.28906,-0.385409 0.67447,-3.083272 0.67447,-3.083272 l 0.0964,-3.85409 -1.05988,-6.744659 c 0,0 -0.48176,-3.950442 -0.48176,-4.432203 0,-0.481762 1.34894,-2.794217 1.34894,-2.794217 l 1.25258,5.588432 0,4.624909 0.5781,4.624907 0.86718,2.890569 c 0,0 1.25258,2.697863 2.11975,2.216102 0.86717,-0.481762 1.34893,-2.216102 1.34893,-2.216102 l 1.25258,-1.541637 3.56503,-1.927045 2.79422,-0.578114 3.85409,0.09636 5.29938,4.046795 3.27597,6.648305 2.60151,8.96076 1.44529,20.42668 2.11974,6.359249 -1.44528,10.309691 1.73434,4.817613 1.05988,2.794216 -2.50516,3.083267 -2.0234,4.91397 0.77082,2.11975 3.08327,-1.15623 2.40881,-4.43219 1.05987,-1.8307 0.86717,0.67446 -1.54163,4.0468 -2.98693,6.55195 0.0964,1.54164 0.48176,0.48176 1.63799,-1.34894 1.63799,-3.27597 3.08327,-2.50516 0.67446,0.86717 -0.1927,2.50516 c 0,0 -2.60151,8.67171 -2.98692,9.05711 -0.38541,0.38542 -0.38541,1.44528 -0.38541,1.44528 0,0 2.50517,-1.44528 3.46869,-3.75773 0.96352,-2.31246 2.98691,-6.2629 2.98691,-6.84101 0,-0.57811 2.2161,-4.2395 2.2161,-4.2395 0,0 0.38542,-1.73434 1.73434,-0.38541 1.34894,1.34893 0.38542,4.14314 0.38542,4.14314 l -1.25258,2.60152 -3.27598,6.16655 -2.89057,6.26289 1.15622,1.54164 2.50517,-0.48176 3.56503,-2.31246 c 0,0 3.27597,-2.98691 3.56503,-3.37233 0.28906,-0.3854 3.75774,-4.62491 4.14315,-5.20302 0.38541,-0.57811 2.11975,-3.85409 2.50516,-4.91397 0.3854,-1.05987 2.79422,-7.99723 2.98692,-8.57535 0.1927,-0.57812 0.38541,-10.502394 0.38541,-10.502394 0,0 1.44528,1.059875 2.0234,1.830692 0.57811,0.770819 9.24981,4.432205 9.24981,4.432205 l 1.44529,-1.637988 -7.32278,-7.130068 c 0,0 -5.01031,-12.140385 -5.29937,-12.718499 -0.28906,-0.578113 -4.6249,-9.057112 -4.6249,-9.057112 l -2.40881,-8.382647 -7.99724,-17.728815 -9.24982,-13.874725 -11.17686,-12.718498 -10.6951,-6.0701922 -8.38265,-1.7343407 -5.78114,0 c 0,0 -0.21679,-0.3251927 -0.91534,-0.3131448 z m 35.79486,48.1038648 1.63799,1.927045 1.44529,4.913965 1.25258,10.406045 -0.28906,8.671703 -1.54164,8.286295 -1.73434,4.624907 -0.96352,-1.059875 c 0,0 -0.38541,-2.986919 -0.57811,-3.661386 -0.19271,-0.674465 0.67446,-4.046794 0.67446,-4.528555 0,-0.481762 2.0234,-3.661386 1.92705,-4.335852 -0.0964,-0.674466 0.67446,-4.046795 0.57811,-5.203022 -0.0964,-1.156227 -0.57811,-7.804533 -0.77082,-8.478999 -0.1927,-0.674465 -1.63799,-11.562271 -1.63799,-11.562271 z m -42.00959,58.004065 c 0,0 0.28906,6.2629 0.48177,7.51548 0.19271,1.25258 0.67447,7.22641 0.86717,7.80453 0.1927,0.57812 0.67446,2.79422 0.67446,2.79422 0,0 -2.11974,-0.38542 -2.6015,-0.67448 -0.48176,-0.28904 -2.31246,-1.92704 -2.31246,-1.92704 l -0.67446,-3.17962 2.2161,-8.76806 1.34892,-3.56503 z"
     id="path3939"
     inkscape:connector-curvature="0" />
  <path
     id="path3947"
     d="m 189.07254,7.5794202 c -0.69856,0.012025 -1.87887,0.361321 -3.80591,1.6620765 -3.8541,2.6015113 -3.66139,3.2759763 -3.66139,3.2759763 l -5.10667,3.179625 -5.10667,3.757738 -4.33585,5.973839 -3.17962,9.731579 -3.37234,10.116987 -5.68477,20.330327 -2.31246,12.236737 -1.15623,17.247054 1.54163,10.116991 2.2161,1.73434 1.15624,1.83069 0,2.0234 -1.638,0.77082 3.56504,13.00755 6.26289,17.63246 c 0,0 2.98693,2.98693 3.27598,3.46869 0.28906,0.48176 4.14315,3.46868 4.14315,3.46868 l 5.68478,1.63798 c 0,0 7.99724,0.67448 8.479,0.86718 0.48177,0.1927 3.46868,-0.28906 3.46868,-0.28906 l 1.638,-1.63798 -1.73434,-1.73434 -5.20303,-3.66139 -6.16654,-1.25258 c 0,0 -2.60151,0.0964 -2.98693,-0.86718 -0.3854,-0.96352 -0.0964,-3.95044 -0.0964,-3.95044 l 2.4088,-4.91396 3.17963,0.67447 1.92704,0.3854 3.08327,-0.48176 c 0,0 1.44529,5.49209 1.73434,5.87749 0.28906,0.38542 2.40881,3.17962 2.40881,3.17962 l 3.56503,1.92705 3.08328,1.8307 c 0,0 1.63798,0.1927 2.11975,0 0.48176,-0.19271 1.25258,-0.57812 1.25258,-0.57812 l -0.77082,-2.31245 -7.03371,-5.20302 -3.95045,-5.49209 3.08327,-0.77082 3.95044,-0.96352 3.75774,-1.25258 3.46869,-2.02339 2.69786,-2.40881 c 0,0 1.83069,-3.46867 2.31245,-3.75773 0.48176,-0.28906 2.69786,-5.10667 2.69786,-5.10667 l -1.25258,0 -1.73434,1.92704 -3.75773,3.08327 -2.60152,3.27598 -2.69786,2.79421 -2.40881,1.8307 -3.66138,1.54164 -4.2395,0.5781 -1.44529,-5.58842 0.57812,-8.86441 c 0,0 0.28906,-4.14315 0.77082,-4.72127 0.48176,-0.5781 3.66139,-12.62214 3.66139,-12.62214 l 2.89056,-8.960763 -9.44252,-8.575351 -6.16655,-9.827931 -1.54163,-7.322771 c 0,0 -1.73434,-3.950443 -1.73434,-4.721261 l 0,-7.611829 1.15622,-3.179625 2.60152,-2.119749 1.44528,-0.674466 3.17963,-1.541636 3.95044,-1.156227 c 0,0 0.77081,-1.445284 1.05987,-1.830693 0.28906,-0.385409 0.67447,-3.083272 0.67447,-3.083272 l 0.0964,-3.85409 -1.05988,-6.744659 c 0,0 -0.48176,-3.950442 -0.48176,-4.432203 0,-0.481762 1.34894,-2.794217 1.34894,-2.794217 l 1.25258,5.588432 0,4.624909 0.5781,4.624907 0.86718,2.890569 c 0,0 1.25258,2.697863 2.11975,2.216102 0.86717,-0.481762 1.34893,-2.216102 1.34893,-2.216102 l 1.25258,-1.541637 3.56503,-1.927045 2.79422,-0.578114 3.85409,0.09636 5.29938,4.046795 3.27597,6.648305 2.60151,8.96076 1.44529,20.42668 2.11974,6.359249 -1.44528,10.309691 1.73434,4.817613 1.05988,2.794216 -2.50516,3.083267 -2.0234,4.91397 0.77082,2.11975 3.08327,-1.15623 2.40881,-4.43219 1.05987,-1.8307 0.86717,0.67446 -1.54163,4.0468 -2.98693,6.55195 0.0964,1.54164 0.48176,0.48176 1.63799,-1.34894 1.63799,-3.27597 3.08327,-2.50516 0.67446,0.86717 -0.1927,2.50516 c 0,0 -2.60151,8.67171 -2.98692,9.05711 -0.38541,0.38542 -0.38541,1.44528 -0.38541,1.44528 0,0 2.50517,-1.44528 3.46869,-3.75773 0.96352,-2.31246 2.98691,-6.2629 2.98691,-6.84101 0,-0.57811 2.2161,-4.2395 2.2161,-4.2395 0,0 0.38542,-1.73434 1.73434,-0.38541 1.34894,1.34893 0.38542,4.14314 0.38542,4.14314 l -1.25258,2.60152 -3.27598,6.16655 -2.89057,6.26289 1.15622,1.54164 2.50517,-0.48176 3.56503,-2.31246 c 0,0 3.27597,-2.98691 3.56503,-3.37233 0.28906,-0.3854 3.75774,-4.62491 4.14315,-5.20302 0.38541,-0.57811 2.11975,-3.85409 2.50516,-4.91397 0.3854,-1.05987 2.79422,-7.99723 2.98692,-8.57535 0.1927,-0.57812 0.38541,-10.502394 0.38541,-10.502394 0,0 1.44528,1.059875 2.0234,1.830692 0.57811,0.770819 9.24981,4.432205 9.24981,4.432205 l 1.44529,-1.637988 -7.32278,-7.130068 c 0,0 -5.01031,-12.140385 -5.29937,-12.718499 -0.28906,-0.578113 -4.6249,-9.057112 -4.6249,-9.057112 l -2.40881,-8.382647 -7.99724,-17.728815 -9.24982,-13.874725 -11.17686,-12.718498 -10.6951,-6.0701922 -8.38265,-1.7343407 -5.78114,0 c 0,0 -0.21679,-0.3251927 -0.91534,-0.3131448 z m 35.79486,48.1038648 1.63799,1.927045 1.44529,4.913965 1.25258,10.406045 -0.28906,8.671703 -1.54164,8.286295 -1.73434,4.624907 -0.96352,-1.059875 c 0,0 -0.38541,-2.986919 -0.57811,-3.661386 -0.19271,-0.674465 0.67446,-4.046794 0.67446,-4.528555 0,-0.481762 2.0234,-3.661386 1.92705,-4.335852 -0.0964,-0.674466 0.67446,-4.046795 0.57811,-5.203022 -0.0964,-1.156227 -0.57811,-7.804533 -0.77082,-8.478999 -0.1927,-0.674465 -1.63799,-11.562271 -1.63799,-11.562271 z m -42.00959,58.004065 c 0,0 0.28906,6.2629 0.48177,7.51548 0.19271,1.25258 0.67447,7.22641 0.86717,7.80453 0.1927,0.57812 0.67446,2.79422 0.67446,2.79422 0,0 -2.11974,-0.38542 -2.6015,-0.67448 -0.48176,-0.28904 -2.31246,-1.92704 -2.31246,-1.92704 l -0.67446,-3.17962 2.2161,-8.76806 1.34892,-3.56503 z"
     style="color:#000000;fill:url(#linearGradient3949);fill-opacity:1;stroke:none;stroke-width:1px;marker:none;visibility:visible;display:inline;overflow:visible;enable-background:accumulate"
     inkscape:connector-curvature="0" />
  <path
     style="fill:#000000;fill-opacity:1;fill-rule:nonzero;stroke:none"
     d="m 191.77041,7.2662754 c -0.83425,0.00463 -1.6653,0.032836 -2.50516,0.096352 1.58503,2.0677426 4.38646,1.3989808 6.57603,1.1803151 16.4029,1.1380666 27.39089,15.7914103 35.28902,28.7852373 9.39113,12.732937 13.8121,28.084154 16.45215,43.478957 5.27072,15.586126 1.40637,34.687123 -12.26083,44.755623 -12.18956,8.05016 1.17197,-10.73781 2.60152,-16.18718 -0.79251,-1.9549 -1.59773,-2.67001 -2.38472,-2.55333 3.4284,7.56217 -6.10793,13.41975 -7.39504,20.52304 3.88657,5.21633 15.67498,-8.37259 18.62008,-14.59737 6.85575,-12.65101 3.78434,-26.51333 0.40949,-39.889845 1.35033,2.558219 2.73656,5.102917 3.78183,7.804534 1.87686,4.33969 2.69493,9.442513 6.35925,12.742585 1.65371,1.30266 3.22398,2.693362 4.60082,4.287676 -0.24035,0.04864 -0.45819,0.18495 -0.60221,0.481761 0.0946,0.102264 0.19626,0.167306 0.28906,0.240881 -3.74699,-1.325684 -7.30117,-3.078717 -9.99655,-6.046104 -2.07092,2.970209 5.83778,5.454787 8.21404,6.431513 7.53643,4.095269 18.2604,2.534239 23.46177,10.430129 7.50907,11.95038 7.1204,26.68329 6.6724,40.27525 -0.87033,9.35485 0.5577,18.67221 0.81899,27.99033 0.84453,3.78123 -0.0698,10.656 1.10805,14.1397 -0.0759,0.21377 -0.047,0.55869 0.12044,1.13213 1.70464,6.37377 4.12246,16.41021 3.4446,23.05229 -0.12797,4.41745 -2.30398,8.32335 -3.66139,12.42943 -3.27737,10.18193 -7.66704,20.17058 -8.6717,30.92908 -0.2696,4.25972 -1.44921,9.37656 1.8066,12.83894 2.74459,2.10833 5.7176,3.92215 8.74396,5.61252 2.76445,1.39838 6.73695,2.36544 7.0819,6.07019 -0.26572,2.92569 -1.35106,5.73469 -1.71026,8.67171 -0.68198,2.27698 -0.1212,5.60345 -2.69786,6.74465 -2.94612,0.47763 -5.51593,-1.78158 -7.34686,-3.83 -0.23616,0.0943 -0.38898,0.18964 -0.50584,0.31315 -2.3e-4,-0.0152 2e-4,-0.0329 0,-0.0482 0.0593,-1.92291 -1.1026,-3.57626 -1.25258,-5.46799 -0.003,-0.10798 0.002,-0.22917 0,-0.33724 0.35703,1.06952 1.08817,1.98493 2.07157,2.57742 1.4365,0.8516 3.04795,1.65725 4.74535,1.68617 1.77156,-0.004 2.98717,-1.45496 3.70956,-2.91465 0.78614,-0.65144 0.63927,-2.01419 -0.45768,-0.89126 -0.70684,1.52932 -1.63332,3.80873 -3.78183,2.8183 -1.76326,-0.77544 -3.8689,-1.41071 -4.81761,-3.25189 -1.03043,-1.20086 0.34467,-2.92999 -0.84307,-3.97453 1.2206,-0.53984 3.08997,0.14861 4.14314,-1.10805 0.0393,-0.0473 0.0621,-0.11972 0.0964,-0.16862 0.97603,-0.3936 1.94262,-0.79019 2.93874,-1.13213 0.36339,-0.2907 0.72056,-0.60059 1.08396,-0.89127 -1.41677,0.39435 -2.68651,1.12704 -3.92636,1.90296 0.95161,-1.56457 -0.48952,-3.75905 -2.26427,-3.92635 -1.63633,-0.12505 -3.32449,1.00648 -3.56504,2.69787 -0.11236,2.93019 -0.73504,5.92904 -0.0964,8.84031 0.8895,1.98691 1.14144,4.19562 1.0117,6.35925 -0.49004,0.52863 0.60343,2.18609 -0.0964,1.83069 -3.04509,-1.27076 -5.76472,-3.60715 -7.25051,-6.57603 -1.47287,-2.97089 -0.88627,-6.58449 -2.79422,-9.37027 -2.11903,-2.19309 -3.65114,-4.94283 -4.48038,-7.87679 -1.53213,0.0689 -1.02018,1.57666 -0.6022,2.45698 0.54629,1.77786 1.5925,3.29116 2.74604,4.72126 -2.00597,-1.72954 -4.6924,-3.66413 -5.01031,-5.63661 -2.41102,-5.89874 1.6979,-12.09256 1.05987,-18.23466 -1.00908,-13.75274 0.25747,-27.52163 -0.45767,-41.28694 1.61468,-5.83977 0.94902,-11.91753 1.13214,-17.87335 -0.36856,-10.20953 0.0906,-20.64321 -2.77014,-30.56776 -1.92395,-5.3499 -4.8027,-11.08628 -2.6015,-16.86164 -2.34648,1.8664 -2.32407,5.23318 -1.71026,8.21403 -0.41206,0.15243 -0.82611,0.38371 -1.15622,0.67447 -1.16663,1.04162 -0.84161,2.79683 -1.13214,4.19133 -0.30801,1.46877 -0.66358,2.92596 -0.91535,4.4081 -0.022,-2.94345 -0.10168,-5.88228 -0.0241,-8.79213 -0.85953,-5.75007 4.13687,-9.23547 6.6724,-13.63385 -1.82338,1.19335 -6.15925,6.21876 -7.37094,9.8761 -1.56329,8.54282 0.72748,17.46608 -1.51756,25.96694 -1.57658,8.11482 -7.02317,15.99291 -15.3441,18.13831 -6.87798,2.81531 -14.9088,2.24209 -21.43837,-1.2044 -3.6424,-3.14175 -8.77803,-5.35658 -10.43014,-10.18925 -1.70169,-7.46032 -3.55832,-15.24322 -2.36063,-22.93184 1.03998,-3.30126 1.04038,-7.86802 4.62491,-9.53887 3.08209,-2.41882 -3.88759,1.46164 -3.58912,2.89057 -4.24117,8.47152 -2.49276,18.26797 -0.6022,27.12316 0.2495,4.01138 2.70851,7.37973 6.09428,9.41842 6.23504,6.30315 16.12766,8.57102 24.54574,5.8775 5.1888,-1.20723 10.177,-3.90797 13.77837,-7.82863 -0.0688,0.63361 0.16896,1.4638 0.0241,2.07158 0.0525,3.46734 -0.80924,6.85212 -1.97522,10.0929 -2.40586,6.36826 -4.5621,12.83303 -6.55196,19.34272 -0.66262,1.24541 0.17565,0.76267 0.93944,0.36131 0.53509,-1.82077 1.12827,-3.63763 1.71025,-5.4439 1.25493,3.60787 3.25896,8.9919 4.57673,12.54988 2.44069,7.56119 6.26407,14.55084 9.85202,21.607 2.0449,3.33887 2.37251,7.31206 3.15554,11.05642 0.88465,2.85274 1.78066,5.78389 1.51755,8.81624 -0.25209,0.9449 0.0761,1.15053 0.48176,0.9876 1.20051,4.18845 5.8494,6.88432 8.55127,10.04472 0.13672,-0.1221 0.21936,-0.27863 0.28904,-0.40949 0.50557,1.50604 0.657,3.1786 0.98762,4.72126 0.65176,3.67045 3.29583,6.6127 6.38334,8.52717 1.09938,0.98126 3.28402,1.58814 4.14314,0 0.11854,-1.09859 0.15644,-2.22293 0.14453,-3.34824 0.65159,1.04789 2.57176,2.19168 3.25189,2.38472 3.45395,2.65491 7.90771,-0.30706 8.14177,-4.31176 0.008,-3.11832 1.06643,-6.04405 1.71025,-9.05711 0.88773,-3.02605 -0.49076,-6.47008 -3.6373,-7.4673 -3.91109,-1.37197 -7.28321,-3.78895 -10.67102,-6.11837 -3.20527,-1.80924 -3.63085,-5.87957 -3.34824,-9.17756 0.23058,-7.21283 1.9202,-14.29119 4.23951,-21.10114 2.14987,-5.99671 3.87859,-12.14113 6.28698,-18.04196 2.25623,-4.8706 2.57095,-10.32459 2.14384,-15.60906 -0.10368,-3.54444 -2.24198,-10.34873 -2.89057,-13.75429 0.42626,-0.91645 -0.13949,-2.06857 -0.77082,-2.67378 -0.16647,-6.71204 -1.19504,-13.67254 -1.03579,-20.49894 -3.02269,-18.97678 2.98159,-39.02424 -4.60082,-57.3296 -2.11617,-7.37895 -8.93932,-11.87808 -16.33171,-12.76667 -2.74126,-0.81108 -5.61875,-1.547289 -8.43082,-2.481074 1.07816,-0.168208 1.5018,-2.174616 -0.26496,-2.770127 -2.12315,-1.878168 -4.56454,-3.487782 -6.09429,-5.949752 -2.27108,-4.199 -3.43067,-8.903882 -5.51616,-13.20026 -1.19497,-3.053656 -3.2718,-5.710607 -4.26359,-8.840319 -0.11672,0.0855 -0.27188,0.148598 -0.43358,0.216792 -0.65338,-2.608192 -1.26551,-5.213385 -1.78253,-7.756357 C 239.67607,47.084851 231.73765,35.032371 223.37394,23.7666 216.05738,13.639738 204.2839,7.1954141 191.77041,7.2662754 z m 43.76801,99.5559746 c -0.0428,-0.0944 -0.0737,-0.19422 -0.12044,-0.28906 -0.0323,0.10257 -0.0836,0.25108 -0.12045,0.36133 0.0844,-0.0313 0.15649,-0.0596 0.24089,-0.0722 z m -0.24089,0.0722 c -2.93029,1.08387 -5.85677,13.12804 -8.93666,15.36819 -0.5624,-0.53887 9.15157,-22.687293 -1.0358,-10.93599 -4.10876,7.27519 -3.81894,3.53795 -0.40949,-1.97522 5.82848,-17.250182 -9.78991,14.57093 -0.2168,4.93805 6.74984,-12.61163 4.54636,2.96458 0.48176,7.66001 1.4196,4.03667 8.34923,-9.76775 10.11699,-15.05504 z M 185.96518,8.7837849 c -0.38825,0.374741 -0.78364,0.7662318 -1.18031,1.132139 -7.0308,5.0642361 -15.8972,9.1837391 -19.12593,17.8733431 -3.96361,14.666601 -9.755,28.823253 -12.79076,43.743926 -1.07125,9.306272 -1.72141,18.690126 -1.99931,28.062596 0.47337,1.708821 0.92907,3.420131 1.3971,5.130761 -2.13941,-1.3539 -4.34677,-2.63197 -6.43151,-4.07089 -1.60722,-0.955765 -3.05169,-2.527763 -5.05849,-2.481067 -2.06223,0.436738 -3.54564,2.127217 -4.91396,3.613207 -0.13183,0.35379 -1.57285,1.20479 -0.77082,1.30075 1.23949,-0.53854 1.953,-1.83331 2.89056,-2.77012 0.7178,-1.278317 2.46983,-1.647661 3.70957,-0.939434 3.00228,2.168094 6.2156,4.025634 9.34617,5.997934 0.51731,0.42866 1.11986,0.73222 1.71024,1.05987 1.55282,1.70742 3.85981,1.30226 2.79422,4.48038 -0.0146,-0.002 -0.009,0.002 -0.0241,0 -0.57687,0.1126 -0.0418,1.11071 -4.52857,-1.97521 -0.53414,-0.60607 -1.12899,-1.16021 -1.73433,-1.68617 -2.07672,-1.86024 -4.97019,-1.55001 -7.53957,-1.39711 -1.69093,0.15472 -3.44833,0.0712 -5.08258,0.55403 -1.17508,0.36746 -0.79808,1.01464 0.28906,0.55402 2.47588,-0.18919 4.95833,-0.47163 7.44321,-0.40949 3.0953,0.12199 5.36798,2.68821 6.93736,5.10666 1.30523,1.59128 1.28366,3.69924 2.11976,5.49209 1.01215,1.08026 -0.4662,0.58031 -0.96353,0.16861 -2.57229,-0.90392 -3.83914,-3.48824 -5.82931,-5.15485 -1.17909,-1.20614 -2.83558,-0.42316 -3.90227,0.62629 0.0138,-0.17428 -0.0425,-0.36479 -0.14453,-0.57811 -0.49339,-0.82051 -1.85791,-1.88089 -2.67377,-0.91534 -0.0101,1.11431 2.01144,0.98005 1.78252,2.26427 -1.17796,0.29642 -2.34997,0.6017 -3.51686,0.93944 -0.33633,0.28352 -0.71103,0.52162 -1.03579,0.81899 1.17603,-0.38771 2.42575,-0.5829 3.58913,-1.0117 0.54028,-0.21747 1.3334,-0.53069 1.73434,-1.0117 0.33015,-0.15628 0.64907,-0.35767 0.93943,-0.57811 1.1096,-1.62816 2.04634,0.58472 3.20371,1.18031 1.59138,2.1537 3.68712,4.26319 6.43151,4.74535 1.99406,0.20522 1.59026,-2.0858 1.13215,-3.30006 -0.23918,-1.51627 -0.78366,-2.89829 -1.56573,-4.19132 0.11671,0.0596 0.2129,0.0967 0.31315,0.16861 0.38542,0.20899 0.82526,0.34193 1.27667,0.38541 2.10979,7.66579 4.28153,15.31397 6.79283,22.85957 1.26977,8.92617 9.22867,16.21213 18.18648,16.90982 3.17342,-0.12496 11.38796,2.1605 12.01995,-1.85478 -1.51824,-3.67356 -8.48355,-6.67003 -12.18856,-6.62421 -3.26293,-0.64324 -1.63722,0.67642 0.43358,1.05987 2.78442,1.02477 10.28913,3.05445 11.2973,5.87749 -4.14909,1.7663 -14.21625,0.51676 -18.11422,-1.30076 -6.79769,-3.56721 -9.8798,-11.06954 -11.7068,-18.11422 -2.06397,-6.25577 -3.51249,-12.71145 -5.27528,-19.05366 0.3244,-0.15861 0.6286,-0.3659 0.84308,-0.69856 0.86518,-1.39802 -0.0388,-3.22564 -1.27667,-4.07087 -0.39425,-0.2943 -0.79941,-0.56498 -1.20441,-0.84309 -0.38785,-1.1775 -0.83619,-2.35513 -1.27666,-3.51686 -1.27857,-7.683401 -0.11575,-15.60647 0.45767,-23.341336 0.12671,-5.518483 1.41881,-10.839415 2.86648,-16.139004 3.18691,-12.578291 7.76521,-24.784502 11.39365,-37.21606 3.20645,-8.366051 13.02039,-10.516664 18.52373,-16.8616451 z m 15.00687,10.2856411 c -1.90912,0.06771 -3.81518,0.477265 -5.61253,1.108052 l -0.67446,0.457673 -0.0482,0.09636 c 4.37299,-1.333399 9.47911,-1.731441 13.46522,0.963523 5.03659,2.920318 9.91539,6.694466 12.21265,12.236737 3.51588,6.686402 7.25149,13.282133 10.76737,19.944917 1.55976,2.838474 2.2733,0.08937 0.55402,-1.252579 -3.39672,-6.13801 -6.87047,-12.241427 -9.94837,-18.54781 -2.37802,-5.335975 -6.78627,-9.415007 -11.73089,-12.381265 -2.62315,-1.967699 -5.803,-2.738467 -8.98484,-2.625599 z m -11.63454,1.13214 c -0.82687,0.09341 -1.3617,0.889416 -1.10806,1.686164 1.04207,2.950734 1.94593,6.005522 1.78253,9.177553 -0.25184,2.032537 -0.23575,4.145463 0.48176,6.09428 0.1882,1.215997 1.6211,4.60892 2.45698,2.143839 -1.4772,-2.312762 -2.02257,-5.132069 -1.8066,-7.85271 0.71035,-3.884296 -1.19256,-7.502286 -1.80661,-11.249126 z m -1.03579,2.408807 c -2.99808,2.926173 1.71593,9.835578 0.21679,14.163781 2.54104,9.659986 -8.29287,7.428105 -12.38126,13.392964 -3.64183,7.421361 -0.81844,16.209709 -0.26497,24.088065 -0.26445,8.39444 2.57375,16.395617 5.32346,24.208505 3.29741,9.099352 -0.0333,18.466792 -2.24019,27.364042 0.11802,2.30077 -0.9417,4.62002 -2.07157,6.8892 -0.0908,-0.003 -0.17375,-0.0262 -0.26497,-0.0241 -0.0367,0.15638 -0.005,0.31321 0.0722,0.45766 -1.69725,3.37808 -3.43143,6.61695 -1.58981,9.41844 4.70589,-0.14026 -1.09932,-0.39536 0.14453,-3.13145 0.8749,-1.81204 1.62952,-3.6717 2.31244,-5.56434 1.26241,0.64108 3.44477,0.97031 4.60082,0.77082 0.9348,-0.21937 1.90005,-0.39639 2.8424,-0.6022 0.20704,0.66858 0.39887,1.33887 0.62629,1.99931 1.03256,4.63785 4.37362,8.88343 8.98485,10.35786 1.55097,0.24897 3.40843,1.33033 4.81761,0.19271 1.27913,-1.38919 0.0143,-3.58239 -1.54164,-4.11906 -4.17945,-1.79687 -7.42368,-5.20068 -9.37026,-9.24982 3.7626,-0.84681 7.52491,-1.79979 11.03234,-3.42051 4.95245,-1.94148 7.65499,-6.77644 9.92429,-11.27321 1.04779,-1.3464 0.85719,-1.91343 0.24087,-1.95113 0.0621,-0.0521 0.10633,-0.11667 0.16862,-0.16862 -0.0431,-0.0109 -0.11246,0.0645 -0.21679,0.16862 -0.76835,-0.0166 -2.12275,0.71411 -2.60152,1.71025 -2.54622,2.22949 -5.08635,4.55578 -7.27459,7.17825 -2.29854,3.15296 -5.65242,5.56391 -9.63522,5.90157 -0.70271,0.10095 -1.49973,0.18998 -2.31246,0.2168 -1.01559,-2.65738 -1.51333,-5.51437 -1.39711,-8.33448 0.1666,-10.83042 5.66321,-20.57844 7.29868,-31.14587 -0.34745,0.161008 -0.70575,0.268892 -1.01169,0.505849 -1.70423,7.196744 -3.9743,14.246781 -6.0461,21.342031 -0.64446,8.26974 -2.46434,10.84801 1.68615,21.26977 2.10673,4.36873 6.57299,6.54063 10.02065,9.63521 2.04909,1.1995 -0.2922,1.58318 -1.56573,1.10806 -2.96352,-0.79391 -5.8587,-2.45678 -7.61183,-5.0344 -4.26001,-7.78632 -5.46428,-13.87529 -5.6607,-23.05229 0.13954,-4.69979 0.95784,-9.41858 0.26498,-14.1156 -0.11952,-1.72469 -0.89535,-3.27962 -1.27667,-4.93806 -0.006,-0.02305 -0.0178,-0.04941 -0.0241,-0.07223 -0.0536,-0.240788 -0.11211,-0.475857 -0.14453,-0.722643 -0.34242,-1.699245 -0.55057,-3.807625 -1.68617,-5.178934 -1.01091,-3.030471 -2.04853,-6.061581 -2.69786,-9.081199 -0.63635,-6.953381 -1.55921,-13.895666 -2.07157,-20.860265 0.50422,2.49675 0.58146,4.93584 1.25258,7.660005 1.12243,3.937121 3.21076,7.48398 5.78113,10.646925 2.53965,3.958729 5.91952,7.265839 9.73158,9.996546 0.3421,0.320868 0.68892,0.61835 1.05988,0.891258 1.20541,0.886796 2.54307,1.541991 3.92635,2.095663 -0.12121,0.130707 -0.1756,0.293465 -0.0964,0.529937 2.05113,3.447391 3.32806,7.263126 4.40811,11.104596 0.46717,1.43603 0.33955,2.95591 0.50586,4.43221 -0.15551,1.95012 -2.58169,1.31278 -3.70957,1.10805 -1.43271,-0.19838 -3.36744,-1.87078 -4.45629,-0.45768 1.50337,0.0672 2.97951,0.4213 4.4322,0.79491 1.55391,0.69323 3.62015,0.53347 4.55265,-1.08397 0.99908,-1.95557 0.19628,-4.20341 -0.38541,-6.16654 -0.80053,-3.38325 -2.22078,-6.564539 -3.73365,-9.6834 0.52816,0.188619 1.06145,0.37064 1.58981,0.554025 2.58725,1.506218 5.1821,3.114792 8.11768,3.878179 2.07139,0.885496 4.35978,0.524403 6.28699,-0.554025 1.84338,-0.708159 3.8163,-1.373745 5.4439,-2.505159 0.33513,1.088387 0.78892,2.123595 1.39711,3.10736 0.10191,0.160962 0.22723,0.321585 0.33723,0.481761 -0.22077,0.374129 -0.43965,0.739879 -0.67447,1.108049 -1.60064,2.32266 -6.70442,10.5634 -0.7949,9.34617 2.22552,-1.97304 3.70552,-4.48863 4.79352,-7.20233 0.81752,0.46803 1.69992,0.77965 2.67378,0.81899 2.03982,-0.48178 0.42458,-3.04962 -0.50585,-3.950438 -0.34188,-0.299086 -0.59441,-0.665795 -0.79491,-1.059875 0.24479,-0.91917 0.4731,-1.832628 0.67447,-2.746039 0.95364,-7.146008 4.76706,-13.472298 5.97384,-20.54712 -0.083,-3.751971 1.6738,-9.906902 -1.99931,-11.875416 1.72998,5.967568 1.45416,12.463792 -0.62629,18.306929 -2.50137,4.678118 -3.41005,9.93492 -4.649,15.055041 -0.12816,-0.447984 -0.2673,-0.885331 -0.43358,-1.300755 -0.0861,-0.28686 -0.13957,-0.575817 -0.21679,-0.867171 1.21584,-2.717982 2.14364,-5.567866 2.67376,-8.527175 1.75384,-10.714563 1.66593,-22.104359 -2.26427,-32.350271 -0.4362,0.278968 -0.69197,0.611995 -0.81899,0.987611 -0.2039,-1.351774 0.0734,-4.839631 -1.92705,-3.878179 0.91617,7.107618 2.63276,14.127258 3.08327,21.293849 0.89209,6.16969 -2.61821,11.815547 -2.8183,17.897432 0.29414,6.455263 5.71503,12.382747 4.19132,12.598057 -2.31049,0.0806 -4.9958,-3.001194 -5.70887,-6.022015 -1.16536,-3.708829 -1.34759,-6.398931 -0.57812,-12.140385 0.49727,0.480945 1.0019,0.10659 0.84309,-2.023396 -0.0851,-0.459015 -0.18458,-0.926016 -0.31314,-1.37302 0.0776,-0.436445 0.16105,-0.867803 0.24087,-1.300756 0.6814,-3.30825 1.06299,-6.665556 1.58982,-9.996547 1.29339,-8.836755 -1.3507,-17.685591 -5.0585,-25.6297 -0.23262,0.385284 -0.3744,0.806511 -0.43358,1.252579 -0.1694,3.041351 2.04897,5.446356 2.93874,8.21403 0.4405,2.010559 1.01802,3.995342 1.30076,6.046104 0.89404,6.466987 -0.2157,12.846834 -1.30076,19.222276 -0.78031,-2.150444 -1.61701,-4.28021 -1.32484,-6.672394 -0.92791,-9.667963 -1.52353,-19.640657 -5.49208,-28.640709 -2.00925,-3.738439 -4.22656,-9.140561 -9.2739,-9.057112 -4.60463,0.636223 -10.53309,2.068078 -11.80316,7.298683 0.4422,-0.213995 0.83898,-0.543243 1.15623,-0.915346 1.33626,-3.269787 4.07443,-5.0619 7.58774,-5.203023 3.92516,-1.565415 7.23311,1.437422 9.03302,4.648998 2.11258,3.425358 3.52493,7.129266 4.52856,10.960069 0.36575,1.396043 0.69318,2.814372 0.96353,4.239499 -0.51447,-0.05243 -1.12585,0.07181 -1.56573,0.144529 -2.64177,0.02191 -4.93193,1.501984 -7.0578,2.914655 -0.92536,1.126721 -1.75916,2.367483 -2.40881,3.685474 l 1.25258,-0.578114 c 0.62887,-1.296478 1.43341,-2.491359 2.36063,-3.589121 1.14929,-0.815861 2.52653,-1.350024 3.92636,-1.541636 0.78683,-0.07335 1.57574,-0.22864 2.36063,-0.24088 1.43255,0.130416 0.90511,1.843871 0.43359,2.673774 -0.51501,0.945809 -1.20491,1.84003 -2.04749,2.505159 -1.95933,0.448048 -4.0143,0.475457 -6.02202,0.62629 -0.54075,-0.118835 -2.10112,0.230616 -1.73434,0.843082 1.13114,-0.04375 2.26764,-0.159535 3.39641,-0.24088 2.34785,-0.017 4.85209,-0.686381 6.45561,-2.505159 0.42403,-0.5039 0.84435,-1.058312 1.15622,-1.662077 0.62041,4.059713 0.98319,8.173021 1.4212,12.188561 -0.006,1.284004 0.0518,2.563836 0.1927,3.830002 -1.35486,-0.485278 -2.81329,-0.880865 -3.87817,-1.902957 -0.1281,0.118411 -0.40081,0.108035 -0.0722,0.457673 1.01268,0.829401 1.38061,1.219354 2.60152,1.637989 0.26756,0.07369 0.91133,0.253897 1.42119,0.337233 0.28185,2.109868 0.84338,4.146183 1.90296,6.070192 -0.0856,0.414823 -0.0872,0.853411 -0.0482,1.25258 -0.29859,1.906579 -0.57878,3.797234 -0.74673,5.708871 -0.31565,2.391925 -0.25902,4.89269 0.36132,7.226419 -0.58142,0.517681 -1.14017,0.992752 -1.56573,1.083963 -2.64888,1.400507 -5.82322,3.013922 -8.84032,1.73434 -3.43998,-0.684085 -6.09811,-3.100831 -9.29798,-4.311763 -2.88727,-0.697513 -5.35401,-2.308939 -7.63593,-4.143147 -3.56656,-2.536022 -6.58943,-5.7787 -9.00893,-9.418433 -2.50382,-3.224217 -4.68641,-6.737867 -5.75705,-10.719189 -0.66331,-3.225805 -1.61592,-5.851177 -2.52925,-8.768055 -0.1067,-1.703818 -0.19858,-3.399667 -0.24087,-5.10667 -0.67832,-8.017829 6.82701,-9.949199 12.64623,-11.538183 2.94176,-6.875563 1.16287,-14.66183 0.0722,-21.799699 z m 27.53266,28.905677 c 0.004,-0.02808 -0.0961,-0.0099 -0.36132,0.09636 -0.22309,-0.0085 -0.91958,0.416544 -1.05988,0.529938 -0.002,-0.0012 -0.0541,0.03023 -0.0482,0.02409 -1.03183,0.380432 -2.01331,0.921997 -3.13146,0.98761 -2.18641,0.812822 -4.06713,2.231271 -5.90157,3.637298 -1.19609,0.999977 -2.79387,1.843021 -3.25188,3.444593 l 0.16861,-0.09636 0.16862,-0.07226 c 0.99766,-0.19386 1.14012,-1.155821 1.78251,-1.782517 1.79249,-1.605131 3.67427,-3.182974 5.8534,-4.239499 1.63098,-0.308255 3.17639,-0.94758 4.60082,-1.806605 0.2055,-0.12455 1.17001,-0.638381 1.18031,-0.722642 z M 195.8172,22.706725 c -0.3023,0.219621 -0.61305,0.430758 -0.91535,0.650378 2.36383,0.968277 4.83829,1.651457 7.22642,2.553334 5.37152,1.786375 9.34531,6.045244 12.76668,10.357868 1.86436,2.571959 4.27536,4.660615 6.14245,7.226419 1.5524,1.036213 1.82965,5.16575 4.0468,4.215412 -1.49526,-2.180647 -2.80177,-4.513395 -4.52856,-6.527866 -3.71957,-3.629514 -6.49947,-8.107874 -10.40604,-11.562271 -3.89272,-3.879433 -9.47466,-4.810974 -14.3324,-6.913274 z m -12.21265,2.192013 c -0.28017,0.04605 -1.00494,0.428086 -1.15623,0.554026 -2.28196,1.863916 -4.14658,4.187745 -6.2388,6.262897 -2.98799,2.565906 -3.76166,6.618397 -4.62492,10.261515 -0.29941,2.76741 -2.82946,4.304759 -4.93805,5.708871 -2.05834,1.546276 1.1689,-0.258507 1.78251,-0.939434 2.28482,-1.162891 3.93431,-3.267071 4.31178,-5.8534 0.49857,-3.684578 1.97908,-7.321595 4.67308,-9.948371 2.26686,-1.611287 3.44138,-4.418128 5.99793,-5.660695 0.36201,-0.323015 0.36081,-0.413037 0.1927,-0.385409 z m -5.0585,17.536111 c -1.14594,0.03098 -2.22368,0.132654 -2.52924,0.264969 -6.75953,1.148859 -9.71392,7.65214 -11.77906,13.392965 -4.61998,9.61256 0.21646,20.025398 3.68547,29.146557 3.53222,7.869344 5.89314,16.34651 5.51617,25.05159 0.72662,5.2101 -2.31663,12.42716 -0.0482,16.28354 0.11816,-5.48661 0.76179,-10.94301 0.91535,-16.42807 1.1691,-13.114799 -5.96071,-24.741102 -9.58705,-36.878828 -2.24072,-6.316021 -2.08317,-13.337592 1.25258,-19.246363 1.35835,-7.013383 8.14446,-13.110578 15.56088,-10.550572 1.0181,-0.895764 -1.07699,-1.08742 -2.98692,-1.035788 z m 34.63865,14.525103 c -1.11869,0.01234 -2.2487,0.678377 -3.17963,1.25258 0.13813,0.150093 1.36138,-0.400671 1.92704,-0.409497 1.51414,-0.445206 2.57017,1.633392 1.44529,2.649687 -1.22281,0.605458 -3.02893,-0.0069 -3.56504,-1.300755 -1.37544,-0.01345 -1.14838,1.890189 0.0722,1.97522 1.28181,0.75295 2.93662,0.324065 4.07088,-0.505849 1.2276,-0.626448 1.52975,-2.618089 0.31315,-3.420504 -0.36875,-0.169818 -0.71107,-0.244994 -1.08397,-0.240882 z m 12.38126,0.07227 c 0.63263,1.762877 2.01323,3.769025 1.71025,5.395726 1.68003,10.149473 1.70563,21.127252 -1.87887,30.856811 -0.70432,-3.517251 -0.65835,-7.244534 0.89126,-10.526484 2.36611,-6.630384 1.35861,-13.783477 0.19271,-20.547119 -0.24829,-1.741841 -0.67619,-3.442891 -0.91535,-5.178934 z m -12.91121,1.830692 c -0.0445,-0.0047 -0.0932,0.01502 -0.14453,0.02409 -0.22534,0.03983 -0.51088,0.19345 -0.74672,0.337232 0.28433,-0.191775 0.5516,0.07538 0.86716,-0.09636 -0.34676,0.223177 0.16815,0.195879 0.26498,0.04817 -0.0156,-0.207607 -0.10719,-0.299224 -0.24089,-0.313145 z m -0.89125,0.361321 c -0.12236,0.07459 -0.23321,0.148544 -0.31315,0.192705 l 0.0964,-0.02409 0.0964,-0.04817 c 0.0422,-0.04859 0.0798,-0.09304 0.12044,-0.12044 z m -19.63178,3.950443 c -1.62876,-0.04256 -3.23422,0.198983 -4.8417,0.433586 -1.43318,0.272429 -2.90201,0.322739 -4.33585,0.578113 -1.63019,0.421774 -3.4899,1.259667 -3.95044,3.035097 0.36141,-0.191947 0.74893,-0.314892 1.08396,-0.554026 0.64995,-0.537066 0.62862,-1.722411 1.73434,-1.686165 2.38134,-0.289634 4.74755,-0.636059 7.13007,-0.915346 1.08415,-0.14092 2.51662,0.205988 3.17962,-0.891259 z m -0.28905,2.095662 c -3.27214,0.233501 -6.95909,1.407104 -8.67171,4.432204 0.50981,-0.338613 0.99886,-0.710662 1.4212,-1.156227 0.73927,-1.355244 2.21095,-1.754014 3.61321,-1.99931 0.51412,-0.183692 1.04981,-0.314746 1.58981,-0.385408 -0.40829,0.22795 -0.8123,0.473204 -1.18031,0.746729 -0.539,0.26583 0.0444,0.330314 0.31314,0.144529 0.57285,-0.381997 1.1658,-0.859786 1.90296,-0.770819 0.85779,-0.0435 1.56793,0.662043 1.56573,1.517549 0.30627,1.035291 -0.8403,1.345796 -1.61391,1.108051 -0.87851,0.07944 -1.93807,-0.513646 -1.97522,-1.469373 -0.4084,0.278478 -1.2766,0.355766 -1.18031,1.035788 0.31509,0.853613 1.31908,1.223509 2.16792,1.276667 1.46961,0.0953 3.21068,-0.54512 3.70957,-2.047486 0.14307,-0.349894 0.0948,-0.705365 -0.0241,-1.035786 0.12172,0.0511 0.24241,0.06181 0.36132,0.12044 1.91108,0.940038 -0.0814,2.391515 -1.39711,2.36063 -1.74891,1.011679 -3.82999,1.139444 -5.80523,1.035788 -0.58607,-0.178216 -2.89834,-0.129634 -2.21609,0.746729 1.54761,0.140247 3.14725,0.16491 4.69717,-0.09636 1.37744,-0.388911 2.70352,-1.005658 4.07088,-1.445284 1.0844,-0.515723 2.64937,-0.784423 3.0351,-2.095662 -0.47977,-1.63493 -2.89269,-1.863325 -4.38403,-2.023397 z m -0.52994,2.023397 -1.10805,0.867171 c -0.0167,0.04541 -0.074,0.04798 -0.0722,0.09636 l 1.2285,-0.674465 c 0.23531,-0.225257 -0.0102,-0.09181 -0.0482,-0.289058 z m 7.87679,4.817613 c -0.41759,0.07192 -0.88109,0.260835 -1.03578,0.698554 0.1055,2.121857 1.35069,4.174998 0.72264,6.407425 -0.46891,2.814967 3.15287,3.503037 5.08259,2.336543 2.08679,-0.568525 4.10974,-1.241434 5.32345,-3.179625 1.53537,-0.838642 4.09993,-2.467369 2.62561,-4.504468 -2.40696,-0.826407 0.26103,2.788273 -1.49347,3.396417 -1.90545,0.399769 -2.50234,2.426173 -4.26359,3.035097 -1.83777,0.797064 -4.47795,1.946415 -5.8534,-0.264969 -0.15606,-2.596431 -0.095,-5.367788 -1.10805,-7.924974 z m 18.49964,9.249818 c -1.26128,0.711541 -2.73604,0.744825 -4.14315,0.794906 -1.48588,-0.04217 -3.16301,0.214633 -4.16723,1.421195 -0.79846,1.278864 -2.47283,1.073958 -3.70957,1.589813 -1.77844,0.501262 -2.59436,2.556271 -4.4322,2.914656 l -0.16862,0.144528 c -1.15114,0.619051 0.15097,0.499458 0.77082,0.144528 l -0.65037,0.529937 c 0.12078,-0.03615 0.23976,-0.06359 0.36131,-0.09636 -0.0825,0.148121 -0.0559,0.348171 0.14453,0.602202 1.32831,0.208892 2.67964,0.248003 4.02272,0.216793 1.72397,-0.126954 3.5145,0.0039 5.15484,-0.626291 2.49705,-1.042068 4.55685,-3.028836 6.02201,-5.275285 0.2278,-0.742876 1.92541,-1.723797 0.79491,-2.36063 z m 0.31314,0.409496 c -0.31097,0.181474 -1.13114,0.711897 -1.32484,1.011699 -0.86858,1.203586 -1.63007,2.513969 -2.69786,3.565033 -0.90798,1.0341 -1.9443,2.063727 -3.39642,2.216103 -2.30097,0.105995 -4.64538,0.561371 -6.93736,0.12044 -0.1445,-0.101625 -0.36045,-0.180672 -0.62629,-0.216793 0.71888,-0.137668 1.44889,-0.251733 2.16792,-0.385408 3.07966,-0.444238 5.75185,-2.147223 8.26221,-3.878179 0.6339,-0.255912 1.48147,-0.785409 2.07157,-1.324844 -0.29946,0.05989 -1.61419,0.786604 -2.26428,1.156227 -1.18666,0.60537 -2.1406,1.599062 -3.39641,2.071574 -2.32289,1.234272 -4.98289,1.289664 -7.49138,1.902957 0.86109,-0.489223 1.5896,-1.15746 2.31244,-1.830692 0.93832,-0.99791 2.38072,-0.472643 3.49277,-1.083964 1.05201,-0.400879 1.68313,-1.413502 2.60152,-1.999309 2.45706,-0.03199 4.97085,-0.279167 7.22641,-1.324844 z m -77.99715,0.529938 c -1.34747,0.309753 -2.64368,0.832614 -3.83,1.541636 -1.23911,0.888714 -2.67181,1.413572 -3.97453,2.192013 -1.04855,0.576249 -1.78312,1.546386 -2.57742,2.408807 -1.22415,1.355376 -2.4593,2.954808 -2.50516,4.865789 -0.0838,1.695191 0.98093,3.104046 1.49345,4.648997 0.0975,0.322656 0.5604,0.327852 0.89127,0.144529 0.0945,2.763297 0.24392,5.548217 0.33723,8.310387 -0.0608,0.70159 0.0674,1.05505 0.24087,1.2044 -0.60324,0.78424 -1.02367,1.78779 -0.62628,2.74604 0.92316,1.56774 1.94541,3.13068 2.69787,4.79352 1.25329,2.40409 2.04379,5.00393 3.37232,7.37095 1.11633,1.65667 2.43558,3.27321 2.93874,5.25119 0.23062,0.64604 0.37146,1.32628 0.60221,1.97523 0.0866,0.4829 0.52859,0.57493 0.89126,0.45768 0.61182,2.96447 0.45428,6.0098 -0.024,8.98484 -0.47721,4.49822 -0.89405,9.00048 -2.04748,13.39297 -1.07161,3.47204 -0.54567,7.15382 -1.2285,10.69509 -0.43714,5.22767 -3.66888,9.78967 -3.80591,15.05504 0.12843,3.41259 -0.57755,6.75777 -0.86717,10.14108 -0.64094,4.13028 0.63264,8.1498 1.37301,12.16447 1.07382,4.20247 1.75061,8.51907 3.32416,12.57397 1.9195,2.68978 5.27658,4.69563 8.40673,5.51617 5.16854,-0.3949 8.78272,-4.66799 12.21265,-8.09359 2.40474,-2.06634 3.42925,-5.21765 5.6607,-7.44321 2.2771,-2.36154 2.59905,-5.70074 2.72195,-8.81624 5.14195,2.67469 11.47328,2.98686 16.958,0.89126 5.63488,-2.27992 12.22925,-4.59486 14.59736,-10.79145 0.24206,-1.79817 4.16134,-7.29111 1.75843,-7.27459 -1.6452,4.25828 -2.87734,9.16663 -6.21472,12.67032 -6.75909,4.59336 -15.6125,7.69072 -23.65448,4.81761 -7.74889,-3.16773 -13.54185,-10.90993 -14.54919,-19.17409 -0.14964,-6.46147 2.41685,-12.67521 5.10667,-18.42738 2.48887,-3.22687 6.17809,-5.60867 9.58705,-7.90089 l 0.72264,-0.55402 c -2.88087,0.64073 -5.8407,4.29746 -8.84031,6.02202 -4.23387,3.08916 -5.01335,8.84354 -6.72058,13.48931 -2.9017,7.67091 0.24968,16.30744 5.80523,21.92014 -0.22266,0.20101 -0.35439,0.49584 -0.1927,0.86718 0.31419,2.66844 0.29206,5.38752 0.26496,8.0695 l 0.0482,-0.0482 c 1.27821,-0.20699 1.39764,-1.69103 1.13214,-2.72195 0.16232,-1.65631 -0.0173,-3.28377 -0.12043,-4.93806 1.12611,1.09573 2.39067,2.01061 3.73364,2.77014 -0.83182,0.32863 -0.8324,2.96282 -0.91535,4.0227 -0.0873,3.51954 -2.93084,5.90701 -4.76943,8.59944 -1.72109,3.34805 -4.6718,5.75242 -7.29869,8.35856 -1.96694,1.97721 -5.23828,3.8364 -7.94906,2.31245 -2.91815,-1.64874 -6.54253,-3.3111 -7.13006,-7.00963 -1.1462,-4.51196 -2.23937,-9.06251 -3.13145,-13.63384 -1.4024,-4.78953 -0.79457,-9.78794 0.024,-14.62146 0.15742,-3.54023 -0.0231,-7.24617 1.51755,-10.55057 2.15585,-5.12941 2.91304,-10.68233 3.01101,-16.21127 0.82926,-4.70488 2.16319,-9.33614 2.38472,-14.13969 0.51088,-4.05089 1.20163,-8.18959 0.1927,-12.23674 l -0.5781,0.31315 c -0.007,-0.0156 -0.0154,-0.008 -0.0241,-0.0242 -0.48282,-0.99813 -0.71914,-2.10476 -1.13215,-3.13145 -0.64537,-1.89629 -2.16501,-3.29591 -3.05918,-5.05849 -1.06612,-2.26952 -1.87231,-4.63893 -3.03509,-6.8651 -0.67603,-1.75997 -1.99156,-3.19384 -2.69787,-4.93805 0.0912,-1.48573 1.16753,-2.66543 2.21611,-3.61321 -0.0548,0.0235 -0.0907,0.0464 -0.14453,0.0722 -0.47308,0.1188 -0.92199,0.35464 -1.30076,0.65037 0.0673,-0.39173 0.0246,-0.8155 -0.24088,-1.15623 -0.1488,-4.38486 -0.47002,-8.767435 -0.38541,-13.15208 0.16005,-2.676141 3.36601,-1.703377 5.15484,-2.047485 2.3851,-0.355586 4.79955,0.254008 6.76875,1.637988 1.82725,1.402134 4.12048,2.331563 5.39573,4.335852 1.46195,1.416841 0.0575,1.758598 -1.39711,1.541636 -3.00364,0.08048 -5.438,-2.449837 -8.45491,-2.023397 -2.37738,-7.48e-4 -4.5928,2.76181 -2.48107,4.697176 0.40694,-0.0876 0.88007,-0.273814 1.0117,-0.722646 -0.91579,-1.124647 -0.92093,-3.337079 1.05987,-3.348241 2.44715,0.332285 4.63935,1.789655 7.10598,2.11975 1.72832,0.305021 4.591,0.132843 4.81762,-2.095661 -1.02516,-2.592955 -4.00479,-3.696582 -6.09429,-5.323463 -2.28486,-1.854511 -5.3304,-1.823671 -8.09359,-1.517548 -2.39368,-0.212576 -5.96195,0.340054 -5.99793,3.396417 -0.0348,1.155649 -0.0438,2.312878 -0.024,3.468682 -0.18124,-0.375289 -0.40386,-0.737111 -0.57811,-1.108052 -0.91409,-1.680815 -0.53199,-3.8033 0.52994,-5.323462 0.7871,-1.02676 1.64832,-2.014795 2.52924,-2.962831 0.50169,-0.641105 1.27157,-0.941724 1.95113,-1.348933 0.78239,-0.405835 1.48495,-0.895089 2.28838,-1.252579 0.76,-0.310092 1.51799,-0.969472 2.38471,-0.843082 0.64399,0.175268 0.62007,0.953518 0.57811,1.49346 -0.17259,1.482676 -1.29677,2.588022 -2.16792,3.709562 0.84081,-0.306184 1.55654,-0.902312 2.11975,-1.589812 1.15957,-1.197312 1.65744,-3.099737 0.93943,-4.648997 z m 82.83886,18.114228 c 0.58758,0.75892 1.25829,1.47277 2.02339,2.04749 -0.70225,1.98118 -1.57477,3.90264 -2.74604,5.70887 -3.87379,3.90573 -2.7776,-3.09966 -1.05987,-4.8658 0.60641,-0.94846 1.21089,-1.91581 1.78252,-2.89056 z m -79.17747,13.65793 -1.2044,0.67446 c 0.64517,1.45325 1.15807,2.95301 1.85477,4.38403 0.94372,1.53208 2.03166,2.95716 3.05919,4.43221 1.29492,1.94512 2.60873,3.89327 3.58912,6.02202 1.29436,2.90752 2.71716,5.71677 4.19133,8.52717 0.87746,3.15439 1.49383,6.35254 1.9993,9.58705 0.41612,2.67053 0.91396,5.34578 1.08397,8.04541 l 1.22849,-0.62629 c -0.22403,-2.69179 -0.71819,-5.35297 -1.13214,-8.02133 -0.49015,-3.24673 -1.09528,-6.47075 -1.97522,-9.63522 -1.46499,-2.82058 -2.96184,-5.60544 -4.2395,-8.52717 -0.96488,-2.1435 -2.24475,-4.11784 -3.54095,-6.0702 -1.02683,-1.4736 -2.16446,-2.87723 -3.10735,-4.40811 -0.69829,-1.42474 -1.17785,-2.92972 -1.80661,-4.38403 z m 38.68543,1.95113 c -0.14252,5.11001 0.54054,10.21883 1.83069,15.17548 -1.77795,-0.48877 -3.24669,-1.51501 -3.68547,-3.54094 -3.09389,0.99991 0.89475,3.93588 2.36062,4.23949 0.53061,0.13388 1.07208,0.21248 1.61391,0.28906 0.12344,0.44467 0.22849,0.90736 0.36132,1.34894 -2.38276,1.15884 -4.6089,-0.25683 -6.91328,-0.69856 1.87867,-5.46806 3.1295,-11.17513 4.43221,-16.81347 z m 27.17134,0.69856 c -0.7567,0.86316 -2.38064,3.46019 -2.81831,4.79352 -1.37149,3.68358 -4.17837,6.76826 -7.82862,8.28629 -3.38791,1.38219 -6.97832,2.12284 -10.55057,2.91467 -0.0612,-0.13616 -0.13431,-0.27207 -0.1927,-0.40951 3.79261,-0.31375 7.51549,-1.8946 10.2856,-4.48037 3.42122,-3.96809 7.09539,-7.72121 11.1046,-11.1046 z m 54.96896,44.77971 c 0.19499,0.90544 0.42617,1.78498 0.67447,2.55333 5.44901,11.85258 4.80018,25.19754 5.05849,37.91461 0.24473,6.15336 -0.0292,12.25541 -1.13214,18.33102 0.73016,11.75071 -0.24782,23.54236 0.31314,35.31311 0.81877,5.10078 -0.24325,10.08721 -1.08395,15.07913 -0.54855,-2.31871 -1.4302,-4.59986 -1.73434,-6.96145 -0.34722,-5.54949 -4.02283,-10.01243 -6.02202,-15.00687 -2.98321,-5.38028 -5.15271,-11.16296 -7.25051,-16.93391 -0.51701,-1.83093 -1.53988,-3.44964 -1.99931,-5.27529 -0.24937,-1.22139 -0.7918,-5.38299 -2.55334,-5.34755 -0.0166,0.0223 -0.0313,0.0493 -0.0482,0.0722 0.008,-0.023 0.0165,-0.0493 0.0241,-0.0722 0.008,-2.6e-4 0.017,1.5e-4 0.0241,0 0.29093,-0.38768 0.48892,-0.56867 0.0482,-0.21679 0.23114,-0.71036 0.46561,-1.41002 0.69855,-2.11974 1.43256,-4.72445 3.37797,-9.2822 4.8417,-13.99518 1.15012,-3.27689 1.20367,-6.7546 1.15623,-10.18925 l -0.45768,0.2168 c 1.64555,-1.98968 2.93509,-4.24607 3.75774,-6.76875 1.67774,-4.15459 2.23299,-8.49931 2.38472,-12.88711 0.58371,-0.63807 0.77552,-2.2415 0.93944,-2.96283 0.24833,-1.98375 0.67473,-3.94344 1.08396,-5.90158 0.40469,-1.58362 0.0783,-3.60033 1.27667,-4.8417 z m -100.3027,1.68617 c -1.00866,0.0854 -2.04959,0.5087 -2.86648,0.9876 -1.7515,0.66488 -2.95646,2.23297 -3.46868,3.99862 -0.59443,2.25061 -1.12065,4.84026 -0.0722,7.03372 0.43289,0.57651 0.79254,0.70083 1.03578,0.55402 -0.063,0.29228 0.42677,0.47668 1.13214,0.65038 1.70266,0.68432 3.73022,0.43822 5.13076,-0.77082 1.87326,-1.38138 2.46396,-3.7704 2.6256,-5.97383 0.0563,-1.81874 0.31489,-3.89783 -0.84308,-5.44391 -0.69552,-0.87178 -1.66511,-1.12121 -2.67378,-1.03578 z m -0.84309,0.7949 c 1.50691,0.0343 2.92631,0.88921 3.05919,2.60151 0.25877,2.6468 0.23729,5.56394 -1.15623,7.92497 -1.05291,2.3244 -3.85184,1.35856 -5.6366,0.60221 -0.27076,0.12247 -0.44531,0.23292 -0.57812,0.33723 0.25625,-0.5488 0.12615,-1.59655 -0.55402,-2.0234 -0.23412,-1.77477 -0.0283,-3.58369 0.45768,-5.29937 0.47255,-1.56715 0.99974,-3.61125 2.91465,-3.90227 0.47516,-0.17167 0.99116,-0.25234 1.49345,-0.24088 z m -2.26427,3.90226 c -0.76165,0.046 -1.38872,0.76763 -1.6139,1.46938 -0.27257,0.95761 -0.27161,2.21323 0.6022,2.86648 0.13118,-0.10004 0.25191,-0.1921 0.38541,-0.28906 0.44182,-0.11628 0.55324,-0.41514 0.48176,-0.72264 0.51364,0.22983 1.34463,-0.43476 1.34894,-1.05987 0.10313,-0.81416 0.0879,-1.97274 -0.89127,-2.24019 -0.11397,-0.0228 -0.20434,-0.0303 -0.31314,-0.0242 z m -0.33723,1.05988 c 0.56958,0.58053 0.34851,1.45691 0.16861,2.16793 -0.0572,-0.1671 -0.16158,-0.33632 -0.28906,-0.48176 -0.20708,-0.56055 -0.0525,-1.12759 0.12045,-1.68617 z m 80.16508,3.49277 c -1.0174,0.0338 -2.02689,0.21653 -2.98692,0.50585 -2.56894,0.88389 -5.4411,2.6381 -5.68479,5.63661 -0.22022,2.74412 0.22957,6.17095 2.89057,7.63591 2.05969,1.07272 4.5907,1.38126 6.86509,1.0117 2.00204,-0.90427 -0.15487,-0.67079 -1.22848,-0.67447 -2.52314,-0.11063 -5.62472,-0.82137 -6.62422,-3.46868 -0.93191,-2.44718 -1.32176,-5.56422 0.4095,-7.75636 1.91153,-2.33774 5.35286,-2.2177 8.06949,-1.85477 3.30504,0.13544 4.06965,3.82676 3.54096,6.47968 0.13317,2.93175 -2.42146,4.88889 -3.32416,7.46731 1.14833,-0.2231 1.63278,-1.42082 2.11975,-2.33654 1.30849,-1.63771 2.34096,-3.57802 2.50516,-5.70888 0.0788,-2.01464 0.22363,-4.61588 -1.6139,-5.92567 -1.50865,-0.73366 -3.24241,-1.06807 -4.93805,-1.01169 z m -0.36133,5.78114 c -0.70337,0.0144 -1.32028,0.47088 -1.87886,0.86717 -0.87358,0.6572 -1.16691,1.84857 -1.0117,2.89056 0.25865,-0.25832 0.67642,-0.23054 0.93943,-0.48176 0.28171,-0.4691 0.32109,-1.01736 0.43359,-1.54164 -0.0522,-0.32466 0.45388,-0.70915 0.16861,-0.93942 0.0579,-0.0472 0.62289,0.004 0.84308,0.14452 0.44726,0.18129 0.61341,0.68708 0.52995,1.13214 -0.0936,0.3101 -0.11043,0.73767 -0.4095,0.91534 -0.4627,-0.0323 -0.84535,0.41577 -1.13214,0.74673 0.58802,-0.1186 1.15095,-0.36071 1.66207,-0.67446 0.62172,-0.28136 1.06656,-0.90251 1.10805,-1.58981 0.0711,-0.62631 -0.29157,-1.33344 -0.93943,-1.46937 -0.10345,-0.0172 -0.21266,-0.002 -0.31315,0 z M 165.44215,201.392 c -2.44085,0.5001 -0.0279,2.38761 -0.16862,3.90226 0.9189,4.89532 0.33185,9.89178 0.50585,14.83825 0.14431,4.24495 -0.36727,8.51794 -1.73434,12.54988 -0.55228,2.47986 -2.79798,3.83935 -4.6249,5.34755 -2.08906,1.52433 -3.72955,3.55841 -4.93807,5.82932 -2.77739,-1.01856 -5.77024,-1.45453 -8.67169,-2.0234 -4.72187,-1.46783 -9.52742,-2.62415 -14.26014,-4.07089 -5.121,-1.1249 -10.08621,-2.98464 -15.29592,-3.70956 -6.28285,-0.46586 -12.60821,-0.58554 -18.909132,-0.6022 -4.37636,-0.42055 -8.333632,2.18728 -11.008245,5.4439 -2.332843,3.02775 -4.494177,6.18187 -6.937363,9.12938 -2.066304,2.54543 -3.577943,5.50187 -4.480379,8.64761 -0.617458,2.28883 -2.749329,4.21549 -2.74604,6.57604 1.993987,-1.27012 2.364089,-4.69314 3.854091,-6.76874 0.837892,-3.60764 2.85089,-6.82562 5.154845,-9.68341 2.963582,-3.32961 5.007307,-7.42347 8.358559,-10.40604 3.038375,-2.8848 7.473766,-2.06937 11.273214,-2.11975 6.92295,0.33364 14.06627,-0.18736 20.76391,1.95113 7.63517,1.97715 15.22594,4.04227 22.78732,6.28699 3.59703,0.82576 7.36713,1.21404 10.74326,2.84239 0.21973,-0.15746 1.22738,-0.39127 0.91535,-0.84308 -0.27006,-0.12846 -0.54404,-0.24744 -0.81899,-0.36133 0.4131,-0.51786 0.79126,-1.22065 1.0117,-1.71024 1.77923,-3.40389 5.33302,-5.23314 7.92497,-7.90089 1.19033,-1.75818 1.61397,-3.92358 2.09567,-5.97384 0.8035,-3.43099 0.81575,-6.95277 0.77081,-10.45422 -0.20222,-5.57943 0.72112,-11.436 -1.56572,-16.71711 z m -7.41912,44.7797 c 5.38354,4.04087 11.21687,7.14663 13.85063,13.05574 0.87314,1.89784 1.97409,3.71591 3.08328,5.49207 1.85665,3.18445 4.6441,7.35611 6.35712,10.62142 3.22638,7.66239 6.10137,13.97574 7.44392,21.60086 0.82378,2.75012 0.60667,6.97199 1.68758,8.77561 -0.44004,-3.07028 -1.12322,-6.33095 -1.32484,-9.15346 -2.04686,-7.78873 -4.37152,-16.18075 -7.92498,-22.69096 -1.74536,-3.25672 -3.4348,-6.00041 -5.33101,-9.1707 -1.10922,-1.76713 -2.75756,-3.96193 -3.62833,-5.85269 -2.95432,-6.49448 -7.91042,-9.49993 -14.21337,-12.67789 z m 79.94828,34.22914 c -0.0417,0.005 -0.0722,0.0257 -0.14453,0.0482 -0.26391,0.082 -1.04418,0.62895 -0.74673,0.36133 -3.59878,2.65224 -6.56028,6.24374 -9.53887,9.56296 -3.76034,4.2732 -6.05419,9.7102 -9.77975,13.99516 -0.87924,0.91093 -1.90363,1.66284 -2.81831,2.52925 l 1.0117,-0.43359 c 0.9178,-0.84406 1.94301,-1.58599 2.79422,-2.50515 3.68062,-4.3019 5.9372,-9.72185 9.70748,-13.97108 2.17118,-2.40571 4.34431,-4.82707 6.6724,-7.08189 0.81549,-0.78983 3.467,-2.58073 2.84239,-2.50516 z m 50.63311,0.79491 c 0.81638,-0.0329 1.88311,0.57461 2.26428,1.39711 1.30027,1.72032 -0.67228,2.32296 -2.09566,2.31246 -0.67463,0.1025 -1.13841,0.45432 -1.44529,0.91534 0.0663,-1.0457 0.14283,-2.09619 0.28906,-3.13144 -0.13969,-1.04101 0.35266,-1.46796 0.98761,-1.49347 z m -184.92407,0.77082 c -1.95898,1.23031 -0.50822,0.64096 0.86717,0.86717 4.19703,0.17776 7.65032,2.80854 10.57466,5.58843 2.34336,2.63123 5.20032,4.67981 8.18995,6.50378 3.20727,2.7218 7.17204,4.19817 11.00824,5.78113 3.24123,0.93178 6.09897,2.5983 9.0812,4.09498 5.94226,2.23471 12.23741,3.37137 18.33101,5.10666 3.14357,1.20062 6.47538,1.4472 9.80385,1.51756 5.83442,0.81187 11.50339,-1.0479 17.07844,-2.48108 2.83695,-0.16499 6.28534,-3.06047 8.71988,-1.34893 0.004,3.02293 3.74213,4.92379 5.56434,3.46869 0.60804,1.47827 3.30553,1.82695 4.79352,1.13213 -0.31028,0.32976 0.35884,0.24658 1.58981,0.16862 3.95591,-1.62059 6.23085,2.73211 8.59944,5.10667 4.78436,4.84375 9.01359,10.22094 14.23605,14.62145 3.17926,2.41868 4.29245,6.43708 7.00962,9.24982 3.26129,4.31254 8.44354,6.24802 12.79077,9.17755 4.13121,3.35166 8.58214,6.24202 13.17617,8.91259 3.30299,1.73062 5.07812,5.30648 8.50309,6.8651 4.26768,2.01956 8.07794,5.20662 10.18925,9.49069 2.18052,3.29294 2.35792,7.29052 2.67378,11.1046 0.79971,1.07788 -0.86636,5.57463 1.15622,4.26359 0.76188,-3.49439 -0.34533,-7.94094 -0.74672,-11.73089 -1.10978,-3.15715 -2.63916,-6.31063 -5.01032,-8.71988 -2.73544,-3.64696 -7.49698,-4.61085 -10.67101,-7.70818 -1.95622,-2.47055 -4.60523,-4.21287 -7.32278,-5.75705 -5.43632,-2.69763 -9.64573,-7.21018 -15.03095,-9.97246 -4.73611,-2.33934 -8.77903,-6.00974 -11.41774,-10.59875 -1.5754,-3.41223 -4.66989,-5.66474 -7.34687,-8.16584 -4.57358,-4.61872 -8.94162,-9.45594 -13.3207,-14.26014 -1.92906,-3.08743 -4.95654,-3.25843 -8.18993,-2.69786 -0.20834,0.13119 -0.36738,0.26504 -0.50586,0.36132 -0.82599,-0.39574 -5.61829,-0.18296 -3.73364,-3.34824 -0.059,-0.47997 -0.18748,-0.8043 -0.31315,-0.98762 -0.0189,-0.25013 -0.12238,-0.30782 -0.28906,-0.21679 -0.93133,-0.10334 -2.40571,3.68502 -0.98761,3.56504 -3.30646,0.55854 -3.26616,-3.7022 -5.29938,-4.88988 -4.50148,1.06878 -8.94381,2.57731 -13.48931,3.56503 -4.19126,1.26465 -8.58601,1.41759 -12.9112,0.96352 -4.75009,0.24247 -9.06686,-2.04288 -13.65793,-2.84239 -4.83455,-1.37301 -9.91178,-2.20574 -14.45285,-4.43221 -3.48319,-2.37612 -7.73346,-3.05431 -11.41774,-5.05848 -3.16279,-1.03209 -5.77784,-3.13844 -8.47899,-4.98624 -3.62541,-1.8894 -6.07745,-5.18642 -9.22573,-7.68408 -2.73454,-2.49098 -6.43739,-3.76018 -10.11699,-3.58913 z m -1.32484,1.75843 c -2.896972,0.68526 -1.15669,4.30507 -3.011013,5.94975 -2.293636,2.05481 -3.105146,4.97993 -4.239499,7.73227 -3.113365,5.73543 -5.708012,11.71406 -8.503086,17.60837 -2.927707,6.41994 -7.410831,11.89839 -11.08051,17.87335 -0.370454,1.8501 -4.699441,6.63594 -2.216102,6.88919 2.082677,-6.29 6.22108,-11.50909 9.755666,-17.00618 4.565982,-6.77894 7.330476,-14.49237 11.08051,-21.70335 1.869672,-2.91543 2.870844,-6.25074 4.359939,-9.34616 2.483295,-2.06084 3.067965,-5.02099 3.854095,-7.99724 z m 189.40445,1.51755 c -0.56728,0.0964 -1.11655,0.66116 -0.48177,1.0117 0.99993,0.88877 1.99924,1.85499 2.43291,3.15553 0.3542,-0.32824 1.06358,-0.24505 1.20439,-0.7949 -0.52311,-1.20082 -1.43474,-2.20553 -2.4088,-3.05918 -0.10591,-0.20959 -0.29536,-0.29524 -0.50585,-0.31315 -0.0789,-0.007 -0.15985,-0.0138 -0.24088,0 z m -87.43967,1.56573 c -0.0634,0.009 -0.41946,0.0974 -0.77082,0.1927 -0.033,0.0275 -0.12563,0.0962 -0.28906,0.1927 -0.62724,1.50804 -2.48495,2.17985 -3.34824,3.32415 6.20621,0.29215 6.42588,-1.17934 0.65038,2.74604 -3.07478,4.4217 8.65291,-1.43426 -1.15623,3.17962 -5.33321,2.78695 2.57632,2.04456 4.76944,2.04749 0.35727,-0.15331 0.70747,-0.29073 1.01169,-0.45767 -2.0573,0.0327 -9.9924,0.83374 -4.72125,-1.78252 1.37199,-0.63317 1.71539,-0.69761 3.27597,-1.20441 4.072,-1.32238 -4.20905,-0.024 -2.19202,-1.97521 5.22827,-3.5609 6.20524,-3.17352 -0.5781,-2.86648 1.02344,-1.07342 2.9346,-1.78433 3.34824,-3.39641 z m -0.14453,11.6827 c -3.49864,0.96485 -10.71995,2.73266 -1.54164,3.0351 6.55321,0.23185 -6.02375,1.47939 1.34894,3.46868 4.15531,0.82348 -0.71365,1.58908 -2.28838,1.90295 l -0.96352,0.45768 c 1.77224,-0.36282 9.21619,-1.70705 4.21542,-2.77012 -7.02065,-1.89173 5.43783,-3.11594 -1.37303,-3.49277 -7.94439,-0.24938 -2.83131,-1.12823 0.60221,-2.60152 z m -0.79491,-11.44183 c -1.45775,0.40281 -3.89415,1.11346 -2.07157,0.77082 l -1.01171,0.50585 c 0.68737,-0.1709 2.5487,-1.05841 3.08328,-1.27667 z m 84.57319,13.68202 c -2.20455,0.88081 -0.3373,1.50852 0.12044,2.72196 2.56368,3.99811 5.54471,7.7286 8.93668,11.05641 1.7694,1.57162 3.26005,3.45916 4.26358,5.61253 1.20645,2.89893 2.97653,5.50619 5.10668,7.80453 2.6719,2.40013 3.95439,5.86061 5.20301,9.12937 1.19223,2.59793 2.90245,4.98508 3.58913,7.80454 -0.11527,1.18403 0.63458,1.26478 1.44528,0.55402 -0.31386,-2.07032 -1.19617,-3.97059 -2.16792,-5.80522 -2.19885,-3.37064 -2.7969,-7.61057 -5.39573,-10.74328 -2.1888,-2.4417 -4.52614,-4.86205 -5.87749,-7.90088 -1.01464,-2.17137 -2.08534,-4.37125 -3.87818,-6.02202 -4.44694,-4.15834 -8.19937,-9.00989 -11.34548,-14.21196 z"
     id="path2526"
     inkscape:connector-curvature="0"
     sodipodi:nodetypes="ccccccccccccccccccccccccccccccccccccccccccccccccccccccccccccccccccccccccccccccccccccccccccccccccccccccccccccccccccccccccccccccccccccccccccccccccccccccccccccccccccccccccccccccccccccccccccccccscccccccccsccccccccccccccccccccccccccccccccccccccccccccccccccccccsccccccccccccccccccccccccccccccccccccccccccccccccccccccscccccccccccccccccccccccccccccccccccccccccccccccccccccccccccccccccccscccccccccsscccccccsccccccccccccccccccccccccccccccccccccccccccccccccccccccccccccccccccccccccccccccccccccccccccccccccccccccccccccccccccccccccccccccccccccccccccccccccccccccccccccccccccccccccccccccccccccccccccccccccccccccccccccccccccccccccccccccccccccccccccccccccccsccccccccscccccccccccccccccccccccccccccccccccccccccccccccccccccccccccccccccccccccccccccccccccccccccccccccccccccccccccccccccccccccccccccccccccccccccccccccccccccccccccccccccccccccccccccccccccccccccccccccccccccccccccccccccccccccc" />
</svg>
