<?xml version="1.0" encoding="UTF-8" standalone="no"?>
<!-- Created with Inkscape (http://www.inkscape.org/) -->

<svg
   xmlns:dc="http://purl.org/dc/elements/1.1/"
   xmlns:cc="http://creativecommons.org/ns#"
   xmlns:rdf="http://www.w3.org/1999/02/22-rdf-syntax-ns#"
   xmlns:svg="http://www.w3.org/2000/svg"
   xmlns="http://www.w3.org/2000/svg"
   xmlns:xlink="http://www.w3.org/1999/xlink"
   xmlns:sodipodi="http://sodipodi.sourceforge.net/DTD/sodipodi-0.dtd"
   xmlns:inkscape="http://www.inkscape.org/namespaces/inkscape"
   width="400"
   height="400"
   id="svg1"
   sodipodi:version="0.32"
   inkscape:version="0.48.0 r9654"
   sodipodi:docname="nude02.svg"
   version="1.1">
  <defs
     id="defs3">
    <linearGradient
       id="linearGradient3838">
      <stop
         style="stop-color:#ffffff;stop-opacity:0.25925925;"
         offset="0"
         id="stop3840" />
      <stop
         style="stop-color:#ffffff;stop-opacity:0;"
         offset="1"
         id="stop3842" />
    </linearGradient>
    <linearGradient
       inkscape:collect="always"
       id="linearGradient3803">
      <stop
         style="stop-color:#f0d9ca;stop-opacity:1;"
         offset="0"
         id="stop3805" />
      <stop
         style="stop-color:#f0d9ca;stop-opacity:0;"
         offset="1"
         id="stop3807" />
    </linearGradient>
    <linearGradient
       inkscape:collect="always"
       xlink:href="#linearGradient3803"
       id="linearGradient3811"
       x1="119.29824"
       y1="470.17545"
       x2="112.2807"
       y2="495.61404"
       gradientUnits="userSpaceOnUse"
       gradientTransform="matrix(0.78507663,0,0,0.78507663,22.961925,5.7473617)" />
    <linearGradient
       inkscape:collect="always"
       xlink:href="#linearGradient3838"
       id="linearGradient3844"
       x1="254"
       y1="-32"
       x2="249"
       y2="380"
       gradientUnits="userSpaceOnUse"
       gradientTransform="matrix(0.78507663,0,0,0.78507663,22.961925,5.7473617)" />
    <linearGradient
       inkscape:collect="always"
       xlink:href="#linearGradient3838"
       id="linearGradient3856"
       x1="289.42105"
       y1="-44.074554"
       x2="301.9386"
       y2="42.925446"
       gradientUnits="userSpaceOnUse"
       gradientTransform="matrix(0.78507663,0,0,0.78507663,22.961925,5.7473617)" />
    <linearGradient
       inkscape:collect="always"
       xlink:href="#linearGradient3838"
       id="linearGradient3862"
       x1="288.9563"
       y1="110.77065"
       x2="286.73743"
       y2="125.79668"
       gradientUnits="userSpaceOnUse"
       gradientTransform="matrix(0.78507663,0,0,0.78507663,22.961925,5.7473617)" />
    <linearGradient
       inkscape:collect="always"
       xlink:href="#linearGradient3838"
       id="linearGradient3864"
       x1="285.76764"
       y1="128.2068"
       x2="285.3858"
       y2="135.27788"
       gradientUnits="userSpaceOnUse"
       gradientTransform="matrix(0.78507663,0,0,0.78507663,22.961925,5.7473617)" />
    <linearGradient
       inkscape:collect="always"
       xlink:href="#linearGradient3838"
       id="linearGradient3870"
       x1="278.82651"
       y1="72.827316"
       x2="287.7193"
       y2="78.837723"
       gradientUnits="userSpaceOnUse"
       gradientTransform="matrix(0.78507663,0,0,0.78507663,22.961925,5.7473617)" />
    <linearGradient
       inkscape:collect="always"
       xlink:href="#linearGradient3838"
       id="linearGradient3872"
       x1="324.00864"
       y1="85.958443"
       x2="331.35965"
       y2="95.504387"
       gradientUnits="userSpaceOnUse"
       gradientTransform="matrix(0.78507663,0,0,0.78507663,22.961925,5.7473617)" />
    <linearGradient
       inkscape:collect="always"
       xlink:href="#linearGradient3838-5"
       id="linearGradient3848"
       x1="135.80374"
       y1="314.4035"
       x2="140.19298"
       y2="358.4035"
       gradientUnits="userSpaceOnUse"
       gradientTransform="matrix(0.78507663,0,0,0.78507663,22.961925,5.7473617)" />
    <linearGradient
       id="linearGradient3838-5">
      <stop
         style="stop-color:#ffffff;stop-opacity:0.25925925;"
         offset="0"
         id="stop3840-1" />
      <stop
         style="stop-color:#ffffff;stop-opacity:0;"
         offset="1"
         id="stop3842-1" />
    </linearGradient>
    <linearGradient
       inkscape:collect="always"
       xlink:href="#linearGradient3838-5"
       id="linearGradient3852"
       x1="280.69299"
       y1="347.1272"
       x2="293.7193"
       y2="396.1272"
       gradientUnits="userSpaceOnUse"
       gradientTransform="matrix(0.78507663,0,0,0.78507663,22.961925,5.74736)" />
    <linearGradient
       id="linearGradient3129">
      <stop
         style="stop-color:#ffffff;stop-opacity:0.25925925;"
         offset="0"
         id="stop3131" />
      <stop
         style="stop-color:#ffffff;stop-opacity:0;"
         offset="1"
         id="stop3133" />
    </linearGradient>
    <linearGradient
       y2="358.4035"
       x2="140.19298"
       y1="314.4035"
       x1="135.80374"
       gradientTransform="matrix(0.78507663,0,0,0.78507663,22.961925,5.74736)"
       gradientUnits="userSpaceOnUse"
       id="linearGradient3137"
       xlink:href="#linearGradient3838-5"
       inkscape:collect="always" />
  </defs>
  <sodipodi:namedview
     id="base"
     pagecolor="#ffffff"
     bordercolor="#666666"
     borderopacity="1.0"
     inkscape:pageopacity="0.0"
     inkscape:pageshadow="2"
     inkscape:zoom="1"
     inkscape:cx="176.74775"
     inkscape:cy="202.20559"
     inkscape:current-layer="svg1"
     inkscape:window-width="1152"
     inkscape:window-height="793"
     inkscape:window-x="0"
     inkscape:window-y="25"
     showgrid="false"
     inkscape:window-maximized="0" />
  <metadata
     id="metadata4">
    <rdf:RDF>
      <cc:Work
         rdf:about="">
        <dc:format>image/svg+xml</dc:format>
        <dc:type
           rdf:resource="http://purl.org/dc/dcmitype/StillImage" />
      </cc:Work>
    </rdf:RDF>
  </metadata>
  <path
     style="color:#000000;fill:#28170b;stroke:none;stroke-width:1px;marker:none;visibility:visible;display:inline;overflow:visible;enable-background:accumulate"
     d="m 265.88804,142.79144 -3.78765,3.61549 -3.09898,12.91243 -1.37733,8.95263 0.17217,1.5495 -8.43613,7.91963 -4.30415,5.85365 -1.5495,6.71447 2.5825,0.68866 3.95982,-2.23816 6.71447,-4.64848 8.60829,-3.95982 -3.44332,4.82065 -6.37014,8.6083 0,6.19797 2.41033,0.86083 c 1.50255,-0.49567 2.49235,0.8033 4.82064,-2.58249 l 5.68148,-2.92682 -1.89383,10.50212 c 0,0 0,2.41033 0.68866,2.58249 0.68867,0.17216 3.44333,1.033 3.44333,1.033 l 4.9928,-0.86084 5.68148,-4.30414 3.78765,0.68866 c 0,0 3.95982,4.99281 6.71447,6.88664 2.75466,1.89382 12.05162,7.5753 12.05162,7.5753 l 4.13198,-1.37733 5.16498,2.58249 2.41032,1.20516 c 0,0 0.17217,-3.09898 0,-4.30415 -0.17217,-1.20515 -0.68867,-13.0846 -0.34433,-13.77327 0.34433,-0.68866 4.13198,-12.05161 3.95981,-13.08461 -0.17216,-1.03299 -2.41031,-15.1506 -3.09898,-16.87226 -0.68867,-1.72166 -1.72166,-10.32996 -1.72166,-10.32996 0,0 0,-14.80626 0.17217,-15.49493 0.17216,-0.68866 1.54949,-10.84645 1.54949,-10.84645 0,0 3.61549,-6.37014 5.33714,-9.12479 1.72166,-2.75466 6.02581,-12.05162 6.02581,-12.05162 l -0.34433,-7.91963 -4.30415,-16.527931 -7.5753,-17.216595 c 0,0 -3.95982,-9.641292 -4.13199,-11.190785 -0.17216,-1.549493 0.34434,-12.912444 0.34434,-13.773274 0,-0.86083 -1.033,-8.091799 -1.54949,-9.124795 -0.5165,-1.032995 -4.13199,-10.157789 -4.82066,-11.190785 -0.68866,-1.032995 -7.57529,-9.29696 -7.57529,-9.29696 l -8.43614,-1.032995 c 0,0 -3.95981,1.032995 -5.16497,1.032995 -1.20516,0 -2.92682,3.615485 -7.05881,0.172166 -4.13198,-3.443319 -2.58248,-4.820645 -4.30414,-6.542305 -1.72166,-1.721659 -21.17641,-5.1649774 -21.17641,-5.1649774 l -8.0918,2.4103224 -6.0258,4.992812 -5.85364,6.886637 -7.23098,5.681476 -10.84645,5.164978 -8.0918,1.377327 c 0,0 -10.32995,4.476314 -12.39594,7.403135 -2.066,2.92682 -3.27116,20.315579 -3.27116,20.315579 l 0.17217,8.780463 c 0,0 -3.95982,4.304148 -4.99281,7.403134 -1.033,3.098987 -15.49494,26.169218 -15.49494,26.169218 l -7.0588,9.1248 c 0,0 -5.16498,5.85364 -20.48775,13.42894 -15.32276,7.5753 -18.76608,13.94544 -18.76608,13.94544 l -8.0918,9.81346 -14.46194,24.27539 -4.13198,9.29696 1.549493,0.68867 6.025807,-8.95263 8.0918,-11.87945 8.26396,-9.64129 10.1578,-8.6083 11.01861,-7.40313 -2.92682,5.50931 -4.13198,13.42894 -5.68148,12.56811 -1.54949,8.26397 c 0,0 5.16498,-4.30416 6.37014,-6.37015 1.20516,-2.06598 8.0918,-16.01142 8.0918,-16.01142 l 3.78765,-10.32996 c 0,0 -0.86083,1.89382 3.61549,2.06599 4.47631,0.17217 11.70728,-3.61548 11.70728,-3.61548 -2.18077,3.15637 -2.32884,4.31333 -3.09899,11.19078 0,0 0.51649,7.40314 0.51649,8.0918 0,0.68867 1.5495,3.95981 1.5495,3.95981 0,0 2.58249,-1.89382 2.92682,-2.75465 0.34433,-0.86083 4.30415,-14.11761 4.30415,-14.97844 0,-0.86082 2.41032,-8.60829 2.92682,-9.29695 0.5165,-0.68867 9.81346,-9.29697 10.84645,-8.78046 1.033,0.51649 -1.72166,9.29695 -1.72166,9.29695 l -1.89382,7.57531 -6.37014,7.5753 c 0,0 -7.40314,14.1176 -7.40314,14.80627 0,0.68866 -0.34433,6.5423 -0.34433,7.23096 0,0.68867 2.06599,5.16498 4.47632,0.68867 2.41032,-4.47632 2.75465,-7.0588 2.75465,-7.0588 l 4.64848,-2.23816 1.5495,2.92682 1.03299,7.23097 1.54949,2.23816 1.89383,-2.41033 2.41033,-7.74746 1.20515,-7.23098 2.23816,-1.89382 c 0,0 2.75465,-0.34434 2.75465,0.34433 0,0.68867 1.89383,4.99282 2.23816,5.85365 0.34434,0.86082 1.72166,8.60829 1.72166,8.60829 l 2.23816,2.41033 c 0,0 1.03299,-1.033 1.20516,-2.41033 0.17217,-1.37733 -2.06599,-12.39594 -2.41032,-13.94544 -0.34433,-1.54949 -1.89383,-6.02581 -1.89383,-8.26396 0,-2.23816 1.89383,-6.37014 2.58249,-7.23097 0.68867,-0.86083 4.30415,-4.47631 4.30415,-4.47631 l 7.40314,-1.37733 8.60829,-3.27116 3.95982,-4.99281 0,6.88663 c 0,0 1.37732,9.81346 1.37732,10.6743 0,0.86083 0,8.60829 0,8.60829 l -5.85364,12.22378 1.72167,0 6.37013,-4.82065 4.64848,-10.15778 0.5165,-17.56093 2.75465,-11.87944 3.78765,-11.87945 c 0,0 -4.82064,-9.81346 -4.99281,-10.50213 -0.17216,-0.68866 -10.15778,-13.256773 -10.50212,-13.945434 -0.34433,-0.688669 -1.54949,-8.608299 -1.54949,-8.608299 l 4.64848,-11.879449 13.08461,-14.289773 8.09179,-15.839264 6.54232,-12.568113 5.5093,-3.959817 7.74747,-0.344331 10.32996,6.542305 c 0,0 3.61548,4.304148 5.68147,5.681475 2.06599,1.377328 2.75465,3.098987 5.85364,-1.377327 3.09899,-4.476314 10.15779,9.29696 10.15779,9.29696 l 2.58249,5.164978 -6.19797,5.853641 -2.58249,10.15779 2.75465,11.362951 2.58249,15.322767 -2.92682,11.01862 -5.68148,7.74747 -4.30414,1.89382 c 0,0 -8.78047,3.27116 -11.19079,5.68148 -2.41032,2.41032 -5.16498,12.05161 -5.16498,12.05161 z"
     id="path3834"
     inkscape:connector-curvature="0"
     sodipodi:nodetypes="ccccccccccccccccccccccccsccccsssscscsccccssssccssscccccccsccsccsccccccccccccccsccsccscsssscccssscccccccccssccsssscccccsccccccccssccccccccsscccccccccscc" />
  <path
     style="color:#000000;fill:url(#linearGradient3811);fill-opacity:1;stroke:none;stroke-width:1px;marker:none;visibility:visible;display:inline;overflow:visible;enable-background:accumulate"
     d="m 260.5212,23.50972 -4.78406,0.711476 -6.52595,4.244321 -4.07258,8.832112 -3.18937,7.40916 -4.24432,8.660377 -8.83212,10.966539 -7.58089,8.316905 -4.44059,9.887059 1.76642,9.003848 5.66727,7.9489 8.48864,9.543593 1.22669,7.77716 -2.64964,11.31001 -2.30616,7.06569 -1.05495,14.15591 -1.59468,12.36496 -2.1099,3.70458 -5.471,6.01074 -3.72911,1.22669 1.25121,-3.33658 3.87632,-6.37875 c 0,0 1.25619,-8.11529 1.07948,-9.17558 -0.17672,-1.06029 -1.76643,-21.2216 -1.76643,-21.2216 l -2.67416,3.53284 -0.17174,2.13443 -5.81447,2.64963 -5.83901,1.05495 -4.24432,1.42295 -5.29927,2.9931 -3.53284,7.60543 2.64963,11.13828 c 0,0 2.4779,7.58053 2.4779,8.46411 0,0.88357 -1.42295,6.37874 -1.42295,6.37874 l -2.82137,-4.41605 -2.4779,-11.50628 -3.70458,-1.57015 -2.30616,2.45336 c 0,0 -1.93816,7.95351 -1.93816,8.66038 0,0.70685 -1.25122,6.37874 -1.25122,6.37874 l -2.45336,1.93816 c 0,0 -1.76642,-3.19363 -1.76642,-4.78406 0,-1.59043 -1.96269,-7.40916 -1.96269,-7.40916 l -4.5878,1.42295 -1.76642,5.103 -1.93816,3.18937 -2.64963,1.42296 -0.88321,-7.06569 c 0,0 2.12447,-7.78178 2.4779,-8.48865 0.35343,-0.70685 4.93126,-7.9489 4.93126,-7.9489 l 6.01074,-8.14517 4.24432,-12.70842 0,-5.12754 -6.18247,3.87632 -5.29927,5.29927 c 0,0 -2.4779,4.95543 -2.4779,5.839 0,0.88359 -0.88321,7.4337 -0.88321,7.4337 l -2.99311,9.34732 -2.13442,5.12753 c 0,0 -2.64466,-4.42068 -2.82137,-5.12753 -0.17671,-0.70686 0.022,-8.85493 0.022,-8.85493 l 3.33916,-10.57572 -5.66727,2.64963 -7.06569,1.25122 -2.8214,-0.71147 -2.13443,3.87631 -5.64274,13.61617 -4.78406,7.40916 -3.33657,4.9558 -3.18938,1.22668 1.22668,-7.06569 4.78406,-9.54358 3.70458,-11.31001 5.29927,-11.99696 -4.04805,3.16484 -6.01074,4.07259 -6.89396,5.29927 -9.02838,8.48864 -11.82521,17.32075 -6.182483,9.17558 -1.422951,-0.88321 4.416054,-9.88706 7.9489,-13.44443 7.60543,-12.5367 -6.01074,0.17174 -7.40916,4.41605 -8.316907,9.20012 -6.525949,13.59164 -6.010743,12.56123 -4.784061,9.00384 -6.010743,8.83212 -7.948901,15.21086 -8.292371,15.8978 -8.316906,13.95964 -7.237425,8.66038 -2.845903,2.4779 -3.876316,4.58779 -6.722218,10.4268 -0.883211,4.78406 c 0,0 1.250854,6.53482 2.134427,8.83211 0.883573,2.29729 7.9489,11.65348 7.9489,11.65348 l 9.543588,5.66727 10.942006,3.87632 4.416056,0.88321 17.860493,0.53974 16.069537,2.10989 c 0,0 -0.35343,2.8249 0,6.18248 0.353429,3.35758 -3.336576,17.86049 -3.336576,17.86049 l -2.845902,4.5878 -8.660377,7.60543 -4.24432,3.53284 -4.931263,8.29237 c 51.690065,41.30131 108.469825,24.66154 150.023235,23.6995 l 0.71148,-5.839 3.87631,-7.60543 3.53285,-9.88706 3.90085,1.39841 9.54358,0.71148 5.12754,4.41606 7.23742,2.8459 9.88706,0.34347 10.08333,-1.93816 4.95579,-2.13443 3.70458,-0.5152 c 0,0 1.77104,-1.42259 2.4779,-2.30616 0.70686,-0.88357 3.16484,-9.01806 3.16484,-10.25507 0,-1.237 1.41834,-9.00847 0.71148,-9.71532 -0.70686,-0.70687 -3.36111,-5.29927 -3.36111,-5.29927 l 2.30616,-3.53284 3.36111,-12.36496 3.87632,-11.31001 5.49553,-21.73681 8.66038,-31.6484 c 0,0 2.28163,-9.71993 2.28163,-10.4268 0,-0.70685 1.59469,-22.0849 1.59469,-22.79176 0,-0.70686 -1.22669,-9.17558 -1.22669,-9.17558 l -3.72911,-1.25121 -5.103,0.53974 -11.84975,-7.60543 -5.471,-5.47101 -3.01764,-2.30616 -4.04805,2.4779 -1.25122,1.59469 -6.01074,2.64963 -4.75953,-1.93816 1.39842,-13.44444 -4.41605,3.01764 c -0.50442,1.63939 -3.60001,2.63098 -5.77015,3.85394 l -2.17919,-1.76643 c 0,0 0.005,-5.4383 0.71191,-6.6753 0.70687,-1.237 7.23743,-9.91159 7.23743,-9.91159 l 2.13442,-2.99311 -6.01074,2.4779 -6.89395,4.04805 -5.66728,4.24432 -2.9931,0.71148 -1.05495,-4.58779 4.24432,-7.26196 c 0,0 5.1126,-4.93587 5.64274,-5.64274 0.53015,-0.70685 4.78406,-4.07258 4.78406,-4.07258 l -0.19627,-6.18248 c 1.22872,-5.17443 0.64654,-10.2482 4.24432,-15.55433 l 3.18938,-4.9558 0.88321,-16.95275 2.64963,-5.29926 4.07259,-3.90085 3.33657,-1.93816 3.72912,-1.93816 4.93126,-2.30616 3.53284,-2.4779 3.55738,-5.81447 2.45337,-8.832116 -0.68695,-8.488641 c 0,0 -4.24432,-16.623491 -4.24432,-17.860493 0,-1.237004 0.17174,-6.010381 0.17174,-6.893955 0,-0.883573 1.58473,-4.224404 1.93816,-4.931262 0.35343,-0.70686 3.53284,-3.189374 3.53284,-3.189374 l 4.07259,-4.587791 c 0,0 -1.413,1.222065 -1.76643,0.515206 -0.35342,-0.706859 -3.90085,-7.948901 -3.90085,-7.948901 l -6.35421,-6.010743 -3.53284,0.196269 c 0,0 -1.40729,3.705305 -3.70458,1.938158 -2.2973,-1.767146 -12.73297,-9.543587 -12.73297,-9.543587 z m -146.31865,203.31031 -1.54562,6.52595 -3.09124,6.03528 -6.03528,6.69768 c 0,0 -3.777747,8.09352 -3.949913,9.12652 -0.172166,1.033 -1.54562,8.61131 -1.54562,8.61131 l -6.035276,3.80271 -2.747769,3.77818 c 0,0 -2.772301,7.92222 -2.772301,8.78305 0,0.86083 -2.576033,4.63686 -2.576033,4.63686 l -2.919504,0.5152 -3.778181,-2.40429 -1.913624,-4.12165 2.772301,-2.57604 1.889091,-4.66139 4.636859,-5.66727 7.06569,-7.06569 4.293387,-7.5809 c 0,0 2.599706,-5.86096 2.944038,-6.89395 0.344332,-1.033 4.980335,-5.15207 4.980335,-5.15207 l 5.00486,-6.72222 z"
     id="path3033"
     inkscape:connector-curvature="0"
     sodipodi:nodetypes="ccccccccccccccccccccccscccccccccscccccsccscccccccccccccscccscccccccccccccccccccccccccccccccccccccccsccccccscccccccccccccccccsssccccccssccccccccccccccscccccccccccccccccccccccsssccscccsccccccscccscccccccccsccc" />
  <path
     sodipodi:nodetypes="ccccccccccccccccccccccscccccccccscccccsccscccccccccccccscccscccccccccccccccccccccccccccccccccccccccsccccccscccccccccccccccccsssccccccssccccccccccccccscccccccccccccccccccccccsssccscccsccccccscccscccccccccsccc"
     inkscape:connector-curvature="0"
     id="path3836"
     d="m 260.5212,23.50972 -4.78406,0.711476 -6.52595,4.244321 -4.07258,8.832112 -3.18937,7.40916 -4.24432,8.660377 -8.83212,10.966539 -7.58089,8.316905 -4.44059,9.887059 1.76642,9.003848 5.66727,7.9489 8.48864,9.543593 1.22669,7.77716 -2.64964,11.31001 -2.30616,7.06569 -1.05495,14.15591 -1.59468,12.36496 -2.1099,3.70458 -5.471,6.01074 -3.72911,1.22669 1.25121,-3.33658 3.87632,-6.37875 c 0,0 1.25619,-8.11529 1.07948,-9.17558 -0.17672,-1.06029 -1.76643,-21.2216 -1.76643,-21.2216 l -2.67416,3.53284 -0.17174,2.13443 -5.81447,2.64963 -5.83901,1.05495 -4.24432,1.42295 -5.29927,2.9931 -3.53284,7.60543 2.64963,11.13828 c 0,0 2.4779,7.58053 2.4779,8.46411 0,0.88357 -1.42295,6.37874 -1.42295,6.37874 l -2.82137,-4.41605 -2.4779,-11.50628 -3.70458,-1.57015 -2.30616,2.45336 c 0,0 -1.93816,7.95351 -1.93816,8.66038 0,0.70685 -1.25122,6.37874 -1.25122,6.37874 l -2.45336,1.93816 c 0,0 -1.76642,-3.19363 -1.76642,-4.78406 0,-1.59043 -1.96269,-7.40916 -1.96269,-7.40916 l -4.5878,1.42295 -1.76642,5.103 -1.93816,3.18937 -2.64963,1.42296 -0.88321,-7.06569 c 0,0 2.12447,-7.78178 2.4779,-8.48865 0.35343,-0.70685 4.93126,-7.9489 4.93126,-7.9489 l 6.01074,-8.14517 4.24432,-12.70842 0,-5.12754 -6.18247,3.87632 -5.29927,5.29927 c 0,0 -2.4779,4.95543 -2.4779,5.839 0,0.88359 -0.88321,7.4337 -0.88321,7.4337 l -2.99311,9.34732 -2.13442,5.12753 c 0,0 -2.64466,-4.42068 -2.82137,-5.12753 -0.17671,-0.70686 0.022,-8.85493 0.022,-8.85493 l 3.33916,-10.57572 -5.66727,2.64963 -7.06569,1.25122 -2.8214,-0.71147 -2.13443,3.87631 -5.64274,13.61617 -4.78406,7.40916 -3.33657,4.9558 -3.18938,1.22668 1.22668,-7.06569 4.78406,-9.54358 3.70458,-11.31001 5.29927,-11.99696 -4.04805,3.16484 -6.01074,4.07259 -6.89396,5.29927 -9.02838,8.48864 -11.82521,17.32075 -6.182483,9.17558 -1.422951,-0.88321 4.416054,-9.88706 7.9489,-13.44443 7.60543,-12.5367 -6.01074,0.17174 -7.40916,4.41605 -8.316907,9.20012 -6.525949,13.59164 -6.010743,12.56123 -4.784061,9.00384 -6.010743,8.83212 -7.948901,15.21086 -8.292371,15.8978 -8.316906,13.95964 -7.237425,8.66038 -2.845903,2.4779 -3.876316,4.58779 -6.722218,10.4268 -0.883211,4.78406 c 0,0 1.250854,6.53482 2.134427,8.83211 0.883573,2.29729 7.9489,11.65348 7.9489,11.65348 l 9.543588,5.66727 10.942006,3.87632 4.416056,0.88321 17.860493,0.53974 16.069537,2.10989 c 0,0 -0.35343,2.8249 0,6.18248 0.353429,3.35758 -3.336576,17.86049 -3.336576,17.86049 l -2.845902,4.5878 -8.660377,7.60543 -4.24432,3.53284 -4.931263,8.29237 c 51.690065,41.30131 108.469825,24.66154 150.023235,23.6995 l 0.71148,-5.839 3.87631,-7.60543 3.53285,-9.88706 3.90085,1.39841 9.54358,0.71148 5.12754,4.41606 7.23742,2.8459 9.88706,0.34347 10.08333,-1.93816 4.95579,-2.13443 3.70458,-0.5152 c 0,0 1.77104,-1.42259 2.4779,-2.30616 0.70686,-0.88357 3.16484,-9.01806 3.16484,-10.25507 0,-1.237 1.41834,-9.00847 0.71148,-9.71532 -0.70686,-0.70687 -3.36111,-5.29927 -3.36111,-5.29927 l 2.30616,-3.53284 3.36111,-12.36496 3.87632,-11.31001 5.49553,-21.73681 8.66038,-31.6484 c 0,0 2.28163,-9.71993 2.28163,-10.4268 0,-0.70685 1.59469,-22.0849 1.59469,-22.79176 0,-0.70686 -1.22669,-9.17558 -1.22669,-9.17558 l -3.72911,-1.25121 -5.103,0.53974 -11.84975,-7.60543 -5.471,-5.47101 -3.01764,-2.30616 -4.04805,2.4779 -1.25122,1.59469 -6.01074,2.64963 -4.75953,-1.93816 1.39842,-13.44444 -4.41605,3.01764 c -0.50442,1.63939 -3.60001,2.63098 -5.77015,3.85394 l -2.17919,-1.76643 c 0,0 0.005,-5.4383 0.71191,-6.6753 0.70687,-1.237 7.23743,-9.91159 7.23743,-9.91159 l 2.13442,-2.99311 -6.01074,2.4779 -6.89395,4.04805 -5.66728,4.24432 -2.9931,0.71148 -1.05495,-4.58779 4.24432,-7.26196 c 0,0 5.1126,-4.93587 5.64274,-5.64274 0.53015,-0.70685 4.78406,-4.07258 4.78406,-4.07258 l -0.19627,-6.18248 c 1.22872,-5.17443 0.64654,-10.2482 4.24432,-15.55433 l 3.18938,-4.9558 0.88321,-16.95275 2.64963,-5.29926 4.07259,-3.90085 3.33657,-1.93816 3.72912,-1.93816 4.93126,-2.30616 3.53284,-2.4779 3.55738,-5.81447 2.45337,-8.832116 -0.68695,-8.488641 c 0,0 -4.24432,-16.623491 -4.24432,-17.860493 0,-1.237004 0.17174,-6.010381 0.17174,-6.893955 0,-0.883573 1.58473,-4.224404 1.93816,-4.931262 0.35343,-0.70686 3.53284,-3.189374 3.53284,-3.189374 l 4.07259,-4.587791 c 0,0 -1.413,1.222065 -1.76643,0.515206 -0.35342,-0.706859 -3.90085,-7.948901 -3.90085,-7.948901 l -6.35421,-6.010743 -3.53284,0.196269 c 0,0 -1.40729,3.705305 -3.70458,1.938158 -2.2973,-1.767146 -12.73297,-9.543587 -12.73297,-9.543587 z m -146.31865,203.31031 -1.54562,6.52595 -3.09124,6.03528 -6.03528,6.69768 c 0,0 -3.777747,8.09352 -3.949913,9.12652 -0.172166,1.033 -1.54562,8.61131 -1.54562,8.61131 l -6.035276,3.80271 -2.747769,3.77818 c 0,0 -2.772301,7.92222 -2.772301,8.78305 0,0.86083 -2.576033,4.63686 -2.576033,4.63686 l -2.919504,0.5152 -3.778181,-2.40429 -1.913624,-4.12165 2.772301,-2.57604 1.889091,-4.66139 4.636859,-5.66727 7.06569,-7.06569 4.293387,-7.5809 c 0,0 2.599706,-5.86096 2.944038,-6.89395 0.344332,-1.033 4.980335,-5.15207 4.980335,-5.15207 l 5.00486,-6.72222 z"
     style="color:#000000;fill:url(#linearGradient3844);fill-opacity:1;stroke:none;stroke-width:1px;marker:none;visibility:visible;display:inline;overflow:visible;enable-background:accumulate" />
  <g
     inkscape:label="Layer 1"
     inkscape:groupmode="layer"
     id="layer1"
     transform="translate(0,-100)" />
  <path
     style="color:#000000;fill:#684127;fill-opacity:1;stroke:none;stroke-width:1px;marker:none;visibility:visible;display:inline;overflow:visible;enable-background:accumulate"
     d="m 125.40065,287.58299 -5.85364,-3.44333 c 0,0 -3.95981,-9.29695 -3.95981,-10.15778 0,-0.86083 0.68866,-13.08462 0.68866,-13.08462 3.00257,-2.49129 4.73766,-5.12414 9.64129,-7.40313 l 6.71447,-2.23816 c 0,0 13.42895,0 14.11761,0.5165 0.68866,0.5165 8.26396,3.44332 8.78046,4.30415 0.51649,0.86083 6.19797,8.60829 6.19797,8.60829 0,0 0.34433,7.5753 0.34433,8.26397 0,0.68866 -1.37732,6.02581 -1.37732,6.02581 l -7.23097,2.23815 -4.99282,3.09899 -8.0918,2.41033 -8.78046,1.72165 z"
     id="path3816"
     inkscape:connector-curvature="0"
     sodipodi:nodetypes="ccscccsscscccccc" />
  <path
     sodipodi:nodetypes="ccscccsscscccccc"
     inkscape:connector-curvature="0"
     id="path3846"
     d="m 125.40065,287.58299 -5.85364,-3.44333 c 0,0 -3.95981,-9.29695 -3.95981,-10.15778 0,-0.86083 0.68866,-13.08462 0.68866,-13.08462 3.00257,-2.49129 4.73766,-5.12414 9.64129,-7.40313 l 6.71447,-2.23816 c 0,0 13.42895,0 14.11761,0.5165 0.68866,0.5165 8.26396,3.44332 8.78046,4.30415 0.51649,0.86083 6.19797,8.60829 6.19797,8.60829 0,0 0.34433,7.5753 0.34433,8.26397 0,0.68866 -1.37732,6.02581 -1.37732,6.02581 l -7.23097,2.23815 -4.99282,3.09899 -8.0918,2.41033 -8.78046,1.72165 z"
     style="color:#000000;fill:url(#linearGradient3137);fill-opacity:1;stroke:none;stroke-width:1px;marker:none;visibility:visible;display:inline;overflow:visible;enable-background:accumulate" />
  <path
     style="color:#000000;fill:#684127;fill-opacity:1;stroke:none;stroke-width:1px;marker:none;visibility:visible;display:inline;overflow:visible;enable-background:accumulate"
     d="m 230.7662,308.41506 0.5165,-8.26396 c 0,0 2.92682,-9.46913 3.44331,-10.1578 0.5165,-0.68866 6.54231,-5.16497 6.54231,-5.16497 l 7.23097,-1.20516 c 0,0 10.67428,1.72166 11.01862,2.41032 0.34433,0.68867 5.5093,3.09899 5.85364,3.95981 0.34433,0.86083 2.92682,7.05881 2.92682,7.05881 l 0.17217,8.26397 -2.5825,12.39594 -2.58248,5.33715 -2.92682,2.92682 -3.61548,1.89382 c 0,0 -2.5825,0 -3.78765,-0.34433 -1.20517,-0.34434 -19.62692,-19.62692 -19.62692,-19.62692 z"
     id="path3818"
     inkscape:connector-curvature="0" />
  <path
     style="color:#000000;fill:#aa0000;stroke:none;stroke-width:1px;marker:none;visibility:visible;display:inline;overflow:visible;enable-background:accumulate"
     d="m 235.24251,101.81595 7.40314,-2.926823 5.68147,-0.172167 9.46913,3.44332 c 0,0 3.27115,4.99282 3.44332,5.68148 0.17216,0.68866 2.23815,5.5093 2.23815,5.5093 0,0 -3.09898,-0.86083 -3.44332,-1.54949 -0.34432,-0.68866 -3.09898,-5.16498 -3.09898,-5.16498 0,0 -6.37014,-2.23816 -7.0588,-2.41032 -0.68866,-0.17216 -7.05881,-0.68866 -7.05881,-0.68866 l -6.02581,0.17216 z"
     id="path3820"
     inkscape:connector-curvature="0" />
  <path
     style="color:#000000;fill:#aa0000;fill-opacity:1;stroke:none;stroke-width:1px;marker:none;visibility:visible;display:inline;overflow:visible;enable-background:accumulate"
     d="m 235.93118,105.0871 9.46912,2.23815 9.81346,2.92683 6.37014,3.61548 -1.72166,1.89383 -4.99281,-0.34433 c 0,0 -4.64849,-0.17217 -5.33715,-0.68867 -0.68866,-0.5165 -7.40313,-4.30415 -7.40313,-4.30415 z"
     id="path3822"
     inkscape:connector-curvature="0" />
  <path
     style="color:#000000;fill:#ffffff;stroke:none;stroke-width:1px;marker:none;visibility:visible;display:inline;overflow:visible;enable-background:accumulate"
     d="m 239.89099,104.05411 7.40313,-0.68867 7.05881,3.09899 4.30415,2.06599 1.72166,4.13198 -6.37014,-2.41032 c 0,0 -8.26397,-3.27115 -9.12479,-3.61549 -0.86083,-0.34432 -5.50931,-1.03299 -5.50931,-1.03299 z"
     id="path3824"
     inkscape:connector-curvature="0" />
  <path
     style="color:#000000;fill:#ffffff;stroke:none;stroke-width:1px;marker:none;visibility:visible;display:inline;overflow:visible;enable-background:accumulate"
     d="m 234.55385,62.734283 0.86083,4.304148 4.30415,3.443319 5.68147,0.860829 5.85364,-0.172165 2.41033,-1.549494 -5.68148,-4.476314 -4.30415,-2.582489 z"
     id="path3826"
     inkscape:connector-curvature="0" />
  <path
     style="color:#000000;fill:#ffffff;stroke:none;stroke-width:1px;marker:none;visibility:visible;display:inline;overflow:visible;enable-background:accumulate"
     d="m 270.02003,77.196221 c 0,0 4.82064,-1.205161 5.50931,-1.032996 0.68866,0.172166 6.19797,0.688664 6.19797,0.688664 l 5.33715,4.476314 3.27115,4.304152 -2.75466,0.344327 -6.71447,-0.516494 -5.68147,-3.615487 -4.30415,-2.582489 c 0,0 -1.20516,-0.86083 -0.86083,-2.065991 z"
     id="path3828"
     inkscape:connector-curvature="0" />
  <path
     style="color:#000000;fill:#004680;fill-opacity:1;stroke:none;stroke-width:1px;marker:none;visibility:visible;display:inline;overflow:visible;enable-background:accumulate"
     d="m 243.16215,63.595113 -2.41033,2.754655 0.34434,3.271152 5.33714,2.065992 2.41032,-2.754655 -1.03299,-3.787651 z"
     id="path3830"
     inkscape:connector-curvature="0" />
  <path
     style="color:#000000;fill:#004680;fill-opacity:1;stroke:none;stroke-width:1px;marker:none;visibility:visible;display:inline;overflow:visible;enable-background:accumulate"
     d="m 278.284,76.507558 -2.75466,2.410322 0.34433,3.271153 3.09899,2.754653 2.23816,-0.688662 c 0,0 1.89382,-1.549494 1.89382,-2.926821 0,-1.377328 -0.17217,-3.78765 -0.17217,-3.78765 z"
     id="path3832"
     inkscape:connector-curvature="0" />
  <path
     inkscape:connector-curvature="0"
     id="path3858"
     d="m 235.24251,101.81595 7.40314,-2.926823 5.68147,-0.172167 9.46913,3.44332 c 0,0 3.27115,4.99282 3.44332,5.68148 0.17216,0.68866 2.23815,5.5093 2.23815,5.5093 0,0 -3.09898,-0.86083 -3.44332,-1.54949 -0.34432,-0.68866 -3.09898,-5.16498 -3.09898,-5.16498 0,0 -6.37014,-2.23816 -7.0588,-2.41032 -0.68866,-0.17216 -7.05881,-0.68866 -7.05881,-0.68866 l -6.02581,0.17216 z"
     style="color:#000000;fill:url(#linearGradient3862);stroke:none;stroke-width:1px;marker:none;visibility:visible;display:inline;overflow:visible;enable-background:accumulate" />
  <path
     inkscape:connector-curvature="0"
     id="path3866"
     d="m 243.16215,63.595113 -2.41033,2.754655 0.34434,3.271152 5.33714,2.065992 2.41032,-2.754655 -1.03299,-3.787651 z"
     style="color:#000000;fill:url(#linearGradient3870);fill-opacity:1;stroke:none;stroke-width:1px;marker:none;visibility:visible;display:inline;overflow:visible;enable-background:accumulate" />
  <path
     sodipodi:nodetypes="ccccccccccccccccccccccccsccccsssscscsccccssssccssscccccccsccsccsccccccccccccccsccsccscsssscccssscccccccccssccsssscccccsccccccccssccccccccsscccccccccscc"
     inkscape:connector-curvature="0"
     id="path3854"
     d="m 265.88804,142.79144 -3.78765,3.61549 -3.09898,12.91243 -1.37733,8.95263 0.17217,1.5495 -8.43613,7.91963 -4.30415,5.85365 -1.5495,6.71447 2.5825,0.68866 3.95982,-2.23816 6.71447,-4.64848 8.60829,-3.95982 -3.44332,4.82065 -6.37014,8.6083 0,6.19797 2.41033,0.86083 c 1.50255,-0.49567 2.49235,0.8033 4.82064,-2.58249 l 5.68148,-2.92682 -1.89383,10.50212 c 0,0 0,2.41033 0.68866,2.58249 0.68867,0.17216 3.44333,1.033 3.44333,1.033 l 4.9928,-0.86084 5.68148,-4.30414 3.78765,0.68866 c 0,0 3.95982,4.99281 6.71447,6.88664 2.75466,1.89382 12.05162,7.5753 12.05162,7.5753 l 4.13198,-1.37733 5.16498,2.58249 2.41032,1.20516 c 0,0 0.17217,-3.09898 0,-4.30415 -0.17217,-1.20515 -0.68867,-13.0846 -0.34433,-13.77327 0.34433,-0.68866 4.13198,-12.05161 3.95981,-13.08461 -0.17216,-1.03299 -2.41031,-15.1506 -3.09898,-16.87226 -0.68867,-1.72166 -1.72166,-10.32996 -1.72166,-10.32996 0,0 0,-14.80626 0.17217,-15.49493 0.17216,-0.68866 1.54949,-10.84645 1.54949,-10.84645 0,0 3.61549,-6.37014 5.33714,-9.12479 1.72166,-2.75466 6.02581,-12.05162 6.02581,-12.05162 l -0.34433,-7.91963 -4.30415,-16.527931 -7.5753,-17.216595 c 0,0 -3.95982,-9.641292 -4.13199,-11.190785 -0.17216,-1.549493 0.34434,-12.912444 0.34434,-13.773274 0,-0.86083 -1.033,-8.091799 -1.54949,-9.124795 -0.5165,-1.032995 -4.13199,-10.157789 -4.82066,-11.190785 -0.68866,-1.032995 -7.57529,-9.29696 -7.57529,-9.29696 l -8.43614,-1.032995 c 0,0 -3.95981,1.032995 -5.16497,1.032995 -1.20516,0 -2.92682,3.615485 -7.05881,0.172166 -4.13198,-3.443319 -2.58248,-4.820645 -4.30414,-6.542305 -1.72166,-1.721659 -21.17641,-5.1649774 -21.17641,-5.1649774 l -8.0918,2.4103224 -6.0258,4.992812 -5.85364,6.886637 -7.23098,5.681476 -10.84645,5.164978 -8.0918,1.377327 c 0,0 -10.32995,4.476314 -12.39594,7.403135 -2.066,2.92682 -3.27116,20.315579 -3.27116,20.315579 l 0.17217,8.780463 c 0,0 -3.95982,4.304148 -4.99281,7.403134 -1.033,3.098987 -15.49494,26.169218 -15.49494,26.169218 l -7.0588,9.1248 c 0,0 -5.16498,5.85364 -20.48775,13.42894 -15.32276,7.5753 -18.76608,13.94544 -18.76608,13.94544 l -8.0918,9.81346 -14.46194,24.27539 -4.13198,9.29696 1.549493,0.68867 6.025807,-8.95263 8.0918,-11.87945 8.26396,-9.64129 10.1578,-8.6083 11.01861,-7.40313 -2.92682,5.50931 -4.13198,13.42894 -5.68148,12.56811 -1.54949,8.26397 c 0,0 5.16498,-4.30416 6.37014,-6.37015 1.20516,-2.06598 8.0918,-16.01142 8.0918,-16.01142 l 3.78765,-10.32996 c 0,0 -0.86083,1.89382 3.61549,2.06599 4.47631,0.17217 11.70728,-3.61548 11.70728,-3.61548 -2.18077,3.15637 -2.32884,4.31333 -3.09899,11.19078 0,0 0.51649,7.40314 0.51649,8.0918 0,0.68867 1.5495,3.95981 1.5495,3.95981 0,0 2.58249,-1.89382 2.92682,-2.75465 0.34433,-0.86083 4.30415,-14.11761 4.30415,-14.97844 0,-0.86082 2.41032,-8.60829 2.92682,-9.29695 0.5165,-0.68867 9.81346,-9.29697 10.84645,-8.78046 1.033,0.51649 -1.72166,9.29695 -1.72166,9.29695 l -1.89382,7.57531 -6.37014,7.5753 c 0,0 -7.40314,14.1176 -7.40314,14.80627 0,0.68866 -0.34433,6.5423 -0.34433,7.23096 0,0.68867 2.06599,5.16498 4.47632,0.68867 2.41032,-4.47632 2.75465,-7.0588 2.75465,-7.0588 l 4.64848,-2.23816 1.5495,2.92682 1.03299,7.23097 1.54949,2.23816 1.89383,-2.41033 2.41033,-7.74746 1.20515,-7.23098 2.23816,-1.89382 c 0,0 2.75465,-0.34434 2.75465,0.34433 0,0.68867 1.89383,4.99282 2.23816,5.85365 0.34434,0.86082 1.72166,8.60829 1.72166,8.60829 l 2.23816,2.41033 c 0,0 1.03299,-1.033 1.20516,-2.41033 0.17217,-1.37733 -2.06599,-12.39594 -2.41032,-13.94544 -0.34433,-1.54949 -1.89383,-6.02581 -1.89383,-8.26396 0,-2.23816 1.89383,-6.37014 2.58249,-7.23097 0.68867,-0.86083 4.30415,-4.47631 4.30415,-4.47631 l 7.40314,-1.37733 8.60829,-3.27116 3.95982,-4.99281 0,6.88663 c 0,0 1.37732,9.81346 1.37732,10.6743 0,0.86083 0,8.60829 0,8.60829 l -5.85364,12.22378 1.72167,0 6.37013,-4.82065 4.64848,-10.15778 0.5165,-17.56093 2.75465,-11.87944 3.78765,-11.87945 c 0,0 -4.82064,-9.81346 -4.99281,-10.50213 -0.17216,-0.68866 -10.15778,-13.256773 -10.50212,-13.945434 -0.34433,-0.688669 -1.54949,-8.608299 -1.54949,-8.608299 l 4.64848,-11.879449 13.08461,-14.289773 8.09179,-15.839264 6.54232,-12.568113 5.5093,-3.959817 7.74747,-0.344331 10.32996,6.542305 c 0,0 3.61548,4.304148 5.68147,5.681475 2.06599,1.377328 2.75465,3.098987 5.85364,-1.377327 3.09899,-4.476314 10.15779,9.29696 10.15779,9.29696 l 2.58249,5.164978 -6.19797,5.853641 -2.58249,10.15779 2.75465,11.362951 2.58249,15.322767 -2.92682,11.01862 -5.68148,7.74747 -4.30414,1.89382 c 0,0 -8.78047,3.27116 -11.19079,5.68148 -2.41032,2.41032 -5.16498,12.05161 -5.16498,12.05161 z"
     style="color:#000000;fill:url(#linearGradient3856);stroke:none;stroke-width:1px;marker:none;visibility:visible;display:inline;overflow:visible;enable-background:accumulate" />
  <path
     inkscape:connector-curvature="0"
     id="path3860"
     d="m 235.93118,105.0871 9.46912,2.23815 9.81346,2.92683 6.37014,3.61548 -1.72166,1.89383 -4.99281,-0.34433 c 0,0 -4.64849,-0.17217 -5.33715,-0.68867 -0.68866,-0.5165 -7.40313,-4.30415 -7.40313,-4.30415 z"
     style="color:#000000;fill:url(#linearGradient3864);fill-opacity:1;stroke:none;stroke-width:1px;marker:none;visibility:visible;display:inline;overflow:visible;enable-background:accumulate" />
  <path
     inkscape:connector-curvature="0"
     id="path3868"
     d="m 278.284,76.507558 -2.75466,2.410322 0.34433,3.271153 3.09899,2.754653 2.23816,-0.688662 c 0,0 1.89382,-1.549494 1.89382,-2.926821 0,-1.377328 -0.17217,-3.78765 -0.17217,-3.78765 z"
     style="color:#000000;fill:url(#linearGradient3872);fill-opacity:1;stroke:none;stroke-width:1px;marker:none;visibility:visible;display:inline;overflow:visible;enable-background:accumulate" />
  <path
     inkscape:connector-curvature="0"
     id="path3850"
     d="m 230.7662,308.41506 0.5165,-8.26396 c 0,0 2.92682,-9.46913 3.44331,-10.1578 0.5165,-0.68866 6.54231,-5.16497 6.54231,-5.16497 l 7.23097,-1.20516 c 0,0 10.67428,1.72166 11.01862,2.41032 0.34433,0.68867 5.5093,3.09899 5.85364,3.95981 0.34433,0.86083 2.92682,7.05881 2.92682,7.05881 l 0.17217,8.26397 -2.5825,12.39594 -2.58248,5.33715 -2.92682,2.92682 -3.61548,1.89382 c 0,0 -2.5825,0 -3.78765,-0.34433 -1.20517,-0.34434 -19.62692,-19.62692 -19.62692,-19.62692 z"
     style="color:#000000;fill:url(#linearGradient3852);fill-opacity:1;stroke:none;stroke-width:1px;marker:none;visibility:visible;display:inline;overflow:visible;enable-background:accumulate" />
  <path
     style="fill:#000000;fill-opacity:1;fill-rule:nonzero;stroke:none"
     d="M 251.34375 7.53125 C 240.07629 7.9115168 235.2236 19.870889 226.78125 25.6875 C 218.46297 33.331826 206.33181 32.257621 197.21875 38.3125 C 184.71514 45.371607 190.95229 60.694748 188.875 72 C 187.92648 87.42559 192.78809 106.416 179.375 117.96875 C 169.99607 125.42538 162.60855 135.2054 152.25 141.40625 C 149.1555 142.60356 147.34296 143.73747 146.46875 144.71875 C 148.05567 140.87079 150.07501 137.27009 153.4375 134.5 C 159.90906 128.1223 171.16269 126.18746 170.9375 115.0625 C 174.82314 107.01358 168.32189 111.84353 168.5625 117.59375 C 167.43984 129.18356 152.76903 130.57057 147.34375 139.5625 C 142.08135 150.53767 138.94052 162.6982 131.96875 172.875 C 127.75875 180.5675 126.77822 173.88035 130.03125 169.21875 C 135.38825 158.67714 137.24023 146.62587 143.5625 136.65625 C 144.02533 136.18569 144.47517 135.69567 144.90625 135.1875 C 144.16961 134.61575 143.03285 135.45814 141.8125 137.03125 C 138.57004 139.42274 133.55001 144.45123 129.90625 146.25 C 115.35553 156.09139 106.18985 171.24074 96.8125 185.65625 C 97.127988 185.73213 97.556577 185.68462 98.125 185.5 C 106.3952 174.04283 113.17759 161.2338 124.09375 151.90625 C 128.62726 146.90639 134.76268 143.86189 140 139.78125 C 137.94813 143.31546 136.03254 147.96855 135.625 150.75 C 133.66265 160.57352 125.68218 168.92361 126.625 179.25 C 133.53155 174.35337 137.64843 166.6527 140.875 159.03125 C 142.8399 155.27747 144.07906 151.11211 145.5625 147.09375 C 145.80323 147.13121 146.08656 147.1791 146.40625 147.1875 C 146.10482 146.94586 145.91292 146.66176 145.84375 146.34375 C 145.99502 145.94566 146.15406 145.54985 146.3125 145.15625 C 147.01353 144.77238 147.92931 144.35039 149.15625 143.84375 C 162.45975 136.55728 172.39285 124.88117 183.53125 114.875 C 195.77377 101.65136 188.56399 82.598965 191.625 66.6875 C 189.91641 55.03359 189.95491 38.393992 204.59375 35.53125 C 218.19916 33.44614 230.29392 25.811364 238.8125 15.09375 C 247.27302 4.222135 263.04945 9.8766333 273.25 15.03125 C 275.85157 10.19685 258.12136 7.944402 253.65625 7.59375 C 252.84493 7.5108298 252.09491 7.5058989 251.34375 7.53125 z M 146.40625 147.1875 C 148.49564 148.86242 155.60642 148.57052 159.6875 144.25 C 155.6357 146.09753 149.42321 147.26675 146.40625 147.1875 z M 159.6875 144.25 C 159.87533 144.16435 160.04089 144.05719 160.21875 143.96875 C 160.33947 143.5858 160.34508 143.37999 160.1875 143.625 C 160.01743 143.83491 159.87038 144.05639 159.6875 144.25 z M 160.21875 143.96875 C 159.50433 146.23504 154.83072 158.03452 156.96875 163.15625 C 158.02816 167.05772 159.14139 168.41414 160.21875 168.25 C 160.21607 168.41842 160.31076 168.42683 160.46875 168.21875 C 163.43117 167.09723 166.2199 154.6463 167.625 150.5625 C 167.78918 141.798 173.01776 136.24585 179.6875 132.34375 C 178.46704 139.13832 177.92026 146.29395 173.625 151.9375 C 168.26396 159.29737 161.98092 167.02695 162.25 176.6875 C 162.29356 179.99699 163.49902 180.94762 164.96875 180.625 C 163.01673 173.38331 165.55562 165.70808 169.5 159.59375 C 173.44797 154.00157 178.50992 148.91268 179.78125 141.875 C 179.21721 139.17103 182.09227 134.03674 181.84375 131.15625 C 183.56026 130.27154 185.33423 129.47679 187.125 128.75 C 201.6734 118.94909 206.14172 99.991515 203.5625 83.46875 C 201.59298 71.991106 199.44815 54.081299 214.625 50.90625 C 229.54857 47.566598 212.82843 48.284235 208.125 53.125 C 198.52262 58.664084 199.64706 70.706885 201.125 80.0625 C 203.74938 96.835365 201.79261 116.61352 187.375 127.71875 C 185.55826 128.72511 183.67805 129.74118 181.78125 130.75 C 181.61546 130.00618 181.18008 129.42838 180.3125 129.1875 C 180.1138 130.04312 179.94373 130.9385 179.78125 131.8125 C 172.53783 135.82946 165.96038 140.6898 165.84375 150.1875 C 165.30113 153.32531 161.5827 163.3561 160.53125 167 C 158.0338 159.08129 158.16888 149.22066 163.125 141.84375 C 162.59843 142.61507 161.52171 143.32085 160.21875 143.96875 z M 164.96875 180.625 C 164.99119 180.70824 165.00762 180.79187 165.03125 180.875 C 165.08778 180.77953 165.13137 180.66237 165.1875 180.5625 C 165.11613 180.58382 165.03905 180.60957 164.96875 180.625 z M 165.1875 180.5625 C 167.54548 179.85825 170.44143 176.04519 170.25 173.03125 C 173.79094 166.21567 177.53273 174.81727 176.03125 179 C 177.05368 187.27863 183.70073 178.80977 183.40625 174.3125 C 185.3673 170.90072 183.28141 159.10461 189.375 164.5625 C 192.23188 169.1254 189.77821 179.3621 195.90625 180.25 C 199.88766 174.67845 196.05266 166.55429 194.5625 160.4375 C 191.26454 153.15323 195.35545 143.59927 203.78125 142.84375 C 209.49957 141.89234 216.44212 140.26654 219.09375 134.6875 C 218.98678 135.70757 218.89914 136.72001 218.84375 137.75 C 218.28976 148.0668 223.35893 159.89926 215.96875 169.03125 C 215.50832 169.51275 215.15443 169.91613 214.84375 170.3125 C 211.04636 168.08571 206.64589 166.51725 204.5 162.40625 C 203.26559 162.88964 203.07457 164.36713 203.84375 165.375 C 206.05887 168.92087 210.63823 169.55619 213.8125 171.9375 C 213.36276 173.13806 214.10139 173.551 215.28125 173.34375 C 215.59359 173.72259 215.88009 174.13119 216.125 174.59375 C 217.34615 178.92552 219.30346 174.24091 217.71875 172.34375 C 218.69923 171.7435 219.66836 170.92211 220.40625 169.90625 C 229.96852 163.37631 229.03323 150.52073 229.25 140.3125 C 229.09589 139.07477 229.11455 137.86894 229.25 136.6875 C 235.16759 140.84915 242.70574 141.76011 249.75 142.53125 C 254.59214 142.98923 260.0413 143.88299 264.59375 141.875 C 264.61704 142.4213 264.64663 142.95572 264.65625 143.5 C 263.78034 143.76973 263.0241 144.38119 262.5 145.125 C 261.28485 147.67136 259.57272 150.00491 258.71875 152.71875 C 257.91077 156.85173 257.0858 160.98848 256.6875 165.1875 C 256.7638 166.37116 256.00209 167.90814 256.96875 168.84375 C 258.47103 169.11377 259.14845 166.81329 258.71875 165.625 C 258.76106 161.92211 259.96824 158.86966 260.46875 155.21875 C 260.70154 151.19772 263.24916 147.56281 264.65625 143.90625 C 264.67062 145.3824 264.61346 146.86595 264.4375 148.3125 C 262.99203 155.03482 262.26473 162.39915 258.65625 168.3125 C 252.89837 173.91362 245.47561 178.6764 243.125 186.875 C 239.53708 194.27525 247.35254 192.10627 250.5625 188.46875 C 254.77104 185.70699 259.20366 183.22166 263.6875 180.875 C 262.03833 183.19986 260.61556 185.79491 258.84375 187.84375 C 256.13798 191.37852 250.41111 200.76033 258.375 201.4375 C 261.36116 199.57365 264.43824 197.6154 267.28125 195.40625 C 267.15709 195.67072 267.07504 195.96126 267.03125 196.25 C 267.24258 198.91305 266.54993 201.51496 265.84375 204.0625 C 264.56874 206.3639 265.39862 209.61845 268.40625 209.65625 C 272.42128 210.24636 276.46728 208.36587 279.4375 205.78125 C 280.81475 204.04056 283.00829 203.06202 284.15625 205.5625 C 284.82223 207.37745 289.12158 208.36843 287.9375 205.4375 C 286.55034 203.44813 283.5598 201.8025 281.21875 203.25 C 278.88536 205.3765 276.55153 207.89704 273.28125 208.46875 C 271.16115 208.72306 268.2748 208.6058 267.1875 206.4375 C 267.87814 202.22611 269.54378 198.11134 269.25 193.78125 C 273.14944 190.45001 276.49176 186.58688 278.46875 181.75 C 281.44418 171.34043 294.15404 169.67707 299.59375 161.1875 C 303.1905 150.6971 308.68881 140.58703 316.875 132.96875 C 323.69337 127.88692 328.58121 119.95885 328.6875 111.3125 C 328.32327 98.633214 321.91705 87.25229 317.25 75.75 C 314.24123 68.105755 311.10958 59.874236 311.90625 51.5625 C 314.4558 40.331799 307.11285 30.156131 300.25 22.0625 C 298.02404 16.312529 290.42772 17.481913 285.65625 18.6875 C 279.52539 20.764408 286.69224 18.96665 288.96875 18.9375 C 297.17521 19.259607 301.71648 27.20865 305.71875 33.3125 C 311.3864 39.558385 309.8248 48.398186 309.6875 56.0625 C 310.28313 72.365159 320.98768 85.760695 324.84375 101.21875 C 328.49671 111.52757 326.07367 123.93446 317.875 131.40625 C 308.33103 138.30191 302.60961 148.9437 298.4375 159.6875 C 295.35173 168.95267 283.93468 170.37524 278.75 177.90625 C 276.03911 183.77856 272.89702 189.63224 267.90625 193.9375 C 264.89702 196.08465 257.04346 204.3926 256.65625 196.84375 C 257.06586 189.80023 262.70726 185.04262 266.46875 179.4375 C 267.6153 178.85425 268.7587 178.25656 269.90625 177.6875 C 276.46075 176.48139 279.59069 169.83593 276.09375 164.09375 C 271.82723 154.15018 278.44031 143.60224 284.75 136.1875 C 292.88257 129.2201 298.12011 119.45231 300.3125 109.03125 C 301.00319 105.0326 304.32157 91.93219 300.375 94.3125 C 300.17688 102.27043 298.65065 110.28404 295.9375 117.84375 C 293.52102 125.60038 288.02043 131.64359 282.4375 137.28125 C 276.94419 143.97439 271.38944 152.47059 273.03125 161.5 C 276.3249 168.32697 276.55713 177.24914 267.25 178.21875 C 267.61576 177.61061 267.94682 176.97971 268.25 176.34375 C 266.77303 177.1822 265.58367 178.43301 264.5 179.8125 C 258.36531 183.34792 251.9408 186.47095 246.34375 190.875 C 241.34782 189.22491 248.11385 179.72174 250.6875 176.8125 C 257.3092 170.98257 264.78325 165.11427 264.78125 155.34375 C 266.50487 150.60452 266.73376 145.68837 266.625 140.71875 C 266.7292 140.64537 266.83468 140.57755 266.9375 140.5 C 266.83268 140.53473 266.73013 140.56064 266.625 140.59375 C 266.53504 136.6864 266.258 132.7424 266.3125 128.875 C 266.98046 121.21918 273.71482 115.52093 280.53125 113 C 287.92653 111.18307 292.80255 104.83365 293.84375 97.4375 C 298.21227 86.314404 291.16504 76.941543 290.84375 65.875 C 289.26322 57.637653 295.95412 52.015369 300.5 46.75 C 303.81376 41.270329 300.99557 34.27974 298.15625 29.21875 C 293.72788 24.761713 284.27927 26.250411 281.65625 32.09375 C 287.00729 26.130197 296.80304 26.47495 298.5625 35.4375 C 300.6695 39.872346 300.17552 44.652691 297.78125 48.4375 C 298.02233 45.823932 296.92561 43.282172 295.75 41 C 293.88363 36.647329 289.39712 33.48923 284.625 33.53125 C 284.48208 33.710524 284.25716 33.828241 284.0625 33.9375 C 282.407 34.994556 285.15343 35.3121 286 35.34375 C 288.88725 36.017883 291.24739 38.155821 292.875 40.5625 C 294.2257 42.670311 295.33293 45.037011 295.5 47.5625 C 295.33253 48.693308 296.50759 49.633109 297.3125 49.125 C 296.10471 50.804462 294.52751 52.280968 292.59375 53.375 C 289.55096 58.065624 288.77436 63.154292 289.03125 68.125 C 288.40336 67.710872 287.68863 67.320219 287.125 67.0625 C 283.84362 66.212641 280.3867 66.445091 277.03125 66.15625 L 275.15625 67.53125 C 277.46666 67.640904 279.75758 67.702015 282.0625 67.90625 C 283.8754 67.930528 285.72293 68.352425 287.1875 69.46875 C 287.71865 70.266034 288.48892 70.486099 289.21875 70.28125 C 289.50889 72.994728 290.03785 75.660884 290.625 78.15625 C 294.46289 87.250905 293.44922 97.734272 288.875 106.34375 C 283.10092 114.15914 270.29194 114.15215 265.78125 124 C 263.49919 129.40024 264.26876 135.30759 264.5625 141.15625 C 260.07905 142.12662 255.36733 141.82739 250.84375 141.21875 C 243.52596 140.17035 235.37716 139.33387 229.6875 134.1875 C 231.66475 126.29746 237.93671 119.2729 234.28125 110.59375 C 230.53295 100.79476 218.63108 95.365386 218 83.96875 C 219.64858 68.038655 237.56963 61.229982 241.84375 46.34375 C 245.5311 38.964766 247.48836 28.717894 255.40625 24.8125 C 266.23146 22.03873 271.26219 33.361495 279.84375 36.6875 L 280.1875 36.46875 C 276.48739 31.923121 267.63999 21.539261 257.96875 23.625 C 247.85091 23.815292 246.17422 35.040177 241.75 41.90625 C 239.69852 49.391267 235.937 56.320651 230.375 61.8125 C 224.06959 69.152156 214.27201 76.998551 216.4375 87.8125 C 218.83379 99.784663 234.0636 104.76384 233.125 117.9375 C 231.80773 123.15388 229.98349 128.17275 228.59375 133.28125 C 227.24219 133.65637 226.93477 134.70218 227.96875 135.6875 C 226.80216 140.59926 226.17118 145.66418 226.96875 151.125 C 226.89045 159.17703 224.08624 167.37636 217.0625 171.78125 C 216.81545 171.59244 216.57086 171.39527 216.3125 171.21875 C 218.35378 167.08397 224.79392 157.75007 222 150.8125 C 219.41935 139.71977 221.6897 128.39847 224 117.46875 C 229.09162 105.98664 215.05563 99.606187 212.5 89.84375 C 211.2026 77.898441 213.84335 63.328957 224.625 56.34375 C 232.63637 50.525655 230.71422 38.391768 238.375 31.75 C 244.64014 26.420249 249.28721 17.386332 258.09375 16.1875 C 265.80509 15.127685 273.24573 18.410648 279.4375 21.34375 C 275.48805 13.973711 263.14205 14.024278 255.53125 15.71875 C 246.95977 20.142529 240.52524 28.15042 234.09375 35.25 C 228.53177 43.998364 228.23002 55.912518 217.84375 61.15625 C 211.47727 69.373504 208.67361 80.798084 210.59375 91 C 212.2145 100.01551 223.29659 103.92688 222.875 113.65625 C 222.11908 118.1481 221.10108 122.60852 220.25 127.125 C 220.45507 122.55706 220.49144 117.96936 221.65625 113.5 C 218.13585 114.58679 218.87665 119.5228 218.375 122.40625 C 218.32623 128.97971 219.12396 139.12868 210.46875 140.40625 C 203.3023 141.71377 194.65703 143.86503 191.96875 151.59375 C 189.91331 159.78068 195.94665 167.38187 195.40625 175.625 C 195.89527 182.6988 194.5671 176.61014 193.65625 173.28125 C 193.5609 168.58358 190.79722 157.364 184.59375 163.3125 C 181.54074 168.61264 181.48893 175.03759 179.53125 180.78125 C 176.58937 181.95933 179.59101 171.6178 176.71875 169.34375 C 169.96071 166.98369 167.75411 175.99535 165.1875 180.5625 z M 96.8125 185.65625 C 96.786094 185.6499 96.774786 185.633 96.75 185.625 C 96.675905 185.77024 96.605553 185.91747 96.53125 186.0625 C 96.621065 185.92463 96.722724 185.79426 96.8125 185.65625 z M 96.75 185.625 C 105.00846 169.43658 112.00766 151.97842 125.53125 139.28125 C 133.76105 130.38024 145.13496 125.90701 155.21875 119.78125 C 170.61678 108.88385 178.48551 91.235547 187.3125 75.21875 L 188.34375 72.8125 L 184.28125 78.375 C 176.93256 90.768785 171.15963 104.4686 160.34375 114.4375 C 154.02248 122.15163 144.21378 124.55018 136.21875 129.9375 C 120.51824 139.48697 110.21436 155.1385 102.25 171.28125 C 101.04262 173.97168 94.023584 184.74489 96.75 185.625 z M 241.0625 52.0625 L 239.375 53.28125 C 239.89204 53.870517 242.69127 53.944124 244.0625 54.46875 C 248.17994 55.324072 251.91873 57.676214 254.65625 60.84375 C 255.29397 62.25726 257.26841 61.742386 257.625 60.5 C 256.17111 59.226578 254.9128 57.730362 253.34375 56.5625 C 249.84835 53.754168 245.32136 52.983084 241.0625 52.0625 z M 238.71875 62.15625 C 237.70327 62.15848 236.70919 62.198102 235.71875 62.1875 C 235.17432 62.687907 234.42171 62.926868 233.96875 63.53125 C 236.67198 63.738526 239.4345 63.219887 242.09375 63.90625 C 242.17808 63.926896 242.26004 63.946666 242.34375 63.96875 C 240.94846 65.074313 239.98067 66.792607 239.8125 68.5625 C 240.88741 68.331412 242.01637 67.695197 242.3125 66.5625 C 242.00376 65.875595 243.42229 64.651674 243.1875 64.21875 C 244.52476 64.657398 245.77507 65.267098 246.96875 66 C 247.75113 67.227461 248.1531 70.136021 246.0625 69.6875 C 244.28898 69.869577 242.81408 68.155988 241.09375 69.03125 C 240.90285 69.171287 240.76205 69.312142 240.6875 69.4375 C 239.94722 69.183896 239.22992 68.86441 238.5625 68.40625 C 237.08373 67.646771 236.5155 66.123926 235.78125 64.78125 C 234.22511 63.684103 232.96073 65.988203 234.28125 67.125 C 235.60971 69.544894 238.24067 70.924272 240.90625 71.3125 C 244.36383 71.471618 247.87116 72.426153 251.3125 71.625 C 252.9754 71.53813 254.83821 69.656863 253.65625 68.03125 C 252.16164 66.842817 250.57602 65.792448 248.9375 64.8125 C 248.0064 63.532175 246.37389 62.646053 244.8125 62.8125 C 242.86294 62.253294 240.7831 62.151717 238.71875 62.15625 z M 245.6875 66.21875 C 244.34973 66.54192 243.02223 67.343232 242.46875 68.65625 C 242.98512 68.060291 244.32695 68.212332 244.46875 67.34375 C 244.61028 67.363795 244.78642 67.36801 244.9375 67.3125 C 244.13258 68.022065 246.66401 66.927223 245.6875 66.21875 z M 249.625 67.875 C 250.64104 68.681637 251.62428 69.56281 252.5625 70.4375 C 250.80762 70.750106 249.04046 70.517936 247.28125 70.34375 C 248.23049 69.915798 249.05359 69.272965 249.5 68.28125 C 249.55216 68.147204 249.5911 68.009357 249.625 67.875 z M 275.78125 75.53125 C 273.91914 75.616898 272.05615 76.001929 270.3125 76.59375 C 270.19804 76.882061 268.4782 77.592062 269.1875 77.75 C 271.19956 77.208098 273.30622 76.84639 275.40625 76.90625 C 276.07053 76.889094 276.7012 76.968121 277.34375 77.0625 C 276.8718 77.235945 276.37824 77.388015 275.96875 77.6875 C 275.16199 78.369951 274.75905 79.373131 274.6875 80.40625 C 273.90888 79.928971 273.12247 79.449191 272.46875 78.8125 C 272.06064 77.084415 268.64447 77.718329 269.78125 79.4375 C 271.53914 81.220736 274.05152 82.087614 275.65625 84.0625 C 277.24071 85.953976 279.66559 86.88197 282.09375 86.9375 C 284.17309 86.908354 286.28311 87.046092 288.34375 86.71875 C 289.67483 86.420829 291.86656 85.405204 291.125 83.71875 C 289.52576 81.20997 287.2754 79.144223 284.65625 77.71875 C 284.37861 77.544792 284.09972 77.370527 283.8125 77.21875 C 283.14873 76.589938 282.16816 76.271784 281.25 76.1875 C 279.48684 75.664692 277.63342 75.446059 275.78125 75.53125 z M 277.8125 77.125 C 277.84257 77.130601 277.87623 77.119179 277.90625 77.125 C 277.85267 77.176597 277.80086 77.227137 277.75 77.28125 C 278.24229 77.487285 278.93306 77.514993 279.625 77.59375 C 280.39592 77.852808 281.14468 78.191228 281.875 78.5625 C 281.9214 78.620178 281.98956 78.65359 282.03125 78.71875 C 283.02968 80.270361 282.11843 82.134515 281.8125 83.75 C 280.29438 83.872021 278.33504 83.500032 277.40625 82.0625 C 276.48278 80.600133 276.61028 78.395148 277.8125 77.125 z M 256.03125 77.375 C 255.32186 77.777859 254.54341 78.056492 253.875 78.53125 C 253.42161 79.689789 252.71977 80.720267 251.90625 81.65625 C 250.70219 83.087567 249.20944 84.244753 247.6875 85.3125 C 246.4554 86.128355 245.59401 87.589463 245.875 89.09375 C 245.94334 90.16503 246.96278 91.378513 247.9375 90.25 C 249.04196 89.956576 248.49503 89.202598 248.125 88.46875 C 247.6013 86.994734 248.48529 85.396701 249.6875 84.53125 C 252.33944 82.724499 254.93689 80.491088 256.03125 77.375 z M 267.03125 78.6875 C 266.32598 79.04686 265.64279 79.4219 264.9375 79.78125 C 265.21975 83.951843 265.71576 88.142645 265.15625 92.3125 C 264.73716 93.544665 265.14124 96.030359 263.15625 95.71875 C 262.29789 95.421703 260.57296 96.435813 260.84375 97.0625 C 262.47953 97.090934 264.16772 96.611364 265.46875 95.59375 C 267.03864 94.465031 267.21321 92.430316 267.34375 90.65625 C 267.74646 86.669311 267.21752 82.668558 267.03125 78.6875 z M 280.03125 79.28125 C 279.15117 79.369879 278.43137 80.094223 277.6875 80.53125 C 278.05361 80.364334 278.42229 80.181103 278.78125 80 C 279.42936 79.427257 278.75707 80.359919 279.0625 80.625 C 278.89703 80.699969 278.76945 80.789039 278.71875 80.90625 C 279.08029 81.199097 281.19981 80.11185 280.40625 79.28125 C 280.27267 79.26469 280.15698 79.268589 280.03125 79.28125 z M 284.53125 80.125 C 284.93986 80.40586 285.35886 80.703758 285.75 81 C 287.06683 82.273622 288.59905 83.798563 289.28125 85.40625 C 287.65229 85.697787 285.89839 85.52833 284.21875 85.59375 C 282.93136 85.627936 281.66139 85.351791 280.5 84.84375 C 280.91147 84.710189 281.29091 84.52605 281.65625 84.28125 C 283.32279 83.53648 284.30274 81.883807 284.53125 80.125 z M 252.875 85.40625 C 252.1282 85.467196 251.37356 85.839657 250.78125 86.28125 C 249.3195 87.12127 248.54429 89.20538 249.5 90.6875 C 250.1525 90.18124 251.48319 90.254142 251.34375 89.09375 C 251.16324 88.313191 251.02795 87.513918 251.53125 86.84375 C 251.5687 86.883017 251.64173 86.914108 251.71875 86.9375 C 252.42159 87.360804 252.98976 88.221725 253.9375 87.9375 C 255.07696 87.750609 255.20289 86.098726 254.1875 85.65625 C 253.7661 85.427547 253.32308 85.369683 252.875 85.40625 z M 261.5 88.6875 C 259.72044 88.771314 258.41796 90.130449 257 91.03125 C 257.75795 90.854868 258.36109 90.334456 259.0625 90.03125 C 260.59047 89.456458 261.28721 91.406533 260.84375 92.59375 C 260.44286 93.695453 262.25228 92.725346 261.21875 93.40625 C 260.16525 94.054714 261.55747 93.674673 261.875 93.28125 C 263.61707 92.351778 263.46414 89.251822 261.5 88.6875 z M 246.90625 98 C 243.15953 98.018528 239.6183 99.91355 236.1875 101.28125 L 235.78125 101.625 C 234.56855 102.46436 234.6331 102.5526 235.15625 102.375 C 234.89732 102.64149 234.86206 103.03531 235.03125 103.375 C 234.26269 103.95007 234.69302 104.59015 235.46875 105.09375 C 232.81329 104.37201 233.9061 107.72954 235.9375 107.71875 C 239.13808 110.23944 243.06364 111.52548 246.34375 113.90625 C 249.10774 116.37309 252.9356 115.57099 256.3125 115.78125 C 258.01477 116.56048 261.17681 115.89999 261.96875 114.28125 C 261.992 114.28661 262.00764 114.30759 262.03125 114.3125 C 265.53781 113.89245 264.19712 109.78789 262.71875 107.90625 C 261.07245 105.72112 260.25355 102.66814 257.5 101.5625 C 254.34498 100.87229 251.50918 99.320635 248.53125 98.125 C 247.98859 98.043931 247.4415 97.997353 246.90625 98 z M 244.90625 99.3125 C 245.76502 99.298537 246.61798 99.444695 247.46875 99.78125 C 250.42689 101.44877 253.85354 102.05636 256.84375 103.53125 C 258.68649 105.75344 260.59957 108.18351 261.5 110.90625 C 260.36471 109.02787 259.60244 106.8711 257.40625 105.96875 C 253.30621 104.26749 248.87619 102.85485 244.375 103.125 C 241.69492 103.99212 239.25068 103.07438 236.75 102.125 C 236.45389 102.05243 236.19278 102.0459 235.96875 102.0625 C 236.45621 101.85257 236.95417 101.59469 237.3125 101.4375 C 239.72784 100.67015 242.32993 99.35439 244.90625 99.3125 z M 245.03125 104.4375 C 245.43229 104.45476 245.82301 104.51308 246.21875 104.59375 C 249.74676 105.13562 253.25465 106.19016 256.4375 107.78125 C 257.56599 108.47321 258.1922 109.70548 258.8125 110.9375 C 255.72833 109.7108 252.64404 108.49598 249.53125 107.34375 C 246.48889 105.82697 242.8638 105.85253 239.6875 104.78125 C 241.44512 104.79476 243.25836 104.36119 245.03125 104.4375 z M 236.78125 105.75 C 237.22164 105.92584 237.66276 106.06434 238 106.15625 C 242.88513 107.04266 247.66455 108.48041 252.25 110.40625 C 254.75675 112.04869 258.8123 111.68267 260.21875 114.65625 C 259.77249 115.36138 256.58702 113.80859 254.96875 114.34375 C 251.02629 115.06968 247.89809 112.41778 244.84375 110.40625 C 241.84071 109.42607 239.472 107.30793 236.78125 105.75 z M 318.25 132.59375 C 317.84273 132.53271 317.23305 133.7064 316.90625 134.09375 C 312.57141 141.94434 313.85898 153.78896 313.53125 162.53125 C 311.50574 172.14761 319.03198 180.49136 317.96875 190 C 313.81128 199.70154 312.70076 210.76316 315.03125 221.09375 C 314.68792 220.60018 314.14831 219.9651 313.5625 219.28125 C 313.1141 217.18658 312.35786 215.87066 311.09375 216.25 C 309.04741 213.55407 307.16576 210.28268 307.71875 206.84375 C 304.7196 199.83039 306.88772 192.47377 307.0625 185.1875 C 304.96697 178.24326 303.48943 188.40959 305.0625 191.09375 C 302.19879 197.548 304.6806 204.03134 306 210.5625 C 305.98247 210.70108 305.97168 210.85323 305.96875 211 C 304.58167 208.89188 303.22279 206.77647 302.0625 204.53125 C 299.95536 202.40049 303.02811 199.69448 301.53125 197.5 C 303.90312 196.23471 301.55754 196.63703 300.71875 197.78125 C 298.19891 200.3944 299.31053 204.32277 300.875 207.125 C 302.58028 209.98823 304.24335 212.89097 306.1875 215.59375 C 308.62846 219.69729 302.44348 217.57437 300.75 216.1875 C 296.4928 214.49687 292.17337 211.08971 291.8125 206.1875 C 291.91262 202.55495 293.33116 199.02146 292.90625 195.34375 C 292.83247 191.45779 289.94215 188.63342 287.5625 185.90625 C 285.63544 183.71615 284.21815 181.08078 284.03125 178.125 C 283.10157 174.54981 280.64388 179.53922 282.15625 181.15625 C 283.30467 185.81278 287.7347 188.4735 289.84375 192.59375 C 292.8365 198.23864 288.30036 204.47984 290.4375 210.25 C 292.99046 215.29005 298.52217 217.70387 303.59375 219.4375 C 305.36721 220.30905 308.08224 219.59965 308.96875 218 C 309.73028 218.97525 310.56347 219.83934 311.40625 220.5 C 312.76699 231.19058 311.89756 242.23971 310.4375 252.96875 C 306.67457 265.47671 303.07984 278.12442 300.4375 290.96875 C 297.39339 308.10882 290.13972 324.0672 286.25 340.96875 C 285.31693 339.72689 284.22212 338.9776 282.65625 339.8125 C 283.1732 342.41906 286.77104 344.5873 287.4375 347.6875 C 288.60128 353.10864 286.64315 358.59188 285.1875 363.78125 C 285.13913 367.69393 282.38959 370.07215 278.53125 370.03125 C 274.96154 371.71062 271.15769 372.84972 267.21875 373.25 C 261.94783 374.16908 256.48856 373.901 251.375 372.28125 C 247.58648 371.51262 245.73762 367.54502 242.25 366.25 C 238.1989 365.41128 233.73352 366.75722 229.9375 364.625 C 224.77145 361.69826 221.70367 356.34127 217.0625 352.75 C 210.59875 347.59378 206.24699 340.48994 201.125 334.125 C 198.27828 331.46899 197.8717 327.50033 197 323.9375 C 194.97913 320.79924 198.71934 324.35946 200.21875 324.78125 C 201.94895 326.89753 202.97015 329.54853 204.375 331.90625 C 206.61755 335.62465 207.20739 340.14617 209.84375 343.625 C 210.26455 344.54924 210.74889 345.43499 211.40625 346.21875 C 212.26615 346.36528 212.79345 346.3115 213.09375 346.09375 C 213.55758 345.88997 213.74899 345.27976 213.21875 344.15625 C 209.76991 338.32764 206.99183 332.11152 204.5 325.8125 C 202.40577 322.13168 202.5629 317.77076 201.0625 313.90625 C 202.94395 314.96756 206.40746 314.99989 207.8125 317.625 C 213.28939 323.67187 216.03817 331.59043 220.9375 338.0625 C 223.22556 340.53622 225.67222 342.91365 227.625 345.6875 C 227.88117 346.08737 228.13405 346.49471 228.40625 346.875 C 228.41387 346.88722 228.4299 346.89402 228.4375 346.90625 C 228.74565 349.55291 232.69155 349.36248 231.4375 346.53125 C 229.53607 344.67299 228.21059 342.30134 227 339.9375 C 223.96749 334.41577 222.74554 328.18037 220.5 322.34375 C 218.75034 318.65952 217.94929 314.65563 216.65625 310.8125 C 214.14595 307.31764 217.67739 308.53269 219.875 309.96875 C 225.05808 312.48557 226.42728 318.47693 228.90625 323.15625 C 232.10012 328.04365 235.06904 333.07791 237.84375 338.21875 C 238.85369 340.13955 242.21165 344.75342 244.1875 343.15625 C 244.29079 343.15845 244.38729 343.16551 244.5 343.15625 C 244.50398 343.05977 244.482 342.96876 244.46875 342.875 C 244.68995 342.60556 244.89434 342.26143 245.0625 341.78125 C 243.63313 338.07466 241.8132 334.5291 240.125 330.9375 C 238.65958 326.22873 236.3614 321.86685 234.03125 317.53125 C 232.26803 314.70232 231.51648 311.44649 230.1875 308.4375 C 229.95623 307.51334 234.38798 309.79895 235.5 311 C 238.37341 314.40381 241.06675 317.98002 244.21875 321.15625 C 247.00456 324.39238 250.7251 326.68939 253.4375 329.96875 C 255.49268 332.08747 256.26432 338.58258 260.28125 335.34375 C 263.05464 332.32758 265.12481 328.53957 267.15625 324.96875 C 267.67275 321.46129 267.24707 317.85364 267.96875 314.34375 C 268.01866 314.15475 268.0793 313.96915 268.125 313.78125 C 268.14497 313.67773 268.16765 313.57261 268.1875 313.46875 C 268.844 311.13429 269.28249 306.51041 271.25 307.03125 C 274.653 308.28458 275.4969 312.78061 275.78125 316.03125 C 274.94645 320.11599 276.2471 324.20691 277.59375 328.03125 C 279.44085 332.08827 278.68397 336.91035 276.15625 340.5 C 272.68685 344.44753 271.57692 349.8762 271.96875 355 C 275.34635 354.38526 273.72814 350.76982 274.15625 348.5 C 274.61805 343.06012 279.48167 339.43424 280.5625 334.21875 C 281.56433 327.96328 276.57183 322.48967 277.78125 316.21875 C 277.98064 312.37154 276.8853 307.08464 272.84375 305.625 C 271.33742 305.68896 270.1244 306.31637 269.15625 307.25 C 269.80929 301.63152 269.64947 295.87938 266.9375 290.84375 C 264.79531 286.63501 259.92602 285.56949 255.75 284.5 C 250.0644 282.69224 243.5255 282.79045 238.5 286.3125 C 232.64672 289.7682 230.04061 296.85421 230.5625 303.40625 C 231.73858 303.26079 232.67205 302.33199 232.71875 301.125 C 232.31439 295.14748 235.06288 288.60934 240.59375 285.8125 C 246.30598 283.435 252.67886 285.38459 258.3125 287.09375 C 263.88659 288.20505 266.70324 294.02984 267.1875 299.21875 C 267.43979 303.19415 267.39211 307.36005 266.75 311.375 C 266.39894 312.43248 266.15861 313.52497 266.03125 314.53125 C 265.84985 315.0943 265.71494 315.67551 265.625 316.25 C 264.80839 318.84077 263.64365 321.31341 262.03125 323.5625 C 261.6126 326.2711 255.32454 327.5699 256.1875 328.28125 C 260.34816 327.36714 263.38443 324.34954 265.4375 320.71875 C 265.443 322.80165 265.41303 324.87027 264.65625 326.84375 C 262.8338 329.70099 260.87039 332.52504 259.09375 335.4375 C 259.10441 335.51506 259.08975 335.52574 259.09375 335.5625 C 258.95924 335.07429 258.46783 333.09865 257.6875 332.6875 C 256.51484 329.35597 253.86745 326.88559 251.21875 324.6875 C 246.09798 320.55713 242.16582 315.2754 237.84375 310.375 C 236.08597 307.06049 229.73887 305.12747 228.34375 309.625 C 229.75407 315.31875 233.05512 320.25084 235.53125 325.5 C 237.03884 329.09233 238.19986 332.81696 240.09375 336.25 C 240.85854 337.02446 241.17517 338.25989 241.46875 339.46875 C 240.76858 338.81404 240.15205 338.10881 239.9375 337.28125 C 237.48243 332.68929 234.93254 328.16384 232.0625 323.8125 C 228.80526 319.26405 228.11878 312.81535 223.15625 309.59375 C 220.74775 307.05251 213.95104 305.33709 214.5 310.8125 C 215.25047 314.93765 216.758 318.87349 218.1875 322.8125 C 220.06788 327.38718 221.17298 332.26264 223 336.84375 C 222.59409 336.34741 222.2015 335.84767 221.84375 335.3125 C 217.17485 328.6979 214.43637 320.68013 208.4375 315.0625 C 205.9372 312.19181 199.26415 312.01258 199.34375 316.875 C 199.7762 318.77195 200.31313 320.62022 200.90625 322.46875 C 199.04445 321.32777 196.77497 321.15949 195.03125 322.96875 C 194.77679 326.63815 195.86956 330.34005 197.75 333.46875 C 202.44788 339.33871 206.53076 345.75951 211.875 351.09375 C 216.28001 354.68749 220.09557 358.87834 224.09375 362.90625 C 225.22947 364.28212 226.67586 365.28485 228.25 366 C 230.18128 366.87741 232.33363 367.32755 234.46875 367.34375 C 237.70195 367.24877 241.28299 367.01932 243.6875 369.6875 C 247.33321 374.16092 253.44353 374.78427 258.8125 375.15625 C 263.98754 375.01865 269.30294 374.39701 274.1875 372.5625 C 277.87961 370.51566 283.06804 371.13994 285.6875 367.3125 C 287.10822 364.10553 287.93572 360.6141 288.84375 357.21875 C 289.49012 353.49742 290.76769 349.45341 289.1875 345.8125 C 288.28598 344.74468 287.50414 342.75208 286.5 341.28125 C 291.09023 335.79568 291.22602 325.93489 294.53125 319.09375 C 301.22054 301.0266 303.36828 281.76886 309.21875 263.46875 C 313.04045 253.63629 313.66708 243.09095 314.1875 232.65625 C 314.16682 230.37092 314.32571 225.61302 313.9375 221.78125 C 315.41065 222.00068 316.58149 221.00035 316.875 218.03125 C 315.27824 210.93621 315.35747 203.45733 317.65625 196.5 C 322.48663 188.02763 318.84167 178.95673 316 170.5625 C 315.09807 158.8673 314.29807 144.2612 318.5625 133.15625 C 318.49102 132.78262 318.38576 132.6141 318.25 132.59375 z M 228.25 366 C 227.51923 366.30268 226.79327 366.60355 226.0625 366.90625 C 225.65605 368.21209 225.33099 369.55657 224.96875 370.875 C 224.36867 373.46001 223.28801 375.89206 222.03125 378.21875 C 220.60715 380.95816 219.2423 383.85479 219.1875 387 C 218.81253 388.13485 219.72232 388.37438 220.5 387.6875 C 221.4577 387.36067 221.365 386.22521 221.3125 385.40625 C 221.54057 382.22864 223.10985 379.36401 224.5 376.5625 C 226.44007 373.31318 226.91183 369.48969 228.25 366 z M 114.4375 148.21875 C 105.54256 149.17328 99.203192 156.79668 94.03125 163.5 C 85.185203 174.49903 83.056401 189.15574 74.5625 200.28125 C 61.010439 220.39943 54.117285 244.78874 36.71875 262.3125 C 31.683857 268.85612 22.716119 275.45279 25.25 284.75 C 26.989489 277.6885 31.023839 267.92588 38.09375 262.125 C 54.985823 245.36286 62.116762 222.0588 74.6875 202.40625 C 83.377892 191.69821 85.98919 177.7327 93.5 166.3125 C 98.669992 159.66021 103.71229 150.4433 112.96875 149.5 L 114.28125 148.46875 L 114.4375 148.21875 z M 237.375 175.78125 C 235.89663 175.81764 234.44969 176.10728 233.0625 176.65625 C 231.45795 177.29359 229.60574 177.79528 228.46875 179.15625 C 230.62648 178.3414 232.88468 177.24385 235.28125 177.15625 C 238.92072 177.21884 242.6133 177.80258 245.9375 179.34375 L 247.9375 178.03125 C 245.45506 176.88857 242.73685 176.27796 240.03125 175.96875 C 239.15141 175.82586 238.26202 175.75942 237.375 175.78125 z M 113.15625 199.1875 C 109.87608 200.26564 110.94519 202.03405 111.75 204.75 C 112.32836 207.21854 112.94326 209.68867 113.375 212.1875 C 113.97762 215.5817 113.952 219.07378 113.71875 222.5 C 113.50113 225.52014 112.00641 227.92488 110.25 230.28125 C 108.06048 232.69362 105.94427 235.1356 104 237.75 C 101.34832 240.79242 98.955281 244.0658 96.9375 247.5625 C 95.028383 250.97016 93.187118 254.43864 91.0625 257.71875 C 88.977458 261.02786 86.340004 263.84057 83.5 266.5 C 81.076111 268.52295 79.157615 270.833 77.84375 273.6875 C 77.173139 274.95638 76.971839 276.29652 76.875 277.6875 C 75.982491 275.10708 74.428899 272.85747 73.03125 270.53125 C 72.728419 269.4054 71.620967 268.4253 70.53125 268.5 C 70.738105 268.39713 70.953909 268.29774 71.15625 268.1875 C 70.721872 268.21096 70.367253 268.34564 70.125 268.5625 C 69.847088 268.65387 69.558359 268.82944 69.3125 269.09375 C 69.524029 268.97996 69.753186 268.88784 69.96875 268.78125 C 69.387082 269.56032 69.615212 270.9034 70.5 271.59375 C 72.93821 274.14471 74.420512 277.41165 75.53125 280.71875 C 75.938597 282.28242 76.635642 283.86339 78.0625 284.75 C 79.443424 285.79194 81.380525 286.14097 82.9375 285.25 C 83.85825 284.80033 85.60021 283.49707 85.5625 283 C 85.411128 282.98961 85.189148 283.04916 84.96875 283.125 C 89.358408 279.27372 88.087787 272.56179 91.75 268.34375 C 95.427025 265.86995 98.922427 263.37406 102 260.125 C 105.75752 261.11458 110.80183 255.58247 113.40625 259.0625 C 112.92048 264.77757 109.55724 270.04335 104.84375 273.25 C 103.71288 273.40735 102.69414 273.98995 103.34375 274.1875 C 102.97795 274.3909 102.62831 274.5713 102.25 274.75 C 105.80261 273.24575 104.40054 278.95103 104.53125 280.875 C 105.00009 287.05975 111.82703 289.54906 117.1875 289.375 C 123.20596 288.76379 129.31014 289.05876 135.28125 288.09375 C 143.18002 285.5202 151.57164 284.33773 159.1875 280.90625 C 163.55744 280.57482 162.44468 282.7828 160.25 284.9375 C 160.0009 284.9949 159.74791 285.0317 159.5 285.09375 L 159.03125 285.4375 C 157.33449 286.42556 157.81826 286.41079 158.75 286.21875 C 157.51636 287.23735 156.26834 288.15078 155.5 288.5625 C 149.9729 293.28971 143.94887 297.49917 136.625 298.78125 C 131.11885 300.62209 124.72555 300.73126 119.9375 304.1875 C 125.31072 302.3434 130.91274 301.28121 136.375 299.75 C 143.22653 298.20801 149.2995 294.61406 154.59375 290.09375 C 156.1263 288.51081 158.11593 287.29087 159.96875 285.96875 C 160.29246 285.89526 160.62864 285.81645 160.875 285.78125 C 163.72614 285.39867 166.45083 284.58331 169.15625 283.625 C 172.75133 281.69425 174.28918 286.22511 171.40625 288.15625 C 167.96143 291.14978 165.50561 295.04703 162.53125 298.46875 C 160.39386 300.78161 158.14304 303.39326 155.25 304.625 C 151.95004 306.10349 148.85332 308.07886 146.03125 310.34375 C 140.83667 310.75929 135.38439 311.07008 130.78125 313.78125 C 127.12876 316.03329 122.34713 315.62691 119 318.4375 C 119.27315 318.68514 121.90963 317.42415 123.1875 317.28125 C 126.831 316.69481 129.8841 314.49483 133.3125 313.3125 C 137.78076 311.66658 142.95801 312.73559 147.125 310.21875 C 149.39467 308.68814 151.34436 306.68258 154 305.78125 C 160.54947 303.07612 165.07231 297.3901 169.1875 291.875 C 170.88683 289.30309 174.04587 287.71829 175 284.6875 C 175.91499 281.83129 172.46629 281.5033 170.5625 282.3125 C 167.75745 283.51377 164.74856 283.98836 161.78125 284.59375 C 162.98031 283.55214 163.98802 282.34769 164.5625 280.84375 C 162.01247 276.86842 155.77269 282.58057 151.78125 282.75 C 146.05777 283.86115 140.59771 285.92466 134.90625 287.125 C 132.13061 287.01478 129.34127 287.30072 126.5625 287.5625 C 126.02554 286.89776 124.70567 286.14921 123.53125 285.9375 C 118.24409 282.28821 117.22208 275.19401 116.5625 269.25 C 115.44494 263.68338 118.1558 257.70514 123.28125 255.15625 C 128.30893 253.00446 133.86828 251.25576 139.40625 252.03125 C 143.27412 252.81056 147.4911 252.65394 150.96875 254.6875 C 156.34916 258.84594 161.8826 264.65052 161.46875 271.96875 C 161.94736 277.4636 157.74253 280.76285 153.40625 280.71875 C 149.5015 282.79582 154.97009 281.33881 156 281.03125 C 160.64797 280.52625 164.31537 275.21864 163.53125 270.125 C 163.74117 263.33169 158.34442 258.30082 153.84375 253.96875 C 149.50368 251.22935 144.08849 251.05217 139.125 250.5 C 131.58005 250.71348 123.62635 253.04333 118.0625 258.34375 C 113.99641 262.01209 113.92881 267.83005 114.75 272.84375 C 115.65816 278.3612 117.40958 285.25351 122.78125 287.875 C 120.12434 288.04592 117.48572 288.05287 114.84375 287.5625 C 108.90633 286.98972 105.43181 281.28061 106.78125 275.6875 C 107.41124 274.03669 106.76353 273.39446 105.84375 273.25 C 109.06959 271.13582 114.01886 266.13892 114.875 261.8125 C 117.61536 255.43454 111.78412 256.02569 107.75 258.0625 C 104.79194 258.41183 101.73076 259.12077 99.4375 260.9375 C 99.660003 260.02069 99.752695 259.09172 99.6875 258.53125 C 99.902288 254.29605 101.34148 250.12926 103.84375 246.6875 C 107.2774 242.32937 111.3808 238.33578 113.4375 233.0625 C 115.19502 227.6842 117.32293 222.29736 117.6875 216.59375 C 116.81708 216.78341 116.27275 217.21841 115.90625 217.8125 C 115.9248 215.55446 115.82551 213.2811 115.4375 211.0625 C 114.99859 208.55983 114.38311 206.10019 113.8125 203.625 C 113.19556 201.53061 113.56948 199.24721 112.25 199.84375 L 113.15625 199.1875 z M 113.40625 227.84375 C 112.78197 229.90205 112.10349 231.94179 111.3125 233.9375 C 108.95249 240.6052 102.75921 244.7949 99.6875 251.03125 C 97.532607 254.79319 98.143151 259.28078 96.875 263.28125 C 96.985282 263.40139 97.081397 263.49388 97.1875 263.5625 C 97.16449 263.60368 97.147512 263.6457 97.125 263.6875 C 94.455282 266.7502 89.386949 267.231 88 271.59375 C 87.197464 275.74592 85.71145 279.69564 83.90625 283.53125 C 84.078558 283.44055 84.256924 283.37754 84.4375 283.3125 C 83.682906 283.69733 83.058146 284.32819 83.75 284.4375 C 82.861793 283.98417 81.118158 284.6666 80.15625 283.5625 C 78.225953 282.42182 77.811987 280.10279 77.03125 278.1875 L 78.90625 277.21875 C 79.001022 275.63585 79.218042 274.14913 79.96875 272.71875 C 81.308838 269.90599 83.227614 267.63383 85.625 265.625 C 88.450958 262.95064 91.097752 260.14039 93.15625 256.8125 C 95.279433 253.51683 97.127381 250.05052 99.03125 246.625 C 101.04843 243.12542 103.49017 239.90106 106.125 236.84375 C 108.0775 234.23521 110.20742 231.77473 112.375 229.34375 C 112.73866 228.84929 113.07761 228.34741 113.40625 227.84375 z M 198.3125 247.40625 C 194.95366 248.021 196.64834 252.4319 195.96875 254.78125 C 194.73594 264.19346 188.38601 271.72657 183.71875 279.65625 C 181.51992 283.00099 180.74736 287.11265 178.15625 290.1875 C 178.88651 291.48862 181.64883 287.90998 182.0625 286.59375 C 184.81351 279.20915 189.76677 272.99264 193.5625 266.15625 C 197.09653 260.6009 198.62886 253.95585 198.3125 247.40625 z M 282.875 261.15625 C 281.06703 261.84993 280.02141 261.7797 278.46875 263.375 C 271.94006 267.6327 268.16259 275.2815 268.0625 283 C 267.05749 290.08459 272.41984 296.3483 271.4375 303.40625 C 271.9859 306.73191 274.62988 302.6543 273.6875 300.875 C 273.61622 294.92235 269.98085 289.68268 270.09375 283.71875 C 269.94439 277.03205 272.21831 270.31231 276.875 265.4375 C 278.24898 263.18944 280.77217 262.46107 282.875 261.15625 z M 131.90625 261.5625 C 130.66011 261.63064 129.46042 262.21181 128.78125 263.25 C 127.79568 265.55537 128.62834 268.11204 129.25 270.40625 C 131.08014 270.12736 131.60117 268.401 130.71875 266.90625 C 130.58705 265.61825 129.42673 262.67185 131.5625 262.71875 C 134.08765 263.65985 134.1097 267.75915 131.84375 269.03125 C 132.13883 269.16074 133.73652 268.44957 134.28125 267.8125 C 135.73642 266.70612 136.2589 264.47376 135.1875 262.9375 C 134.43134 261.93605 133.15239 261.49436 131.90625 261.5625 z M 200.96875 267.25 L 200.40625 267.5625 L 199.78125 267.875 C 198.4893 271.583 200.9191 276.68561 199.28125 280.90625 C 197.62399 285.89305 195.45154 291.00252 196.0625 296.40625 C 196.61782 301.86901 196.47474 307.5252 198.0625 312.8125 C 201.8864 316.70885 199.86903 309.55143 199.125 307.5 C 198.65104 300.32617 197.00588 292.8551 199.3125 285.8125 C 202.13777 280.07633 202.5318 273.4043 200.96875 267.25 z M 27.5625 285.59375 C 26.540608 285.59744 25.706154 288.06377 26.5 289 C 26.845944 291.65237 27.755256 294.21915 29.03125 296.5625 C 31.214404 300.37448 34.006689 304.07502 38 306.125 C 43.866906 308.84888 50.092668 310.73695 56 313.375 C 56.437148 313.03323 58.161395 312.53172 57.15625 311.8125 C 53.817566 310.48462 50.474667 309.17486 47.125 307.875 C 43.684967 306.40787 39.868726 305.55658 36.96875 303.0625 C 33.238139 299.7339 30.308713 295.37631 28.96875 290.53125 C 28.413776 289.07676 28.538389 287.52489 28.28125 286.03125 C 28.044741 285.72127 27.798321 285.5929 27.5625 285.59375 z M 174.03125 291.875 C 170.8227 292.1967 167.02948 295.58316 165.25 297.78125 C 166.89093 297.18496 168.16392 295.83199 169.40625 294.65625 C 173.14214 290.47676 178.85789 295.36561 174.75 299.6875 C 172.20951 305.33402 166.33426 307.89661 161.125 310.46875 C 154.85885 312.09118 152.34141 318.93959 146.75 321.03125 C 139.79559 321.83272 132.82137 321.64988 125.84375 322.375 C 119.70009 321.26268 113.76937 318.8309 107.59375 317.625 C 100.87615 315.88575 93.93513 315.75395 87.09375 314.90625 C 81.806627 312.97023 76.136691 312.81434 70.5625 313 C 66.138999 313.68716 61.480513 311.54737 57.3125 313.25 C 58.773121 314.50947 65.143643 314.0444 68.5 314.3125 C 74.764044 313.73925 80.909318 314.81363 86.9375 316.46875 C 98.409106 317.09893 109.84951 319.20129 120.6875 323.0625 C 126.20445 324.52664 131.8815 322.45327 137.53125 323.03125 C 142.42192 322.39561 148.43648 322.74497 151.96875 318.71875 C 156.10435 311.75074 164.50488 309.99106 170.75 305.625 C 174.39463 302.85385 178.51358 298.6697 177.8125 293.71875 C 176.82441 292.2049 175.48968 291.72877 174.03125 291.875 z M 254.09375 303.90625 C 252.55868 304.0039 251.01484 304.92073 250.3125 306.28125 C 249.62164 308.32279 249.98098 310.74509 250.8125 312.71875 C 251.56262 312.17619 253.12715 312.22845 252.625 310.875 C 252.08464 309.16302 251.61196 307.10585 252.375 305.40625 C 254.6099 304.02263 255.80275 307.59899 255.78125 309.34375 C 256.78203 311.58763 254.12593 311.84803 252.8125 312.65625 C 253.00407 314.02811 255.22905 312.5038 255.9375 311.875 C 258.31604 310.7039 258.78988 307.30642 257.25 305.28125 C 256.48613 304.23771 255.28769 303.8303 254.09375 303.90625 z M 95.21875 318.34375 C 94.643119 318.45678 94.065126 318.68695 93.65625 319.125 C 92.453298 320.64149 93.370761 322.66522 93.1875 324.40625 C 93.389649 326.6915 93.479266 329.00731 93.0625 331.28125 C 92.227158 335.70991 90.384985 339.96551 87.90625 343.71875 C 84.856568 347.39082 81.125033 350.41797 77.5 353.5 C 74.73426 355.51721 73.493857 358.8127 71.59375 361.53125 C 71.007865 362.51009 70.009548 363.26171 69.40625 364.125 C 71.47144 363.66143 72.855274 361.87678 74 360.21875 C 75.790381 357.2067 77.489098 353.96233 80.46875 351.9375 C 83.769032 349.07155 87.202134 346.28566 89.9375 342.84375 C 92.712815 338.66148 94.727949 333.88121 95.34375 328.875 C 95.562674 325.36704 94.993052 321.85784 95.21875 318.34375 z M 153.1875 382.15625 C 152.06095 382.18864 151.02301 382.89791 150.125 383.53125 C 148.67623 384.32741 148.85853 386.83285 150.4375 387.375 C 150.98313 387.21617 151.46495 386.88456 151.78125 386.40625 C 152.18681 385.83728 151.76629 385.20085 151.625 384.625 C 151.3393 383.91639 152.29169 383.31138 152.78125 383.90625 C 153.41306 384.36178 152.72535 385.28683 153.40625 385.6875 C 154.08806 385.97772 154.85219 385.41442 155.09375 384.78125 C 155.5796 383.7179 154.7904 382.37452 153.65625 382.1875 C 153.49109 382.16262 153.34844 382.15162 153.1875 382.15625 z "
     id="path1662" />
</svg>
