<?xml version="1.0" encoding="UTF-8" standalone="no"?>
<!-- Created with Inkscape (http://www.inkscape.org/) -->

<svg
   xmlns:dc="http://purl.org/dc/elements/1.1/"
   xmlns:cc="http://creativecommons.org/ns#"
   xmlns:rdf="http://www.w3.org/1999/02/22-rdf-syntax-ns#"
   xmlns:svg="http://www.w3.org/2000/svg"
   xmlns="http://www.w3.org/2000/svg"
   xmlns:xlink="http://www.w3.org/1999/xlink"
   xmlns:sodipodi="http://sodipodi.sourceforge.net/DTD/sodipodi-0.dtd"
   xmlns:inkscape="http://www.inkscape.org/namespaces/inkscape"
   width="400"
   height="400"
   id="svg1"
   sodipodi:version="0.32"
   inkscape:version="0.48.0 r9654"
   sodipodi:docname="nude07.svg"
   version="1.1">
  <defs
     id="defs3">
    <linearGradient
       inkscape:collect="always"
       id="linearGradient7949">
      <stop
         style="stop-color:#ffffff;stop-opacity:1;"
         offset="0"
         id="stop7951" />
      <stop
         style="stop-color:#ffffff;stop-opacity:0;"
         offset="1"
         id="stop7953" />
    </linearGradient>
    <linearGradient
       inkscape:collect="always"
       xlink:href="#linearGradient7949"
       id="linearGradient7955"
       x1="150.4239"
       y1="-62.110386"
       x2="370.78171"
       y2="356.17365"
       gradientUnits="userSpaceOnUse"
       gradientTransform="matrix(0.55665861,0,0,0.55622548,-4.2940372,39.841384)" />
    <linearGradient
       inkscape:collect="always"
       xlink:href="#linearGradient7949"
       id="linearGradient7959"
       x1="472.74146"
       y1="21.806858"
       x2="563.86292"
       y2="149.53271"
       gradientUnits="userSpaceOnUse"
       gradientTransform="matrix(0.55665861,0,0,0.55622548,-4.2940372,39.841384)" />
    <linearGradient
       inkscape:collect="always"
       xlink:href="#linearGradient7949"
       id="linearGradient7963"
       x1="505.81268"
       y1="215.0311"
       x2="526.27704"
       y2="230.60742"
       gradientUnits="userSpaceOnUse"
       gradientTransform="matrix(0.55665861,0,0,0.55622548,-4.2940372,39.841384)" />
    <linearGradient
       inkscape:collect="always"
       xlink:href="#linearGradient7949"
       id="linearGradient7967"
       x1="432.74255"
       y1="205.10356"
       x2="441.75882"
       y2="225.35277"
       gradientUnits="userSpaceOnUse"
       gradientTransform="matrix(0.55665861,0,0,0.55622548,-4.2940372,39.841382)" />
    <linearGradient
       inkscape:collect="always"
       xlink:href="#linearGradient7949"
       id="linearGradient8697"
       x1="545.56006"
       y1="147.2883"
       x2="555.88037"
       y2="162.77921"
       gradientUnits="userSpaceOnUse"
       gradientTransform="matrix(0.55665861,0,0,0.55622548,-4.2940372,39.841384)" />
    <linearGradient
       inkscape:collect="always"
       xlink:href="#linearGradient7949"
       id="linearGradient8703"
       x1="45.353428"
       y1="234.92781"
       x2="74.022171"
       y2="316.70349"
       gradientUnits="userSpaceOnUse"
       gradientTransform="matrix(0.55665861,0,0,0.55622548,-4.2940372,39.841382)" />
    <linearGradient
       inkscape:collect="always"
       xlink:href="#linearGradient7949"
       id="linearGradient8705"
       x1="27.906656"
       y1="220.51904"
       x2="79.50869"
       y2="326.43805"
       gradientUnits="userSpaceOnUse"
       gradientTransform="matrix(0.55665861,0,0,0.55622548,-4.2940372,39.841382)" />
    <filter
       inkscape:collect="always"
       id="filter3808"
       color-interpolation-filters="sRGB">
      <feGaussianBlur
         inkscape:collect="always"
         stdDeviation="5.6830728"
         id="feGaussianBlur3810" />
    </filter>
  </defs>
  <sodipodi:namedview
     id="base"
     pagecolor="#ffffff"
     bordercolor="#666666"
     borderopacity="1.0"
     inkscape:pageopacity="0.0"
     inkscape:pageshadow="2"
     inkscape:zoom="1"
     inkscape:cx="587.5"
     inkscape:cy="250"
     inkscape:current-layer="svg1"
     inkscape:window-width="1479"
     inkscape:window-height="774"
     inkscape:window-x="0"
     inkscape:window-y="25"
     fill="#ffcc99"
     showgrid="false"
     inkscape:window-maximized="0" />
  <metadata
     id="metadata4">
    <rdf:RDF>
      <cc:Work
         rdf:about="">
        <dc:format>image/svg+xml</dc:format>
        <dc:type
           rdf:resource="http://purl.org/dc/dcmitype/StillImage" />
      </cc:Work>
    </rdf:RDF>
  </metadata>
  <path
     inkscape:connector-curvature="0"
     id="path7186"
     d="m 688.44039,215.41531 c -19.45464,1.04201 -36.1277,7.16914 -48.48288,16.29584 -12.059,8.72684 -19.21225,20.38803 -28.53275,30.72729 -4.10881,5.09568 -8.14254,10.25714 -10.66584,16.08036 -3.00642,0.9806 -5.48376,1.52891 -9.25665,1.21241 -11.60938,0.15925 -23.89517,-0.39674 -33.40076,3.49281 -7.58429,1.67635 -13.07916,5.78579 -14.37514,11.64347 1.59094,3.26738 1.86654,4.23266 -3.40445,5.41881 -7.5107,4.01712 -20.61921,2.10008 -25.34515,8.67221 -3.92033,4.59847 -5.93192,10.18136 -6.42169,16.01415 3.11857,0.0602 12.83091,-1.27606 7.48784,1.77736 -9.79204,8.05713 -19.88395,15.97395 -28.08423,25.02521 -4.94263,4.69202 -13.12826,6.90314 -18.68775,11.03833 -2.49092,1.45634 -5.85308,-5.27596 -8.6894,-7.06449 -14.97523,-15.44257 -31.87622,-30.24943 -49.92853,-44.02304 -12.74097,-5.96214 -26.57561,-3.35559 -37.13164,-0.32674 -25.48331,7.4398 -52.80911,12.47391 -81.00304,15.90525 -12.53204,1.29196 -23.86697,5.23157 -37.69313,3.56789 -20.12407,0.6327 -40.76208,0.0539 -61.6606,-2.0095 -13.60477,-0.44796 -27.72478,-4.45642 -41.12685,-4.01258 -8.50074,-0.57388 -16.74127,-0.28624 -25.07854,-0.31676 -1.92986,-0.72694 -7.07906,0.0418 -10.42128,-0.82495 -4.7877,0.0667 -9.70128,-3.77978 -13.88896,-1.8973 -3.50844,0.22157 -5.92956,1.69716 -9.33928,2.09856 -2.41362,1.17738 -4.2566,2.97846 -5.81434,4.38215 6.88787,2.88526 13.38711,7.69689 21.11598,7.58717 7.73513,-0.0532 13.26415,5.40749 19.12876,9.11515 -6.31758,-0.48194 -12.88952,0.18017 -19.20081,-2.08998 -2.07769,1.79752 -1.16208,4.55961 -4.56033,6.24312 -3.58422,-0.9652 -6.4241,1.1003 -2.99093,4.79891 1.32471,2.92514 4.27624,6.66579 8.34509,8.07131 12.19591,1.24634 22.01141,-2.7783 33.39931,-3.24092 8.67388,-0.33764 17.62352,0.23512 26.6602,1.35678 -3.34696,4.39058 -7.30786,8.59735 -14.19378,10.37372 -8.02371,3.44362 -17.00333,5.95509 -24.72722,9.66555 2.25004,2.82324 6.41282,-1.69804 9.35963,-1.8971 13.09459,-5.57441 29.15702,-7.77703 41.95786,-13.63807 3.10957,-1.80592 5.93602,-3.65353 9.98784,-4.6474 7.13359,-3.59566 12.55149,-9.56067 23.09131,-9.2664 5.87095,-0.51876 11.98764,-0.46335 17.98563,-0.68897 -3.77508,3.18612 6.06895,2.38079 8.96599,3.15066 20.80814,1.53445 39.88693,-1.66769 59.77374,-2.51382 5.36349,-0.31427 11.87653,0.70504 16.27374,4.20019 11.76421,4.92283 25.04717,9.42468 32.7791,18.23337 6.49306,7.64157 16.82051,12.84199 26.67454,17.99297 7.91854,4.38164 16.92244,8.10538 24.9489,11.77519 4.75659,7.76712 15.93556,13.78925 26.77968,14.16825 12.04748,0.56516 24.14204,0.70585 34.79203,-1.85038 25.72261,-5.37373 47.30094,-15.90753 67.54667,-27.01918 22.97924,-13.6015 40.58506,-31.24722 64.58591,-44.05594 5.91552,-1.54895 7.91138,-0.635 4.80398,3.48556 -1.96074,1.76606 -6.42865,3.52462 -3.7254,6.57798 -1.08566,2.97555 6.27382,-0.0845 1.61385,4.42051 -8.71625,16.06037 -19.2119,31.33765 -29.96106,46.4592 -2.19397,5.34646 -7.413,9.92487 -4.94817,16.474 0.31845,2.68615 3.79263,8.02629 7.20091,4.60066 1.20902,-2.38574 -2.11037,-6.15757 -1.7528,-8.95626 2.64916,-4.10295 12.62997,-4.67118 17.67524,0.10538 2.4096,4.42996 -1.9421,7.52741 -6.66968,8.69363 5.2369,-0.45982 6.66667,-0.10122 10.03756,0.0351 6.43193,-0.78172 5.93722,-6.36951 9.06708,-9.50152 -2.89957,-0.69394 5.00464,-4.9988 -3.32417,-5.38275 -3.26901,-0.77303 -6.78288,-1.55316 -9.50806,-3.43383 -5.86207,1.88784 -7.23946,0.99146 -3.78651,-2.90376 4.46422,-8.70919 10.70576,-16.66156 19.43701,-23.08009 8.56318,-7.4166 17.39811,-14.70089 24.47221,-23.01663 3.70772,0.95847 6.85891,5.81985 8.72803,4.50194 2.09807,-1.56577 6.80438,0.17372 7.11886,-3.09691 2.33175,-3.01101 7.70674,-4.33705 8.58697,-8.06137 5.91071,0.28089 4.71302,-4.88457 7.69415,-7.0655 5.33939,-7.50215 11.91911,-14.52213 15.80501,-22.65732 1.68917,-4.51739 3.37833,-9.03478 5.06751,-13.55216 -3.34202,0.33415 2.12367,-5.04563 3.9232,-6.12946 5.81627,-6.05627 12.76007,-12.55208 12.07058,-21.06926 -3.00682,-2.98061 1.24036,-3.6948 1.54078,-6.2771 -0.39477,-0.99405 2.20864,-3.07819 3.84135,-4.51729 8.69177,-5.4475 16.97239,-12.07222 17.81483,-21.49689 1.49464,-4.76936 1.48596,-9.88855 0.19361,-15.13476 0.3988,-4.62721 1.30108,-9.73677 -4.23858,-14.25677 -2.24078,-3.34681 -7.46432,-3.88038 -10.6824,-2.58604 -5.1862,-2.1256 -10.58373,-2.0243 -15.62969,-1.87923 z"
     style="fill:#000000;fill-opacity:0.38429751;fill-rule:nonzero;stroke:none;filter:url(#filter3808)"
     transform="matrix(0.55665861,0,0,0.50148203,-4.2940372,63.16944)" />
  <g
     inkscape:label="Layer 1"
     inkscape:groupmode="layer"
     id="layer1"
     transform="translate(0,-100)" />
  <path
     style="fill:#ffcc99;fill-opacity:1;fill-rule:nonzero;stroke:none"
     d="m 305.7592,77.05583 c -4.21193,-0.19778 -8.704,0.98082 -12.39896,2.31478 -9.75401,4.34408 -14.8998,15.06344 -16.12392,25.22581 -0.88676,9.96549 -4.00227,22.66125 -2.85624,32.8409 -0.50351,0.10832 -0.88521,0.37864 -1.13197,0.77597 -10e-4,4.3e-4 5.6e-4,0.0123 0,0.0132 -0.0317,0.0517 -0.0652,0.10311 -0.0921,0.15783 -0.23411,-0.11808 -0.50754,-0.19608 -0.82923,-0.17098 -5.43111,0.70064 -11.18776,-0.73013 -16.36084,1.52565 -2.54249,1.68357 -5.62626,2.89452 -7.33145,5.56335 -1.05808,2.10604 -0.78807,4.62674 -0.65812,6.91804 0.007,0.97613 0.65418,4.59293 1.51367,4.9452 -0.70116,0.5864 -1.39446,1.19046 -2.10598,1.76239 -1.07168,1.30316 -2.80153,1.61729 -4.38307,1.8413 -2.49977,0.50292 -5.05342,2.14807 -5.81778,4.69531 -0.56263,2.8116 -0.46424,5.70713 -0.19743,8.54889 0.80056,3.30998 0.9585,6.8149 2.39555,9.94302 0.54796,1.28806 2.05497,1.91255 3.38274,1.61772 0.16359,-0.0407 0.30433,-0.13015 0.46068,-0.18413 -0.0402,0.0586 -0.095,0.0788 -0.13163,0.15783 -0.76645,2.58505 -2.02601,5.98005 -3.11948,8.44367 -1.18145,3.5018 -2.1592,7.08443 -2.84308,10.71899 -0.16515,2.63031 -1.35788,5.07422 -2.88256,7.18108 -1.11357,1.49687 -2.68243,3.44939 -4.04085,4.73477 -0.009,0.007 -0.004,0.007 -0.0132,0.0132 -13.9703,-15.34189 -28.68631,-30.07652 -44.14664,-43.95446 -6.09146,-7.19476 -17.81616,-9.96389 -25.91673,-4.48488 -11.92734,7.22636 -23.6816,11.60951 -37.21006,14.63833 -4.76115,0.96255 -9.40482,2.51841 -14.04427,4.07716 -2.79184,1.01632 -6.64785,-0.1565 -9.56905,-0.0658 -6.32379,0.88689 -13.021884,-0.10967 -19.388193,-0.0263 -5.587606,-0.33151 -11.063674,-1.59284 -16.637252,-2.10434 -5.578982,-0.35084 -10.835454,-2.52833 -16.334519,-3.27489 -3.452792,0.0992 -6.863603,-0.44028 -10.306147,-0.57869 -1.871094,-0.0691 -3.761824,-0.007 -5.646663,0.0263 0.0091,-0.0629 0.06675,-0.11335 0.03949,-0.18413 -1.685636,-0.12852 -3.386584,-0.0655 -5.080681,-0.0921 -0.720633,0.0489 -1.502541,-0.0581 -2.237605,-0.0263 -1.138741,-0.14548 -2.276163,-0.30993 -3.395895,-0.6313 -2.729598,-0.29425 -5.49306,-3.70546 -8.055379,-1.68347 0.752912,0.34333 -2.135547,-0.1253 -2.369229,1.40727 -2.144621,-0.16318 -3.899555,2.04981 -3.488032,3.73521 -0.281801,0.11664 -0.560591,0.23849 -0.842393,0.35511 -0.654179,1.69843 0.553278,3.55054 1.895383,4.52434 1.743631,1.00493 3.518105,1.93121 5.107006,3.18282 2.218659,1.23354 4.181617,2.9583 6.633841,3.74836 2.406845,0.66508 4.987269,0.6909 7.318286,1.67032 1.457,0.91193 2.713363,2.11387 4.067177,3.18282 -1.468254,-0.0558 -3.340819,-0.16477 -4.554185,-0.605 -1.138708,-0.26839 -2.09643,-1.54846 -3.343246,-1.06532 -0.956406,0.60694 -1.046124,1.6113 -0.592307,2.20956 -0.167491,0.0286 -0.32129,0.11717 -0.408034,0.27619 -0.985856,0.74603 1.517725,1.84444 0.763418,2.7225 -0.111923,0.15967 -0.150167,0.33751 -0.210598,0.51293 -0.147275,-0.11433 -0.257291,-0.2701 -0.447521,-0.34196 -1.511381,-0.0633 -2.965647,1.645 -2.21128,3.11706 0.892666,1.46645 1.926272,2.85883 2.790425,4.35336 1.619661,2.94828 4.022805,5.3409 6.489055,7.58879 1.343354,1.46918 3.233303,2.34998 5.251792,2.13064 3.701358,0.18623 7.431774,-0.60397 10.793155,-2.1438 0.796949,-0.47774 2.932461,-0.44988 3.42222,-1.05217 4.449103,-0.19621 8.920152,-0.27511 13.254519,0.67076 -0.07601,1.32753 -0.450771,3.20733 -1.131966,4.09032 -0.945857,0.96041 -2.021327,1.78148 -3.001024,2.70934 -2.632556,2.24158 -5.158968,4.60563 -7.950077,6.65498 -0.879534,0.7576 -2.071275,1.37361 -2.408717,2.56467 -0.171691,1.22645 0.885899,2.11818 1.592649,2.97239 0.708296,0.86365 0.904869,2.3864 2.224443,2.56466 0.966693,-0.56582 1.798853,-1.32236 2.606148,-2.09119 1.675169,-1.53909 3.32756,-3.12322 5.133333,-4.51118 3.202412,-1.97451 6.662652,-3.5147 9.766486,-5.65542 1.915234,-0.75134 4.215759,-2.68722 5.449231,-4.36651 1.150369,-0.21415 1.856763,-1.87692 2.000682,-3.025 -0.0082,-0.001 -0.01809,10e-4 -0.02633,0 0.805618,-0.31315 1.529052,-0.66375 1.658458,-0.9338 3.627071,-2.49274 3.246784,-8.64373 8.476575,-9.15389 2.575991,-0.43706 5.166881,-0.61311 7.765801,-0.67076 -0.0837,0.25082 -0.0477,0.51306 0.23693,0.67076 11.36358,4.18917 23.73986,2.49084 35.36733,0.48663 4.89916,-1.01634 11.09691,-1.80124 14.76819,2.41999 5.83086,3.45201 12.00199,6.38891 17.44016,10.46911 5.84623,4.65416 10.22647,10.89414 16.11076,15.53268 8.51166,6.19409 19.38369,13.76348 28.60186,18.89963 0.48715,0.27398 0.81413,0.41456 1.03983,0.47348 6.33639,8.24697 14.88156,15.41579 25.95622,14.7567 16.14266,2.24526 29.39174,-9.52672 38.78955,-21.1618 12.47385,-14.11265 14.86414,-33.80566 25.96938,-48.68923 -0.49766,1.10453 -1.20029,2.11586 -1.57948,3.24858 1.22825,1.07482 -0.0659,2.09852 -1.18462,2.53837 -1.49837,0.59216 -0.47779,2.02398 0.77658,1.35467 2.16761,-1.34119 2.98029,1.4056 2.01384,3.03814 -0.76725,1.81444 1.18502,2.39245 2.44821,1.70978 0.1025,6.5797 0.44604,13.16184 0.18427,19.74137 -0.37455,5.31793 -0.52487,10.64768 -0.56598,15.97985 -0.75316,4.90399 -0.58887,9.89209 -0.17111,14.82246 -0.56267,3.39068 1.67759,6.28488 2.80359,9.29857 1.05659,2.11519 2.44555,4.14152 4.00136,5.94476 1.13596,1.41658 4.24079,2.94897 5.08068,0.59185 1.04134,0.35287 2.12696,0.30603 3.1853,0.0263 -0.15068,0.12975 -0.21694,0.28484 -0.0131,0.42087 1.95191,0.43933 4.09958,0.36898 5.93624,-0.48663 1.68446,0.40335 3.54513,-0.94562 3.80393,-2.64359 0.12121,-1.95251 -0.33181,-3.8931 -0.2106,-5.8527 -0.0824,-1.3853 0.51189,-2.77998 0.14479,-4.14293 -0.25849,-0.17351 -0.45783,-0.18296 -0.6318,-0.13152 0.01,-0.0696 0.0168,-0.14084 0.0263,-0.21043 0.47177,-1.30936 -0.71961,-2.24831 -1.54,-3.0776 -2.12048,-2.04299 -5.19701,-2.28354 -7.69999,-3.64315 -1.26021,-0.49904 -2.1005,-1.74087 -3.38273,-2.13064 -0.0169,0.004 -0.0233,0.009 -0.0395,0.0131 -0.2962,-4.87037 -0.21043,-10.59737 1.02667,-15.17757 1.78267,-5.94535 4.20773,-11.69042 5.64666,-17.74224 0.83592,-2.74072 1.3885,-5.54064 1.81641,-8.36477 0.36769,0.53304 1.73937,0.9602 2.09282,1.48619 0.71477,1.03963 1.02914,2.92795 2.64563,2.85402 1.0107,-0.12192 1.68642,-0.84512 2.09282,-1.72293 0.94756,0.85974 2.902,-0.0441 2.82992,-1.92022 -0.82643,-2.23749 2.99508,-5.89776 2.09282,-8.03595 1.28995,0.19865 2.55183,-2.53102 1.48735,-4.51119 0.83691,-5.43167 1.26216,-16.75739 1.69795,-22.22712 l -2.65881,-19.24158 -0.14478,0.11836 c 0.0114,-0.052 0.69926,-1.47369 0.71077,-1.52565 1.64422,-6.60442 2.29153,-12.27064 0.42119,-18.97854 -0.33273,-1.63291 -1.1434,-3.06067 -2.22444,-4.26129 0.39334,-0.31998 0.60592,-0.96692 0.25009,-1.44674 -0.37258,-2.08608 -0.40698,-4.45981 0.85555,-6.27357 -0.10122,0.051 -0.20982,0.0919 -0.3159,0.13152 3.1552,-4.29065 4.17888,-9.93122 3.72496,-15.17757 -1.08853,-5.40594 -2.16632,-10.89721 -4.25145,-16.03246 -1.66166,-2.62156 -2.66856,-5.58801 -3.51436,-8.56205 -0.70085,-3.00003 -2.32918,-5.63078 -4.3041,-7.95704 -2.26764,-2.44159 -4.22473,-5.56699 -7.55521,-6.62868 -1.07981,-0.76818 -2.75418,-0.58252 -3.68547,0.14467 -1.94068,-1.09405 -4.10932,-1.65558 -6.38375,-1.76239 z m 4.13299,192.71835 3.89607,0.43402 2.17179,2.15695 0,3.89303 -3.68546,2.59097 -1.28992,0 -3.4617,-6.484 0.42119,-1.73609 1.94803,-0.85488 z"
     id="path1943"
     inkscape:connector-curvature="0" />
  <path
     style="fill:#ffffff;fill-opacity:1;fill-rule:evenodd;stroke:none"
     d="m 319.50505,112.20268 -2.07485,-1.59479 -4.3093,0.63791 -1.11722,0.7974 1.27683,1.43531 2.39405,0.63792 3.83049,-1.91375 z"
     id="path5666"
     inkscape:connector-curvature="0" />
  <path
     sodipodi:nodetypes="ccccccc"
     id="path2015"
     d="m 286.95016,162.40008 c -3.63108,0.0829 -7.30337,1.8149 -9.06889,5.02412 -1.3902,2.35359 -0.35887,5.81419 2.61932,6.18151 4.57794,0.68075 10.01788,-0.11299 13.09657,-3.91934 -0.10153,0.0259 -0.19233,0.0818 -0.28957,0.11837 1.50385,-2.34265 -0.23839,-6.08409 -2.80359,-6.93118 -1.1274,-0.3468 -2.34349,-0.50112 -3.55384,-0.47348 z"
     style="fill:#813500;fill-opacity:1;fill-rule:nonzero;stroke:none"
     inkscape:connector-curvature="0" />
  <path
     style="fill:#813500;fill-opacity:1;fill-rule:evenodd;stroke:#000000;stroke-width:0.75665092px;stroke-linecap:butt;stroke-linejoin:miter;stroke-opacity:1"
     d="m 246.42317,159.7565 c -1.00447,0.62454 -2.25525,0.84743 -3.42222,1.01272 -2.49977,0.50292 -5.05341,2.14807 -5.81777,4.69531 -0.33998,1.69896 -0.40261,3.42577 -0.36855,5.15564 2.25981,-0.2605 5.03709,-1.96666 5.98889,-3.39325 0.9841,-1.47501 1.80735,-3.26992 3.11949,-5.89216 0.29604,-0.59163 0.42608,-1.10719 0.50016,-1.57826 z"
     id="path3469"
     inkscape:connector-curvature="0" />
  <path
     style="fill:#bcbcbc;fill-opacity:1;fill-rule:evenodd;stroke:#000000;stroke-width:0.75665092px;stroke-linecap:butt;stroke-linejoin:miter;stroke-opacity:1"
     d="m 6.433425,182.89112 c -4e-4,0.17619 -0.06748,0.35754 -0.02632,0.52609 -0.281802,0.11663 -0.560591,0.23848 -0.842393,0.3551 -0.654179,1.69844 0.553278,3.55054 1.895383,4.52434 1.74363,1.00493 3.518105,1.93121 5.107005,3.18282 2.21866,1.23354 4.181618,2.9583 6.633842,3.74836 2.406844,0.66508 4.987269,0.6909 7.318285,1.67032 0.260443,0.16301 0.487771,0.37326 0.737094,0.55239 l 1.342563,-0.0658 6.396919,5.40553 5.40974,-1.63086 c 0,0 -7.874182,-5.08484 -8.858285,-5.57651 -0.984103,-0.49167 -6.225808,-2.61727 -6.225807,-2.61728 l -6.56803,-2.30163 -10.161361,-6.22095 c 0,0 -1.303228,-0.94103 -2.158631,-1.55196 z m 15.360503,20.89876 c -1.511381,-0.0633 -2.965648,1.64499 -2.211281,3.11705 0.892667,1.46646 1.926272,2.85883 2.790426,4.35336 1.61966,2.94828 4.022805,5.34091 6.489055,7.58879 1.343353,1.46918 3.233303,2.34998 5.251791,2.13064 3.701359,0.18623 7.431775,-0.60397 10.793155,-2.14379 0.79695,-0.47775 2.932461,-0.44988 3.42222,-1.05218 4.449106,-0.19621 8.920154,-0.27511 13.254521,0.67077 -0.07601,1.32752 -0.450771,3.20733 -1.131965,4.09031 -0.945858,0.96041 -2.021328,1.78148 -3.001025,2.70934 -2.632555,2.24158 -5.158967,4.60563 -7.950079,6.65499 -0.879533,0.75759 -2.071275,1.3736 -2.408716,2.56466 -0.171692,1.22646 0.885898,2.11819 1.592648,2.97239 0.708297,0.86365 0.904869,2.3864 2.224443,2.56466 0.966696,-0.56582 1.798856,-1.32236 2.60615,-2.09119 1.67517,-1.53909 3.327561,-3.12321 5.133333,-4.51118 3.202413,-1.97451 6.662653,-3.51469 9.766487,-5.65542 1.915234,-0.75134 4.215759,-2.68722 5.449231,-4.36651 0.252823,-0.0471 0.475765,-0.18895 0.684439,-0.35511 -1.758757,-0.79475 -4.620884,-2.13855 -5.107003,-2.86717 -0.656066,-0.98334 -7.226147,-2.28846 -7.226147,-2.28847 l -12.293669,-0.98641 -8.700335,0.48663 c 0,0 -7.216062,-1.14732 -8.200166,-2.13065 -0.984103,-0.98333 -5.569738,-4.09339 -6.225808,-5.07672 -0.656069,-0.98334 -3.119485,-3.60369 -3.119484,-3.60369 l -1.684786,-2.63043 c -0.062,-0.0526 -0.114781,-0.11345 -0.197435,-0.14467 z"
     id="path3474"
     inkscape:connector-curvature="0" />
  <path
     style="fill:#e7e7e7;fill-opacity:1;fill-rule:evenodd;stroke:#000000;stroke-width:0.75665092px;stroke-linecap:butt;stroke-linejoin:miter;stroke-opacity:1"
     d="m 21.030509,180.08972 -0.144786,0.40771 -1.961195,2.63043 -4.264613,3.93249 3.606493,3.11706 4.264613,2.13064 0.329059,-5.73433 0.816069,-1.31521 2.948374,-2.30163 4.369911,-2.24901 c -1.672774,-0.12459 -3.360258,-0.0657 -5.041193,-0.0921 -0.720633,0.0489 -1.502542,-0.0581 -2.237605,-0.0263 -0.900437,-0.11503 -1.794433,-0.29282 -2.685127,-0.49978 z m 7.357773,18.20256 c 0.560412,0.45614 1.125518,0.9082 1.684785,1.36782 l 1.645298,0.67076 -3.448544,3.93249 c 0,0 -2.132307,2.29257 -2.132307,3.60369 -1e-6,1.31112 1.316239,3.28804 1.316239,3.28804 l 7.542046,4.5901 7.055038,1.80184 12.464778,-0.49979 8.858286,1.15739 5.238625,1.80185 4.593675,2.28847 1.15829,0.15783 0.487009,-1.63087 -8.042219,-2.45945 -9.016233,-3.44586 -6.725978,-0.48663 -3.277434,0.65761 -3.119485,-0.98641 -4.922732,-7.04955 -5.567688,-5.40553 -4.764783,-3.11706 -1.026666,-0.23674 z"
     id="path4207"
     inkscape:connector-curvature="0" />
  <path
     style="fill:#ffffff;fill-opacity:1;fill-rule:evenodd;stroke:none"
     d="m 304.66192,111.40528 -3.19208,-2.71115 -4.30929,0.63792 0.47881,2.07323 1.91524,1.43532 3.51128,-0.47844 c 0,0 1.75564,0.31896 1.59604,-0.95688 z"
     id="path5668"
     sodipodi:nodetypes="ccccccc"
     inkscape:connector-curvature="0" />
  <path
     style="fill:#210680;fill-opacity:1;fill-rule:evenodd;stroke:none"
     d="m 301.15064,109.65101 -0.47881,1.27583 -1.43643,0.47844 -0.79802,-0.95687 c 0,0 0.47881,-1.11636 1.59603,-1.27584 1.11723,-0.15948 1.59604,-0.31896 1.11723,0.47844 z"
     id="path5670"
     inkscape:connector-curvature="0" />
  <path
     style="fill:#210680;fill-opacity:1;fill-rule:evenodd;stroke:none"
     d="m 315.99377,111.88372 -0.79802,1.11636 c 0,0 -1.75564,1.59479 -1.43643,0.47843 0.31921,-1.11635 0.47881,-1.27583 0.47881,-1.27583 0,0 2.55365,-1.59479 1.75564,-0.31896 z"
     id="path5672"
     inkscape:connector-curvature="0" />
  <path
     style="fill:#cfab1f;fill-opacity:1;fill-rule:evenodd;stroke:none"
     d="m 331.93684,165.93643 c -0.11968,-0.0552 -0.21443,-0.0388 -0.29572,0.0695 -2.60121,3.46558 -2.61338,14.29482 -3.91401,16.4608 -1.3006,2.16599 -6.92342,13.00854 -6.92344,15.17453 0,2.16599 -1.73956,20.78892 -1.73956,20.78893 l 0.67843,0.73004 c 0.0246,-0.15696 0.0632,-0.3122 0.087,-0.46931 0.36771,0.53303 1.75141,0.96886 2.10486,1.49485 0.71478,1.03964 1.02764,2.92459 2.64413,2.85066 1.0107,-0.12191 1.68107,-0.84301 2.08747,-1.72082 0.94755,0.85974 2.90756,-0.0533 2.83548,-1.92941 -0.82643,-2.2375 2.98974,-5.89231 2.08747,-8.03051 1.28996,0.19865 2.5605,-2.52178 1.49602,-4.50195 0.83692,-5.43166 1.25158,-16.7619 1.68737,-22.23163 l -2.53975,-18.40759 c -0.10181,-0.11541 -0.21168,-0.23932 -0.29573,-0.27811 z"
     id="path3016"
     inkscape:connector-curvature="0" />
  <path
     id="path7947"
     d="m 305.7592,77.05583 c -4.21193,-0.19778 -8.704,0.98082 -12.39896,2.31478 -9.75401,4.34408 -14.8998,15.06344 -16.12392,25.22581 -0.88676,9.96549 -4.00227,22.66125 -2.85624,32.8409 -0.50351,0.10832 -0.88521,0.37864 -1.13197,0.77597 -10e-4,4.3e-4 5.6e-4,0.0123 0,0.0132 -0.0317,0.0517 -0.0652,0.10311 -0.0921,0.15783 -0.23411,-0.11808 -0.50754,-0.19608 -0.82923,-0.17098 -5.43111,0.70064 -11.18776,-0.73013 -16.36084,1.52565 -2.54249,1.68357 -5.62626,2.89452 -7.33145,5.56335 -1.05808,2.10604 -0.78807,4.62674 -0.65812,6.91804 0.007,0.97613 0.65418,4.59293 1.51367,4.9452 -0.70116,0.5864 -1.39446,1.19046 -2.10598,1.76239 -1.07168,1.30316 -2.80153,1.61729 -4.38307,1.8413 -2.49977,0.50292 -5.05342,2.14807 -5.81778,4.69531 -0.56263,2.8116 -0.46424,5.70713 -0.19743,8.54889 0.80056,3.30998 0.9585,6.8149 2.39555,9.94302 0.54796,1.28806 2.05497,1.91255 3.38274,1.61772 0.16359,-0.0407 0.30433,-0.13015 0.46068,-0.18413 -0.0402,0.0586 -0.095,0.0788 -0.13163,0.15783 -0.76645,2.58505 -2.02601,5.98005 -3.11948,8.44367 -1.18145,3.5018 -2.1592,7.08443 -2.84308,10.71899 -0.16515,2.63031 -1.35788,5.07422 -2.88256,7.18108 -1.11357,1.49687 -2.68243,3.44939 -4.04085,4.73477 -0.009,0.007 -0.004,0.007 -0.0132,0.0132 -13.9703,-15.34189 -28.68631,-30.07652 -44.14664,-43.95446 -6.09146,-7.19476 -17.81616,-9.96389 -25.91673,-4.48488 -11.92734,7.22636 -23.6816,11.60951 -37.21006,14.63833 -4.76115,0.96255 -9.40482,2.51841 -14.04427,4.07716 -2.79184,1.01632 -6.64785,-0.1565 -9.56905,-0.0658 -6.32379,0.88689 -13.021884,-0.10967 -19.388193,-0.0263 -5.587606,-0.33151 -11.063674,-1.59284 -16.637252,-2.10434 -5.578982,-0.35084 -10.835454,-2.52833 -16.334519,-3.27489 -3.452792,0.0992 -6.863603,-0.44028 -10.306147,-0.57869 -1.871094,-0.0691 -3.761824,-0.007 -5.646663,0.0263 0.0091,-0.0629 0.06675,-0.11335 0.03949,-0.18413 -1.685636,-0.12852 -3.386584,-0.0655 -5.080681,-0.0921 -0.720633,0.0489 -1.502541,-0.0581 -2.237605,-0.0263 -1.138741,-0.14548 -2.276163,-0.30993 -3.395895,-0.6313 -2.729598,-0.29425 -5.49306,-3.70546 -8.055379,-1.68347 0.752912,0.34333 -2.135547,-0.1253 -2.369229,1.40727 -2.144621,-0.16318 -3.899555,2.04981 -3.488032,3.73521 -0.281801,0.11664 -0.560591,0.23849 -0.842393,0.35511 -0.654179,1.69843 0.553278,3.55054 1.895383,4.52434 1.743631,1.00493 3.518105,1.93121 5.107006,3.18282 2.218659,1.23354 4.181617,2.9583 6.633841,3.74836 2.406845,0.66508 4.987269,0.6909 7.318286,1.67032 1.457,0.91193 2.713363,2.11387 4.067177,3.18282 -1.468254,-0.0558 -3.340819,-0.16477 -4.554185,-0.605 -1.138708,-0.26839 -2.09643,-1.54846 -3.343246,-1.06532 -0.956406,0.60694 -1.046124,1.6113 -0.592307,2.20956 -0.167491,0.0286 -0.32129,0.11717 -0.408034,0.27619 -0.985856,0.74603 1.517725,1.84444 0.763418,2.7225 -0.111923,0.15967 -0.150167,0.33751 -0.210598,0.51293 -0.147275,-0.11433 -0.257291,-0.2701 -0.447521,-0.34196 -1.511381,-0.0633 -2.965647,1.645 -2.21128,3.11706 0.892666,1.46645 1.926272,2.85883 2.790425,4.35336 1.619661,2.94828 4.022805,5.3409 6.489055,7.58879 1.343354,1.46918 3.233303,2.34998 5.251792,2.13064 3.701358,0.18623 7.431774,-0.60397 10.793155,-2.1438 0.796949,-0.47774 2.932461,-0.44988 3.42222,-1.05217 4.449103,-0.19621 8.920152,-0.27511 13.254519,0.67076 -0.07601,1.32753 -0.450771,3.20733 -1.131966,4.09032 -0.945857,0.96041 -2.021327,1.78148 -3.001024,2.70934 -2.632556,2.24158 -5.158968,4.60563 -7.950077,6.65498 -0.879534,0.7576 -2.071275,1.37361 -2.408717,2.56467 -0.171691,1.22645 0.885899,2.11818 1.592649,2.97239 0.708296,0.86365 0.904869,2.3864 2.224443,2.56466 0.966693,-0.56582 1.798853,-1.32236 2.606148,-2.09119 1.675169,-1.53909 3.32756,-3.12322 5.133333,-4.51118 3.202412,-1.97451 6.662652,-3.5147 9.766486,-5.65542 1.915234,-0.75134 4.215759,-2.68722 5.449231,-4.36651 1.150369,-0.21415 1.856763,-1.87692 2.000682,-3.025 -0.0082,-0.001 -0.01809,10e-4 -0.02633,0 0.805618,-0.31315 1.529052,-0.66375 1.658458,-0.9338 3.627071,-2.49274 3.246784,-8.64373 8.476575,-9.15389 2.575991,-0.43706 5.166881,-0.61311 7.765801,-0.67076 -0.0837,0.25082 -0.0477,0.51306 0.23693,0.67076 11.36358,4.18917 23.73986,2.49084 35.36733,0.48663 4.89916,-1.01634 11.09691,-1.80124 14.76819,2.41999 5.83086,3.45201 12.00199,6.38891 17.44016,10.46911 5.84623,4.65416 10.22647,10.89414 16.11076,15.53268 8.51166,6.19409 19.38369,13.76348 28.60186,18.89963 0.48715,0.27398 0.81413,0.41456 1.03983,0.47348 6.33639,8.24697 14.88156,15.41579 25.95622,14.7567 16.14266,2.24526 29.39174,-9.52672 38.78955,-21.1618 12.47385,-14.11265 14.86414,-33.80566 25.96938,-48.68923 -0.49766,1.10453 -1.20029,2.11586 -1.57948,3.24858 1.22825,1.07482 -0.0659,2.09852 -1.18462,2.53837 -1.49837,0.59216 -0.47779,2.02398 0.77658,1.35467 2.16761,-1.34119 2.98029,1.4056 2.01384,3.03814 -0.76725,1.81444 1.18502,2.39245 2.44821,1.70978 0.1025,6.5797 0.44604,13.16184 0.18427,19.74137 -0.37455,5.31793 -0.52487,10.64768 -0.56598,15.97985 -0.75316,4.90399 -0.58887,9.89209 -0.17111,14.82246 -0.56267,3.39068 1.67759,6.28488 2.80359,9.29857 1.05659,2.11519 2.44555,4.14152 4.00136,5.94476 1.13596,1.41658 4.24079,2.94897 5.08068,0.59185 1.04134,0.35287 2.12696,0.30603 3.1853,0.0263 -0.15068,0.12975 -0.21694,0.28484 -0.0131,0.42087 1.95191,0.43933 4.09958,0.36898 5.93624,-0.48663 1.68446,0.40335 3.54513,-0.94562 3.80393,-2.64359 0.12121,-1.95251 -0.33181,-3.8931 -0.2106,-5.8527 -0.0824,-1.3853 0.51189,-2.77998 0.14479,-4.14293 -0.25849,-0.17351 -0.45783,-0.18296 -0.6318,-0.13152 0.01,-0.0696 0.0168,-0.14084 0.0263,-0.21043 0.47177,-1.30936 -0.71961,-2.24831 -1.54,-3.0776 -2.12048,-2.04299 -5.19701,-2.28354 -7.69999,-3.64315 -1.26021,-0.49904 -2.1005,-1.74087 -3.38273,-2.13064 -0.0169,0.004 -0.0233,0.009 -0.0395,0.0131 -0.2962,-4.87037 -0.21043,-10.59737 1.02667,-15.17757 1.78267,-5.94535 4.20773,-11.69042 5.64666,-17.74224 0.83592,-2.74072 1.3885,-5.54064 1.81641,-8.36477 0.36769,0.53304 1.73937,0.9602 2.09282,1.48619 0.71477,1.03963 1.02914,2.92795 2.64563,2.85402 1.0107,-0.12192 1.68642,-0.84512 2.09282,-1.72293 0.94756,0.85974 2.902,-0.0441 2.82992,-1.92022 -0.82643,-2.23749 2.99508,-5.89776 2.09282,-8.03595 1.28995,0.19865 2.55183,-2.53102 1.48735,-4.51119 0.83691,-5.43167 1.26216,-16.75739 1.69795,-22.22712 l -2.65881,-19.24158 -0.14478,0.11836 c 0.0114,-0.052 0.69926,-1.47369 0.71077,-1.52565 1.64422,-6.60442 2.29153,-12.27064 0.42119,-18.97854 -0.33273,-1.63291 -1.1434,-3.06067 -2.22444,-4.26129 0.39334,-0.31998 0.60592,-0.96692 0.25009,-1.44674 -0.37258,-2.08608 -0.40698,-4.45981 0.85555,-6.27357 -0.10122,0.051 -0.20982,0.0919 -0.3159,0.13152 3.1552,-4.29065 4.17888,-9.93122 3.72496,-15.17757 -1.08853,-5.40594 -2.16632,-10.89721 -4.25145,-16.03246 -1.66166,-2.62156 -2.66856,-5.58801 -3.51436,-8.56205 -0.70085,-3.00003 -2.32918,-5.63078 -4.3041,-7.95704 -2.26764,-2.44159 -4.22473,-5.56699 -7.55521,-6.62868 -1.07981,-0.76818 -2.75418,-0.58252 -3.68547,0.14467 -1.94068,-1.09405 -4.10932,-1.65558 -6.38375,-1.76239 z m 4.13299,192.71835 3.89607,0.43402 2.17179,2.15695 0,3.89303 -3.68546,2.59097 -1.28992,0 -3.4617,-6.484 0.42119,-1.73609 1.94803,-0.85488 z"
     style="fill:url(#linearGradient7955);fill-opacity:1;fill-rule:nonzero;stroke:none"
     inkscape:connector-curvature="0" />
  <path
     style="fill:#cfab1f;fill-opacity:1;fill-rule:evenodd;stroke:none"
     d="m 305.7592,77.05583 c -4.21193,-0.19778 -8.704,0.98082 -12.39896,2.31478 -9.75401,4.34408 -14.8998,15.06344 -16.12392,25.22581 -0.88676,9.96549 -4.00227,22.66125 -2.85624,32.8409 -0.41512,0.0893 -0.71869,0.31507 -0.96085,0.60499 0.0579,0.19319 0.52364,1.96712 0.53965,1.99913 0.36287,0.72518 4.23399,2.17646 5.08068,3.14336 0.8467,0.96691 5.68617,-1.32836 5.68615,-1.32836 l 3.73812,-5.44499 c 0,0 4.48406,-13.1762 5.33077,-15.83518 0.8467,-2.65898 4.47338,-18.60486 5.19914,-20.78039 0.72574,-2.17552 3.42025,-5.77715 6.77819,-6.5348 3.74966,-0.84604 7.498,-2.04606 7.49801,-2.04606 0,0 0.56053,-3.35497 0.47884,-6.41258 0.72573,-2.9007 2.70802,2.79742 3.38273,6.16836 0.48382,2.41725 5.44174,3.14541 5.80461,4.95835 0.36287,1.81295 0.49131,10.7501 -0.35539,14.9803 -0.84669,4.23019 -5.68615,12.32356 -5.68615,12.32356 l -5.44922,8.58834 c 0,0 -3.98959,3.25924 -5.19915,3.3801 -1.20956,0.12087 2.90028,2.1726 4.59367,2.05174 11.36542,-0.81119 17.6628,1.81636 18.99333,3.02499 0.19572,0.17779 0.71331,0.42943 1.35572,0.69707 -0.0926,-0.11157 -0.15293,-0.24721 -0.25009,-0.35511 0.39334,-0.31998 0.60593,-0.96692 0.25009,-1.44674 -0.37257,-2.08608 -0.40697,-4.45982 0.85556,-6.27357 -0.10122,0.051 -0.20982,0.0918 -0.3159,0.13152 3.1552,-4.29066 4.17888,-9.93123 3.72496,-15.17757 -1.08853,-5.40595 -2.16632,-10.89721 -4.25146,-16.03246 -1.66166,-2.62156 -2.66855,-5.58802 -3.51435,-8.56205 -0.70085,-3.00003 -2.32919,-5.63078 -4.3041,-7.95705 -2.26764,-2.44159 -4.22473,-5.56698 -7.55521,-6.62868 -1.07981,-0.76817 -2.75418,-0.58251 -3.68547,0.14468 -1.94068,-1.09405 -4.10932,-1.65559 -6.38376,-1.76239 z"
     id="path5674"
     sodipodi:nodetypes="cccccssccsssccsssccssscccccccccccc"
     inkscape:connector-curvature="0" />
  <path
     sodipodi:nodetypes="cccccssccsssccsssccssscccccccccccc"
     id="path7957"
     d="m 305.7592,77.05583 c -4.21193,-0.19778 -8.704,0.98082 -12.39896,2.31478 -9.75401,4.34408 -14.8998,15.06344 -16.12392,25.22581 -0.88676,9.96549 -4.00227,22.66125 -2.85624,32.8409 -0.41512,0.0893 -0.71869,0.31507 -0.96085,0.60499 0.0579,0.19319 0.52364,1.96712 0.53965,1.99913 0.36287,0.72518 4.23399,2.17646 5.08068,3.14336 0.8467,0.96691 5.68617,-1.32836 5.68615,-1.32836 l 3.73812,-5.44499 c 0,0 4.48406,-13.1762 5.33077,-15.83518 0.8467,-2.65898 4.47338,-18.60486 5.19914,-20.78039 0.72574,-2.17552 3.42025,-5.77715 6.77819,-6.5348 3.74966,-0.84604 7.498,-2.04606 7.49801,-2.04606 0,0 0.56053,-3.35497 0.47884,-6.41258 0.72573,-2.9007 2.70802,2.79742 3.38273,6.16836 0.48382,2.41725 5.44174,3.14541 5.80461,4.95835 0.36287,1.81295 0.49131,10.7501 -0.35539,14.9803 -0.84669,4.23019 -5.68615,12.32356 -5.68615,12.32356 l -5.44922,8.58834 c 0,0 -3.98959,3.25924 -5.19915,3.3801 -1.20956,0.12087 2.90028,2.1726 4.59367,2.05174 11.36542,-0.81119 17.6628,1.81636 18.99333,3.02499 0.19572,0.17779 0.71331,0.42943 1.35572,0.69707 -0.0926,-0.11157 -0.15293,-0.24721 -0.25009,-0.35511 0.39334,-0.31998 0.60593,-0.96692 0.25009,-1.44674 -0.37257,-2.08608 -0.40697,-4.45982 0.85556,-6.27357 -0.10122,0.051 -0.20982,0.0918 -0.3159,0.13152 3.1552,-4.29066 4.17888,-9.93123 3.72496,-15.17757 -1.08853,-5.40595 -2.16632,-10.89721 -4.25146,-16.03246 -1.66166,-2.62156 -2.66855,-5.58802 -3.51435,-8.56205 -0.70085,-3.00003 -2.32919,-5.63078 -4.3041,-7.95705 -2.26764,-2.44159 -4.22473,-5.56698 -7.55521,-6.62868 -1.07981,-0.76817 -2.75418,-0.58251 -3.68547,0.14468 -1.94068,-1.09405 -4.10932,-1.65559 -6.38376,-1.76239 z"
     style="fill:url(#linearGradient7959);fill-opacity:1;fill-rule:evenodd;stroke:none"
     inkscape:connector-curvature="0" />
  <path
     style="fill:url(#linearGradient7963);fill-opacity:1;fill-rule:nonzero;stroke:none"
     d="m 286.95016,162.40008 c -3.63108,0.0829 -7.30337,1.8149 -9.06889,5.02412 -1.3902,2.35359 -0.35887,5.81419 2.61932,6.18151 4.57794,0.68075 10.01788,-0.11299 13.09657,-3.91934 -0.10153,0.0259 -0.19233,0.0818 -0.28957,0.11837 1.50385,-2.34265 -0.23839,-6.08409 -2.80359,-6.93118 -1.1274,-0.3468 -2.34349,-0.50112 -3.55384,-0.47348 z"
     id="path7961"
     sodipodi:nodetypes="ccccccc"
     inkscape:connector-curvature="0" />
  <path
     id="path7965"
     d="m 246.42317,159.7565 c -1.00447,0.62454 -2.25525,0.84743 -3.42222,1.01272 -2.49977,0.50292 -5.05341,2.14807 -5.81777,4.69531 -0.33998,1.69896 -0.40261,3.42577 -0.36855,5.15564 2.25981,-0.2605 5.03709,-1.96666 5.98889,-3.39325 0.9841,-1.47501 1.80735,-3.26992 3.11949,-5.89216 0.29604,-0.59163 0.42608,-1.10719 0.50016,-1.57826 z"
     style="fill:url(#linearGradient7967);fill-opacity:1;fill-rule:evenodd;stroke:#000000;stroke-width:0.75665092px;stroke-linecap:butt;stroke-linejoin:miter;stroke-opacity:1"
     inkscape:connector-curvature="0" />
  <path
     style="fill:#ad0000;fill-opacity:1;fill-rule:evenodd;stroke:none"
     d="m 299.7142,125.43947 4.4689,-0.15948 2.39406,0.7974 3.51128,0.31895 0.79801,0.95688 -1.11722,1.43531 -3.19207,1.5948 -3.19207,-0.63792 -3.51128,-2.71115 c 0,0 -0.95762,0.31896 -0.15961,-1.59479 z"
     id="path4938"
     inkscape:connector-curvature="0" />
  <path
     id="path8695"
     d="m 299.7142,125.43947 4.4689,-0.15948 2.39406,0.7974 3.51128,0.31895 0.79801,0.95688 -1.11722,1.43531 -3.19207,1.5948 -3.19207,-0.63792 -3.51128,-2.71115 c 0,0 -0.95762,0.31896 -0.15961,-1.59479 z"
     style="fill:url(#linearGradient8697);fill-opacity:1;fill-rule:evenodd;stroke:none"
     inkscape:connector-curvature="0" />
  <path
     id="path8701"
     d="m 21.030509,180.08972 -0.144786,0.40771 -1.961195,2.63043 -4.264613,3.93249 3.606493,3.11706 4.264613,2.13064 0.329059,-5.73433 0.816069,-1.31521 2.948374,-2.30163 4.369911,-2.24901 c -1.672774,-0.12459 -3.360258,-0.0657 -5.041193,-0.0921 -0.720633,0.0489 -1.502542,-0.0581 -2.237605,-0.0263 -0.900437,-0.11503 -1.794433,-0.29282 -2.685127,-0.49978 z m 7.357773,18.20256 c 0.560412,0.45614 1.125518,0.9082 1.684785,1.36782 l 1.645298,0.67076 -3.448544,3.93249 c 0,0 -2.132307,2.29257 -2.132307,3.60369 -1e-6,1.31112 1.316239,3.28804 1.316239,3.28804 l 7.542046,4.5901 7.055038,1.80184 12.464778,-0.49979 8.858286,1.15739 5.238625,1.80185 4.593675,2.28847 1.15829,0.15783 0.487009,-1.63087 -8.042219,-2.45945 -9.016233,-3.44586 -6.725978,-0.48663 -3.277434,0.65761 -3.119485,-0.98641 -4.922732,-7.04955 -5.567688,-5.40553 -4.764783,-3.11706 -1.026666,-0.23674 z"
     style="fill:url(#linearGradient8703);fill-opacity:1;fill-rule:evenodd;stroke:#000000;stroke-width:0.75665092px;stroke-linecap:butt;stroke-linejoin:miter;stroke-opacity:1"
     inkscape:connector-curvature="0" />
  <path
     id="path8699"
     d="m 6.433425,182.89112 c -4e-4,0.17619 -0.06748,0.35754 -0.02632,0.52609 -0.281802,0.11663 -0.560591,0.23848 -0.842393,0.3551 -0.654179,1.69844 0.553278,3.55054 1.895383,4.52434 1.74363,1.00493 3.518105,1.93121 5.107005,3.18282 2.21866,1.23354 4.181618,2.9583 6.633842,3.74836 2.406844,0.66508 4.987269,0.6909 7.318285,1.67032 0.260443,0.16301 0.487771,0.37326 0.737094,0.55239 l 1.342563,-0.0658 6.396919,5.40553 5.40974,-1.63086 c 0,0 -7.874182,-5.08484 -8.858285,-5.57651 -0.984103,-0.49167 -6.225808,-2.61727 -6.225807,-2.61728 l -6.56803,-2.30163 -10.161361,-6.22095 c 0,0 -1.303228,-0.94103 -2.158631,-1.55196 z m 15.360503,20.89876 c -1.511381,-0.0633 -2.965648,1.64499 -2.211281,3.11705 0.892667,1.46646 1.926272,2.85883 2.790426,4.35336 1.61966,2.94828 4.022805,5.34091 6.489055,7.58879 1.343353,1.46918 3.233303,2.34998 5.251791,2.13064 3.701359,0.18623 7.431775,-0.60397 10.793155,-2.14379 0.79695,-0.47775 2.932461,-0.44988 3.42222,-1.05218 4.449106,-0.19621 8.920154,-0.27511 13.254521,0.67077 -0.07601,1.32752 -0.450771,3.20733 -1.131965,4.09031 -0.945858,0.96041 -2.021328,1.78148 -3.001025,2.70934 -2.632555,2.24158 -5.158967,4.60563 -7.950079,6.65499 -0.879533,0.75759 -2.071275,1.3736 -2.408716,2.56466 -0.171692,1.22646 0.885898,2.11819 1.592648,2.97239 0.708297,0.86365 0.904869,2.3864 2.224443,2.56466 0.966696,-0.56582 1.798856,-1.32236 2.60615,-2.09119 1.67517,-1.53909 3.327561,-3.12321 5.133333,-4.51118 3.202413,-1.97451 6.662653,-3.51469 9.766487,-5.65542 1.915234,-0.75134 4.215759,-2.68722 5.449231,-4.36651 0.252823,-0.0471 0.475765,-0.18895 0.684439,-0.35511 -1.758757,-0.79475 -4.620884,-2.13855 -5.107003,-2.86717 -0.656066,-0.98334 -7.226147,-2.28846 -7.226147,-2.28847 l -12.293669,-0.98641 -8.700335,0.48663 c 0,0 -7.216062,-1.14732 -8.200166,-2.13065 -0.984103,-0.98333 -5.569738,-4.09339 -6.225808,-5.07672 -0.656069,-0.98334 -3.119485,-3.60369 -3.119484,-3.60369 l -1.684786,-2.63043 c -0.062,-0.0526 -0.114781,-0.11345 -0.197435,-0.14467 z"
     style="fill:url(#linearGradient8705);fill-opacity:1;fill-rule:evenodd;stroke:#000000;stroke-width:0.75665092px;stroke-linecap:butt;stroke-linejoin:miter;stroke-opacity:1"
     inkscape:connector-curvature="0" />
  <path
     style="fill:#cfab1f;fill-opacity:1;fill-rule:evenodd;stroke:none"
     d="m 302.62529,197.76295 c -0.8713,0.40274 -7.84541,7.943 -7.84541,9.83824 0,0.052 -0.25731,1.11791 -0.27833,1.25151 1.06821,-1.8082 2.19448,-3.58576 3.46172,-5.28414 -0.49767,1.10454 -1.2038,2.11773 -1.58299,3.25044 1.22826,1.07482 -0.0642,2.09793 -1.1829,2.53778 -1.49838,0.59217 -0.47157,2.02511 0.7828,1.3558 2.16763,-1.34118 2.96693,1.40932 2.00049,3.04186 -0.76727,1.81444 1.18959,2.3861 2.45278,1.70344 0.008,0.49811 0.0247,0.99671 0.0348,1.49485 l 0.81759,-2.4161 c -1e-5,0 0.004,-14.29481 1.30467,-16.4608 0.16258,-0.27075 0.15926,-0.37041 0.0348,-0.31288 z"
     id="path3024"
     inkscape:connector-curvature="0" />
  <path
     style="fill:#000000;fill-opacity:1;fill-rule:nonzero;stroke:none"
     d="m 305.7592,77.05583 c -4.21193,-0.19778 -8.704,0.98082 -12.39896,2.31478 -9.75401,4.34408 -14.8998,15.06344 -16.12392,25.22581 -0.88676,9.96549 -4.00227,22.66125 -2.85624,32.8409 -0.50351,0.10832 -0.88521,0.37864 -1.13197,0.77597 -10e-4,4.3e-4 5.6e-4,0.0123 0,0.0132 -0.0317,0.0517 -0.0652,0.10311 -0.0921,0.15783 -0.23411,-0.11808 -0.50754,-0.19608 -0.82923,-0.17098 -5.43111,0.70064 -11.18776,-0.73013 -16.36084,1.52565 -2.54249,1.68357 -5.62626,2.89452 -7.33145,5.56335 -1.05808,2.10604 -0.78807,4.62674 -0.65812,6.91804 0.007,0.97613 0.65418,4.59293 1.51367,4.9452 -0.70116,0.5864 -1.39446,1.19046 -2.10598,1.76239 -1.07168,1.30316 -2.80153,1.61729 -4.38307,1.8413 -2.49977,0.50292 -5.05342,2.14807 -5.81778,4.69531 -0.56263,2.8116 -0.46424,5.70713 -0.19743,8.54889 0.80056,3.30998 0.9585,6.8149 2.39555,9.94302 0.54796,1.28806 2.05497,1.91255 3.38274,1.61772 0.16359,-0.0407 0.30433,-0.13015 0.46068,-0.18413 -0.0402,0.0586 -0.095,0.0788 -0.13163,0.15783 -0.76645,2.58505 -2.02601,5.98005 -3.11948,8.44367 -1.18145,3.5018 -2.1592,7.08443 -2.84308,10.71899 -0.16515,2.63031 -1.35788,5.07422 -2.88256,7.18108 -1.11357,1.49687 -2.68243,3.44939 -4.04085,4.73477 -0.009,0.007 -0.004,0.007 -0.0132,0.0132 -13.9703,-15.34189 -28.68631,-30.07652 -44.14664,-43.95446 -6.09146,-7.19476 -17.81616,-9.96389 -25.91673,-4.48488 -11.92734,7.22636 -23.6816,11.60951 -37.21006,14.63833 -4.76115,0.96255 -9.40482,2.51841 -14.04427,4.07716 -2.79184,1.01632 -6.64785,-0.1565 -9.56905,-0.0658 -6.32379,0.88689 -13.021884,-0.10967 -19.388193,-0.0263 -5.587606,-0.33151 -11.063674,-1.59284 -16.637252,-2.10434 -5.578982,-0.35084 -10.835454,-2.52833 -16.334519,-3.27489 -3.452792,0.0992 -6.863603,-0.44028 -10.306147,-0.57869 -1.871094,-0.0691 -3.761824,-0.007 -5.646663,0.0263 0.0091,-0.0629 0.06675,-0.11335 0.03949,-0.18413 -1.685636,-0.12852 -3.386584,-0.0655 -5.080681,-0.0921 -0.720633,0.0489 -1.502541,-0.0581 -2.237605,-0.0263 -1.138741,-0.14548 -2.276163,-0.30993 -3.395895,-0.6313 -2.729598,-0.29425 -5.49306,-3.70546 -8.055379,-1.68347 0.752912,0.34333 -2.135547,-0.1253 -2.369229,1.40727 -2.144621,-0.16318 -3.899555,2.04981 -3.488032,3.73521 -0.281801,0.11664 -0.560591,0.23849 -0.842393,0.35511 -0.654179,1.69843 0.553278,3.55054 1.895383,4.52434 1.743631,1.00493 3.518105,1.93121 5.107006,3.18282 2.218659,1.23354 4.181617,2.9583 6.633841,3.74836 2.406845,0.66508 4.987269,0.6909 7.318286,1.67032 1.457,0.91193 2.713363,2.11387 4.067177,3.18282 -1.468254,-0.0558 -3.340819,-0.16477 -4.554185,-0.605 -1.138708,-0.26839 -2.09643,-1.54846 -3.343246,-1.06532 -0.956406,0.60694 -1.046124,1.6113 -0.592307,2.20956 -0.167491,0.0286 -0.32129,0.11717 -0.408034,0.27619 -0.985856,0.74603 1.517725,1.84444 0.763418,2.7225 -0.111923,0.15967 -0.150167,0.33751 -0.210598,0.51293 -0.147275,-0.11433 -0.257291,-0.2701 -0.447521,-0.34196 -1.511381,-0.0633 -2.965647,1.645 -2.21128,3.11706 0.892666,1.46645 1.926272,2.85883 2.790425,4.35336 1.619661,2.94828 4.022805,5.3409 6.489055,7.58879 1.343354,1.46918 3.233303,2.34998 5.251792,2.13064 3.701358,0.18623 7.431774,-0.60397 10.793155,-2.1438 0.796949,-0.47774 2.932461,-0.44988 3.42222,-1.05217 4.449103,-0.19621 8.920152,-0.27511 13.254519,0.67076 -0.07601,1.32753 -0.450771,3.20733 -1.131966,4.09032 -0.945857,0.96041 -2.021327,1.78148 -3.001024,2.70934 -2.632556,2.24158 -5.158968,4.60563 -7.950077,6.65498 -0.879534,0.7576 -2.071275,1.37361 -2.408717,2.56467 -0.171691,1.22645 0.885899,2.11818 1.592649,2.97239 0.708296,0.86365 0.904869,2.3864 2.224443,2.56466 0.966693,-0.56582 1.798853,-1.32236 2.606148,-2.09119 1.675169,-1.53909 3.32756,-3.12322 5.133333,-4.51118 3.202412,-1.97451 6.662652,-3.5147 9.766486,-5.65542 1.915234,-0.75134 4.215759,-2.68722 5.449231,-4.36651 1.150369,-0.21415 1.856763,-1.87692 2.000682,-3.025 -0.0082,-0.001 -0.01809,10e-4 -0.02633,0 0.805618,-0.31315 1.529052,-0.66375 1.658458,-0.9338 3.627071,-2.49274 3.246784,-8.64373 8.476575,-9.15389 2.575991,-0.43706 5.166881,-0.61311 7.765801,-0.67076 -0.0837,0.25082 -0.0477,0.51306 0.23693,0.67076 11.36358,4.18917 23.73986,2.49084 35.36733,0.48663 4.89916,-1.01634 11.09691,-1.80124 14.76819,2.41999 5.83086,3.45201 12.00199,6.38891 17.44016,10.46911 5.84623,4.65416 10.22647,10.89414 16.11076,15.53268 8.51166,6.19409 19.38369,13.76348 28.60186,18.89963 0.48715,0.27398 0.81413,0.41456 1.03983,0.47348 6.33639,8.24697 14.88156,15.41579 25.95622,14.7567 16.14266,2.24526 29.39174,-9.52672 38.78955,-21.1618 12.47385,-14.11265 14.86414,-33.80566 25.96938,-48.68923 -0.49766,1.10453 -1.20029,2.11586 -1.57948,3.24858 1.22825,1.07482 -0.0659,2.09852 -1.18462,2.53837 -1.49837,0.59216 -0.47779,2.02398 0.77658,1.35467 2.16761,-1.34119 2.98029,1.4056 2.01384,3.03814 -0.76725,1.81444 1.18502,2.39245 2.44821,1.70978 0.1025,6.5797 0.44604,13.16184 0.18427,19.74137 -0.37455,5.31793 -0.52487,10.64768 -0.56598,15.97985 -0.75316,4.90399 -0.58887,9.89209 -0.17111,14.82246 -0.56267,3.39068 1.67759,6.28488 2.80359,9.29857 1.05659,2.11519 2.44555,4.14152 4.00136,5.94476 1.13596,1.41658 4.24079,2.94897 5.08068,0.59185 1.04134,0.35287 2.12696,0.30603 3.1853,0.0263 -0.15068,0.12975 -0.21694,0.28484 -0.0131,0.42087 1.95191,0.43933 4.09958,0.36898 5.93624,-0.48663 1.68446,0.40335 3.54513,-0.94562 3.80393,-2.64359 0.12121,-1.95251 -0.33181,-3.8931 -0.2106,-5.8527 -0.0824,-1.3853 0.51189,-2.77998 0.14479,-4.14293 -0.25849,-0.17351 -0.45783,-0.18296 -0.6318,-0.13152 0.01,-0.0696 0.0168,-0.14084 0.0263,-0.21043 0.47177,-1.30936 -0.71961,-2.24831 -1.54,-3.0776 -2.12048,-2.04299 -5.19701,-2.28354 -7.69999,-3.64315 -1.26021,-0.49904 -2.1005,-1.74087 -3.38273,-2.13064 -0.0169,0.004 -0.0233,0.009 -0.0395,0.0131 -0.2962,-4.87037 -0.21043,-10.59737 1.02667,-15.17757 1.78267,-5.94535 4.20773,-11.69042 5.64666,-17.74224 1.90102,-6.23286 2.49023,-12.75714 2.93521,-19.22844 0.13971,-3.20717 0.20887,-6.413 0.17111,-9.62737 0.11954,0.0147 0.20915,0.058 0.36855,0.0394 0.69423,-5.37995 4.47292,-9.56991 6.47589,-14.45421 1.84556,-5.61852 2.59868,-11.51656 3.80393,-17.29506 -0.42953,5.77073 1.82187,11.56802 1.80325,17.38713 -0.5163,8.20566 -0.61011,16.46224 -1.93488,24.59451 -0.4495,3.17961 -0.25197,2.33583 -0.32905,-0.36826 1.49876,-7.57243 0.24478,-16.79411 -1.07932,-24.30517 -0.64822,-4.2755 -1.91546,-0.76446 -1.19777,1.68348 1.92228,7.46437 2.20625,16.76111 0.86871,24.33146 0.0616,1.30648 0.36792,1.941 0.76342,2.1701 -0.28477,0.28762 -0.63065,0.60898 -0.67128,0.74968 -0.89486,2.43764 -1.34148,5.86235 -2.18496,8.37791 0.22368,0.16296 -0.22647,-3.56839 -0.35538,-4.95835 0.80312,-3.42618 0.91126,-7.00666 0.38171,-10.49542 -0.96227,-1.59246 0.66524,-5.8443 -2.01385,-5.45813 0.0705,2.36074 0.59012,4.67516 0.89505,7.01009 0.78922,4.15394 -0.6851,8.27049 -0.53966,12.41562 -0.0148,0.16122 0.0209,0.26706 0.0263,0.40772 -0.4126,0.30685 -0.69258,0.69965 -0.56598,1.43358 -0.86979,1.73677 -1.75298,-0.89859 -2.26393,-1.60456 -0.81075,-0.91731 -1.94617,-2.03887 -3.33835,-1.91196 -1.26938,0.94529 1.38848,1.48054 1.89048,2.22761 0.71478,1.03963 1.02915,2.92794 2.64564,2.85401 1.01069,-0.12191 1.68642,-0.84511 2.09282,-1.72293 0.94756,0.85975 2.90199,-0.0441 2.82991,-1.92021 -0.82642,-2.23749 2.99488,-5.89755 2.09261,-8.03574 1.28996,0.19865 2.55205,-2.53124 1.48756,-4.5114 0.83692,-5.43167 1.26206,-16.75562 1.69785,-22.22535 l -2.6587,-19.24335 -0.14479,0.11836 c 0.0114,-0.052 0.69906,-1.47327 0.71056,-1.52523 1.64423,-6.60442 2.29175,-12.27106 0.42141,-18.97896 -0.33274,-1.63291 -1.14341,-3.06067 -2.22445,-4.26129 0.39334,-0.31998 0.60593,-0.96692 0.25009,-1.44674 -0.37258,-2.08608 -0.40698,-4.45982 0.85555,-6.27357 -0.10121,0.051 -0.20981,0.0918 -0.3159,0.13152 3.15521,-4.29065 4.17889,-9.93123 3.72496,-15.17757 -1.08853,-5.40595 -2.16632,-10.89721 -4.25145,-16.03246 -1.66166,-2.62156 -2.66855,-5.58802 -3.51436,-8.56205 -0.70084,-3.00003 -2.32918,-5.63078 -4.30409,-7.95704 -2.26764,-2.4416 -4.22474,-5.56699 -7.55521,-6.62868 -1.07981,-0.76818 -2.75418,-0.58252 -3.68547,0.14467 -1.94068,-1.09405 -4.10932,-1.65559 -6.38376,-1.76239 z m -2.59298,0.96011 c 2.95332,0.003 5.92309,0.41581 8.76614,0.98641 -0.49091,0.49771 -0.60384,1.18834 -0.10529,1.98597 -0.65788,1.79149 1.59929,5.01011 1.60581,6.94433 0.80673,5.3824 -7.1572,3.67605 -10.10872,6.27358 -3.89084,3.16676 -6.12391,7.9603 -7.41042,12.71812 -1.64502,8.62428 -2.9226,17.41261 -6.23897,25.60722 -1.36375,3.00709 -2.4487,6.31264 -4.67265,8.79878 -3.34703,3.13666 -8.69741,1.03631 -10.93794,-2.40684 -0.2598,-0.25827 -0.30623,-0.27462 -0.44752,-0.39457 0.41344,0.28651 1.0381,0.59594 1.67163,0.30251 3.55879,0.76641 6.64009,-2.42417 7.26563,-5.70803 0.10353,-2.8404 1.46429,-4.11828 1.52684,-6.89173 -0.0762,0.0185 -0.12703,0.0564 -0.19744,0.0789 3.89559,-4.92874 4.77408,-11.42113 7.01555,-17.16355 1.78987,-5.61419 6.26643,-9.6336 9.63487,-14.28323 2.39272,-2.8392 4.2642,-6.47909 7.7658,-8.08857 1.56998,-0.8138 -0.15006,-0.56089 -0.81606,-0.0263 -5.31141,3.40349 -8.24266,9.24928 -12.34632,13.86236 -5.60891,5.61153 -6.67122,13.75567 -9.4111,20.84615 -1.45263,4.55554 -5.4442,7.41789 -8.17384,11.12671 -0.25294,0.84837 -2.45918,3.39066 -2.50086,4.36651 0.99403,-4.15892 -0.19265,-15.62203 1.7506,-20.26745 1.57064,-11.68121 2.05534,-25.01082 11.49076,-33.49851 4.13533,-3.88 9.45512,-5.17394 14.8735,-5.16879 z m 9.37161,1.01271 c 4.23592,0.5142 7.29256,3.90369 9.727,7.11531 2.99174,2.79726 3.86683,6.91451 5.0412,10.66639 1.27067,3.12091 3.04657,6.05146 3.97504,9.32487 1.51652,5.81473 3.64956,11.74756 2.82991,17.84745 -0.82806,3.70924 -1.4758,8.07415 -4.73846,10.50857 -5.02997,3.16935 -11.14731,1.36432 -16.6899,1.94651 1.25993,-0.4634 4.35493,-1.28556 6.39692,-1.39412 4.73044,-0.31003 10.06726,-2.58417 11.74085,-7.3652 0.89926,-4.74472 0.0454,-9.73022 -1.6453,-14.21747 -2.69953,-4.29971 -2.19944,-9.56224 -3.48804,-14.29638 -0.56471,-3.17768 -2.78292,-5.94645 -5.81777,-7.089 -3.78103,-0.91246 -2.20914,-5.82209 -4.33042,-8.19379 l -0.51334,0.18413 c -0.28269,1.94692 0.75897,4.28446 1.13197,6.36564 0.75158,2.90013 4.28173,2.53255 5.89675,4.62955 -0.81802,-0.12237 -1.46967,1.02012 -0.50018,2.02543 2.22717,3.07712 1.10652,7.0411 0.57915,10.46911 -0.21047,2.8524 -0.6696,5.71335 -1.86906,8.33846 -1.70987,4.19906 -4.55673,7.80199 -6.58119,11.82377 -1.2506,2.99553 -3.67733,5.88573 -6.7523,7.07585 -0.0149,-0.0215 -0.038,-0.0307 -0.0527,-0.0526 -0.32124,0.0646 -0.46394,0.15568 -0.61864,0.24989 -0.86807,0.25802 -1.77548,0.41691 -2.72461,0.36826 -4.13775,-0.5783 -8.87786,-1.41421 -11.49076,-5.03727 -0.16328,0.021 -0.37301,0.13975 -0.57914,0.22358 1.15341,-3.21078 2.07157,-6.53079 2.88256,-9.8115 1.3877,-4.88007 1.65923,-9.98861 3.06683,-14.84876 0.20256,0.29483 0.53079,0.5778 1.11881,0.3551 1.75736,-0.0365 3.55782,0.24091 5.08068,1.17055 0.58074,0.67882 2.51305,1.28794 2.52718,-0.0658 -1.12451,-0.58573 -2.21446,-1.27045 -3.43539,-1.64402 -1.62573,-0.40449 -3.47815,-0.85262 -5.12017,-0.38141 0.17821,-0.57265 0.29457,-1.1594 0.51334,-1.72293 1.5006,-3.45495 2.78708,-7.60788 6.34427,-9.48269 2.87144,-1.79316 6.68974,-1.07531 9.39794,-3.10391 2.23564,-2.91793 0.1577,-6.26939 -0.84239,-9.40378 0.54422,-0.18919 -0.59713,-1.78102 -0.48701,-2.49891 0.0949,0.02 0.19506,0.0323 0.28957,0.0526 -0.083,-0.0541 -0.17922,-0.0798 -0.26325,-0.13152 z m 11.4776,19.51778 c 1.45485,3.87152 1.1514,8.32548 2.39556,12.2841 2.01905,3.77161 3.16079,7.97371 3.43538,12.24465 0.89528,4.09983 -1.11097,9.09718 -5.40974,10.25867 -1.39084,0.43432 -2.81586,0.67085 -4.25145,0.89434 1.42046,-1.26149 1.09318,-4.25569 2.27709,-5.879 1.4164,-3.08362 1.79901,-6.55749 1.21094,-9.89041 -0.66378,-2.71802 -0.79732,-5.58049 -0.0527,-8.299 0.24126,-0.87858 1.35404,-3.78126 0.11846,-3.76152 0.46757,-2.60392 0.83726,-5.31415 0.27641,-7.85183 z m -6.10735,9.60107 c -1.05089,0.055 -2.1031,0.19256 -3.1458,0.22358 -0.39213,0.28468 -0.79252,0.57018 -1.18462,0.85489 1.10297,-0.0234 2.20295,-0.19099 3.30376,-0.24989 0.9945,-0.0985 1.9797,0.0563 2.94837,0.24989 0.4306,0.0924 1.57791,-0.40635 1.19778,-0.80228 -1.02431,-0.30897 -2.06859,-0.33119 -3.11949,-0.27619 z m -17.58494,0.13152 c -0.95197,0.0894 -1.9126,0.35796 -2.81675,0.55239 -0.31569,0.25695 -0.65122,0.48514 -0.96085,0.74967 0.14552,0.16866 1.55556,-0.34934 2.21128,-0.38141 0.35434,-0.0826 0.73253,-0.14541 1.10564,-0.18413 -0.63756,0.30533 -1.28923,0.63899 -1.82958,1.10478 -0.0341,0.0207 -0.0487,0.0547 -0.079,0.0789 -0.0139,-0.0453 -0.0686,-0.11746 -0.079,-0.15782 -1.15126,0.0795 -0.73866,1.36083 -0.0921,1.82814 0.70369,0.96152 1.95651,1.21657 3.08,1.09163 1.46578,-0.13757 3.2348,-0.18763 4.17248,-1.5125 0.54429,-1.09771 -1.1543,-2.0686 -1.94804,-2.66988 -0.86585,-0.50332 -1.81213,-0.58921 -2.7641,-0.49978 z m -0.32906,0.71021 c 1.25493,-0.10746 2.51802,0.11792 3.30376,1.07848 0.16643,0.47453 1.81773,1.84514 0.76342,1.89391 -1.17405,0.0239 -2.90725,0.77637 -4.05401,0.42087 -0.47913,-0.0498 -0.8521,-0.33017 -1.17146,-0.65761 0.43955,-0.0318 0.88853,-0.21314 1.28991,-0.36826 0.91178,-0.17017 1.50586,-1.16301 1.3294,-2.05173 -0.19205,0.0943 -0.37556,0.20491 -0.56598,0.30249 -0.75312,0.12334 -0.82124,0.82768 -0.86872,1.44674 -0.18368,0.53971 -0.18346,-0.0305 -0.46068,-0.17098 -0.56778,-0.13857 -0.72214,-0.61927 -0.63179,-1.13108 0.0585,0.26095 1.07157,0.0114 1.3294,-0.3288 0.56309,-0.23576 0.11681,-0.51194 -0.26325,-0.43403 z m 13.37298,0.59185 c -1.04095,0.29561 -1.52218,1.31683 -1.98752,2.28847 -1.23311,2.40456 0.53561,4.38815 0.7371,6.83912 0.0345,1.41357 0.041,3.75995 -1.48735,4.59009 -2.2866,1.24239 -2.607,-1.00424 -4.23829,-1.60456 -1.58035,0.59898 -2.55788,-1.0546 -3.30376,-1.63086 -1.37801,1.8857 1.54147,2.24937 2.82992,2.1438 1.05038,1.74308 3.14566,2.64225 5.107,1.42043 2.4302,-0.9516 1.99326,-4.04303 1.56632,-6.11575 -0.45311,-1.67683 -0.89702,-3.6224 -0.56598,-5.36607 0.21683,-0.11316 0.41758,-0.23443 0.46068,-0.47348 1.22327,-0.23858 2.58702,-0.82637 3.84342,-0.74967 0.0641,5.6e-4 0.15406,0.0486 0.22376,0.0526 -0.0862,0.0434 -0.17751,0.0741 -0.26325,0.11837 -0.57923,0.20916 -1.19953,0.58688 -1.19777,1.28891 0.24419,0.47777 -0.46806,0.68837 -0.60548,0.22358 -0.15187,-0.54538 0.78395,-0.92416 0.78975,-1.15738 -0.78493,0.27265 -1.72391,0.60688 -2.01384,1.47304 -0.009,0.0217 0.007,0.0319 0,0.0526 -0.19947,-0.19424 -0.32474,-0.38624 -0.28958,-0.5524 -1.44567,-0.007 -0.68964,1.60259 0.43436,1.63087 1.40824,0.0932 2.85004,-0.0321 4.22513,-0.36826 0.84963,-0.32266 2.17601,-0.56371 2.30342,-1.64402 -0.18809,-0.99484 -1.26784,-1.50894 -2.18496,-1.65717 -1.99308,-0.21743 -4.21193,0.24532 -5.69931,1.65717 0.19027,-0.90153 0.52596,-1.76407 1.31623,-2.45945 z m 3.23795,1.39413 c 1.0231,0.0694 2.50337,0.46671 2.46136,1.5388 -0.91405,0.25608 -2.44602,1.08494 -3.39589,1.24945 -0.44657,0.11528 -0.99336,-0.0176 -1.48735,-0.22358 0.0619,-0.0228 0.12953,0.007 0.18428,-0.0263 1.19687,-0.21342 2.26679,-1.28235 2.2376,-2.53837 z m 5.26495,3.90618 c 0.008,1.05005 0.0903,2.10672 0.32907,3.14336 0.66821,3.22647 0.71177,6.62787 -0.56599,9.71944 -0.67442,2.16571 -1.87797,4.4384 -2.13231,6.60237 -2.13876,0.31966 -4.28256,0.61128 -6.34427,1.30207 -1.32226,0.47448 -1.66433,0.87777 -1.48734,1.17054 -1.70124,-0.0273 -3.3576,-0.3827 -4.47522,-1.69663 2.49751,-1.12112 4.71085,-2.9455 6.30479,-5.12934 2.50522,-5.05178 6.0402,-9.55897 8.23965,-14.76985 0.0558,-0.11124 0.0803,-0.22957 0.13162,-0.34196 z m -22.31024,10.25867 c -0.27619,0.29403 -0.86732,0.45806 -1.0135,0.80229 0.23031,0.0282 0.46497,-0.004 0.69761,0 0.0511,0.0562 0.11311,0.12341 0.32905,0.22358 2.30844,0.66179 4.70629,0.86601 7.09453,1.09163 1.12813,0.18948 2.28023,0.81882 3.14581,-0.10522 -0.0558,-0.2444 -1.37651,-0.0434 -1.92171,-0.18412 -2.23916,-0.30152 -4.53351,-0.46098 -6.69965,-1.13109 1.4752,-0.17646 2.94755,-0.37493 4.34358,0.22359 1.43844,0.53773 5.59145,-0.38928 4.63316,2.13064 -1.25803,1.74176 -4.15879,2.04577 -6.02837,1.56511 -1.79868,-0.40335 -2.69681,-2.09668 -3.96187,-3.22228 -2.10283,-0.32676 0.21802,1.47586 1.18461,1.93336 1.84024,1.87977 4.32765,2.81007 6.66017,1.84131 1.32551,-0.75544 3.5172,-1.57075 3.27743,-3.43271 -0.93293,-1.77917 -3.46599,-0.48944 -5.06752,-1.24946 -2.13471,-0.69447 -4.45634,-0.32121 -6.67333,-0.48663 z m -17.36118,3.09076 c -0.23528,0.88509 -0.28761,1.92379 -0.5265,2.88032 -0.0738,3.01501 -1.49801,7.51358 -5.35709,6.68128 -0.54539,-0.29628 -1.01933,-0.39458 -1.44786,-0.40771 0.052,-0.14918 0.12774,-0.21689 0.17111,-0.39456 0.003,0.31054 0.24147,0.44763 0.88188,0.28934 1.47088,-3.40537 3.641,-6.45609 6.27846,-9.04867 z m 8.80563,3.52477 c 2.73485,3.00722 6.93823,3.86678 10.78,4.53749 1.42802,0.0236 2.82916,-0.2418 4.17247,-0.69706 0.15591,0.3622 0.63952,0.76862 1.05299,1.14424 1.14611,0.76559 2.40505,0.92048 3.69863,0.92064 -0.20236,0.10404 -0.42362,0.17482 -0.61863,0.28935 -1.66602,0.83656 -2.91931,2.47817 -4.80427,2.84086 -3.29417,0.98511 -6.62492,2.09567 -10.10871,1.99913 -0.72291,-0.15169 -3.14658,0.36158 -2.59299,1.05217 2.09966,-0.098 4.23272,-0.13506 6.29162,-0.61815 3.35937,-0.86097 6.88944,-1.60121 9.70068,-3.76151 1.03699,-1.14161 2.48493,-1.70202 4.01452,-1.77554 0.0439,-0.0349 0.0867,-0.0717 0.13163,-0.10522 1.30253,-0.12979 2.6063,-0.28636 3.85657,-0.17098 0.86943,-0.11708 1.76555,-0.0985 2.6588,-0.0921 0.39574,0.006 0.78841,4e-4 1.18462,-0.0131 3.67952,0.26569 7.31315,1.64238 9.74017,4.48488 2.53971,3.84314 2.71623,8.70855 2.59298,13.17845 -0.94424,7.89958 -3.13329,15.59149 -4.40939,23.43711 -0.5749,5.76983 -4.28368,10.44911 -6.66017,15.54584 -0.11773,0.3146 -0.36813,0.93542 -0.60547,1.47304 -0.0476,-1.11265 -0.0299,-2.23076 -0.13162,-3.34065 -1.10956,0.22024 -1.49831,1.01356 -1.13197,2.06489 0.27305,6.35848 0.23704,12.76172 -0.47384,19.09691 -0.25569,6.59911 -2.17596,12.9519 -3.89607,19.28104 -2.52674,7.70773 -6.06771,15.43363 -5.7388,23.71332 -0.0424,1.09757 -0.3673,5.02621 1.2241,4.85314 0.35443,0.55045 1.08502,1.07388 1.6453,1.10478 2.11894,1.234 4.53538,1.80815 6.72598,2.89347 1.62345,0.87548 3.76744,2.12619 3.56701,4.26129 -0.60339,1.71971 -0.72693,3.56996 -0.7371,5.37923 -0.11609,2.02024 0.45431,4.3782 -0.98718,6.04998 -1.52759,1.28733 -3.58382,0.56701 -5.39657,0.71022 0.90181,-0.32557 1.78098,-0.74159 2.5535,-1.21 3.42296,-2.62084 3.37254,-7.32674 3.7776,-11.21878 0.30591,-2.53151 -1.38266,-0.23845 -1.39521,0.96011 -0.38024,2.253 -0.15427,4.62756 -0.94769,6.83912 -0.5142,2.08368 -2.14834,3.77718 -4.25145,4.23499 -3.16833,1.9487 -4.65349,-2.8004 -1.01351,-2.7225 3.00819,-1.30726 2.80583,-6.71804 0.18428,-8.3253 -1.82887,-0.76537 -4.0499,-0.77043 -5.92308,-0.0789 -3.39073,1.17087 -1.15847,4.43544 0.14479,6.28673 0.79897,1.9159 2.12447,3.99475 1.76376,6.10259 -3.96005,-2.45754 -6.36692,-6.67401 -8.05538,-10.88997 -2.12098,-4.19653 -1.31522,-8.97622 -1.72427,-13.48095 0.13829,-4.82566 0.83854,-9.66111 0.60547,-14.50681 0.79749,-9.6438 0.52179,-19.33551 0.26325,-29.00048 0.12003,-5.83887 -0.63199,-12.10366 2.15863,-17.4792 -0.25191,0.0814 -0.45108,0.21662 -0.65812,0.34196 9.22858,-11.72287 10.67281,-27.5343 13.66255,-41.78436 -3.5835,6.56513 -3.55827,14.5639 -5.4229,21.93778 -2.60775,15.95413 -16.69361,25.85669 -22.73144,40.16664 -6.23514,18.89664 -16.31292,37.36236 -32.62955,49.34684 -7.19597,5.6145 -16.43981,6.22014 -25.14015,5.06357 -11.28504,0.28452 -18.32617,-9.72504 -25.14016,-17.21615 -8.96991,-9.8181 -14.76225,-21.90649 -23.03417,-32.22275 -6.0597,-6.80724 -9.64305,-18.98699 -17.13742,-22.60853 8.70629,11.65236 16.03382,24.35842 25.10066,35.83959 3.28626,7.5658 9.03998,13.70877 14.30751,19.99125 -1.08551,-0.79254 -2.22221,-1.44832 -2.94837,-1.27575 -9.79598,-6.47057 -19.95806,-12.60202 -28.41758,-20.833 -5.34171,-6.44535 -11.74454,-12.06858 -19.09863,-16.12453 -4.20001,-1.8789 -7.91632,-4.59524 -11.8593,-6.93118 -3.65255,-2.55244 -8.20076,-1.38815 -12.24102,-0.74967 -11.31506,1.73574 -23.41248,3.72257 -34.4328,-0.3288 7.61586,0.0328 15.28783,0.86643 22.8499,-0.2762 10.4299,-0.74419 21.32328,0.86704 31.15537,-3.66944 5.96306,-1.99136 10.91907,-6.62502 17.30853,-7.27314 -0.11386,-1.90135 -6.3288,1.58085 -8.38444,2.64358 -7.89069,4.46565 -16.75157,7.47489 -25.91673,7.16792 -7.81177,-0.38492 -15.52816,0.9686 -23.33691,0.82859 -8.58073,0.41531 -17.62377,-1.88128 -25.824598,1.51249 -4.930414,1.33975 -4.050476,9.2761 -9.503242,9.509 -6.280328,-1.35272 -13.400615,-5.08158 -19.651441,-5.56335 -3.064545,-0.75937 -7.1086,1.58884 -9.463753,-0.98641 -1.279931,-2.62727 -2.909519,-5.03775 -5.199142,-6.90488 -1.817449,-0.8242 -2.721152,-2.6589 -3.948715,-3.94564 6.074171,-1.47702 14.248713,-5.81671 21.454688,-7.62825 12.848544,-5.59027 26.923607,-0.0365 40.053133,-3.93249 15.77258,-6.30069 32.83039,-8.44318 48.60868,-14.65148 9.66305,-3.19506 18.62958,-12.79712 29.49691,-9.50901 11.43355,6.91048 20.28988,17.26699 30.07605,26.22538 9.75337,8.91994 17.7993,19.53372 27.71998,28.23765 5.54084,3.05549 12.87553,13.54448 17.20324,12.24465 -7.33986,-4.64029 -12.82537,-11.20448 -19.88837,-16.26921 -0.18129,-0.1997 -0.37127,-0.39236 -0.55282,-0.59184 0.19532,-0.0634 0.43301,-0.14395 0.63179,-0.28935 2.24875,-1.73976 3.84411,-4.13604 5.40975,-6.47085 1.58515,-2.06294 1.81229,-4.73019 2.29025,-7.19423 0.8737,-3.53664 1.61945,-7.1339 3.02735,-10.50856 1.43031,-2.35598 1.66783,-5.23135 3.19846,-7.53617 -0.16803,0.0635 -0.28662,0.0563 -0.43436,0.0789 1.47366,-0.85579 2.69921,-2.16265 4.17247,-3.025 0.43427,-0.3705 2.45171,-1.25887 1.68479,-1.24945 -2.26543,0.79166 -3.99839,2.55672 -5.92307,3.91934 -0.12992,0.0742 -0.15427,0.0985 -0.18428,0.13152 -1.19108,0.19822 -2.69159,0.23251 -3.30375,-0.99956 -1.45174,-2.37333 -1.54143,-5.24901 -2.1718,-7.89129 -0.41413,-1.80186 -0.56326,-3.63799 -0.60547,-5.48444 0.81388,0.002 2.1809,-0.60975 2.90889,-1.14424 2.53685,-1.52856 4.06317,-4.17873 5.107,-6.86542 0.82258,-0.66153 0.073,-1.81949 -0.68444,-0.88119 -0.9806,2.164 -1.75167,4.52847 -3.40906,6.31303 -0.77939,1.11435 -1.99167,1.84998 -3.38273,1.815 -0.16724,0.14911 -0.35286,0.2714 -0.53966,0.39456 -0.0106,-0.96076 -0.046,-1.92309 0.0263,-2.88032 0.11723,-1.83775 0.67453,-3.89324 2.32975,-4.93206 0.433,-0.16014 0.89534,-0.24717 1.34256,-0.36826 -0.58628,0.22776 -1.18078,0.65924 -0.90821,1.35467 -0.0111,1.18226 -1.68389,2.78971 -2.59299,3.47217 -0.81999,0.49591 1.10429,-0.51845 1.46103,-0.68391 1.62909,-0.68815 2.64998,-2.49859 2.39555,-4.24814 1.42365,-0.36764 2.86052,-0.69096 4.15931,-1.40728 2.05252,-1.41928 3.93577,-3.07312 5.84411,-4.68216 1.67793,-1.81191 4.21638,-3.07379 4.88324,-5.62912 -1.23999,0.16792 -1.53969,1.47967 -2.15863,2.34108 -1.46808,1.52286 -3.04831,2.92668 -4.65949,4.30075 -0.61457,-2.77931 -1.36748,-6.49953 -1.02666,-9.35117 0.14572,-3.52133 3.64788,-5.30558 6.33111,-6.85227 4.99331,-1.84033 12.02201,-0.34112 17.3875,-0.85489 0.0494,0.96315 0.6541,1.97054 2.01385,2.35423 3.16779,3.0145 8.49761,1.98531 11.31965,-0.99956 1.83843,-2.54113 3.2099,-5.33526 4.38308,-8.23324 l 0.52649,-0.3025 c -10e-4,-0.002 -0.028,-0.0929 -0.0658,-0.10521 l -0.36855,0.18412 c 0.0833,-0.20857 0.18253,-0.4084 0.26325,-0.61815 z m 39.34237,2.40685 c -0.13014,0.26501 -0.26738,0.52864 -0.32906,0.81543 -0.42976,1.52906 -0.34228,3.13846 -0.079,4.69531 -1.41109,-1.21366 -3.11309,-2.12141 -4.89641,-2.59097 -0.31182,-0.0964 -0.63311,-0.12486 -0.94769,-0.19728 2.25912,-0.4677 4.39082,-1.35279 6.25213,-2.72249 z m -58.66475,25.73874 c -0.73406,0.30166 -1.21383,0.96858 -1.52683,1.67032 -1.97125,5.64893 -2.62002,11.94192 -6.30478,16.86105 -3.25869,3.12994 -6.28794,6.65995 -8.06855,10.86367 -0.36752,2.08308 -1.8502,3.72584 -2.39555,5.74748 -0.62724,1.12921 0.556,2.05584 1.09248,0.59185 0.9888,-3.27352 2.09618,-6.54382 3.80393,-9.52215 1.63485,-3.08281 4.33052,-5.35791 6.55486,-7.98335 4.07299,-5.26982 4.79184,-12.08826 6.84444,-18.22887 z m 40.22425,1.97282 c -0.322,0.0819 -0.75011,0.3376 -0.86872,0.56554 -0.57974,1.82036 -1.5881,3.46163 -2.43504,5.16879 0.15748,-1.52885 0.25445,-3.04985 0.0395,-4.53749 -2.29533,0.17504 -0.61506,4.15894 -1.39521,5.90531 -0.0428,2.85818 -0.80015,5.62695 -2.39556,8.02281 -1.55561,3.86139 -4.45149,7.45448 -8.54239,8.74618 -4.80076,2.1352 -10.25661,1.37102 -15.12358,-0.10522 -3.50894,-1.43636 -7.87111,-1.97971 -10.04289,-5.45814 -2.80132,0.91179 1.13331,3.20831 2.38239,3.85358 5.00521,1.98453 10.20099,3.99334 15.6764,3.87988 5.90945,-0.42534 11.95328,-3.24372 15.30785,-8.25955 1.30951,-2.99616 3.57917,-5.68973 3.79077,-9.06182 0.0139,-0.17787 0.0359,-0.36053 0.0527,-0.53924 0.13743,-0.07 0.27062,-0.14046 0.40803,-0.21043 0.71682,-2.67207 2.49997,-4.89444 3.3959,-7.49672 0.2976,-0.46517 0.0719,-0.55534 -0.25009,-0.47348 z m -24.95588,0.52608 c -3.63108,0.0829 -7.30337,1.8149 -9.06889,5.02412 -1.3902,2.35359 -0.35887,5.81419 2.61932,6.18151 4.57794,0.68075 10.01788,-0.11299 13.09657,-3.91934 -0.10153,0.0259 -0.19233,0.0818 -0.28957,0.11837 1.50385,-2.34265 -0.23839,-6.08409 -2.80359,-6.93118 -1.1274,-0.3468 -2.34349,-0.50112 -3.55384,-0.47348 z m -8.58188,0.42087 c -0.0327,-0.032 -0.17134,-0.0204 -0.46068,0.0658 -4.40311,1.64461 -8.19883,5.55486 -8.88461,10.31128 -0.42761,2.11433 0.10673,4.28706 0.0921,6.36564 0.39606,1.65635 2.23098,-0.0487 1.34256,-1.14424 -0.62393,-3.51447 -0.51528,-7.41209 1.6453,-10.41649 1.36596,-1.82937 2.93536,-3.91561 5.30444,-4.40597 0.24093,-0.17288 1.05902,-0.68006 0.96085,-0.77598 z m 6.59436,0.43402 c 0.45856,-0.0285 0.91761,-0.0113 1.36888,0.0526 2.25019,-0.329 4.77824,0.63928 5.673,2.85402 1.05346,0.87291 0.0369,3.6395 0.67128,3.93249 -0.23176,0.14286 -0.44889,0.30175 -0.65813,0.47348 -1.58602,1.87092 -4.05928,2.17052 -6.35743,2.34108 -2.83047,0.41941 -7.00312,-0.007 -7.134,-3.6826 0.0686,-3.38288 3.22648,-5.77179 6.4364,-5.97107 z m 1.39521,2.61728 c -0.98439,-0.0776 -2.01679,0.51976 -2.72461,1.17054 -1.06392,1.01804 0.76041,2.6492 1.79008,1.77554 l 0.0921,-0.0921 0.0921,-0.0658 c 0.73462,-0.31439 0.31486,-0.65301 -0.27641,-0.55239 -1.40608,-0.0622 -0.49406,-2.16818 0.55281,-1.10478 0.25776,1.64413 2.4895,0.21644 1.4347,-0.80227 -0.3032,-0.19925 -0.63272,-0.30293 -0.96085,-0.32881 z M 12.856669,178.30102 c 2.556276,0.91067 5.016907,2.14277 7.660507,2.77511 -1.339893,1.56255 -2.907325,2.91788 -4.356749,4.37966 -0.423476,0.64748 -1.430743,1.07475 -1.776922,1.76239 -0.316426,-0.13881 -0.633508,-0.278 -0.947692,-0.42087 -1.82131,-1.58798 -7.201559,-2.79289 -5.475551,-5.78694 -1.326345,-0.75071 2.552705,-0.33299 2.974699,-1.85445 -0.90383,0.40308 1.018171,-0.41955 1.921708,-0.8549 z m 8.279139,2.91978 c 0.22935,0.0447 0.451476,0.11159 0.684444,0.14468 -0.03567,0.0364 -0.08394,0.039 -0.118461,0.0789 0.275843,-0.002 0.553381,4.5e-4 0.82923,0 2.272034,0.26439 4.554409,0.31145 6.84444,0.28935 -0.412061,0.16318 -0.637726,0.25729 -0.855555,0.3551 -1.867144,0.82286 -3.801933,1.68436 -5.278116,3.13021 -1.346922,1.37686 -1.198044,3.50543 -1.026666,5.27401 0.01993,0.3044 0.100559,0.61335 0.22376,0.9075 -0.35867,-0.15978 -0.724163,-0.28415 -1.066152,-0.48663 -1.604028,-1.25105 -3.432834,-2.11746 -5.278117,-2.93293 -0.773383,-0.73856 -0.312804,-1.91508 0.697607,-2.35423 1.397907,-1.51235 2.975079,-2.86136 4.343586,-4.40597 z m 8.858285,0.51294 c 2.357314,-0.0294 4.718392,-0.0894 7.0682,0.0394 3.139271,0.33936 6.282917,0.49767 9.43743,0.5524 5.495403,0.99828 10.822197,2.96713 16.439818,3.31433 4.908732,0.49099 9.744587,1.46517 14.649735,1.94652 5.491415,0.13962 11.000394,0.13858 16.492464,-0.0263 4.115,-0.73049 8.71974,1.46466 12.7017,0.0394 -7.94278,2.64601 -15.90768,5.05562 -24.455708,4.20868 -16.335164,-2.61773 -31.403287,5.30227 -46.305267,10.70585 -0.49316,-0.48953 -1.049098,-0.87455 -1.737435,-1.07848 0.08252,-0.0719 0.167889,-0.0593 0.250085,-0.15782 -1.927655,-1.12936 -3.600676,-2.63651 -5.317603,-4.05087 -1.419952,-1.46714 -3.502687,-1.80553 -5.422902,-2.15694 -2.056927,-0.23098 -4.123981,-0.65918 -5.909911,-1.76239 -1.535895,-0.98037 -3.056711,-1.99317 -4.619996,-2.93293 -1.464585,-1.28247 -3.297036,-1.96647 -4.883245,-3.06445 -0.923288,-0.74472 -1.740494,-2.00453 -1.65846,-3.23543 0.309375,0.42857 0.770373,0.80154 1.539999,0.99956 1.941432,1.73519 4.345252,2.66951 6.686491,3.69576 0.949137,0.93857 2.148534,1.60711 3.303758,2.26216 1.384866,0.93276 2.886443,1.72648 4.541023,2.05174 0.397361,0.26055 0.900717,0.24713 1.303076,0.11837 1.018085,0.29598 2.038572,0.60634 3.001023,1.03902 2.912432,0.73533 5.023661,2.709 7.252474,4.57694 1.757049,0.91164 4.152998,3.36054 6.107346,1.82815 0.364587,-0.48222 -3.02764,-0.82861 -3.86974,-1.89391 -2.583327,-1.39473 -4.178796,-4.21087 -7.186662,-4.83999 -1.544411,-0.8169 -3.240839,-1.22038 -4.896407,-1.72293 -0.06116,-0.10843 -0.0377,-0.197 -0.157949,-0.31565 -1.203401,-1.53273 -1.042678,-3.63114 -0.789743,-5.44499 0.312793,-1.43832 1.564931,-2.35545 2.750938,-3.06444 1.034466,-0.16681 1.953092,-0.76131 2.895725,-1.21 0.165611,-0.15306 0.49481,-0.28641 0.789743,-0.42087 z m 138.191877,10.45595 c -1.87765,0.027 -3.88371,0.82063 -5.01487,2.38053 1.30489,-0.59594 2.45762,-1.92109 4.05401,-1.51249 2.0141,0.7463 3.37935,2.54058 4.67265,4.16923 0.89235,0.79557 1.32554,2.83656 2.8694,2.26217 0.73959,-1.18952 -1.44227,-2.13336 -1.8559,-3.26173 -1.31589,-1.57968 -2.66449,-3.42742 -4.72529,-4.03771 z m 133.57187,6.94433 c -0.72836,1.75356 -0.71587,4.13123 -1.09248,5.77379 -0.20459,3.17509 -0.22106,6.3443 -0.18427,9.52215 -0.0106,0.067 -0.0788,0.10859 -0.0658,0.18413 -1.44175,0.68754 -1.57408,-1.88867 -0.77658,-2.66988 0.83053,-1.96428 -1.17831,-3.25239 -2.81676,-2.17011 -1.70866,0.46648 -0.44989,-1.37257 0.47385,-1.47304 2.101,-0.7759 -0.0267,-3.14578 1.52684,-4.39281 0.44077,-0.60764 2.43493,-2.97535 0.51333,-2.02543 0.47748,-0.18666 0.0931,-0.0335 -0.17111,0.0921 0.0116,-0.0144 0.0279,-0.0251 0.0395,-0.0394 0.77335,-0.5831 0.66716,-0.61124 0.26325,-0.34196 0.1016,-0.12368 0.18656,-0.2585 0.28956,-0.38141 0.7013,-0.67422 1.36747,-1.3676 2.00069,-2.07804 z m -278.160666,0.55239 c 1.897782,0.93628 3.988258,1.49745 6.107346,1.5125 0.05701,-0.2027 0.96047,-0.43772 1.421538,-0.68391 0.114906,0.086 0.238176,0.16883 0.355385,0.26303 -0.827461,0.25228 -1.44478,0.89525 -1.934871,1.57827 -1.399915,2.50556 -6.167089,5.48417 -3.132648,8.44367 4.227617,4.00653 9.669215,7.09012 15.610588,7.24683 1.486588,-0.0422 2.987789,-0.12429 4.488373,-0.19728 -1.162931,0.38352 -2.300294,0.88843 -3.474869,1.22315 -2.925673,1.10737 -6.092186,1.14483 -9.174182,1.01271 -2.732567,-0.19599 -4.435634,-2.72687 -6.304782,-4.43227 -2.738512,-2.3595 -4.079215,-5.80891 -6.252133,-8.61465 -0.738886,-0.355 -0.69066,-3.30788 -0.144786,-2.28847 0.429597,1.81523 2.369259,2.57397 3.132648,4.16922 0.837735,-0.32123 1.621739,-0.80352 0.684444,-1.68347 -0.02271,-0.009 -0.03055,-0.0301 -0.05265,-0.0394 0.401575,0.0238 0.742585,-0.1101 0.789743,-0.67075 -0.576229,-0.9603 -2.7494,-0.96168 -2.290255,-2.51206 0.284166,-0.72372 0.125867,-2.04795 -0.737093,-2.63043 0.576743,-0.0432 1.431692,-0.8877 1.000341,-1.48619 -0.02256,-0.0681 -0.06501,-0.13505 -0.09214,-0.21044 z m 7.923756,1.10478 c 0.307502,0.24768 0.615837,0.48306 0.934529,0.68391 -1.554741,0.49132 1.764062,0.82104 2.514015,1.55195 0.586124,3.02068 4.274542,3.69829 5.791449,6.14205 2.437113,1.87538 2.578629,6.93038 6.436406,6.39195 5.305609,-0.83942 10.699792,0.15806 15.663239,2.11749 -5.038173,-1.04673 -10.283016,-1.05946 -15.399991,-0.6313 -4.596006,0.48819 -9.374841,-0.0155 -13.438794,-2.36739 -2.572608,-1.41674 -5.032295,-3.1924 -7.028714,-5.33977 -1.172783,-3.43159 3.272107,-5.65943 4.527861,-8.54889 z m 214.16515,8.16748 c -1.03778,0.0564 -2.13279,1.1264 -2.90888,1.69663 -1.52427,0.94188 -0.18265,3.39807 1.36889,2.44629 l 0.13162,-0.13152 c 1.51999,-0.71995 -1.04142,-0.40101 -0.86872,-1.39412 -0.25775,-1.15749 1.64639,-2.68147 2.18496,-1.13109 0.56883,1.6043 2.27926,-0.27553 1.10564,-1.14423 -0.31869,-0.25987 -0.66758,-0.36076 -1.01351,-0.34196 z m -182.786029,9.85095 c 0.448133,0.1208 0.897768,0.22268 1.342566,0.36826 2.638089,0.94656 5.579729,1.25961 7.673667,3.30119 0.540521,0.59007 1.020038,0.85668 1.461029,0.9338 -0.607827,0.24477 -1.434348,0.64416 -1.60581,0.8549 -0.700978,0.82331 -1.342154,1.70198 -2.105984,2.4726 -0.279137,0.2867 -1.366402,0.75237 -2.09282,1.2626 -1.392542,1.00026 -2.908379,1.79144 -4.435723,2.56467 -2.450077,1.47023 -5.103969,2.657 -7.305125,4.51119 -1.137744,1.06219 -2.287778,2.10642 -3.461704,3.1302 -0.138013,0.12791 -0.551159,0.49126 -0.802908,0.77598 -0.324315,-0.30029 -0.937527,-0.69033 -1.039827,-1.15739 -0.308025,-1.099 -1.339917,-1.73339 -1.88222,-2.69619 -0.653634,-0.96033 -0.0026,-2.13608 0.855554,-2.70934 1.988739,-1.55048 4.016195,-3.06111 5.883585,-4.76107 1.787998,-1.54004 3.562131,-3.09116 5.317604,-4.66901 1.33013,-0.96356 2.070614,-2.5615 2.198116,-4.18239 z m 7.291961,1.11793 c 1.329123,0.28185 2.484017,0.56796 3.158976,0.94696 5.57e-4,0.0366 0.03468,0.0493 0.07897,0.0658 0.416898,0.26045 0.662451,0.55508 0.513333,0.94696 -0.917,-0.0711 -2.273549,-1.16971 -3.751283,-1.95968 z m 240.726848,50.21489 c 0.28573,0.0299 0.56339,0.1044 0.84239,0.22359 2.2918,0.23931 4.02761,2.41963 3.72496,4.69531 -0.17367,1.7733 -2.57935,2.61822 -3.88291,3.6826 -0.64751,-1.77646 -1.96149,-3.41026 -2.63247,-5.14249 -1.94753,-1.82645 -0.0521,-3.66841 1.94803,-3.45901 z m 12.4911,7.19422 c 0.006,0.0611 0.007,0.12305 0.0131,0.18413 0.42964,1.26152 0.12464,3.54303 -1.46102,3.48532 0.99049,-0.90481 1.39104,-2.31054 1.44786,-3.66945 z"
     id="path1796"
     sodipodi:nodetypes="ccccsscccccccccccccccccccccccccccccccccccccccccccccccccccccccccccccccccccccccccccccccccccccccccccccccccccccccccccccccccccccccccccccccccccccccccccccccccccccccccccccccccccccccccccccccccccccccccccccccccccccccccccccccccccccccccccccccscccccccccccccccsccccccccccccccccccccccscccccccccccccsccccccccccccccccccccccccccccccccccccccccccccccccccccccccccccccccccccccccccccccccccccccccccccccccccccccccccccccccccccccccccccccccccccccccccccccccccccccccccccccccccccccccccccccccccccccccccccccccccccccccccccccccccccccccccccccccccccccccccccccccccccccccccccccccccccccccccccccccccccccccccccccccccccccccccccccccccccccccccccccccccccccccccccccccccccccccccccccccccccccccccccccccccccccccccccccccc"
     inkscape:connector-curvature="0" />
</svg>
