<?xml version="1.0" encoding="UTF-8" standalone="no"?>
<!-- Created with Inkscape (http://www.inkscape.org/) -->

<svg
   xmlns:dc="http://purl.org/dc/elements/1.1/"
   xmlns:cc="http://creativecommons.org/ns#"
   xmlns:rdf="http://www.w3.org/1999/02/22-rdf-syntax-ns#"
   xmlns:svg="http://www.w3.org/2000/svg"
   xmlns="http://www.w3.org/2000/svg"
   xmlns:sodipodi="http://sodipodi.sourceforge.net/DTD/sodipodi-0.dtd"
   xmlns:inkscape="http://www.inkscape.org/namespaces/inkscape"
   width="400"
   height="400"
   id="svg2"
   sodipodi:version="0.32"
   inkscape:version="0.48.0 r9654"
   sodipodi:docname="tg0002.svg"
   inkscape:export-filename="/home/nicu/Desktop/svg/tg/tg0002.png"
   inkscape:export-xdpi="72.57"
   inkscape:export-ydpi="72.57"
   version="1.0"
   inkscape:output_extension="org.inkscape.output.svg.inkscape"
   sodipodi:modified="true">
  <defs
     id="defs4">
    <filter
       inkscape:collect="always"
       id="filter3183"
       color-interpolation-filters="sRGB">
      <feGaussianBlur
         inkscape:collect="always"
         stdDeviation="5.6377019"
         id="feGaussianBlur3185" />
    </filter>
    <filter
       inkscape:collect="always"
       x="-0.22479402"
       width="1.4495879"
       y="-0.072610453"
       height="1.1452209"
       id="filter3187"
       color-interpolation-filters="sRGB">
      <feGaussianBlur
         inkscape:collect="always"
         stdDeviation="5.4792845"
         id="feGaussianBlur3189" />
    </filter>
    <filter
       inkscape:collect="always"
       x="-0.23056541"
       width="1.4611309"
       y="-0.066340692"
       height="1.1326814"
       id="filter3191"
       color-interpolation-filters="sRGB">
      <feGaussianBlur
         inkscape:collect="always"
         stdDeviation="5.4792845"
         id="feGaussianBlur3193" />
    </filter>
    <filter
       inkscape:collect="always"
       x="-0.23054045"
       width="1.4610809"
       y="-0.30085415"
       height="1.6017083"
       id="filter3195"
       color-interpolation-filters="sRGB">
      <feGaussianBlur
         inkscape:collect="always"
         stdDeviation="5.4792845"
         id="feGaussianBlur3197" />
    </filter>
    <filter
       inkscape:collect="always"
       x="-0.26250389"
       width="1.5250078"
       y="-0.051745065"
       height="1.1034901"
       id="filter3199"
       color-interpolation-filters="sRGB">
      <feGaussianBlur
         inkscape:collect="always"
         stdDeviation="5.4792845"
         id="feGaussianBlur3201" />
    </filter>
    <filter
       inkscape:collect="always"
       x="-0.38741732"
       width="1.7748348"
       y="-0.057476345"
       height="1.1149527"
       id="filter3203"
       color-interpolation-filters="sRGB">
      <feGaussianBlur
         inkscape:collect="always"
         stdDeviation="5.4792845"
         id="feGaussianBlur3205" />
    </filter>
    <filter
       inkscape:collect="always"
       id="filter3207"
       color-interpolation-filters="sRGB">
      <feGaussianBlur
         inkscape:collect="always"
         stdDeviation="0.4247979"
         id="feGaussianBlur3209" />
    </filter>
    <filter
       inkscape:collect="always"
       x="-0.22479402"
       width="1.4495879"
       y="-0.072610453"
       height="1.1452209"
       id="filter3187-0"
       color-interpolation-filters="sRGB">
      <feGaussianBlur
         inkscape:collect="always"
         stdDeviation="5.4792845"
         id="feGaussianBlur3189-5" />
    </filter>
    <filter
       inkscape:collect="always"
       x="-0.23056541"
       width="1.4611309"
       y="-0.066340692"
       height="1.1326814"
       id="filter3191-6"
       color-interpolation-filters="sRGB">
      <feGaussianBlur
         inkscape:collect="always"
         stdDeviation="5.4792845"
         id="feGaussianBlur3193-7" />
    </filter>
    <filter
       inkscape:collect="always"
       x="-0.26250389"
       width="1.5250078"
       y="-0.051745065"
       height="1.1034901"
       id="filter3199-7"
       color-interpolation-filters="sRGB">
      <feGaussianBlur
         inkscape:collect="always"
         stdDeviation="5.4792845"
         id="feGaussianBlur3201-4" />
    </filter>
    <filter
       inkscape:collect="always"
       x="-0.38741732"
       width="1.7748348"
       y="-0.057476345"
       height="1.1149527"
       id="filter3203-0"
       color-interpolation-filters="sRGB">
      <feGaussianBlur
         inkscape:collect="always"
         stdDeviation="5.4792845"
         id="feGaussianBlur3205-6" />
    </filter>
    <filter
       inkscape:collect="always"
       id="filter3207-4"
       color-interpolation-filters="sRGB">
      <feGaussianBlur
         inkscape:collect="always"
         stdDeviation="0.4247979"
         id="feGaussianBlur3209-7" />
    </filter>
    <filter
       inkscape:collect="always"
       x="-0.23054045"
       width="1.4610809"
       y="-0.30085415"
       height="1.6017083"
       id="filter3195-4"
       color-interpolation-filters="sRGB">
      <feGaussianBlur
         inkscape:collect="always"
         stdDeviation="5.4792845"
         id="feGaussianBlur3197-8" />
    </filter>
    <filter
       inkscape:collect="always"
       id="filter3183-5"
       color-interpolation-filters="sRGB">
      <feGaussianBlur
         inkscape:collect="always"
         stdDeviation="5.6377019"
         id="feGaussianBlur3185-8" />
    </filter>
  </defs>
  <sodipodi:namedview
     id="base"
     pagecolor="#ffffff"
     bordercolor="#666666"
     borderopacity="1.0"
     inkscape:pageopacity="0.0"
     inkscape:pageshadow="2"
     inkscape:zoom="1"
     inkscape:cx="200"
     inkscape:cy="200"
     inkscape:document-units="px"
     inkscape:current-layer="layer3"
     inkscape:window-width="1293"
     inkscape:window-height="946"
     inkscape:window-x="371"
     inkscape:window-y="24"
     fill="#e0c39e"
     showgrid="false"
     inkscape:window-maximized="0" />
  <metadata
     id="metadata7">
    <rdf:RDF>
      <cc:Work
         rdf:about="">
        <dc:format>image/svg+xml</dc:format>
        <dc:type
           rdf:resource="http://purl.org/dc/dcmitype/StillImage" />
      </cc:Work>
    </rdf:RDF>
  </metadata>
  <g
     inkscape:groupmode="layer"
     id="layer3"
     inkscape:label="color"
     style="display:inline"
     transform="translate(0,-652.36218)">
    <path
       style="fill:#26c726;fill-opacity:1;fill-rule:nonzero;stroke:none;display:inline"
       d="m 187.87507,661.73336 c -1.15075,-0.0559 -1.52901,1.44205 -2.01699,2.25429 -0.48065,1.07971 -0.0923,2.39954 0.85689,3.05845 -0.12515,1.52237 1.75814,1.45987 2.80797,1.84561 2.22679,0.46071 4.59189,0.45046 6.5308,1.79409 3.39978,1.65444 6.56909,3.8246 8.60326,7.06487 0.10503,-2.21636 1.23613,-4.52538 0.10906,-6.65062 -1.23373,-3.62748 -3.28028,-7.65369 -7.16193,-8.90528 -3.22083,-0.39568 -6.48641,-0.48424 -9.72904,-0.46141 z m -0.96236,6.96061 c -1.24126,0.97739 -2.55044,1.89041 -3.34989,3.31097 -2.44786,3.81498 -4.60398,7.9951 -6.16256,12.27116 0.0394,2.0216 -0.54469,4.27352 0.3371,6.1566 2.94763,2.90989 7.44493,3.20723 11.23799,4.32549 3.13009,0.75586 6.16778,1.8477 9.0638,3.21516 3.19176,1.03322 6.70964,1.04696 9.5972,2.95299 0.0353,-2.6145 0.58448,-5.21716 0.1787,-7.8306 -0.0266,-3.00226 0.21409,-6.13404 -1.26769,-8.86449 -1.30352,-2.7899 -2.46322,-5.83145 -4.44786,-8.22074 -3.001,-2.92509 -6.9455,-4.75709 -10.76629,-6.35648 -1.4736,-0.31629 -2.94775,-0.49435 -4.32821,-1.10508 l -0.0923,0.14502 z m -2.90026,0.3032 c -3.85635,0.53526 -7.85545,0.43329 -11.61419,1.42376 -2.41191,0.86778 -4.77718,1.97012 -7.0529,3.098 -3.36606,2.76475 -5.34211,6.84805 -6.69694,10.91551 -0.59579,2.91352 0.46386,5.92048 0.11858,8.79304 -0.73495,2.00215 -2.2031,4.00415 -1.38785,6.26829 0.74546,3.46079 1.49952,7.04913 3.23346,10.1577 1.4049,2.05012 3.32358,3.76488 5.29955,5.23363 1.66432,0.72431 3.55563,0.64163 5.16773,1.51606 0.14526,-1.07631 0.13555,-2.28942 -0.84371,-2.93981 -0.72981,-0.64488 -1.79132,-0.75763 -2.55009,-0.1431 -0.85126,0.69388 -1.4023,0.31385 -1.77393,-0.5556 -1.53234,-4.72104 -3.01267,-9.56895 -2.61023,-14.60674 0.0661,-4.49477 2.34293,-8.56857 2.47841,-13.07751 0.76155,-0.15164 0.0244,2.04205 0.0943,2.89719 -0.45142,3.27004 -1.51233,6.43947 -1.53119,9.77165 -0.3151,3.30705 0.003,6.61753 0.85776,9.82409 0.46388,1.88305 0.97251,3.77302 1.50198,5.65273 0.39595,-1.60471 1.19561,-3.05792 0.84495,-4.77149 -0.24629,-2.80637 -0.26744,-5.64494 0.52548,-8.37402 0.8442,-3.78041 0.87092,-7.77517 2.12852,-11.42305 0.8027,-1.88045 2.13986,-3.61852 3.41725,-5.21678 1.18392,-0.90134 3.01012,-1.26096 3.26106,-2.94799 0.92627,-2.84473 3.16378,-4.87732 4.74202,-7.33922 1.11113,-1.52675 2.25432,-2.95337 3.65554,-4.23543 -0.42632,-0.0221 -0.8445,0.0107 -1.26557,0.0791 z m 2.90026,26.49778 c 1.377,1.97477 3.10446,3.82749 3.92853,6.13009 0.39964,0.91283 0.89156,2.96851 0.96514,0.86056 0.23295,-1.87484 0.54509,-3.73981 0.73547,-5.61961 -1.92425,-0.72752 -3.90994,-1.2767 -5.8928,-1.81926 0.0879,0.14941 0.17578,0.29882 0.26366,0.44822 z"
       id="path1405"
       inkscape:connector-curvature="0" />
    <path
       style="fill:#e0c39e;fill-opacity:1;fill-rule:nonzero;stroke:none;display:inline"
       d="m 175.75991,682.89203 c -0.003,8.5e-4 -0.0107,0.0121 -0.0134,0.0134 -0.003,0.001 -0.0107,-0.001 -0.0134,0 -0.07,0.038 -0.17418,0.12757 -0.3164,0.26367 -1.45976,1.47677 -3.04904,2.87824 -3.69123,4.93042 -1.47118,3.64524 -1.55156,7.62561 -2.95298,11.29781 -1.41915,3.50134 -0.007,7.27697 -0.51413,10.88913 -0.0734,0.52163 -0.14902,0.99773 0.0264,1.27876 0.0164,0.0248 0.0453,0.0575 0.0659,0.0791 0.004,0.004 0.0195,0.0196 0.0264,0.0264 0.12596,0.10691 0.32702,0.16766 0.6196,0.15819 1.16816,0.3035 1.32135,1.79955 2.17518,2.51796 0.0841,0.26353 0.17763,0.45574 0.26367,0.55368 0.003,0.003 0.0107,0.0107 0.0134,0.0134 0.003,0.003 0.0107,0.0107 0.0134,0.0134 0.004,0.003 0.0219,0.0107 0.0264,0.0134 0.001,0.001 0.0121,0.0121 0.0134,0.0134 0.004,0.003 0.0196,0.009 0.0264,0.0134 0.001,0 0.0121,8e-5 0.0134,0 0.001,0 0.0121,5e-5 0.0134,0 0.004,2e-4 0.022,2.3e-4 0.0264,0 8.5e-4,-1.2e-4 0.0107,-7e-5 0.0134,0 0.001,3e-5 0.0121,-5e-5 0.0134,0 0.001,4e-5 0.0121,-8e-5 0.0134,0 0.003,-0.003 0.0107,-0.0107 0.0134,-0.0134 0.001,4e-5 0.0121,-1.5e-4 0.0134,0 0.003,-0.003 0.0107,-0.0107 0.0134,-0.0134 0.003,-0.001 0.0107,-0.0121 0.0134,-0.0134 0.003,-0.001 0.0107,-0.0107 0.0134,-0.0134 0.003,-0.003 0.009,-0.009 0.0134,-0.0134 0.003,-0.003 0.0107,-0.009 0.0134,-0.0134 0.0739,-0.10155 0.14935,-0.29251 0.21094,-0.55369 0.61517,-1.59522 2.54882,-1.47743 3.88897,-0.98871 1.52579,0.17241 2.6176,1.39662 3.69124,2.29383 0.35231,0.19666 0.66678,0.35973 0.83052,0.56687 0.0287,0.0377 0.0585,0.0877 0.0791,0.13186 0.003,0.007 0.0107,0.0199 0.0134,0.0263 0.0107,0.0303 0.022,0.0727 0.0264,0.10543 0.0178,0.16559 -0.0452,0.37555 -0.21093,0.63278 -0.52932,1.48221 -0.40335,3.75478 -2.33339,4.20537 -0.007,0.004 -0.0195,0.009 -0.0264,0.0134 -0.0177,0.008 -0.0468,0.0197 -0.0659,0.0264 -0.4331,0.14179 -1.20072,-0.10517 -1.54241,0.0134 -0.005,0.003 -0.0207,0.0107 -0.0263,0.0134 -0.008,0.004 -0.0187,0.008 -0.0264,0.0134 -0.0272,0.0176 -0.058,0.0488 -0.0791,0.0792 -0.009,0.0154 -0.0209,0.0363 -0.0264,0.0527 -8.4e-4,0.003 4.2e-4,0.0107 0,0.0134 -0.003,0.0107 -0.0121,0.0279 -0.0134,0.0396 -4.3e-4,0.005 1.6e-4,0.0201 0,0.0264 -3.6e-4,0.0697 0.0184,0.16185 0.0527,0.26366 -0.0176,1.40881 0.53365,2.86482 1.97744,3.28256 1.36944,0.84126 3.04032,0.51014 4.52176,0.34275 3.026,-1.78536 5.61889,-4.23163 8.17344,-6.60467 2.16188,-2.17726 4.11547,-4.69532 5.0359,-7.60657 0.47703,-0.93059 0.99303,-1.82799 1.27875,-2.83434 -0.60404,-0.0249 -1.63131,0.55804 -2.08291,0.17138 -0.0377,-0.0345 -0.0767,-0.082 -0.10543,-0.13186 1.49251,-0.78408 3.27617,-1.28742 4.35038,-2.63659 0.26428,-2.24224 0.49055,-4.533 0.11858,-6.77606 -1.97503,-0.37204 -3.96915,-0.68443 -5.72141,-1.71377 -0.3903,2.46235 -0.47353,5.02501 -0.94919,7.43518 -0.33231,1.00886 -0.87066,1.98876 -0.87006,3.07164 -0.0416,0.003 -0.0846,-0.004 -0.11872,-0.0134 -0.022,-0.007 -0.0484,-0.0154 -0.0659,-0.0264 -0.001,-0.001 -0.0121,-0.0121 -0.0134,-0.0134 -0.009,-0.009 -0.02,-0.0199 -0.0264,-0.0264 -0.001,-0.003 -0.009,-0.009 -0.0134,-0.0134 -0.007,-0.009 -0.0202,-0.0296 -0.0264,-0.0396 -0.18081,-0.31843 0.0107,-1.12461 -0.1582,-1.54242 -0.004,-0.0107 -0.0215,-0.0296 -0.0263,-0.0396 -0.008,-0.0162 -0.0164,-0.0381 -0.0264,-0.0527 -0.91443,-2.19412 -1.23082,-4.71389 -3.1771,-6.28829 -1.48239,-1.39666 -2.22805,-3.50282 -3.21665,-5.18091 -3.29568,-0.80964 -7.00728,-1.75425 -9.21489,-4.48222 -0.6515,-1.64825 -0.68916,-3.61749 -0.68552,-5.36546 0.0805,-0.22703 0.72907,-1.43447 0.75143,-1.79288 1e-4,-0.003 -2e-5,-0.0107 0,-0.0134 -2.1e-4,-0.005 -3.1e-4,-0.0189 0,-0.0264 -2e-5,-0.001 1.2e-4,-0.0121 0,-0.0134 -0.003,-0.003 -0.0107,-0.0107 -0.0134,-0.0134 3e-5,-0.001 -8e-5,-0.0121 0,-0.0134 -0.001,10e-5 -0.0121,-2e-5 -0.0134,0 5e-5,-0.001 -1e-4,-0.0121 0,-0.0134 -0.001,4e-5 -0.0121,-3e-5 -0.0134,0 -0.003,4e-5 -0.0121,7e-5 -0.0134,0 -0.001,-6e-5 -0.0121,1.1e-4 -0.0134,0 -0.001,-1.2e-4 -0.0107,4e-5 -0.0134,0 -0.001,5e-5 -0.0121,-2.2e-4 -0.0134,0 -0.003,8.4e-4 -0.0107,-8.5e-4 -0.0134,0 z m 26.12867,16.70283 0.0264,0.21093 0.0264,0.18456 c 0.46527,2.4885 0.70106,5.80081 -1.79289,7.21108 -1.18123,0.34708 -1.00839,1.61097 -1.4765,2.57069 -1.07676,3.7504 -3.91325,6.45521 -6.4992,9.2149 1.99467,-0.46435 3.59678,-1.75836 5.61595,-2.18837 3.52207,-1.03454 6.69774,-2.78137 10.17725,-3.99445 -1.23654,-1.76907 -2.96971,-3.37334 -2.75524,-5.68186 -0.11804,-1.94997 -0.0227,-3.90633 0.10544,-5.85324 -1.14975,-0.54147 -2.29206,-1.10259 -3.42757,-1.67424 z m -31.65233,4.61404 c -0.0425,1.09952 -0.29203,2.3492 -0.79098,3.38802 -0.23703,0.14513 -0.39074,0.21146 -0.47459,0.22411 -0.003,3.1e-4 -0.0107,-1.9e-4 -0.0134,0 -0.004,8e-5 -0.0196,1.2e-4 -0.0264,0 -0.001,4e-5 -0.0121,-6e-5 -0.0134,0 -0.001,4e-5 -0.0121,-1.2e-4 -0.0134,0 -0.003,-0.004 -0.0107,-0.0215 -0.0134,-0.0263 5e-5,-0.001 -3e-5,-0.0121 0,-0.0134 -3.6e-4,-0.005 -3.1e-4,-0.0209 0,-0.0263 -1.4e-4,-0.004 -2e-5,-0.0217 0,-0.0264 0.0647,-0.27199 0.63651,-1.0163 0.67233,-1.41058 0.19709,-0.64329 0.27866,-1.68355 0.65916,-2.09609 0.003,-0.004 0.0107,-0.0107 0.0134,-0.0134 z m 9.30717,82.32768 c -0.005,0.003 -0.009,0.0121 -0.0134,0.0134 -0.001,-3e-5 -0.0121,5e-5 -0.0134,0 -0.001,-3e-5 -0.0121,7e-5 -0.0134,0 -0.37291,0.13119 -0.57333,0.2133 -0.65914,0.26365 -0.005,0.003 -0.0219,0.0107 -0.0264,0.0134 -0.001,0.001 -0.0121,0.0121 -0.0134,0.0134 1e-5,0.001 -1.2e-4,0.0121 0,0.0134 -8.5e-4,4.1e-4 8.4e-4,0.0121 0,0.0134 -4e-5,0.001 1e-4,0.0121 0,0.0134 8.4e-4,8.4e-4 0.009,0.009 0.0134,0.0134 0.001,-1.5e-4 0.0121,4e-5 0.0134,0 0.001,0.001 0.0121,0.0121 0.0134,0.0134 0.20274,0.09 0.97149,0.19628 0.94917,1.08101 -0.23841,2.90904 0.49968,5.80284 0.68552,8.71395 0.48739,4.71551 0.96277,9.4285 1.43695,14.14533 1.12374,-0.55676 2.2445,-1.0902 3.36166,-1.60832 -1.1374,-4.96012 -2.15855,-9.94711 -2.57069,-15.0286 -0.3968,-3.54368 -0.0182,-4.02146 -0.39548,-7.56702 -0.18497,0.0141 -2.31872,-0.14575 -2.74207,-0.10544 -0.001,4.1e-4 -0.0107,-4.3e-4 -0.0134,0 -0.001,8.5e-4 -0.0121,-8.4e-4 -0.0134,0 z m 26.76144,0.39548 c -0.11791,0.001 -0.23814,0.009 -0.35593,0.0134 -0.5004,0.0136 -1.00669,0.0444 -1.50287,0.0923 -1.25835,-0.0495 -1.71764,1.75771 -1.7665,2.97935 -0.6353,3.58404 -0.704,7.98471 -1.70061,11.50874 -0.20769,1.09686 -0.41242,3.06153 -0.4614,4.179 5.14809,-0.0755 10.17725,-2.30793 15.25269,-3.05845 5.29455,-0.93108 10.59139,-1.83495 15.8855,-2.76843 -1.60695,-2.54546 -3.63929,-4.98342 -4.02081,-8.04161 -0.37219,-1.05637 -0.25105,-2.60622 -0.80417,-3.37484 -3.20347,0.0351 -6.28828,-1.03706 -9.49174,-1.0019 -3.63704,0.13626 -7.37669,-0.57627 -11.03416,-0.52732 z m 52.61326,49.7921 -0.21093,0.0134 -0.0134,0 c -2.20607,0.14729 -4.41121,0.31065 -6.61785,0.44822 0.51365,1.46063 0.89299,2.96213 1.13374,4.46903 -1.3056,1.78387 -3.11349,3.38479 -4.28447,5.26001 -0.54825,1.24093 -0.71422,3.41968 0.96236,3.78351 1.66647,0.21168 3.55853,-0.10155 4.65359,-1.47649 1.65323,-1.59197 3.4858,-2.99625 5.32591,-4.31084 1.07709,-0.73318 1.2903,-2.22357 0.48778,-3.243 -0.66681,-1.59612 -1.14359,-3.26109 -1.43695,-4.94362 z m -0.0527,9.86087 c -0.001,0.001 -0.0121,0.0121 -0.0134,0.0134 -0.0691,0.0496 -0.22592,0.21609 -0.51413,0.51414 -1.46165,1.43433 -2.90937,2.83355 -4.53494,4.09991 0.48408,0.68007 0.65801,1.98783 1.68742,1.35785 2.40421,-0.47284 2.68353,-3.3227 3.19027,-5.24682 0.0879,-0.32615 0.18254,-0.56247 0.21094,-0.67233 1.6e-4,-0.001 -4e-5,-0.0121 0,-0.0134 -7e-5,-0.001 1.1e-4,-0.0107 0,-0.0134 -9e-5,-0.001 1e-5,-0.0121 0,-0.0134 3e-5,-0.001 -10e-6,-0.0107 0,-0.0134 -1.1e-4,-4e-4 -7e-5,-0.0107 0,-0.0134 -0.003,4e-5 -0.0121,-2e-5 -0.0134,0 -0.001,-1.4e-4 -0.0121,0 -0.0134,0 z m -11.7724,2.7025 -0.13186,0.15821 -0.0659,0.0791 c -2.04232,2.7544 -5.39415,4.01054 -8.30528,5.68187 -4.40441,2.35999 -9.13764,3.95261 -13.67073,6.09053 -3.05844,1.29194 -6.0601,2.75396 -9.18854,3.86262 1.29772,6.23442 2.78825,12.42246 4.69313,18.49571 3.83033,10.92249 8.35703,21.59464 12.1547,32.52239 1.09397,4.09971 5.21715,6.58353 6.60467,10.44093 0.4765,1.54899 0.1724,3.31709 0.68552,4.7986 1.57625,2.18004 3.48672,4.17118 4.86451,6.45966 2.24034,7.11601 3.65419,14.47328 5.36549,21.77827 1.16708,4.87472 1.97508,9.87707 3.41438,14.65947 1.5335,4.42721 3.64954,8.78164 4.45585,13.35438 0.87322,4.4319 1.94967,8.90055 2.87389,13.27519 2.47911,0.6295 5.18702,0.9331 7.76477,1.3315 0.80519,0.078 1.80512,0.2881 2.01699,-0.7382 1.4182,-4.2303 1.20431,-8.83846 1.37104,-13.26217 0.15659,-6.43002 -0.44166,-12.83154 -1.08101,-19.22071 -0.78249,-7.94702 -1.35127,-15.93636 -2.49158,-23.83482 -3.00795,-7.94746 -6.78935,-15.62592 -10.2959,-23.32068 -1.25478,-2.7994 -2.81519,-5.57731 -3.96808,-8.38438 -0.71939,-3.56137 1.15337,-7.03879 0.69869,-10.62547 0.25778,-14.2132 1.02263,-28.51746 -0.81734,-42.66011 -0.5105,-2.92071 -0.93961,-6.00961 -2.63659,-8.50302 -1.78727,0.17315 -3.62721,-0.69881 -4.31083,-2.43885 z m -45.11214,13.05116 c -1.20784,0.0152 -2.41656,0.0476 -3.62532,0.0659 -3.78795,0.0639 -7.57668,0.11201 -11.36372,0.21093 -0.99594,1.57341 -2.17328,3.01299 -2.80799,4.77224 -0.54482,1.54831 -2.05746,2.8266 -1.71377,4.5613 0.15442,2.66766 0.12421,5.42421 0.3823,8.04162 1.16392,0.84514 2.7499,-0.24729 3.84943,-0.67233 0.52495,-0.28711 0.78135,-0.41858 0.84371,-0.43505 -8.5e-4,8.4e-4 8.4e-4,0.0121 0,0.0134 -0.0677,0.0762 -0.60754,0.44272 -1.1601,0.83053 -1.31717,0.75124 -2.79105,2.23715 -4.38993,1.71379 -1.14431,-0.9578 -0.32358,-2.75979 -0.58006,-4.04718 -8.4e-4,-2.07847 -0.0141,-4.15729 0.0134,-6.23555 -3.60133,-0.3588 -7.22009,-0.5789 -10.79686,-1.14691 -1.31574,3.51343 -2.48139,7.07899 -4.13944,10.45409 -1.57949,3.50053 -1.32873,7.4553 -1.92472,11.19235 -0.86901,7.94321 -1.66962,15.90022 -2.30703,23.86119 -0.30611,3.31107 -2.2998,6.10044 -3.84943,8.93806 -0.79067,2.06163 -0.72334,4.37814 -1.35785,6.45964 -1.69277,3.47665 -4.66433,6.28694 -5.57639,10.13771 -1.304,4.03524 -2.46746,8.11589 -4.13945,12.02288 -2.72108,7.311 -4.04639,15.03629 -5.62913,22.66153 -1.03046,5.77118 -1.56112,11.736 -3.07163,17.36203 -1.37904,3.65052 -2.77729,7.29297 -4.08673,10.96817 1.86803,1.421 4.14635,1.997 6.47285,1.8851 1.55596,-0.026 3.11426,0.032 4.66676,-0.079 0.23338,-2.7388 1.09503,-5.4562 2.38612,-7.88338 5.76151,-9.37192 11.8747,-18.53843 17.09832,-28.22476 0.94075,-1.70833 2.25039,-3.20038 2.97935,-5.06227 3.66387,-8.3691 5.796,-17.31381 8.06799,-26.11546 9.10945,-17.4638 18.14761,-34.98074 27.30193,-52.41551 3.05892,-5.62709 6.10093,-11.30698 8.48984,-17.24333 0.31133,-0.85377 0.5782,-1.69898 0.65916,-2.61023 -2.29717,1.116 -4.81123,1.54296 -7.30337,2.03018 -0.44799,2.80598 -0.75997,6.08285 -3.28256,7.79113 -0.9949,0.72941 -2.46111,0.76938 -3.42758,-0.0396 -0.87777,0.48889 -1.74679,1.72103 -2.70251,0.7646 -1.38891,-0.60649 -2.59998,-2.63404 -1.39739,-3.9417 0.29312,1.87141 2.16555,3.22489 4.04717,3.16391 -0.50275,-0.89339 -0.84198,-2.12799 -0.52733,-3.03208 0.74297,0.48055 1.36545,0.98604 1.6347,1.80607 0.62568,1.11153 2.23026,0.69264 2.7816,-0.3164 1.54568,-1.84886 1.34807,-4.42459 2.017,-6.63104 0.21187,-1.85154 0.59562,-3.70435 0.47458,-5.57639 -0.82901,-0.005 -1.66271,-0.008 -2.49158,0 -0.17268,0.001 -0.34158,-0.003 -0.51414,0 z m -11.40328,10.98142 c 0.004,-0.001 0.009,8.4e-4 0.0134,0 0.004,10e-6 0.0219,-1.9e-4 0.0264,0 0.10905,1.60169 0.881,3.32838 2.16201,4.27127 0.83936,0.0951 1.56795,-0.38353 2.33339,-0.67233 -0.99302,0.65748 -1.8571,1.86696 -3.15073,1.27876 -0.94073,-0.15397 -1.81438,-0.70536 -2.54433,0.25047 -1.19757,1.18242 -2.35333,-0.56279 -3.16391,-1.41058 -0.46523,-0.66584 -1.38836,-1.60373 -1.09418,-2.35975 0.0596,-0.10141 0.12046,-0.17575 0.17138,-0.22411 0.003,-0.003 0.0107,-0.0107 0.0134,-0.0134 0.0156,-0.0134 0.0381,-0.0307 0.0527,-0.0396 0.007,-0.004 0.0195,-0.0107 0.0264,-0.0134 0.005,-0.001 0.0189,-0.0107 0.0263,-0.0134 0.001,-4.3e-4 0.0121,3.7e-4 0.0134,0 0.005,-4.3e-4 0.0188,0 0.0264,0 0.004,1.2e-4 0.0107,-2.4e-4 0.0134,0 0.003,4.2e-4 0.0107,-4.3e-4 0.0134,0 0.003,8.4e-4 0.0107,0.0121 0.0134,0.0134 0.003,8.5e-4 0.0107,-8.4e-4 0.0134,0 0.018,0.009 0.0374,0.026 0.0527,0.0396 0.009,0.009 0.029,0.0278 0.0396,0.0396 0.18042,0.23323 0.32215,0.83035 0.56687,1.09417 0.0266,0.0272 0.0614,0.0588 0.0923,0.0792 0.008,0.005 0.0188,0.009 0.0264,0.0134 0.81197,1.06389 2.20813,2.03579 3.61213,1.51606 -0.49835,-0.92956 -0.83669,-2.31806 -0.34275,-3.22983 0.30003,-0.1715 0.74287,-0.54757 0.98872,-0.6196 z m 68.28782,129.35129 c 0.1532,1.5493 0.24726,3.1004 0.145,4.6668 -0.2011,2.7353 1.03875,6.3493 0.81735,9.0831 -0.0448,1.4123 -1.75398,5.0245 -2.50476,6.9606 0.43762,0.157 3.24218,0.9858 3.74396,1.1338 0.004,0 0.022,-0.013 0.0264,-0.013 0.001,10e-5 0.0121,-2e-4 0.0134,0 0.26951,-1.729 2.22666,-4.9064 2.57067,-6.9739 -0.48258,-0.7731 -0.89512,-1.5889 -1.19965,-2.452 -0.35231,-2.3102 -0.0726,-4.67 0.936,-6.8024 1.04298,-1.4123 2.54857,-2.4732 3.40121,-3.9549 -1.29763,-0.1377 -2.46705,-0.2978 -3.15074,-0.4746 -0.90878,-0.1757 -2.84698,-0.6306 -4.7986,-1.1734 z m -125.14599,4.3899 c -0.45375,1.3547 -0.79208,2.4663 -0.93599,3.1509 -0.52167,3.1987 -4.7797,7.9818 -5.73459,11.0605 -0.41172,1.7504 0.94254,6.758 1.27874,9.1094 0.94088,0.1654 1.87503,0.2747 2.83434,0.145 0.48874,-0.5936 1.27232,-1.5751 2.12247,-2.9134 1.06376,-1.1652 3.11017,-3.9811 4.179,-6.407 -3e-4,-8e-4 2.4e-4,-0.013 0,-0.013 -1.9e-4,0 1.3e-4,-0.014 0,-0.014 -0.009,-0.3789 0.43555,-4.9761 2.29383,-6.631 1.36418,-1.3712 3.26225,-4.3974 3.8758,-6.776 -0.846,0.051 -1.69272,0.1113 -2.54431,0.066 -2.22061,0.014 -6.90091,-0.6586 -7.34292,-0.7777 -0.007,-0 -0.0227,0 -0.0264,0 z"
       id="path1399"
       inkscape:connector-curvature="0" />
    <path
       style="fill:#887fa3;fill-opacity:1;fill-rule:nonzero;stroke:none;display:inline"
       d="m 213.23911,710.61583 c -3.92956,2.97731 -21.68554,8.91285 -21.9101,9.03033 -0.69177,1.03981 -3.90134,4.63154 -5.68186,6.02463 -1.69524,1.19658 -3.03544,2.69537 -4.12628,4.42948 -1.90925,1.36363 -3.51306,5.95448 -4.21855,8.25254 l 10.58593,-7.93615 c 3.37569,-2.50774 7.30259,-4.52488 11.11326,-6.26191 2.81179,-1.13079 6.21119,-2.16666 14.65947,-6.8947 2.40202,-1.03105 4.80925,-2.55265 6.01142,-3.3353 -2.39359,-1.4984 -5.28485,-2.75474 -6.43329,-3.30892 z m 5.02271,4.90406 c -0.0279,0.003 -0.0504,0.0149 -0.0791,0.0264 -5.9404,3.25665 -11.9905,6.23673 -18.07386,9.14898 -3.77195,1.98407 -7.41005,4.1545 -10.91551,6.56512 -2.43807,1.39224 -4.53195,3.20236 -6.53876,5.12817 -1.23757,1.00799 -2.66099,1.74082 -4.13944,2.33339 0.23133,3.65628 0.37028,7.43523 -0.30321,11.02098 -1.42515,4.12636 -5.37285,6.57635 -7.26383,10.42772 -2.21442,3.9273 -3.26948,8.85983 -1.81925,13.23571 1.21499,2.39793 3.91918,3.42662 6.42011,3.91534 1.1221,0.47965 2.15952,-0.10101 2.96618,-0.89644 0.68423,0.022 1.03745,0.11402 1.14691,0.25048 0.0215,0.0302 0.0398,0.0707 0.0396,0.10544 -0.001,0.0176 -0.007,0.0472 -0.0134,0.0659 -0.0927,0.24166 -0.59841,0.57224 -1.25239,0.94917 -1.38041,0.5286 -0.47176,2.19183 -0.6196,3.29575 0.0806,1.07535 0.1324,4.35274 0.11858,5.43139 1.14334,-0.55783 3.21912,0.27224 4.45585,-0.0264 -1.12308,-8.57282 -2.36995,-20.66765 -3.69124,-29.21348 0.1336,-0.32725 0.25231,-0.48041 0.35594,-0.51413 0.001,-4.2e-4 0.0107,3.7e-4 0.0134,0 0.001,-3e-4 0.0107,2.3e-4 0.0134,0 0.001,-7e-5 0.0107,10e-6 0.0134,0 0.001,6e-5 0.0121,-1.4e-4 0.0134,0 0.0139,0.003 0.0393,0.007 0.0527,0.0134 0.009,0.005 0.0299,0.0184 0.0396,0.0263 0.26882,0.24627 0.41234,1.36 0.46141,1.88517 1.60933,10.70627 3.20441,21.41867 4.03399,32.2192 0.41808,5.34792 1.18619,10.66401 2.42567,15.88548 1.07118,4.97697 2.135,9.99969 2.0038,15.12087 0.13576,7.45356 0.56907,14.92318 0.17138,22.3715 -0.75508,5.81073 -1.96439,11.55052 -3.03208,17.30925 6.18289,-0.83128 12.45691,-0.66587 18.68028,-0.98872 1.2402,-0.0427 2.47924,-0.0896 3.71759,-0.17138 -1.44158,-11.74414 -2.94255,-23.48907 -4.81178,-35.17218 -1.34717,-6.09509 -2.69711,-12.21282 -3.51986,-18.40342 0.15767,-5.50853 1.30809,-10.9945 2.64977,-16.29416 0.96377,-2.8497 0.71454,-5.96877 1.06784,-8.93806 0.26684,-5.07683 0.76133,-10.16985 0.56686,-15.25271 -1.27217,-5.8537 -3.55138,-11.47206 -5.31275,-17.20378 1.20349,-1.16197 1.28504,0.0948 1.58197,1.10738 1.55398,4.89831 3.93271,9.59888 4.96998,14.61991 0.13186,6.93939 -0.57306,13.87066 -1.02827,20.78956 -0.52425,1.49486 -0.0207,2.03764 1.51604,1.66104 6.59317,-0.10825 13.18641,-0.25925 19.77447,-0.54049 2.73529,-6.52197 5.8944,-12.88003 8.25254,-19.55036 2.02266,-6.61249 4.23797,-13.19357 5.8005,-19.91948 0.76965,-3.6972 1.70103,-7.39692 1.91154,-11.17915 1.19135,-0.31723 0.30521,1.34246 0.39549,1.96426 -0.98564,5.98341 -2.64947,11.80916 -4.21856,17.62564 -0.56207,1.4342 0.84594,2.64268 1.25238,3.92852 2.82898,5.54991 5.8926,11.01608 9.28082,16.21507 2.12819,4.17523 0.96939,9.38311 1.6215,13.96076 0.69607,6.11118 0.5262,12.82032 0.52732,18.95712 -0.12461,9.16556 -0.0979,17.52749 -0.10543,26.69552 3.57633,0.11536 7.1419,-0.40177 10.71775,-0.26365 -1.13786,-4.97831 -2.66802,-9.99229 -2.22792,-15.16042 0.19028,-15.06885 0.78428,-30.12646 1.50286,-45.17806 -0.0569,-1.83494 0.58127,-3.84794 -0.5405,-5.43139 -4.22225,-10.285 -8.32688,-20.62372 -12.26017,-31.01954 -0.80497,-3.22151 -1.79359,-6.47369 -4.21855,-8.84577 -2.90937,-2.97556 -5.76591,-6.262 -9.74222,-7.80432 -4.43575,-2.41092 -9.5334,-3.50632 -14.03987,-5.82687 -0.2524,-0.0879 -0.49514,-0.48115 -0.76461,-0.46141 z m 15.55591,84.91155 -0.15819,0.0263 c -9.68867,2.16821 -19.49621,3.76119 -29.29257,5.33911 -1.27581,0.17367 -2.56207,0.2477 -3.84942,0.22411 2.63036,17.90774 6.18477,35.67583 8.51619,53.62834 -0.67716,0.78978 -0.88277,2.46542 -1.81925,2.76842 -1.36173,-0.49568 -1.04687,0.93423 -1.19964,1.84563 0.0947,0.90085 -0.72724,2.73574 -0.0923,3.00572 3.55216,-1.02794 7.32667,-1.40703 10.57274,-3.22983 6.53196,-2.81335 13.22692,-5.35852 19.70855,-8.17345 2.65037,-1.37534 5.47501,-2.64195 7.52748,-4.87771 1.94245,-1.47357 3.43787,-3.30967 4.62722,-5.4182 0.48619,-0.87433 1.55215,-1.43506 2.12247,-2.0038 -0.4815,-1.93657 -0.008,-4.18276 -1.06782,-5.91917 -0.59866,-0.22386 -2.22013,0.34826 -2.61023,-0.0264 -0.004,-0.004 -0.009,-0.009 -0.0134,-0.0134 -0.001,-0.003 -0.0121,-0.0107 -0.0134,-0.0134 -0.004,-0.007 -0.009,-0.0197 -0.0134,-0.0264 -0.001,-0.003 -0.0121,-0.0107 -0.0134,-0.0134 -0.001,-0.003 0.001,-0.0107 0,-0.0134 -8.3e-4,-0.003 -0.0121,-0.0107 -0.0134,-0.0134 -0.001,-0.005 0.001,-0.0212 0,-0.0264 -8.5e-4,-0.003 -0.0121,-0.0107 -0.0134,-0.0134 -0.001,-0.005 8.5e-4,-0.0207 0,-0.0264 -8.4e-4,-0.005 4.2e-4,-0.0203 0,-0.0264 -0.004,-0.0588 0.004,-0.13159 0.0264,-0.21092 0.6034,-2.93597 0.99965,-5.92377 1.30512,-8.89851 -2.04211,-5.06655 -5.10243,-9.65973 -7.46157,-14.59356 -2.26004,-4.43228 -4.54346,-8.85562 -6.77604,-13.30162 z m -48.26287,10.08498 -0.18456,0.0923 -0.0659,0.0396 c -1.67058,0.98812 -3.56333,1.70397 -5.18091,2.63659 -0.921,5.47535 0.28277,11.09817 -0.94917,16.54464 -0.68596,4.28203 -1.64852,8.472 -2.99254,12.57654 -1.96727,7.93821 -3.58263,16.00809 -5.03589,24.07212 2.27744,2.75156 6.35629,1.84926 9.37309,3.12437 1.3145,0.98665 1.04803,-0.56852 1.3183,-1.42376 0.52197,-1.92641 2.02445,-3.4454 2.74205,-5.31274 -0.67051,0.0971 -1.64811,0.48289 -1.97745,0.25047 -0.15517,-0.12207 -0.1598,-0.40718 0.11859,-0.94917 1.77192,-7.63633 4.05115,-15.26825 4.04718,-23.17567 0.17197,-6.91632 0.48516,-13.84963 0.19773,-20.76318 -0.31919,-2.59583 -0.87277,-5.15457 -1.41057,-7.71205 z"
       id="path1383"
       inkscape:connector-curvature="0" />
    <path
       style="fill:#990000;fill-opacity:1;fill-rule:evenodd;stroke:none"
       d="m 179.79848,715.87066 c 0,0 -3.06674,-2.9738 -5.0183,-2.78793 -1.95155,0.18585 -2.78229,1.19682 -3.20612,2.04447 -0.37172,0.74346 -0.51112,2.13743 0.0464,1.95157 0.5576,-0.18586 1.7657,0.74344 1.95156,1.67276 0.18586,0.92932 0.65051,1.85862 1.39397,2.23036 0.74345,0.37172 3.90311,0.37172 4.36776,-1.02225 0.55759,-0.46466 0.83639,-1.85863 0.83639,-2.9738 0,-1.11518 -0.2788,-1.2081 -0.37172,-1.11518 z"
       id="path3176"
       sodipodi:nodetypes="cssssscsc"
       inkscape:connector-curvature="0" />
    <path
       style="fill:#663822;fill-opacity:0.75;fill-rule:evenodd;stroke:none"
       d="m 180.07727,716.61411 c 0.18586,0.65052 -1.76569,1.7657 -2.13743,1.85862 -0.37172,0.093 -4.27483,0.37173 -4.73948,-0.18585 -0.46465,-0.55759 -0.93672,-0.62336 -0.65052,-1.67277 0.27879,-1.02224 3.53138,-1.85862 4.92535,-1.85862 1.66967,1.02223 2.41621,1.2081 2.60208,1.85862 z"
       id="path3174"
       sodipodi:nodetypes="cssscs"
       inkscape:connector-curvature="0" />
    <path
       style="fill:#990000;fill-opacity:1;fill-rule:nonzero;stroke:none;display:inline"
       d="m 268.79217,1004.3852 c -1.32194,1.3158 -2.82388,2.5763 -3.08479,4.5415 -0.63589,2.26 -0.45948,4.7505 0.62772,6.8616 0.53867,1.7192 1.75579,3.106 2.5889,4.6538 1.28211,5.6403 1.45671,11.5556 1.81708,17.3258 0.20613,0.7468 0.37624,-0.6179 0.71405,-0.8207 1.00714,-1.1349 2.47445,-2.1627 2.35733,-3.914 0.65095,-5.636 0.4386,-11.3569 1.2548,-16.9679 1.30733,-1.2789 2.04293,-3.0751 1.67425,-4.9568 -0.1045,-2.445 -1.59492,-4.6646 -3.32212,-6.2618 -0.94075,-0.8584 -2.12007,-0.023 -3.2026,-0.4144 -0.44926,0.031 -1.03643,-0.2251 -1.42462,-0.047 z m -122.95761,4.8909 c -1.13234,2.8617 -4.65012,4.3209 -5.12191,7.575 -0.30192,1.3182 -0.54927,2.7596 0.31013,3.9206 1.23293,2.083 2.32429,4.2616 2.35575,6.7337 0.4928,4.6201 0.41926,9.2952 0.7391,13.9114 0.24203,0.2706 0.25943,-1.0087 0.91277,-0.752 0.85383,0.1073 2.65754,0.3661 2.53114,-0.9492 -0.14431,-4.6437 0.84235,-9.3059 1.94632,-13.7672 0.48311,-1.7288 1.6876,-3.2124 1.87605,-5.0017 0.48138,-2.9453 0.93442,-6.5323 -1.43704,-8.791 -1.15181,-1.2406 -2.6358,-2.1028 -4.00685,-3.1037 l -0.0897,0.1909 -0.0157,0.034 z m 119.41139,10.5991 c -0.85164,1.7414 -0.98194,3.9133 -2.79441,5.0145 -2.34641,1.6511 -5.54729,1.4978 -8.06836,0.3379 -0.56079,-0.014 -2.15603,-0.7828 -2.03018,0.1314 0.45325,2.4221 1.70748,4.9744 4.20536,5.7346 3.15872,1.0526 6.35057,2.2315 9.70268,2.1356 1.12308,-0.07 2.23808,-0.2389 3.36166,-0.3033 0.20219,-4.0014 -0.16408,-8.3092 -2.74206,-11.5351 -0.44995,-0.2637 -1.37566,-2.292 -1.63469,-1.5159 z m -126.70157,3.4013 c -0.93644,1.684 -2.34414,3.0015 -3.3385,4.6705 -1.64126,2.0872 -4.13903,3.5765 -6.61465,4.5047 -1.30023,0.2145 -2.61326,-0.076 -3.88897,-0.3163 0.18074,1.2272 0.1968,2.7369 1.56877,3.2035 2.71412,1.4141 5.80048,2.1319 8.72713,2.9793 1.65484,0.5522 3.40407,0.342 5.06226,0.092 0.82253,-0.8627 1.8478,-1.6703 2.54431,-2.5705 -0.44986,-3.3948 -0.60715,-6.9711 -1.99063,-10.1246 -0.54652,-0.9669 -1.2368,-1.8378 -1.91153,-2.7157 l -0.10463,0.1831 -0.0535,0.094 z"
       id="path1345"
       inkscape:connector-curvature="0" />
    <path
       style="fill:#ffffff;fill-opacity:0.75;fill-rule:evenodd;stroke:none"
       d="m 179.51968,698.86425 c 0,0 -3.99604,-1.02224 -4.55363,-0.65052 -0.55759,0.37172 -1.85862,0.92931 -1.95156,1.67276 -0.093,0.74345 -0.093,1.11518 -0.093,1.11518 0,0 2.60208,0.65052 2.97381,0.46465 0.37172,-0.18586 4.08897,-2.13742 3.62431,-2.60207 z"
       id="path2297"
       inkscape:connector-curvature="0" />
    <path
       style="fill:#ffffff;fill-opacity:1;fill-rule:evenodd;stroke:none"
       d="m 172.92156,715.77774 c 0,0 0.093,0.55758 0.46467,0.9293 0.37172,0.37173 2.50914,0.093 3.06672,-0.18586 0.55759,-0.27879 2.23035,-0.83638 2.23035,-0.83638 l -1.67276,-1.2081 c 0,0 -3.06673,0.83637 -4.08898,1.30104 z"
       id="path3172"
       inkscape:connector-curvature="0" />
    <path
       style="fill:#000000;fill-opacity:0.18823529;fill-rule:evenodd;stroke:none;display:inline;filter:url(#filter3187-0)"
       d="m 432.06645,553.51574 c 0,0 37.39679,-16.695 41.40359,-16.695 -26.71199,22.7052 2.00339,106.1802 7.34579,150.9228 -6.678,-6.678 -15.35939,-33.39 -20.70179,-48.7494 -5.3424,-15.3594 -27.37979,-73.458 -28.04759,-85.4784 z"
       id="path4928"
       sodipodi:nodetypes="cccsc"
       inkscape:connector-curvature="0"
       transform="matrix(0.42185519,0,0,0.42185519,32.223688,631.66299)" />
    <path
       style="fill:#000000;fill-opacity:0.18823529;fill-rule:evenodd;stroke:none;display:inline;filter:url(#filter3191-6)"
       d="m 287.8626,721.50714 c 0,0 -19.31546,124.6158 -22.43085,137.7005 -3.1154,13.0847 -13.08467,28.6616 -22.43086,27.4155 -9.34618,-1.2462 8.72311,-34.2694 10.59235,-43.6156 1.86924,-9.3462 18.69238,-109.6619 34.26936,-121.5004 z"
       id="path6676"
       inkscape:connector-curvature="0"
       transform="matrix(0.42185519,0,0,0.42185519,32.223688,631.66299)" />
    <path
       style="fill:#000000;fill-opacity:0.09411765;fill-rule:evenodd;stroke:none;display:inline"
       d="m 130.0036,1036.7058 c 0,0 8.44,-7.8822 8.93686,-12.3539 0.26285,-2.3657 0.26285,-6.3084 0.26285,-6.3084 0,0 11.03966,-1.5771 12.87961,0.7885 -0.50933,3.4334 -2.89134,5.7827 -2.89134,9.4626 0,3.6799 -1.83995,11.5654 -1.5771,12.6168 0.26285,1.0514 -4.46843,1.3142 -4.46843,1.3142 0,0 0,-2.8913 0.26285,-4.2056 0.26285,-1.3142 -1.0514,1.0514 -3.94274,1.3143 -2.89134,0.2628 -8.67403,0.2628 -9.46256,-2.6285 z"
       id="path7551"
       sodipodi:nodetypes="csccsscssc"
       inkscape:connector-curvature="0" />
    <path
       style="fill:#000000;fill-opacity:0.09411765;fill-rule:evenodd;stroke:none;display:inline"
       d="m 257.2226,1032.2374 c 0,0 5.51984,-3.6799 6.57123,-9.9883 1.0514,-6.3084 0.78855,-6.8341 0.78855,-6.8341 0,0 12.87961,-6.0455 12.09106,-1.3143 -0.78855,4.7313 -2.62848,5.7827 -2.10278,9.7255 0.5257,3.9427 -0.5257,12.3539 -1.83995,13.6682 -1.31424,1.3142 -2.62849,1.3142 -2.62849,1.3142 0,0 1.31425,-5.257 0.26285,-4.7313 -1.0514,0.5257 -9.46258,-0.2628 -13.14247,-1.8399 z"
       id="path8426"
       inkscape:connector-curvature="0" />
    <path
       style="fill:#000000;fill-opacity:0.18823529;fill-rule:evenodd;stroke:none;display:inline;filter:url(#filter3199-7)"
       d="m 492.23258,273.51316 c 0,0 34.26936,51.71558 34.26936,72.90027 0,21.18469 -1.24616,133.96201 -6.85387,137.07741 -5.60772,3.1154 -8.72311,1.2462 -8.72311,1.2462 0,0 4.36155,-95.95422 4.98463,-104.05425 0.62308,-8.10003 -1.86924,-33.64628 -6.23079,-38.63091 -4.36156,-4.98464 -24.92317,-34.26936 -24.92317,-39.87707 0,-5.60772 4.36155,-23.67701 7.47695,-28.66165 z"
       id="path10176"
       sodipodi:nodetypes="csscsssc"
       inkscape:connector-curvature="0"
       transform="matrix(0.42185519,0,0,0.42185519,32.223688,631.66299)" />
    <path
       style="fill:#000000;fill-opacity:0.18823529;fill-rule:evenodd;stroke:none;display:inline;filter:url(#filter3203-0)"
       d="m 355.15515,355.75962 c 0,0 16.20006,38.00783 19.93854,52.96173 3.73847,14.95389 6.23079,61.06179 8.10003,73.52339 1.86924,12.4615 -7.47695,59.1925 -6.85387,61.6848 0.62308,2.4923 -9.96927,2.4923 -16.20006,2.4923 1.86924,-3.7385 8.72311,-52.9617 8.72311,-66.6695 0,-13.7077 -1.24616,-38.0078 -6.2308,-67.2925 -4.98463,-29.28474 -6.85387,-44.86172 -7.47695,-56.70022 z"
       id="path10178"
       sodipodi:nodetypes="cssscssc"
       inkscape:connector-curvature="0"
       transform="matrix(0.42185519,0,0,0.42185519,32.223688,631.66299)" />
    <path
       style="fill:#000000;fill-opacity:0.18823529;fill-rule:evenodd;stroke:none;display:inline;filter:url(#filter3207-4)"
       d="m 336.46278,293.4517 c 0,0 -8.72311,11.8385 0,15.57698 8.72311,3.73847 12.46158,-2.49232 13.70774,1.24616 1.24616,3.73847 4.36155,29.9078 4.36155,29.9078 0,0 -1.86923,3.73847 -8.10003,4.36155 -6.23079,0.62308 -14.9539,1.24616 -18.06929,-2.49231 -3.1154,-3.73848 -8.72311,-16.20006 -6.85387,-23.05394 1.86923,-6.85387 9.96926,-20.56161 14.9539,-25.54624 z"
       id="path10180"
       inkscape:connector-curvature="0"
       transform="matrix(0.42185519,0,0,0.42185519,32.223688,631.66299)" />
    <path
       style="fill:#000000;fill-opacity:0.09411765;fill-rule:evenodd;stroke:none;display:inline"
       d="m 176.5279,690.27051 c -3.67989,0.61332 -5.78268,10.6892 -8.67403,16.0338 0,0 2.1028,-14.9824 2.6285,-16.82235 0.5257,-1.83994 2.89134,-6.04553 5.25698,-6.83408 2.36565,-0.78855 0.5257,6.04554 0.78855,7.62263 z"
       id="path10182"
       sodipodi:nodetypes="ccssc"
       inkscape:connector-curvature="0" />
    <path
       style="fill:#000000;fill-opacity:0.09411765;fill-rule:evenodd;stroke:none;display:inline"
       d="m 192.036,718.65822 c 0,0 6.30837,-7.62262 6.57122,-9.46257 0.26285,-1.83994 2.89136,-2.10279 2.89136,-5.25698 0,-3.15419 -0.5257,-5.25699 -0.5257,-5.25699 l 5.25698,1.83995 c 0,0 -1.5771,4.20559 -1.0514,5.51983 0.5257,1.31425 3.41704,5.51984 3.15419,6.30839 -0.26285,0.78853 -14.4567,6.04552 -16.29665,6.30837 z"
       id="path10184"
       inkscape:connector-curvature="0" />
    <path
       style="fill:#000000;fill-opacity:0.09411765;fill-rule:evenodd;stroke:none;display:inline"
       d="m 186.22192,694.61627 c 0,0 5.9494,9.15295 5.9494,10.29707 0,1.14411 1.60177,-8.6953 1.60177,-8.6953 l -7.55117,-1.60177 z"
       id="path11063"
       inkscape:connector-curvature="0" />
    <path
       style="fill:#000000;fill-opacity:0.18823529;fill-rule:evenodd;stroke:none;display:inline;filter:url(#filter3195-4)"
       d="m 366.67725,77.087491 c 34.35339,-1.62726 43.21294,21.15446 44.4786,36.342269 0,0 -16.81508,-18.442339 -27.66352,-22.239299 -10.84844,-3.79695 -17.35751,-2.71211 -18.44235,-5.42422 -1.08484,-2.71211 -3.25453,-5.96664 1.62727,-8.67875 z"
       id="path11938"
       sodipodi:nodetypes="ccssc"
       inkscape:connector-curvature="0"
       transform="matrix(0.42185519,0,0,0.42185519,32.223688,631.66299)" />
    <g
       id="g3177"
       style="fill:#ffffff;fill-opacity:0.25098039;display:inline;filter:url(#filter3183-5)"
       transform="matrix(0.42185519,0,0,0.42185519,32.223688,631.66299)">
      <path
         sodipodi:nodetypes="cssssssc"
         id="path12815"
         d="m 507.70696,243.61104 c 0,0 13.01812,32.54531 14.64539,36.88469 1.62727,4.33938 18.44235,46.10587 18.98477,48.81798 0.54242,2.71211 -1.08484,46.10586 -1.08484,53.15735 0,7.05148 -3.25454,55.86946 -2.71211,63.46337 0.54242,7.59391 -8.67876,-27.66352 -6.50907,-50.44524 2.16969,-22.78172 5.96665,-42.85134 0,-60.75126 -5.96664,-17.89992 -27.1211,-68.34517 -23.32414,-91.12689 z"
         style="fill:#ffffff;fill-opacity:0.25098039;fill-rule:evenodd;stroke:none"
         inkscape:connector-curvature="0" />
      <path
         sodipodi:nodetypes="csssssscsc"
         id="path13690"
         d="m 377.52569,206.72635 c 0,0 -5.42422,5.96663 -10.84844,11.93328 -5.42422,5.96664 -17.35751,9.22117 -18.44235,16.27265 -1.08484,7.05149 -10.84844,18.98477 -10.84844,21.15446 0,2.16969 21.15446,-10.84844 24.40899,-13.56055 3.25453,-2.71211 25.49383,-17.89992 31.46047,-20.06961 5.96664,-2.16969 31.46048,-15.73024 36.8847,-18.98477 5.42422,-3.25453 16.27266,-9.76359 16.27266,-9.76359 0,0 -11.93329,-8.13633 -13.56055,-8.13633 -1.62727,0 -47.73313,21.69688 -55.32704,21.15446 z"
         style="fill:#ffffff;fill-opacity:0.25098039;fill-rule:evenodd;stroke:none"
         inkscape:connector-curvature="0" />
      <path
         sodipodi:nodetypes="csssss"
         id="path14565"
         d="m 487.09492,257.17159 c -0.54242,5.42421 -26.03625,33.63016 -31.46047,41.76649 -5.42422,8.13633 -22.2393,29.8332 -22.2393,35.79985 0,5.96664 42.85134,-10.84845 42.85134,-5.96665 0,4.8818 19.52718,-74.3118 19.52718,-79.73602 0,-5.42422 -8.13633,2.71211 -8.67875,8.13633 z"
         style="fill:#ffffff;fill-opacity:0.25098039;fill-rule:evenodd;stroke:none"
         inkscape:connector-curvature="0" />
      <path
         sodipodi:nodetypes="cscc"
         id="path14567"
         d="m 402.4771,445.39201 c 0,0 14.10297,91.66931 14.64539,94.92384 0.54242,3.25453 -15.18782,5.42422 -21.15446,4.8818 11.93329,-10.30602 6.50906,-48.81798 6.50907,-99.80564 z"
         style="fill:#ffffff;fill-opacity:0.25098039;fill-rule:evenodd;stroke:none"
         inkscape:connector-curvature="0" />
    </g>
    <path
       style="fill:#ffffff;fill-opacity:0.1254902;fill-rule:evenodd;stroke:none;display:inline"
       d="m 146.63545,1008.3334 c 0,0 7.32235,5.4917 6.63588,7.7799 -0.68648,2.2883 -7.78,2.7459 -6.63588,-7.7799 z"
       id="path14569"
       inkscape:connector-curvature="0" />
    <path
       style="fill:#ffffff;fill-opacity:0.1254902;fill-rule:evenodd;stroke:none;display:inline"
       d="m 273.17486,1003.0704 c 0,0 4.34764,5.9494 4.34764,8.2376 0,2.2883 -12.35647,-3.6611 -4.34764,-8.2376 z"
       id="path14571"
       inkscape:connector-curvature="0" />
    <path
       style="fill:#ffffff;fill-opacity:0.1254902;fill-rule:evenodd;stroke:none;display:inline"
       d="m 186.45074,723.21922 c 0,0 10.98353,-10.06824 11.21236,-13.27176 0.22882,-3.20353 -12.36355,1.39179 -13.72942,5.03411 -1.37293,3.66117 -2.28823,5.26294 2.51706,8.23765 z"
       id="path14573"
       sodipodi:nodetypes="cssc"
       inkscape:connector-curvature="0" />
    <path
       style="fill:#000000;fill-opacity:1;fill-rule:nonzero;stroke:none;display:inline"
       d="m 190.66986,660.44084 c -2.28469,0.10476 -4.80982,1.15384 -6.61785,2.80797 -0.24913,1.67305 -0.60384,3.44419 1.46331,3.75715 l -3.70442,0.47458 c -2.1003,0.56525 -11.03696,2.93505 -13.32798,3.80988 -3.50485,1.27405 -6.39202,3.31564 -8.4503,6.36738 -1.36081,2.50034 -2.16761,5.25591 -2.96616,7.97569 -0.46812,2.47635 0.86784,5.12384 0.87007,7.63295 -0.49148,2.11766 -1.84742,3.86069 -1.46331,5.99825 0.51972,3.15246 1.12644,6.24097 2.28066,9.22808 0.97041,2.77081 3.03101,4.55359 5.16772,6.40693 1.6052,0.93067 4.26434,1.91519 7.17155,1.9379 -1.6e-4,0.11161 0.0506,0.1809 0.11858,0.22411 0.0317,0.0182 0.0802,0.031 0.11858,0.0396 0.14291,0.0278 0.32025,0.0107 0.42185,-0.0134 0.35221,0.62624 0.72341,1.23452 1.12055,1.83244 l -0.0396,0.0134 c 0.0574,0.94139 0.60069,1.59838 1.37102,2.0961 0.37938,0.23197 0.7676,0.37068 1.1733,0.44822 0.0121,0.0974 0.12569,1.65244 0.35593,2.10928 0.51367,0.93071 1.2294,1.57972 2.1752,2.03017 0.98538,0.39275 2.01061,0.53997 3.05845,0.55368 4e-5,0.001 2.8e-4,0.0134 0,0.0134 0.03,-0.008 0.0635,-0.004 0.0923,-0.0134 0.001,6e-5 0.0121,-1.3e-4 0.0134,0 4.2e-4,1e-4 0.0107,4e-5 0.0134,0 0.0723,3.4e-4 0.13844,8.5e-4 0.21093,0 0.003,4e-5 0.0121,6e-5 0.0134,0 0.14351,-3.7e-4 1.13838,0.13901 2.78161,-1.14691 0.89078,-0.35255 1.7684,-0.73286 2.57069,-1.23919 -1.04834,1.21343 -2.3463,1.93319 -3.70442,3.03207 -1.69122,1.25381 -3.759,2.95636 -4.74587,4.79861 -0.84114,2.17614 -4.46828,9.71342 -4.57449,10.24317 l 2.84752,-2.58386 c 1.49927,1.89741 0.78029,8.33072 0.40868,10.42774 -0.42795,2.08976 -3.46706,4.6077 -4.70633,6.28826 -1.3713,1.62598 -4.79322,9.04117 -4.89089,11.07371 -0.10959,2.12283 0.0301,4.19986 0.38231,6.28828 0.56619,2.47897 2.39751,3.48422 4.66678,4.179 1.04761,0.46793 3.95744,0.91172 4.36356,0.98872 -0.064,1.90113 -0.22816,7.33721 -0.23457,8.93577 0.50742,0.15095 1.227,-0.0296 1.96426,-0.25048 -0.0283,1.73438 -0.48943,2.15843 -0.27956,3.53533 0.38308,2.19382 0.65003,4.41325 0.88326,6.63103 0.19331,1.61959 0.49185,10.55878 0.65915,14.36945 -0.9859,0.5109 -1.79778,0.94913 -2.21474,1.19962 -0.95769,1.68978 1.01693,3.64707 0.81735,5.57642 -0.053,2.42639 -0.0437,4.86327 -0.0396,7.29017 0.13991,2.48156 -1.98717,12.49341 -2.90025,15.00223 -1.21447,2.43414 -1.75158,5.07529 -2.30702,7.71206 -0.24532,2.79385 -2.81849,12.25902 -3.51986,14.27713 -0.7886,1.71797 -2.74497,3.77236 -2.88707,5.61595 0.36378,0.52778 0.93458,0.9159 1.6215,1.19967 -0.79591,2.23925 -1.89685,4.993 -2.37293,6.56512 -0.81672,2.88895 -1.64094,5.75432 -1.97745,8.74029 -0.59979,4.96946 -1.22802,9.94887 -1.91153,14.90997 -0.37834,3.45368 -0.21839,7.50569 -0.48776,10.96823 -0.45618,2.99274 -4.83915,12.70545 -6.07736,14.8572 -0.88142,2.14623 -2.38629,7.98791 -2.72888,8.81943 0,0 -2.41499,3.49161 -3.37483,5.49728 -0.9703,2.75353 -1.9278,5.53267 -2.67615,8.35801 -1.02625,3.13231 -1.89602,6.32196 -2.84752,9.47858 -1.13694,3.20327 -3.25368,17.55525 -3.84942,21.36958 -0.4237,2.51876 -3.45322,12.69556 -4.32403,15.33184 -0.95465,2.45305 -1.98503,4.87309 -3.03207,7.29015 l -3.30894,1.6478 c 0.51529,0.8077 1.13719,1.4611 1.83244,2.0171 -0.67391,2.0568 -1.12761,4.1966 -1.58196,6.3146 -0.56669,3.1889 -3.01551,6.7672 -3.96807,9.8477 -0.37585,1.7539 -0.30638,6.279 -0.40868,8.5162 -3.58569,1.4081 -4.13057,2.6151 -2.97935,6.0773 1.66149,1.6555 4.10429,2.1773 6.28829,2.9003 1.88936,0.6959 3.8325,1.1558 5.81368,1.4896 2.89911,0.3263 5.73036,-0.06 8.17344,-1.2655 0.0575,0.8753 0.16127,3.3986 0.11858,3.7835 2.00382,-0.4614 4.20684,-0.2256 6.01144,-1.3842 -0.004,-2.5024 -0.0373,-4.9989 0,-7.5011 0.12556,-2.1443 0.73557,-3.9743 1.66106,-5.9192 0.96613,-2.3576 2.14476,-4.6528 2.87389,-7.0925 0.48979,-2.4485 0.77101,-4.8858 0.19773,-7.356 -0.60729,-2.2995 -1.32883,-4.4296 -3.38802,-5.84 -0.66242,-0.5213 -1.42119,-1.0498 -2.10926,-1.6084 -0.26948,-3.4505 3.72234,-10.68673 5.23363,-13.06426 2.50958,-3.52738 11.91269,-19.4836 14.27717,-23.22846 3.35643,-5.89377 7.99803,-26.69055 9.50492,-30.86132 0.2319,-0.39254 7.8334,-14.46975 9.08306,-16.65011 2.42934,-4.84986 14.02867,-25.83839 15.55591,-28.17201 1.26929,-2.24413 9.35728,-17.92323 12.73476,-25.65406 0.90969,3.86631 2.7493,10.90526 3.38802,13.02479 1.31504,4.86938 8.88294,22.33634 10.45411,26.16818 1.19966,3.33615 2.43118,5.85429 3.37483,9.26764 0.87785,3.53676 4.04901,6.75016 5.82688,9.9004 1.0725,1.7364 0.637,3.56902 1.22601,5.47096 0,0 2.02888,4.25444 3.09801,6.48602 1.97043,4.30276 10.41312,32.45614 11.27145,35.5281 0.83525,2.48721 3.67976,11.88658 3.90216,14.17168 0.22484,1.79145 1.09619,7.90535 1.41057,10.6519 -0.79783,-0.321 -1.40181,-0.6475 -1.66106,-0.94919 l -2.97934,2.17514 c 0.39987,0.3744 1.65723,0.8624 3.1771,1.3447 0.3624,2.5868 0.98504,9.82 0.8437,11.667 -0.12166,2.1519 -2.44828,6.6219 -3.67805,9.1884 -1.24719,0.1839 -2.51977,0.8023 -4.31083,1.8457 -0.72611,1.7748 0.0279,3.4919 0.76461,5.1545 0.82156,1.8643 2.10874,2.5697 3.90216,3.2958 1.9354,0.6432 3.88378,1.2592 5.89279,1.6214 1.73945,0.5474 7.16406,0.4094 9.28081,0.3297 -0.003,1.2503 -0.0249,4.5793 -0.0264,4.6931 1.26997,-0.4746 2.73911,-0.3516 3.80987,-1.4238 -0.0675,-0.6671 1.70456,-3.727 1.58195,-4.3899 -0.069,-2.3887 -0.0121,-4.786 0.32959,-7.1583 0.0649,-2.3227 -0.16981,-4.7508 0.71187,-6.9475 0.77804,-1.8633 1.86186,-3.6489 2.29383,-5.6028 0.004,-2.1472 0.10276,-4.3218 -0.71187,-6.3541 -0.80191,-1.7246 -1.75861,-3.3754 -2.66296,-5.0491 10e-6,0 0.17462,-0.655 0.50095,-0.8569 -0.42925,-4e-4 -0.92234,0.013 -1.45012,0.027 l 0.0264,-0.013 c -0.31133,-1.9598 -0.2493,-23.38975 -0.47458,-26.12865 -0.28839,-3.08224 -2.76583,-28.71842 -3.42758,-31.62598 -1.07951,-3.47115 -2.59468,-6.74483 -4.13945,-10.03222 -2.3124,-5.23083 -8.43566,-17.99314 -9.63675,-19.77445 -1.07635,-3.27698 0.39593,-8.66398 0.21092,-12.06246 -0.27737,-2.84933 3.30218,-36.75894 -1.22601,-49.0143 3.0973,-0.25391 3.75414,-2.02178 4.64041,-5.81366 0.63265,-0.75353 1.38513,-2.20428 1.5424,-2.95299 1.402,-1.0203 2.62097,-1.89552 1.37103,-3.889 -0.79388,-1.46906 -1.55758,-2.31881 -2.2411,-3.5594 0.1049,-0.0287 1.89873,-0.75331 2.01699,-0.80414 4.3e-4,-4.3e-4 0.0107,-0.0107 0.0134,-0.0134 -1.3e-4,0 3e-5,-0.0121 0,-0.0134 0.6801,-0.6972 0.71851,-1.81014 -0.18456,-3.37483 0,0 -2.41476,-8.68377 -2.33339,-11.36374 -0.0107,-4.29338 -0.0688,-8.58939 0.11858,-12.87979 0.27609,-4.02105 0.53447,-8.038 0.72506,-12.06239 0.005,-3.48473 -3.7e-4,-6.96936 0,-10.4541 0.009,-3.61177 -0.0264,-7.22829 0.3823,-10.82323 0.0602,-1.68955 0.2881,-3.52652 -0.0923,-5.14135 -1.11473,-1.90642 -4.59044,-9.72495 -5.26001,-11.70648 -1.00102,-3.00398 -1.92787,-6.03101 -2.86071,-9.05671 -0.88664,-3.0076 -1.87607,-5.99865 -3.03208,-8.91168 -1.10149,-2.81222 -2.27833,-5.55922 -4.07354,-8.01526 -1.29194,-2.13741 -2.61345,-4.25647 -4.4163,-6.01143 -1.3498,-1.52164 -2.78095,-2.93101 -4.53494,-3.99445 -2.05544,-1.06929 -4.14198,-2.09016 -6.22237,-3.11118 -1.95484,-0.84666 -8.87603,-3.6918 -10.25636,-4.91725 0.36944,-0.24299 0.75727,-0.76472 0.80417,-0.83052 0,-0.004 -1.68208,-0.99962 -3.29575,-2.017 -0.78566,-0.79755 -2.14092,-1.89661 -3.12435,-2.3993 l -4.08673,2.21475 c -0.40139,0.16227 -0.88671,0.35595 -1.43695,0.56686 -0.67069,-0.88258 -2.29249,-2.74411 -2.5575,-3.45394 -0.68182,-3.71233 -0.0433,-5.18775 0.21094,-6.72332 2.10998,0.8161 4.41282,0.9751 5.85323,1.1601 l 0.0396,-0.40867 c -1.27133,-0.13597 -2.51411,-0.63006 -3.73079,-1.22601 -0.11683,-2.2401 0.26762,-6.85698 0.0659,-8.72713 -0.35132,-2.3423 -0.48476,-4.69862 -1.01509,-7.01335 -0.39222,-1.77022 -0.82842,-3.5437 -1.62151,-5.1809 0.24358,-1.98718 0.96108,-6.01566 0.79097,-6.74969 -0.003,-0.0107 -0.009,-0.0304 -0.0134,-0.0396 4e-5,-0.001 -1.3e-4,-0.0121 0,-0.0134 -0.66164,-2.26342 -1.39943,-4.56995 -3.11118,-6.2751 -1.76597,-2.11212 -2.91543,-4.76089 -5.16773,-6.36738 -2.04747,-0.54596 -4.22611,-0.18505 -6.35419,-0.44822 -0.62661,-0.15252 -1.30442,-0.21665 -2.00382,-0.18457 z m -2.78161,1.50285 c 1.91345,-0.0613 7.90319,0.13813 9.68949,0.46141 4.80306,1.50139 6.78057,7.96235 7.43519,10.17725 0.27137,0.59273 -0.4205,3.46941 -0.50095,4.60087 -0.48539,-0.69063 -1.01003,-1.36131 -1.58195,-1.99064 -2.53538,-2.69284 -5.63665,-4.12534 -8.95125,-5.77414 -1.71978,-0.36433 -5.17175,-0.59336 -6.90788,-1.56877 2.7e-4,-8.4e-4 -1.8e-4,-0.0121 0,-0.0134 0.008,-0.092 -0.1006,-0.57073 -0.15819,-0.89644 -2.20001,-1.69767 -0.36617,-3.89335 0.42186,-4.94361 0.0825,-0.0193 0.28033,-0.044 0.55368,-0.0527 z m -0.80416,6.86834 c 1.36055,0.56 2.96973,0.79335 4.4163,1.09418 3.35636,1.45885 8.26109,3.80376 10.69139,6.4992 1.32285,1.46627 4.69385,8.64677 5.115,10.5332 0.52178,2.30145 0.0838,5.43467 0.42185,7.76477 0.19557,1.68368 -0.31343,3.98587 -0.3032,5.86642 -0.64136,-0.33567 -1.2812,-0.65944 -1.91155,-0.93598 -3.06566,-1.21162 -6.52445,-1.02329 -9.34671,-2.75524 -3.27611,-1.38416 -6.42912,-2.15246 -9.87406,-3.00572 -2.76797,-0.69268 -6.41594,-1.44663 -8.41073,-3.58577 -0.6853,-1.09627 -0.29762,-4.42046 -0.26367,-6.20918 0,0 2.63164,-6.2445 3.8758,-8.17345 1.09533,-1.95071 2.13505,-3.9387 3.67805,-5.58958 0.70491,-0.63179 1.58736,-1.02792 1.91153,-1.50285 z m -2.39929,0.31638 c 0.0255,-0.004 0.0539,0.004 0.0791,0 -2.71591,2.57438 -4.24676,5.55263 -6.57831,8.25254 -0.62641,0.9457 -1.36945,2.64518 -1.97744,4.21856 l -2.90025,1.7797 c -1.03902,1.40785 -1.46175,2.15738 -2.49158,3.58577 -1.52239,2.4667 -1.57207,4.70955 -2.05655,7.52748 -0.349,2.52739 -0.86376,5.64686 -1.43695,8.13389 -0.34529,2.11529 0.0422,4.95661 0.0527,7.09245 -0.001,1.45879 -0.52758,1.72366 -0.6855,2.68932 -0.86798,-3.08381 -2.03623,-7.56428 -2.2543,-10.49364 -0.001,-2.51122 0.17508,-7.12955 0.80416,-9.58403 0.81817,-3.14397 0.89449,-4.58911 1.16011,-7.83069 l -0.81735,0.44822 c -0.18641,3.20207 -1.16631,6.33845 -2.01699,9.42583 -0.6262,2.48834 -0.48453,5.06473 -0.47459,7.60658 0.25172,3.28922 1.62231,7.77754 2.62341,10.84959 0,0 0.60419,1.02949 0.89644,1.22601 0.005,0.004 0.0208,0.0107 0.0263,0.0134 0.005,0.003 0.0212,0.0107 0.0264,0.0134 0.003,8.4e-4 0.0107,-4.3e-4 0.0134,0 0.003,2.7e-4 0.0107,-5e-5 0.0134,0 0.003,-1.7e-4 0.0107,3.9e-4 0.0134,0 0.005,-0.001 0.0212,-0.009 0.0264,-0.0134 0.004,-0.003 0.0107,-0.009 0.0134,-0.0134 0.0144,-0.0256 0.026,-0.0722 0.0264,-0.13186 l 1.66106,-0.6855 c -1.9e-4,-0.003 -2e-5,-0.0107 0,-0.0134 2.1e-4,-0.003 -4.1e-4,-0.0107 0,-0.0134 0.001,-0.007 0.009,-0.0203 0.0134,-0.0264 0.001,-0.003 0.0121,-0.0107 0.0134,-0.0134 0.004,-0.004 0.009,-0.009 0.0134,-0.0134 0.003,-0.001 0.0107,-0.0121 0.0134,-0.0134 0.005,-0.003 0.0205,-0.0107 0.0264,-0.0134 0.009,-0.004 0.0288,-0.009 0.0396,-0.0134 0.3921,-0.11737 1.63201,0.15211 2.28065,1.42375 0.17755,0.3481 0.0245,1.02125 0.0396,1.52923 -1.50206,-0.77692 -3.69723,-0.71685 -5.15455,-1.52923 -2.096,-1.80791 -4.82989,-4.01056 -5.78733,-6.72331 -1.13289,-2.96404 -2.01139,-6.24732 -2.51794,-9.37309 -0.33625,-2.10245 1.31529,-3.65623 1.68742,-5.74777 -0.008,-2.4822 -0.73626,-5.78158 -0.23729,-8.22618 0.80321,-2.69352 1.99585,-4.85197 3.4012,-7.30337 0.93412,-1.29734 2.50295,-2.96248 3.38803,-3.62532 2.26139,-0.93804 4.92752,-2.35083 7.2637,-3.07149 1.77289,-0.54242 8.52399,-0.90072 11.7724,-1.34466 z m -9.10944,14.17171 -0.76462,1.63469 c 0.19551,1.55649 0.12636,4.25129 0.936,5.5632 2.05015,2.1871 4.8569,3.19917 7.68567,3.95491 0.50986,0.12649 1.02015,0.255 1.52923,0.3823 0.58763,1.28423 1.55301,3.23564 2.20155,4.04717 1.26581,1.66536 2.31021,2.11942 2.92662,4.09991 0.23827,0.65938 0.67199,2.19081 1.19965,3.38802 0.0121,0.61523 0.0665,1.23397 0.18457,1.84561 l 0.64596,-0.21092 c -0.20436,-1.1047 0.97739,-2.99003 1.05464,-4.11309 0.14288,-2.07908 0.46999,-4.14279 0.69869,-6.20919 1.69089,0.92963 3.52056,1.21617 5.36547,1.56879 0.33692,1.9089 0.0956,4.7852 -0.14501,6.56512 -1.41205,1.45742 -2.92808,1.71085 -4.38992,2.57067 -1.4e-4,0.001 0.13105,0.40166 0.23728,0.58005 0.0799,0.001 1.28545,-0.11791 1.88517,-0.25048 -0.30712,1.04168 -0.98479,2.01815 -1.41058,3.03209 -0.77873,2.52304 -2.3991,4.49096 -4.179,6.38056 -1.83028,2.08693 -4.10772,3.67376 -6.14327,5.52368 -0.99223,0.68755 -1.85164,1.23344 -2.54432,1.64786 -0.001,-7e-5 -0.0121,2e-5 -0.0134,0 -0.003,0.003 -0.0107,0.0107 -0.0134,0.0134 -0.001,-3e-5 -0.0121,7e-5 -0.0134,0 -0.004,0.003 -0.0219,0.0107 -0.0264,0.0134 -0.004,-1.6e-4 -0.0219,1.1e-4 -0.0264,0 -1.13722,0.008 -2.35822,0.37753 -3.42757,-0.0396 -0.92469,-0.4184 -1.81118,-0.63842 -2.30702,-1.5424 -0.21677,-0.44119 -0.27375,-1.50471 -0.39548,-2.17519 0.26755,0.009 0.53165,0.0138 0.80415,0.0134 1.57872,0.0899 2.4857,-0.94865 2.79479,-2.30702 0.13951,-0.86533 0.38302,-1.69289 0.63279,-2.53112 l 0.29002,-0.6196 c -0.82366,-0.2392 -2.02257,-1.2267 -2.68933,-2.01701 -0.83773,-0.52162 -1.62347,-0.86336 -2.68932,-1.05463 -0.55045,-0.11107 -2.60896,-0.92541 -3.65169,1.04146 -0.10638,0.15975 -0.18898,0.3533 -0.26366,0.56687 -0.20643,-0.33687 -0.10664,-0.36525 -0.44822,-0.73825 -0.47054,-0.59113 -0.87739,-1.21331 -1.22602,-1.88517 -0.42202,-0.37138 -1.32223,-0.55686 -1.46331,-0.56687 -0.001,3e-5 -0.0121,-1.2e-4 -0.0134,0 0.0406,-1.06714 0.15761,-2.10135 0.18456,-3.24301 l 1.0019,-0.46139 c 0.50821,-0.86134 0.80794,-2.60321 0.92282,-3.62532 -0.007,-0.007 -0.0186,-0.0201 -0.0264,-0.0264 -0.003,-0.003 -0.0107,-0.0107 -0.0134,-0.0134 -0.15466,-0.10772 -0.44753,-0.17373 -0.48778,-0.18457 l -0.50095,1.76652 c -0.0936,0.7828 -0.49588,1.44901 -0.89644,2.10927 -0.0354,-2.0443 -0.51864,-4.25683 -0.1582,-6.26191 0.5376,-2.49675 1.639,-5.21273 2.01699,-7.7384 0.46936,-2.78091 1.12887,-5.57165 2.70252,-7.96252 0.69683,-0.87457 1.70632,-1.64698 2.42567,-2.53114 z m 3.46711,10.79685 c -2.24878,0.21793 -5.93986,3.50449 -8.358,3.84943 l -0.80416,1.56877 c 1.57993,-0.95949 7.32227,-3.89595 8.26572,-3.28256 l 1.35785,-2.12245 c -0.14434,-0.0176 -0.30144,-0.0287 -0.46141,-0.0134 z m 8.05481,1.29193 c 1.76531,0.46944 3.50803,0.97892 5.22046,1.6215 -0.17299,1.6301 -0.5378,3.97598 -0.77781,5.86643 -0.60684,-1.81294 -1.45488,-3.47843 -2.58386,-5.04908 -0.6277,-0.78214 -1.37563,-1.55861 -1.85879,-2.43885 z m -11.21872,2.71569 c -1.5247,0.0719 -1.94514,0.48592 -2.9398,1.35785 -0.23667,0.62432 -0.39422,1.27351 -0.44822,1.95109 0,0 1.77905,0.30227 2.37293,0.29001 1.52814,-0.008 2.68472,-0.1446 3.99445,-1.12055 0.46029,-0.32552 1.61513,-1.34207 1.75334,-1.68742 -1.05752,-0.34002 -2.18845,-0.64191 -3.30894,-0.79098 -0.189,0.003 -1.105,-4e-5 -1.10736,0 -0.11201,0.001 -0.21475,-0.005 -0.3164,0 z m 0.52732,0.89644 c 0.0557,-8.4e-4 0.0981,0.0121 0.11858,0.0134 l -0.43504,0.22412 c -0.35561,0.44118 -0.52336,1.14323 -0.23729,1.66105 -0.62622,0.36795 -1.69397,-0.008 -2.3202,-0.0134 -10e-6,0 -0.25932,-1.17867 0.65914,-1.74015 0.32624,-0.0422 1.76952,-0.13712 2.21475,-0.14502 z m 21.38279,0.69871 -1.63469,0.83052 c 0.3216,0.78208 1.39299,0.95624 -0.26366,2.99253 l 0.98872,0.0923 c 0.40988,-0.70479 1.19181,-3.11708 0.90963,-3.91534 z m 4.36356,0.26365 2.93981,1.43695 c -0.13066,1.74813 -0.33655,6.31632 0.23729,7.93615 0.26155,0.69357 1.61053,2.42721 2.30702,3.37484 -2.31199,0.88229 -5.01325,1.92991 -6.53875,2.72888 -1.34007,0.51223 -3.96961,1.32284 -5.94552,2.04336 -0.92958,0.69024 -1.86034,0.87938 -2.4125,1.13374 0.63842,-0.58855 1.24505,-1.2128 1.81926,-1.87198 1.80157,-1.92454 3.35199,-3.96788 4.16581,-6.5124 0.30744,-0.79042 0.57627,-1.58737 0.75144,-2.3993 1.47481,-0.71947 2.63243,-1.83684 2.87388,-3.62532 0.19028,-1.54872 0.0423,-2.81909 -0.19774,-4.24492 z m -26.99873,8.54257 -0.52732,0.30321 c 0.84403,0.24523 0.95204,1.3278 0.34275,1.96426 -0.57629,0.0896 -1.61333,0.24539 -2.43885,0.0264 -0.58744,-0.0303 -1.61137,0.54534 -1.79288,0.65914 0.38088,-0.0714 1.36371,-0.15021 1.77971,-0.14501 1.73862,0.44463 2.23804,0.13227 3.75714,-0.93599 0.18077,-0.9211 -0.3755,-1.45836 -1.12055,-1.87199 z m 38.08561,2.10928 c 1.14844,0.55418 4.0397,1.81052 6.43329,3.30892 -1.20217,0.78265 -3.6094,2.30425 -6.01142,3.33529 -8.44828,4.72805 -11.84768,5.76392 -14.65947,6.89471 -3.81067,1.73703 -7.73757,3.75417 -11.11326,6.2619 l -10.58593,7.93616 c 0.70549,-2.29806 2.3093,-6.88891 4.21855,-8.25254 1.09084,-1.73411 2.43104,-3.2329 4.12628,-4.42948 1.78052,-1.39309 4.99009,-4.98482 5.68186,-6.02463 0.22456,-0.11751 17.98054,-6.05302 21.9101,-9.03033 z m -38.62611,3.11118 c 0.54608,-0.0258 1.15312,0.0174 1.55559,0.22411 0.0618,0.0317 0.11133,0.0724 0.145,0.11858 0.004,0.005 0.009,0.0204 0.0134,0.0264 0.0723,0.12207 0.0985,0.28509 0.18456,0.42186 0.007,0.0107 0.0188,0.0295 0.0264,0.0396 -0.17359,0.0227 -3.30019,0.63022 -4.38993,1.80607 -0.15466,0.1638 -0.28957,0.23004 -0.39548,0.23729 -0.007,2e-4 -0.0203,2.3e-4 -0.0264,0 -0.007,-4.3e-4 -0.0204,8.3e-4 -0.0263,0 -0.005,-0.001 -0.0208,-0.0121 -0.0264,-0.0134 -0.0107,-0.004 -0.0291,-0.008 -0.0396,-0.0134 -0.0382,-0.0197 -0.0769,-0.0554 -0.10544,-0.0923 -0.11911,-0.1613 -0.15685,-0.44615 -0.10543,-0.63278 l 0.56687,-0.90963 c 0.26695,-0.45926 0.56573,-0.53564 1.37103,-1.05464 0.092,-0.0144 0.63348,-0.12905 1.25238,-0.1582 z m 1.76651,1.10736 c 0.19892,-0.0148 0.36728,0.003 0.48778,0.0527 0.007,0.003 0.0204,0.0107 0.0263,0.0134 0.0121,0.007 0.0291,0.0193 0.0396,0.0263 0.0121,0.009 0.0287,0.029 0.0396,0.0396 0.26273,0.29834 0.52903,0.57482 0.81734,0.81735 -0.15513,0.0829 -1.46272,0.75397 -3.75714,0.87007 -0.20809,-0.14555 -0.71604,-0.35481 -0.67233,-0.80417 0.003,-0.0185 0.009,-0.0464 0.0134,-0.0659 0,0 1.93784,-0.8698 3.00572,-0.94919 z m 41.90869,0.89646 c 0.008,-0.004 0.0107,0.001 0.0134,0 1.7876,1.45398 9.06206,3.723 10.94187,4.52176 2.08546,0.98851 4.20165,1.9145 6.24873,2.97934 1.7393,1.01261 7.43411,6.36284 8.71394,8.47665 1.78337,2.437 2.07785,5.62192 3.1771,8.41075 1.13536,2.91209 11.23084,28.84522 12.33927,30.78225 0.13445,1.46065 -1.08624,23.9499 -1.08101,27.43376 -0.18737,4.01632 -0.54768,20.64104 -0.55368,24.94219 -0.081,2.66405 1.57957,9.16851 2.20156,11.74601 -2.76762,-0.12395 -7.35985,0.3949 -10.24318,0.27686 0.0465,-4.29752 0.1535,-13.26301 0.36913,-15.635 0.0602,-2.62341 0.67581,-24.50499 0.18456,-28.59388 -0.47837,-3.66716 -0.63955,-7.36411 -1.21283,-11.02096 -0.39471,-2.35338 -1.25939,-4.35084 -2.70251,-6.2751 -1.64068,-2.33771 -8.07052,-13.86159 -9.38629,-17.17742 -2e-5,-0.003 -8e-5,-0.0121 0,-0.0134 8e-5,-4.1e-4 4e-5,-0.0107 0,-0.0134 0.25662,-1.31043 0.57814,-2.64629 1.04146,-4.06037 0.95458,-3.06929 3.66043,-14.00023 3.55941,-16.58418 l -1.04147,0.0396 c 0.18963,2.55283 -2.43085,14.12851 -3.38802,17.17743 -1.49609,4.77821 -3.33,11.37419 -4.99634,16.0964 -2.14092,5.25515 -6.52428,15.10843 -7.50112,17.36198 -5.52194,0.30475 -19.24532,-0.55597 -20.98331,-0.53674 0.43107,-3.34507 0.36146,-5.60968 0.66835,-8.96819 0.17656,-3.97191 0.5505,-7.93882 0.43505,-11.9174 -0.0947,-2.86558 -4.93038,-13.71035 -5.55004,-16.87421 l -1.47649,0.76462 c 0.86485,3.12265 5.30667,15.14319 5.40501,17.98157 0.10691,3.96356 -0.68007,17.74892 -1.18248,21.21516 -1.07744,2.50331 -3.46883,15.56491 -3.14153,18.95334 0.32595,3.23741 2.78935,15.21079 3.42757,17.83659 0.56501,1.99816 4.29042,29.91202 4.85133,35.18533 -5.61257,0.33002 -19.08133,0.49838 -21.89692,1.09421 0.49849,-2.67735 2.45907,-12.46861 2.97936,-17.01923 0.45807,-3.42395 -0.18342,-23.06658 -0.27685,-26.19456 0.003,-1.50248 -0.57462,-4.84391 -1.25237,-8.26574 0.003,-0.004 0.0107,-0.0107 0.0134,-0.0134 0.001,4e-5 0.0121,-1.4e-4 0.0134,0 0.001,0 0.0107,-0.0107 0.0134,-0.0134 l -0.0527,-0.0134 c -0.0677,-0.34184 -1.68226,-8.01399 -1.92471,-9.32035 -0.83388,-4.35395 -1.8337,-18.55358 -2.30703,-21.56733 -0.42767,-3.25945 -2.78757,-20.88575 -3.30892,-22.67473 l -1.02828,0.76462 c 0.65317,1.77658 2.04928,19.20698 2.50477,22.4506 0.0951,0.65818 1.10184,4.58455 1.26704,6.13847 -1.2059,0.30551 -2.96492,0.0455 -3.53179,0.34527 0.0339,-1.55191 -0.71527,-5.80977 -0.74097,-7.51201 l 2.62341,-1.8588 c -0.68822,-0.10986 -1.37419,-0.23786 -2.04335,-0.3823 l -1.42377,1.04144 c -0.65944,0.0668 -1.31799,-0.009 -1.89835,-0.29001 -2.88627,-0.3916 -5.57501,-2.13397 -6.14326,-4.52177 -1.52023,-7.67174 2.59137,-13.9704 6.51239,-17.86293 1.24569,-1.73184 2.71918,-3.39286 3.07162,-5.56322 0.35228,-2.02501 0.40684,-7.78442 0.14502,-10.15088 2.30057,-0.9219 3.89515,-1.96382 5.7346,-3.84943 2.04044,-2.12402 6.24587,-4.26696 8.55574,-6.07736 7.26872,-4.25057 8.60254,-4.78843 11.33736,-6.09053 2.87457,-1.18501 13.42042,-6.84482 13.92123,-7.10563 z m -39.99715,0.39549 c 0.29479,0.20259 0.63449,0.43011 0.97553,0.59322 l 0.42186,0.0923 c -0.0241,0.17911 -0.0231,0.39811 -0.0134,0.64597 -0.61058,0.35297 -1.60328,0.8011 -2.45204,0.84371 -0.85711,-0.0456 -1.88037,-0.29723 -2.58386,-0.77779 -0.3356,-0.0138 -0.63612,0.009 -0.87008,0.0923 -0.19083,-0.31052 -0.35747,-0.63916 -0.52732,-0.94917 0.23121,0.18022 0.55133,0.23048 0.97554,0.27684 0.91266,0.0208 1.76113,-0.18281 2.66296,-0.29003 0.6955,-0.31841 1.33184,-0.5057 1.41058,-0.52731 z m 1.39739,1.59513 c 0.0173,0.50895 0.017,1.12949 -0.18456,1.83243 -0.62234,0.43478 -0.99064,0.87584 -1.6215,1.31831 -1.07768,0.41322 -2.11909,-0.0787 -3.01891,-0.60643 -0.16786,-0.10423 -0.29889,-0.2181 -0.39549,-0.34276 -0.21069,-0.27959 -0.27275,-0.62288 -0.29002,-1.01509 0.58314,0.19247 1.25844,0.21228 1.85879,0.25049 1.40713,0.0869 2.51097,-0.71054 3.65169,-1.43695 z m 38.96887,7.73841 -1.05463,0.9228 c 0.0235,2.70498 -2.47578,20.46428 -3.45394,23.59753 -0.89703,3.10171 -7.69962,17.17816 -8.41073,19.33943 l 1.63468,-0.79098 c 0.73006,-2.13265 6.87344,-12.67549 7.8175,-15.78003 0.944,-3.15062 1.69695,-6.36622 1.99063,-9.64993 0.39916,-3.15738 1.40729,-14.90926 1.47649,-17.63882 z m 19.8272,13.49936 -1.34466,0.32957 c 0.20571,3.26678 -3.92904,8.13969 -5.95871,10.44093 -3.3443,3.70919 -6.22311,7.32003 -9.6763,10.32226 -2.6397,3.101 -6.78281,12.27871 -7.17153,14.23762 l 1.30511,-0.52732 c 0.3916,-1.9391 0.82787,-3.87137 1.68742,-5.66869 1.83888,-3.57198 4.83535,-6.32121 7.38246,-9.39946 3.3242,-3.75286 6.23639,-7.7945 9.57084,-11.5351 2.09615,-2.41301 4.38345,-4.81027 4.20537,-8.19981 z m -2.3202,23.76891 c 1.89725,3.37047 7.66371,10.96996 9.18852,13.18297 1.41066,1.88117 3.39178,14.66172 3.90218,18.31115 0.47443,4.09284 -0.67416,27.53554 -0.73825,28.172 -2.56032,-5.31175 -8.04092,-15.51836 -9.12262,-17.07194 -1.54692,-2.12942 -1.7264,-5.21845 -4.21856,-6.1828 -0.3013,0.0188 -0.72009,0.0708 -1.2392,0.14501 -1.35983,-1.56435 -3.51642,-3.69339 -4.24492,-4.90407 -1.18043,-2.07757 -1.13656,-5.1809 -2.06972,-7.42201 0.83083,-2.37606 5.41469,-15.65314 7.64613,-21.01367 0.37978,-1.10676 0.66354,-2.17721 0.89644,-3.21664 z m -54.53923,24.73191 c 0.0433,-0.004 1.25166,11.01892 1.83369,14.26333 0.22155,1.23105 0.8892,4.19275 1.58196,7.39564 -0.87965,0.4032 -1.91089,0.90091 -2.93981,1.41055 -0.10168,-0.72887 -1.83777,-18.68052 -2.21474,-20.8818 0.49117,-1.91729 -0.43621,-1.95438 1.7389,-2.18772 z m 45.20568,1.21219 c 0.003,2e-5 0.71164,4.92042 1.66105,6.61785 0.9001,1.50308 1.82745,2.97865 2.80798,4.42947 -4.26405,0.7587 -18.39889,3.19065 -21.51462,3.77034 -2.10628,0.335 -6.73068,1.01328 -9.04351,1.52796 0.17844,-3.01252 1.41505,-6.74378 1.52922,-9.60914 0.1854,-2.08078 0.55496,-5.22319 1.09816,-7.20732 0.94911,-0.0858 1.27457,-0.30899 2.63659,-0.3823 2.30108,-0.0376 20.82249,0.8531 20.82513,0.85314 z m 6.86832,11.9965 c 0.003,2e-5 9.06197,17.86136 10.5332,20.43359 0.96034,1.67353 2.84088,5.09073 3.62532,7.30337 -0.45248,3.81631 -1.00929,7.84903 -1.50285,9.50494 l 2.96616,-0.0527 c 0.68326,0.81599 0.63399,4.36346 0.94919,5.74777 -1.45124,0.65448 -2.15588,1.96686 -3.05846,3.32212 -1.14629,2.19639 -3.64293,3.68229 -5.31275,5.48412 -0.87385,0.7077 -6.07428,3.56577 -7.34291,3.91531 -1.99635,0.77892 -3.85768,1.79585 -5.90596,2.43888 -2.14667,0.8705 -10.76878,4.4369 -12.84022,5.33909 -2.08721,1.24366 -4.48228,1.5714 -6.80242,2.16199 l -3.13755,0.79098 c 0.12113,-0.67993 0.44621,-3.39268 0.51413,-4.469 0.64751,0.022 1.09245,0.0475 1.2392,0.0923 l 1.63469,-2.99252 c -3.2e-4,-4.2e-4 3.5e-4,-0.0121 0,-0.0134 -0.10624,-0.32294 -0.96814,-7.40276 -1.3842,-9.82134 -0.47568,-3.83146 -6.55099,-39.65358 -6.87357,-42.88669 2.06513,0.0338 3.85945,-0.9981 5.89802,-1.3158 3.1113,-0.62083 14.3483,-2.38997 16.8083,-2.92662 2.29841,-0.39745 9.98405,-2.05665 9.99268,-2.05655 z m -48.28922,10.16407 c 0.75619,3.58623 1.4361,7.15753 1.43693,8.70076 0.12462,3.15467 -0.17163,22.06138 -0.67233,25.46951 -0.56774,5.0915 -3.86462,17.72475 -3.99443,18.57479 0,0 1.36959,-0.31062 2.03017,-0.42186 -0.58568,1.35488 -1.52256,2.57441 -2.20155,3.8758 -0.3519,0.85936 -0.54696,1.74399 -0.65916,2.6498 -1.52893,-0.58048 -3.11911,-1.03637 -4.77223,-1.13373 -1.91104,-0.26586 -3.94673,-0.61465 -5.20727,-2.13566 0.21356,-1.78047 4.60141,-23.94968 5.76095,-26.3923 0.93057,-2.52177 2.9956,-12.9942 2.8607,-15.49002 4.3e-4,-2.19812 -0.20263,-8.91646 0.34276,-11.19233 1.48406,-0.66375 3.60796,-1.70332 5.07546,-2.50476 z m 73.29733,26.11546 c 2e-4,4e-5 -4.2e-4,0.0107 0,0.0134 0.0545,0.2076 0.77108,3.51951 1.62151,5.115 1.35174,2.22774 -1.85183,3.36557 -3.34848,4.69314 -1.47911,1.3504 -3.1019,2.69498 -3.65167,3.28259 -6.13343,1.97512 -4.4324,-2.30048 -4.13946,-3.26939 0.31133,-0.48319 4.12416,-4.80484 4.27128,-5.12819 -0.0297,-0.18381 -0.60446,-2.97653 -1.09418,-4.27129 0.68262,-0.0428 6.33986,-0.43502 6.341,-0.43502 z m -0.22411,10.30907 c -0.4261,1.41124 -0.56599,3.02643 -1.43694,4.15267 -0.46727,0.61806 -1.39618,0.9511 -2.29384,1.12052 -0.20731,-0.46531 -0.43462,-0.88471 -0.67233,-1.26555 1.51091,-1.19298 3.03225,-2.64787 4.40311,-4.00764 z m -11.42964,2.39931 c 1.04992,2.04583 2.89174,2.33007 4.24492,2.28067 5.67796,7.82702 3.08035,49.13457 3.37485,52.16502 0.14531,3.43592 -1.66306,6.76499 -0.55369,10.07179 1.12371,1.82562 13.12587,27.62354 14.10578,31.11182 0.64079,2.86963 3.04473,30.15143 3.34848,33.22109 0.17544,2.41816 0.82051,20.99374 -1.55559,23.62386 -1.26998,-0.026 -2.48316,-0.1248 -3.38803,-0.369 -0.9699,-0.1815 -5.34563,-0.7711 -5.66867,-0.9888 -0.003,0 -0.0107,-0.013 -0.0134,-0.013 -3.5e-4,0 -0.0134,-0.013 -0.0134,-0.013 -0.0242,-1.11889 -2.55792,-11.4396 -2.83434,-13.61806 -0.21935,-2.30429 -3.86784,-11.35418 -4.71951,-13.82891 -0.85396,-3.07942 -6.74636,-31.617 -8.63485,-35.97637 l -4.8381,-6.20911 c -0.22078,-1.97888 -0.1544,-4.37868 -1.00192,-5.74778 -1.7635,-3.12312 -5.35165,-5.93081 -6.1828,-9.45221 -0.95423,-3.42648 -11.52362,-29.76488 -12.84022,-34.61849 -0.72543,-2.42727 -3.29651,-12.65625 -3.91534,-15.97777 0.75115,-0.19346 6.18381,-2.55298 10.50682,-4.45584 3.58932,1.12365 13.50614,1.3469 17.86293,-5.97187 l -0.43503,-0.22413 c -4.01711,5.30778 -13.82489,6.11373 -16.66328,5.85324 2.09107,-0.92171 3.8119,-1.68657 4.44266,-1.96424 3.02632,-0.8732 12.99021,-6.14188 14.0135,-7.3693 0.46486,-0.5039 0.92021,-1.01014 1.35784,-1.52923 z M 203.43098,862.549 c 0.74897,-0.009 1.23754,0 1.35784,0 0.0895,1.7215 -0.2995,3.65992 -0.48776,5.33912 -0.42565,2.10932 -0.63391,2.88456 -1.04146,4.99632 -2.08938,4.30111 -3.71052,1.74615 -3.59895,1.23921 -3e-5,0 7e-5,-0.0121 0,-0.0134 0.001,0 0.0107,-0.0107 0.0134,-0.0134 -2e-5,0 1.1e-4,-0.0121 0,-0.0134 -8e-5,0 -2e-5,-0.0107 0,-0.0134 -0.40163,-0.42021 -1.6133,-1.29345 -1.76652,-1.38419 -0.003,0 -0.0121,4.1e-4 -0.0134,0 l -0.19774,0.84371 c 0.1214,0.82907 0.16167,1.61942 0.55368,2.3202 -1.99371,-0.0777 -3.61892,-1.80289 -3.50667,-3.53303 l -0.89644,1.19963 c -0.0541,1.54309 0.44546,2.43439 1.37102,3.12438 -0.86918,0.31976 -1.89937,0.92824 -2.53113,0.71189 -1.01122,-1.097 -2.01552,-2.85268 -1.83242,-4.49543 l -1.64788,1.081 c -0.0946,1.27769 -0.0569,2.2091 0.42185,3.08483 -1.68442,0.52436 -3.68604,-1.64617 -3.95489,-3.16392 l -0.89644,0.9228 c 0.38725,1.88485 2.72543,3.83374 2.78161,3.86264 -1e-5,0 -3.96042,2.26127 -4.58767,1.1469 -2.5e-4,-2.09409 -0.30912,-6.87029 -0.3164,-8.96443 0,0 -2.1e-4,-0.0121 0,-0.0134 4.2e-4,0 -4.2e-4,-0.0107 0,-0.0134 8.4e-4,-0.004 0.0121,-0.0107 0.0134,-0.0134 0.15069,-0.39039 1.77664,-3.34401 2.63659,-5.28635 0.67406,-1.15767 1.35815,-1.74788 1.81925,-2.67618 0.73864,-0.0495 12.26286,-0.23004 16.30734,-0.27681 z m 8.97761,4.12629 c -0.26013,2.63069 -4.53146,10.65915 -5.68187,13.0643 -1.28653,2.50929 -2.59755,4.9868 -4.02081,7.42205 -1.46278,2.93796 -26.78791,51.55196 -26.78781,51.55858 -0.004,0.007 -5.69223,25.03264 -10.48045,30.01766 -2.31753,5.1576 -14.17468,23.66327 -17.8893,29.70124 -0.56909,1.13443 -2.07086,5.43368 -2.06973,7.23748 0,0 -1.00243,0.088 -1.4765,0.04 -2.25548,0 -4.57139,0.201 -6.76286,-0.4087 -0.84206,-0.4003 -1.68213,-0.822 -2.43885,-1.3315 1.53355,-4.27052 3.46114,-9.24475 4.11309,-10.99449 0.86861,-2.64473 2.35407,-13.24264 2.76842,-15.7669 0.57674,-3.81277 3.53091,-17.37503 4.64041,-20.57864 0.95027,-3.16164 2.59341,-6.71699 3.59896,-9.86086 0.78344,-2.8004 1.67988,-5.57327 2.7025,-8.29207 1.45992,-2.77294 3.6165,-5.16212 4.86452,-8.00209 0,0 0.47186,-4.55815 1.26557,-6.31462 1.27495,-2.15184 2.69622,-4.23214 3.30892,-6.69696 0.82179,-2.92636 0.52875,-5.50588 0.97554,-8.51619 0.25275,-3.44703 1.98271,-19.89166 2.59705,-24.8763 0.34042,-2.96632 2.7239,-6.5669 3.51986,-9.43902 0.46341,-1.48808 1.10592,-2.92268 1.6215,-4.3899 1.03562,0.16861 2.06274,0.26644 2.84752,0.39549 l 7.5934,0.71188 c -0.0307,0.97081 2.4e-4,7.1067 0,9.20171 0.76313,3.17898 5.05803,-0.64294 6.71013,-1.63469 0.003,-4e-5 0.61128,0.12006 0.85689,0.2241 l 1.6215,-1.12054 c 0.90307,0.33078 1.85383,0.43949 2.7948,0.58006 l 2.35975,-1.72695 c 0.37927,0.23881 0.81553,0.46472 1.30511,0.68551 l 1.76653,-1.18646 c 0.003,0.004 0.0107,0.0107 0.0134,0.0134 2.92302,1.81279 5.58305,-1.44591 6.24874,-4.21856 0.23845,-1.21228 0.4445,-2.4252 0.65914,-3.63849 0.19031,-0.0169 4.89701,-0.8714 6.85515,-1.85883 z m 46.4568,135.99561 c 1.95161,0.5426 3.88982,0.9975 4.7986,1.1732 0.6837,0.1768 1.85311,0.3369 3.15073,0.4746 -0.85264,1.4817 -2.35823,2.5428 -3.40121,3.9549 -1.00855,2.1324 -1.28831,4.4922 -0.93598,6.8024 0.30451,0.8631 0.71705,1.6789 1.19965,2.452 -0.34403,2.0675 -2.30117,5.2449 -2.57069,6.9739 -0.004,0 -0.009,0 -0.0134,0 -0.007,0 -0.0192,0.013 -0.0264,0.013 -0.50177,-0.148 -3.30634,-0.9768 -3.74396,-1.1338 0.75079,-1.9359 2.45996,-5.5484 2.50477,-6.9606 0.2214,-2.7337 -1.01846,-6.3478 -0.81734,-9.0831 0.10221,-1.5664 0.008,-3.1175 -0.14502,-4.6668 z m 10.08497,1.8588 c 1.01125,0.092 1.974,0.1722 2.74206,0.2504 1.62313,-0.9946 3.76928,2.7908 4.53495,4.4426 0.96913,4.6852 -0.15791,5.148 -1.35785,6.7498 -0.6277,1.8628 -0.79465,16.6564 -1.55559,18.4957 -0.2888,0.8057 -2.28406,2.2335 -2.42567,3.098 -0.0691,-5.0334 -1.06767,-16.4903 -2.04336,-17.8103 -1.59445,-1.9421 -2.34298,-3.9938 -3.1771,-6.3937 -0.28955,-2.2239 -0.009,-4.5381 1.06783,-6.5387 0.6548,-0.8081 1.51156,-1.5111 2.21473,-2.2938 z m -135.23095,2.5311 c 0.004,0 0.0204,0 0.0264,0 0.44201,0.1194 5.12231,0.7893 7.34292,0.7777 0.85159,0.046 1.69831,-0.015 2.54431,-0.066 -0.61355,2.3786 -2.51162,5.405 -3.8758,6.776 -1.85828,1.6549 -2.30277,6.2522 -2.29383,6.6312 1.3e-4,0 -1.9e-4,0.013 0,0.013 2.4e-4,0 -3e-4,0.013 0,0.013 -1.06883,2.4258 -3.11524,5.2417 -4.179,6.4069 -0.85015,1.3383 -1.63373,2.3198 -2.12247,2.9134 -0.95931,0.1301 -1.89346,0.02 -2.83434,-0.145 -0.3362,-2.3513 -1.69046,-7.359 -1.27874,-9.1094 0.9549,-3.0787 5.21292,-7.8618 5.73459,-11.0605 0.14391,-0.6846 0.48224,-1.7962 0.93599,-3.1507 z m 12.3129,2.307 c 0.28089,0.2064 0.5687,0.3996 0.84371,0.6064 2.01852,1.337 3.87767,2.7888 4.46903,5.0095 0.52292,2.4313 -0.0537,7.4214 -1.35785,9.1227 -1.2138,2.0035 -3.15451,13.253 -2.59704,15.9119 -0.0645,0.1234 -0.14587,0.2285 -0.2373,0.3031 -0.0221,0.017 -0.0557,0.038 -0.0791,0.052 -0.72212,0.4479 -2.03184,-0.1726 -2.59705,0.211 -0.0427,0.031 -0.0853,0.075 -0.11858,0.1181 -0.007,0.013 -0.0198,0.029 -0.0264,0.04 -0.0107,0.018 -0.0302,0.047 -0.0396,0.066 -0.0254,0.055 -0.0519,0.1274 -0.0659,0.1977 -4.1e-4,-0.076 -0.2176,-13.737 -1.12055,-16.4788 -0.79619,-2.2877 -1.73259,-3.0961 -2.50477,-5.2732 0.17757,-2.4043 0.61197,-4.4508 2.51796,-6.1037 1.15885,-1.1672 2.29072,-2.3406 2.91343,-3.7836 z m 119.41138,10.5859 c 0.42331,0.5289 0.85583,1.0506 1.27875,1.5687 1.70096,2.2567 2.51131,4.8644 2.67615,7.6462 0.0121,1.1887 0.0107,2.3707 0.0134,3.5595 -2.115,0.1345 -4.2127,0.6337 -6.30147,0 -2.0017,-0.3475 -3.92629,-0.9496 -5.85323,-1.5821 -1.72466,-0.6844 -2.97224,-1.2621 -3.75716,-3.0716 -0.42741,-0.9758 -0.88711,-1.9514 -0.94917,-2.9267 0.97221,0.071 2.1765,0.2534 3.19027,0.8571 3.21026,0.7889 6.89385,0.2366 8.64805,-3.0586 0.15284,-0.947 0.61133,-1.9646 1.05463,-2.9925 z m -126.71475,3.4275 c 0.77621,1.0497 1.64372,2.0461 2.12246,3.3882 0.88456,2.711 1.54764,8.8203 1.54241,9.083 -0.75797,0.7416 -1.8621,1.7922 -2.4784,2.3992 -0.45629,0.016 -1.28126,0.09 -2.66296,0.2637 -1.97294,-0.2976 -3.89751,-0.7644 -5.77414,-1.45 -2.10627,-0.6883 -4.41843,-1.1742 -6.11691,-2.6367 -0.2179,-0.8189 -0.3379,-1.4976 -0.40867,-2.0301 1.38673,0.273 2.76489,0.5179 4.20537,0.1581 3.68826,-1.926 5.46966,-2.9193 7.46156,-6.341 0.8378,-0.93 1.6004,-1.8239 2.10928,-2.8344 z"
       id="path1331"
       sodipodi:nodetypes="ccccccccccccsscccccccsssssssccccccccccccccccccccccccccccccscccccccccccccccccccccccccccccccccscccccccccccccccccccccscccccccccccccssssccccccccccccccsccccccccccccssscccccccccccscccccccccccccsccccccccccccccccccccssssssssccsssssssssccccccccccccccccccccscccccccccsssssscccccccccccccsscccssccccccccccccccccccccsccccscccccsccccccccccccccccccccccccccccccccccccccssssccsssssscccccssssccsccccccccccccccccccssccccccccccccccccccccsscccccccccccccccccccccccccccccccccccccscscccccccccccccccccccccccccccccccccccccccccccccccccccccccccccccsccccccccsccccccccccsccccccccccccccccccccssscccccccccccccccccccssssssccccccccccccscssssccccccsccsccccccccscccccccccccccccccccccccccccsccccccccccccccccscccssscccccccccccssssssscccccccccccccccccccccccccc"
       inkscape:connector-curvature="0" />
  </g>
</svg>
