<?xml version="1.0" encoding="UTF-8" standalone="no"?>
<!-- Created with Inkscape (http://www.inkscape.org/) -->

<svg
   xmlns:dc="http://purl.org/dc/elements/1.1/"
   xmlns:cc="http://creativecommons.org/ns#"
   xmlns:rdf="http://www.w3.org/1999/02/22-rdf-syntax-ns#"
   xmlns:svg="http://www.w3.org/2000/svg"
   xmlns="http://www.w3.org/2000/svg"
   xmlns:sodipodi="http://sodipodi.sourceforge.net/DTD/sodipodi-0.dtd"
   xmlns:inkscape="http://www.inkscape.org/namespaces/inkscape"
   width="400"
   height="400"
   id="svg2"
   sodipodi:version="0.32"
   inkscape:version="0.48.0 r9654"
   sodipodi:docname="tg0004.svg"
   inkscape:output_extension="org.inkscape.output.svg.inkscape"
   version="1.0"
   sodipodi:modified="true">
  <defs
     id="defs4">
    <filter
       inkscape:collect="always"
       id="filter3249"
       color-interpolation-filters="sRGB">
      <feGaussianBlur
         inkscape:collect="always"
         stdDeviation="9.308662"
         id="feGaussianBlur3251" />
    </filter>
    <filter
       inkscape:collect="always"
       x="-0.22951762"
       width="1.4590352"
       y="-0.13330141"
       height="1.2666028"
       id="filter4222"
       color-interpolation-filters="sRGB">
      <feGaussianBlur
         inkscape:collect="always"
         stdDeviation="2.8064439"
         id="feGaussianBlur4224" />
    </filter>
    <filter
       inkscape:collect="always"
       x="-0.24517873"
       width="1.4903575"
       y="-0.12364959"
       height="1.2472992"
       id="filter4226"
       color-interpolation-filters="sRGB">
      <feGaussianBlur
         inkscape:collect="always"
         stdDeviation="2.8064439"
         id="feGaussianBlur4228" />
    </filter>
    <filter
       inkscape:collect="always"
       x="-0.11418102"
       width="1.228362"
       y="-0.15771802"
       height="1.315436"
       id="filter4230"
       color-interpolation-filters="sRGB">
      <feGaussianBlur
         inkscape:collect="always"
         stdDeviation="2.8064439"
         id="feGaussianBlur4232" />
    </filter>
    <filter
       color-interpolation-filters="sRGB"
       inkscape:collect="always"
       id="filter3249-8">
      <feGaussianBlur
         inkscape:collect="always"
         stdDeviation="9.308662"
         id="feGaussianBlur3251-9" />
    </filter>
    <filter
       color-interpolation-filters="sRGB"
       inkscape:collect="always"
       x="-0.24517873"
       width="1.4903575"
       y="-0.12364959"
       height="1.2472992"
       id="filter4226-7">
      <feGaussianBlur
         inkscape:collect="always"
         stdDeviation="2.8064439"
         id="feGaussianBlur4228-7" />
    </filter>
    <filter
       color-interpolation-filters="sRGB"
       inkscape:collect="always"
       x="-0.11418102"
       width="1.228362"
       y="-0.15771802"
       height="1.315436"
       id="filter4230-6">
      <feGaussianBlur
         inkscape:collect="always"
         stdDeviation="2.8064439"
         id="feGaussianBlur4232-4" />
    </filter>
    <filter
       color-interpolation-filters="sRGB"
       inkscape:collect="always"
       x="-0.22951762"
       width="1.4590352"
       y="-0.13330141"
       height="1.2666028"
       id="filter4222-3">
      <feGaussianBlur
         inkscape:collect="always"
         stdDeviation="2.8064439"
         id="feGaussianBlur4224-0" />
    </filter>
  </defs>
  <sodipodi:namedview
     id="base"
     pagecolor="#ffffff"
     bordercolor="#666666"
     borderopacity="1.0"
     inkscape:pageopacity="0.0"
     inkscape:pageshadow="2"
     inkscape:zoom="1"
     inkscape:cx="200"
     inkscape:cy="200"
     inkscape:document-units="px"
     inkscape:current-layer="layer3"
     inkscape:window-width="1173"
     inkscape:window-height="961"
     inkscape:window-x="499"
     inkscape:window-y="24"
     fill="#26c726"
     width="480px"
     height="620px"
     showgrid="false"
     inkscape:window-maximized="0" />
  <metadata
     id="metadata7">
    <rdf:RDF>
      <cc:Work
         rdf:about="">
        <dc:format>image/svg+xml</dc:format>
        <dc:type
           rdf:resource="http://purl.org/dc/dcmitype/StillImage" />
      </cc:Work>
    </rdf:RDF>
  </metadata>
  <g
     inkscape:groupmode="layer"
     id="layer3"
     inkscape:label="color"
     style="display:inline"
     transform="translate(0,-220)">
    <path
       style="fill:#e0c39e;fill-opacity:1;fill-rule:nonzero;stroke:none"
       d="m 156.95329,257.99854 c -0.3337,4.65885 -3.24247,9.28173 -1.31073,13.92241 0.77358,2.29511 2.11331,4.97056 3.33229,6.48119 2.17478,2.40695 3.88031,4.92546 5.30117,7.74359 3.0199,4.59296 5.78401,9.55921 10.49422,12.64846 2.63027,2.00888 4.63165,4.84969 8.06183,5.57809 3.13363,0.90814 6.93695,1.9557 9.62568,-0.47776 1.99539,-1.45034 3.23271,-3.47679 4.05317,-5.82431 1.98961,-4.27041 4.12466,-8.56038 5.07859,-13.17839 -0.8954,-2.88508 -0.69543,-6.55695 -3.42522,-8.40285 -3.18549,-2.57791 -7.88207,-3.03681 -10.31364,-6.64492 -3.82982,-4.25224 -7.97261,-9.59438 -14.17705,-10.06043 -5.47073,-0.43701 -10.87187,-1.66633 -16.34924,-2.0764 -0.40999,-0.28958 -0.35911,0.0433 -0.37107,0.29132 z m 23.0728,6.961 c -2.39747,1.20021 -4.04379,3.44117 -5.97221,5.15912 -0.47812,-0.40214 1.08548,-2.16813 1.74496,-2.81987 1.36969,-1.17276 2.8899,-2.04158 4.57096,-2.55187 l -0.27497,0.17009 -0.0687,0.0425 z m -14.75,9.48995 c 0.63526,-0.22923 1.7656,0.96472 0.64325,0.97076 -2.16941,0.4578 -4.32571,1.10625 -6.36276,1.94464 1.88751,-0.96884 3.68475,-2.36373 5.71951,-2.9154 z m 2.98075,3.63559 c 0.72952,0.20191 2.65909,0.0921 1.6736,1.24586 -0.98718,1.69104 -1.982,4.1173 -4.30962,3.9347 -1.39301,0.26191 -3.50908,0.73666 -2.19509,-1.31296 0.44802,-1.70529 0.9233,-3.51729 2.91388,-3.75567 0.58188,-0.13872 1.28304,-0.16673 1.91723,-0.11193 z m 33.09857,8.51031 c -1.9579,5.37434 -3.9963,10.89225 -6.79026,15.92038 -2.08351,2.84664 -5.9465,3.87909 -9.23491,2.60497 -2.18614,-0.44265 -4.19636,-1.19024 -6.22724,-2.0802 0.51056,0.83592 2.67306,2.73125 0.392,1.99791 -1.95374,-0.46492 -3.93157,-0.81805 -5.89985,-1.21415 0.21868,2.16035 -1.27468,4.2196 -3.60517,3.99794 -1.07163,0.47164 -4.20832,-0.72118 -3.0135,1.14942 2.98611,8.06588 5.39194,16.81688 3.73281,25.51343 -0.64048,5.50624 -2.16128,10.94499 -2.24043,16.49762 0.70241,5.79339 1.63882,11.73292 3.92207,17.12722 2.44674,4.62509 5.05555,9.762 9.74484,12.34218 2.44288,-2.3545 5.31339,-5.13333 5.62454,-8.67955 -1.20124,-6.7903 0.33802,-13.66446 2.00368,-20.24235 1.06847,-4.60075 2.08733,-9.32723 2.85248,-13.92117 -1.00912,8.79561 -3.13462,17.39967 -4.71444,26.09351 -0.66929,2.52971 -0.38414,5.07775 0.54253,7.49598 2.55912,-6.51453 7.88447,-11.36727 12.64384,-16.31358 4.15549,-3.93154 8.60812,-7.59987 12.74071,-11.51664 4.13061,-7.69178 4.68481,-17.15964 10.66049,-23.91153 2.0693,-2.61134 4.43588,-4.86115 7.02559,-6.98366 -3.78357,-0.61194 -8.27485,-1.64922 -10.34821,-5.18971 -0.8784,-0.86137 -2.87787,0.43398 -4.26821,0.0835 -5.63629,-0.0481 -11.09957,-4.05705 -12.19383,-9.71756 -1.18538,-3.98585 -2.03878,-8.06345 -2.97018,-12.11551 -0.12645,0.35386 -0.2529,0.70771 -0.37935,1.06157 z m 32.85861,26.09973 c -2.33357,-0.57414 -3.35632,2.28144 -4.79391,3.61022 -3.42835,4.606 -7.18451,9.33033 -8.91596,14.85976 -1.21973,6.02552 -2.70634,12.49265 -0.87194,18.52686 0.58689,2.09451 1.00641,0.0909 1.35267,-1.05534 1.39416,-5.00744 -0.52405,-10.751 2.47271,-15.33978 -2.86261,5.2966 -0.39819,11.69238 -2.99581,17.09855 -2.70706,8.48862 -7.05221,16.42251 -9.82967,24.92397 -1.76938,4.97219 -3.83805,9.87471 -6.88736,14.19185 -3.95546,8.18136 -6.63118,16.89121 -9.29258,25.56825 -1.33623,4.96048 -2.9415,9.89806 -4.15947,14.85973 0.7094,3.36505 3.22139,6.80001 1.61967,10.20882 -1.60784,3.53556 -3.38237,6.97958 -5.35073,10.33375 0.86345,-2.07557 2.50386,-3.90722 2.50857,-6.24703 -0.0366,1.923 1.59762,-1.99193 2.09716,-2.79423 1.3543,-2.24853 1.05888,-4.95407 0.10934,-7.27741 -0.89373,-2.47096 -0.64772,-5.58625 -3.0301,-7.2172 -1.54185,-1.13082 -2.1567,-3.65029 -4.3369,-3.612 -2.51441,-0.436 -2.50797,-0.51699 0.006,-0.12593 2.52785,0.87697 -0.23073,-1.37689 -0.23538,-2.5737 -4.16495,-10.58548 -8.40357,-21.14349 -12.2273,-31.81123 -3.11387,-7.46635 -6.49267,-14.83115 -9.82596,-22.20289 1.88297,3.036 3.8627,5.94817 5.33802,9.24412 0.003,-7.23999 -0.79561,-14.55023 -1.48889,-21.69738 -0.55034,-7.96005 -0.29592,-15.98547 -1.84316,-23.85086 -0.46485,-3.68612 -1.22288,-7.47083 -1.67146,-11.04099 1.3509,8.0968 2.95736,16.14467 3.4814,24.3567 0.70008,0.89439 1.17697,-3.17898 1.69985,-4.39792 0.99458,-3.85398 2.36631,-7.80535 1.39652,-11.82053 -0.97036,-6.42334 -1.72521,-13.07239 -4.24741,-19.11678 -0.75283,-1.40692 -2.95867,-0.67296 -4.32541,-1.15088 -3.86258,-0.5353 -8.69644,-0.47552 -11.03045,3.08788 -2.80239,3.67247 -5.30641,7.84958 -6.11469,12.43585 -0.2705,8.46172 -1.16029,17.04729 -0.10397,25.45271 1.18788,6.67873 2.67151,13.28413 3.23223,20.0123 2.15177,9.46768 4.51446,18.95113 8.58256,27.79563 3.12935,7.5203 6.72688,14.87277 8.78996,22.78702 0.96358,3.54524 3.03349,7.45539 1.39665,11.09731 -1.36634,2.05033 -4.09846,2.55395 -5.60478,4.57177 -1.69653,1.0239 0.22624,3.52438 -1.55295,4.64618 -1.52358,1.50748 1.15475,0.31703 1.63339,-0.3403 1.38339,-1.30821 0.57094,-0.19891 -0.23174,0.54729 -0.54556,0.7732 -1.79839,0.73606 -2.27514,0.70876 0.45825,-0.18592 -1.23281,-0.37474 -0.60506,-1.17022 0.0507,-0.80446 1.85315,-3.30238 0.30661,-2.28543 -3.31029,4.38532 -5.3674,9.57573 -8.00632,14.37636 -1.83662,7.94587 -6.27162,15.02993 -9.57274,22.45465 -2.18747,5.50388 -3.901,11.17979 -6.24575,16.66384 -2.0899,5.33157 -4.30898,10.65143 -7.42101,15.4425 -4.32482,7.80348 -6.6715,16.48079 -7.68056,25.31983 -1.67112,11.03568 -5.75166,21.48887 -10.39154,31.57166 -2.1563,3.68778 -5.15633,7.00785 -6.75318,11.03971 -2.363626,3.81138 -6.843199,5.27576 -10.155084,8.13148 -3.488991,2.46 -6.929077,5.01232 -10.200733,7.75353 8.621711,0.0341 17.313426,1.17395 25.582837,3.63574 1.44242,1.0035 2.27337,0.0457 3.13082,-1.20004 2.57967,-3.08641 6.31253,-5.29133 10.3635,-5.60274 2.08287,-0.5348 3.85579,-1.98215 5.03804,-3.6867 1.22303,-5.31629 -0.66643,-10.83275 0.56717,-16.17921 0.50029,-4.59027 2.5591,-8.72881 5.35907,-12.36249 5.03474,-7.38843 10.36643,-14.39303 16.06031,-21.18822 6.94951,-9.44201 11.07092,-20.56752 15.54105,-31.32422 2.53055,-5.95435 4.38315,-12.11453 5.60822,-18.4752 1.07572,-4.40191 2.932,-8.84093 6.41622,-11.73118 2.88892,-3.63053 4.61166,-8.07055 7.36708,-11.77588 -1.31539,2.1218 -2.61164,4.18023 -3.69942,6.40389 0.34273,1.74363 0.54994,3.59753 1.37984,5.19616 0.33701,-0.97484 -0.1779,-3.21369 1.52457,-2.74419 1.03262,0.22373 1.86411,1.07118 2.66212,1.76067 0.0537,-3.83095 0.14752,-7.66126 0.60364,-11.47004 -1.61394,0.18646 -2.92396,-1.11033 -2.37233,-2.72883 -0.21887,-1.52006 1.14293,-2.65375 2.57916,-2.06113 1.91683,1.14825 1.30793,-1.21361 1.38212,-2.51351 -0.20696,-3.07877 -0.65427,-6.15126 -0.6105,-9.24578 0.13353,5.14308 1.39856,10.35475 0.28081,15.40437 -0.66618,0.89317 -1.54513,1.4919 -1.3873,2.79709 -0.73089,4.33739 0.47624,9.09504 -1.30425,13.1723 -0.53354,0.5893 -1.7143,0.33022 -1.10342,1.44292 1.46168,5.15961 5.49625,9.04413 10.07373,11.63731 6.50513,4.05598 12.89685,8.33557 17.8448,14.22847 3.28232,3.85025 6.5994,7.70214 10.75337,10.73809 11.58918,8.91382 24.15963,16.53045 36.81712,23.81939 9.54642,4.36906 17.15823,11.76669 24.81234,18.74997 3.62496,3.41792 6.69345,7.41616 10.55748,10.67124 4.00671,3.80082 8.8757,6.60295 12.38424,10.87717 6.90393,-2.62983 14.37275,-4.12424 21.75148,-4.763 2.24059,0.3993 0.009,-1.28119 -0.62039,-2.00453 -3.85041,-3.73389 -8.89047,-5.96692 -12.76724,-9.70772 -4.8515,-4.08768 -9.99814,-7.98556 -14.83822,-11.97503 -5.22549,-5.68588 -9.98395,-11.64295 -15.03453,-17.45513 -3.89973,-4.38275 -6.69206,-9.44477 -10.89938,-13.54235 -10.91163,-11.53476 -21.89421,-23.0623 -33.49065,-33.8941 -7.92834,-6.36709 -16.37819,-12.32415 -23.81482,-19.26197 7.19473,6.07194 14.95806,11.3851 22.33245,17.242 6.26536,-6.5158 12.17987,-13.87545 15.18544,-22.47649 2.43691,-7.38934 2.1898,-15.69149 -0.68803,-22.84647 -3.2397,-2.04393 -5.34083,-5.97551 -4.28857,-9.86003 -4.07169,2.41488 -9.22943,1.82907 -13.86789,2.19689 -4.01158,-0.22767 -7.91469,0.60672 -11.55431,2.23702 -6.25459,2.49952 -12.1415,5.94039 -17.59423,9.84285 -1.56399,3.13438 -0.85386,0.48951 0.3129,-1.17004 4.12848,-7.69174 9.03574,-15.07952 11.63454,-23.46381 2.75946,-7.57501 4.02658,-16.05804 9.9018,-21.98165 2.00255,-2.58443 2.14277,-6.14699 4.58582,-8.51075 4.67654,-7.41576 9.02963,-15.14379 14.10813,-22.22829 4.36174,-7.9417 4.83878,-17.27577 5.955,-26.10505 0.19613,-5.74452 -0.2313,-12.04791 -3.55914,-16.85516 -3.28389,-3.61733 -7.62914,-6.42442 -12.7113,-6.21342 z m -65.897,121.11451 c 2.0789,0.82143 4.88549,1.71511 4.97009,4.36808 0.46467,1.8393 0.0357,0.20822 -0.42125,-0.57143 -1.2125,-2.49336 -4.19217,-3.28909 -6.56359,-4.18041 0.69532,-0.487 1.32898,0.21402 2.01475,0.38376 z m -2.27073,-0.24442 c -0.40277,0.60883 -2.21421,2.10748 -0.98883,0.84452 0.30309,-0.30991 0.62796,-1.05996 0.98883,-0.84452 z m 13.26465,2.08353 c 0.88719,4.42856 1.2335,9.07005 1.05085,13.60691 -0.33904,1.95776 -2.95172,2.07303 -4.38335,1.818 -1.94515,-1.07702 -0.80198,-3.83875 -1.38214,-5.62243 0.105,2.48106 0.51165,2.15646 1.26437,0.15408 1.20393,-1.80337 3.30635,0.36797 3.85118,1.62395 1.26531,2.34792 0.32242,-2.06429 0.40932,-3.196 -0.19532,-3.05843 -0.65083,-6.08665 -0.9867,-9.13076 0.0588,0.24875 0.11765,0.4975 0.17647,0.74625 z m 24.70253,8.2435 c 0.83105,3.26961 3.65211,5.32412 5.13189,8.15029 -1.90223,-2.96958 -4.62309,-5.34724 -5.44744,-8.92931 0.10519,0.25967 0.21037,0.51934 0.31555,0.77902 z m -6.66546,2.83048 c -0.0623,-0.10881 -0.0103,-0.53469 0,0 z m 0.5098,2.68336 c 0.99003,3.19885 3.0484,6.54241 1.8261,9.9433 -0.59085,1.38946 -2.22529,1.2011 -2.90344,0.0234 -1.13512,-0.94555 -1.31238,-3.49975 0.45864,-3.7529 1.07708,0.0259 1.92104,0.78352 2.75322,1.42394 -0.0751,-2.869 -1.66353,-5.30351 -2.2594,-8.05473 l 0.0928,0.30974 0.0321,0.10725 z m 3.70461,1.44848 c 0.48725,0.34002 2.28573,2.46096 1.57347,1.68323 -0.47485,-0.3199 -1.63194,-1.81035 -1.57347,-1.68323 z m -8.15492,0.71369 c 0.90543,1.36597 1.22354,2.58694 1.58874,4.17491 -0.38353,-2.24403 -1.56923,-3.78446 -2.49816,-5.62118 0.22973,0.37906 0.67969,1.06721 0.90942,1.44627 z m 13.35877,-0.14508 c 1.4297,0.12565 3.17134,0.79542 2.8386,2.50692 0.0782,1.3034 -0.84643,2.8862 -2.2646,1.94735 -1.40528,-0.48754 -2.5016,-1.56238 -2.08925,-3.17006 -3.2e-4,-0.87513 0.64713,-1.40548 1.51525,-1.28421 z m -20.73571,0.22827 c 0.63211,2.16412 1.49395,4.23488 2.43853,6.28537 1.9316,-0.42463 4.56259,0.63744 4.93904,2.61433 -0.78911,1.62162 -3.5632,1.32844 -4.0548,-0.48575 -1.47939,-2.58381 -2.87193,-5.59283 -3.32277,-8.41395 z m 5.52844,1.247 c 0.50159,2.18349 1.79003,4.18024 1.83498,6.45437 -0.10344,-2.29867 -1.7417,-4.31456 -1.83498,-6.45437 z m -6.26029,0.35101 c -0.33993,0.0838 0.16664,-0.52432 0,0 z m -5.4044,1.66547 c -0.19007,0.74084 1.64339,3.13896 0.71033,2.03182 -0.54428,-0.33964 -0.89088,-2.43819 -0.71033,-2.03182 z m 149.23577,119.00237 c -4.25407,3.82655 -8.41497,7.87094 -11.5081,12.70262 -2.22427,-0.29802 1.16925,1.26975 1.86204,1.62181 3.38042,1.2141 7.16019,1.60841 10.77271,1.60223 3.15736,-0.13385 -0.14439,-0.819 -1.35826,-1.52802 -1.07575,-0.34341 -2.33305,-1.41818 -1.30277,-2.50494 1.54294,-1.50184 1.24685,-1.61133 -0.9378,-1.98361 -0.54808,-0.22402 -3.85402,-0.74393 -1.76198,-0.71374 2.28648,0.18819 4.39705,1.17879 6.59928,1.74892 -1.46496,-0.81558 10e-4,-1.21649 0.51562,-1.90147 0.60431,-0.93832 -1.65212,-0.75525 -2.23535,-1.31657 -1.37099,-0.79019 -1.193,-0.72732 0.10967,-0.0916 1.17132,0.92197 2.27779,-0.24552 3.29619,-0.55623 1.52398,1.45432 1.41505,0.27544 0.7855,-1.06567 -1.47516,-2.10255 -3.10279,-4.14854 -4.57173,-6.2537 l -0.23967,0.21703 -0.0254,0.023 z M 76.519361,592.34538 c -1.932893,1.84036 -3.740343,3.90198 -4.813633,6.38502 1.093626,-0.8852 1.963258,-0.81335 2.221693,0.56466 -0.0094,0.8232 -2.106002,3.24041 -0.286742,2.06403 0.987818,-0.58358 2.104708,-0.5941 3.143965,-0.89452 -1.391027,0.33643 -1.523885,1.2432 -1.383934,2.53364 0.07849,1.1113 -0.912955,3.03348 0.85999,1.72062 1.606109,-1.26592 2.869666,-0.94689 3.75219,0.87824 0.483205,0.92796 2.525911,2.24903 0.892121,3.21103 -2.080288,1.43431 -4.583696,1.99247 -7.03162,2.61501 3.078491,2.88942 8.910224,2.46631 11.27966,-1.11775 1.030597,-1.59619 2.225545,-3.28951 4.304696,-3.42791 -2.085946,-5.20923 -6.568907,-9.06168 -10.506794,-12.9199 -0.761217,-0.46486 -1.624264,-1.85391 -2.431592,-1.61217 z m 6.731448,8.63881 c -0.909287,0.83628 -1.576117,1.13254 -0.378546,0.14862 0.185068,-0.0178 0.245423,-0.71344 0.378546,-0.14862 z"
       id="path2559"
       sodipodi:nodetypes="ccccccccccccccccccccccccccccccccccccccccccccccccccccccccccccccccccccccccccccccccccccccccccccccccccccccccccccccccccccccccccccccccccccccccccccccccccccccccccccccccccccccccccsccccccccccccccccccccccccccccccccccccccccccccccccccccccccccccccccccccccccccccccccccc"
       inkscape:connector-curvature="0" />
    <path
       style="fill:#445632;fill-opacity:1;fill-rule:nonzero;stroke:none"
       d="m 181.83633,226.7147 c -6.12036,-0.70642 -11.50051,3.16016 -16.38208,6.31188 -1.36783,1.01818 -3.05814,1.99311 -4.07238,3.21378 -3.49117,-0.0181 -6.48718,2.55838 -9.09918,4.61153 -3.68308,3.08465 -6.47396,7.23397 -7.08599,12.09216 -1.11839,6.56185 -2.30907,13.60331 0.32621,19.94741 2.90945,8.14937 6.68823,16.6149 14.1087,21.54319 4.32598,3.04244 8.59487,6.42741 13.38272,8.62739 2.26334,0.70654 4.56901,1.27223 6.84647,1.93342 -1.73294,-3.92308 -5.6758,-6.01704 -8.6546,-8.91289 -4.13038,-4.35005 -6.82014,-9.97659 -10.03183,-15.04213 -2.65192,-2.76959 -4.99435,-5.7983 -6.01717,-9.58913 -1.32544,-3.83553 0.66766,-7.81378 0.51867,-11.76126 0.14489,-1.44334 0.37206,-2.83216 -0.7796,-3.86452 -1.86469,-3.95709 0.31414,-8.31935 1.80727,-12.00831 1.09373,-2.2566 2.28085,-4.38189 3.83812,-6.35378 -2.76326,4.53385 -5.45041,9.54356 -5.58517,14.97921 -0.0824,1.93189 0.23309,4.53819 2.53224,5.01557 3.5007,0.5108 7.08662,0.50949 10.57099,1.28638 3.91778,0.89794 8.30541,0.2124 11.64278,2.79533 4.61365,2.93115 7.8378,7.42035 12.06222,10.79148 3.09349,1.63487 6.07856,3.58313 8.35596,6.32152 -2.14287,-7.57204 -3.55276,-15.53543 -7.84847,-22.24443 -3.12352,-5.64251 -6.34958,-12.21625 -10.55833,-16.57771 5.91066,5.38387 8.87543,13.21206 12.99396,20.01512 3.2477,7.44075 5.51819,15.52426 7.49441,23.49024 1.41578,5.9721 2.18128,12.19844 4.53567,17.88397 2.9446,4.98918 9.51744,7.21168 14.96245,5.3199 -0.0268,1.41415 1.70844,2.99375 3.07235,3.74526 3.68544,2.17668 8.04268,2.1659 12.18553,2.35186 -0.82325,-5.04255 -1.57266,-10.54596 -4.42957,-14.84353 -2.51289,-3.04405 -6.40832,-4.62098 -10.06176,-5.8944 2.43228,0.5984 4.68599,1.80929 7.07042,2.60278 -3.62857,-4.05512 -7.86919,-8.55137 -7.616,-14.37638 -0.28313,-3.2039 0.0699,-6.63392 -0.85442,-9.69626 -2.49289,-4.13214 -6.12759,-7.33641 -8.22262,-11.76002 -0.96359,-1.08274 -0.01,2.67776 -0.13475,3.60421 0.15872,2.5311 -0.0297,5.62924 -0.21439,7.81237 -0.49355,-6.58814 -0.49487,-13.37022 -2.35353,-19.72051 -2.16435,-7.00285 -7.23238,-12.54666 -12.79569,-17.1022 -4.03412,-4.30736 -9.68146,-6.33663 -15.50961,-6.5485 z m 30.88802,50.31038 c 0.80557,6.35378 1.59524,12.83139 3.72242,18.87845 1.71079,2.9603 5.16237,4.39521 8.38686,5.11508 -3.43894,-0.7738 -7.74476,-1.61958 -9.42237,-5.1066 -1.88168,-6.50149 -2.32193,-13.45927 -2.82751,-20.25893 0.0469,0.45734 0.0937,0.91467 0.1406,1.372 z m 8.31872,14.46226 c -0.32331,0.21854 -0.25549,-0.41197 0,0 z"
       id="path2595"
       inkscape:connector-curvature="0" />
    <path
       style="fill:#9db8d2;fill-opacity:1;fill-rule:nonzero;stroke:none"
       d="m 181.91251,268.35486 c -1.24725,0.20006 -2.74347,0.88096 -2.24216,2.37543 0.32524,1.37118 1.81273,2.98347 3.2961,2.60887 0.34246,-0.70615 2.09981,-2.13069 0.78399,-2.4049 -0.86129,-0.57768 -1.6204,-1.47419 -1.35308,-2.55617 -0.15317,0.07 -0.32922,-0.0823 -0.48485,-0.0232 z m -14.84161,9.38029 c -1.14316,0.0252 -2.3674,0.53279 -1.7689,1.84982 0.38385,1.43588 2.11235,2.54378 3.44577,2.29767 1.18787,-1.18567 0.79859,-1.27615 -0.30055,-2.07618 -0.49679,-0.55645 -0.90953,-1.34832 -0.4835,-2.07232 -0.29931,-0.007 -0.59635,-0.10288 -0.89282,10e-4 z"
       id="path2587"
       inkscape:connector-curvature="0" />
    <path
       style="fill:#ffffff;fill-opacity:1;fill-rule:nonzero;stroke:none"
       d="m 179.40719,269.36759 c -1.93267,1.01714 -1.69874,3.69446 -2.16356,5.56788 2.10898,-0.21984 4.29013,-0.36114 6.04847,-1.60766 -1.95184,-0.013 -4.43593,-1.66567 -3.29277,-3.8787 0.45288,-0.85658 -0.16088,-0.35267 -0.59214,-0.0815 z m -14.42667,9.05233 c -1.58189,1.26267 -1.65151,3.54334 -2.26625,5.35577 2.28028,0.11902 4.96528,-0.0718 6.30213,-2.17327 -1.80591,0.40665 -3.975,-0.83122 -3.53427,-2.894 0.0514,-0.87968 0.26427,-0.85 -0.50161,-0.2885 z"
       id="path2585"
       inkscape:connector-curvature="0" />
    <path
       style="fill:#000000;fill-opacity:1;fill-rule:nonzero;stroke:none"
       d="m 189.8288,283.79606 c -2.09576,0.89873 -7.65032,5.30706 -8.82312,5.9635 -0.86017,0.5218 -4.35947,1.75762 -5.7509,3.42634 0,0 1.41985,1.86513 3.36865,3.06826 0.72049,0.2983 4.20448,0.9003 5.19672,0.57522 1.94966,-0.62205 4.24488,-2.33261 5.00116,-3.95378 0.58628,-1.03848 1.68987,-5.11458 1.83204,-6.02372 0.0823,-0.92221 -0.37571,-2.62221 -0.82455,-3.05582 z"
       id="path2575"
       inkscape:connector-curvature="0" />
    <path
       style="fill:#df421e;fill-opacity:1;fill-rule:nonzero;stroke:none"
       d="m 189.53192,284.05284 c -4.01488,2.1082 -7.26429,5.5893 -11.54212,7.33756 -0.80035,0.56357 -2.44517,1.22143 -2.3334,2.12946 1.40667,1.85431 3.33712,3.23099 5.75029,3.29584 4.12524,0.85527 7.5493,-2.93311 8.26029,-6.62888 0.5605,-2.00802 1.48297,-4.36639 0.13923,-6.25138 l -0.27429,0.1174 z"
       id="path2573"
       inkscape:connector-curvature="0" />
    <path
       style="fill:#000000;fill-opacity:1;fill-rule:nonzero;stroke:none"
       d="m 189.55846,286.24636 c -0.90214,0.43283 -4.7606,2.98606 -5.48308,3.70833 -0.64398,0.68626 -6.1081,3.41021 -6.63667,3.60335 l -0.27972,0.17778 c 0,0 4.00524,1.04312 5.84971,0.6063 2.04482,-0.68316 3.84028,-2.9281 4.37386,-3.74633 0.53722,-0.68682 2.09382,-3.53194 2.21616,-4.34581 -0.01,0.005 -0.0295,-0.009 -0.0402,-0.004 z"
       id="path2569"
       inkscape:connector-curvature="0" />
    <path
       style="fill:#ffffff;fill-opacity:1;fill-rule:nonzero;stroke:none"
       d="m 188.95274,286.73276 c -3.02756,2.18247 -5.36516,4.60398 -8.99781,5.73313 -0.92897,0.59541 -3.97276,1.17864 -1.18527,1.50209 2.86747,0.5999 5.41774,0.55868 7.36739,-1.96986 1.26326,-1.85552 2.66551,-3.15468 3.13327,-5.33356 0.0736,-0.23067 -0.27173,0.10015 -0.31758,0.0682 z"
       id="path2567"
       sodipodi:nodetypes="cccccc"
       inkscape:connector-curvature="0" />
    <path
       style="fill:#26c726;fill-opacity:1;fill-rule:nonzero;stroke:none"
       d="m 231.56835,312.55905 c -5.57525,5.17331 -10.8928,11.22043 -12.88261,18.72065 -1.35451,3.82664 -1.99006,8.0198 -4.03217,11.49307 -6.13488,5.68392 -12.00315,11.87032 -17.72732,17.85553 -3.91379,3.72111 -7.90126,8.02281 -8.86806,13.51805 -0.90688,0.41451 -2.37457,2.7619 -3.49551,3.90633 0.19779,1.43117 -1.11001,2.20318 -2.37015,2.44511 -5.05266,-1.8229 -7.63424,-7.04724 -9.94368,-11.5039 -2.48478,-5.64179 -3.45412,-11.86548 -4.2135,-17.92836 0.12421,-6.05494 1.77161,-11.98648 2.46098,-17.99723 1.39863,-8.66527 -1.389,-17.18334 -4.3666,-25.18682 -2.43388,-0.78513 -0.27408,1.78185 -0.25623,3.01586 1.94103,7.05885 3.5712,14.32604 3.15094,21.69242 -0.74328,4.30736 -2.5717,8.38669 -3.51346,12.60444 0.61688,9.04321 1.90407,18.02589 1.95865,27.10612 0.16664,2.78802 -0.36746,5.67373 1.19489,8.16868 1.17013,3.10909 2.64358,6.4402 3.51094,9.45669 -0.52613,1.15698 1.15362,3.43722 1.4136,4.99271 3.05838,9.29401 7.71366,17.66342 10.6418,26.91701 1.51132,2.09897 3.56817,3.48053 4.87766,5.75063 0.36575,0.82188 1.59436,2.14966 1.48433,0.81783 1.96451,-6.80851 4.39252,-13.48214 6.27954,-20.30986 1.48477,-4.27783 2.81187,-8.7004 4.05458,-12.99019 0.95159,-2.48266 3.03255,-4.49172 3.73351,-7.0095 -0.5825,-0.77936 1.02667,-1.76919 1.15686,-2.71634 3.91095,-7.54125 5.79213,-15.94133 9.76322,-23.45537 1.26333,-2.96457 2.75389,-5.95284 3.71869,-8.9737 -2.62976,-5.89556 -1.14883,-12.71169 0.12699,-18.81692 1.16317,-6.57482 5.40664,-11.87186 9.2818,-17.13166 1.32722,-1.65932 2.63869,-3.24967 4.43925,-4.40097 -0.49928,0.0444 -1.13843,-0.26304 -1.57894,-0.0403 z m -0.45081,70.78892 c -2.68188,3.42603 -2.95368,8.3426 -6.61231,11.05236 -3.56598,5.01162 -4.97047,11.20194 -7.1228,16.90767 -2.03159,5.91898 -3.86524,11.94681 -7.3489,17.23697 -1.86554,3.24258 -3.72875,6.48755 -5.51955,9.77211 7.42396,-4.57322 14.93298,-9.54441 23.65262,-11.02399 6.01394,-0.91611 12.57978,-0.0282 18.40645,-2.08079 0.96306,-0.75163 0.64802,-2.47428 0.46613,-3.6102 -1.29527,0.41022 -2.35966,0.53155 -0.66169,-0.35992 1.8562,-1.44377 0.54321,-4.17283 0.98546,-6.1847 0.24676,-2.95493 -1.70999,-5.3297 -4.18622,-6.70602 -0.92729,-0.20612 -1.52175,-2.45161 -1.97937,-1.45591 -1.40514,3.5471 -6.03052,3.33282 -8.36887,5.9847 -1.81864,1.33649 0.68687,-0.92272 1.28842,-1.24372 2.04187,-1.43737 4.79797,-1.94153 5.89708,-4.44143 1.61624,-2.17338 1.83297,-6.06144 -1.04561,-7.33709 -1.4115,-0.83701 -2.99889,-1.79497 -4.59612,-1.91401 -1.80205,1.20991 -3.86174,1.77716 -5.9801,2.20218 1.74474,-1.94647 5.34742,-1.06175 6.99267,-3.08516 -0.63614,-2.48265 -5.01526,-2.96569 -4.59162,-6.03229 0.79416,-2.24545 2.48321,-4.94906 1.34563,-7.30502 -0.20031,-0.26289 -0.73995,-0.76198 -1.0213,-0.37574 z m -41.49351,-2.91344 c 0.30348,0.60476 2.20294,2.92682 0.87265,1.57973 -0.56872,-0.64879 -1.00208,-1.4315 -1.25942,-2.24341 0.12893,0.22122 0.25784,0.44245 0.38677,0.66368 z m 7.35237,6.01638 c 1.83885,0.4351 0.57106,0.35341 0,0 z m -38.88387,20.45045 c -0.99631,6.33264 -1.74854,12.82487 -3.68715,18.92338 -2.19382,3.88423 -5.28704,7.61078 -5.40493,12.33711 -0.45499,4.01203 -1.28024,8.06714 -1.1301,12.09274 2.81943,-5.91616 6.09636,-12.10988 11.16735,-16.36498 2.47538,-1.50914 5.70312,-3.27565 5.99339,-6.64431 0.50002,-2.24227 0.0227,-4.11433 -0.94497,-6.18021 -1.96097,-5.12365 -3.56273,-10.30756 -5.82841,-15.32567 -0.055,0.38732 -0.11013,0.77462 -0.16518,1.16194 z m 89.13623,17.33506 c -0.33826,4.21982 1.63708,8.72975 5.82094,10.20822 1.91654,0.73844 3.77863,1.83588 5.81235,2.13718 -2.78769,-2.36474 -5.75915,-4.51703 -7.92427,-7.55383 -1.50683,-1.79156 -2.51935,-3.83962 -3.6499,-5.90217 -0.0197,0.3702 -0.0394,0.7404 -0.0591,1.1106 z m 4.83942,11.63405 c 2.30197,7.35833 2.54093,15.51231 0.055,22.8911 2.61,-1.57251 5.70446,-3.19009 6.49321,-6.33569 1.69034,-2.39463 3.76273,-5.31393 2.43483,-8.36372 -0.47485,-2.34213 -0.45289,-5.15964 -2.0241,-7.05973 -2.45651,-0.36412 -4.9458,-0.65526 -7.16283,-1.79951 0.0679,0.22252 0.13588,0.44504 0.20383,0.66755 z"
       id="path2563"
       sodipodi:nodetypes="ccccccccccccccccccccccccccccccccccccccccccccccccccccccccccccccccccccccccccccccccc"
       inkscape:connector-curvature="0" />
    <path
       style="fill:#000000;fill-opacity:1;fill-rule:nonzero;stroke:none"
       d="m 177.13197,422.40712 0.0751,0.0676 c 0.004,-0.004 0.0171,-0.0148 0.0219,-0.0183 0.002,-0.002 -5.7e-4,-0.018 0.002,-0.0201 -0.0361,-0.009 -0.0726,-0.0219 -0.0988,-0.0292 z"
       id="path2539"
       inkscape:connector-curvature="0" />
    <path
       style="fill:#df421e;fill-opacity:1;fill-rule:nonzero;stroke:none"
       d="m 158.27496,434.70183 c -1.01913,1.22866 -2.17722,3.33731 -2.03534,5.04362 1.80558,0.3641 2.2861,-1.75937 2.25266,-3.22062 -0.0256,-0.64354 0.63077,-3.33511 -0.21732,-1.823 z m 18.77401,10.09714 c -2.76558,0.38738 -2.93361,4.82014 -0.82384,6.01278 2.13264,1.07719 5.11692,-1.21433 3.93132,-3.56288 -0.68917,-1.07913 -1.68289,-2.43712 -3.10748,-2.4499 z m 29.84504,6.33133 c -2.15341,-0.19533 -2.68713,3.64148 -0.72341,4.21606 0.90863,0.60102 1.54899,0.72242 2.65424,0.84396 0.46691,-0.73262 1.35942,-1.54726 0.86751,-2.55671 -0.2372,-1.27617 -0.67634,-2.29302 -2.79834,-2.50331 z m -24.30377,2.34791 c -1.93547,0.20359 -1.92569,2.01613 -1.69673,3.65753 0.62479,1.27998 2.66084,2.36232 3.50503,0.94286 0.63346,-1.33357 0.793,-3.0322 0.4907,-4.29406 -0.46925,-0.24765 -1.7674,-0.31948 -2.299,-0.30633 z m 14.70719,1.94401 c -1.89253,0.25913 -2.20182,2.79642 -0.76958,3.82643 0.89007,0.98446 2.97207,1.40662 3.23426,-0.31832 0.48504,-1.3664 0.2161,-2.3003 -0.14005,-2.47431 -0.32911,-0.14423 -1.97067,-1.1079 -2.32463,-1.0338 z m -8.4921,2.15928 c -0.96457,0.24612 0.77775,2.20511 1.20727,3.05031 0.53258,1.34479 2.9846,1.28448 3.39217,0.18279 0.5551,-2.2998 -2.8927,-3.29741 -4.59944,-3.2331 z m -8.93849,10.29572 c -1.45438,0.16706 -1.25122,2.1425 -1.64327,2.93642 0.0885,1.45074 1.04265,2.81666 2.65384,2.53092 1.08152,0.16832 2.0866,-0.37914 1.8698,-1.61758 0.49999,-1.60713 -0.13729,-2.99284 -1.68179,-3.64071 -0.33626,-0.17557 -0.79195,-0.26858 -1.19858,-0.20905 z"
       id="path2531"
       sodipodi:nodetypes="ccccccccccccccccccccccccccccccccc"
       inkscape:connector-curvature="0" />
    <path
       style="fill:#663822;fill-opacity:1;fill-rule:nonzero;stroke:none"
       d="m 286.70872,560.99915 c 0.46447,3.30704 1.74846,6.74014 5.02943,8.16138 3.76052,2.35576 8.0792,4.29497 10.46054,8.17904 2.60025,4.13285 6.04319,7.77854 9.8669,10.83073 5.54119,3.90215 12.7041,3.74966 19.20604,4.03569 4.1154,-0.33551 6.23215,-4.41094 9.64528,-6.07154 2.10238,-1.26273 4.70512,-3.9584 3.02053,-6.5257 -2.89074,-2.60572 -7.01982,-3.69931 -10.57244,-5.31299 -1.15711,-0.17176 -4.87726,-2.60437 -4.03802,-0.98976 1.2455,2.82488 3.7055,5.01032 5.13861,7.62337 0.25501,1.13159 0.4268,2.20172 0.97323,3.17132 -0.18463,1.1421 -2.68311,1.70922 -1.25002,2.84999 0.6792,0.55175 0.81455,1.28096 -0.0602,1.80034 -2.13766,2.35494 -5.67507,0.95465 -8.48613,0.96275 -3.6345,-0.31145 -7.491,-0.59619 -10.36603,-3.10801 -4.71694,-3.38992 -8.70983,-7.46274 -12.4761,-11.8465 -4.11012,-4.70747 -9.9544,-7.48595 -13.92508,-12.27819 -0.70054,-0.38897 -3.20463,-4.41965 -2.16656,-1.48192 z"
       id="path2513"
       inkscape:connector-curvature="0" />
    <path
       style="fill:#dbba8e;fill-opacity:1;fill-rule:nonzero;stroke:none"
       d="m 326.57381,570.29951 c -7.48528,1.11134 -15.09425,2.53657 -22.06709,5.56653 3.4859,4.37109 8.20942,7.61175 12.58137,11.05086 2.08601,-4.89813 6.76986,-8.12262 10.68235,-11.64057 2.36748,-0.94234 1.15927,-2.35652 -0.0262,-3.77613 -0.36918,-0.36259 -0.67965,-1.13501 -1.17043,-1.20069 z M 85.572457,589.58723 c -0.475452,-0.0415 -0.956452,-0.0719 -1.430819,-0.10817 -1.980584,0.0624 -4.433431,-0.74851 -5.783703,1.14449 -0.636114,0.65143 -1.276527,1.10902 -1.491247,1.46897 -0.01207,0.0213 -0.01838,0.0579 -0.02735,0.0787 -0.0061,0.0155 -0.02127,0.0433 -0.02555,0.0586 -0.0036,0.0151 -0.0038,0.0455 -0.0054,0.0604 -10e-4,0.0148 -0.0065,0.0458 -0.0054,0.0604 0.0052,0.0436 0.02249,0.10415 0.04774,0.14631 0.003,0.005 0.01499,0.0173 0.01832,0.0219 0.0072,0.009 0.02837,0.0346 0.03664,0.0438 0.123523,0.12918 0.365964,0.25947 0.735914,0.3907 4.435632,3.79074 9.080095,7.68803 12.045367,12.72731 0.05536,0.46497 0.216349,0.75607 0.445605,0.91244 0.05555,0.0361 0.130935,0.0758 0.194042,0.0986 0.399895,0.13583 0.946338,0.0237 1.512883,-0.12794 4.699147,-1.01916 7.870478,-5.03493 11.150851,-8.27109 1.16778,-1.29954 2.29854,-2.63404 3.47537,-3.90814 -6.539186,-2.92635 -13.761405,-4.17543 -20.893213,-4.79729 z"
       id="path2511"
       inkscape:connector-curvature="0" />
    <path
       style="fill:#df421e;fill-opacity:1;fill-rule:nonzero;stroke:none"
       d="m 332.75119,580.81604 c -1.25724,0.82985 -2.51403,1.00391 -0.72978,1.29323 0.92583,-0.0851 3.15702,1.64523 2.51797,-0.0254 -0.004,-0.70878 -1.25044,-1.19831 -1.78819,-1.26783 z m -0.65753,1.7601 c -0.53693,0.55698 -2.07665,1.97082 -0.63329,2.22243 1.12538,0.0731 1.86773,1.86876 2.82188,0.65911 1.18771,-0.16932 1.29856,-1.36914 0.27229,-1.90302 -0.72157,-0.52215 -1.7632,-1.28066 -2.46088,-0.97852 z m -3.68697,1.74499 c -0.79887,1.05175 -2.08157,2.95089 -0.53031,3.78745 1.67931,1.09848 4.574,1.70224 5.89643,-0.1402 -0.85116,-1.6005 -1.99749,-3.25258 -4.03285,-3.34772 -0.49369,0.0225 -1.03931,-0.7681 -1.33327,-0.29953 z M 72.884831,597.96302 c -2.030329,0.66474 -3.32692,2.43874 -2.418834,4.63276 0.405169,1.28291 0.0524,2.50362 1.00366,0.6536 1.023226,-1.34543 3.236133,-2.7612 2.480749,-4.66238 -0.157982,-0.28274 -0.481548,-1.1747 -1.065575,-0.62398 z m 2.118807,3.35612 c -1.740731,0.32094 -3.157365,1.35397 -3.586049,3.10693 -0.416647,1.07463 -0.18466,2.43729 0.907174,3.00308 0.490875,-0.69903 1.70332,-1.79052 0.69214,-0.43542 -0.814966,1.37095 0.04353,3.5654 1.123559,4.39249 2.617728,-0.5482 6.409192,-1.4415 7.619967,-3.2926 -0.176002,-1.70538 -2.290564,-2.83829 -3.367279,-4.07608 -0.627936,-1.07376 -2.313716,1.08607 -2.789048,0.7319 0.04608,-1.11697 0.01201,-2.50933 -0.242044,-3.58073 l -0.298134,0.12512 -0.06029,0.0253 z"
       id="path2507"
       sodipodi:nodetypes="cccccccccccccccccccccccccccccc"
       inkscape:connector-curvature="0" />
    <path
       style="fill:#663822;fill-opacity:1;fill-rule:nonzero;stroke:none"
       d="m 125.11187,582.62703 c -0.0173,-2.1e-4 -0.0449,0.0137 -0.0622,0.0147 -0.0286,0.003 -0.0744,0.005 -0.10245,0.0111 -0.0557,0.0134 -0.11769,0.0368 -0.16824,0.066 -2.39955,2.41149 -5.53111,3.60778 -8.76981,4.12268 -5.06649,2.07337 -8.46713,6.65484 -11.95678,10.6943 -3.19571,3.95621 -6.8695,8.51455 -12.157747,9.31689 -1.798286,0.003 -4.142082,-0.0881 -4.871565,2.05822 -2.621694,3.71428 -7.847314,5.48387 -12.12895,4.02402 -1.928143,-0.84451 -3.352682,-3.49714 -2.563962,-5.56623 -1.78928,-0.33191 -1.16864,-2.42299 -1.974405,-3.54524 -0.820777,-1.75696 -0.762748,-4.12582 1.318981,-4.97417 0.941415,-1.03104 1.220119,-2.72767 2.34671,-3.766 0.390403,-0.68912 2.232562,-2.21505 2.461251,-2.78184 0.0079,-0.0221 0.0048,-0.0617 0.0072,-0.0805 4.6e-4,-0.009 0.0047,-0.0321 0.0036,-0.0403 -5.44e-4,-0.002 0.0025,-0.0183 0.0018,-0.0201 -0.0017,-0.003 -0.01624,-0.0188 -0.01832,-0.0219 -0.0027,-0.003 -0.01522,-0.0194 -0.01832,-0.0219 -0.0017,-10e-4 -0.01825,-6.5e-4 -0.02012,-0.002 -0.0083,-0.004 -0.02834,-0.021 -0.03844,-0.0237 -0.04953,-0.01 -0.134653,-0.0129 -0.223203,2.4e-4 -4.06179,1.69424 -6.569353,5.7727 -9.620702,8.85482 -2.57238,2.16041 -0.903026,5.9707 0.3352,8.47038 1.156402,3.76442 5.429455,5.56743 9.105216,6.15344 4.721512,0.23348 8.778897,-2.66877 13.259923,-3.73987 3.391181,-1.00894 7.061623,-1.67232 9.635019,-4.26818 3.692364,-3.11829 5.897044,-7.71623 8.884074,-11.49767 -0.22852,0.36646 -0.39341,0.69823 -0.47456,0.99214 -0.54669,1.98008 -2.37413,8.09795 -2.07386,8.86278 0.001,0.003 -0.003,0.0172 -0.002,0.0201 0.003,0.006 0.0149,0.0164 0.0183,0.0219 0.007,0.011 0.0279,0.0335 0.0366,0.0439 0.58141,0.61215 4.03618,0.0918 5.27276,0.027 0.43584,-0.0228 0.72186,-0.0677 0.88714,-0.16383 0.004,-0.003 0.0183,-0.016 0.0219,-0.0183 0.003,-0.003 0.0186,-0.0158 0.0219,-0.0183 0.007,-0.005 0.0158,-0.0129 0.0219,-0.0183 0.003,-0.003 0.0191,-0.0154 0.0219,-0.0183 0.003,-0.003 0.0193,-0.0153 0.0219,-0.0183 0.008,-0.009 0.0168,-0.0285 0.0237,-0.0385 0.007,-0.0102 0.0179,-0.0276 0.0237,-0.0385 0.004,-0.007 0.0204,-0.0306 0.0237,-0.0384 0.1005,-0.24662 0.0472,-0.66062 0.0222,-1.37767 -0.0516,-1.48038 3.35657,-8.74923 4.06983,-10.5299 0.71327,-1.78066 4.1889,-5.52809 4.1889,-5.5281 1.6e-4,-0.003 0.002,-0.0167 0.002,-0.0201 -1.7e-4,-0.003 0.002,-0.0169 0.002,-0.0201 -4.9e-4,-0.003 0.003,-0.0171 0.002,-0.0201 -10e-4,-0.003 -0.0172,-0.0193 -0.0183,-0.0219 -0.001,-0.003 0.003,-0.0178 0.002,-0.0201 0.84542,-0.3047 1.71094,-0.57163 2.56777,-0.80423 1.00622,-1.46446 2.86535,-2.67732 3.31205,-4.34887 -0.003,-0.005 -0.0149,-0.0175 -0.0183,-0.0219 -0.003,-0.005 -0.0147,-0.0177 -0.0183,-0.0219 -0.007,-0.008 -0.0287,-0.0358 -0.0367,-0.0438 -0.0203,-0.0199 -0.0524,-0.0497 -0.0751,-0.0676 -0.0599,-0.0454 -0.14157,-0.0914 -0.21236,-0.12051 -0.0329,-0.0128 -0.0848,-0.0222 -0.11896,-0.031 -0.0343,-0.008 -0.0842,-0.0274 -0.11895,-0.031 -0.0174,-10e-4 -0.043,-0.005 -0.0604,-0.005 z"
       id="path2501"
       inkscape:connector-curvature="0" />
    <g
       id="g7048"
       transform="matrix(0.6440621,0.05781954,-0.05781954,0.6440621,54.857411,168.28517)"
       style="fill:#ffffff;fill-opacity:0.57458562;filter:url(#filter3249-8)">
      <path
         inkscape:connector-curvature="0"
         sodipodi:nodetypes="cscssssssccc"
         id="path4394"
         d="m 265.87078,433.87906 c 21.63215,3.74901 96.80659,81.1605 103.88476,88.23866 6.97629,6.97629 22.85542,18.78452 34.45516,26.76134 10.71247,5.35624 20.28033,14.3758 28,22.09546 6.5124,6.5124 28.26952,20.74229 34.66008,22.33993 6.02738,1.50685 8.37764,13.35984 -0.87078,11.04773 -5.41452,-1.35363 -8.29778,-6.06371 -12,-11 -4.27048,-5.69398 -20.11461,-15.32053 -25.64609,-19.46914 -7.88843,-5.91632 -22.30152,-15.49651 -27.35391,-23.53086 -4.01732,-6.38838 -25.76976,-13.75989 -34.8568,-21.33992 -13.40176,-5.15318 -83.86154,-63.25966 -97.75554,-72.17695 -20.63144,-4.7589 -16.56706,-24.9961 -2.51688,-22.96625 z"
         style="fill:#ffffff;fill-opacity:0.57458562;fill-rule:evenodd;stroke:none" />
      <path
         inkscape:connector-curvature="0"
         sodipodi:nodetypes="csssssssssss"
         id="path4396"
         d="m 195.16297,416.94656 c -8.69637,8.69638 -8.2107,27.75491 -8.2107,39.54484 0,8.83663 -22.77514,64.12609 -25.01399,73.08148 -3.83148,15.32593 -9.97868,57.95091 -11.93828,65.7893 -1.64607,6.58427 -11.28463,31.63854 -18,34 -2.45599,0.86365 -19.51821,19.42275 -17,23 4.52071,6.42191 22.61592,-17.60645 22.72758,-23.91851 0.0706,-3.98907 15.41895,-29.95153 16.87078,-37.21071 1.62865,-8.14324 11.31892,-53.18268 18.16297,-66.87078 7.17539,-14.35077 28.34387,-74.14487 33.32016,-77.22469 5.83661,-3.61227 9.64695,-12.61886 10.96624,-19.43539 2.61276,-13.49964 -18.29465,-14.34565 -21.88476,-10.75554 z"
         style="fill:#ffffff;fill-opacity:0.57458562;fill-rule:evenodd;stroke:none" />
      <path
         inkscape:connector-curvature="0"
         sodipodi:nodetypes="csssc"
         id="path4398"
         d="m 331,377.36218 c 0.82382,-4.94291 5.59601,10.5634 3.87251,19.88326 -1.08252,5.85372 -35.95101,27.10488 -41.2765,28.43625 -7.1998,1.79995 -13.51258,-1.65323 -11.59601,-9.31951 1.28101,-5.12404 46.04146,-31.60365 49,-39 z"
         style="fill:#ffffff;fill-opacity:0.57458562;fill-rule:evenodd;stroke:none" />
      <path
         inkscape:connector-curvature="0"
         sodipodi:nodetypes="csccscc"
         id="path4400"
         d="m 204,73.064178 c 1.87391,7.318108 2.03857,13.826133 -3.98925,23.872506 -2.66332,4.438866 -8.45286,20.938986 -9.73425,26.064526 8.86942,-1.00764 16.279,2.11697 20.50078,5.82949 -0.77983,-8.48068 -3.59848,-20.23873 -1.93704,-26.05378 2.0148,-7.051788 3.54992,-20.34561 10.74502,-26.745004 C 217.30213,73.961657 209.17306,74.729213 204,73.064178 z"
         style="fill:#ffffff;fill-opacity:0.57458562;fill-rule:evenodd;stroke:none" />
      <path
         inkscape:connector-curvature="0"
         id="path4402"
         d="m 258,118.36218 c 1.51894,-6.07577 5.19921,11.39842 8,17 2.73347,5.46694 5.36328,10.72656 8,16 3.7472,7.4944 3.41421,11.34318 3,13 -0.9793,3.91719 -12.93495,-3.93495 -13,-4 -4.83039,-4.83039 -4.77287,-12.86435 -6,-19 -1.29863,-6.49314 0,-11.54269 0,-18 0,-1.66666 0,-3.33333 0,-5 z"
         style="fill:#ffffff;fill-opacity:0.57458562;fill-rule:evenodd;stroke:none" />
      <path
         inkscape:connector-curvature="0"
         sodipodi:nodetypes="cscsc"
         id="path4404"
         d="m 156.12749,151.51118 c 8.04302,11.40642 11.47351,10.87088 16.59601,14.71275 4.08991,3.06743 11.99416,16.77634 28.75577,24.44701 -5.03315,-0.29978 -25.86109,-12.53081 -27.78803,-14.45776 -5.88882,-5.88882 -17.56375,-18.3669 -17.56375,-24.702 z"
         style="fill:#ffffff;fill-opacity:0.57458562;fill-rule:evenodd;stroke:none" />
      <path
         inkscape:connector-curvature="0"
         sodipodi:nodetypes="csssssc"
         id="path4406"
         d="m 178,123.36218 c 3.25452,12.15929 19.80515,19.65198 21.56375,23.40399 2.03422,4.34005 6.32564,7.01497 10.86175,8.149 4.65046,1.16262 20.58943,-4.07611 17.5745,-10.10598 -3.12975,-6.25949 -7.81624,-5.6 -12.13825,-10.01076 -6.07023,-6.19486 -11.9961,-9.69115 -19.4255,-10.30876 -6.88561,-0.57239 -11.8847,1.49313 -18.43625,-1.12749 z"
         style="fill:#ffffff;fill-opacity:0.57458562;fill-rule:evenodd;stroke:none" />
      <path
         inkscape:connector-curvature="0"
         id="path4408"
         d="m 278.50531,213.78253 c -3.5639,-0.89097 -11.20051,-6.98938 -18.96814,-6.98938 -6.9668,0 -15.5344,7.96815 -23.14867,7.96815 -6.3277,0 -10.61687,-10.42036 -8.43098,-12.39912 5.8291,-5.27673 16.9043,0.34475 27.04248,-13 2.34701,-3.08934 -1.72935,-0.43233 8,2 3.71013,0.92753 19.02666,11.15313 20.90443,12.93628 1.10026,1.04483 -2.77803,6.8718 -5.39912,9.48407 z"
         style="fill:#ffffff;fill-opacity:0.57458562;fill-rule:evenodd;stroke:none"
         sodipodi:nodetypes="cssssssc" />
      <path
         inkscape:connector-curvature="0"
         sodipodi:nodetypes="csscsssc"
         id="path4410"
         d="m 212.10599,259.25619 c 1.96567,19.22325 -8.43728,20.04657 -6.53149,27.66974 0.84053,3.36211 6.27672,9.8192 7.7235,12.71275 2.55503,5.11006 7.91764,8.06466 12.851,9.298 6.1089,-5.22316 6.25303,-12.55434 6.43626,-13.28725 1.26192,-5.04768 -2.10844,-11.37997 -3.58526,-17.28725 -1.46603,-5.86412 -5.89263,-10.55499 -3.97849,-18.28725 0.54125,-2.1864 -14.53902,-17.55378 -12.91552,-0.81874 z"
         style="fill:#ffffff;fill-opacity:0.57458562;fill-rule:evenodd;stroke:none" />
      <path
         inkscape:connector-curvature="0"
         sodipodi:nodetypes="cscssssc"
         id="path4412"
         d="m 299,212.36218 c -0.66933,-1.33865 -10.93433,9.51657 -12.31951,11.851 -4.59161,7.73813 -4.55299,22.39538 -2.25499,31.56375 -4.21934,5.51544 -8.47735,26.05842 -9.447,29.93702 -1.56145,6.24579 6.46866,6.7241 9.90476,2.37173 C 291.92542,279.16567 309,235.25155 309,228.36218 c 0,-6.4955 0.74614,-11.00514 -3,-16 -1.4,-1.86666 -4.66667,0 -7,0 z"
         style="fill:#ffffff;fill-opacity:0.57458562;fill-rule:evenodd;stroke:none" />
      <path
         inkscape:connector-curvature="0"
         sodipodi:nodetypes="cscsscs"
         id="path4414"
         d="m 279.89401,351.93668 c -3.64346,11.0212 -7.56174,20.70876 -11.71274,29.01076 -2.4601,4.92021 -5.5416,14.49786 -1.74502,15.447 3.90977,-6.63469 10.67759,-20.50912 11.56375,-24.05377 1.6054,-6.42161 2.6957,-8.45699 4,-14.97849 1.39035,-6.95173 5.44701,-15.01633 5.44701,-22.149 -5.17051,-0.3588 -5.25835,9.78239 -7.553,16.7235 z"
         style="fill:#ffffff;fill-opacity:0.57458562;fill-rule:evenodd;stroke:none" />
      <path
         inkscape:connector-curvature="0"
         sodipodi:nodetypes="cscsc"
         id="path4416"
         d="m 185.43625,217.93668 c 0,-6.73658 -13.0743,-17.2758 -18.01075,-12.298 -15.90839,16.04162 17.02938,40.32217 29.15976,70.92627 2.29808,-4.59616 -3.73426,-27.52997 -4.59601,-32.62827 -1.30043,-7.69356 -5.10829,-21.5172 -6.553,-26 z"
         style="fill:#ffffff;fill-opacity:0.57458562;fill-rule:evenodd;stroke:none" />
      <path
         inkscape:connector-curvature="0"
         sodipodi:nodetypes="cssssc"
         id="path7044"
         d="m 193.31966,150.108 c 0.32397,1.02375 1.59962,2.91198 2.29801,4.30876 0.5643,1.1286 2.57647,10.01861 2.87251,11.20277 0.48256,1.93022 2.75994,2.06703 4.59601,1.149 1.56549,-0.78275 0.002,-3.34835 -0.5745,-4.88326 -1.43626,-3.82483 -6.76439,-13.598 -9.19203,-11.77727 z"
         style="fill:#ffffff;fill-opacity:0.57458562;fill-rule:evenodd;stroke:none" />
      <path
         inkscape:connector-curvature="0"
         sodipodi:nodetypes="cssssc"
         id="path7046"
         d="m 226.92799,161.88527 c -0.41891,-0.4189 -1.67852,6.00629 2.8725,11.77728 3.11941,3.95561 4.59601,9.73592 4.59601,11.49002 0,2.39969 -8.67166,7.12299 -10.05377,7.46852 -0.27453,0.0686 -1.149,-11.45723 -1.149,-14.07528 0,-2.497 3.73426,-14.82403 3.73426,-16.66054 z"
         style="fill:#ffffff;fill-opacity:0.57458562;fill-rule:evenodd;stroke:none" />
    </g>
    <path
       inkscape:connector-curvature="0"
       style="fill:#000000;fill-opacity:0.18823529;fill-rule:evenodd;stroke:none"
       d="m 110.99585,592.96768 -4.34301,13.44529 4.85642,-0.67084 c 0,0 2.8179,-8.78601 3.28246,-9.85111 0.46456,-1.06511 4.33343,-7.1742 4.33343,-7.1742 l -8.1293,4.25086 z"
       id="path7072" />
    <path
       inkscape:connector-curvature="0"
       style="fill:#000000;fill-opacity:0.21111109;fill-rule:evenodd;stroke:none;filter:url(#filter4226-7)"
       d="m 127.26992,527.74896 c -7.70625,10.29999 -7.13107,31.22133 -22.0997,42.80303 -1.69675,1.31283 -0.42475,3.16991 1.49469,2.41633 1.46746,-0.57613 7.60584,-2.67313 9.38584,-2.86588 1.97831,-0.21422 7.81106,-6.31114 8.42819,-8.08666 0.53568,-1.54119 -0.51361,-13.02487 -0.68527,-14.61018 -0.26925,-2.48656 1.02687,-7.15227 3.47625,-19.65664 z"
       id="path7947"
       sodipodi:nodetypes="csssssc"
       transform="matrix(0.64665194,0,0,0.64665194,44.127705,217.48063)" />
    <path
       inkscape:connector-curvature="0"
       style="fill:#ffffff;fill-opacity:0.18823529;fill-rule:evenodd;stroke:none"
       d="m 247.23761,422.36586 c 0,0 10.00728,13.74554 11.25313,14.17856 1.24584,0.43302 -12.77306,-0.8255 -11.25313,-14.17856 z"
       id="path8822"
       sodipodi:nodetypes="csc" />
    <path
       inkscape:connector-curvature="0"
       style="fill:#000000;fill-opacity:0.18823529;fill-rule:evenodd;stroke:none"
       d="m 159.53021,258.07795 c 0,0 -0.46163,1.56445 2.00145,2.74911 2.93992,1.414 8.80273,-1.458 18.82667,1.36895 -2.08727,-1.79327 -10.25675,-3.81139 -12.51563,-3.69299 -2.25888,0.11839 -4.43195,-0.71905 -8.31249,-0.42507 z"
       id="path8824"
       sodipodi:nodetypes="cscsc" />
    <path
       inkscape:connector-curvature="0"
       style="fill:#000000;fill-opacity:0.18823529;fill-rule:evenodd;stroke:none"
       d="m 180.37749,304.91453 c 0,0 4.26034,2.63071 7.07063,3.52536 2.81029,0.89464 8.77412,-1.13939 11.05762,-5.10972 2.28351,-3.97032 3.60321,-15.09311 3.74622,-16.68617 0.14302,-1.59306 -4.97142,8.86789 -5.51885,11.38817 -0.54743,2.52029 -2.0221,4.63616 -4.07678,6.0576 -2.05468,1.42144 -12.16443,-0.44968 -12.27884,0.82476 z"
       id="path8826"
       sodipodi:nodetypes="csssssc" />
    <path
       inkscape:connector-curvature="0"
       style="fill:#000000;fill-opacity:0.18823529;fill-rule:evenodd;stroke:none"
       d="m 203.98759,439.03861 c 0,0 7.97796,-13.73684 8.7868,-15.59131 0.80884,-1.85445 3.8686,-10.89396 4.73464,-13.38564 0.86604,-2.49169 2.42253,-9.09671 4.27302,-11.8212 1.85048,-2.72448 3.93376,-4.46453 5.49423,-7.53624 1.56047,-3.0717 3.25675,3.57649 0.26936,7.73248 -4.7712,6.63761 -4.77158,19.44549 -6.28715,23.524 -2.54092,6.83783 -10.78825,12.84219 -11.82989,13.71222 -1.04164,0.87003 -3.35772,1.62564 -5.44101,3.36569 z"
       id="path8828"
       sodipodi:nodetypes="csssssssc" />
    <path
       inkscape:connector-curvature="0"
       style="fill:#000000;fill-opacity:0.21111109;fill-rule:evenodd;stroke:none;filter:url(#filter4230-6)"
       d="m 297.13141,406.20958 c 0,0 -20.1249,-13.72699 -25.10239,-19.14063 9.5384,-1.13042 33.76344,-5.4125 49.1578,-16.44749 -3.12087,12.63349 -19.71565,31.5076 -24.05541,35.58812 z"
       id="path8830"
       sodipodi:nodetypes="cccc"
       transform="matrix(0.64665194,0,0,0.64665194,44.127705,217.48063)" />
    <path
       inkscape:connector-curvature="0"
       style="fill:#000000;fill-opacity:0.21111109;fill-rule:evenodd;stroke:none;filter:url(#filter4222-3)"
       d="m 305.62009,228.66363 c 0,0 -8.1647,14.80063 -11.17497,19.36065 -4.02398,6.0956 -6.39291,10.35305 -8.2249,14.16202 -1.50092,3.12065 -4.06821,6.58829 -4.73784,8.5149 -0.66964,1.92661 -2.63933,-36.99124 24.13771,-42.03757 z"
       id="path8832"
       sodipodi:nodetypes="csssc"
       transform="matrix(0.64665194,0,0,0.64665194,44.127705,217.48063)" />
    <path
       inkscape:connector-curvature="0"
       style="fill:#000000;fill-opacity:0.18823529;fill-rule:evenodd;stroke:none"
       d="m 167.19029,364.80579 c 0,0 3.99726,21.55465 16.55067,20.70541 -4.15348,2.51172 -10.82482,6.09416 -11.37623,5.08112 -0.55141,-1.01304 -5.68973,-11.75205 -5.51811,-13.66371 0.17161,-1.91167 0.29045,-7.95227 0.34367,-12.12282 z"
       id="path8834"
       sodipodi:nodetypes="ccssc" />
    <path
       inkscape:connector-curvature="0"
       style="fill:#000000;fill-opacity:0.18823529;fill-rule:evenodd;stroke:none"
       d="m 188.36674,371.30898 c 4.58638,1.71934 7.87641,11.59314 19.35975,11.17 -0.96022,2.36776 -1.71135,5.35303 -3.65162,5.50002 -1.94027,0.147 -8.92111,-0.80088 -10.68976,-2.56555 -1.76866,-1.76467 -6.24989,-6.96012 -5.64525,-10.11763 0.60464,-3.1575 -0.24474,-0.82495 0.62688,-3.98684 z"
       id="path8836"
       sodipodi:nodetypes="ccsssc" />
    <path
       inkscape:connector-curvature="0"
       style="fill:#ffffff;fill-opacity:0.18823529;fill-rule:evenodd;stroke:none"
       d="m 233.26941,394.07115 c 0,0 3.40717,2.1039 1.51677,3.13288 -1.89039,1.02897 -1.8637,0.73169 -1.8637,0.73169 0,0 7.99972,1.01784 8.0835,3.42271 0.0838,2.40489 -0.427,4.7564 -0.427,4.7564 0,0 5.43473,2.88526 5.59856,4.39832 0.16384,1.51306 1.67004,6.66633 0.92965,9.67292 -6.78394,-1.20836 -5.21563,-11.89648 -6.39106,-12.2609 -8.16357,-2.5309 -5.52221,-8.58685 -6.95521,-9.31483 -1.433,-0.728 -0.11046,-2.10761 -0.49151,-4.53919 z"
       id="path9711"
       sodipodi:nodetypes="cscscscssc" />
    <path
       inkscape:connector-curvature="0"
       style="fill:#000000;fill-opacity:0.18823529;fill-rule:evenodd;stroke:none"
       d="m 250.66265,433.99042 c 0,0 7.05454,1.53232 8.38079,3.44941 1.32625,1.91708 1.4634,3.72742 2.14172,6.18568 0.67833,2.45826 -1.07491,5.29758 -1.28841,7.67577 -0.2135,2.3782 -8.17911,7.65651 -8.17911,7.65651 0,0 1.61609,-4.64965 1.8029,-6.73057 0.18681,-2.08093 1.17795,-9.78338 -2.85789,-18.2368 z"
       id="path9713" />
    <path
       inkscape:connector-curvature="0"
       style="fill:#000000;fill-opacity:1;fill-rule:nonzero;stroke:none;display:inline"
       d="m 183.70172,226.0503 c -0.0613,1.5e-4 -0.12509,0.007 -0.18295,0.004 -0.89306,-0.0486 -1.81895,-0.032 -2.76437,0.0562 -8.35579,0.62333 -16.66606,6.97527 -16.76521,7.07723 0,0 -2.08617,2.23062 -2.46873,2.63915 -5.19962,-2.46908 -13.82782,5.57614 -16.69885,14.02208 -0.92504,2.76284 -2.98805,13.98591 -1.02989,19.6083 0.8989,3.28683 3.42013,12.15213 9.39124,19.69169 2.19541,3.18655 14.12409,12.1217 17.25719,13.88503 0.42558,0.24901 1.54277,0.57039 2.92097,0.91148 -0.8617,3.19085 -1.33895,3.23607 -4.10524,3.4661 -3.08569,1.06045 -13.58003,-3.46201 -19.23315,0.6675 -5.26354,3.52769 -7.32205,11.7431 -7.81178,14.92135 -0.18563,4.42894 -1.19673,19.49962 -0.0965,24.80496 1.14924,5.50678 1.7618,10.33977 3.15058,19.5981 0.952,3.44545 3.1616,14.89689 5.846,21.6661 0.86425,2.30143 3.8605,9.55788 6.25233,15.33178 -0.2523,3.98179 -0.84712,15.52002 -3.72619,21.61833 -1.6169,2.99376 -3.26715,5.74906 -4.35518,8.96232 -0.76877,3.55035 -2.70097,16.08886 -3.02943,19.73313 0.003,4e-4 0.0183,0.001 0.0201,0.002 -2.50677,5.4953 -8.54819,17.72224 -9.14265,20.70601 -0.82833,3.36387 -9.31822,24.7543 -11.21179,27.25625 -2.15795,3.35307 -6.65051,14.17851 -8.11878,21.73123 -0.77282,4.03474 -1.5587,8.05879 -2.40321,12.07948 -3.09035,13.42472 -7.05918,20.94727 -8.84862,25.11486 -1.54877,3.75339 -5.16639,7.35189 -6.581077,11.15661 -1.714805,3.68859 -4.842714,4.74978 -8.074995,7.00523 -1.869674,1.40147 -9.575468,6.64823 -14.908506,11.70753 -5.360671,1.19924 -10.5765,9.55477 -12.5126,11.00962 -1.201843,2.60157 0.161874,5.0208 1.215914,7.47411 1.105049,3.33397 3.60386,4.39606 6.641999,5.56712 3.57598,1.32338 6.574131,0.41352 9.885732,-0.95885 3.160589,-1.19143 6.537961,-1.79524 9.790566,-2.6108 4.262198,-1.29287 7.211082,-3.82922 10.124077,-7.00389 1.10815,-1.36602 2.15242,-2.78112 3.15852,-4.22064 -0.41276,1.60061 -0.97375,3.95763 -1.127,4.86967 0.012,0.12959 0.0719,0.2515 0.15042,0.35842 0.0129,0.0167 0.0406,0.0497 0.055,0.0658 1.06275,1.13856 5.87525,0.87794 7.21915,-0.18377 0.10418,-0.0849 0.19193,-0.1873 0.2485,-0.28203 0.35477,-1.32633 4.65167,-13.15245 8.2141,-16.69096 0.0163,-0.005 0.0258,-0.0113 0.042,-0.0165 0.008,-0.008 0.0141,-0.0107 0.0219,-0.0183 0.42213,-0.13372 0.84608,-0.24317 1.24737,-0.33439 2.76356,-1.16623 3.82268,-3.065 5.29201,-5.61166 1.1e-4,-0.002 0.002,-0.0183 0.002,-0.0201 0.004,-0.007 0.0195,-0.0318 0.0237,-0.0384 0.005,-0.004 0.0207,-0.0175 0.0219,-0.0183 1.7e-4,-0.002 0.002,-0.018 0.002,-0.0201 0.003,-0.0163 0.005,-0.0471 0.005,-0.0604 -0.002,-0.0142 -0.0113,-0.0482 -0.0147,-0.0622 -0.008,-0.0393 -0.0263,-0.0888 -0.0495,-0.12618 -0.0174,-0.0235 -0.0513,-0.0636 -0.0733,-0.0877 -0.004,-0.005 -0.43371,-0.31577 -0.63166,-0.42191 l -0.67554,-0.38528 c -0.10022,-0.069 -0.17882,-0.14944 -0.24358,-0.22475 0.30472,-3.1628 -0.51485,-9.45706 -0.10207,-12.6493 0.33099,-3.63309 1.30021,-7.78746 3.08311,-11.06485 2.03909,-3.56324 12.51599,-17.72098 15.84521,-21.46367 4.34442,-4.87871 7.74441,-10.3934 10.59115,-16.27468 4.2894,-9.24556 8.30068,-18.64038 11.70648,-28.24659 1.00583,-3.64076 1.74723,-7.33333 2.63128,-11.00396 1.28566,-3.47083 2.45299,-7.07486 5.39922,-9.51784 0.57455,-0.46574 1.70526,-2.35326 2.96783,-4.58267 0.22862,1.80235 1.13096,6.03336 1.5919,6.67601 0.004,0.005 0.0148,0.0177 0.0183,0.0219 0.23479,0.31086 0.6372,0.56475 1.11316,0.70861 0.92364,2.85483 3.18243,5.993 5.06066,8.26562 2.33956,2.63507 12.82078,9.49079 15.10937,10.68943 2.59863,1.29745 11.40021,11.6199 13.3074,14.03767 5.7613,6.08188 30.80248,22.8991 41.72137,28.17359 4.8764,2.18402 9.13913,5.41617 13.36535,8.64597 5.06661,4.09763 9.10188,8.13332 14.20362,12.19066 0,0 1.61824,1.78659 2.65435,2.97733 0.71829,2.86797 1.72535,7.02372 3.7862,8.90191 2.60959,1.92998 5.56771,3.28035 8.29346,5.02554 2.09068,1.67537 3.51892,3.97009 5.07104,6.11592 1.67396,2.92604 4.36404,5.14427 6.68632,7.55942 2.70527,2.71029 5.65137,4.38812 9.3091,5.23845 3.9974,0.55734 8.02851,0.86936 12.05242,1.12256 3.91416,0.05 6.21137,-2.01408 8.74893,-4.79409 2.37097,-1.78554 5.00882,-3.56918 6.25915,-6.21466 0.92977,-3.34105 -2.43864,-4.09362 -5.17479,-5.63829 -1.99448,-1.03605 -9.98441,-4.7125 -11.93307,-5.61604 -0.43504,-0.79426 -0.95182,-1.55878 -1.64364,-2.25763 -2.61686,-2.54754 -6.00767,-4.89167 -9.10777,-6.80292 -2.87513,-2.33014 -15.18606,-11.65765 -18.6057,-14.0061 -1.74162,-1.55625 -3.56725,-3.8355 -5.04449,-5.28168 0,0 -13.2378,-15.06073 -17.47138,-22.12136 -2.89509,-4.21786 -28.81481,-29.37842 -38.959,-39.73388 2.64777,-3.54817 11.46003,-13.79002 12.45292,-16.89881 0.93502,-1.33138 1.71193,-2.85433 2.33486,-4.53805 -9e-5,-10e-4 0.001,-0.0156 0.002,-0.0201 2.24717,-1.34239 6.38566,-3.73055 7.03688,-6.0637 1.46999,-2.52309 3.91117,-5.45535 3.10239,-8.56755 -0.92495,-2.81882 -0.90051,-7.36625 -3.69665,-8.99532 -6.28474,-4.06181 -10.61979,-10.7672 -11.30916,-13.69597 0.84057,-0.50615 1.15145,-1.43214 1.07224,-3.12972 -0.28048,-2.66544 0.39401,-5.56375 -1.20533,-7.81808 -1.17739,-1.69715 -4.27619,-2.86424 -5.49195,-4.59144 0.5161,-1.5445 0.47577,-3.2328 -0.32033,-5.01988 -1.48212,-1.39699 -3.95486,-3.09181 -6.03979,-3.68703 0.23065,-0.21101 0.45546,-0.43801 0.64873,-0.67217 -1.23272,-2.22448 -4.64472,-3.45734 -4.13281,-6.39689 1.04981,-2.36422 2.16323,-6.59952 -0.13474,-7.53937 5.00918,-7.27398 5.74486,-10.47389 11.81974,-18.65995 5.11781,-6.89555 6.81004,-21.06903 7.60411,-25.49034 1.15986,-8.60017 -1.80897,-17.76986 -3.99126,-20.40398 -2.47112,-2.64453 -5.02502,-5.29328 -8.76461,-5.8794 -0.34027,-0.0295 -0.69254,-0.0512 -1.04841,-0.0738 0.0241,-2.24688 -0.39124,-8.09511 -2.73739,-13.35252 -0.65104,-1.49155 -2.11752,-2.76786 -3.87382,-3.85779 -0.006,-0.007 -0.0305,-0.0365 -0.0367,-0.0439 -0.0118,-0.007 -0.0266,-0.0165 -0.0385,-0.0237 -2.61191,-2.90537 -7.76611,-10.14849 -7.85791,-13.04123 -0.19683,-3.48578 0.0589,-7.88985 -0.40065,-11.3573 -0.56135,-2.68182 -6.60789,-7.56256 -10.32239,-14.74358 1.9e-4,-8.4e-4 0.001,-0.0155 0.002,-0.0201 -0.003,-0.004 -0.0151,-0.0183 -0.0183,-0.0219 -0.32453,-1.61479 -0.75475,-3.36624 -1.33416,-5.25292 -1.67172,-7.05859 -8.35672,-14.23384 -11.05283,-16.7772 -2.57358,-2.01791 -8.172,-7.18611 -15.8361,-7.79245 -0.0763,-0.006 -0.14359,-0.0171 -0.2214,-0.0199 -0.0195,-7.1e-4 -0.04,-0.005 -0.0604,-0.005 z m -1.67109,0.98617 c 0.0219,5e-5 0.0395,0.005 0.0604,0.005 0.0838,0.003 0.15771,0.0153 0.24152,0.0217 10.5609,0.7991 13.37055,5.47337 16.06086,7.54886 2.68666,2.52185 8.66675,7.00146 11.6471,16.48563 1.19393,3.02013 2.1585,17.06569 2.186,20.8506 -0.27648,4.60549 1.38733,21.44629 3.22423,24.87988 2.36646,3.22493 7.17606,4.113 10.92778,4.83596 l 0.15665,-0.6149 c -3.7155,-0.71409 -7.25709,-1.73162 -9.62159,-4.92159 -1.82361,-3.40836 -4.42128,-19.81131 -4.13847,-24.41415 -0.0245,-2.69318 0.74857,-6.60913 -0.0233,-12.62195 2.86313,5.76109 7.7717,9.73672 8.29428,12.24855 0.45309,3.46079 0.4393,6.94495 0.62647,10.42399 0.25794,4.65089 4.38762,9.59379 7.06292,12.17858 -3.25748,-1.5882 -6.81295,-2.55844 -8.1356,-2.94187 l -0.16027,0.65515 c 2.41201,0.63823 10.88,3.16451 12.85059,8.05195 1.41228,2.4089 3.02004,9.79156 3.29272,12.59081 -2.73422,-0.14452 -5.76014,-0.21691 -8.24301,-0.84144 -2.87651,-1.14309 -5.19934,-1.86803 -6.39767,-4.67275 2.23221,-0.84127 4.52594,-2.32174 6.74758,-4.64913 l 0.42372,-0.6518 c -2.26276,2.33269 -4.81334,3.89684 -7.38236,4.71389 l -0.29081,0.0753 c -0.011,0.004 -0.0343,0.0133 -0.042,0.0165 -0.0109,0.005 -0.0344,0.0132 -0.042,0.0165 -0.008,0.003 -0.0311,0.0124 -0.042,0.0165 l -0.353,0.0901 c -5.402,1.40347 -10.81619,-0.46732 -13.96358,-5.37226 -1.71415,-3.12001 -4.17903,-16.96076 -5.00071,-20.00765 -0.86127,-3.52433 -5.10628,-18.23506 -7.22185,-21.70846 -2.6876,-4.37829 -9.20179,-18.66426 -14.36129,-20.60452 l -0.40951,0.26757 c 4.55335,2.37151 11.2678,16.6882 13.93371,21.07337 1.59747,2.63607 4.08073,11.72699 5.5522,17.48045 -4.14371,-4.4353 -6.38475,-4.26022 -8.70292,-6.34051 -2.69412,-2.42423 -10.70712,-12.09212 -16.31825,-11.91385 -3.99427,-0.39973 -7.90766,-1.17689 -11.87926,-1.69541 -3.26815,-0.34941 -7.69889,0.67574 -7.20068,-4.54194 -0.77869,-3.243 2.46601,-11.36742 6.16709,-16.48924 0.005,4.7e-4 0.0192,0.002 0.0201,0.002 0.002,-0.002 0.02,-0.0166 0.0219,-0.0183 0.002,4.1e-4 0.0183,0.002 0.0201,0.002 0.005,-0.004 0.0202,-0.0169 0.0219,-0.0183 0.004,-0.003 0.0182,-0.015 0.0219,-0.0183 0.0832,-0.0773 0.19745,-0.22031 0.25212,-0.32228 0.005,-0.007 0.0197,-0.0319 0.0237,-0.0385 1.4e-4,-0.002 0.002,-0.0181 0.002,-0.0201 1.5e-4,-0.002 0.002,-0.018 0.002,-0.0201 2.3e-4,-0.001 0.001,-0.0157 0.002,-0.0201 -3e-5,-0.001 0.001,-0.0156 0.002,-0.0201 2e-4,-0.002 10e-4,-0.0178 0.002,-0.0201 0.002,-0.002 0.0199,-0.0167 0.0219,-0.0183 0.75693,-0.69667 11.20526,-8.83283 17.3905,-9.07031 0.86627,0.005 1.68709,0.0308 2.46813,0.0796 0.0643,0.004 0.1373,-0.002 0.20308,-0.002 z m -21.28147,9.4717 c 0.0145,-0.001 0.0258,0.005 0.0403,0.004 0.002,4e-5 0.0184,0.002 0.0201,0.002 0.002,2e-4 0.0184,0.002 0.0201,0.002 0.002,5e-5 0.0184,0.002 0.0201,0.002 0.002,1.9e-4 0.0184,0.002 0.0201,0.002 0.002,1.9e-4 0.0186,0.001 0.0201,0.002 -4.48726,5.24891 -7.55096,13.80166 -7.01346,17.10308 0.31708,1.75556 0.86541,2.82279 1.5938,3.49079 -0.0325,2.39606 -0.43183,7.36815 -0.98806,9.65009 -0.61787,3.36827 0.80832,6.27805 2.25524,9.23112 1.60936,2.98603 3.90922,4.15 5.45472,7.26626 1.88949,3.57962 4.56605,7.69613 6.94813,10.97122 2.20391,3.05269 5.56304,4.80817 8.08231,7.60359 0.30312,0.29269 0.61967,0.56704 0.96142,0.81672 0.30777,0.53422 0.66755,1.20325 1.01378,1.81559 -2.39748,-0.7005 -6.26775,-1.6175 -7.32796,-2.22012 -3.13568,-1.75431 -15.27812,-9.74107 -17.46649,-12.90964 -5.84885,-7.20369 -8.85577,-17.15467 -9.75066,-20.43409 -1.02572,-3.97992 0.137,-15.08997 2.07187,-20.3669 2.38095,-5.84231 10.3095,-11.65435 14.02448,-12.03036 z m -3.47383,21.51926 c 1.15598,0.27839 2.50573,0.23614 3.92114,0.39259 3.97428,0.48638 7.88822,1.28645 11.87926,1.6954 3.20114,-0.16346 6.19681,1.65553 8.77886,3.91264 -1.06614,0.24566 -3.04814,0.58731 -5.75098,2.58795 -1.35395,1.11495 -2.55515,2.71052 -2.76345,4.11409 l 1.17409,-0.42213 c 1.13538,-1.30049 2.30975,-2.62482 3.66219,-3.72906 2.01032,-1.46647 3.47048,-2.17496 3.96198,-2.32248 0.003,0.004 0.0153,0.0182 0.0183,0.0219 -2.9e-4,0.002 -0.002,0.0182 -0.002,0.0201 0.003,0.004 0.0149,0.0181 0.0183,0.0219 0.005,3.3e-4 0.0197,0.002 0.0201,0.002 0.003,3e-4 0.0183,0.002 0.0201,0.002 3.01364,2.72022 5.42652,5.99862 6.8525,7.2903 3.17308,3.11218 7.74912,2.77632 10.7218,7.13042 0.31899,1.26484 0.57154,2.29769 0.72964,2.94656 0.17911,0.67304 0.44019,1.83404 0.76112,3.27402 -1.3264,6.04395 -5.11616,12.67743 -6.43466,16.07971 -1.28842,1.26066 -3.20676,4.31418 -7.20196,4.06055 -3.47113,-0.6805 -6.81328,-1.16614 -9.39146,-3.64301 -2.51694,-2.78379 -6.13665,-4.55352 -8.32563,-7.60515 -2.17557,-2.97155 -4.89285,-6.78408 -6.60678,-10.02755 1.13832,-0.0127 3.69508,-0.34834 4.38822,-0.74225 0.002,-0.002 0.0198,-0.0164 0.0219,-0.0183 0.8638,-0.69702 2.91019,-3.97552 2.89275,-4.65029 -0.003,-0.007 -0.0134,-0.0351 -0.0165,-0.042 1.9e-4,-0.002 0.001,-0.0179 0.002,-0.0201 -6.5e-4,-0.002 -0.0173,-0.0202 -0.0183,-0.0219 -0.001,-10e-4 -0.0168,-0.0208 -0.0183,-0.0219 -0.003,-1.4e-4 -0.0183,-0.002 -0.0201,-0.002 -0.002,-3.5e-4 -0.0179,-10e-4 -0.0201,-0.002 l -0.11895,-0.031 c 0,0 -3.58515,-1.60526 -6.291,0.69317 -0.0703,0.17568 -1.07563,2.90334 -1.30011,3.85996 -0.98427,-1.67773 -2.44685,-3.0875 -3.78167,-4.88427 1.25867,-0.67371 6.13117,-2.20619 7.67594,-2.33398 5.7e-4,-0.007 0.003,-0.0333 0.004,-0.0403 1e-4,-0.002 0.002,-0.0184 0.002,-0.0201 0.0493,-0.31435 -0.0943,-0.84551 -0.17673,-0.96946 -0.001,-0.002 -0.0169,-0.0202 -0.0183,-0.0219 -0.31865,-0.27925 -0.85757,-0.36874 -1.21896,-0.43406 -1.53265,0.15727 -4.97054,2.62237 -6.64665,3.29882 -0.35482,-0.50889 -0.68981,-1.06644 -1.0081,-1.65276 -1.43185,-2.92567 -2.83947,-6.05318 -2.20054,-9.38853 0.53303,-2.14427 1.62403,-5.92376 1.82561,-8.35755 z m 27.55871,10.10275 c -2e-4,0.002 -10e-4,0.0179 -0.002,0.0201 -2.3e-4,0.002 -0.001,0.0181 -0.002,0.0201 -1.80132,-0.17649 -5.17941,0.24452 -6.50521,2.17534 -0.49331,0.79791 -1.21545,3.78841 -1.30658,4.61007 l -0.002,0.0201 c -0.003,0.0322 -0.006,0.056 -0.007,0.0805 0,0 4.31246,-0.37144 5.76694,-1.40975 0.005,-0.003 0.0174,-0.0144 0.0219,-0.0183 0.005,-0.003 0.0195,-0.016 0.0219,-0.0183 0.64348,-0.62257 2.90282,-4.12172 2.37231,-5.40712 l -0.35868,-0.0728 z m -2.82786,0.53741 c 0.005,3.8e-4 0.0193,0.002 0.0201,0.002 6.5e-4,1.9e-4 0.0155,10e-4 0.0201,0.002 -0.21555,1.23119 1.21876,2.48787 1.87096,2.66353 -0.0353,0.0805 -0.77112,1.34056 -1.19632,1.79978 -1.07813,0.0898 -3.4079,-1.7692 -2.62414,-3.76588 0.54718,-0.26395 1.21177,-0.51998 1.90925,-0.70103 z m -2.4212,0.9797 c -0.90309,2.60001 1.83053,3.69024 2.77973,3.84073 -0.99045,0.68684 -3.7345,1.00359 -4.74458,1.09574 0.0904,-0.85209 0.62741,-3.5696 1.12027,-4.34275 0.18098,-0.17034 0.47386,-0.38349 0.84458,-0.59372 z m -9.60876,6.46177 -0.16825,0.066 c 0.3151,0.56942 1.90316,3.10871 2.16223,4.61714 0.24137,1.09424 0.55112,4.54747 0.78712,5.2444 0.67079,1.28917 1.94041,2.25385 4.05269,1.86522 2.9e-4,-0.002 0.002,-0.0183 0.002,-0.0201 -0.003,-0.007 -0.0136,-0.0347 -0.0165,-0.042 1.8e-4,-0.002 0.001,-0.0181 0.002,-0.0201 2.9e-4,-0.003 0.002,-0.0183 0.002,-0.0201 -0.002,-0.002 -0.0162,-0.0197 -0.0183,-0.0219 2e-4,-0.002 0.001,-0.0178 0.002,-0.0201 -0.005,-3.1e-4 -0.0195,-10e-4 -0.0201,-0.002 -2.03919,0.3963 -3.17986,-0.92955 -3.48166,-1.67193 -0.23472,-0.69411 -0.67098,-4.46234 -0.90091,-5.55895 -0.25676,-1.03969 -2.09369,-3.85339 -2.40349,-4.41562 z m -2.50432,1.90553 c 0.002,-10e-6 0.0182,10e-4 0.0201,0.002 0.003,6.5e-4 0.0173,10e-4 0.0201,0.002 0.003,1.2e-4 0.0185,10e-4 0.0201,0.002 -0.43984,0.91432 0.92707,2.47829 1.56363,2.69681 0.007,0.004 0.0316,0.0193 0.0385,0.0237 0.002,1.6e-4 0.0179,0.002 0.0201,0.002 0.005,3.6e-4 0.0182,0.002 0.0201,0.002 -0.21003,0.31848 -0.42762,0.6381 -0.67222,0.93382 -0.8671,-0.17219 -3.10909,-0.71271 -2.97844,-3.20931 0.51392,-0.25985 1.65574,-0.42073 1.94794,-0.45409 z m -2.31178,0.66491 c -0.21975,2.73219 1.8358,3.31098 3.11752,3.24208 -0.29429,0.33084 -0.59851,0.61986 -0.90832,0.85176 -1.09456,0.60642 -3.30739,0.75492 -4.24191,0.69452 0.0354,-0.25291 0.95572,-3.55605 1.43507,-4.23334 0.004,-0.007 0.0198,-0.032 0.0237,-0.0385 0.002,-10e-4 0.0197,-0.0165 0.0219,-0.0183 0.1652,-0.19262 0.35219,-0.36048 0.55196,-0.49825 z m 19.14633,3.46369 -0.0622,0.0147 c 0.99955,0.45736 2.12505,0.66066 3.21177,0.83614 1.87952,0.13499 3.22976,-0.23825 3.87155,1.84896 0.11033,0.50507 0.56893,0.90601 0.64377,1.41716 l 0.23766,-0.16127 c -0.0744,-0.51345 -0.38622,-1.20073 -0.49591,-1.70823 -0.65446,-2.13099 -1.70909,-1.62894 -3.63725,-1.74676 -1.08043,-0.16884 -2.80003,-0.0139 -3.76941,-0.50071 z m -2.59973,0.0304 c 0.23824,0.40201 0.53889,1.18032 0.35681,1.67545 -0.0233,0.0593 -0.0574,0.12378 -0.0968,0.17392 -0.004,0.007 -0.0197,0.0317 -0.0237,0.0384 -0.004,0.003 -0.018,0.0151 -0.0219,0.0183 -0.0819,0.0532 -0.74044,0.45354 -1.57843,0.40611 -0.82251,-0.0407 -2.59897,0.10035 -2.27364,2.04798 l 0.0568,0.0456 c -0.0319,-0.65002 0.18534,-1.12124 0.51431,-1.43494 0.37176,-0.34441 0.88903,-0.5058 1.38259,-0.48455 0.83879,0.0996 1.5809,0.0603 2.26816,-0.40505 0.0414,-0.0402 0.0818,-0.0901 0.11329,-0.13186 0.086,-0.11989 0.13972,-0.26409 0.1569,-0.3917 0.0675,-0.60704 -0.53015,-1.25763 -0.85432,-1.5578 z m 8.11216,1.62098 c -2.09576,0.89873 -7.64067,5.30863 -8.81348,5.96506 -0.86017,0.52181 -4.35312,1.75167 -5.74455,3.42039 0,0 1.40638,1.87769 3.35518,3.08082 0.72049,0.2983 4.2116,0.8937 5.20384,0.56861 1.94966,-0.62204 4.24488,-2.33261 5.00116,-3.95377 0.58628,-1.03848 1.69705,-5.11394 1.83922,-6.02308 0.0823,-0.92221 -0.39255,-2.62443 -0.84137,-3.05803 z m -0.17136,0.55271 c 0.69598,1.30579 0.57158,1.76251 0.4951,2.62117 -0.14532,0.90672 -1.16679,4.75291 -1.75715,5.78697 -1.5622,2.62877 -3.32287,3.32112 -4.55681,3.75019 -0.98605,0.33559 -3.7161,-0.16852 -4.97703,-0.60911 -0.85669,-0.26302 -2.36359,-1.93166 -2.95214,-2.59828 1.31232,-1.44114 4.70981,-2.82391 5.53245,-3.31769 1.17041,-0.65786 6.53363,-4.97609 8.21558,-5.63325 z m 12.02271,2.35753 c 1.13375,5.0913 2.73621,12.10521 3.93131,14.29157 1.85022,3.97793 8.14037,8.16107 15.16834,6.19052 1.29614,2.83444 3.96633,3.66839 6.88818,4.85881 1.02599,0.27128 2.06099,0.47426 3.10909,0.62403 -2.63823,2.15683 -8.18986,7.33712 -10.80472,13.4556 -2.13089,4.8839 -4.61469,14.71594 -6.58874,17.34411 -2.59928,2.28127 -13.12255,11.3799 -15.6556,14.3795 -1.42471,1.89563 -6.49562,6.01702 -9.20692,12.38169 -0.26692,-1.05664 -0.65644,-1.96807 -0.70434,-3.22833 0.28629,-3.25924 1.09407,-7.22668 1.78851,-10.43038 0.96305,-3.44958 3.1384,-16.45827 3.41209,-19.4756 l -0.75889,0.31737 c -0.23222,3.01038 -3.2248,16.28203 -4.18571,19.73077 -0.6855,3.21358 -0.85134,6.51124 -1.14159,9.77833 0.0641,1.43347 0.36374,3.52379 0.5474,5.20259 -0.61312,3.4504 -4.17516,6.81952 -5.37904,7.93709 -4.54153,-2.24374 -8.72881,-10.55585 -9.77875,-12.88904 -1.43744,-3.16674 -3.98017,-15.20662 -3.47473,-18.24753 0.15392,-2.23389 2.29838,-14.1535 2.6382,-17.86108 0.28663,-3.39709 -0.0846,-6.6482 -0.60042,-10.03615 -0.41034,-2.84026 -2.70589,-9.76178 -3.8235,-12.7805 0.28902,0.007 0.57186,0.0269 0.83063,0.0137 2.89763,-0.19095 5.80678,0.22805 6.00364,-4.04638 0,0 4.19299,0.79905 5.89614,1.21915 l 1.55338,0.0989 c 0,0 -0.6097,-1.05376 -1.26252,-1.75676 2.28374,1.09691 4.95308,1.62849 7.33699,2.11948 3.9131,0.72276 7.14151,-2.36272 8.06537,-4.18591 1.04187,-2.08436 4.56913,-10.17698 6.1962,-15.00552 z m -12.11205,-0.45837 c -0.90215,0.43282 -4.76378,2.98505 -5.48625,3.70733 -0.64399,0.68626 -6.10493,3.4112 -6.6335,3.60434 l -0.27972,0.17778 c 0,0 4.00524,1.04313 5.84971,0.60631 2.04482,-0.68316 3.84027,-2.9281 4.37386,-3.74634 0.53722,-0.68681 2.09382,-3.53193 2.21616,-4.34581 -0.005,-3.6e-4 -0.0192,-10e-4 -0.0201,-0.002 -6.5e-4,-2.1e-4 -0.0155,-10e-4 -0.0201,-0.002 z m -0.41829,0.59141 c -1e-4,0.002 -0.002,0.018 -0.002,0.0201 -0.33662,0.70475 -1.61715,2.98998 -2.15654,3.68163 -1.15983,2.15595 -2.82194,2.93368 -4.07427,3.34714 -1.48514,0.25953 -4.49507,-0.13554 -5.20359,-0.3454 1.63588,-0.63062 6.10925,-2.47204 6.75657,-3.16722 0.85986,-0.73351 4.22853,-3.20514 4.67963,-3.53628 z m -14.64221,2.86509 c -0.0258,1.55938 -0.86028,3.73951 -1.00573,5.32691 -0.0126,0.18394 0.0194,0.35902 0.0975,0.49569 0.003,0.005 0.0152,0.0169 0.0183,0.0219 0.40922,0.62086 1.63135,0.84939 2.14039,1.47037 l -0.0369,-0.26707 c -0.50369,-0.59961 -1.43874,-0.94129 -1.74351,-1.59705 -0.0682,-0.15425 -0.10722,-0.3395 -0.0939,-0.53595 0.15326,-1.60427 0.71851,-3.18715 0.69169,-4.76672 l -0.0679,-0.14812 z m 60.89686,23.4025 c 0.11498,0.008 0.22754,0.0224 0.34215,0.0307 0.131,0.01 0.25158,0.0243 0.38242,0.0343 0.24156,0.0185 0.48393,0.0449 0.72457,0.065 0.0992,0.008 0.20276,0.0185 0.3019,0.0271 3.72784,0.53141 7.08586,3.2383 9.53667,5.86756 2.1718,2.60698 4.52945,10.38323 3.1165,20.20371 -0.77977,4.41803 -1.44009,17.50588 -6.98685,24.49072 -3.44642,4.598 -10.71008,17.25509 -12.65969,20.10623 -3.19569,3.69819 -2.30964,5.31925 -4.37244,8.25064 -2.24696,2.63067 -2.98018,3.20213 -5.39169,8.07799 -1.84591,4.14062 -4.63726,15.74486 -8.51751,23.46059 -1.89069,3.64005 -8.30808,14.71859 -9.43567,17.18998 l 0.055,0.0658 -0.0403,-0.004 c 1.27099,2.53606 1.48304,4.59409 3.15276,6.91758 0.82192,1.01377 2.003,2.32983 2.83625,3.6632 -0.76269,-0.34024 -2.15539,-0.81901 -3.05904,-0.0514 -0.004,0.003 -0.0181,0.0151 -0.0219,0.0183 -0.52514,0.55386 -0.47233,1.7662 -0.40158,2.43922 -0.64555,-0.6335 -1.25592,-1.35795 -2.00025,-2.12732 -1.16993,-1.68132 -4.30277,-3.09204 -5.45762,-4.97385 -0.23951,-1.03409 -0.43659,-2.08176 -0.60913,-3.15892 l -0.36771,0.0279 c 0.46037,2.50333 0.71067,5.20856 1.52711,7.62378 0.75232,1.40777 1.3302,3.30669 1.52227,4.96548 -0.405,-0.37663 -1.95805,-1.41886 -2.98677,-0.85652 -0.15963,0.0694 -0.30099,0.16948 -0.41132,0.2877 -0.29045,0.32203 -0.44293,0.76828 -0.50733,1.13123 -0.44525,-1.36489 -0.73566,-2.9381 -1.29084,-4.15343 -1.1698,-2.22195 -2.64146,-4.14351 -3.47249,-6.52021 l -0.31636,0.13391 c 0.0717,0.19698 0.13668,0.39133 0.21106,0.58704 0,0 0.0275,5.88394 0.82677,7.9667 0.51826,0.98648 1.18089,2.64568 1.408,4.20452 -1.31341,-1.3309 -3.02289,-1.76428 -4.3688,-1.5081 -0.95799,-2.01489 -1.84518,-4.36691 -2.31934,-6.0312 1.45245,-2.61996 3.51386,-6.19663 3.76292,-6.88512 1.20021,-2.83122 3.62629,-5.9632 2.32803,-8.98199 -0.53486,-1.9559 -1.23603,-3.89531 -1.8288,-5.84513 0.72989,-2.8009 3.95666,-13.77103 4.87278,-17.21411 1.45191,-4.1824 6.33136,-20.30533 9.6942,-24.81577 3.7999,-5.0132 7.41499,-18.03501 9.38653,-21.8406 1.71381,-3.34574 6.79374,-16.23596 7.37504,-19.32273 0.45983,-3.69722 -0.0382,-6.80916 0.75662,-10.46213 0.89043,-2.8233 2.80821,-6.12021 3.62519,-8.96698 l -0.34528,0.45594 c -0.81147,2.85359 -3.28993,5.58912 -4.1673,8.45166 -0.7785,3.65957 -0.35254,7.61002 -0.8325,11.30747 -0.11072,0.58286 -0.40105,1.49893 -0.80388,2.62629 -2.47372,-4.87155 0.0791,-16.6591 0.81418,-19.46535 1.3738,-4.6815 9.55464,-15.95167 11.99465,-17.67036 0.79954,0.0766 1.61401,0.12052 2.41884,0.17656 z m -3.60453,-0.3033 c 0.15459,0.0182 0.30811,0.0248 0.46292,0.0416 -3.06966,1.95902 -11.25496,13.95294 -12.15954,17.47297 -0.74576,2.77329 -4.61811,15.86377 -1.09036,22.76797 -1.91824,4.80915 -4.67283,10.94855 -5.80677,13.15359 -1.91638,3.72783 -4.90283,15.09054 -9.22757,21.65198 -2.03652,-0.34927 -7.70856,-1.84703 -9.51843,-2.68053 -2.34799,-1.14128 -5.3624,-5.72062 -6.4169,-8.75259 l 0.12076,0.0109 c 0.0758,-9.03484 9.33506,-15.38661 11.17668,-17.82496 2.52628,-3.00225 13.01764,-13.36779 15.5901,-15.68388 1.94655,-2.66798 3.58616,-11.66898 6.1573,-17.05821 2.28965,-4.63314 7.98058,-10.76102 10.71181,-13.09874 z m -57.28928,-4.14888 -1.28867,1.02051 c 1.06831,1.67138 8.63452,4.31312 11.23716,5.00575 1.35311,0.31107 2.44288,1.12103 3.56423,1.88224 l 0.49002,-0.26034 c -1.12859,-0.77126 -1.62167,-1.91711 -2.98466,-2.236 -2.63599,-0.71837 -10.31943,-3.23858 -11.01808,-5.41216 z m -16.71619,-1.37893 c 0.0459,0.002 0.0949,0.0102 0.14089,0.0127 0.0949,0.005 0.18654,0.0193 0.28178,0.0253 0.14987,0.009 0.29239,0.0283 0.44278,0.0398 1.71518,0.1308 3.45794,0.39078 5.05934,0.59622 2.40684,3.43944 4.88517,20.45065 4.85637,23.42356 -0.13964,2.10274 -1.79504,8.02706 -2.87541,11.91535 -0.18179,-2.46106 -0.3259,-4.58384 -0.40521,-5.65647 -0.47788,-3.49436 -2.56291,-16.08097 -3.09307,-18.88281 l -0.66549,0.4069 c 0.58814,2.79944 2.38364,15.24962 2.86238,18.74038 0.10994,1.50686 0.23576,5.07547 0.39041,8.75938 -0.001,0.007 -0.003,0.0321 -0.004,0.0402 -1.7e-4,0.003 -10e-4,0.0179 -0.002,0.0201 l 0.0363,1.40322 c 0.005,-0.004 0.0207,-0.0175 0.0219,-0.0183 0.1644,3.77993 0.3551,7.42256 0.56253,8.87627 0.45455,2.49562 1.05267,12.55464 1.3521,17.93525 -0.27545,-0.6416 -0.50209,-1.16515 -0.67498,-1.52142 -1.13164,-2.63838 -3.12797,-4.83418 -4.40837,-7.39551 l -0.642,0.14526 c 1.3339,2.56554 2.43031,5.26502 3.56921,7.92885 1.31701,2.73711 6.59454,14.52481 7.69676,17.77442 1.2562,4.42106 10.42546,26.91575 11.50865,30.00606 0.24679,0.40362 0.49772,0.7943 0.72944,1.14081 -2.10536,-0.40764 -6.35019,-0.8371 -7.19434,-0.54441 1.30316,0.29914 6.33798,1.12024 7.88147,1.47853 1.26903,1.72014 2.45223,2.89767 4.31762,4.79035 0.64761,2.28496 1.15131,4.53381 1.78051,6.83497 1.28042,2.992 -0.13552,5.34509 -1.92057,8.51133 0.17665,-2.18487 0.61935,-6.4411 0.66673,-7.42683 l -0.35324,-0.13316 c -0.0379,1.09861 -0.94469,7.27956 -1.16584,9.37037 -0.99281,1.98012 -2.53255,4.90114 -3.04297,6.09761 0.0106,-1.17208 -0.0422,-2.33232 -0.21432,-3.48869 -0.25563,-2.95823 -0.6847,-5.78449 -0.4526,-8.74467 0.0245,-2.88286 -0.1583,-5.87128 -0.70316,-8.66572 l -0.37312,0.0882 c 0.61315,2.77499 0.49051,5.82727 0.45621,8.70442 -0.24857,2.96514 0.0409,5.92928 0.29725,8.89304 0.25044,1.65014 0.26735,3.27379 0.18848,4.9066 -0.69482,-0.28193 -2.73919,-0.80877 -3.43372,0.28013 -0.44933,0.6233 -0.52004,1.6677 -0.50222,2.43019 -0.12188,-0.21933 -0.24855,-0.45553 -0.36303,-0.70213 -0.42534,-1.29576 -0.44331,-3.40375 -0.42278,-5.0088 0.56551,-0.53267 0.90017,-1.47915 0.8142,-3.19345 -0.17287,-3.04949 -0.1484,-5.73521 -0.6118,-8.77926 -0.32864,-2.77257 -1.18607,-5.53139 -1.85892,-8.22167 l -0.36024,0.17055 c 0.74678,2.67986 0.99243,5.55564 1.32117,8.33571 0.37227,2.54456 0.55493,5.42063 0.71531,8.07842 -0.5468,-0.9677 -1.89039,-2.67195 -3.14593,-2.47364 -0.9883,0.13886 -1.48537,1.08045 -1.77975,1.97058 -0.36184,-3.09421 -0.85893,-6.13863 -1.62022,-9.07267 -0.51433,-2.44528 -2.00608,-2.6609 -6.58602,-4.6085 l -1.48865,0.5359 c -1.35327,2.3286 -3.86037,3.01875 -5.99927,4.67574 -0.4833,0.53236 -1.02864,0.93836 -1.5867,1.17635 0.34887,-0.34512 0.69398,-0.84828 0.88793,-1.07677 3.4e-4,-0.005 10e-4,-0.0188 0.002,-0.0201 0.0322,-0.22639 0.12158,-2.28359 -0.0325,-2.80282 1.43771,-1.62285 3.33806,-3.10559 4.80014,-3.74864 2.60428,-1.9011 2.14026,-3.69376 2.10553,-6.72957 0,0 -3.24726,-10.69183 -4.46932,-14.40073 -1.65529,-3.95736 -8.03405,-18.69051 -9.33181,-22.16164 -1.29067,-3.55367 -5.63882,-19.24101 -5.69426,-21.77421 -0.49493,-6.791 -1.74602,-10.51755 -3.13358,-19.10963 -0.84342,-5.71263 0.0477,-20.65254 0.24252,-25.0759 0.49229,-3.16406 3.85141,-9.94763 7.30314,-13.32359 1.69157,-1.57706 4.42692,-1.8985 7.31982,-1.75728 z m 7.49108,0.8551 c 0.21543,0.0222 0.41757,0.0387 0.62394,0.056 1.09034,2.89566 3.61712,10.45301 4.03635,13.34741 0.52095,3.37974 0.7458,6.2289 0.45541,9.61736 -0.3388,3.70615 -2.50778,15.62031 -2.65831,17.85927 -0.50769,3.05549 2.22019,15.72961 3.65842,18.91327 1.08207,2.41665 5.39327,11.71412 10.98999,12.95721 0,0 1.33888,-0.59245 1.76449,-0.89664 0.24099,2.3969 -0.64918,4.4278 -2.36613,6.01636 -2.55209,1.71166 -5.56691,3.25791 -9.13957,3.94745 -1.16493,-3.14949 -3.26249,-8.62298 -4.75967,-12.29644 0.0639,-4.06647 -0.49708,-17.98456 -1.02612,-20.88848 -0.2616,-1.83695 -0.68773,-7.22442 -1.03981,-11.92192 1.31611,-4.07969 3.43285,-10.52313 3.57163,-12.66441 0.57054,-6.62004 -2.2715,-19.56033 -4.11062,-24.04645 z m 55.24572,70.75727 c -0.0451,0.91454 -0.1773,1.81935 -0.42507,2.70088 -0.51225,1.42788 -1.71859,2.76492 -2.16507,4.22866 -0.29147,1.06601 0.22329,2.07402 0.30363,3.17208 l 0.2761,-0.13753 c -0.0818,-1.09172 0.0369,-2.1573 0.32935,-3.2167 0.45036,-1.46415 1.5352,-2.6835 2.03346,-4.11874 0.24332,-0.88709 -0.12604,-1.68535 -0.0706,-2.60335 l -0.28177,-0.0253 z m -33.19062,-2.51298 0.0604,0.005 c 0.90622,3.17475 3.1407,8.76699 5.61694,9.97928 1.63234,0.77589 7.59861,2.03154 10.28301,2.52598 -0.58251,0.94694 -1.1937,2.23137 -1.81438,3.71235 -3.1915,-0.13773 -9.93313,0.43059 -12.63278,0.14412 -3.10177,-0.39344 -7.47692,-0.80911 -10.14393,-2.4932 l -0.24308,0.22165 c 2.74353,1.5975 5.87905,2.88199 8.9977,3.28302 2.67561,0.28374 10.48296,-0.82036 13.86519,-0.7639 -2.70129,6.58318 -5.53017,16.76963 -6.6443,19.997 -0.86009,3.24593 -3.69104,11.73445 -4.62113,14.86287 -2.09326,-1.90253 -4.40551,-4.60702 -5.69523,-6.39513 -1.41169,-3.0098 -9.81049,-25.34107 -11.0638,-29.76324 -0.10089,-0.29991 -0.22744,-0.69143 -0.38548,-1.13022 3.25435,-0.67473 8.28072,-2.31837 10.73091,-4.27124 1.788,-1.71702 2.21195,-4.77273 1.8248,-7.44462 0.7324,-0.74935 1.37116,-1.59548 1.86517,-2.47014 z m 44.05415,7.16057 c 0.005,3.4e-4 0.019,10e-4 0.0201,0.002 0.11355,0.0462 0.21979,0.11913 0.30758,0.18993 0.0311,0.0261 0.0655,0.0605 0.0934,0.0895 0.0274,0.0296 0.0673,0.0772 0.0916,0.10967 0.96176,1.3279 -0.50912,4.92807 -1.42458,7.05447 -0.52193,2.98358 3.3855,3.70805 4.62078,5.93347 -0.38437,0.98851 -3.53202,1.2934 -6.37698,2.32886 l -1.11631,1.3606 c 2.67195,-0.42511 5.15652,-1.17285 6.94956,-2.37891 2.0552,0.50041 4.36799,1.78581 5.82512,3.14024 1.3324,3.03692 -0.26581,5.66809 -2.38786,7.84043 -1.51624,0.7844 -4.41443,1.75388 -7.03271,4.88729 l 1.54721,-0.51035 c 2.94679,-2.61902 3.00128,-2.03848 7.40298,-4.26567 0.66419,-0.71062 1.19408,-1.46727 1.58365,-2.27224 0.8741,1.63064 3.32814,2.41013 4.53644,4.16074 1.58031,2.23051 0.75644,5.388 1.02444,8.02502 0.18923,1.59457 -2.19713,2.62335 -2.93682,2.88117 l -0.22837,0.28384 c 1.2301,-0.0646 2.19663,-0.16239 2.91584,-0.38749 0.0121,0.0612 0.0299,0.12381 0.0441,0.18656 0.12959,0.81147 0.007,1.66599 -0.12884,2.56516 -2.88614,1.87146 -15.11254,1.56775 -17.8429,2.13138 -7.69986,0.55025 -19.50114,7.90281 -23.48489,10.51153 2.65162,-4.72377 6.66806,-11.64069 7.99187,-14.21535 1.6814,-3.44032 6.69736,-19.33989 8.53943,-23.47891 2.56339,-5.15252 1.61421,-3.84663 4.91146,-7.24866 1.97618,-2.8159 2.13333,-5.75376 4.55464,-8.92412 z m -5.36781,3.29189 -0.44254,0.18346 c -0.28032,0.82499 -1.32805,1.53819 -1.61281,2.37106 -0.25475,0.75487 0.32929,1.55531 0.43989,2.33217 l 0.42241,-0.18526 c -0.10661,-0.76858 -0.0333,-1.50739 0.2225,-2.25241 0.28808,-0.83711 0.70005,-1.61394 0.97055,-2.44902 z m 16.37355,26.89221 c -2.72918,-0.008 -4.49281,0.49546 -7.27466,1.25411 -3.67072,1.37015 -6.03528,3.72645 -9.27277,5.88325 -1.65371,1.22668 -2.90684,1.88564 -4.35786,3.34199 l 0.50704,0.22812 c 1.45417,-1.44875 3.51568,-1.88408 5.18692,-3.08496 2.83881,-1.88578 5.56028,-4.53419 6.96486,-5.03541 2.81531,-0.79042 5.49856,-1.63402 8.26529,-2.11876 l 0.12206,-0.45569 c -0.0219,-2e-4 -0.0562,-0.004 -0.0805,-0.007 -0.009,-10e-4 -0.0294,-0.003 -0.0403,-0.004 -0.003,-1.6e-4 -0.0162,-10e-4 -0.0201,-0.002 z m -83.97785,-6.76798 c 0.74902,1.80494 1.3876,3.31516 1.77028,4.23703 1.03343,3.14873 3.70403,10.27343 4.75139,13.06669 l -0.042,0.0165 c -0.0112,3.49659 -0.41378,5.6579 -3.28093,7.61822 -0.62896,0.28359 -1.292,0.74376 -1.94332,1.30665 l 0.0475,-0.0769 c -4.06946,2.00636 -10.29915,12.28044 -11.66691,16.27956 0.31429,-3.61088 1.10384,-11.26015 1.89702,-14.80309 1.09541,-3.20506 3.13615,-5.6114 4.74893,-8.60234 1.27583,-3.04669 3.11644,-14.48244 3.71812,-19.04234 z m 89.14165,17.27467 c 1.73497,3.84595 5.92787,9.03399 10.61018,11.98981 -2.31932,-1.00576 -6.1606,-2.2044 -8.04164,-3.98848 -2.65258,-3.02416 -2.5015,-5.62484 -2.56854,-8.00133 z m -0.97362,1.35312 c -0.28851,2.05958 -0.35446,4.42987 2.09945,7.35055 0.76082,0.91233 1.58506,1.60345 2.44485,2.14695 2.20775,6.22653 4.48619,16.87911 -2.45893,29.19851 -1.71996,2.94514 -6.03089,9.59738 -11.89473,15.42724 -8.75817,-6.97687 -25.78661,-18.68318 -25.98898,-21.48607 l -0.19199,0.1045 c 0.19905,2.86149 10.67623,11.13082 26.27252,23.07378 4.98754,3.81925 33.54619,33.21278 38.70794,39.36643 4.59302,7.20281 15.52823,18.80509 17.8445,22.03312 0,0 3.18376,3.75184 5.03185,5.42257 3.42262,2.34681 15.34351,12.25676 18.20752,14.59931 3.0874,1.918 6.03809,3.82583 8.66086,6.35702 0.40121,0.39882 0.76316,0.811 1.10824,1.2154 -5.09003,0.0228 -17.99248,2.82389 -22.17233,4.70493 -2.23096,-2.47054 -4.75027,-4.82612 -7.47569,-6.6767 0,0 -7.28499,-5.57432 -13.7951,-13.35105 -4.91171,-4.27967 -8.45771,-7.86599 -13.48989,-12.00486 -4.23127,-3.24194 -8.64346,-6.24001 -13.52612,-8.43721 -12.78859,-7.40792 -35.50036,-21.25709 -42.98546,-29.68702 -1.90418,-2.42609 -8.37188,-9.84676 -12.54649,-12.56942 -4.1066,-3.27139 -12.65472,-7.91958 -15.00126,-10.53769 -1.88799,-2.28477 -3.77347,-4.7372 -4.29895,-7.71031 0.56878,-0.0839 1.09397,-0.35806 1.4004,-0.90903 1.00282,-2.35506 0.84897,-7.21171 0.83964,-8.22288 0.0187,-0.90878 0.10909,-4.73107 0.57097,-6.36011 0.58452,-0.27247 1.05419,-0.82777 1.28792,-1.69012 0.0848,-1.24979 0.18852,-2.5248 0.23906,-3.79289 0.10515,-0.20039 0.21485,-0.40539 0.3414,-0.6389 0.68397,2.59394 2.30079,6.53002 3.87368,8.60544 0.69954,1.089 1.64799,0.62965 2.54217,0.83689 l 1.23627,-0.43682 c 0.87275,-1.63855 -0.3816,-5.70669 -1.21205,-7.29117 -0.67149,-1.74914 -0.55633,-4.05219 -0.94347,-5.98883 0.69621,1.67982 1.87599,3.28078 2.72603,4.89093 -0.0341,0.97381 1.53377,8.043 5.20235,7.36534 2.66809,-1.10734 0.93758,-6.71151 -0.58159,-9.56781 -0.3714,-1.09819 -0.66804,-2.19571 -0.94226,-3.29028 0.95944,1.68771 3.20106,2.65649 4.35917,4.32744 2.21577,2.07704 4.58739,4.88982 6.92432,4.45626 0.002,-10e-4 0.02,-0.017 0.0219,-0.0183 4.9e-4,-0.005 0.001,-0.015 0.002,-0.0201 2.58342,-3.24324 -0.93244,-6.53564 -2.74501,-8.74758 -1.64123,-2.28543 -1.84499,-3.87647 -3.00208,-6.33596 0.23525,-0.4726 0.57766,-1.14005 1.00408,-1.91848 3.52555,-2.44693 13.37628,-9.14159 23.21656,-11.59066 2.7231,-0.60299 15.5352,0.1706 19.0869,-2.20231 z m -69.37039,-3.14366 -0.002,0.0201 c 0.002,1.3e-4 0.018,0.001 0.0201,0.002 -2e-5,-10e-4 0.001,-0.0156 0.002,-0.0201 -0.001,-7e-5 -0.0188,-0.002 -0.0201,-0.002 z m 1.55379,3.71038 c -0.30059,0.004 -0.546,0.0466 -0.67683,0.0813 -0.004,0.003 -0.0182,0.015 -0.0219,0.0183 l -0.15533,0.14837 c 0.93447,-0.08 4.58076,0.67299 4.9202,2.14599 l 0.29623,-0.13572 c -0.43515,-1.67496 -2.70383,-2.17632 -4.08055,-2.23293 -0.0538,-0.002 -0.10971,-0.0136 -0.16101,-0.0145 -0.008,-5.2e-4 -0.0331,-0.003 -0.0403,-0.004 -0.003,-2.4e-4 -0.0175,-0.002 -0.0201,-0.002 -0.0205,-4e-5 -0.0403,-0.006 -0.0604,-0.005 z m 73.61675,9.6319 c 2.48774,1.14865 5.03162,1.23894 6.57709,1.54404 1.58749,2.55785 1.24172,5.30518 2.04318,7.75127 0.74536,3.05313 -1.53199,5.14911 -2.93877,7.64895 -0.19455,2.18373 -3.39641,4.14046 -5.36735,5.32084 2.12822,-6.59515 1.99647,-15.11618 -0.31415,-22.2651 z m -86.08925,-2.00697 c 2.24236,0.86506 4.2056,1.29361 5.80138,3.17868 1.93162,2.74472 2.0158,7.41077 2.37209,10.64157 0.18981,1.32662 -0.46431,3.83501 2.59884,4.04767 0,0 1.71127,-0.27835 2.41062,-0.63574 0,0 -0.2274,3.56217 0.28936,5.13884 0.46098,0.99722 1.08107,1.72328 1.73318,2.16422 -2.47632,2.29435 -6.30965,11.30269 -8.87097,13.38573 -2.92819,2.47756 -4.10352,6.1148 -5.38632,9.60015 -0.86735,3.67352 -1.60664,7.34513 -2.60935,10.98565 -3.33454,9.61706 -7.33118,19.0212 -11.66442,28.23008 -2.85765,5.88253 -6.29265,11.38944 -10.66984,16.24732 -3.31235,3.75574 -13.5428,17.93609 -15.56705,21.52922 -1.7704,3.29758 -2.45531,7.36359 -2.77398,11.01144 -0.44612,3.47455 0.95523,10.12617 -0.30333,13.32303 -1.82724,1.61762 -2.51573,2.85735 -5.84157,3.3711 -5.17803,0.58539 -8.5522,4.40214 -10.74053,7.09057 -7.06788,-2.86857 -22.334604,-4.35315 -26.183543,-4.1766 5.103774,-4.21055 10.820364,-8.07345 12.395657,-9.25495 3.24325,-2.27921 6.134704,-3.38089 7.820576,-7.10924 1.40532,-3.80544 5.39755,-7.74177 6.95576,-11.48818 1.78863,-4.1696 6.24931,-13.92914 8.8321,-25.15692 0.84897,-4.0185 1.24421,-8.08113 2.0208,-12.11381 1.66329,-9.61536 6.35586,-18.30407 8.53603,-21.6329 1.91252,-2.49209 9.90677,-23.18529 10.74239,-26.54769 1.12939,-3.37489 9.77182,-18.90416 10.51399,-24.68131 2.56191,-4.66432 5.42867,-11.29909 8.11598,-14.46797 -0.81378,1.25139 -1.25922,2.47215 -1.09598,3.16817 0.008,0.0302 0.0211,0.076 0.0312,0.10424 0.005,0.0111 0.0118,0.0312 0.0165,0.042 l 0.74495,0.29006 c 1.80552,1.00415 3.33919,-1.36868 3.92946,-1.9602 1.86952,-1.41597 4.4037,-2.47433 5.84598,-4.32429 z m -7.83023,1.79262 c 0.0418,0.71634 -0.13658,2.17333 -0.40132,2.66242 -0.008,0.0143 -0.76492,0.9785 -0.96278,1.23237 -0.17592,0.0191 -0.36568,0.0163 -0.54704,-0.009 -0.0571,-1.0942 0.75185,-2.52946 1.91114,-3.88625 z m 37.70754,3.95322 c -0.007,0.003 -0.0347,0.0135 -0.0421,0.0165 -0.002,-2.7e-4 -0.0184,-0.001 -0.0201,-0.002 -1.06496,0.0504 -2.34011,0.9421 -2.81319,2.18214 l 0.27248,-0.0973 c 1.3e-4,-0.002 0.002,-0.0183 0.002,-0.0201 10e-4,-6.5e-4 0.017,-0.0142 0.0219,-0.0183 1e-5,-0.002 0.002,-0.0184 0.002,-0.0201 0.2639,-0.54203 2.36757,-2.74003 4.04657,-0.32656 l 0.0617,-0.46111 c -0.22105,-0.86734 -0.80537,-1.24679 -1.49065,-1.24973 -0.002,0 -0.0162,-0.001 -0.0201,-0.002 -0.002,-2.9e-4 -0.0184,-0.002 -0.0201,-0.002 z m -19.10687,5.5888 c 0.0121,-0.002 0.0274,0.005 0.0403,0.004 0.004,-2.6e-4 0.016,0.002 0.0201,0.002 0.0171,10e-4 0.0435,0.003 0.0604,0.005 0.004,4.1e-4 0.0164,10e-4 0.0201,0.002 1.21005,0.0682 2.49344,1.81808 2.84428,2.66974 0.0162,0.26871 0.0141,0.53176 0.0301,0.79399 -0.26272,0.96814 -0.71439,2.17483 -2.91022,2.13286 -2.11424,-0.16728 -1.8944,-2.20915 -2.03479,-3.55067 0.23417,-0.77772 0.64534,-1.76913 1.82542,-2.02735 0.0373,-0.005 0.068,-0.0246 0.10425,-0.0312 z m 29.88529,6.33495 c 0.003,-6.5e-4 0.0167,0.003 0.0201,0.002 0.004,-4.5e-4 0.0162,0.002 0.0201,0.002 0.004,-1.8e-4 0.016,0.002 0.0201,0.002 0.0171,10e-4 0.0435,0.003 0.0604,0.005 0.004,3.9e-4 0.0164,10e-4 0.0201,0.002 0.57569,0.0317 1.15882,0.21119 1.49145,0.33678 0.88946,1.50129 1.33049,3.03852 0.14541,4.03031 -0.79224,0.66304 -2.57195,-0.7499 -3.48888,-1.59143 -0.11167,-0.60397 0.0175,-1.72484 0.54247,-2.42657 0.28627,-0.25477 0.68803,-0.34596 1.1266,-0.34522 0.004,1e-5 0.0166,0.002 0.0201,0.002 0.003,-5.5e-4 0.0169,0.003 0.0201,0.002 0.003,-6.5e-4 -0.001,-0.0194 0.002,-0.0201 z m -23.66449,2.11599 c 0.009,-10e-4 0.011,0.003 0.0201,0.002 0.001,1.8e-4 0.0188,10e-4 0.0201,0.002 0.008,1.8e-4 0.0324,0.003 0.0403,0.004 0.003,3.1e-4 0.0177,0.001 0.0201,0.002 0.50628,0.0104 0.94479,0.16086 1.19136,0.28955 0,0 -0.0398,2.09057 -0.12267,3.17439 -0.56801,2.28005 -2.08401,1.85106 -3.37565,-0.14073 0.0283,-0.62635 0.18042,-1.97337 0.50764,-2.49057 0.13735,-0.10491 1.1325,-0.76876 1.69869,-0.84167 z m 14.13011,2.16123 c 0.002,1.6e-4 0.018,0.001 0.0201,0.002 0.97054,0.0111 1.7962,0.70759 2.17652,1.06783 0.57907,1.61067 0.086,2.58731 -0.77781,3.01412 -0.0118,0.009 -0.0382,0.0319 -0.0438,0.0367 -1.59939,-0.0572 -2.39509,-1.00657 -2.92067,-2.27083 0.0436,-0.33414 0.16846,-0.9358 0.55095,-1.39107 0.005,-0.004 0.0206,-0.0171 0.0219,-0.0183 0.005,-0.004 0.0202,-0.0171 0.0219,-0.0183 0.20681,-0.14029 0.84648,-0.38988 0.95088,-0.42186 z m -8.20852,2.16444 c 0.0189,-3.8e-4 0.0443,0.006 0.0604,0.005 0.005,-2e-5 0.0153,0.002 0.0201,0.002 0.009,6.1e-4 0.0336,0.003 0.0403,0.004 0.005,6.5e-4 0.0171,10e-4 0.0201,0.002 1.19389,0.0801 2.99679,0.71406 3.76731,1.88018 0.0254,0.46586 -0.003,0.91058 -0.0973,1.31006 -0.6782,0.0979 -1.51722,0.36128 -2.11489,0.0536 -0.16009,-0.0862 -0.31241,-0.21748 -0.43039,-0.40384 -0.52743,-0.68673 -1.10123,-1.69632 -1.65343,-2.8266 0.0749,-0.008 0.2557,-0.0233 0.38783,-0.0261 z m -7.24238,0.66863 c 0.38538,0.17911 0.78204,0.27373 1.15291,0.26581 -0.10631,0.80024 -0.46803,5.15519 -0.48529,6.08375 0.006,0.53886 -0.004,2.52186 -0.0683,4.37633 -0.36595,-0.37517 -0.8963,-0.71025 -1.19572,-0.91891 -0.78787,-0.46442 -1.63352,-0.73061 -2.38968,-0.2754 -0.54421,0.46384 -0.36877,1.31825 -0.40209,1.99282 -0.13882,-0.4374 -0.8979,-3.54663 -0.94893,-4.34591 1.56275,-2.77902 3.26395,-5.82021 4.33706,-7.17849 z m -1.91932,9.62734 c 0.016,-0.001 0.0239,0.004 0.0402,0.004 0.0167,6.5e-4 0.0435,0.003 0.0604,0.005 0.003,2.5e-4 0.0166,0.002 0.0201,0.002 0.29966,0.005 0.65437,0.0882 0.96635,0.30992 0.36977,0.25347 1.09147,0.76856 1.40833,1.26263 -0.0594,1.4325 -0.14862,2.70335 -0.31128,3.01542 -0.004,0.006 -0.0197,0.0316 -0.0237,0.0385 -0.003,0.003 -0.0174,0.0145 -0.0219,0.0183 -0.0114,0.01 -0.037,0.0309 -0.0439,0.0367 -0.1563,0.0473 -2.26502,0.46601 -2.95323,-0.32599 -0.004,-0.005 -0.0169,-0.0201 -0.0183,-0.0219 -0.17023,-0.23742 -0.40957,-0.9329 -0.62956,-1.80138 l 0.10425,-0.0312 c 0.0625,-0.21784 0.14075,-0.43031 0.18039,-0.65335 0.0407,-0.67802 0.12451,-1.25756 0.6823,-1.72419 0.0986,-0.0473 0.30021,-0.11958 0.53956,-0.13417 z m 106.97684,92.74854 c 2.67243,2.9741 5.78894,6.19484 8.25262,7.74062 3.33497,2.27078 6.81958,5.5742 9.38975,8.63398 2.35377,2.77185 4.80354,5.18195 7.67772,7.36438 2.26213,1.96673 4.48153,3.70322 7.33434,4.6351 3.9342,0.63263 7.93243,0.94058 11.90611,1.1703 1.27369,-0.13045 3.58513,-1.77694 3.54811,-2.68427 6.4e-4,-0.007 0.003,-0.0333 0.004,-0.0403 -0.003,-0.0173 -0.0102,-0.0455 -0.0147,-0.0622 -0.005,-0.0111 -0.0143,-0.036 -0.0165,-0.042 -0.004,-0.009 -0.0122,-0.0314 -0.0165,-0.042 -0.003,-0.004 -0.015,-0.018 -0.0183,-0.0219 -0.002,-0.002 -0.0167,-0.02 -0.0183,-0.0219 -0.0251,-0.0341 -0.0619,-0.0832 -0.0916,-0.10967 -0.0201,-0.0141 -0.0564,-0.0348 -0.0769,-0.0475 -0.006,-0.008 -0.0305,-0.0361 -0.0367,-0.0439 l 0.0237,-0.0385 c -0.27641,-0.39472 -0.56046,-0.75693 -0.8355,-1.08946 1.1515,-1.36606 2.52811,-1.777 1.19661,-3.15913 -0.0893,-0.79253 -0.39354,-2.79968 -1.13449,-3.40898 -0.36734,-0.44166 -2.4919,-3.17622 -3.16988,-4.24095 0,0 -0.9218,-1.50172 -1.31799,-2.26897 2.33206,0.92444 8.07324,3.15733 9.87862,4.09252 2.69727,1.49 5.41596,2.01376 4.47552,5.29146 -1.28775,2.59162 -4.04374,3.67288 -6.35513,5.47565 -2.92489,3.14657 -4.62039,3.6516 -6.70447,3.94289 -4.01822,-0.2284 -7.08108,-0.39843 -11.07523,-0.9334 -3.63729,-0.82024 -7.03374,-2.20485 -9.72584,-4.89037 -2.31675,-2.40345 -5.06671,-4.7902 -6.73405,-7.70573 -1.52857,-2.18645 -2.7065,-3.7527 -4.78491,-5.46127 -2.72239,-1.74467 -6.1387,-3.58533 -8.75868,-5.49337 -1.86345,-1.68408 -2.27206,-4.04599 -2.80107,-6.5411 z m 39.60575,9.70315 c 0.86974,1.04803 1.60752,2.12106 2.40947,3.2191 -3.26758,2.57186 -10.8122,8.83991 -12.10469,12.56791 -1.08236,-0.74877 -2.10359,-1.60965 -3.14231,-2.5139 -2.86901,-2.17057 -5.7151,-4.35309 -8.0653,-7.11513 -0.22697,-0.2704 -0.44388,-0.54203 -0.67784,-0.81155 1.48087,-0.67597 8.62774,-3.5908 21.58067,-5.34643 z m 2.72633,3.53159 c 0.39876,0.5446 0.55237,0.84943 1.00967,1.40944 0,0 2.87126,3.92762 3.29449,4.43474 0.003,0.007 0.0139,0.0345 0.0165,0.042 0.11349,0.18177 0.24948,0.62827 0.36536,1.12841 -1.72828,-1.27349 -4.5921,-2.27057 -4.77466,-2.86333 l -0.2743,0.1174 c -3.5e-4,0.002 -0.001,0.0183 -0.002,0.0201 0.002,0.003 0.0167,0.02 0.0183,0.0219 0.27375,0.44952 2.03083,1.56439 3.49532,2.42386 -0.33358,0.22725 -0.95964,0.53874 -1.26157,0.7186 -1.36672,-0.3202 -2.55177,-0.72573 -3.89037,-2.3173 l -0.3672,0.47426 c 1.77198,2.08527 2.97425,2.34082 4.80948,2.92733 -0.22609,0.47017 -1.1149,0.80863 -1.31397,1.30228 -6.5e-4,0.007 -0.003,0.0333 -0.004,0.0402 -6.5e-4,0.007 -0.003,0.0333 -0.004,0.0403 0.003,0.007 0.0134,0.0347 0.0165,0.042 0.003,0.007 0.012,0.0311 0.0165,0.0421 0.003,0.007 0.0136,0.0345 0.0165,0.042 -4.6e-4,0.002 -10e-4,0.0183 -0.002,0.0201 -2.41178,-0.68666 -5.28393,-1.96214 -7.27742,-1.20112 l -0.14244,0.23068 c 1.2489,0.35025 2.87956,0.73732 5.03816,1.28414 l -0.064,0.0349 c -3.4e-4,0.005 -10e-4,0.019 -0.002,0.0201 -0.11261,0.32924 -1.53272,1.64117 -1.11119,2.65957 0.37014,0.82812 2.4627,1.7051 3.78045,2.1857 -2.81314,0.43373 -7.00197,-0.53728 -9.67382,-0.94961 -1.20414,-0.37683 -2.29071,-0.90407 -3.31136,-1.53492 l 0.0403,0.004 c 1.52264,-2.61833 5.72711,-7.72398 11.5574,-12.79964 z m 3.53518,6.95192 c 0.5259,0.30495 0.99153,0.57696 1.29249,0.74499 0.0408,0.20568 0.0748,0.40931 0.10862,0.59814 -1.06796,-0.41994 -1.98407,-0.61035 -2.82936,-0.80181 l 0.30913,-0.0534 c 0.006,-0.006 0.0319,-0.0271 0.0438,-0.0367 0.1749,-0.10299 0.71568,-0.27456 1.07526,-0.45127 z m -0.85802,1.64754 c 0.57661,0.18882 1.22647,0.41332 1.96209,0.74424 0.51129,0.44046 0.80373,0.72872 0.93227,0.91555 0.0111,0.017 0.0265,0.0484 0.0349,0.064 0.005,0.011 0.0137,0.0349 0.0165,0.042 0.003,0.007 0.0137,0.0348 0.0165,0.042 -5.9e-4,0.007 -0.003,0.0333 -0.004,0.0402 -6e-5,0.002 -0.001,0.0161 -0.002,0.0201 -3.1e-4,0.002 -0.001,0.016 -0.002,0.0201 -3.7e-4,0.007 -0.003,0.0332 -0.004,0.0402 -0.004,0.003 -0.0179,0.0151 -0.0219,0.0183 -0.004,0.007 -0.0195,0.0319 -0.0237,0.0385 -0.003,0.003 -0.0184,0.0153 -0.0219,0.0183 -0.005,0.004 -0.0199,0.0168 -0.0219,0.0183 -0.23425,0.16433 -0.80019,0.31449 -1.39499,0.84864 -0.60937,-0.58566 -1.32478,-1.02164 -2.34321,-1.2451 -0.0178,-0.045 -0.0367,-0.0995 -0.0477,-0.14631 -6.4e-4,-0.003 0.003,-0.0149 0.002,-0.0201 -0.003,-0.0118 -0.015,-0.0337 -0.0165,-0.042 5.9e-4,-0.007 0.003,-0.0334 0.004,-0.0403 3e-4,-0.009 0.003,-0.0315 0.004,-0.0402 6.5e-4,-0.007 0.003,-0.0298 0.004,-0.0402 4.9e-4,-0.007 0.003,-0.0332 0.004,-0.0403 0.1873,-0.46445 0.6797,-0.82362 0.92433,-1.2561 z m -3.69543,1.83919 c 0.61088,0.15488 1.26563,0.32168 1.96366,0.50091 1.91019,0.34689 2.05088,1.42125 3.06954,2.87257 -0.30959,0.53939 -1.02378,0.59792 -1.65844,0.84529 10e-6,0 -3.104,0.13885 -4.3306,-1.70757 -0.005,-0.0108 -0.0134,-0.034 -0.0165,-0.042 -0.005,-0.0167 -0.0109,-0.0473 -0.0147,-0.0622 -0.009,-0.04 -0.0249,-0.10135 -0.0276,-0.1445 -0.029,-0.70315 0.74919,-1.78297 1.01468,-2.26244 z m -203.33282,-1.63706 c 0.001,3e-4 0.0156,10e-4 0.0201,0.002 0.11964,0.0104 0.23788,0.0209 0.32023,0.049 0.007,0.004 0.0318,0.0195 0.0385,0.0237 0.002,1.2e-4 0.0179,0.002 0.0201,0.002 0.003,0.004 0.0152,0.018 0.0183,0.0219 0.003,0.003 0.0135,0.0161 0.0183,0.0219 -3.7e-4,0.002 -10e-4,0.0183 -0.002,0.0201 0.003,0.004 0.0149,0.018 0.0183,0.0219 -5.1e-4,0.005 -0.002,0.0186 -0.002,0.0201 -4.2e-4,0.005 -0.002,0.0186 -0.002,0.0201 -3.6e-4,0.003 -0.001,0.0167 -0.002,0.0201 -1.3e-4,0.002 -0.002,0.0184 -0.002,0.0201 -0.005,0.007 -0.0193,0.0317 -0.0237,0.0385 -3.7e-4,0.007 -0.003,0.0332 -0.004,0.0402 -0.003,0.002 -0.0199,0.0167 -0.0219,0.0183 -0.005,0.007 -0.0198,0.0316 -0.0237,0.0385 -0.87611,1.25086 -2.7672,3.29956 -3.15902,3.77423 -3.65422,0.84185 -6.74684,2.5486 -10.05201,4.39307 -2.62404,1.7299 -4.57581,3.89723 -6.25143,6.58056 -1.68801,2.5193 -3.38323,5.03074 -5.30832,7.37535 -2.494587,2.70693 -5.444134,4.54973 -7.042008,4.76473 -3.243016,0.84862 -6.802809,2.02348 -9.965532,3.20377 -3.288118,1.34899 -6.271418,2.60568 -9.835941,1.30822 -3.00241,-1.15565 -5.489532,-2.14532 -6.570527,-5.45925 -1.03539,-2.39707 -2.431653,-4.78874 -1.169988,-7.30768 1.006061,-0.73703 6.670975,-8.22396 9.876177,-9.44055 -2.116152,2.13821 -3.688345,4.19119 -4.09524,5.84083 -0.813752,0.49269 -1.562723,1.0892 -1.964755,1.77138 -0.848257,1.34541 0.315378,4.27597 0.764935,5.0395 -0.103977,1.03948 0.274853,1.96244 1.308958,2.36961 -0.10406,0.23929 -0.174573,0.49284 -0.189422,0.75398 0.436972,4.05457 2.751788,5.70628 6.996805,5.45694 4.910784,-0.69769 6.908277,-2.1785 9.52695,-6.00246 1.79793,-1.36652 4.542659,1.0639 10.47879,-3.94897 2.878828,-2.34108 5.629838,-6.32662 8.100088,-9.09277 1.98925,-1.94573 6.27959,-7.49254 11.0835,-7.9728 2.59124,-0.40224 5.05513,-1.92215 7.09616,-3.78599 z m -6.94658,6.63989 c -3.86015,3.70952 -6.66786,14.16954 -7.02993,15.47849 -0.002,0.003 -0.0199,0.0149 -0.0219,0.0183 -0.002,0.003 5.1e-4,0.0167 -0.002,0.0201 -0.003,0.003 -0.0193,0.0149 -0.0219,0.0183 -0.38777,0.48541 -2.05132,0.82616 -3.45335,0.72473 0.62536,-1.70115 3.46663,-9.94155 4.16434,-12.71265 0.0129,-0.009 0.0107,-0.0294 0.0237,-0.0385 0.47224,-0.32716 0.99127,-0.65439 1.55214,-1.01714 0.49312,-0.38292 2.53281,-1.54921 4.78874,-2.49173 z m -33.697999,0.2008 c 0.06843,0.004 0.131818,0.0136 0.20127,0.018 0.148167,0.01 0.290035,0.0288 0.442793,0.0398 0.162936,0.0117 0.335316,0.0319 0.503172,0.0451 5.727898,0.45443 14.242917,1.80042 20.424624,4.59291 -0.23756,0.28049 -0.45104,0.51564 -0.65234,0.71242 -2.44094,2.78556 -4.85462,5.57372 -7.748346,7.88672 -3.190084,2.90393 -5.349705,3.14468 -7.221043,3.36899 -0.807854,-3.90481 -11.939205,-13.62677 -13.071543,-14.17881 -0.0018,-1.4e-4 -0.01813,-0.002 -0.02012,-0.002 -0.0041,-0.005 -0.01739,-0.0206 -0.01832,-0.0219 -0.0015,-3.5e-4 -0.01578,-10e-4 -0.02012,-0.002 0,0 1.629235,-1.60574 2.635417,-2.46187 0.794646,-0.095 2.42334,-0.12633 4.54457,0.002 z m 25.392119,4.85626 c -0.60926,2.74225 -2.58412,9.54638 -3.08492,11.08497 -0.36592,-0.0902 -0.67704,-0.23818 -0.89513,-0.42527 -0.0346,-0.0307 -0.0823,-0.078 -0.11172,-0.11148 -0.008,-0.01 -0.0289,-0.034 -0.0366,-0.0438 -0.0225,-0.0301 -0.0531,-0.0756 -0.0715,-0.10786 -0.0117,-0.0217 -0.0233,-0.0614 -0.033,-0.0841 -0.0139,-0.0344 -0.0403,-0.0896 -0.0495,-0.12618 -10e-4,-0.006 0.003,-0.0139 0.002,-0.0201 0.19777,-1.15448 2.23312,-6.75865 2.90474,-8.62588 0.44937,-0.58521 0.88834,-1.08543 1.3759,-1.54019 z m -33.005361,-2.09057 c 1.207432,0.64228 10.939496,9.66675 12.2884,14.08822 -0.8026,0.16374 -1.581853,0.44912 -2.411916,1.10227 -2.77335,3.84948 -3.308144,4.63986 -6.529295,5.15567 -2.412623,0.14789 -4.293918,-0.20476 -5.521205,-1.32751 1.717534,-0.42489 7.02997,-1.73746 7.399874,-3.77901 -0.511776,-1.05247 -2.66471,-3.55121 -3.173489,-4.20071 1.876968,-0.71429 3.755931,-1.39832 4.874676,-2.54488 l -0.581073,-0.98547 c -0.473948,1.86539 -4.397287,3.02278 -7.50879,4.54022 0.188383,-0.74167 0.227853,-2.54455 0.129889,-3.25489 1.815943,-0.77886 3.302041,-1.80909 3.533698,-4.1058 l -0.274298,0.1174 c -0.831351,3.29759 -2.871827,2.70995 -4.577438,3.30198 -0.306819,0.0955 -0.605999,0.23299 -0.886889,0.38703 0.297692,-0.55751 0.766537,-1.46477 0.753526,-1.83953 7.76e-4,-0.007 0.003,-0.0332 0.0036,-0.0403 -0.166373,-0.44397 -0.426849,-0.84318 -0.616158,-1.27266 0.998091,-0.38885 1.896622,-0.58563 2.196443,-0.73612 l -0.331568,-0.37468 c -0.133768,0.0147 -1.609557,0.43865 -3.070433,1.20546 0.686046,-1.58264 2.281441,-3.47938 4.302432,-5.43673 z m -3.265117,5.40813 c 0.145877,0.44423 0.179486,0.92236 0.343666,1.36993 0.0031,0.007 0.0135,0.0346 0.01652,0.042 -0.0033,0.39641 -0.539153,1.41091 -0.848489,1.99333 l -1.863869,2.00361 c -0.304962,-0.37901 -0.688219,-2.10286 -0.471609,-2.88282 0.007,-0.0235 0.01973,-0.0543 0.02735,-0.0787 0.0014,-0.004 3.83e-4,-0.0166 0.0018,-0.0201 0.0074,-0.017 0.0173,-0.043 0.02555,-0.0586 0.522485,-1.20633 1.676763,-1.92082 2.769079,-2.36871 z m 1.641531,3.63709 c 0.147255,0.63876 0.236868,2.43504 0.117055,3.2162 -1.264831,0.63683 -2.355517,1.33526 -2.972406,2.14756 -1.407368,-0.92108 -0.479501,-3.25313 0.691935,-4.54352 0.71854,-0.28352 1.458992,-0.54483 2.163416,-0.82024 z m 2.790873,2.36062 c 0.437265,0.50577 3.076683,2.72255 3.593845,3.81236 -0.433456,2.43755 -6.391677,3.11457 -7.415084,3.27042 -0.601375,-0.7732 -0.981756,-1.80173 -1.117729,-3.14371 0.5603,-2.02351 2.664273,-3.04432 4.938968,-3.93907 z"
       id="path2185" />
  </g>
</svg>
