<?xml version="1.0" encoding="UTF-8" standalone="no"?>
<!-- Created with Inkscape (http://www.inkscape.org/) -->

<svg
   xmlns:dc="http://purl.org/dc/elements/1.1/"
   xmlns:cc="http://creativecommons.org/ns#"
   xmlns:rdf="http://www.w3.org/1999/02/22-rdf-syntax-ns#"
   xmlns:svg="http://www.w3.org/2000/svg"
   xmlns="http://www.w3.org/2000/svg"
   xmlns:sodipodi="http://sodipodi.sourceforge.net/DTD/sodipodi-0.dtd"
   xmlns:inkscape="http://www.inkscape.org/namespaces/inkscape"
   width="400"
   height="400"
   id="svg2"
   sodipodi:version="0.32"
   inkscape:version="0.48.0 r9654"
   sodipodi:docname="tg0005.svg"
   inkscape:output_extension="org.inkscape.output.svg.inkscape"
   sodipodi:modified="true"
   version="1.0">
  <defs
     id="defs4">
    <filter
       inkscape:collect="always"
       id="filter3240"
       color-interpolation-filters="sRGB">
      <feGaussianBlur
         inkscape:collect="always"
         stdDeviation="4.8670555"
         id="feGaussianBlur3242" />
    </filter>
    <filter
       inkscape:collect="always"
       id="filter4257"
       color-interpolation-filters="sRGB">
      <feGaussianBlur
         inkscape:collect="always"
         stdDeviation="11.173432"
         id="feGaussianBlur4259" />
    </filter>
    <filter
       inkscape:collect="always"
       id="filter4257-9"
       color-interpolation-filters="sRGB">
      <feGaussianBlur
         inkscape:collect="always"
         stdDeviation="11.173432"
         id="feGaussianBlur4259-9" />
    </filter>
    <filter
       inkscape:collect="always"
       id="filter3240-1"
       color-interpolation-filters="sRGB">
      <feGaussianBlur
         inkscape:collect="always"
         stdDeviation="4.8670555"
         id="feGaussianBlur3242-4" />
    </filter>
  </defs>
  <sodipodi:namedview
     id="base"
     pagecolor="#ffffff"
     bordercolor="#666666"
     borderopacity="1.0"
     inkscape:pageopacity="0.0"
     inkscape:pageshadow="2"
     inkscape:zoom="1"
     inkscape:cx="200"
     inkscape:cy="200"
     inkscape:document-units="px"
     inkscape:current-layer="layer3"
     inkscape:window-width="1298"
     inkscape:window-height="916"
     inkscape:window-x="374"
     inkscape:window-y="24"
     fill="#887fa3"
     width="740px"
     height="480px"
     showgrid="false"
     inkscape:window-maximized="0" />
  <metadata
     id="metadata7">
    <rdf:RDF>
      <cc:Work
         rdf:about="">
        <dc:format>image/svg+xml</dc:format>
        <dc:type
           rdf:resource="http://purl.org/dc/dcmitype/StillImage" />
      </cc:Work>
    </rdf:RDF>
  </metadata>
  <g
     inkscape:groupmode="layer"
     id="layer3"
     inkscape:label="color"
     style="display:inline"
     transform="translate(0,-80)">
    <path
       style="fill:#26c726;fill-opacity:1;fill-rule:nonzero;stroke:none;display:inline"
       d="m 52.968636,279.50013 c 0.03779,1.35866 -0.86583,2.37606 -1.262943,3.61816 4.17733,1.72829 8.707165,2.68619 12.663567,4.89818 3.298169,2.68807 7.653343,3.582 11.571291,5.10297 -2.129456,-0.56415 -4.300741,-1.08013 -6.451251,-1.72375 -1.020627,5.17991 -4.845464,9.49299 -9.352607,12.0833 -7.387833,3.61285 -15.656266,4.76119 -23.491837,6.99817 -4.458292,0.79509 -8.4224,3.36186 -11.123785,6.93331 -4.33949,5.33583 -7.115161,11.7736 -9.24606,18.27357 -2.862628,7.42421 -6.4481923,14.78832 -7.2301714,22.78396 -0.011185,1.26278 -0.072617,3.14694 0.9325211,3.85732 3.4732373,-1.16677 5.0348623,-5.01857 7.4051123,-7.60391 8.689767,-11.02654 17.81644,-21.85775 26.318888,-33.04921 2.294709,-3.72844 5.453901,-6.76314 8.960073,-9.28434 7.512058,-5.54227 15.491189,-10.57382 23.961789,-14.50678 2.243501,-2.076 4.523407,-4.44212 5.923185,-7.30861 0.853329,-1.56647 1.537853,-3.22766 2.115279,-4.92829 -10.111903,1.77031 -21.074027,0.33768 -29.781569,-5.18831 -0.523659,-0.11658 -2.116305,-2.20309 -1.911482,-0.95574 z m 32.990128,5.95632 c -1.234719,4.8555 -4.438335,9.19538 -8.499268,12.06622 -4.888871,2.69818 -10.249496,5.8517 -15.189453,8.92594 -6.139259,3.95161 -12.491277,8.03565 -16.717172,14.04688 -3.511473,3.99438 -6.93961,8.02226 -10.092745,12.31424 -7.056369,9.11598 -14.423612,18.10475 -21.165249,27.39343 0.950265,-0.0274 2.159373,-1.63963 3.12361,-2.38348 7.859807,-7.21712 15.454664,-15.0705 25.019931,-19.84869 3.521086,-3.51975 8.471349,-5.62682 11.520093,-9.65981 1.583307,-4.33496 1.545832,-9.29635 3.584028,-13.44864 5.0554,-3.56371 11.480589,-4.45303 16.862,-7.30459 2.697368,-2.19281 4.806268,-5.2424 8.159149,-6.42099 1.061053,-1.01477 2.098845,0.90127 2.813341,1.61768 3.460918,5.21632 2.889243,12.01004 2.254281,18.01302 -0.310905,2.22171 -0.746297,4.42201 -1.262943,6.60485 1.357114,-0.58895 3.263773,-0.78586 4.317901,-1.53601 0.04724,-4.22538 -0.19732,-8.68006 1.986799,-12.43587 1.453627,-3.15914 2.71082,-6.64307 5.334858,-9.00003 -1.626665,-6.03357 -5.202922,-11.43678 -8.964882,-16.37149 -0.891788,-1.10381 -1.845142,-2.13766 -2.981879,-2.99933 l -0.06373,0.26552 -0.03867,0.16115 z m 6.587785,40.94325 c -3.706303,0.59211 -7.309992,1.76427 -10.803285,3.15736 4.390542,1.44691 9.112203,2.26194 13.585174,2.95256 -5.1975,-0.69058 -10.498284,-1.23231 -15.428389,-3.02083 0.528607,1.12253 1.298093,2.22593 1.433611,3.36216 2.885125,1.97855 6.250518,3.30517 9.113672,5.18831 0.752059,0.65266 1.374318,2.08016 1.501879,2.73069 -1.418156,-3.38673 -5.567,-3.76702 -8.48445,-5.38017 -0.929276,-0.0772 -2.785821,-1.96947 -2.984441,-0.86628 -1.614923,5.34954 -4.906894,10.1517 -7.976646,14.84749 -2.084684,2.68142 -3.96592,6.06037 -7.434675,7.01508 -5.00243,2.64563 -9.16011,6.83167 -12.16863,11.57129 -1.553706,2.81696 -1.042036,6.3122 -1.505139,9.43666 -0.515783,7.57023 -1.088816,15.17727 -0.172476,22.74271 0.521425,6.54078 1.169205,13.0974 1.276029,19.64924 0.407228,2.25595 1.295985,4.41788 2.534936,6.35212 3.29782,-4.27585 4.280141,-9.8173 7.437221,-14.2551 3.719044,-6.34474 8.110701,-12.38087 11.142535,-19.07584 2.032446,-6.02729 4.022413,-12.11798 4.955364,-18.4156 -0.279415,-3.63228 -2.266324,-6.93201 -3.140292,-10.46195 -0.420542,-1.3841 -0.843761,-3.04729 0.392537,-4.2155 4.28043,-6.12622 9.819713,-11.38035 14.216645,-17.44227 0.536089,0.72131 -1.272167,2.01483 -1.720677,2.85514 -4.011556,4.99707 -8.796099,9.44149 -12.171699,14.9114 -0.440094,2.52191 0.821402,5.0504 1.33121,7.49232 0.808142,3.20071 2.299972,6.49221 1.188478,9.83664 -1.32487,5.77293 -2.558355,11.7461 -5.15927,17.0785 -3.909521,7.21408 -8.708339,13.97317 -12.549872,21.19618 -1.329168,3.35295 -2.636927,6.65105 -4.505635,9.72807 3.10388,-1.7819 4.99782,-5.08122 7.35353,-7.71565 6.923147,-8.70644 13.203287,-17.86671 20.224619,-26.37237 2.413743,-3.17424 4.551817,-6.74035 5.155976,-10.7294 2.193223,-3.77276 6.148876,-6.66445 8.123798,-10.42781 3.257853,-3.91848 4.482223,-9.38026 5.715013,-14.32341 1.60679,-7.43875 2.60451,-15.01158 3.02319,-22.60915 -1.30666,-0.003 -2.71618,-1.61517 -2.4109,0.32152 -0.98832,6.62464 -6.138509,11.59216 -10.269735,16.50635 -1.01729,0.91206 0.795155,-1.25995 1.146906,-1.66105 3.904185,-4.91252 8.255609,-10.18222 8.922509,-16.65163 -1.23386,-2.62233 -3.823577,-4.15697 -6.627797,-4.73661 -1.361068,-0.43477 -2.81061,-0.71462 -4.260824,-0.57117 z"
       id="path2715"
       inkscape:connector-curvature="0" />
    <path
       style="fill:#e0c39e;fill-opacity:1;fill-rule:nonzero;stroke:none;display:inline"
       d="m 291.81853,195.22427 c -0.17435,0.002 -0.35481,0.0136 -0.52908,0.0171 -0.34241,0.007 -0.68222,0.0233 -1.024,0.0341 -4.42978,0.24494 -8.88115,0.85653 -13.15851,1.96268 2.84661,4.16072 4.09495,9.24834 4.55684,14.21664 -0.0905,7.54374 2.75726,14.71151 3.9595,22.08445 1.23055,6.30905 1.97368,12.77014 3.37922,19.01241 0.97311,3.50131 2.37517,6.92959 2.33815,10.61555 1.88129,-1.67036 4.08698,-3.28182 5.23951,-5.51257 -1.00719,-5.82615 -2.39265,-11.65009 -2.96962,-17.51054 -1.24622,-1.73574 -2.56882,-3.43469 -3.68643,-5.25658 1.07703,1.30489 2.33651,2.41779 3.56696,3.58403 -0.20839,-2.20128 -0.40429,-4.40373 -0.6144,-6.60485 1.1182,7.80491 2.12327,15.61757 3.61816,23.36445 1.50208,8.86359 3.82534,17.65543 5.87098,26.35114 2.40087,6.93993 4.9923,13.90268 7.66299,20.75323 3.49908,4.15617 9.02562,6.30931 14.31905,7.13393 3.6568,-0.14207 6.78817,-2.59689 8.65287,-5.64912 2.56538,-3.4592 5.98633,-6.25744 8.8406,-9.54034 3.17835,-3.3709 6.39467,-6.73386 8.41393,-10.95688 2.70807,-4.54161 4.83777,-9.40228 7.57766,-13.90945 0.95372,-1.40434 1.94359,-2.84502 2.62829,-4.38617 -0.61042,2.12202 -2.10653,3.85125 -3.10616,5.75152 1.55319,0.39839 2.92407,1.30693 4.48857,1.65548 -0.004,-0.008 -0.0113,-0.0244 -0.0171,-0.0341 -0.19443,-0.30903 -1.05036,-1.15256 -1.16054,-1.31414 -1.9e-4,-5.3e-4 -7e-5,-0.0131 0,-0.0171 0.002,-3e-5 0.0155,0 0.0171,0 0.0417,0.0204 0.15854,0.1137 0.37547,0.29014 3.0261,2.14235 6.915,1.22427 10.35955,1.33121 2.77788,0.54376 5.47876,1.3221 8.175,2.23575 -0.89784,-1.20237 -1.35831,-2.73409 -0.92161,-4.2155 -1.4189,-0.81685 -3.19042,-1.14762 -4.38617,-2.25282 3.93454,1.33354 8.12348,2.16798 12.30516,2.25282 -1.41663,-0.93225 -0.4313,-2.77095 0.98988,-2.96962 0.23937,-0.0828 0.39972,-0.15839 0.47787,-0.22187 0.003,-0.002 0.0147,-0.0149 0.0171,-0.0171 0.002,-0.002 0.0137,-0.0138 0.0171,-0.0171 -4e-5,-0.002 1.7e-4,-0.0152 0,-0.0171 0.002,-0.002 0.0151,-0.0152 0.0171,-0.0171 0,-0.002 7e-5,-0.0152 0,-0.0171 1.7e-4,-0.002 -3e-5,-0.0153 0,-0.0171 2e-5,-0.002 -5e-5,-0.0151 0,-0.0171 -0.003,-0.003 -0.0139,-0.0141 -0.0171,-0.0171 -0.004,-0.004 -0.0149,-0.0147 -0.0171,-0.0171 -0.0109,-0.009 -0.036,-0.0253 -0.0512,-0.0341 -0.49362,-0.26364 -2.87588,-0.30017 -3.48163,-0.49494 -3.50637,-0.37091 -7.05001,-1.0339 -10.54728,-1.10934 -2.34963,1.80645 -5.52048,3.77175 -8.5846,2.79896 1.05983,-2.02559 2.23119,-4.00042 3.15736,-6.09285 -4.15963,-0.43851 -8.57062,0.11485 -12.52704,-1.34828 1.03328,-0.96851 2.32286,-1.59542 3.58403,-2.21868 -2.6325,-0.32156 -5.28861,-0.24602 -7.93606,-0.22187 -0.24434,-0.33926 -0.5683,-0.70526 -0.93867,-1.09228 3.33757,0.34648 6.6822,0.65163 10.01821,0.93868 4.39703,-1.25034 9.33317,-0.0358 13.61931,-1.97975 1.99427,-0.86818 4.11126,-2.22492 5.12004,-4.09603 -1.00341,-3.89913 -2.57456,-7.76627 -5.76858,-10.34249 -2.72345,-2.23838 -5.3531,-4.71562 -7.68006,-7.28752 -1.48519,0.65684 -1.59037,2.83794 -2.09922,4.23257 -0.0115,0.4443 -0.0685,1.21831 -0.34134,1.53601 -0.0141,0.0155 -0.0359,0.0382 -0.0512,0.0512 -0.0117,0.009 -0.0388,0.0263 -0.0512,0.0341 -0.0115,0.008 -0.0393,0.0273 -0.0512,0.0341 -0.003,0.001 -0.0138,-0.001 -0.0171,0 -0.0214,0.005 -0.0497,0.0144 -0.0683,0.0171 -0.009,0.001 -0.0247,-2.2e-4 -0.0341,0 -0.13963,-0.002 -0.32252,-0.0766 -0.52907,-0.256 0.22246,-2.35016 1.61964,-4.30729 2.79895,-6.31472 -1.49866,-1.71221 -2.63224,-3.79957 -4.48856,-5.22244 0.26981,1.88428 0.80932,3.93056 0.34133,5.78565 -0.89263,1.10823 -2.33151,2.01364 -3.65229,2.28695 -2.43471,-3.15438 -1.51144,-7.61891 0.93867,-10.39368 -3.03195,-3.1047 -6.03538,-6.38118 -8.24327,-10.12062 -1.32933,-1.46542 -3.61487,-1.22172 -5.42724,-1.16054 -3.39352,0.44103 -6.88911,0.59704 -10.22301,1.21174 -3.45163,1.87125 -6.83513,4.49274 -8.6358,8.0214 1.13284,4.75776 2.57147,9.55693 2.08215,14.50678 -0.0301,1.57106 -0.12201,3.16459 -0.23894,4.74457 -0.13799,-0.0498 -0.27431,-0.0726 -0.4096,-0.11946 0.37704,-4.53221 0.91914,-9.14532 -0.49494,-13.55104 -1.0568,-3.97893 -1.81189,-8.21798 -3.87416,-11.81023 -1.22311,-1.56222 -2.62501,-3.001 -3.99364,-4.45444 2.44164,2.04982 5.30002,3.94024 5.95632,7.27046 0.003,0.004 0.0139,0.0132 0.0171,0.0171 0.009,0.0121 0.0252,0.0376 0.0341,0.0512 0.31956,0.5123 0.42278,1.96486 0.69974,2.44055 0.0308,0.0504 0.0665,0.0953 0.1024,0.11947 0.003,0.003 0.0141,0.014 0.0171,0.0171 0.002,-1e-4 0.0155,4e-5 0.0171,0 0.002,-7e-5 0.0155,3e-5 0.0171,0 0.004,-9e-5 0.0159,-1.5e-4 0.0171,0 0.003,0.003 0.0141,0.0139 0.0171,0.0171 0.002,-0.002 0.0156,-0.0155 0.0171,-0.0171 0.002,6e-5 0.0156,0 0.0171,0 0.002,9e-5 0.0156,-1e-5 0.0171,0 0.002,1.1e-4 0.0156,-2e-5 0.0171,0 0.009,-0.004 0.0245,-0.0114 0.0341,-0.0171 0.003,-0.002 0.0138,-0.0148 0.0171,-0.0171 0.007,-0.005 0.0273,-0.0113 0.0341,-0.0171 0.0792,-0.0704 0.1717,-0.20035 0.27307,-0.37547 2.02955,-2.70381 4.41002,-5.21369 7.44113,-6.80965 -2.11006,-0.0375 -4.22062,0.27335 -6.33178,0.1024 2.78093,-1.69313 5.73662,-3.08261 8.5334,-4.7275 -4.49449,0.21537 -9.5871,0.78087 -13.38038,-1.97975 -2.83506,0.13196 -5.36922,-1.37375 -7.83366,-2.50882 -1.29917,-0.23453 -1.98883,-1.88323 -3.02082,-2.67949 -3.60221,-3.58545 -7.08207,-8.10693 -12.40757,-8.8918 -2.56764,-0.51904 -5.18429,-0.64779 -7.79953,-0.61441 z M 144.8051,214.08308 c -0.002,0.002 -0.0156,0.0155 -0.0171,0.0171 -0.006,-2.1e-4 -0.0283,3e-5 -0.0341,0 -2.71745,0.5638 -5.31906,2.16017 -8.0214,2.37228 -2.3324,-0.64154 -4.87917,-1.37992 -7.28752,-1.10934 -4.28314,1.56862 -5.88135,6.50655 -7.06566,10.53022 -1.43301,4.30287 -0.2253,8.82079 0.0171,13.2097 0.2367,2.39237 0.48978,4.77829 0.75094,7.16806 11.46956,2.94699 23.38199,1.14836 34.86747,-0.69974 -0.20763,-3.26948 -0.61088,-6.60518 -0.768,-9.83048 -4.3046,-6.35393 -8.15707,-13.20544 -11.58836,-20.12176 -0.0127,-0.0125 -0.0377,-0.0358 -0.0512,-0.0512 -0.22723,-0.30905 -0.27083,-1.01855 -0.49493,-1.33121 -0.003,-0.004 -0.0139,-0.0132 -0.0171,-0.0171 -0.0139,-0.0155 -0.0363,-0.038 -0.0512,-0.0512 -0.004,-0.003 -0.0136,-0.0143 -0.0171,-0.0171 -0.003,-0.003 -0.014,-0.014 -0.0171,-0.0171 -0.01,-0.006 -0.0223,-0.011 -0.0341,-0.0171 -0.006,-0.003 -0.0284,-0.0148 -0.0341,-0.0171 -0.0168,-0.005 -0.046,-0.0137 -0.0683,-0.0171 -0.003,-3.8e-4 -0.0139,1.5e-4 -0.0171,0 -0.0128,-1e-4 -0.0377,-0.001 -0.0512,0 z m 14.47264,7.919 c -0.003,0.002 -0.0141,0.0155 -0.0171,0.0171 -0.006,0.003 -0.0278,0.0126 -0.0341,0.0171 -0.003,0.002 -0.014,0.0146 -0.0171,0.0171 -0.003,0.002 -0.0146,0.0148 -0.0171,0.0171 -0.0254,0.0322 -0.0524,0.0836 -0.0683,0.13654 -1.50044,4.84332 -1.38834,10.07295 -1.38241,15.10412 0.33549,3.16413 0.56894,6.33857 0.87041,9.50621 5.86625,1.79345 12.17863,1.6424 18.27854,1.89441 3.65205,0.037 7.30877,0.0816 10.95689,-0.11947 -8.77114,-8.43716 -17.69867,-16.896 -26.53888,-25.1906 -0.41038,-0.17227 -1.30578,-1.2135 -1.82615,-1.38241 -0.0427,-0.0125 -0.0995,-0.0178 -0.13653,-0.0171 -0.006,-4e-5 -0.027,3.7e-4 -0.0341,0 -0.002,3e-5 -0.0151,-1.9e-4 -0.0171,0 -0.003,10e-4 -0.0138,-0.002 -0.0171,0 z m 85.19748,6.89499 c -0.17067,0.27306 -0.34134,0.54613 -0.51201,0.8192 -3.54611,5.94534 -7.61673,11.65147 -12.66356,16.35 -1.5039,0.95745 -1.57437,3.21675 -2.52589,4.65923 -1.79829,3.82687 -4.01258,7.59027 -6.38298,10.97396 -1.36133,1.36209 1.04327,2.01947 1.87734,1.16054 6.78219,-5.7303 12.30593,-12.98204 16.46947,-20.83856 2.0264,-4.07526 3.79642,-8.49113 3.73763,-13.12437 z m 116.32732,19.01241 c 0.003,-5.4e-4 0.0143,5.5e-4 0.0171,0 0.001,-1.6e-4 0.0134,-6e-5 0.0171,0 0.002,-9e-5 0.0149,-3e-5 0.0171,0 0.003,0.003 0.0141,0.0139 0.0171,0.0171 0.002,-4e-5 0.0151,1.1e-4 0.0171,0 1.28556,0.68147 1.1893,2.78938 0.83627,4.0619 -0.45543,1.59338 -1.50493,2.9737 -2.61122,4.19843 1.6157,-2.39123 2.03964,-5.47021 1.55308,-8.2262 0.002,9e-5 0.0156,0 0.0171,0 0.0316,-0.0104 0.085,-0.0403 0.11947,-0.0512 z m -34.08241,6.22939 c 1.19344,0.31659 2.11617,-0.63196 2.76483,1.96268 0.57927,2.31706 3.32587,10.06555 5.15417,14.60918 -1.75218,2.02988 -3.42221,4.12863 -4.93231,6.28058 1.21072,6.11665 0.95031,12.37335 0.23894,18.53455 0.0369,-4.29376 0.46693,-8.91749 -0.13653,-13.31211 -0.47952,-5.12972 -1.61688,-10.24648 -2.78189,-15.18945 -0.38145,-4.28114 -0.49162,-8.59233 -0.30721,-12.88543 z m 49.93747,8.82353 c -10e-4,0.004 10e-4,0.0128 0,0.0171 -0.18432,0.54086 -1.34755,1.38089 -1.67255,1.87734 -0.0314,0.0503 -0.0566,0.11109 -0.0683,0.15361 -0.003,0.0108 -0.0137,0.0389 -0.0171,0.0512 -5.5e-4,0.003 3.3e-4,0.0145 0,0.0171 0.003,0.006 0.0138,0.0283 0.0171,0.0341 0.005,0.0132 0.0239,0.0382 0.0341,0.0512 0.003,0.004 0.0135,0.0137 0.0171,0.0171 0.002,0.002 0.0151,0.0156 0.0171,0.0171 0.009,0.005 0.0231,0.0118 0.0341,0.0171 0.0117,0.005 0.0377,0.0123 0.0512,0.0171 0.0374,0.0122 0.0885,0.0288 0.13653,0.0341 4.6083,0.43395 9.14577,1.38899 13.73878,1.94561 -0.77081,-0.86527 -0.80542,-2.1214 0.22187,-2.81602 -1.98124,0.57138 -4.10555,-0.42373 -6.14405,-0.44373 -2.11094,-0.18854 -4.43715,-0.83184 -6.36592,-0.98988 z m -15.47959,6.26352 c 0.0398,-0.004 0.0751,0.002 0.1024,0 0.003,-1.6e-4 0.014,2e-5 0.0171,0 0.006,9e-5 0.0122,5e-5 0.0171,0 0.002,5e-5 0.0137,4e-5 0.0171,0 5.5e-4,1e-4 0.0131,5e-5 0.0171,0 -9e-5,0.002 2.7e-4,0.0154 0,0.0171 -0.002,-1.4e-4 -0.0154,3e-5 -0.0171,0 -0.0185,0.007 -0.0545,0.0221 -0.1024,0.0341 -0.39046,0.0788 -1.66032,0.26085 -1.99682,0.29013 0.072,-0.019 0.19598,-0.0606 0.42667,-0.1024 0.002,1.4e-4 0.0155,-3e-5 0.0171,0 0.2108,-0.0519 1.11676,-0.20184 1.50188,-0.23893 z m -4.07897,2.35522 c -0.003,0.002 -0.0143,0.0155 -0.0171,0.0171 -0.0196,0.008 -0.0521,0.0239 -0.0683,0.0341 -0.003,0.003 -0.0141,0.014 -0.0171,0.0171 -0.0232,0.0185 -0.0491,0.0414 -0.0683,0.0683 -0.38674,1.12989 -1.91812,2.82441 -1.63841,3.56696 0.76275,-0.16253 2.51806,0.50917 3.07202,0.11946 0.004,-0.003 0.013,-0.0137 0.0171,-0.0171 0.003,-0.003 0.014,-0.0141 0.0171,-0.0171 0.003,-0.003 0.0142,-0.014 0.0171,-0.0171 0.003,-0.003 0.0144,-0.0138 0.0171,-0.0171 0.005,-0.007 0.0123,-0.0269 0.0171,-0.0341 0.004,-0.007 0.0129,-0.0263 0.0171,-0.0341 0.004,-0.008 0.0136,-0.0257 0.0171,-0.0341 0.007,-0.0174 0.0125,-0.0493 0.0171,-0.0683 0.0124,-0.0583 0.0243,-0.1316 0.0171,-0.2048 -0.2318,-0.95655 0.42908,-2.30661 0.0512,-2.93549 -0.37779,-0.0285 -1.0075,-0.47915 -1.39948,-0.44374 -0.006,-1.1e-4 -0.0282,2e-5 -0.0341,0 -0.002,-3e-5 -0.0154,1e-4 -0.0171,0 -0.003,0.002 -0.0141,-0.002 -0.0171,0 z m -229.29248,2.52588 0.0853,0.256 0.0683,0.23894 c 2.61514,8.92211 5.37478,17.80055 8.08967,26.69248 7.30731,-1.52269 14.86183,-0.48362 22.18684,0.4096 2.40017,0.3066 4.7711,0.78273 7.15099,1.21174 -0.43387,-9.49987 -1.08423,-18.99196 -1.89442,-28.46742 -5.60179,1.79598 -11.71566,1.41631 -17.56173,1.50188 -6.05202,-0.22731 -12.28264,-0.23926 -18.12495,-1.84322 z m 36.36936,0.52907 0.0171,0.27307 0.0171,0.13654 c 0.77,9.38997 0.99815,18.85368 2.54295,28.16022 7.59976,1.45908 13.28385,7.43488 17.76654,13.34624 0.30994,0.40281 1.00213,1.33031 1.33121,1.77495 -0.10138,-0.12281 -0.24673,-0.29504 -0.44374,-0.54614 -5.19668,-6.77969 -12.18902,-13.15023 -20.99216,-14.47265 -9.4264,-1.66621 -19.08686,-2.27641 -28.6381,-1.55308 -3.73504,0.65125 -7.29659,1.9809 -11.09342,2.49175 -8.14059,1.24751 -16.43748,2.37419 -24.67859,1.62135 -1.073875,-0.40453 -1.890755,-0.23882 -2.525891,0.78507 -2.467056,3.18157 -4.593689,6.87098 -5.580844,10.78622 -0.457062,2.6828 -1.106726,5.72902 0.102401,8.26033 3.305744,-0.95674 6.535558,0.85054 9.489144,2.08215 1.76853,1.15469 2.75307,3.15431 3.97656,4.76164 7.04485,1.8256 14.21054,3.08014 21.41884,4.04483 9.47934,1.44315 18.93067,3.08684 28.39916,4.3179 8.77251,0.20689 17.61272,-0.0508 26.29994,-1.34827 4.21333,-1.0056 7.96589,-3.38152 11.50302,-5.88805 2.14403,-1.52618 3.92579,-3.46276 5.20538,-5.76858 7.76479,-12.32107 15.03797,-25.32969 17.95427,-39.73151 0.22693,-0.96572 0.73687,-2.13804 0.256,-2.59416 -0.19897,-0.17423 -0.56454,-0.24368 -1.16054,-0.13653 -14.38079,-2.22227 -28.61951,-5.33794 -42.80354,-8.56754 -2.82055,-0.7111 -5.61173,-1.28371 -8.36273,-2.23575 z m -81.767051,27.08502 c -4.217603,2.35148 -7.310129,6.41973 -11.997962,7.88486 -3.645179,1.60065 -7.631853,2.44403 -11.195821,4.1643 -3.36648,2.77365 -3.152443,7.68302 -3.720563,11.67369 -0.175152,3.17495 -3.223572,4.93712 -5.307777,6.98032 -1.386581,1.18341 -2.802047,2.31866 -4.1131,3.58403 9.786724,-0.57493 19.577082,-1.33379 29.303701,-2.56002 -5.46e-4,-1.93442 0.351548,-4.01461 1.058141,-5.70031 0.850561,-0.44284 2.145639,-1.15105 2.747755,0.1024 0.49425,1.15305 2.088835,1.79564 3.157359,0.97281 1.223976,-0.69779 3.253156,-0.50191 3.293892,-2.32109 2.024587,-6.51 3.553887,-14.02697 0.631472,-20.48016 -0.877081,-1.64825 -2.164873,-3.61879 -3.857097,-4.30083 z m 24.729801,31.76132 -0.0171,0.27306 0,0.0512 c -0.64528,9.11224 -2.53272,18.14582 -4.86404,26.93141 -0.85766,3.22711 -2.12009,6.32958 -3.61816,9.25021 3.833,-2.85593 6.97343,-6.57648 10.35955,-9.94995 4.2407,-4.6676 10.26189,-7.1208 15.75266,-10.00114 7.55067,-3.57243 15.27246,-6.93382 23.17671,-9.74515 -11.63279,-2.03773 -23.44276,-3.0593 -35.02107,-5.39311 -1.93187,-0.44679 -3.83925,-0.96063 -5.76858,-1.41654 z m -7.01446,14.69451 c -9.25266,2.67012 -13.021927,12.1587 -15.633191,15.08705 -0.632166,2.06966 3.60394,9.4582 5.137107,12.86837 3.095148,-3.08983 9.4964,-12.40074 10.393684,-14.98465 0.69165,-2.36757 1.98366,-12.19755 0.11947,-12.97077 -0.002,-1.7e-4 -0.0156,5e-5 -0.0171,0 z"
       id="path2783"
       inkscape:connector-curvature="0" />
    <path
       style="fill:#314e6c;fill-opacity:1;fill-rule:nonzero;stroke:none;display:inline"
       d="m 177.88056,177.56013 c -6.69701,0.28234 -13.55758,0.5724 -20.07056,1.96268 -9.06842,2.7102 -17.14416,8.40476 -23.53512,15.30892 -3.82804,4.05966 -5.5484,9.39574 -7.9702,14.33611 -2.02435,4.92148 -4.16127,9.98452 -4.67332,15.2824 0.64585,0.52785 0.75208,-2.10978 1.2429,-2.87483 1.15876,-3.82559 4.51672,-7.58209 8.87473,-7.18513 2.40048,0.15999 4.66525,1.41458 6.9884,1.60305 2.59943,-0.73982 5.07362,-2.13032 7.72319,-2.49052 4.81362,1.77606 9.19067,4.83204 13.50213,7.59706 4.52881,3.00074 7.98228,7.34497 12.05742,11.00371 5.59769,5.32656 11.03521,10.89446 16.72508,16.07669 8.98685,7.30946 19.57959,12.58282 28.02885,20.48847 0.93087,0.65564 1.92639,2.53268 2.5512,2.55284 1.36443,-3.52145 0.86349,-7.89978 3.55616,-10.84303 3.40711,-5.48925 6.7211,-11.21595 8.46131,-17.44587 0.40649,-2.9637 0.92233,-6.1811 3.30493,-8.20476 2.00905,-2.41329 3.50869,-5.29277 4.46858,-8.27141 -0.91099,3.41689 -2.53541,6.66299 -4.93826,9.18168 -1.81876,2.46534 -2.35733,5.52045 -2.81007,8.48246 3.19798,-1.40939 5.0839,-4.62369 7.28164,-7.16393 2.14201,-2.91108 4.34022,-5.86219 5.97927,-9.08366 0.24768,-5.43809 1.18884,-11.1574 -0.47357,-16.42693 -1.94783,-4.07143 -4.70668,-7.82739 -7.05289,-11.61383 -5.71904,-5.04162 -12.3265,-9.06625 -18.50041,-13.56811 -6.33914,-3.25647 -13.49067,-4.72777 -20.32656,-6.58778 -4.21791,-1.08949 -8.53635,-2.05917 -12.91846,-1.46709 -3.58116,0.27489 -7.14816,0.79631 -10.6508,1.58656 2.24639,-0.88756 4.64108,-1.10789 6.87792,-1.96269 -1.17735,-0.42499 -2.47362,-0.23878 -3.70349,-0.27306 z"
       id="path2795"
       inkscape:connector-curvature="0" />
    <path
       style="fill:#000000;fill-opacity:1;fill-rule:nonzero;stroke:none;display:inline"
       d="m 292.39881,225.07386 c 0.002,-0.0138 0.0154,-0.0217 0.0171,-0.0341 l -0.0171,0.0341 z"
       id="path2791"
       inkscape:connector-curvature="0" />
    <path
       style="fill:#9db8d2;fill-opacity:1;fill-rule:nonzero;stroke:none;display:inline"
       d="m 274.92239,197.20401 c -4.89421,1.0586 -9.87312,2.5285 -14.64331,4.07897 -4.37904,0.95975 -8.24456,-2.08666 -12.50997,-2.28695 1.00342,2.88716 4.73637,3.04355 6.47367,5.29606 3.36776,3.46742 3.68203,8.65884 4.98085,13.12224 0.12709,0.9569 -0.81111,-2.61692 -1.10738,-3.45559 -1.30716,-4.0483 -2.17235,-8.8206 -6.11991,-11.12055 -1.33617,-0.79959 -2.85879,-1.57775 -4.22723,-2.13548 -2.935,1.1987 -6.26873,0.89087 -9.33554,0.39254 2.33348,3.67437 5.18433,7.15287 6.75835,11.22513 0.87638,6.1111 0.11716,12.32285 -0.1535,18.45403 -1.54965,7.21287 -5.39619,13.71941 -9.42087,19.86576 -3.36878,4.78721 -7.11159,9.46512 -12.0833,12.62943 4.53298,1.07197 9.10665,1.92772 13.75584,2.23575 4.09024,0.65933 8.18745,2.05483 12.3905,1.05815 2.90304,-0.22587 5.09513,-2.53259 5.85392,-5.23951 1.67768,-2.91486 0.97015,-6.50029 1.99133,-9.61701 0.65993,-3.68473 1.16092,-7.39722 1.8999,-11.06795 -0.5539,4.8011 -0.99282,9.63875 -1.89442,14.33611 -0.35313,2.98708 -0.29049,6.33355 -2.64535,8.5334 -0.95579,1.1563 -2.08482,2.08515 -3.4475,2.73069 2.32595,2.40044 5.63826,3.69975 8.75957,4.79297 4.91921,1.38606 10.08219,2.59629 15.23636,2.18735 5.11174,-1.5795 9.95108,-4.46147 13.84117,-8.1238 1.09373,-1.09817 1.9285,-2.55011 1.22881,-4.13016 -1.38122,-5.4413 -2.69057,-10.8948 -3.44198,-16.46538 -1.19226,-7.71349 -2.78008,-15.34744 -4.51232,-22.95387 -0.90786,-3.92264 -1.39681,-7.90661 -1.60311,-11.91769 -0.66624,-4.16005 -1.45899,-8.85671 -4.63585,-11.82428 -0.38763,-0.25312 -0.93735,-0.74453 -1.38873,-0.60036 z"
       id="path2789"
       inkscape:connector-curvature="0" />
    <path
       style="fill:#d1940c;fill-opacity:1;fill-rule:nonzero;stroke:none;display:inline"
       d="m 351.15979,203.6382 c -3.85347,0.008 -7.567,0.83704 -11.15401,2.19346 -5.18881,1.51192 -10.49849,3.4599 -15.99927,3.01191 -1.3867,-0.6214 -1.40418,0.0735 -0.58027,0.98988 2.82558,2.33962 6.93267,1.79254 10.39368,1.75788 4.04302,-0.36934 7.71778,-0.88026 11.86079,-0.63921 4.43998,0.13279 8.99279,0.40688 13.02516,2.46258 1.82747,0.79581 3.6349,1.88114 5.47589,2.65078 -1.02079,-0.003 -2.58264,-1.30165 -3.82296,-1.70933 -3.97287,-1.71836 -8.10452,-3.1538 -12.49219,-3.0208 -3.89975,0.0332 -8.00854,-0.45603 -11.75973,0.78505 -2.84233,1.14069 -5.45753,2.81797 -8.0214,4.50563 5.32813,-0.32145 10.76386,-0.56523 15.90598,-1.95046 3.14109,-0.021 7.10603,0.39362 8.55074,3.65714 3.43631,5.59381 9.00129,9.37583 12.69771,14.74572 2.62992,3.57447 5.98429,6.43209 9.39584,9.2176 3.17104,2.61109 4.40091,6.57378 5.60587,10.35802 0.58063,-0.34257 1.42648,1.41693 1.88459,2.08511 0.6776,0.64079 1.89515,-0.60966 2.53572,-1.19763 1.61092,-1.98283 2.82926,-4.3995 3.49869,-6.82672 0.51112,-5.42838 0.67755,-11.06889 -0.3584,-16.4012 -1.70845,-5.69245 -4.10448,-11.45523 -7.98727,-16.00866 -5.12066,-4.89397 -11.54643,-8.3948 -18.54136,-9.66312 -3.21554,-1.11578 -6.70298,-1.10667 -10.1138,-1.00363 z m 28.5357,49.35719 c -3.4181,4.16499 -9.266,4.49931 -14.25687,5.30864 -2.91641,0.52035 -6.18787,0.50715 -8.59558,2.40555 3.8731,2.178 8.49698,1.28318 12.7489,1.34828 -1.28724,2.15587 -2.92162,4.14856 -4.02777,6.45125 4.00672,-0.0427 8.00082,-1.8129 10.41039,-5.00382 2.08044,-1.94923 4.32896,-3.83596 6.09321,-6.0384 0.98092,-1.95235 -0.89661,-3.5319 -2.18455,-4.71044 l -0.16871,0.21472 -0.019,0.0242 z"
       id="path2787"
       sodipodi:nodetypes="cccccccccccccccccccccccccccccccccc"
       inkscape:connector-curvature="0" />
    <path
       style="fill:#df421e;fill-opacity:1;fill-rule:nonzero;stroke:none;display:inline"
       d="m 146.35818,214.20255 c 2.27596,6.37336 5.13821,12.65074 9.11367,18.14201 0.54962,0.56762 2.07538,2.84929 2.01285,1.21221 0.22727,-4.1624 0.52281,-8.32415 0.5813,-12.49337 -3.91035,-2.63564 -7.91058,-5.08774 -11.92969,-7.56059 0.074,0.23324 0.14791,0.46649 0.22187,0.69974 z"
       id="path2785"
       inkscape:connector-curvature="0" />
    <path
       style="fill:#887fa3;fill-opacity:1;fill-rule:nonzero;stroke:none;display:inline"
       d="m 358.56679,226.81492 c -0.89078,1.15235 -1.81721,2.67779 -1.75788,4.06189 1.17745,1.14286 2.7255,2.4259 4.50563,2.06509 -0.0228,-1.75141 0.4649,-4.10525 -1.29708,-5.12004 -0.37945,-0.10924 -1.16656,-1.67059 -1.45067,-1.00694 z m -4.84698,20.9751 c -1.1081,-0.1483 -1.73478,0.48327 -1.77494,1.53601 -0.18327,0.95829 -0.46904,2.21276 0.80214,2.47468 1.04941,0.34897 2.50872,1.06528 3.37922,0.66561 0.41183,-1.38703 0.48547,-3.246 -0.17066,-4.4715 -0.66816,-0.34948 -1.50459,-0.2354 -2.23576,-0.2048 z"
       id="path2777"
       inkscape:connector-curvature="0" />
    <path
       style="fill:#000000;fill-opacity:1;fill-rule:nonzero;stroke:none;display:inline"
       d="m 336.94316,227.46321 -0.17066,0.0512 c 0.63908,0.78748 1.10661,1.64006 1.86028,2.25282 -0.67635,1.04044 -1.82877,2.40689 -2.44055,3.37922 -0.69762,1.30178 -2.55784,4.55909 -3.05496,7.7654 -0.50883,2.60595 2.49874,5.23756 3.48163,5.68324 l 0.17066,-0.1024 c 0.02,0.01 0.0472,0.0263 0.0683,0.0341 1.32821,0.46149 4.51153,-2.73653 5.05177,-4.09603 0.46123,-1.433 0.84941,-7.89477 0.30721,-9.54034 -0.62174,-1.23295 -1.53811,-2.13088 -2.56002,-3.07202 -0.9952,-0.60704 -1.98637,-1.43622 -2.71363,-2.35522 z"
       id="path2775"
       inkscape:connector-curvature="0" />
    <path
       style="fill:#df421e;fill-opacity:1;fill-rule:nonzero;stroke:none;display:inline"
       d="m 338.7181,229.85281 c -1.8459,2.52343 -3.5385,5.15423 -4.31994,8.2323 -1.03078,2.0269 -1.36336,4.69726 0.34337,6.46221 0.87003,0.76051 2.12046,2.34275 3.27683,1.16055 1.82511,-0.97658 3.84649,-2.32969 3.74106,-4.67371 0.20274,-2.68661 0.6842,-5.60634 -0.24237,-8.1776 -0.70899,-1.2631 -1.62688,-2.55703 -2.64535,-3.27682 l -0.13388,0.238 -0.0197,0.0351 z m 1.00694,2.18455 c 0.60875,3.24254 1.20773,6.78046 -0.70626,9.71434 -0.5934,0.86411 -0.97577,2.40196 -1.92203,2.76149 -1.11986,-1.35961 -0.57328,-3.6375 -0.0529,-5.22026 1.05104,-2.62546 2.08318,-5.32854 2.52757,-8.07478 0.0512,0.27307 0.1024,0.54614 0.1536,0.81921 z"
       id="path2769"
       inkscape:connector-curvature="0" />
    <path
       style="fill:#ffffff;fill-opacity:1;fill-rule:nonzero;stroke:none;display:inline"
       d="m 356.56997,231.88376 c -0.15447,1.93657 0.62702,3.78049 1.70668,5.3419 1.36888,-1.08354 3.09945,-2.1849 3.05496,-4.18136 -1.7852,0.39352 -3.52451,-0.46956 -4.74457,-1.72375 -0.006,0.18774 -0.0114,0.37547 -0.0171,0.56321 z m -1.62135,13.5169 c -1.27567,0.40322 -2.11531,1.51441 -2.71362,2.67949 1.19397,-0.5654 2.65047,-1.00223 3.87417,-0.27307 -0.31684,-0.72959 -0.40622,-2.32399 -1.16055,-2.40642 z m -3.14029,6.46832 c -0.0543,1.28339 0.3203,3.48419 1.77495,3.53283 0.90216,-0.82872 1.76203,-1.69664 2.47469,-2.69656 -1.6074,0.26275 -3.15266,-0.32188 -4.2667,-1.48481 0.006,0.21618 0.0114,0.43236 0.0171,0.64854 z"
       id="path2767"
       inkscape:connector-curvature="0" />
    <path
       style="fill:#ffffff;fill-opacity:1;fill-rule:nonzero;stroke:none;display:inline"
       d="m 339.31543,232.10562 c -0.21271,4.16548 -3.64954,7.80821 -2.50882,12.06623 0.84102,1.53981 1.16128,-1.45197 1.7115,-2.09571 1.37082,-2.50429 1.82999,-5.31786 1.48075,-8.14335 -0.0267,-0.46757 -0.14662,-3.62496 -0.68343,-1.82717 z"
       id="path2765"
       inkscape:connector-curvature="0" />
    <path
       style="fill:#000000;fill-opacity:1;fill-rule:nonzero;stroke:none;display:inline"
       d="m 348.22432,238.59077 c -0.38212,0.0308 -0.85963,0.4725 -1.43361,0.98987 l 0.6144,0 c 0.31932,-0.30203 0.54034,-0.40442 0.68268,-0.37547 0.0275,0.008 0.0634,0.034 0.0853,0.0512 0.014,0.0125 0.0394,0.035 0.0512,0.0512 0.23972,0.36368 -0.005,1.53079 -0.0341,1.87735 -0.007,-0.002 -0.0238,-0.0169 -0.0341,-0.0171 -0.22183,0.011 -1.05815,0.4096 -1.05815,0.40961 0.009,0.0125 0.0134,0.0279 0.0171,0.0341 0.005,0.005 0.006,0.0234 0.0171,0.0341 0.68638,-0.0821 1.16076,-0.18633 1.45068,-0.42667 0.33776,-0.29213 0.43284,-0.80943 0.3584,-1.77494 -0.13104,-0.48598 -0.30465,-0.73599 -0.512,-0.81921 -0.034,-0.0123 -0.0835,-0.0304 -0.11947,-0.0341 -0.0259,-0.002 -0.0584,-0.002 -0.0853,0 z"
       id="path2763"
       inkscape:connector-curvature="0" />
    <path
       style="fill:#000000;fill-opacity:1;fill-rule:nonzero;stroke:none;display:inline"
       d="m 346.29577,243.89854 c -0.0243,0.005 -0.0432,0.0269 -0.0683,0.0341 l -0.18773,0.1024 c 0.12976,-0.02 0.22937,-0.0275 0.3072,-0.0171 0.008,10e-4 0.0266,0.0155 0.0341,0.0171 0.007,0.002 0.0274,-0.002 0.0341,0 0.01,0.003 0.0253,0.0132 0.0341,0.0171 0.009,0.004 0.0265,0.0124 0.0341,0.0171 0.005,0.003 0.0126,0.0135 0.0171,0.0171 0.007,0.005 0.0285,0.011 0.0341,0.0171 0.002,0.002 -0.002,0.0149 0,0.0171 0.002,0.002 0.0155,0.0148 0.0171,0.0171 0.11721,0.19413 0,0.58136 0.17067,0.95574 -0.002,0.002 -0.0146,0.0154 -0.0171,0.0171 -0.13159,0.0978 -0.42163,0.53551 -0.58027,0.6656 -0.003,0.002 -0.0141,0.015 -0.0171,0.0171 -0.003,0.002 -0.0144,-0.002 -0.0171,0 -0.003,0.001 -0.0146,0.0161 -0.0171,0.0171 -0.002,3.7e-4 -0.015,-5e-5 -0.0171,0 l -0.17066,0.23894 c 0.074,0.0345 0.15085,0.10545 0.22187,0.1536 0.0169,0.0108 0.0502,0.0264 0.0683,0.0341 0.0229,0.008 0.0597,0.0163 0.0853,0.0171 0.003,-1.1e-4 0.0144,2e-4 0.0171,0 0.003,-3e-4 0.0144,3.9e-4 0.0171,0 0.006,-0.001 0.0114,-0.0156 0.0171,-0.0171 1.33133,-0.746 0.99497,-2.54373 -0.0171,-2.33815 z"
       id="path2761"
       inkscape:connector-curvature="0" />
    <path
       style="fill:#000000;fill-opacity:1;fill-rule:nonzero;stroke:none;display:inline"
       d="m 347.86592,244.51295 -0.22187,0.17067 c 0.63904,1.15008 0.962,2.4859 2.20162,2.78189 0.9131,0.0489 2.178,-1.13769 3.03789,-1.36535 l 0.1024,-0.32427 c -0.84858,0.25432 -1.4574,0.81416 -2.37229,0.76801 -1.23455,-0.26039 -2.12967,-0.88562 -2.74775,-2.03095 z"
       id="path2759"
       inkscape:connector-curvature="0" />
    <path
       style="fill:#b39169;fill-opacity:1;fill-rule:nonzero;stroke:none;display:inline"
       d="m 158.15134,247.31214 -0.27307,0.0341 c -10.4281,0.92256 -20.92958,2.07407 -31.40292,1.33121 -1.07843,-0.11721 -2.10728,-0.30573 -3.12322,-0.63147 1.10928,8.47616 1.67109,17.1272 4.23256,25.31006 5.89123,1.21359 12.04195,1.05079 18.05668,1.28001 5.68816,-0.0687 11.50336,0.26631 17.08387,-0.95574 1.41003,-0.3842 0.0617,-2.37393 0.0512,-3.41336 -1.77685,-7.59851 -4.15066,-15.12412 -4.6251,-22.95485 z m 0.68267,0.90455 c -0.0111,0.002 -0.0244,0.0141 -0.0341,0.0171 -0.003,0.001 -0.0141,-0.001 -0.0171,0 -0.003,0.002 -0.0144,0.0154 -0.0171,0.0171 -0.005,0.004 -0.0128,0.0128 -0.0171,0.0171 -0.002,0.002 -0.0153,0.0146 -0.0171,0.0171 -0.003,0.006 -0.015,0.0276 -0.0171,0.0341 -10e-4,0.003 5.5e-4,0.0134 0,0.0171 -0.002,0.0116 -4.4e-4,0.0377 0,0.0512 0.004,0.0518 0.0196,0.12451 0.0512,0.2048 0.72863,8.19095 3.57534,16.02213 5.2395,23.97886 0.003,1.39572 2.02917,1.27386 2.9867,1.86028 14.41589,4.4659 29.28964,7.56179 44.30541,9.23314 1.95523,0.18207 3.9092,0.38202 5.87098,0.47787 0.7642,-3.73207 1.77592,-7.48745 2.26989,-11.22995 -2.72361,-4.85034 -7.69424,-7.86973 -12.10037,-11.09342 -6.30723,-4.35673 -13.00252,-8.26629 -19.11481,-12.83424 -9.21433,0.51786 -18.64763,1.45726 -27.75062,-0.29014 -0.003,5.5e-4 -0.0136,-5.4e-4 -0.0171,0 -0.007,0.001 -0.0263,-3.8e-4 -0.0341,0 -0.0122,1.7e-4 -0.0378,0.001 -0.0512,0 -0.35613,-0.0358 -1.09088,-0.44586 -1.45068,-0.47787 -0.0135,-0.001 -0.0389,-3.2e-4 -0.0512,0 -0.008,5e-4 -0.0267,-0.001 -0.0341,0 z"
       id="path2753"
       inkscape:connector-curvature="0" />
    <path
       style="fill:#000000;fill-opacity:1;fill-rule:nonzero;stroke:none;display:inline"
       d="m 354.07823,249.06978 c -0.23746,0.0164 -0.46812,0.10563 -0.6144,0.25601 -0.27766,0.26707 -0.52553,0.84163 -0.34134,1.17761 0.19208,0.36496 0.94763,0.50991 1.34828,0.42667 0.42431,-0.0701 0.75572,-0.47317 0.75094,-0.90454 1.7e-4,-0.0103 2.3e-4,-0.0239 0,-0.0341 -0.005,-0.33663 -0.22935,-0.65773 -0.52907,-0.80214 -0.17619,-0.0903 -0.39134,-0.13489 -0.61441,-0.11947 z"
       id="path2747"
       inkscape:connector-curvature="0" />
    <path
       style="fill:#990000;fill-opacity:1;fill-rule:nonzero;stroke:none;display:inline"
       d="m 389.06516,264.34481 c -0.92987,0.90674 0.0161,3.31145 1.58721,2.85016 1.18298,-0.0496 3.01009,-1.52735 2.08215,-2.73069 -1.09092,-0.0802 -2.61433,-0.14609 -3.66936,-0.11947 z m 1.34828,3.63523 c -1.28339,0.0341 -2.89242,-0.39525 -3.99363,0.3584 -0.44686,1.15055 0.33372,2.79916 1.70668,2.16749 0.92172,-0.61274 2.70615,-0.59071 2.98669,-1.82615 -0.005,-0.23385 -0.49083,-1.13974 -0.69974,-0.69974 z m -11.28116,3.46456 c -0.65938,2.2265 1.58426,4.288 3.78883,3.99363 1.64102,0.19438 0.44964,-1.07631 -0.14795,-1.77364 -1.04524,-0.99886 -2.18638,-2.02477 -3.57261,-2.52719 l -0.0592,0.26656 -0.009,0.0406 z m -20.20709,1.05814 c -0.31031,1.28603 -0.25115,3.85402 1.63841,3.5499 1.14193,-0.167 2.32637,-1.38849 1.43361,-2.45762 -0.50953,-0.50355 -2.81509,-1.64593 -3.07202,-1.09228 z"
       id="path2737"
       inkscape:connector-curvature="0" />
    <path
       style="fill:#000000;fill-opacity:1;fill-rule:nonzero;stroke:none;display:inline"
       d="m 388.67264,267.22886 c 0.0148,0.0197 0.0363,0.0319 0.0512,0.0512 -0.01,4.5e-4 -0.0243,-4.9e-4 -0.0341,0 l -0.0171,-0.0512 z"
       id="path2733"
       inkscape:connector-curvature="0" />
    <path
       style="fill:#000000;fill-opacity:1;fill-rule:nonzero;stroke:none;display:inline"
       d="m 219.43824,271.15423 c -0.004,0.0488 0.005,0.10008 0,0.1536 -0.0274,-0.038 -0.0574,-0.0815 -0.0853,-0.11947 l 0.0853,-0.0341 z"
       id="path2729"
       inkscape:connector-curvature="0" />
    <path
       style="fill:#565248;fill-opacity:1;fill-rule:nonzero;stroke:none;display:inline"
       d="m 51.876361,278.01532 c -1.592802,0.55806 -2.055434,2.56385 -2.696557,3.97657 1.171984,0.92895 1.990148,0.75215 2.357871,-0.72211 0.437384,-0.98129 1.201261,-2.22834 0.662955,-3.28859 -0.05848,0.0779 -0.296083,-0.092 -0.324269,0.0341 z m 25.361267,51.0468 c -0.532812,1.58884 -1.81818,3.63743 -0.768006,5.22244 1.116551,0.80309 2.436156,-0.22138 3.669362,-0.11946 0.619233,-0.83601 -0.669417,-1.89849 -0.648538,-2.81602 -0.616316,-0.54552 -1.768487,-3.15949 -2.252818,-2.28696 z"
       id="path2717"
       inkscape:connector-curvature="0" />
    <g
       id="g3740"
       style="filter:url(#filter4257-9)"
       transform="matrix(0.54613765,0,0,0.54613765,3.9357132,46.691886)">
      <path
         id="path2843"
         d="m 134.91705,610.61104 c 0.0452,-0.0633 -7.89689,27.92291 -27.91705,58.75114 -4.14786,6.38712 -14,25 -14,25 0,0 -6,-4 -5,-10 1,-6 -4.020738,-74.60598 -1.020738,-83.60598 3,-9 30.937788,-17.14516 47.937788,9.85484 z"
         style="fill:#ffffff;fill-opacity:0.50196078;fill-rule:evenodd;stroke:none"
         sodipodi:nodetypes="cscssc"
         inkscape:connector-curvature="0" />
      <path
         id="path2845"
         d="M 36.257294,499.14636 19,534.36218 c 0,0 -12,30 -11,36 1,6 -0.070798,10.87872 5,8 12.257294,-6.95852 66.257294,-104.21582 23.257294,-79.21582 z"
         style="fill:#ffffff;fill-opacity:0.50196078;fill-rule:evenodd;stroke:none"
         sodipodi:nodetypes="ccssc"
         inkscape:connector-curvature="0" />
      <path
         id="path2847"
         d="m 279.70123,313.64021 c 4.08365,-1.11107 45.48711,-39.18708 68.38172,-45.95852 30.99045,-9.16591 38.04015,0.762 34.91705,12.68049 -1.58285,6.04053 -23.80866,24.38268 -20,32 6.78567,13.57135 22.91947,-10.0981 27,-12 23.47837,-10.94305 16.60313,13.14355 10,29 -2.5134,6.03556 -29.62214,42.59923 -44.29877,52.29877 -6.94805,-2.77922 -14.28742,-12.76544 -23.97926,-18.70123 24.41089,-38.97487 -5.11247,-31.04478 -20.29877,-17.31951 -2.20589,-8.39952 -30.99125,-31.26927 -31.72197,-32 z"
         style="fill:#ffffff;fill-opacity:0.30980392;fill-rule:evenodd;stroke:none"
         sodipodi:nodetypes="cssssscccc"
         inkscape:connector-curvature="0" />
      <path
         id="path2849"
         d="m 226,312.36218 c 2.72409,0.50695 26.90512,4.4733 31.31951,-1.89631 1.60369,13.88764 16.12438,26.67189 17.68049,32.89631 1.99111,7.96445 15,91.10563 15,99 0,5.71895 -22.73984,-0.021 -30,-13 -6.96714,-12.45514 -39,-96.4886 -39,-105 0,-5.96595 1.12363,-7.15453 5,-12 z"
         style="fill:#ffffff;fill-opacity:0.37647059;fill-rule:evenodd;stroke:none"
         sodipodi:nodetypes="ccssssc"
         inkscape:connector-curvature="0" />
      <path
         id="path2851"
         d="m 287.68049,347.04267 c 0.0931,4.34583 8.83119,45.36621 10.31951,51.31951 0.8626,3.45042 9.39984,-40.31768 7.95852,-46.08295 -0.78358,-3.13433 -18.93778,-36.67943 -18.27803,-5.23656 z"
         style="fill:#ffffff;fill-opacity:0.37647059;fill-rule:evenodd;stroke:none"
         sodipodi:nodetypes="csss"
         inkscape:connector-curvature="0" />
      <path
         id="path2853"
         d="m 171,498.36218 c 3.66546,1.48931 127.89649,-2.83918 135,9 2.63185,4.38642 -4.76449,22.5283 -19.68049,25.59754 -11.13168,2.29055 -108.07209,-14.04491 -113.2573,-20.95852 -3.27353,-4.3647 0.15468,-8.09679 -2.06221,-13.63902 z"
         style="fill:#ffffff;fill-opacity:0.37647059;fill-rule:evenodd;stroke:none"
         sodipodi:nodetypes="csssc"
         inkscape:connector-curvature="0" />
      <path
         id="path2855"
         d="m 129.34025,477.7439 c -4.0682,4.58954 -17.21519,6.76736 -25,10.65976 -10.093131,5.04657 -6.899774,5.36252 -9.298774,14.95852 -0.82407,3.29628 -3.108876,14.1348 -5.041476,18 -3.296257,6.59252 -10.746005,7.1492 5,4 6.3302,-1.26604 10.4365,-2.87299 13,-8 4.51481,-9.02961 6.93499,-12.93499 14,-20 3.72082,-3.72082 7.34025,-12.87285 7.34025,-19.61828 z"
         style="fill:#ffffff;fill-opacity:0.37647059;fill-rule:evenodd;stroke:none"
         sodipodi:nodetypes="cssssssc"
         inkscape:connector-curvature="0" />
      <path
         id="path2857"
         d="m 496.70123,289.7439 c -13.7508,10.98947 -42.64435,8.9443 -51.97926,11.27803 -5.63138,1.40785 -0.90515,18.81176 8.36098,16.95853 11.50707,-2.30141 37.55719,-2.17094 48.51459,-4.27803 10.29265,-1.97927 3.02074,-17.34025 -4.89631,-23.95853 z"
         style="fill:#ffffff;fill-opacity:0.50196078;fill-rule:evenodd;stroke:none"
         sodipodi:nodetypes="csssc"
         inkscape:connector-curvature="0" />
      <path
         id="path2859"
         d="m 502,326.36218 c 3.18897,12.10505 5.70309,41.81237 8,51 1.99485,7.97942 -34.70123,16.35982 -37.34025,2.25729 -1.60495,-8.57665 8.16496,-38.41751 29.34025,-53.25729 z"
         style="fill:#ffffff;fill-opacity:0.50196078;fill-rule:evenodd;stroke:none"
         sodipodi:nodetypes="cssc"
         inkscape:connector-curvature="0" />
      <path
         id="path2861"
         d="m 572,325.36218 c -1.97247,0.61289 -31.98184,-10.00363 -37,-9 -7.44696,1.4894 -11.66692,5.16673 -15,6 -2.42517,0.6063 -16.11396,-13.22792 -10,-1 1.74682,3.49365 4.43415,16.03169 5.36098,16.95852 6.38827,6.38828 7.68673,-11.29972 13.63902,-10.95852 23.73075,1.3603 33.34028,123.31954 38.4232,128.40246 10.9956,10.9956 19.6749,1.05865 20.5768,-3.40246 2.09155,-10.3455 -6.00145,-43.28918 -7.65975,-51.58067 -1.566,-7.82998 6.53015,-60.62492 -8.34025,-75.41933 z"
         style="fill:#ffffff;fill-opacity:0.37647059;fill-rule:evenodd;stroke:none"
         sodipodi:nodetypes="cssssssssc"
         inkscape:connector-curvature="0" />
      <path
         id="path2863"
         d="m 695,320.36218 c 0.55201,4.18042 -11.88283,33.19997 -17.63902,34.63902 -2.96024,0.74006 -19.61827,-16.22776 -19.61827,-22.31951 0,-6.61979 27.28117,-16.07548 32.25729,-17.31951 2.28665,-0.57166 3.33333,3.33334 5,5 z"
         style="fill:#ffffff;fill-opacity:0.50196078;fill-rule:evenodd;stroke:none"
         sodipodi:nodetypes="csssc"
         inkscape:connector-curvature="0" />
      <path
         id="path2865"
         d="m 625,311.36218 c -4.89001,3.31988 -9.13683,6.54733 -11,14 -1.92585,7.70342 -6.75764,11.75764 -12,17 -5.29588,5.29588 -3.33186,7.33407 -10,4 -0.45907,-0.22953 -0.56769,-15.27075 -1,-17 -2.13774,-8.55096 4.19404,-9.25391 9.65975,-13.97926 6.4414,-5.56888 14.72308,-5.94417 24.34025,-4.02074 z"
         style="fill:#ffffff;fill-opacity:0.37647059;fill-rule:evenodd;stroke:none"
         sodipodi:nodetypes="csssssc"
         inkscape:connector-curvature="0" />
    </g>
    <g
       id="g5562"
       style="filter:url(#filter3240-1)"
       transform="matrix(0.54613765,0,0,0.54613765,3.9357132,46.691886)">
      <path
         sodipodi:nodetypes="cscssssc"
         id="path3784"
         d="m 187,525.36218 c -0.23023,7.3493 1.53606,12.85577 0,19 -1.07267,4.29068 -12.62298,41.61257 -12.62298,47.54046 10.4466,-7.72067 24.91262,-24.46764 28.61165,-26.31716 6.12874,-3.06437 54.84804,-25.9175 61.52753,-27.58738 5.28478,-1.32119 -22.68451,-3.62622 -32.53886,-5.0712 -8.00058,-1.17315 -23.73036,-3.39073 -32.18931,-5.08252 -5.74804,-1.1496 -4.59431,-2.53864 -12.78803,-2.4822 z"
         style="fill:#000000;fill-opacity:0.18823529;fill-rule:evenodd;stroke:none"
         inkscape:connector-curvature="0" />
      <path
         id="path3760"
         d="m 230.7767,307.66801 c 21.00156,-16.49451 20.05133,-39.8385 65.2233,-54.30583 -18.96713,17.31853 -27.90986,52 -38,52 -4.75807,0 -7.75897,3.81029 -12,4.87055 -5.88895,1.47224 -9.03029,1.15109 -15.2233,-2.56472 z"
         style="fill:#000000;fill-opacity:0.18823529;fill-rule:evenodd;stroke:none"
         sodipodi:nodetypes="ccssc"
         inkscape:connector-curvature="0" />
      <path
         id="path3762"
         d="m 117,447.36218 c -1.50337,10.496 -13.88345,24 -20,24 -5.222273,0 -15.528796,4.94749 -25.870551,8.56472 5.9381,1.48453 16.002785,3.12091 12.870551,10.43528 -0.328487,0.76708 22.44992,-14.72496 29,-18 5.18793,-2.59396 24.41332,-15.1824 24.82362,-16.82362 C 139.21922,449.95614 119,448.36218 117,447.36218 z"
         style="fill:#000000;fill-opacity:0.18823529;fill-rule:evenodd;stroke:none"
         sodipodi:nodetypes="cscsssc"
         inkscape:connector-curvature="0" />
      <path
         id="path3764"
         d="m 141.61165,527.05635 c -3.75637,7.76642 -17.44821,28.42125 -19.61165,31.30583 -3.32866,4.43822 13.84117,-11.13666 19.2233,-12.4822 6.10768,-1.52692 -4.2233,10.4793 -4.2233,17.4822 0,5.25172 11.35508,-12.19551 13.30583,-13.65858 4.59031,-3.44273 8.90832,-7.16245 10.25889,-12.56472 1.65793,-6.63173 -17.33027,-9.43341 -18.95307,-10.08253 z"
         style="fill:#000000;fill-opacity:0.18823529;fill-rule:evenodd;stroke:none"
         sodipodi:nodetypes="csssssc"
         inkscape:connector-curvature="0" />
      <path
         id="path3766"
         d="m 242.39968,311.10328 c -15.14814,1.87155 -22.09385,13.90205 -26.88188,35.35275 -0.43528,-14.10229 0.95049,-22.03042 3.4822,-27.09385 2.98007,-5.96015 6.3383,-10.66386 11.87055,-12.04693 1.64893,-0.41223 9.86246,4.12137 11.52913,3.78803 z"
         style="fill:#000000;fill-opacity:0.18823529;fill-rule:evenodd;stroke:none"
         sodipodi:nodetypes="ccssc"
         inkscape:connector-curvature="0" />
      <path
         id="path3770"
         d="m 411,375.36218 c 4.5891,17.37359 40.91418,19.72855 46,21 5.64481,1.4112 6.7017,-12.711 8,-21.01133 1.2947,5.1788 0.50046,30.17487 20.88188,39.18771 -5.32097,-1.33024 -21.24528,-4.85808 -25.88188,-7.17638 -11.93332,-5.96666 -6.34019,-5 -19,-5 -6.9526,0 -10.51423,-2.30583 -17,-2.30583 -5.90709,0 -18.72895,-3.81407 -24.65858,-5 2.42468,-4.30308 10.99191,-18.0275 11.65858,-19.69417 z"
         style="fill:#000000;fill-opacity:0.18823529;fill-rule:evenodd;stroke:none"
         sodipodi:nodetypes="csccssscc"
         inkscape:connector-curvature="0" />
      <path
         id="path3772"
         d="m 373,394.36218 c 0.0418,-0.0836 2,19.48552 2,25 0,13.52367 -7,26.4874 -7,40 0,9.04892 -2.85561,19.42244 -5,28 -0.41223,1.64893 -0.66667,3.33334 -1,5 -0.78718,3.93592 -1.97351,8.10598 -1,12 0.0849,0.33941 14.80694,-16.01736 16,-19 5.58488,-13.9622 11.54956,-30.19823 15,-44 0.33333,-1.33333 0.66667,-2.66666 1,-4 1.65171,-6.60686 2.38716,-13.54863 4,-20 1.71545,-6.8618 -10.7907,-14.84302 -15,-18 -2.94265,-2.20698 -5.41448,-3.56579 -9,-5 z"
         style="fill:#000000;fill-opacity:0.18823529;fill-rule:evenodd;stroke:none"
         inkscape:connector-curvature="0" />
      <path
         id="path3774"
         d="m 594,370.36218 c -2.84294,-2.1322 -2.56745,6.0884 -1.39968,8.42394 2.31043,4.62085 10.39583,19.56068 11.39968,23.57606 1.46527,5.86108 0.55761,7.44239 6,2 4.39907,-4.39907 5.02082,-4.50301 10.08252,-9.56472 3.49484,-3.49484 23.5931,0.51281 31.23464,-5.91748 -8.95398,-1.7411 -17.33638,-1.02741 -20.31716,-2.5178 -5.53224,-2.76612 -13.06003,-3.03001 -19,-6 -5.92083,-2.96041 -11.33276,-4.6662 -18,-10 z"
         style="fill:#000000;fill-opacity:0.18823529;fill-rule:evenodd;stroke:none"
         sodipodi:nodetypes="csssscssc"
         inkscape:connector-curvature="0" />
      <path
         id="path3776"
         d="m 525,346.36218 c -5.99259,-2.99629 2,13.30009 2,20 0,8 0,16 0,24 0,7.71877 -4.69253,8.34627 6,3 3.71953,-1.85976 3,-12.23881 3,-16 0,-5.53681 -1.73491,-10.93964 -3,-16 -1.33402,-5.33607 -4.47534,-10.59417 -8,-15 z"
         style="fill:#000000;fill-opacity:0.18823529;fill-rule:evenodd;stroke:none"
         inkscape:connector-curvature="0" />
      <path
         id="path3778"
         d="m 474,281.36218 c 39.95932,-5.54811 63.96391,10.59736 88,6 5.06371,3.56056 5.77143,1.47835 7.90615,7.5178 2.19819,6.21904 8.02316,12.39928 10.56472,15.78803 3.65213,4.86951 5.06397,9.67561 8.56473,13.17637 1.94372,1.94373 8.44898,-13.02834 29.71683,-15.14078 -2.07323,-5.19184 -12.51982,-9.81229 -2.65858,-18.08252 -4.6508,0 -17.57434,3.61122 -22.09385,4.7411 -5.78381,1.44596 -6.97774,4.06139 -12.7767,2.61165 -7.29113,-1.82278 -19.56685,-8.81082 -23.91747,-14.61165 -4.11489,-5.48652 -6.13623,-6.32701 -13.12945,-9.82362 -5.85874,-2.92937 -39.71507,-1.79538 -46.69418,1.69417 -5.9406,2.9703 -14.58295,3.57566 -23.4822,6.12945 z"
         style="fill:#000000;fill-opacity:0.18823529;fill-rule:evenodd;stroke:none"
         sodipodi:nodetypes="ccsssccsssssc"
         inkscape:connector-curvature="0" />
      <path
         id="path3780"
         d="m 703,339.39778 c -1.30613,29.16359 -15.34902,38.23071 -13,40.9644 3.0175,3.51164 6.25635,-1.39249 9.5178,-5.7411 3.50454,-4.67272 6.4822,-11.40064 6.4822,-17.2589 0,-5.17005 0.0613,-12.86218 -3,-17.9644 z"
         style="fill:#000000;fill-opacity:0.18823529;fill-rule:evenodd;stroke:none"
         sodipodi:nodetypes="csssc"
         inkscape:connector-curvature="0" />
      <path
         id="path3782"
         d="m 231,427.36218 c 0,-6.28932 2.67565,25.20128 53,38 6.66359,1.69472 47.91176,15.88974 55,21 6.23935,4.49826 14.15812,9.86109 9,17 -4.22974,5.85402 -10.77408,-0.16243 -11.25889,-0.64725 C 332.51484,498.48866 325.9807,487.34288 322,483.36218 c -6.68159,-6.68159 -20.19362,-10.09681 -28,-14 -5.56005,-2.78002 -11.81772,-3.56472 -18.12945,-3.56472 -7.60515,0 -27.67743,-0.67941 -34.82362,-0.7767 C 239.13932,461.44147 231.05247,435.56682 231,427.36218 z"
         style="fill:#000000;fill-opacity:0.18823529;fill-rule:evenodd;stroke:none"
         sodipodi:nodetypes="cssssssscc"
         inkscape:connector-curvature="0" />
      <path
         id="path3786"
         d="m 682,362.1858 c 0.83255,15.57526 -1.66919,16.29087 -16.56472,24.17638 7.97082,0.1082 15.80037,-3.11782 17.56472,-4 5.50898,-2.75449 6.53432,-6.64048 3.56472,-11.82362 -2.61165,-4.55839 -2.74064,-3.12945 -4.56472,-8.35276 z"
         style="fill:#000000;fill-opacity:0.18823529;fill-rule:evenodd;stroke:none"
         sodipodi:nodetypes="ccssc"
         inkscape:connector-curvature="0" />
      <path
         sodipodi:nodetypes="cscssscc"
         id="path4675"
         d="m 653.3482,398.57871 c 1.36119,1.24518 1.35383,7.7913 8.7055,10.01133 9.65357,2.91515 9.67047,-1.30582 19.15212,7.83496 -2.27362,0 -19.07406,-3.04693 -21.32849,-3.04693 -2.83316,0 -2.61165,-0.45506 -2.61165,3.04693 0,3.09677 -3.86376,3.4822 -6.09386,3.4822 -2.36944,0 -5.77357,-2.17638 -8.27023,-2.17638 1.33287,-3.4822 10.2454,-18.14608 10.44661,-19.15211 z"
         style="fill:#000000;fill-opacity:0.18823529;fill-rule:evenodd;stroke:none"
         inkscape:connector-curvature="0" />
    </g>
    <path
       style="fill:#000000;fill-opacity:1;fill-rule:nonzero;stroke:none;display:inline"
       d="m 175.49121,176.84332 c -6.05994,0.12554 -13.74763,1.16754 -15.73559,1.74082 -15.27521,2.70388 -25.89167,13.59539 -31.30052,23.60338 -0.89452,2.34992 -8.85018,17.56616 -7.25339,26.19754 l 0.1536,4.77871 c 0.31782,7.01269 2.89727,30.0989 4.23257,35.41361 1.26476,5.35609 8.4213,28.24224 8.87474,32.95599 -7.82854,2.2618 -27.98431,4.67397 -34.713882,2.79896 -1.281964,-7.06452 -10.791974,-18.94743 -13.397438,-20.00229 -4.86e-4,-0.002 5.46e-4,-0.015 0,-0.0171 -0.0022,-0.004 -0.01513,-0.0129 -0.01709,-0.0171 -5.46e-4,-0.002 5.13e-4,-0.0149 0,-0.0171 0,0 -1.198237,-0.37369 -1.416545,-0.32426 -0.0016,4.8e-4 -0.01551,-5.5e-4 -0.01709,0 -0.0011,5.4e-4 -0.01611,-5.5e-4 -0.01709,0 -5.46e-4,0.001 5.46e-4,0.0161 0,0.0171 -3.971109,0.6168 -23.139912,2.28474 -31.675983,-5.23951 -2.08e-4,-0.003 -3.3e-5,-0.0143 0,-0.0171 2.1e-5,-0.003 2.13e-4,-0.0142 0,-0.0171 l -0.358403,-0.3072 -0.733873,-0.80214 c -1.916185,-0.94197 -3.950893,3.02008 -4.573905,4.6763 0,10e-6 12.702918,4.5123 15.496658,6.46832 0.951274,0.891 2.701426,1.67169 4.625103,2.33815 -0.04336,2.49963 -1.413043,6.94841 -9.455008,12.2881 -2.358746,1.41758 -24.166484,5.65464 -27.887155,7.93606 -7.461933,3.28356 -13.814525,20.01468 -14.592116,23.09139 -0.804034,2.90518 -11.4482351,26.6007 -6.2123157,28.24555 0,0 0.6157447,0.42745 0.9045407,0.42667 0.0091,-4.9e-4 0.02577,0.002 0.03413,0 0.0017,-2.4e-4 0.01556,6e-5 0.01707,0 0.0015,1.2e-4 0.01561,-2e-5 0.01707,0 3.06176,1.8041 16.086708,-16.0812 35.123478,-26.317 5.051223,-0.28959 24.879111,-2.46786 29.713303,-2.18456 0.250164,0.6771 0.732786,1.06334 1.587213,0.92161 0.791266,-0.2188 1.617261,-0.43963 2.338152,-0.7168 -0.36553,3.01249 -11.095076,19.36331 -12.868369,20.17296 -3.565487,1.0223 -12.778523,7.71595 -15.240654,15.00171 -0.653935,2.55831 -1.373952,18.90572 -1.365345,22.03324 0.0938,4.92296 1.798902,22.82695 1.60428,26.24875 -0.340899,2.91633 1.738838,9.02711 3.054958,8.60166 0.02622,-0.01 0.05977,-0.0192 0.08533,-0.0341 7.591232,-2.20767 23.222778,-25.91041 24.763929,-28.67223 1.700105,-2.53854 9.715101,-10.85638 10.93982,-17.4764 0.735369,-2.64271 4.806377,-6.37482 7.492326,-9.13074 4.068411,-2.3204 11.391901,-10.0377 13.568111,-12.35636 4.97332,-5.24074 29.63805,-15.95474 37.61523,-18.39802 1.39689,0.25546 2.53731,0.48845 3.32802,0.69974 5.15536,1.36156 25.76786,0.0184 29.73037,-0.88747 3.54188,-0.47936 13.56269,-7.18124 15.95746,-10.51315 1.7234,-2.51683 9.30159,-12.65166 18.12494,-36.65949 0.81278,-2.72237 4.32705,-20.44753 4.24964,-22.83538 0.64345,-1.60726 1.03165,-4.39721 1.63841,-6.67312 1.78349,0.26046 7.76956,1.03047 10.22302,1.34828 2.80096,0.10826 5.06215,0.63674 7.78246,1.31414 3.36349,0.82941 6.74843,1.32615 10.15474,0.3584 0.46491,-0.0806 0.90647,-0.21856 1.33121,-0.39253 1.22641,1.58285 4.71098,4.10064 6.72432,4.65923 2.11216,0.89378 11.81637,3.40537 15.87213,3.05496 3.05084,-0.0967 16.51787,-6.86226 17.5276,-10.75208 1.2127,-0.84404 3.82403,-2.70723 5.06884,-4.23257 0.32807,1.69504 0.60677,3.13485 0.80214,4.0619 0.83062,2.98467 3.58405,16.35453 4.62511,19.81455 0.90135,2.71214 5.80028,15.89481 6.84378,18.79055 0.73845,2.54843 10.0418,9.58927 17.15214,8.03847 5.22936,-0.72799 7.19025,-5.55504 9.35261,-8.3798 2.60495,-2.50154 11.21639,-10.59999 13.4145,-14.74572 1.55514,-2.71525 4.02793,-7.02723 6.04165,-10.66675 0.81837,0.0947 3.23559,0.12706 4.18137,0.256 0.002,-1.3e-4 0.0156,4e-5 0.0171,0 0.0122,0.003 0.0394,0.0138 0.0512,0.0171 0.002,-1.2e-4 0.0156,3e-5 0.0171,0 0.0716,0.0111 0.12219,0.0216 0.17067,0.0341 0.006,-2e-5 0.0281,4e-5 0.0341,0 0.0185,0.005 0.0374,0.0114 0.0512,0.0171 l 0,-0.0171 c 0.0715,0.002 0.14182,-0.006 0.22187,-0.0171 2.49916,0.2306 3.95353,-1.47019 3.19149,-3.46457 2.35514,0.96054 5.16677,0.53111 6.69019,0.40961 1.32855,-0.0752 7.24813,0.93442 10.08648,1.72375 1.21044,0.80041 3.48346,1.22535 4.48857,0.0341 l 0.58027,-0.34134 c -0.38995,-0.56552 -0.75635,-1.13535 -1.22881,-1.63841 -0.86771,-0.80317 -1.70574,-1.49997 -2.76482,-1.99682 -0.002,3.4e-4 -0.0156,-8e-5 -0.0171,0 -0.008,-0.004 -0.0256,-0.0128 -0.0341,-0.0171 -0.003,-0.003 -0.0143,-0.0141 -0.0171,-0.0171 -0.006,-0.003 -0.0117,-0.0142 -0.0171,-0.0171 -0.003,-0.002 -0.0139,0.002 -0.0171,0 -0.50339,-0.33343 -1.00725,-0.66091 -1.53601,-0.95574 3.12366,0.79615 6.77293,1.37308 8.34566,0.83627 0.38939,0.0424 0.80106,0.0368 1.21174,-0.0341 1.04006,-0.40269 2.9961,-1.47379 3.2427,-2.52589 0.0202,-0.0931 0.0254,-0.19543 0.0171,-0.29013 -0.0251,-0.23678 -0.14575,-0.48203 -0.39254,-0.69974 1.8224,-0.4386 3.29604,-1.65178 1.24588,-3.00376 l -0.27307,-0.0171 c -0.004,-0.002 -0.0129,-0.0144 -0.0171,-0.0171 -0.002,-5.4e-4 -0.0156,5.5e-4 -0.0171,0 l -0.0683,0 c -0.84768,-0.20159 -1.81899,-0.24759 -2.73069,-0.18773 -2.002,-0.29652 -9.72608,-1.22229 -11.67369,-1.96268 1.64278,-1.30098 3.26964,-2.55595 4.69337,-4.13017 0.34812,-0.79675 0.38266,-1.56785 0.22187,-2.30402 2.32596,-1.22857 6.64002,-7.02876 6.40005,-9.59154 -0.001,-2.71848 0.0845,-13.42932 -0.59734,-15.99159 -0.62214,-3.35479 -5.66857,-14.8697 -8.31153,-16.79374 -4.51989,-4.95664 -15.31984,-8.57163 -18.48335,-9.6598 -2.53564,-1.06556 -13.48514,-1.04521 -16.26466,-0.0683 -2.04716,0.5383 -12.99738,4.16786 -19.13189,4.8811 -1.21885,0.14172 -3.75636,-0.61075 -4.8299,-0.9216 l -0.63147,-0.29014 c 0.22883,0.72948 0.57125,1.35398 1.00694,1.89442 -3.02594,-0.32843 -6.20963,-1.55191 -7.13392,-2.76483 0,0 -7.34287,-7.23201 -10.56436,-9.76221 -3.53164,-2.6064 -21.01998,-2.78386 -27.22154,0.0512 -0.43141,-0.38665 -0.83901,-0.48917 -1.17761,-0.23894 -2.72237,0.4304 -10.93956,2.70953 -13.17557,3.6523 -2.60492,0.86225 -4.86147,0.47435 -7.44113,-0.42667 -1.83536,-0.58951 -5.12098,-1.42233 -7.23632,-1.65548 -7e-5,-0.002 -1.6e-4,-0.0134 0,-0.0171 l -0.0341,0.0171 c -0.14093,-0.0152 -0.28003,-0.0417 -0.4096,-0.0512 l -1.02401,0.58027 c -0.0487,0.71058 0.20984,1.24713 0.63147,1.68962 -2.24597,0.32219 -6.88893,0.43092 -8.943,-0.13654 l -1.04107,-1.28001 c -2.74223,-2.70637 -15.60617,-12.12823 -17.76655,-13.03903 -4.9566,-3.50692 -22.39317,-7.46149 -27.56288,-8.56754 -2.62507,-0.49149 -5.95036,-0.28754 -9.25021,0.25601 -1.1826,-0.59199 -3.7143,-0.79133 -6.69018,-0.75094 -0.14347,0.002 -0.28124,-0.003 -0.42667,0 z m 2.09921,0.98988 c 0.0991,-0.002 0.19332,0.002 0.29014,0 1.20134,-0.0198 2.22009,-0.006 2.96962,0.0512 -5.39907,1.08816 -10.38417,3.00037 -11.72489,4.2155 l 1.63841,-0.68268 c 1.47076,-1.29345 14.63974,-3.69148 20.78737,-2.93549 7.20247,1.38278 22.73158,5.40279 26.91434,8.0214 3.78149,2.71924 16.99471,11.63107 18.63695,13.73878 -3.2e-4,0.002 8e-5,0.0156 0,0.0171 0.002,0.002 0.0154,0.0156 0.0171,0.0171 1.44491,2.64021 5.20159,7.67013 6.89499,11.53716 1.30724,3.66772 0.69924,11.45784 0.34134,16.0428 -2.07137,4.12751 -9.97586,14.98272 -12.61237,15.80385 0.11863,-0.53077 0.18239,-1.02321 0.2048,-1.45067 0.4144,-2.53567 1.40974,-5.4626 3.25976,-7.407 2.17706,-1.97784 6.16616,-10.56956 4.19844,-15.08705 l -0.20481,0.0341 c 1.6367,5.90119 -3.45466,13.76735 -5.61497,15.71853 -1.80882,1.99923 -2.03012,4.5816 -2.45762,7.13392 -1.01964,5.37447 -7.87315,17.27446 -9.43794,18.91002 -1.34973,1.96863 -1.63172,6.90739 -2.54296,9.40381 -5.76156,-7.53909 -20.98733,-15.18606 -31.43705,-23.94473 -2.55223,-2.51734 -21.0117,-20.36021 -24.16659,-23.48392 -2.63636,-2.57932 -16.16071,-10.80177 -17.4252,-10.25714 -0.006,0.003 -0.0285,0.0141 -0.0341,0.0171 l -0.58027,0.17067 c -2.1945,0.42174 -5.43062,1.99712 -7.09979,2.38935 -2.3947,-0.6616 -4.59401,-1.54371 -7.11685,-1.72375 -5.79394,0.15323 -8.3553,5.21197 -9.45501,10.15475 1.42552,-9.87578 8.17779,-22.00978 8.97714,-24.04712 3.69189,-7.4067 16.99852,-17.94397 27.56288,-20.5143 2.3523,-0.71348 12.97549,-1.715 19.21722,-1.84321 z m 113.93797,17.6812 c 0.12978,-0.003 0.26287,0.002 0.39254,0 4.45734,-0.0749 8.83406,0.42388 11.72489,1.99682 l 11.19582,10.30835 c 1.85516,1.02422 5.59975,2.56782 7.8166,2.37228 0.0829,0 0.15113,0.003 0.22186,0 3.20527,2.57548 9.07943,2.35351 12.56117,1.94562 -2.94823,1.41201 -6.77528,3.62199 -7.98726,4.33496 -0.21448,0.0311 -0.42566,0.0651 -0.63147,0.10241 l -0.25601,0.1536 c 0.96504,0.31796 3.60558,0.26302 6.58779,0.0512 -3.02111,1.54714 -5.83914,5.16441 -6.92912,6.60485 -0.68831,-2.49552 -1.44186,-4.66372 -2.11629,-5.49551 -1.80072,-2.45412 -7.32461,-5.67383 -7.85073,-7.98726 l -0.17066,-0.1024 c 0.60857,2.3368 5.18433,6.22704 6.98032,8.66993 1.69466,2.1006 4.15381,12.79396 4.64217,15.51373 0.4078,2.57085 -0.51348,13.06744 -0.97281,15.75265 -0.50111,2.91387 -0.49839,15.49134 0.18774,18.36388 0.86633,2.51886 2.64193,12.28659 2.64535,14.98465 0.65214,3.48907 0.0158,11.89981 0,12.6465 l 0.63147,0.13654 c 0.0166,-0.74374 1.0883,-9.78759 0.46081,-13.27797 0.004,-1.03852 -0.27743,-3.20666 -0.68268,-5.63205 1.85042,-2.54593 8.24694,-10.32156 10.29128,-11.74196 1.57436,-1.34564 4.66443,-5.87069 8.82354,-6.36591 1.44332,0.24391 6.9445,-0.14854 9.55741,0.2048 -1.39721,0.68388 -2.56236,1.50715 -3.07202,2.11628 2.70819,1.50884 9.52669,1.20608 12.57823,1.50188 -0.6943,1.62112 -1.77648,3.37962 -3.08909,5.93925 -2.34725,0.38424 -4.61404,0.19665 -6.62192,0.8704 1.26308,-1.98573 3.16453,-4.75178 2.20162,-6.38298 l -0.11947,-0.1024 c 0.64453,1.78824 -3.29595,6.50048 -4.18137,8.29446 -1.43978,3.05621 -6.11155,11.71786 -8.75527,16.02573 -1.78501,2.58743 -11.04811,12.18649 -13.61931,14.72865 -2.8016,3.67461 -3.68335,5.99828 -9.16487,7.20219 -7.51916,-0.86968 -13.34164,-5.0565 -14.69451,-7.27046 -1.04722,-2.89011 -6.34948,-17.00174 -7.25339,-19.71215 -1.04225,-3.45987 -3.89626,-16.71553 -4.72751,-19.69509 -0.21092,-1.00733 -0.5101,-2.6171 -0.85334,-4.50564 0.01,-0.0451 0.0132,-0.0763 0.0171,-0.11947 l -0.0512,-0.0683 c -1.03005,-5.67942 -2.39629,-13.75395 -2.71362,-15.83799 -0.22213,-3.27377 -2.27482,-15.07459 -2.13335,-16.93027 l -0.27307,0.54614 c -0.0575,0.67765 0.56019,7.1412 1.02401,12.11743 -1.17362,-1.14072 -3.51683,-3.25629 -4.09603,-4.77871 l -0.46081,0.0853 c 0.72939,1.83062 4.03174,6.13543 4.79578,7.21926 0.0909,1.01773 0.1645,1.87719 0.2048,2.45762 0.29853,1.97677 1.64167,9.34907 2.71362,14.95052 -0.85852,1.55642 -3.42648,3.83081 -4.69337,4.8811 -0.0146,-3.7241 -2.33725,-9.31556 -2.78189,-11.82729 -0.5557,-3.46003 -2.85681,-17.17524 -3.56696,-20.59963 -0.75671,-3.14098 -3.65086,-14.43986 -3.32803,-17.64707 0.19008,-4.48801 -2.2822,-12.366 -4.3691,-15.10412 3.07431,-0.80109 8.55297,-1.76349 13.96064,-1.89442 z m -16.43533,1.91148 c 3.54604,1.25658 5.57263,9.12816 5.81978,15.17239 -0.20871,2.68971 2.80929,15.74834 3.56696,18.89295 0.6925,3.42577 2.89098,16.37067 3.43043,19.83162 0.47347,2.65031 2.40242,9.28764 2.57708,11.24703 -0.63001,3.70961 -12.67735,10.36665 -15.80385,10.47901 -5.56541,0.21713 -13.60668,-1.84224 -15.71853,-2.74775 -2.00083,-0.56127 -6.58509,-3.13388 -7.09979,-3.97657 2.2848,-1.12139 3.93067,-3.39333 4.84697,-4.86404 0.97106,-2.73405 0.85715,-5.77128 1.41655,-8.60166 0.86152,-3.01227 1.33967,-13.77819 2.42348,-16.69134 l -0.0512,0.0341 c -1.44873,1.81077 -2.82917,14.50338 -3.70349,17.54467 -0.54118,2.84058 -0.0399,4.59972 -1.41655,7.33872 -0.74689,0.94146 -0.42585,2.99101 -3.87416,4.76164 -3.39803,0.9533 -6.50342,1.03715 -9.86461,0.22187 -2.72219,-0.70144 -5.87981,-1.10869 -8.68701,-1.22881 -1.85348,-0.22491 -6.00461,-1.10252 -8.7382,-1.70668 9.89484,-6.33895 20.23186,-25.22681 21.14577,-32.68293 0.0984,-3.15008 1.19312,-16.31327 -0.2048,-19.13188 -1.94415,-3.82111 -4.48022,-7.31398 -6.14405,-9.84754 2.00459,0.38672 6.58228,0.63778 8.87474,-0.51201 0.6538,0.42885 1.46059,0.75736 2.18455,1.12641 2.91939,1.38288 4.75272,3.19706 5.87098,6.05872 1.09862,3.01654 3.14988,10.00271 3.20855,10.24008 l 0.51201,-0.32427 c -0.0598,-0.23811 -1.58295,-6.97998 -2.67949,-10.00115 -1.13835,-2.89927 -3.13508,-5.0072 -6.07578,-6.43418 -1.22879,-0.62582 -2.30309,-1.2319 -2.71362,-2.32109 1.91854,0.16723 3.75483,0.89532 5.58084,1.48481 2.58585,0.90132 4.89562,1.32618 7.52646,0.52907 l 13.78998,-3.89123 z m 77.32968,6.45125 c 0.16524,-0.003 0.33049,0.002 0.49493,0 2.90674,-0.0294 5.64875,0.16049 6.79259,0.63148 3.15879,1.09889 10.33504,1.13355 19.91696,10.00114 3.72794,3.94096 7.44521,13.23122 8.05553,16.57187 0.66873,2.55313 0.85379,12.69059 0.0683,16.34999 -1.2791,2.64225 -2.52768,6.35063 -5.32485,7.30459 -0.48316,-0.99555 -1.28266,-1.94206 -2.11628,-2.85015 l -0.0171,0.0341 c -0.65121,-2.11978 -2.10334,-6.20903 -3.48163,-7.71419 -2.19826,-2.7442 -4.9766,-4.33966 -7.45819,-6.82672 -2.2371,-2.34003 -4.16734,-4.70334 -6.10992,-7.30459 -1.60446,-2.24153 -8.24609,-7.57279 -11.02515,-12.86837 -2.36452,-2.88932 -5.38504,-2.64065 -8.49927,-2.81603 -5.84947,1.65753 -10.78805,1.56658 -14.60918,1.89442 1.33914,-0.8945 4.83051,-3.11864 7.62886,-4.1131 2.51987,-0.93024 13.6663,-0.7251 16.5036,-0.0512 3.63862,0.99676 7.64841,2.68626 11.05928,4.28376 l 0.25601,-0.34133 c -3.46806,-1.45691 -6.86718,-3.60422 -10.49609,-4.6251 -2.45296,-0.54544 -10.73748,-1.08096 -14.60918,-0.64854 0,0 -14.6042,2.30493 -16.26466,-1.84322 5.26709,1.51883 18.60113,-3.52313 20.95803,-4.14723 1.44529,-0.50678 4.91747,-0.85956 8.2774,-0.92161 z m -205.80856,10.24009 c 2.48293,1.55019 7.43208,4.56272 11.17875,7.08272 -0.0217,2.81075 -0.35392,8.76454 -0.59733,12.61236 -3.85676,-3.26436 -9.48198,-15.9717 -10.58142,-19.69508 z m -1.79202,0.23893 c 0.002,-1.8e-4 0.0149,-6e-5 0.0171,0 0.002,2.2e-4 0.0149,-2.7e-4 0.0171,0 0.002,7e-5 0.015,1.8e-4 0.0171,0 0.73823,2.80183 10.19589,19.19679 12.16863,21.55537 -0.0247,0.37417 -0.0352,0.71848 -0.0512,0.95574 0.19157,1.3111 0.44618,4.87118 0.73388,8.46514 -12.99529,2.0334 -22.61984,3.48179 -34.32134,0.7168 -0.83975,-7.61563 -1.49106,-14.62421 -1.48481,-16.5036 0.76219,-4.93819 3.12964,-13.03338 8.07259,-14.04597 2.52438,0.20498 4.61767,0.56578 6.99739,1.34827 2.10012,-0.44019 5.24814,-1.82857 7.83366,-2.49175 z m 201.30293,1.16054 c 0.0762,-0.002 0.14854,10e-4 0.22187,0 3.58474,-0.055 4.09107,0.96968 5.0347,2.90136 2.07578,2.88843 4.56922,5.69975 7.01446,8.175 -0.80539,1.03706 -1.68608,2.61702 -1.96268,3.66936 -1.14082,4.07574 0.96234,6.49926 1.39947,7.20219 0,0 3.32719,-1.71346 4.0107,-2.86722 0.18034,-0.78224 0.0298,-3.17077 -0.3072,-4.96644 0.27466,0.25574 0.55283,0.50767 0.81921,0.75094 0.95082,1.27215 1.92052,2.52837 2.93549,3.75469 -0.86955,1.42813 -2.71805,4.1628 -2.74776,6.48539 0.3678,0.27779 0.87541,0.45558 1.21174,0.23893 0.007,-0.005 0.0247,-0.0111 0.0341,-0.0171 0.002,-0.002 0.0151,-0.0156 0.0171,-0.0171 0.003,-0.003 0.0138,-0.0141 0.0171,-0.0171 0.003,-0.003 0.0139,-0.014 0.0171,-0.0171 0.005,-0.005 0.0251,-0.0251 0.0341,-0.0341 0.003,-0.003 0.014,-0.0141 0.0171,-0.0171 0.0174,-0.0222 0.0357,-0.0595 0.0512,-0.0853 0.0127,-0.0221 0.0399,-0.0606 0.0512,-0.0853 0.011,-0.0253 0.0246,-0.0573 0.0341,-0.0853 0.097,-1.53511 1.01005,-4.84214 1.87735,-5.37604 0.009,-0.004 0.0282,-0.0139 0.0341,-0.0171 0.006,-0.002 0.0268,-0.0148 0.0341,-0.0171 0.002,-5.5e-4 0.0152,5.4e-4 0.0171,0 0.006,-0.003 0.0282,-0.0141 0.0341,-0.0171 0.006,6e-5 0.0282,-1.8e-4 0.0341,0 0.82361,0.96432 1.66873,1.90509 2.54296,2.81602 2.46895,2.49099 5.12731,4.1724 7.32165,6.91206 1.51429,1.66411 2.89486,6.06598 3.32803,7.69713 -4.69935,6.21342 -13.23768,4.74884 -15.70146,5.22244 -0.90204,0.004 -1.89202,0.21086 -2.86722,0.52907 -0.74849,-0.0708 -1.73981,-0.1602 -2.91842,-0.27307 1.71278,-1.49572 5.80605,-5.68611 4.02776,-9.48914 -0.0754,-0.19169 -0.19056,-0.38355 -0.32427,-0.52907 -0.13966,-0.14763 -0.31224,-0.25934 -0.49493,-0.29014 -0.0105,-0.003 -0.0388,-0.0135 -0.0512,-0.0171 -0.003,-5.5e-4 -0.0144,4.8e-4 -0.0171,0 -0.0229,-10e-4 -0.062,-0.002 -0.0853,0 -0.003,2.4e-4 -0.0138,-4.9e-4 -0.0171,0 -0.0217,0.004 -0.0503,0.0137 -0.0683,0.0171 -0.13441,0.0282 -0.28157,0.0996 -0.42667,0.22187 1.1611,5.28099 -1.66366,8.7881 -2.98669,10.05235 -5.38752,-0.5177 -13.81946,-1.37265 -17.20333,-1.94562 -2.21981,-0.93406 -10.16392,-4.98171 -12.15156,-7.85073 0.42546,-3.5237 0.90592,-12.29463 0.52907,-14.66038 -0.27068,-1.49539 -1.06626,-5.40263 -1.99682,-8.97714 -3.4e-4,-0.002 9e-5,-0.0156 0,-0.0171 1.41906,-2.77032 5.54817,-6.4317 8.7894,-7.8678 3.75494,-0.3271 7.56311,-0.79942 9.02834,-0.9728 0.67095,-0.0591 1.27594,-0.10431 1.80908,-0.11947 z m -186.74494,6.77552 c 1.16989,0.82547 2.11667,1.55725 2.67948,2.09922 3.14924,3.11733 21.87001,20.72887 24.4226,23.24498 0.21397,0.23104 0.44638,0.46722 0.7168,0.71681 -4.6963,0.24647 -22.76754,0.32606 -28.33089,-1.72375 -0.37528,-4.04363 -0.726,-8.53001 -0.93867,-10.05234 0.20541,-2.4318 -0.17755,-9.39449 1.45068,-14.28492 z m 199.4085,4.69337 c 0.69405,0.69459 1.37791,1.36203 2.04802,1.99682 0.20792,1.05619 0.29673,2.49085 0.22187,3.72056 -1.57775,0.2858 -3.34916,-1.30014 -4.0619,-2.01388 0.0565,-0.26624 0.13308,-0.53873 0.22187,-0.81921 0.3114,-1.1207 0.87951,-2.00026 1.57014,-2.88429 z m -21.8455,0.47787 -0.17067,0.0512 c 0.63909,0.78748 1.10661,1.64006 1.86028,2.25282 -0.67635,1.04044 -1.82876,2.40689 -2.44055,3.37922 -0.69762,1.30178 -2.55784,4.55909 -3.05496,7.7654 -0.50882,2.60595 2.49874,5.23756 3.48163,5.68324 0,0 0.16608,-0.059 0.22187,-0.0683 0.002,-2e-4 0.0157,7e-5 0.0171,0 1.32821,0.46149 4.51154,-2.73653 5.05177,-4.09603 0.46123,-1.433 0.84941,-7.89477 0.30721,-9.54034 -0.62174,-1.23295 -1.53811,-2.13088 -2.56002,-3.07202 -0.9952,-0.60704 -1.98637,-1.43622 -2.71362,-2.35522 z m 22.44284,1.34828 c -0.13905,0.0222 -0.28349,0.081 -0.39253,0.1536 -0.0408,0.0284 -0.0862,0.0682 -0.11947,0.1024 -0.004,0.004 -0.0128,0.0128 -0.0171,0.0171 -0.2622,0.27216 -0.48737,0.8161 -0.32427,1.14347 0.19209,0.36497 0.93055,0.50993 1.33122,0.42667 0.4243,-0.0701 0.77278,-0.47316 0.768,-0.90454 1.7e-4,-0.0103 2.5e-4,-0.0239 0,-0.0341 -1.2e-4,-0.008 5e-5,-0.0255 0,-0.0341 -0.001,-0.0149 0.002,-0.0364 0,-0.0512 -0.0449,-0.29527 -0.26125,-0.57071 -0.52907,-0.69974 -0.19323,-0.099 -0.44022,-0.1483 -0.68267,-0.11946 -0.0134,0.002 -0.0209,-0.002 -0.0341,0 z m -115.18384,1.04108 c -0.0181,0.2805 -0.0262,0.52155 -0.0341,0.73387 -1.28599,12.98794 -15.5747,28.95983 -20.5655,32.40986 -0.52878,-0.11788 -0.97462,-0.2128 -1.31414,-0.29014 0.22457,-0.6451 0.47987,-1.21612 0.78507,-1.63841 1.20161,-1.22626 5.54375,-8.63162 7.68006,-14.26785 3.54757,-2.33112 11.06434,-12.50172 13.44864,-16.94733 z m 94.75488,0.13653 c 0.0135,0.009 0.0239,0.0256 0.0341,0.0341 0.008,0.006 0.0238,0.0108 0.0341,0.0171 0.0792,0.0724 0.16245,0.14707 0.23893,0.22187 0.29553,1.28828 -0.6547,3.58957 -0.93867,4.8299 -0.4669,1.48455 -1.08805,2.91399 -1.63841,4.3691 -0.41668,1.19689 -0.59735,2.39841 -0.42667,3.6523 0.0434,0.52584 0.15661,1.12327 0.44373,1.45068 0.0375,0.0351 0.1977,0.15905 0.25601,0.18773 0.006,0.002 0.026,0.015 0.0341,0.0171 0.10391,0.0239 0.34695,0.0479 0.44374,0.0341 0.004,-5.5e-4 0.0139,10e-4 0.0171,0 0.003,-0.001 0.0149,-0.0159 0.0171,-0.0171 5.5e-4,-10e-4 0.0164,-0.0162 0.0171,-0.0171 0.002,2.5e-4 0.0155,-6e-5 0.0171,0 0.1224,-0.13323 2.86553,-4.10204 3.05496,-6.58778 0.18229,-1.61283 -0.0933,-3.43662 -0.39254,-5.03471 -0.084,-0.77141 -0.24473,-1.54174 -0.37547,-2.30402 0.6553,0.74977 1.20663,1.58361 1.65548,2.47469 0.53147,1.63289 0.36841,7.34917 -0.34133,9.48914 -0.5511,1.29532 -3.4071,2.74889 -4.04483,3.14029 -1.19616,-0.60522 -3.76308,-2.25695 -3.1915,-5.47844 0.767,-2.06413 1.70282,-5.68353 3.12323,-7.62886 0.61254,-0.96493 1.40229,-1.85858 1.96268,-2.85016 z m 17.88601,1.91148 c 0.70427,0.6429 2.10746,1.73203 4.1643,1.45068 -0.056,0.46201 -0.15524,0.87319 -0.27307,1.19468 -0.60195,0.91825 -1.51757,1.58102 -2.38935,2.26988 -0.36266,-0.57316 -1.64256,-2.30125 -1.50188,-4.91524 z m -17.25454,0.23894 c 0.18378,1.88464 0.33411,4.51119 0.0512,6.24645 -0.25079,1.14212 -1.8207,4.56258 -2.38936,5.95631 -0.34635,-0.37327 -0.31539,-0.86932 -0.37547,-1.58721 -0.10396,-1.2419 0.15425,-2.46985 0.61441,-3.6523 0.5465,-1.45924 1.15888,-2.89781 1.62134,-4.38616 0.15876,-0.71218 0.38279,-1.65959 0.47788,-2.57709 z m 8.70407,6.45125 c -0.12443,0.0525 -0.96377,0.50483 -1.50188,0.98987 l 0.61441,0 c 0.25445,-0.24068 0.72713,-0.0455 0.9216,0.1536 0.018,0.0196 0.039,0.0491 0.0512,0.0683 0.004,0.008 0.0138,0.0267 0.0171,0.0341 0.003,0.007 0.0155,0.027 0.0171,0.0341 0.13343,0.92047 -1.31415,1.70667 -1.31415,1.70668 0.005,0.008 0.0144,0.0279 0.0171,0.0341 10e-4,0.003 -10e-4,0.0138 0,0.0171 10e-4,0.003 0.0149,0.014 0.0171,0.0171 0.68638,-0.0821 1.16076,-0.18634 1.45068,-0.42667 0.33776,-0.29213 0.43284,-0.80943 0.3584,-1.77495 -0.13104,-0.48598 -0.30465,-0.73599 -0.512,-0.8192 -0.0128,-0.004 -0.0356,-0.0119 -0.0512,-0.0171 -0.0211,-0.007 -0.0502,-0.0152 -0.0683,-0.0171 -0.003,0.001 -0.013,-0.002 -0.0171,0 z m -1.92855,5.29071 c -0.023,0.003 -0.0446,0.0122 -0.0683,0.0171 -0.002,4.3e-4 -0.0156,-5.4e-4 -0.0171,0 -0.003,0.002 -0.0143,0.0154 -0.0171,0.0171 -0.003,0.002 -0.0143,0.0155 -0.0171,0.0171 -0.002,5.5e-4 -0.0156,-5.5e-4 -0.0171,0 l -0.18774,0.1024 c 0.12976,-0.02 0.22937,-0.0275 0.30721,-0.0171 0.006,0.003 0.0283,0.0139 0.0341,0.0171 0.006,-1.5e-4 0.0282,8e-5 0.0341,0 0.006,0.003 0.0285,0.014 0.0341,0.0171 0.006,0.003 0.0254,0.0126 0.0341,0.0171 0.003,0.003 0.0142,0.014 0.0171,0.0171 0.006,0.003 0.0282,0.0142 0.0341,0.0171 -2.3e-4,0.002 6e-5,0.0155 0,0.0171 0.003,0.003 0.014,0.014 0.0171,0.0171 0.11721,0.19413 0.28691,0.54947 0.17067,0.95574 -0.003,0.003 -0.0139,0.014 -0.0171,0.0171 -0.003,0.015 -0.0127,0.0366 -0.0171,0.0512 -0.008,0.024 -0.0233,0.0626 -0.0341,0.0853 -0.12273,0.24319 -0.39522,0.4193 -0.52907,0.52907 -0.002,0.002 -0.0153,0.0152 -0.0171,0.0171 -0.002,-3e-5 -0.0153,2.1e-4 -0.0171,0 -0.002,0.002 -0.0152,0.0151 -0.0171,0.0171 -10e-4,1.8e-4 -0.0133,5e-5 -0.0171,0 l -0.17067,0.23893 c 0.009,0.004 0.0248,0.0117 0.0341,0.0171 0.0607,0.0375 0.13003,0.0974 0.18773,0.13653 0.018,0.0103 0.0525,0.0274 0.0683,0.0341 0.003,0.001 0.0138,-0.001 0.0171,0 0.003,0.001 0.0133,0.0162 0.0171,0.0171 0.008,0.002 0.0267,-0.001 0.0341,0 0.003,3e-4 0.0139,-1e-4 0.0171,0 0.004,4e-5 0.0157,1e-4 0.0171,0 0.002,4e-5 0.0156,-1e-5 0.0171,0 0.002,-0.002 0.0156,-0.0155 0.0171,-0.0171 1.30013,-0.72851 1.00806,-2.46591 0.0512,-2.35521 z m 1.50188,0.63147 -0.22187,0.17067 c 0.63904,1.15008 0.96201,2.4859 2.20162,2.78189 0.9131,0.0489 2.178,-1.13769 3.03789,-1.36535 l 0.1024,-0.32427 c -0.84858,0.25432 -1.45739,0.81416 -2.37228,0.76801 -1.23456,-0.26039 -2.12967,-0.88562 -2.74776,-2.03095 z m 6.99739,0.27307 c -0.22953,0.10531 -3.89137,1.8717 -3.58403,6.75845 0.0954,1.19046 0.0876,3.70614 1.63841,4.33497 0,0 3.38622,-1.41677 3.73763,-3.8059 0.83448,-2.35991 -0.13336,-6.74597 -1.77494,-7.28752 0,0 -0.01,-0.003 -0.0171,0 z m 0.17067,0.8704 c 0.002,2e-4 0.0156,-4e-5 0.0171,0 l 0,0.0171 c 0.20016,0.28046 0.44039,0.90095 0.64854,1.67255 -0.85964,-0.35648 -1.90277,-0.22238 -2.81602,0.18773 0.44608,-0.80214 1.12229,-1.50849 2.15042,-1.87735 z m -197.12156,1.96269 c 0.22257,2.61258 0.45261,4.96564 0.68267,6.14405 1.27551,6.09406 2.8403,12.40293 4.3691,18.43214 0.038,0.18328 0.081,0.54845 0.13654,1.05814 -4.22196,1.92538 -32.00665,1.06301 -35.29415,-0.11946 -0.61164,-2.13097 -1.0762,-3.86034 -1.31414,-4.88111 -0.72998,-2.87375 -1.86021,-11.43488 -2.81602,-19.83162 6.02987,2.02951 30.73082,-0.43879 34.236,-0.80214 z m 196.26822,0.4096 c 0.0599,-0.003 0.1115,0.002 0.17067,0 0.73208,-0.0247 1.39134,0.0488 1.55307,0.29014 10e-4,0.003 -10e-4,0.0142 0,0.0171 0.003,0.0122 0.0148,0.0403 0.0171,0.0512 0.26181,1.3841 0.35243,2.958 -0.0512,3.99363 -0.9856,-0.14024 -2.9982,-0.60625 -3.82297,-1.33121 0.0123,-0.74303 0.11115,-1.80815 0.49494,-2.81602 0.44874,-0.0823 1.05959,-0.17393 1.63841,-0.2048 z m -195.14181,0.52907 c 6.85283,2.34073 22.93221,1.13365 29.2013,0.69974 7.50945,6.14137 27.57427,16.55223 30.95917,23.77405 -0.43507,2.60424 -1.34655,6.81138 -2.25281,10.82036 -20.29112,-1.11687 -48.90552,-8.73952 -52.61695,-10.76916 -0.0732,-0.78554 -0.14601,-1.33492 -0.2048,-1.58721 -1.58225,-6.01404 -3.25569,-12.19156 -4.48857,-18.29561 -0.18444,-0.95524 -0.39988,-2.66436 -0.59734,-4.64217 z m 194.97114,0.51201 c -0.21343,0.0271 -0.41357,0.11972 -0.54614,0.256 -0.009,0.008 -0.0255,0.0252 -0.0341,0.0341 -0.26114,0.28088 -0.48276,0.82325 -0.3072,1.14348 0.19208,0.36496 0.94762,0.50991 1.34827,0.42667 0.42431,-0.0701 0.75573,-0.47317 0.75094,-0.90454 1.7e-4,-0.0103 2.3e-4,-0.0239 0,-0.0341 -0.005,-0.32085 -0.21632,-0.63198 -0.49493,-0.78507 -0.009,-0.005 -0.0247,-0.0126 -0.0341,-0.0171 -0.17618,-0.0903 -0.39133,-0.1349 -0.6144,-0.11947 -0.0223,0.002 -0.0462,-0.003 -0.0683,0 z m -26.18047,0.0341 c 2.1205,2.78918 8.9462,6.54074 10.95688,7.38992 1.57422,0.60918 5.951,1.28006 8.60167,1.65548 -2.37592,0.53865 -6.34445,5.68418 -8.7382,7.73126 -0.83812,0.5769 -2.21468,1.87427 -3.66936,3.3451 -1.14332,-2.22568 -3.24587,-7.5889 -3.94244,-9.72808 -0.32384,-1.53008 -2.67895,-5.79456 -3.51576,-6.67312 0.0759,-1.59995 0.18064,-2.93518 0.30721,-3.72056 z m 24.25192,2.74775 c 0.79001,0.7275 2.30648,1.28199 3.37923,1.17761 -0.637,0.83753 -1.59404,1.75111 -2.06509,2.16749 -1.26701,-0.67907 -1.26345,-2.19246 -1.31414,-3.3451 z m 27.83595,1.31415 c 1.53488,1.55719 2.75224,2.3466 1.80909,4.40323 -1.70112,1.82931 -4.4769,4.46236 -6.34885,6.09285 -2.43986,3.48713 -7.13941,4.4819 -9.35261,4.55684 1.35649,-2.62857 2.98714,-4.49528 4.02776,-6.41712 -3.02467,-0.28543 -8.58996,0.98867 -12.68063,-1.14348 3.72774,-2.98347 17.78603,-1.13271 22.54524,-7.49232 z m -52.48041,2.09921 c 1.3195,0.7785 2.45278,3.3338 2.69655,4.74457 0.73951,2.25725 3.29293,7.24926 4.13017,9.93288 -1.87812,1.94059 -3.74442,4.03179 -4.60804,5.13711 -0.61464,-3.38384 -1.37576,-6.83005 -1.82614,-8.14086 -0.42145,-1.77072 -0.50969,-7.15169 -0.39254,-11.6737 z m 49.44252,7.8678 c 2.28317,0.7578 10.95991,1.64363 11.40063,1.77495 l 0.11946,-0.0341 c -0.5505,0.65624 -0.3337,1.39675 0.0341,1.99682 -2.01834,-0.21235 -10.51702,-1.71724 -13.17557,-1.87735 0.60403,-0.58474 1.14586,-1.20678 1.62134,-1.86028 z m 12.85131,1.46774 c 0.0422,-0.003 0.0786,0.002 0.11946,0 0.97048,-0.0341 1.58671,0.24616 2.62829,0 0.0243,0.0199 0.0597,0.0465 0.0853,0.0683 0.002,0.002 0.0148,0.0149 0.0171,0.0171 0.002,0.002 0.0151,0.0148 0.0171,0.0171 0.01,0.0128 0.0252,0.038 0.0341,0.0512 0.0234,0.0367 0.0493,0.0924 0.0683,0.13654 0.002,0.004 0.0157,0.0135 0.0171,0.0171 0.001,0.003 -10e-4,0.0137 0,0.0171 0.009,0.0388 0.0134,0.0975 0.0171,0.13653 0.0641,0.89032 -1.45525,2.20523 -2.95256,1.80908 -0.95036,-0.51206 -0.82902,-1.95554 -0.7168,-2.23575 l 0.0683,-0.0171 c -7e-5,0.002 2e-5,0.0155 0,0.0171 1.1e-4,0.002 0,0.0151 0,0.0171 -3.1e-4,0.007 -10e-5,0.0273 0,0.0341 0.21323,-0.0394 0.41443,-0.0726 0.59733,-0.0853 z m -15.56493,1.34828 c 0.002,8e-5 0.0153,-3.3e-4 0.0171,0 2.46208,0.10825 10.06278,1.14431 13.3121,1.53601 -0.72298,0.22054 -1.38616,0.63924 -1.82615,1.39948 -0.16899,0.70307 -0.0138,1.20908 0.32427,1.55308 -3.19634,0.003 -10.71588,-1.59779 -11.87849,-2.38935 -0.003,-0.003 -0.0142,-0.0142 -0.0171,-0.0171 -0.002,6e-5 -0.0152,-2.2e-4 -0.0171,0 -0.003,-0.003 -0.0141,-0.0142 -0.0171,-0.0171 1.2e-4,-0.002 -5.5e-4,-0.0154 0,-0.0171 -0.003,-0.006 -0.0143,-0.0283 -0.0171,-0.0341 l -0.4608,0.0853 c 0.90867,1.35651 2.54229,1.78245 3.97656,2.42348 0.26143,0.13046 0.53222,0.25935 0.80214,0.39254 -0.32915,1.26283 -0.0193,2.57222 0.59734,3.56696 -2.81226,-0.93061 -7.28283,-2.16791 -8.49927,-2.09922 -2.15638,0.1686 -7.47523,0.9053 -10.01821,-1.87734 l -0.256,0.44373 c 0.28566,0.41916 0.59115,0.7721 0.93867,1.07521 -1.12175,-0.48762 -2.4276,-1.0799 -3.36216,-1.34828 0.11553,-0.21595 0.26879,-0.46154 0.42667,-0.7168 1.44978,0.0555 4.807,-0.72978 5.75152,-0.88748 0.48421,-0.072 0.96124,-0.15252 1.41654,-0.22186 2.17854,0.93603 5.86791,-0.4611 8.80647,-2.85016 z m 14.52385,1.31415 c 0.002,0.002 0.0148,-0.002 0.0171,0 10e-4,10e-4 -0.001,0.016 0,0.0171 -0.003,-6e-5 -0.0141,1e-5 -0.0171,0 l 0,-0.0171 z m -0.27307,0.9216 c 0.95876,-0.0193 1.97692,0.0419 2.09922,0.0683 l 0.0341,-0.0341 c 0.19758,0.17866 0.28509,0.35286 0.29014,0.49493 -1.1e-4,0.015 0.002,0.0368 0,0.0512 -5.5e-4,0.004 10e-4,0.0128 0,0.0171 -0.01,0.0344 -0.0311,0.0847 -0.0512,0.11947 -0.008,0.0128 -0.0254,0.0392 -0.0341,0.0512 -0.003,0.004 -0.014,0.0133 -0.0171,0.0171 -0.28039,0.32603 -1.05386,0.58328 -1.84322,0.90454 -1.04254,0.57782 -1.70465,0.58907 -2.03095,0.2048 -0.25022,-0.31208 -0.30112,-0.88068 -0.18773,-1.62135 0.01,-0.0144 0.0312,-0.0369 0.0512,-0.0512 0.009,-0.006 0.0245,-0.0122 0.0341,-0.0171 0.22237,-0.10194 0.75417,-0.16531 1.34828,-0.18773 0.0984,-0.004 0.20628,-0.015 0.3072,-0.0171 z m -9.02834,3.32803 c 1.12978,0.45354 2.18772,1.40929 3.07203,2.21868 0.39499,0.41512 0.71923,0.89393 1.04107,1.36535 -0.99479,0.19804 -2.35622,-0.0331 -3.22562,-0.68267 -0.76901,-0.90847 -1.2083,-1.87763 -0.88748,-2.90136 z m -22.22097,0.32427 c 0.40353,0.11148 0.85062,0.26814 1.31414,0.44374 -0.0991,0.39768 -0.3889,1.85213 -0.2048,2.93549 -0.84597,-0.069 -2.14503,-0.11745 -2.81602,-0.18774 0.66163,-1.2087 1.25245,-2.30208 1.70668,-3.19149 z m 2.03095,0.7168 c 0.86669,0.34627 1.71356,0.71343 2.35522,0.92161 1.384,1.64096 -0.59317,2.07889 -1.09228,2.32109 -0.32728,0.0469 -0.5887,-0.0208 -0.78507,-0.1536 -0.0185,-0.013 -0.0509,-0.037 -0.0683,-0.0512 -0.0687,-0.0581 -0.13423,-0.12967 -0.18773,-0.2048 -0.48282,-0.70018 -0.3479,-2.08593 -0.22187,-2.83309 z m -230.98209,1.96269 c 5.4164,1.8295 29.3567,2.61666 35.03814,0.3072 0.62038,6.7914 1.76561,24.02476 1.84321,27.76768 -8.31879,-1.69117 -22.35818,-3.28591 -28.85996,-1.62134 -0.97794,-3.198 -5.42415,-17.52688 -8.02139,-26.45354 z m 36.26695,0.512 c 6.33485,2.23463 46.24412,10.48515 52.01961,10.80329 -0.89662,3.89005 -1.72247,7.26083 -2.03095,8.31153 -4.05503,15.21853 -16.69636,34.09508 -18.41508,36.60829 -1.92165,1.7693 -5.35528,5.01293 -12.56116,8.00433 -3.82524,1.65709 -26.33402,2.4301 -29.95224,1.68961 -0.71699,-0.10004 -4.40669,-0.70792 -4.6251,-0.69974 -9.19772,-1.42069 -27.61584,-4.35122 -31.60772,-4.86404 -2.65021,-0.47661 -8.60964,-1.84636 -11.77609,-2.61122 -1.22934,-1.92913 -2.7177,-4.42419 -4.82991,-5.18831 -2.549321,-0.87885 -5.253937,-2.4107 -8.00433,-1.80908 -0.154655,0.0267 -0.340839,0.0731 -0.546137,0.11947 -1.17968,-2.14691 -0.216145,-7.82643 0.648538,-10.17181 1.005374,-2.08157 3.036968,-6.77125 5.836846,-9.36968 4.208913,1.49861 24.954293,-0.15907 35.021083,-3.43042 4.50829,-1.39076 25.84261,-0.74636 34.88454,2.20161 10.438,3.56674 16.74266,13.84571 19.25135,16.57187 -0.002,-6e-5 -0.0155,2.4e-4 -0.0171,0 -0.005,0.003 -0.0256,0.0127 -0.0341,0.0171 -1e-5,0.002 -9e-5,0.0151 0,0.0171 -6e-5,0.002 1.2e-4,0.0151 0,0.0171 0.002,-1.7e-4 0.0155,4e-5 0.0171,0 0.004,0.002 0.011,0.0138 0.0171,0.0171 0.002,5.5e-4 0.0155,-5.4e-4 0.0171,0 0.16351,0.0447 0.61597,0.0658 0.80214,0.11947 -2.56174,-2.81781 -8.87739,-13.90323 -18.73934,-17.63 -0.758,-0.24294 -1.73351,-0.50636 -2.86723,-0.76801 -1.12029,-5.35267 -1.96012,-20.81974 -2.50882,-27.95542 z m -112.470225,3.22563 c 0.0016,-0.001 0.01562,5.4e-4 0.01709,0 0.0016,6e-5 0.01562,-3e-5 0.01709,0 0.02556,0.0367 0.05834,0.0995 0.08533,0.13653 -0.0485,1.59194 -0.774807,2.57048 -1.467746,4.0107 -0.415311,-0.18235 -0.794936,-0.36566 -1.143476,-0.54614 0.567644,-1.4774 1.401067,-3.42231 2.474687,-3.58403 0.0027,-0.002 0.01414,-0.0151 0.01709,-0.0171 z m 1.22881,1.26294 c 4.570435,4.05998 16.948536,8.91384 31.010378,6.46832 -1.091532,3.13107 -3.497662,8.07096 -7.936062,11.33235 0,0 -24.349733,13.73349 -30.174107,20.49723 -2.396585,3.27699 -4.645962,6.6537 -7.372859,9.71101 -2.559742,3.56246 -22.129414,27.42774 -23.876455,29.96931 -0.907012,1.33619 -3.104577,4.21749 -4.9664393,4.55683 -3.1412474,-5.21485 6.5159513,-25.25341 7.2704573,-28.05782 0.799299,-3.04503 7.051596,-19.69014 16.691332,-22.44284 0.910171,-0.55448 20.40797,-4.86007 23.586322,-6.58779 7.991922,-2.80336 11.875829,-10.32886 12.236897,-13.22677 3.195615,0.94708 6.321155,1.59058 6.809653,1.91148 0.0016,0.002 0.01535,0.0152 0.01709,0.0171 0.0033,0.002 0.01365,0.0158 0.01709,0.0171 0.0016,5.5e-4 0.01567,-5.5e-4 0.01709,0 l 0.119467,-0.49494 c -0.0038,-0.004 -0.016,-0.016 -0.01709,-0.0171 -0.0022,-0.002 -0.01447,-0.0147 -0.01709,-0.0171 -0.714697,-0.60539 -9.289861,-2.68391 -12.134496,-5.35897 -2.028339,-1.42669 -8.15324,-3.14586 -12.458765,-4.82991 0.648599,-1.69536 1.152143,-1.99313 1.177609,-3.44749 z m 32.990127,6.00751 c 3.685299,2.81974 10.509458,13.91731 11.468891,18.77348 -2.76652,2.25314 -5.375933,9.39666 -6.502451,11.79316 -0.767253,2.14849 -0.806733,7.42969 -0.785073,9.74515 -1.08641,0.30623 -2.373853,0.70039 -3.669363,1.12641 1.079185,-4.2605 4.462775,-21.75497 -3.549894,-26.60715 0,0 -6.395196,3.16347 -8.960071,6.98033 -2.01095,1.53997 -13.062198,4.26262 -16.879067,7.32165 -1.351357,1.69053 -2.659903,10.79205 -3.498694,13.26091 -1.202508,2.68798 -9.749881,7.68336 -11.622494,9.86461 -10.133606,4.77765 -21.404624,16.82298 -27.528751,22.10151 0.921979,-1.02206 1.692529,-2.03869 2.065083,-2.59416 1.72248,-2.55181 21.03796,-26.86963 23.603387,-30.4301 2.721635,-3.06316 5.307512,-5.96935 7.782461,-9.18194 6.002634,-6.97204 22.679078,-15.95842 28.109024,-19.23429 0,0 9.035203,-5.84502 9.967012,-12.91957 z m -3.686429,16.43533 c 0.0016,8e-5 0.01551,-3.1e-4 0.01709,0 9.06612,6.68412 3.306088,23.0843 2.423486,25.60021 -1.470623,0.51393 -2.847687,1.02462 -3.78883,1.45067 -0.560987,-0.22337 -1.055482,-0.45024 -1.450678,-0.68267 -0.571364,-1.20893 -1.364159,-2.11991 -3.020824,-0.93867 l -0.546137,0.0512 c -0.138708,0.3081 -1.132045,3.49685 -1.075209,5.76858 -2.705948,0.54489 -23.406165,2.30912 -28.296759,2.49175 2.512382,-2.36336 7.530094,-5.99107 8.635804,-8.5334 0.825864,-2.47628 0.210809,-11.17102 4.317901,-13.4145 1.836213,-0.9353 12.576785,-3.87601 15.599056,-6.43419 1.673481,-1.362 5.096961,-4.22146 7.185124,-5.35897 z m 10.376616,24.6786 c 0.08409,-0.004 0.17277,10e-4 0.256002,0 2.089773,-0.0316 4.038469,0.73958 6.058714,1.43361 1.812825,0.63375 2.913555,2.08011 3.925365,3.61816 -0.41544,7.96369 -10.367228,17.80927 -10.88862,19.14895 l 1.109342,-0.34133 c 0.518558,-1.30767 10.173898,-9.77271 10.581418,-17.57881 10e-4,0.003 0.0157,0.0142 0.0171,0.0171 0,0 1.10746,0.28092 1.77494,0.46081 -0.16801,5.0241 -2.21563,28.9118 -8.243264,36.26695 -6e-6,0 -8.556268,9.38884 -8.789403,11.43476 -0.56889,6.11562 -8.195107,13.90248 -9.898745,16.43533 -2.146671,2.46278 -18.170753,24.93345 -21.760172,27.20448 1.99414,-2.97704 3.643306,-8.08688 4.505636,-9.77928 1.860942,-3.54688 11.208787,-17.93346 12.987836,-22.03324 1.395261,-3.12205 4.810669,-15.57708 4.812838,-18.63695 -0.03113,-2.3268 -3.305362,-11.25857 -3.089092,-13.8241 0.985659,-3.13191 13.750649,-16.06909 14.438515,-18.22735 l -0.819207,-0.32427 c -0.786504,2.0883 -14.262914,16.13895 -15.20652,19.31962 -0.188751,2.59809 3.582592,10.5346 3.618162,12.83424 -0.01567,3.04552 -3.948996,16.47749 -5.341909,19.59268 -1.796558,4.07949 -10.850859,17.96595 -12.748901,21.50417 -0.995598,1.98786 -3.49326,8.6231 -5.154174,10.51315 -0.836027,-1.25104 -2.674971,-5.20852 -2.372285,-7.74832 0.192781,-3.41753 -1.670969,-21.30687 -1.740815,-26.23168 0.0033,-3.12052 0.850179,-19.59494 1.518946,-22.13564 0.933726,-3.32132 8.843318,-12.01397 14.30198,-13.55104 3.98035,-1.76071 13.720731,-18.18999 13.994777,-21.60657 2.10079,1.16665 6.570746,2.88787 8.362733,3.7547 2.296525,0.99508 3.04883,3.97949 3.089091,4.18136 l 0.204802,-0.3584 c -9.9e-5,-0.002 2.7e-5,-0.0156 0,-0.0171 5.46e-4,-0.003 -5.46e-4,-0.0132 0,-0.0171 0.05959,-0.52943 -0.563549,-3.88389 -2.969624,-4.89817 -1.807175,-0.86525 -5.960606,-3.10759 -7.987263,-4.43737 0.03266,-0.54139 -0.17052,-1.1954 -0.682672,-1.99681 -0.126715,-0.17872 -0.246008,-0.40086 -0.358403,-0.64854 4.484342,1.72313 15.20652,2.85016 15.20652,2.85015 0.0011,-0.002 0.01611,-0.0145 0.01709,-0.0171 0.0011,-0.003 -5.46e-4,-0.0136 0,-0.0171 0.01212,-0.10653 -0.04833,-0.39918 -0.05117,-0.4096 -5.46e-4,-0.003 -8.667253,-1.4296 -13.021969,-2.85015 2.404054,-1.02524 6.918117,-2.33005 8.960071,-2.67949 0.467652,-0.10601 0.928335,-0.18156 1.382411,-0.2048 z m -15.428389,2.52588 c 0.61168,0.76088 1.204452,1.53624 1.774947,2.33816 0.41116,1.46809 0.765494,2.04079 0.80214,2.26988 4.26e-4,0.003 -2.57e-4,0.0137 0,0.0171 1.09e-4,0.005 1.42e-4,0.0253 0,0.0341 -0.0044,0.009 -0.01409,0.0285 -0.01709,0.0341 -0.0016,0.002 -0.01502,0.015 -0.01709,0.0171 -0.0016,0.002 -0.01245,0.0125 -0.01709,0.0171 -0.0016,-2e-4 -0.01556,6e-5 -0.01709,0 -0.0027,0.003 -0.01404,0.014 -0.01709,0.0171 -0.01568,0.005 -0.04811,0.0135 -0.06827,0.0171 -0.26669,0.0419 -0.90241,0.0131 -2.099216,0.3584 -0.598638,0.1207 -0.985648,0.007 -1.211743,-0.256 -0.01841,-0.0223 -0.05199,-0.0609 -0.06827,-0.0853 -0.598387,-0.93821 0.305422,-3.32483 0.955741,-4.77871 z m 29.90104,4.65924 c 2.89894,0.758 6.58749,1.66879 8.51633,1.97975 4.15448,0.86105 21.30538,2.9764 30.92505,4.59097 -8.18782,2.85635 -31.84986,12.89213 -36.93256,18.27854 -1.94749,2.03093 -6.19033,6.63541 -10.769156,10.73502 4.255646,-6.53207 8.266946,-30.55821 8.260336,-35.58428 z m -7.526462,12.88544 c -4.613843,0.37521 -16.058611,13.41192 -16.571865,16.04279 -0.729089,2.45271 4.901175,13.60446 5.290708,15.59906 0,0 1.294232,-0.86923 1.467745,-1.09228 0.0022,-0.003 0.01546,-0.014 0.01709,-0.0171 2.73e-4,-0.001 -9.3e-5,-0.016 0,-0.0171 4.669537,-4.93958 8.364879,-10.55185 11.025154,-16.29879 0.26139,-2.80118 1.91224,-14.3997 -0.30721,-13.89238 -0.0334,-0.0262 -0.31099,-0.24107 -0.819196,-0.32427 -0.0355,0.002 -0.0661,-0.003 -0.1024,0 z m 0.256002,1.46774 c 0.002,1.8e-4 0.0156,-4e-5 0.0171,0 1.8642,0.77323 0.57218,10.6032 -0.11946,12.97077 -0.897287,2.58392 -7.298539,11.89482 -10.393687,14.98465 -1.533167,-3.41017 -5.769272,-10.79871 -5.137107,-12.86837 2.611264,-2.92834 6.380532,-12.41693 15.633194,-15.08705 z"
       id="path1474"
       inkscape:connector-curvature="0" />
  </g>
</svg>
